<svg width="48" height="46" viewBox="0 0 48 46" fill="none" xmlns="http://www.w3.org/2000/svg">
<mask id="path-1-outside-1_801_10259" maskUnits="userSpaceOnUse" x="-2.78074" y="-3.06872" width="53.6023" height="51.1424" fill="black">
<rect fill="white" x="-2.78074" y="-3.06872" width="53.6023" height="51.1424"/>
<path fill-rule="evenodd" clip-rule="evenodd" d="M35.733 40.4427C36.0203 43.5054 32.0613 44.9647 30.292 42.4483L22.1474 30.8643C21.5257 29.9799 20.4762 29.4985 19.4003 29.6041L5.3074 30.987C2.24595 31.2875 0.769612 27.3348 3.2784 25.5547L28.1613 7.89908C30.0448 6.56268 32.6686 7.76633 32.8842 10.0656L35.733 40.4427Z"/>
</mask>
<path fill-rule="evenodd" clip-rule="evenodd" d="M35.733 40.4427C36.0203 43.5054 32.0613 44.9647 30.292 42.4483L22.1474 30.8643C21.5257 29.9799 20.4762 29.4985 19.4003 29.6041L5.3074 30.987C2.24595 31.2875 0.769612 27.3348 3.2784 25.5547L28.1613 7.89908C30.0448 6.56268 32.6686 7.76633 32.8842 10.0656L35.733 40.4427Z" fill="#E8FF76"/>
<path d="M5.30741 30.987L5.11208 28.9966L5.30741 30.987ZM22.1474 30.8643L23.7835 29.714L22.1474 30.8643ZM19.4003 29.6041L19.5957 31.5945L19.4003 29.6041ZM30.292 42.4483L31.9281 41.2979L30.292 42.4483ZM35.733 40.4427L33.7418 40.6294L35.733 40.4427ZM30.292 42.4483L31.9281 41.2979L23.7835 29.714L22.1474 30.8643L20.5114 32.0146L28.6559 43.5986L30.292 42.4483ZM19.4003 29.6041L19.205 27.6136L5.11208 28.9966L5.30741 30.987L5.50273 32.9775L19.5957 31.5945L19.4003 29.6041ZM3.2784 25.5547L4.43575 27.1858L29.3187 9.53019L28.1613 7.89908L27.004 6.26797L2.12104 23.9236L3.2784 25.5547ZM32.8842 10.0656L30.893 10.2524L33.7418 40.6294L35.733 40.4427L37.7243 40.2559L34.8755 9.87889L32.8842 10.0656ZM28.1613 7.89908L29.3187 9.53019C29.9465 9.08473 30.8211 9.48594 30.893 10.2524L32.8842 10.0656L34.8755 9.87889C34.5161 6.04672 30.143 4.04063 27.004 6.26797L28.1613 7.89908ZM5.30741 30.987L5.11208 28.9966C4.09161 29.0967 3.59948 27.7792 4.43575 27.1858L3.2784 25.5547L2.12104 23.9236C-2.06025 26.8904 0.400284 33.4782 5.50273 32.9775L5.30741 30.987ZM22.1474 30.8643L23.7835 29.714C22.7472 28.2401 20.9981 27.4377 19.205 27.6136L19.4003 29.6041L19.5957 31.5945C19.9543 31.5593 20.3041 31.7198 20.5114 32.0146L22.1474 30.8643ZM30.292 42.4483L28.6559 43.5986C31.6047 47.7926 38.203 45.3605 37.7243 40.2559L35.733 40.4427L33.7418 40.6294C33.8375 41.6503 32.5179 42.1368 31.9281 41.2979L30.292 42.4483Z" fill="#550940" mask="url(#path-1-outside-1_801_10259)"/>
<path d="M28.5721 13.2564C28.4648 16.8286 28.3974 18.8744 28.9341 27.7218C28.6139 27.3968 28.2437 27.0589 27.811 26.7059L27.1025 27.4027C28.235 28.8425 28.649 29.8639 29.1235 30.7891C29.159 31.3381 29.1975 31.9012 29.2361 32.4878C27.7203 30.4687 26.3424 28.9295 24.8872 27.8004C25.0057 27.612 25.1183 27.4141 25.2199 27.2063C25.6956 26.2337 25.8992 25.2022 25.8258 24.3093C25.7533 23.4291 25.3975 22.5943 24.6569 22.1755C23.9038 21.7498 23.0343 21.9113 22.2985 22.3582C21.5583 22.8079 20.8797 23.5808 20.4045 24.5525L20.3603 24.6418L20.357 24.6489C20.2181 24.9455 20.1071 25.2469 20.0188 25.5456C18.2027 25.1651 16.123 25.1166 13.5803 25.2845C18.8497 21.4047 21.8361 19.1135 23.8996 17.423C24.2866 18.0959 24.8241 18.817 25.584 19.6322L26.3808 19.0382C25.7559 17.9727 25.412 17.1164 25.1513 16.3759C26.4635 15.2525 27.4099 14.3548 28.5721 13.2564Z" fill="#550940" stroke="#550940"/>
</svg>