<svg preserveAspectRatio="none" width="100%" height="100%" overflow="visible" style="display: block;" viewBox="0 0 20 20" fill="none" xmlns="http://www.w3.org/2000/svg">
<g id="ep:close-bold">
<path id="Vector" d="M3.81361 3.81247C4.04803 3.57811 4.36593 3.44645 4.6974 3.44645C5.02888 3.44645 5.34678 3.57811 5.58119 3.81247L10.0011 8.2324L14.421 3.81247C14.6566 3.58371 14.9727 3.45682 15.301 3.45922C15.6294 3.46161 15.9436 3.59312 16.1758 3.8253C16.408 4.05748 16.5395 4.3717 16.5419 4.70005C16.5443 5.02839 16.4174 5.3445 16.1886 5.58005L11.7687 9.99997L16.1886 14.4199C16.4174 14.6554 16.5443 14.9716 16.5419 15.2999C16.5395 15.6282 16.408 15.9425 16.1758 16.1746C15.9436 16.4068 15.6294 16.5383 15.301 16.5407C14.9727 16.5431 14.6566 16.4162 14.421 16.1875L10.0011 11.7676L5.58119 16.1875C5.34564 16.4162 5.02953 16.5431 4.70119 16.5407C4.37284 16.5383 4.05862 16.4068 3.82644 16.1746C3.59425 15.9425 3.46275 15.6282 3.46035 15.2999C3.45795 14.9716 3.58485 14.6554 3.81361 14.4199L8.23353 9.99997L3.81361 5.58005C3.57925 5.34564 3.44759 5.02774 3.44759 4.69626C3.44759 4.36479 3.57925 4.04689 3.81361 3.81247Z" fill="var(--fill-0, #E8FF76)"/>
</g>
</svg>
