<svg width="91" height="64" viewBox="0 0 91 64" fill="none" xmlns="http://www.w3.org/2000/svg">
<rect x="75.8947" y="21.4775" width="8.70898" height="8.52734" fill="#FADE26"/>
<rect x="20.84" y="38.624" width="47.6367" height="13.3457" fill="#FADE26"/>
<mask id="path-3-outside-1_801_10460" maskUnits="userSpaceOnUse" x="-1.99028" y="24.0379" width="85.0741" height="43.697" fill="black">
<rect fill="white" x="-1.99028" y="24.0379" width="85.0741" height="43.697"/>
<path d="M12.8605 52.813C9.11942 53.1734 7.16934 52.5278 7.01023 50.8761C6.96039 50.3588 7.06039 49.9374 7.31022 49.6121C7.56006 49.2868 7.91382 49.102 8.3715 49.058C8.57049 49.0388 8.76241 49.0504 8.94725 49.0929C9.15008 49.1135 9.53871 49.1865 10.1131 49.3119C10.3596 49.3685 10.6857 49.4175 11.0913 49.4587C11.497 49.5 11.8888 49.5024 12.2669 49.466C12.9833 49.397 13.4821 49.2585 13.7633 49.0507C14.0446 48.8428 14.1651 48.53 14.1248 48.1121C14.0922 47.7738 13.9877 47.5228 13.8112 47.359C13.6329 47.1754 13.2764 47.0189 12.7417 46.8897C12.2071 46.7604 11.3772 46.5893 10.2521 46.3763C9.23031 46.1936 8.37646 45.7738 7.69058 45.1168C7.02267 44.438 6.63696 43.5614 6.53345 42.4868C6.38776 40.9745 6.82381 39.7676 7.84159 38.8662C8.85937 37.9648 10.3234 37.4221 12.2337 37.2381C13.6665 37.1001 14.81 37.1907 15.6642 37.5101C16.5184 37.8295 16.9819 38.3673 17.0548 39.1235C17.1008 39.601 16.9998 40.0125 16.7519 40.3577C16.504 40.7029 16.1412 40.8985 15.6636 40.9445C15.4646 40.9637 15.223 40.9568 14.9386 40.924C14.6742 40.8892 14.3481 40.8403 13.9605 40.7772C13.6723 40.7046 13.3661 40.6537 13.042 40.6247C12.7378 40.5937 12.4165 40.5946 12.0782 40.6271C11.123 40.7192 10.6781 41.1035 10.7432 41.78C10.7816 42.178 11.0032 42.4981 11.4081 42.7403C11.8111 42.9625 12.5652 43.1811 13.6705 43.396C15.1852 43.6919 16.3263 44.1745 17.0937 44.8436C17.8591 45.4929 18.2994 46.4145 18.4144 47.6085C18.5486 49.0014 18.1196 50.1775 17.1275 51.1367C16.1533 52.074 14.731 52.6328 12.8605 52.813ZM27.8712 51.367C25.742 51.5721 24.002 51.1272 22.6513 50.0322C21.3006 48.9372 20.4949 47.0365 20.2342 44.3302C19.9716 41.604 20.3997 39.5845 21.5184 38.2717C22.6352 36.939 24.2582 36.1701 26.3875 35.965C28.5167 35.7599 30.2566 36.2048 31.6073 37.2998C32.9561 38.3749 33.7618 40.2756 34.0244 43.0018C34.2851 45.7081 33.8571 47.7276 32.7402 49.0603C31.6234 50.393 30.0004 51.1619 27.8712 51.367ZM27.5261 47.7851C28.0833 47.7315 28.5404 47.577 28.8974 47.3216C29.2525 47.0464 29.5008 46.6008 29.6422 45.9846C29.8036 45.3665 29.8316 44.5103 29.7262 43.4158C29.6207 42.3214 29.4298 41.4862 29.1534 40.9103C28.8969 40.3325 28.5691 39.9524 28.1699 39.7699C27.7688 39.5675 27.2897 39.4932 26.7325 39.5468C26.1952 39.5986 25.7391 39.763 25.3641 40.0402C25.0071 40.2955 24.7479 40.7322 24.5865 41.3502C24.4451 41.9664 24.427 42.8217 24.5325 43.9161C24.6379 45.0106 24.8189 45.8467 25.0754 46.4245C25.3518 47.0004 25.6905 47.3896 26.0916 47.5919C26.5107 47.7725 26.9889 47.8369 27.5261 47.7851ZM39.7876 50.219C38.3549 50.3571 37.5733 49.7495 37.443 48.3964L36.3532 37.0836C36.2209 35.7106 36.8712 34.9551 38.3039 34.817C39.0203 34.748 39.553 34.8574 39.9021 35.1451C40.2492 35.4129 40.4563 35.8951 40.5234 36.5915C40.8183 35.9004 41.2788 35.3639 41.9048 34.9823C42.5488 34.5788 43.3185 34.334 44.214 34.2477C45.9253 34.0828 46.8529 34.7466 46.9966 36.2391C47.0503 36.7963 46.8816 37.2343 46.4906 37.5531C46.0995 37.872 45.4264 38.0774 44.4713 38.1694C43.536 38.2595 42.8084 38.42 42.2883 38.6508C41.7664 38.8618 41.418 39.2066 41.2432 39.6854C41.0864 40.1424 41.0482 40.7887 41.1288 41.6245L41.7412 47.9823C41.8716 49.3354 41.2204 50.081 39.7876 50.219ZM51.3307 49.1071C49.898 49.2451 49.1164 48.6375 48.9861 47.2844L47.8963 35.9717C47.764 34.5986 48.4143 33.8431 49.847 33.7051C50.5634 33.636 51.0961 33.7454 51.4452 34.0331C51.7923 34.3009 51.9994 34.7831 52.0665 35.4796C52.3615 34.7884 52.8219 34.252 53.4479 33.8703C54.0919 33.4669 54.8616 33.222 55.7571 33.1357C57.4684 32.9709 58.396 33.6347 58.5398 35.1271C58.5934 35.6843 58.4247 36.1223 58.0337 36.4411C57.6427 36.76 56.9695 36.9654 56.0144 37.0574C55.0791 37.1475 54.3515 37.308 53.8314 37.5388C53.3095 37.7498 52.9611 38.0947 52.7863 38.5734C52.6295 39.0304 52.5914 39.6767 52.6719 40.5125L53.2843 46.8703C53.4147 48.2235 52.7635 48.969 51.3307 49.1071ZM64.8102 54.4965C62.0442 54.763 60.5845 54.1002 60.4311 52.5083C60.3755 51.9312 60.4974 51.5278 60.7966 51.2982C61.0977 51.0884 61.5169 50.9576 62.0542 50.9059C62.6114 50.8522 63.1027 50.845 63.5283 50.8844C63.9558 50.9436 64.4282 50.9483 64.9456 50.8985C65.5226 50.8429 65.9239 50.7339 66.1492 50.5716C66.3746 50.4093 66.4691 50.1392 66.4327 49.7611C66.4097 49.5223 66.3302 49.2186 66.1943 48.8501C66.0584 48.4816 65.8057 47.9436 65.4363 47.2361C65.0868 46.5267 64.5811 45.5511 63.9192 44.3094L59.3168 35.6246C59.1687 35.3377 59.0783 35.025 59.0457 34.6867C58.9805 34.0102 59.1823 33.4987 59.651 33.1522C60.1179 32.7859 60.6199 32.5769 61.1572 32.5251C61.6547 32.4772 62.0651 32.5682 62.3885 32.7982C62.7299 33.0063 62.9894 33.3026 63.167 33.6872L67.8298 42.9988C68.4384 41.3937 68.8093 40.0324 68.9427 38.915C69.0959 37.7956 69.1086 36.7801 68.9806 35.8686C68.9051 35.2934 68.8203 34.8296 68.7261 34.4772C68.6498 34.103 68.597 33.867 68.5675 33.7695C68.4266 33.1404 68.5696 32.6446 68.9966 32.2821C69.4416 31.8978 69.9825 31.675 70.6193 31.6136C71.1963 31.558 71.6466 31.6452 71.97 31.8752C72.3114 32.0833 72.5728 32.3995 72.7543 32.8239C72.8844 33.1327 72.9796 33.4951 73.0398 33.911C73.1179 34.3052 73.1694 34.6316 73.1943 34.8903C73.294 35.9251 73.2961 36.9893 73.2007 38.083C73.1251 39.1748 72.9542 40.2156 72.688 41.2052C72.4398 42.1731 72.0906 43.0302 71.6403 43.7765C71.5703 43.8837 71.4402 44.097 71.2501 44.4166C71.0799 44.7343 70.8599 45.0567 70.5901 45.384C70.3185 45.6913 70.0292 45.92 69.7223 46.0701C70.0951 46.3957 70.379 46.8403 70.5738 47.404C70.7706 47.9875 70.8997 48.5977 70.9611 49.2345C71.0914 50.5876 70.6705 51.7428 69.6982 52.7001C68.7478 53.6753 67.1185 54.2741 64.8102 54.4965Z"/>
</mask>
<path d="M12.8605 52.813C9.11942 53.1734 7.16934 52.5278 7.01023 50.8761C6.96039 50.3588 7.06039 49.9374 7.31022 49.6121C7.56006 49.2868 7.91382 49.102 8.3715 49.058C8.57049 49.0388 8.76241 49.0504 8.94725 49.0929C9.15008 49.1135 9.53871 49.1865 10.1131 49.3119C10.3596 49.3685 10.6857 49.4175 11.0913 49.4587C11.497 49.5 11.8888 49.5024 12.2669 49.466C12.9833 49.397 13.4821 49.2585 13.7633 49.0507C14.0446 48.8428 14.1651 48.53 14.1248 48.1121C14.0922 47.7738 13.9877 47.5228 13.8112 47.359C13.6329 47.1754 13.2764 47.0189 12.7417 46.8897C12.2071 46.7604 11.3772 46.5893 10.2521 46.3763C9.23031 46.1936 8.37646 45.7738 7.69058 45.1168C7.02267 44.438 6.63696 43.5614 6.53345 42.4868C6.38776 40.9745 6.82381 39.7676 7.84159 38.8662C8.85937 37.9648 10.3234 37.4221 12.2337 37.2381C13.6665 37.1001 14.81 37.1907 15.6642 37.5101C16.5184 37.8295 16.9819 38.3673 17.0548 39.1235C17.1008 39.601 16.9998 40.0125 16.7519 40.3577C16.504 40.7029 16.1412 40.8985 15.6636 40.9445C15.4646 40.9637 15.223 40.9568 14.9386 40.924C14.6742 40.8892 14.3481 40.8403 13.9605 40.7772C13.6723 40.7046 13.3661 40.6537 13.042 40.6247C12.7378 40.5937 12.4165 40.5946 12.0782 40.6271C11.123 40.7192 10.6781 41.1035 10.7432 41.78C10.7816 42.178 11.0032 42.4981 11.4081 42.7403C11.8111 42.9625 12.5652 43.1811 13.6705 43.396C15.1852 43.6919 16.3263 44.1745 17.0937 44.8436C17.8591 45.4929 18.2994 46.4145 18.4144 47.6085C18.5486 49.0014 18.1196 50.1775 17.1275 51.1367C16.1533 52.074 14.731 52.6328 12.8605 52.813ZM27.8712 51.367C25.742 51.5721 24.002 51.1272 22.6513 50.0322C21.3006 48.9372 20.4949 47.0365 20.2342 44.3302C19.9716 41.604 20.3997 39.5845 21.5184 38.2717C22.6352 36.939 24.2582 36.1701 26.3875 35.965C28.5167 35.7599 30.2566 36.2048 31.6073 37.2998C32.9561 38.3749 33.7618 40.2756 34.0244 43.0018C34.2851 45.7081 33.8571 47.7276 32.7402 49.0603C31.6234 50.393 30.0004 51.1619 27.8712 51.367ZM27.5261 47.7851C28.0833 47.7315 28.5404 47.577 28.8974 47.3216C29.2525 47.0464 29.5008 46.6008 29.6422 45.9846C29.8036 45.3665 29.8316 44.5103 29.7262 43.4158C29.6207 42.3214 29.4298 41.4862 29.1534 40.9103C28.8969 40.3325 28.5691 39.9524 28.1699 39.7699C27.7688 39.5675 27.2897 39.4932 26.7325 39.5468C26.1952 39.5986 25.7391 39.763 25.3641 40.0402C25.0071 40.2955 24.7479 40.7322 24.5865 41.3502C24.4451 41.9664 24.427 42.8217 24.5325 43.9161C24.6379 45.0106 24.8189 45.8467 25.0754 46.4245C25.3518 47.0004 25.6905 47.3896 26.0916 47.5919C26.5107 47.7725 26.9889 47.8369 27.5261 47.7851ZM39.7876 50.219C38.3549 50.3571 37.5733 49.7495 37.443 48.3964L36.3532 37.0836C36.2209 35.7106 36.8712 34.9551 38.3039 34.817C39.0203 34.748 39.553 34.8574 39.9021 35.1451C40.2492 35.4129 40.4563 35.8951 40.5234 36.5915C40.8183 35.9004 41.2788 35.3639 41.9048 34.9823C42.5488 34.5788 43.3185 34.334 44.214 34.2477C45.9253 34.0828 46.8529 34.7466 46.9966 36.2391C47.0503 36.7963 46.8816 37.2343 46.4906 37.5531C46.0995 37.872 45.4264 38.0774 44.4713 38.1694C43.536 38.2595 42.8084 38.42 42.2883 38.6508C41.7664 38.8618 41.418 39.2066 41.2432 39.6854C41.0864 40.1424 41.0482 40.7887 41.1288 41.6245L41.7412 47.9823C41.8716 49.3354 41.2204 50.081 39.7876 50.219ZM51.3307 49.1071C49.898 49.2451 49.1164 48.6375 48.9861 47.2844L47.8963 35.9717C47.764 34.5986 48.4143 33.8431 49.847 33.7051C50.5634 33.636 51.0961 33.7454 51.4452 34.0331C51.7923 34.3009 51.9994 34.7831 52.0665 35.4796C52.3615 34.7884 52.8219 34.252 53.4479 33.8703C54.0919 33.4669 54.8616 33.222 55.7571 33.1357C57.4684 32.9709 58.396 33.6347 58.5398 35.1271C58.5934 35.6843 58.4247 36.1223 58.0337 36.4411C57.6427 36.76 56.9695 36.9654 56.0144 37.0574C55.0791 37.1475 54.3515 37.308 53.8314 37.5388C53.3095 37.7498 52.9611 38.0947 52.7863 38.5734C52.6295 39.0304 52.5914 39.6767 52.6719 40.5125L53.2843 46.8703C53.4147 48.2235 52.7635 48.969 51.3307 49.1071ZM64.8102 54.4965C62.0442 54.763 60.5845 54.1002 60.4311 52.5083C60.3755 51.9312 60.4974 51.5278 60.7966 51.2982C61.0977 51.0884 61.5169 50.9576 62.0542 50.9059C62.6114 50.8522 63.1027 50.845 63.5283 50.8844C63.9558 50.9436 64.4282 50.9483 64.9456 50.8985C65.5226 50.8429 65.9239 50.7339 66.1492 50.5716C66.3746 50.4093 66.4691 50.1392 66.4327 49.7611C66.4097 49.5223 66.3302 49.2186 66.1943 48.8501C66.0584 48.4816 65.8057 47.9436 65.4363 47.2361C65.0868 46.5267 64.5811 45.5511 63.9192 44.3094L59.3168 35.6246C59.1687 35.3377 59.0783 35.025 59.0457 34.6867C58.9805 34.0102 59.1823 33.4987 59.651 33.1522C60.1179 32.7859 60.6199 32.5769 61.1572 32.5251C61.6547 32.4772 62.0651 32.5682 62.3885 32.7982C62.7299 33.0063 62.9894 33.3026 63.167 33.6872L67.8298 42.9988C68.4384 41.3937 68.8093 40.0324 68.9427 38.915C69.0959 37.7956 69.1086 36.7801 68.9806 35.8686C68.9051 35.2934 68.8203 34.8296 68.7261 34.4772C68.6498 34.103 68.597 33.867 68.5675 33.7695C68.4266 33.1404 68.5696 32.6446 68.9966 32.2821C69.4416 31.8978 69.9825 31.675 70.6193 31.6136C71.1963 31.558 71.6466 31.6452 71.97 31.8752C72.3114 32.0833 72.5728 32.3995 72.7543 32.8239C72.8844 33.1327 72.9796 33.4951 73.0398 33.911C73.1179 34.3052 73.1694 34.6316 73.1943 34.8903C73.294 35.9251 73.2961 36.9893 73.2007 38.083C73.1251 39.1748 72.9542 40.2156 72.688 41.2052C72.4398 42.1731 72.0906 43.0302 71.6403 43.7765C71.5703 43.8837 71.4402 44.097 71.2501 44.4166C71.0799 44.7343 70.8599 45.0567 70.5901 45.384C70.3185 45.6913 70.0292 45.92 69.7223 46.0701C70.0951 46.3957 70.379 46.8403 70.5738 47.404C70.7706 47.9875 70.8997 48.5977 70.9611 49.2345C71.0914 50.5876 70.6705 51.7428 69.6982 52.7001C68.7478 53.6753 67.1185 54.2741 64.8102 54.4965Z" fill="#3F3833"/>
<path d="M7.31022 49.6121L12.4711 53.5754L12.4711 53.5754L7.31022 49.6121ZM8.94725 49.0929L7.49093 55.435L8.28882 55.5666L8.94725 49.0929ZM10.1131 49.3119L11.5695 42.9699L11.5012 42.9546L10.1131 49.3119ZM11.0913 49.4587L10.4329 55.9325L10.4329 55.9325L11.0913 49.4587ZM13.7633 49.0507L9.89581 43.8176L9.89581 43.8176L13.7633 49.0507ZM13.8112 47.359L9.14321 51.8925L9.3847 52.1286L13.8112 47.359ZM12.7417 46.8897L11.2126 53.2146L12.7417 46.8897ZM10.2521 46.3763L11.4622 39.9827L11.3977 39.9708L10.2521 46.3763ZM7.69058 45.1168L3.05238 49.6808L3.18954 49.8161L7.69058 45.1168ZM7.84159 38.8662L12.1559 43.7375L12.1559 43.7375L7.84159 38.8662ZM15.6642 37.5101L17.9431 31.4151L17.9431 31.4151L15.6642 37.5101ZM14.9386 40.924L14.0902 47.3756L14.1916 47.3881L14.9386 40.924ZM13.9605 40.7772L12.3696 47.0869L12.9155 47.1999L13.9605 40.7772ZM13.042 40.6247L12.3836 47.0984L12.4616 47.1059L13.042 40.6247ZM11.4081 42.7403L8.0682 48.3249L8.26554 48.4382L11.4081 42.7403ZM13.6705 43.396L14.9182 37.0096L14.9123 37.0084L13.6705 43.396ZM17.0937 44.8436L12.817 49.748L12.8845 49.8061L17.0937 44.8436ZM17.1275 51.1367L21.6394 55.8256L21.6504 55.8149L17.1275 51.1367ZM12.8605 52.813L12.2365 46.3358C11.5237 46.4045 11.0295 46.4114 10.7162 46.3957C10.382 46.3789 10.4008 46.3434 10.6373 46.4217C10.8789 46.5017 11.5718 46.7772 12.2586 47.5254C13.0154 48.3497 13.4007 49.3528 13.4874 50.2522L7.01023 50.8761L0.533069 51.5001C0.699265 53.2253 1.38801 54.9285 2.6721 56.3271C3.88628 57.6495 5.33028 58.3737 6.54693 58.7765C8.82464 59.5306 11.3376 59.497 13.4844 59.2902L12.8605 52.813ZM7.01023 50.8761L13.4874 50.2522C13.5517 50.9193 13.4732 52.2705 12.4711 53.5754L7.31022 49.6121L2.14932 45.6487C0.647572 47.6043 0.369118 49.7982 0.533069 51.5001L7.01023 50.8761ZM7.31022 49.6121L12.4711 53.5754C12.036 54.142 11.4607 54.6396 10.7747 54.9978C10.1045 55.3477 9.47519 55.4889 8.99546 55.5351L8.3715 49.058L7.74754 42.5808C5.73443 42.7747 3.63639 43.7123 2.14932 45.6487L7.31022 49.6121ZM8.3715 49.058L8.99546 55.5351C8.53615 55.5794 8.02388 55.5573 7.49093 55.435L8.94725 49.0929L10.4036 42.7508C9.50094 42.5435 8.60483 42.4982 7.74754 42.5808L8.3715 49.058ZM8.94725 49.0929L8.28882 55.5666C8.2285 55.5605 8.18389 55.5547 8.15954 55.5514C8.13416 55.548 8.11912 55.5456 8.11653 55.5452C8.11316 55.5447 8.13511 55.5482 8.18917 55.5583C8.29917 55.579 8.47319 55.6143 8.7251 55.6693L10.1131 49.3119L11.5012 42.9546C10.9768 42.8401 10.2343 42.6831 9.60568 42.6191L8.94725 49.0929ZM10.1131 49.3119L8.65682 55.654C9.27541 55.7961 9.89979 55.8782 10.4329 55.9325L11.0913 49.4587L11.7497 42.985C11.6267 42.9725 11.5486 42.9621 11.5081 42.956C11.4889 42.9531 11.4843 42.9521 11.4924 42.9536C11.5 42.955 11.5268 42.96 11.5695 42.9699L10.1131 49.3119ZM11.0913 49.4587L10.4329 55.9325C11.2339 56.0139 12.0563 56.0235 12.8909 55.9431L12.2669 49.466L11.6429 42.9888C11.7213 42.9813 11.7601 42.986 11.7497 42.985L11.0913 49.4587ZM12.2669 49.466L12.8909 55.9431C13.7788 55.8576 15.8297 55.6149 17.6308 54.2838L13.7633 49.0507L9.89581 43.8176C10.6243 43.2792 11.2547 43.0911 11.4382 43.0402C11.6643 42.9775 11.7578 42.9777 11.6429 42.9888L12.2669 49.466ZM13.7633 49.0507L17.6308 54.2838C20.1445 52.426 20.8099 49.6466 20.602 47.4881L14.1248 48.1121L7.64763 48.736C7.59475 48.1871 7.60949 47.3154 7.99223 46.3216C8.39647 45.2719 9.08626 44.4159 9.89581 43.8176L13.7633 49.0507ZM14.1248 48.1121L20.602 47.4881C20.4791 46.213 19.9855 44.2115 18.2378 42.5895L13.8112 47.359L9.3847 52.1286C7.98988 50.8341 7.70529 49.3346 7.64763 48.736L14.1248 48.1121ZM13.8112 47.359L18.4793 42.8255C16.9049 41.2045 14.912 40.7197 14.2709 40.5647L12.7417 46.8897L11.2126 53.2146C11.2469 53.2229 11.0776 53.1865 10.7951 53.0625C10.564 52.9611 9.86293 52.6336 9.14321 51.8925L13.8112 47.359ZM12.7417 46.8897L14.2709 40.5647C13.5693 40.3951 12.606 40.1992 11.4622 39.9827L10.2521 46.3763L9.04197 52.77C10.1485 52.9794 10.845 53.1257 11.2126 53.2146L12.7417 46.8897ZM10.2521 46.3763L11.3977 39.9708C11.4316 39.9769 11.5505 40.0033 11.7167 40.085C11.8871 40.1688 12.0521 40.2838 12.1916 40.4175L7.69058 45.1168L3.18954 49.8161C4.88725 51.4422 6.94493 52.3953 9.10652 52.7819L10.2521 46.3763ZM7.69058 45.1168L12.3288 40.5528C12.5516 40.7793 12.7334 41.0499 12.8565 41.3297C12.9754 41.5998 13.0043 41.7976 13.0106 41.8629L6.53345 42.4868L0.0562885 43.1108C0.282685 45.4609 1.19903 47.7973 3.05238 49.6808L7.69058 45.1168ZM6.53345 42.4868L13.0106 41.8629C13.0134 41.8916 13.0357 42.2032 12.8712 42.6586C12.6972 43.14 12.4118 43.5108 12.1559 43.7375L7.84159 38.8662L3.52728 33.9949C0.750787 36.4539 -0.26192 39.8076 0.0562885 43.1108L6.53345 42.4868ZM7.84159 38.8662L12.1559 43.7375C11.9801 43.8932 11.8764 43.9173 11.9647 43.8846C12.0652 43.8473 12.3399 43.7651 12.8577 43.7152L12.2337 37.2381L11.6098 30.7609C8.87673 31.0242 5.92079 31.8751 3.52728 33.9949L7.84159 38.8662ZM12.2337 37.2381L12.8577 43.7152C13.2865 43.6739 13.54 43.6805 13.6515 43.6893C13.7675 43.6985 13.6491 43.7038 13.3852 43.6052L15.6642 37.5101L17.9431 31.4151C15.7798 30.6062 13.5168 30.5772 11.6098 30.7609L12.2337 37.2381ZM15.6642 37.5101L13.3852 43.6052C13.072 43.488 12.3807 43.1638 11.7235 42.4014C11.0142 41.5784 10.6606 40.6095 10.5776 39.7474L17.0548 39.1235L23.5319 38.4995C23.376 36.8813 22.7543 35.2654 21.5814 33.9046C20.4607 32.6044 19.1105 31.8516 17.9431 31.4151L15.6642 37.5101ZM17.0548 39.1235L10.5776 39.7474C10.5396 39.3531 10.5484 38.8321 10.6939 38.2394C10.8422 37.6349 11.1071 37.0624 11.4664 36.562L16.7519 40.3577L22.0373 44.1533C23.3239 42.3619 23.7082 40.3299 23.5319 38.4995L17.0548 39.1235ZM16.7519 40.3577L11.4664 36.562C11.9001 35.9582 12.4896 35.4218 13.2053 35.0359C13.9021 34.6601 14.5552 34.514 15.0397 34.4674L15.6636 40.9445L16.2876 47.4217C18.3647 47.2216 20.5469 46.2287 22.0373 44.1533L16.7519 40.3577ZM15.6636 40.9445L15.0397 34.4674C15.2574 34.4464 15.4222 34.4465 15.5174 34.4492C15.615 34.452 15.6738 34.4585 15.6857 34.4599L14.9386 40.924L14.1916 47.3881C14.7537 47.4531 15.4836 47.4991 16.2876 47.4217L15.6636 40.9445ZM14.9386 40.924L15.7871 34.4724C15.611 34.4492 15.3551 34.4114 15.0054 34.3545L13.9605 40.7772L12.9155 47.1999C13.3411 47.2692 13.7374 47.3292 14.0902 47.3756L14.9386 40.924ZM13.9605 40.7772L15.5514 34.4675C14.9018 34.3038 14.2556 34.2002 13.6224 34.1435L13.042 40.6247L12.4616 47.1059C12.4767 47.1072 12.4428 47.1053 12.3696 47.0869L13.9605 40.7772ZM13.042 40.6247L13.7004 34.1509C12.9258 34.0721 12.1726 34.0808 11.4542 34.15L12.0782 40.6271L12.7022 47.1043C12.6604 47.1083 12.5497 47.1153 12.3836 47.0984L13.042 40.6247ZM12.0782 40.6271L11.4542 34.15C10.4089 34.2507 8.47952 34.5875 6.77501 36.0595C4.68869 37.8613 4.0674 40.3416 4.26607 42.404L10.7432 41.78L17.2204 41.1561C17.2773 41.7467 17.2515 42.5847 16.9163 43.5208C16.5687 44.4919 15.981 45.3049 15.2812 45.9092C14.0217 46.9969 12.7923 47.0956 12.7022 47.1043L12.0782 40.6271ZM10.7432 41.78L4.26607 42.404C4.53993 45.2468 6.25104 47.2381 8.0682 48.3249L11.4081 42.7403L14.748 37.1556C15.1765 37.4119 15.7709 37.8674 16.288 38.6142C16.8275 39.3932 17.136 40.28 17.2204 41.1561L10.7432 41.78ZM11.4081 42.7403L8.26554 48.4382C9.66268 49.2088 11.3446 49.5728 12.4286 49.7835L13.6705 43.396L14.9123 37.0084C14.7013 36.9674 14.5266 36.93 14.3847 36.8969C14.2415 36.8635 14.1449 36.8376 14.0874 36.821C14.0267 36.8034 14.0345 36.8032 14.0929 36.8255C14.124 36.8374 14.1784 36.8589 14.2509 36.8917C14.3226 36.924 14.4255 36.9732 14.5507 37.0423L11.4081 42.7403ZM13.6705 43.396L12.4228 49.7824C12.8414 49.8642 13.0578 49.9435 13.1278 49.9731C13.1963 50.002 13.0511 49.9522 12.817 49.748L17.0937 44.8436L21.3703 39.9392C19.4073 38.2275 17.0215 37.4205 14.9182 37.0096L13.6705 43.396ZM17.0937 44.8436L12.8845 49.8061C12.5545 49.5262 12.2948 49.1793 12.1263 48.8266C11.9671 48.4934 11.9402 48.263 11.9372 48.2324L18.4144 47.6085L24.8916 46.9845C24.6479 44.4552 23.6062 41.8349 21.3028 39.8812L17.0937 44.8436ZM18.4144 47.6085L11.9372 48.2324C11.9223 48.0772 11.9245 47.7321 12.0801 47.3054C12.2368 46.8759 12.4654 46.5929 12.6046 46.4584L17.1275 51.1367L21.6504 55.8149C24.0907 53.4557 25.2127 50.3179 24.8916 46.9845L18.4144 47.6085ZM17.1275 51.1367L12.6156 46.4478C12.818 46.2531 12.9714 46.1941 12.9508 46.2023C12.9139 46.2167 12.7022 46.291 12.2365 46.3358L12.8605 52.813L13.4844 59.2902C16.2544 59.0233 19.263 58.1122 21.6394 55.8256L17.1275 51.1367ZM22.6513 50.0322L18.5534 55.0869V55.0869L22.6513 50.0322ZM21.5184 38.2717L26.4711 42.4923L26.5058 42.4512L21.5184 38.2717ZM31.6073 37.2998L27.5094 42.3546L27.5513 42.3882L31.6073 37.2998ZM32.7402 49.0603L37.7277 53.2398L37.7277 53.2398L32.7402 49.0603ZM28.8974 47.3216L32.6827 52.6145L32.8837 52.4648L28.8974 47.3216ZM29.6422 45.9846L23.3462 44.3406L23.3002 44.5283L29.6422 45.9846ZM29.1534 40.9103L23.206 43.5505L23.287 43.7259L29.1534 40.9103ZM28.1699 39.7699L25.2387 45.5794L25.4646 45.688L28.1699 39.7699ZM25.3641 40.0402L29.1494 45.3331L29.2316 45.2733L25.3641 40.0402ZM24.5865 41.3502L18.2905 39.7063L18.2445 39.8939L24.5865 41.3502ZM25.0754 46.4245L19.1279 49.0647L19.2089 49.2402L25.0754 46.4245ZM26.0916 47.5919L23.1604 53.4015L23.5169 53.568L26.0916 47.5919ZM27.8712 51.367L27.2472 44.8898C26.7928 44.9336 26.5972 44.8869 26.5814 44.8828C26.5743 44.881 26.5977 44.8866 26.6393 44.9073C26.6816 44.9284 26.7202 44.9539 26.7492 44.9774L22.6513 50.0322L18.5534 55.0869C21.5222 57.4936 25.0807 58.1731 28.4951 57.8442L27.8712 51.367ZM22.6513 50.0322L26.7492 44.9774C27.0431 45.2157 27.0899 45.3986 27.0251 45.2458C26.948 45.0638 26.7971 44.596 26.7114 43.7062L20.2342 44.3302L13.7571 44.9542C14.0932 48.4434 15.2512 52.4097 18.5534 55.0869L22.6513 50.0322ZM20.2342 44.3302L26.7114 43.7062C26.6242 42.801 26.6839 42.3095 26.724 42.1202C26.7575 41.9624 26.7405 42.1762 26.4711 42.4923L21.5184 38.2717L16.5657 34.0511C13.7842 37.3151 13.4218 41.4742 13.7571 44.9542L20.2342 44.3302ZM21.5184 38.2717L26.5058 42.4512C26.4819 42.4799 26.4488 42.5123 26.4114 42.541C26.3744 42.5693 26.3525 42.5793 26.3592 42.5761C26.3739 42.5691 26.557 42.4859 27.0114 42.4421L26.3875 35.965L25.7635 29.4878C22.3491 29.8167 18.9857 31.163 16.531 34.0922L21.5184 38.2717ZM26.3875 35.965L27.0114 42.4421C27.4658 42.3984 27.6615 42.4451 27.6772 42.4491C27.6844 42.451 27.661 42.4454 27.6193 42.4247C27.5771 42.4036 27.5385 42.3781 27.5094 42.3546L31.6073 37.2998L35.7052 32.2451C32.7365 29.8383 29.1779 29.1589 25.7635 29.4878L26.3875 35.965ZM31.6073 37.2998L27.5513 42.3882C27.2266 42.1294 27.1691 41.9227 27.2321 42.0713C27.3076 42.2494 27.46 42.7205 27.5472 43.6257L34.0244 43.0018L40.5016 42.3778C40.1663 38.8978 39.0167 34.8844 35.6633 32.2114L31.6073 37.2998ZM34.0244 43.0018L27.5472 43.6257C27.633 44.5155 27.5742 45.0035 27.5332 45.1968C27.4988 45.3592 27.5098 45.1707 27.7528 44.8807L32.7402 49.0603L37.7277 53.2398C40.4582 49.9815 40.8377 45.8671 40.5016 42.3778L34.0244 43.0018ZM32.7402 49.0603L27.7528 44.8807C27.7768 44.8521 27.8098 44.8197 27.8473 44.7909C27.8842 44.7626 27.9061 44.7527 27.8994 44.7559C27.8847 44.7628 27.7016 44.8461 27.2472 44.8898L27.8712 51.367L28.4951 57.8442C31.9096 57.5152 35.273 56.169 37.7277 53.2398L32.7402 49.0603ZM27.5261 47.7851L28.1501 54.2623C29.5388 54.1285 31.1714 53.6953 32.6827 52.6145L28.8974 47.3216L25.1121 42.0288C25.9094 41.4586 26.6278 41.3344 26.9022 41.308L27.5261 47.7851ZM28.8974 47.3216L32.8837 52.4648C34.8278 50.958 35.6414 48.9342 35.9843 47.4409L29.6422 45.9846L23.3002 44.5283C23.3601 44.2673 23.6771 43.1349 24.9111 42.1785L28.8974 47.3216ZM29.6422 45.9846L35.9383 47.6286C36.3836 45.9233 36.3371 44.1801 36.2033 42.7919L29.7262 43.4158L23.249 44.0398C23.282 44.3826 23.2833 44.5825 23.2806 44.6664C23.2793 44.7046 23.2779 44.6958 23.2841 44.6474C23.2902 44.6002 23.3063 44.4932 23.3462 44.3406L29.6422 45.9846ZM29.7262 43.4158L36.2033 42.7919C36.0696 41.4036 35.7825 39.6836 35.0199 38.0947L29.1534 40.9103L23.287 43.7259C23.2187 43.5837 23.1825 43.4818 23.1675 43.4366C23.1522 43.3903 23.1519 43.3814 23.1604 43.4187C23.1791 43.5005 23.216 43.697 23.249 44.0398L29.7262 43.4158ZM29.1534 40.9103L35.1009 38.2701C34.4798 36.8711 33.2426 34.9339 30.8752 33.8518L28.1699 39.7699L25.4646 45.688C23.8956 44.9708 23.314 43.7939 23.206 43.5505L29.1534 40.9103ZM28.1699 39.7699L31.1011 33.9603C29.3605 33.0821 27.5897 32.927 26.1086 33.0697L26.7325 39.5468L27.3565 46.024C26.9897 46.0593 26.1772 46.053 25.2387 45.5794L28.1699 39.7699ZM26.7325 39.5468L26.1086 33.0697C24.5852 33.2164 22.9612 33.7247 21.4966 34.8071L25.3641 40.0402L29.2316 45.2733C28.517 45.8014 27.8052 45.9808 27.3565 46.024L26.7325 39.5468ZM25.3641 40.0402L21.5788 34.7473C19.5278 36.2141 18.6658 38.2691 18.2905 39.7063L24.5865 41.3502L30.8826 42.9942C30.8301 43.1952 30.4864 44.3769 29.1494 45.3331L25.3641 40.0402ZM24.5865 41.3502L18.2445 39.8939C17.872 41.516 17.9247 43.1839 18.0553 44.5401L24.5325 43.9161L31.0096 43.2922C30.9748 42.9306 30.9702 42.7049 30.9726 42.5909C30.9737 42.5373 30.976 42.5288 30.9728 42.5585C30.9697 42.5869 30.9591 42.6739 30.9286 42.8066L24.5865 41.3502ZM24.5325 43.9161L18.0553 44.5401C18.186 45.8963 18.4526 47.5436 19.1279 49.0647L25.0754 46.4245L31.0228 43.7843C31.078 43.9087 31.1051 43.9921 31.1136 44.0194C31.1224 44.048 31.1185 44.04 31.1072 43.9876C31.083 43.8761 31.0445 43.6538 31.0096 43.2922L24.5325 43.9161ZM25.0754 46.4245L19.2089 49.2402C19.8515 50.579 21.0353 52.3293 23.1604 53.4015L26.0916 47.5919L29.0228 41.7824C30.3457 42.4499 30.852 43.4218 30.9418 43.6089L25.0754 46.4245ZM26.0916 47.5919L23.5169 53.568C25.1125 54.2555 26.7213 54.3999 28.1501 54.2623L27.5261 47.7851L26.9022 41.308C27.2564 41.2738 27.9088 41.2895 28.6663 41.6158L26.0916 47.5919ZM39.9021 35.1451L35.7632 40.1663L35.9273 40.2972L39.9021 35.1451ZM40.5234 36.5915L34.0463 37.2155L46.5085 39.1454L40.5234 36.5915ZM41.9048 34.9823L45.2921 40.5383L45.3596 40.4966L41.9048 34.9823ZM46.4906 37.5531L42.3785 32.5099L42.3785 32.5099L46.4906 37.5531ZM42.2883 38.6508L44.7267 44.6839L44.9285 44.5983L42.2883 38.6508ZM41.2432 39.6854L35.1307 37.4537L35.0884 37.5732L41.2432 39.6854ZM39.7876 50.219L39.1637 43.7419C39.3564 43.7233 40.7089 43.632 42.1207 44.7295C43.6082 45.8859 43.8797 47.353 43.9201 47.7724L37.443 48.3964L30.9658 49.0203C31.1366 50.7929 31.8641 53.2403 34.1332 55.0043C36.3265 56.7094 38.7862 56.8528 40.4116 56.6962L39.7876 50.219ZM37.443 48.3964L43.9201 47.7724L42.8304 36.4597L36.3532 37.0836L29.876 37.7076L30.9658 49.0203L37.443 48.3964ZM36.3532 37.0836L42.8304 36.4597C42.8673 36.8434 42.8936 38.3145 41.6738 39.7319C40.5006 41.095 39.1426 41.2735 38.9279 41.2942L38.3039 34.817L37.68 28.3399C36.0324 28.4986 33.633 29.1238 31.8096 31.2425C29.9395 33.4154 29.7068 35.9508 29.876 37.7076L36.3532 37.0836ZM38.3039 34.817L38.9279 41.2942C38.9057 41.2963 37.3499 41.4742 35.7632 40.1663L39.9021 35.1451L44.0409 30.1238C41.7561 28.2405 39.1349 28.1997 37.68 28.3399L38.3039 34.817ZM39.9021 35.1451L35.9273 40.2972C34.1943 38.9602 34.0516 37.2714 34.0463 37.2155L40.5234 36.5915L47.0006 35.9676C46.861 34.5188 46.3041 31.8656 43.8769 29.993L39.9021 35.1451ZM40.5234 36.5915L46.5085 39.1454C46.4114 39.3729 46.257 39.6419 46.0274 39.9093C45.7969 40.1779 45.5399 40.3872 45.2921 40.5383L41.9048 34.9823L38.5175 29.4263C36.7035 30.5322 35.3511 32.1329 34.5384 34.0377L40.5234 36.5915ZM41.9048 34.9823L45.3596 40.4966C45.0037 40.7195 44.7643 40.732 44.8379 40.7249L44.214 34.2477L43.59 27.7705C41.8727 27.936 40.0939 28.4381 38.45 29.468L41.9048 34.9823ZM44.214 34.2477L44.8379 40.7249C44.816 40.727 44.5572 40.7519 44.1416 40.6733C43.7055 40.5908 43.0679 40.3871 42.4062 39.9136C40.8954 38.8324 40.5677 37.3634 40.5195 36.863L46.9966 36.2391L53.4738 35.6151C53.2818 33.6223 52.4185 31.0752 49.9801 29.3302C47.7253 27.7166 45.2431 27.6113 43.59 27.7705L44.214 34.2477ZM46.9966 36.2391L40.5195 36.863C40.468 36.3281 40.4958 35.5355 40.838 34.6469C41.191 33.7302 41.7644 33.0107 42.3785 32.5099L46.4906 37.5531L50.6026 42.5963C52.886 40.7345 53.7092 38.0591 53.4738 35.6151L46.9966 36.2391ZM46.4906 37.5531L42.3785 32.5099C43.0405 31.9702 43.6186 31.7758 43.793 31.7226C43.991 31.6622 44.0367 31.674 43.8473 31.6922L44.4713 38.1694L45.0952 44.6466C46.3528 44.5254 48.6598 44.1805 50.6026 42.5963L46.4906 37.5531ZM44.4713 38.1694L43.8473 31.6922C42.6072 31.8117 41.0882 32.0641 39.6481 32.7034L42.2883 38.6508L44.9285 44.5983C44.8024 44.6543 44.7105 44.6854 44.6647 44.6998C44.6181 44.7144 44.6027 44.7168 44.6255 44.7118C44.6476 44.7069 44.6972 44.6969 44.7783 44.6847C44.859 44.6725 44.9638 44.6592 45.0952 44.6466L44.4713 38.1694ZM42.2883 38.6508L39.85 32.6178C37.8198 33.4383 36.0073 35.053 35.1307 37.4537L41.2432 39.6854L47.3557 41.9171C47.1276 42.5419 46.7482 43.1628 46.2135 43.6922C45.6906 44.2097 45.1474 44.5138 44.7267 44.6839L42.2883 38.6508ZM41.2432 39.6854L35.0884 37.5732C34.4847 39.3322 34.5383 41.0724 34.6516 42.2485L41.1288 41.6245L47.6059 41.0005C47.589 40.8249 47.5984 40.8022 47.5928 40.8963C47.5881 40.9759 47.5635 41.3154 47.398 41.7976L41.2432 39.6854ZM41.1288 41.6245L34.6516 42.2485L35.2641 48.6063L41.7412 47.9823L48.2184 47.3583L47.6059 41.0005L41.1288 41.6245ZM41.7412 47.9823L35.2641 48.6063C35.2237 48.1868 35.2101 46.6949 36.4496 45.2758C37.6259 43.929 38.971 43.7604 39.1637 43.7419L39.7876 50.219L40.4116 56.6962C42.037 56.5396 44.4241 55.9293 46.2516 53.8369C48.1422 51.6722 48.3891 49.1309 48.2184 47.3583L41.7412 47.9823ZM51.4452 34.0331L47.3063 39.0544L47.4704 39.1852L51.4452 34.0331ZM52.0665 35.4796L45.5894 36.1035L58.0516 38.0334L52.0665 35.4796ZM53.4479 33.8703L56.8352 39.4263L56.9027 39.3846L53.4479 33.8703ZM58.0337 36.4411L53.9216 31.3979L53.9216 31.3979L58.0337 36.4411ZM53.8314 37.5388L56.2698 43.5719L56.4716 43.4863L53.8314 37.5388ZM52.7863 38.5734L46.6738 36.3417L46.6315 36.4612L52.7863 38.5734ZM51.3307 49.1071L50.7068 42.6299C50.8995 42.6113 52.252 42.52 53.6638 43.6175C55.1513 44.7739 55.4229 46.241 55.4633 46.6604L48.9861 47.2844L42.5089 47.9083C42.6797 49.6809 43.4072 52.1283 45.6763 53.8923C47.8696 55.5974 50.3293 55.7408 51.9547 55.5842L51.3307 49.1071ZM48.9861 47.2844L55.4633 46.6604L54.3735 35.3477L47.8963 35.9717L41.4192 36.5956L42.5089 47.9083L48.9861 47.2844ZM47.8963 35.9717L54.3735 35.3477C54.4104 35.7315 54.4367 37.2026 53.2169 38.6199C52.0437 39.9831 50.6857 40.1615 50.471 40.1822L49.847 33.7051L49.2231 27.2279C47.5756 27.3866 45.1761 28.0119 43.3527 30.1305C41.4826 32.3034 41.2499 34.8388 41.4192 36.5956L47.8963 35.9717ZM49.847 33.7051L50.471 40.1822C50.4488 40.1844 48.8931 40.3622 47.3063 39.0544L51.4452 34.0331L55.584 29.0119C53.2992 27.1286 50.678 27.0877 49.2231 27.2279L49.847 33.7051ZM51.4452 34.0331L47.4704 39.1852C45.7374 37.8482 45.5947 36.1594 45.5894 36.1035L52.0665 35.4796L58.5437 34.8556C58.4041 33.4068 57.8472 30.7536 55.42 28.881L51.4452 34.0331ZM52.0665 35.4796L58.0516 38.0334C57.9545 38.261 57.8001 38.5299 57.5706 38.7973C57.34 39.0659 57.083 39.2753 56.8352 39.4263L53.4479 33.8703L50.0607 28.3143C48.2466 29.4202 46.8942 31.0209 46.0815 32.9257L52.0665 35.4796ZM53.4479 33.8703L56.9027 39.3846C56.5468 39.6076 56.3075 39.62 56.3811 39.6129L55.7571 33.1357L55.1331 26.6586C53.4158 26.824 51.637 27.3261 49.9932 28.356L53.4479 33.8703ZM55.7571 33.1357L56.3811 39.6129C56.3591 39.615 56.1003 39.6399 55.6847 39.5613C55.2486 39.4789 54.611 39.2751 53.9493 38.8016C52.4385 37.7204 52.1108 36.2514 52.0626 35.7511L58.5398 35.1271L65.0169 34.5031C64.8249 32.5103 63.9616 29.9632 61.5232 28.2182C59.2685 26.6046 56.7862 26.4993 55.1331 26.6586L55.7571 33.1357ZM58.5398 35.1271L52.0626 35.7511C52.0111 35.2161 52.0389 34.4235 52.3811 33.5349C52.7341 32.6182 53.3075 31.8987 53.9216 31.3979L58.0337 36.4411L62.1457 41.4843C64.4291 39.6226 65.2524 36.9472 65.0169 34.5031L58.5398 35.1271ZM58.0337 36.4411L53.9216 31.3979C54.5836 30.8582 55.1618 30.6638 55.3361 30.6106C55.5341 30.5502 55.5798 30.562 55.3904 30.5803L56.0144 37.0574L56.6383 43.5346C57.8959 43.4134 60.2029 43.0685 62.1458 41.4843L58.0337 36.4411ZM56.0144 37.0574L55.3904 30.5803C54.1503 30.6997 52.6313 30.9521 51.1913 31.5914L53.8314 37.5388L56.4716 43.4863C56.3455 43.5423 56.2536 43.5734 56.2078 43.5878C56.1612 43.6024 56.1459 43.6048 56.1686 43.5998C56.1908 43.5949 56.2403 43.5849 56.3214 43.5727C56.4021 43.5605 56.5069 43.5473 56.6383 43.5346L56.0144 37.0574ZM53.8314 37.5388L51.3931 31.5058C49.3629 32.3264 47.5504 33.941 46.6738 36.3417L52.7863 38.5734L58.8988 40.8051C58.6707 41.4299 58.2913 42.0509 57.7566 42.5802C57.2337 43.0978 56.6906 43.4018 56.2698 43.5719L53.8314 37.5388ZM52.7863 38.5734L46.6315 36.4612C46.0279 38.2202 46.0814 39.9605 46.1947 41.1365L52.6719 40.5125L59.149 39.8885C59.1321 39.713 59.1415 39.6902 59.1359 39.7844C59.1312 39.864 59.1066 40.2034 58.9411 40.6857L52.7863 38.5734ZM52.6719 40.5125L46.1947 41.1365L46.8072 47.4943L53.2843 46.8703L59.7615 46.2464L59.149 39.8885L52.6719 40.5125ZM53.2843 46.8703L46.8072 47.4943C46.7668 47.0748 46.7532 45.5829 47.9927 44.1638C49.169 42.817 50.5141 42.6485 50.7068 42.6299L51.3307 49.1071L51.9547 55.5842C53.5801 55.4276 55.9672 54.8173 57.7947 52.7249C59.6853 50.5602 59.9323 48.0189 59.7615 46.2464L53.2843 46.8703ZM60.7966 51.2982L57.0772 45.9587L56.8346 46.1362L60.7966 51.2982ZM63.5283 50.8844L64.4215 44.4388L64.1273 44.4049L63.5283 50.8844ZM66.1492 50.5716L69.9519 55.8521V55.8521L66.1492 50.5716ZM66.1943 48.8501L60.0892 51.1019V51.1019L66.1943 48.8501ZM65.4363 47.2361L59.5991 50.1119L59.6681 50.2479L65.4363 47.2361ZM63.9192 44.3094L58.1695 47.3564L58.1769 47.3703L63.9192 44.3094ZM59.3168 35.6246L53.5347 38.6095L53.5671 38.6716L59.3168 35.6246ZM59.651 33.1522L63.5186 38.3853L63.6681 38.2714L59.651 33.1522ZM62.3885 32.7982L58.6179 38.1015L59.0014 38.3543L62.3885 32.7982ZM63.167 33.6872L57.2596 36.4159L57.3486 36.6007L63.167 33.6872ZM67.8298 42.9988L62.0114 45.9123L73.9143 45.3057L67.8298 42.9988ZM68.9427 38.915L62.4957 38.0323L62.4814 38.1439L68.9427 38.915ZM68.9806 35.8686L62.5288 36.7154L62.5367 36.7733L68.9806 35.8686ZM68.7261 34.4772L62.3498 35.7758L62.4396 36.1575L68.7261 34.4772ZM68.5675 33.7695L62.2178 35.192L62.3385 35.6516L68.5675 33.7695ZM68.9966 32.2821L73.2077 37.2429L73.2497 37.207L68.9966 32.2821ZM71.97 31.8752L68.1994 37.1785L68.5829 37.4313L71.97 31.8752ZM72.7543 32.8239L78.7505 30.2963L78.7373 30.2654L72.7543 32.8239ZM73.0398 33.911L66.5996 34.8424L66.6568 35.1764L73.0398 33.911ZM73.2007 38.083L66.7182 37.5171L66.709 37.6337L73.2007 38.083ZM72.688 41.2052L66.4042 39.5152L66.3848 39.5889L72.688 41.2052ZM71.6403 43.7765L77.0879 47.3355L77.2119 47.1381L71.6403 43.7765ZM71.2501 44.4166L65.6579 41.0894L65.5147 41.3429L71.2501 44.4166ZM70.5901 45.384L75.4658 49.6934L75.6114 49.5228L70.5901 45.384ZM69.7223 46.0701L66.8638 40.2244L65.4418 50.9711L69.7223 46.0701ZM70.5738 47.404L76.7398 45.3245L76.7238 45.2776L70.5738 47.404ZM69.6982 52.7001L65.1328 48.0633L65.038 48.1585L69.6982 52.7001ZM64.8102 54.4965L64.1862 48.0193C63.9938 48.0379 63.8476 48.0449 63.743 48.0464C63.6915 48.0471 63.6528 48.0464 63.6263 48.0454C63.5997 48.0445 63.5874 48.0433 63.5882 48.0434C63.5889 48.0435 63.6052 48.045 63.6354 48.0499C63.6656 48.0547 63.7125 48.0634 63.7739 48.0782C63.8943 48.1072 64.0888 48.1643 64.3311 48.2743C64.8414 48.506 65.5224 48.9578 66.0833 49.7418C66.6448 50.5266 66.8539 51.32 66.9083 51.8843L60.4311 52.5083L53.954 53.1322C54.2545 56.2522 56.1074 58.8334 58.9507 60.1243C61.2243 61.1566 63.6421 61.1463 65.4341 60.9737L64.8102 54.4965ZM60.4311 52.5083L66.9083 51.8843C66.9453 52.2687 67.0593 54.6942 64.7586 56.4601L60.7966 51.2982L56.8346 46.1362C53.9354 48.3615 53.8058 51.5937 53.954 53.1322L60.4311 52.5083ZM60.7966 51.2982L64.5159 56.6376C63.5681 57.2978 62.7658 57.3746 62.6782 57.383L62.0542 50.9059L61.4302 44.4287C60.268 44.5407 58.6273 44.879 57.0772 45.9587L60.7966 51.2982ZM62.0542 50.9059L62.6782 57.383C62.8045 57.3709 62.8887 57.3674 62.9355 57.3667C62.9831 57.366 62.9783 57.3684 62.9293 57.3639L63.5283 50.8844L64.1273 44.4049C63.1924 44.3184 62.2769 44.3472 61.4302 44.4287L62.0542 50.9059ZM63.5283 50.8844L62.635 57.3299C63.6551 57.4713 64.646 57.4646 65.5695 57.3756L64.9456 50.8985L64.3216 44.4213C64.2694 44.4263 64.2528 44.4254 64.2679 44.4255C64.2832 44.4257 64.3363 44.427 64.4215 44.4388L63.5283 50.8844ZM64.9456 50.8985L65.5695 57.3756C66.2964 57.3056 68.2217 57.098 69.9519 55.8521L66.1492 50.5716L62.3466 45.2912C63.1 44.7487 63.759 44.5537 63.9741 44.4953C64.2354 44.4244 64.3758 44.4161 64.3216 44.4213L64.9456 50.8985ZM66.1492 50.5716L69.9519 55.8521C72.7207 53.8581 73.0763 50.8656 72.9098 49.1371L66.4327 49.7611L59.9555 50.385C59.9115 49.9288 59.899 49.0937 60.2466 48.0995C60.6254 47.0163 61.3418 46.0148 62.3466 45.2912L66.1492 50.5716ZM66.4327 49.7611L72.9098 49.1371C72.8102 48.1027 72.5227 47.2038 72.2994 46.5983L66.1943 48.8501L60.0892 51.1019C60.1013 51.1347 60.0857 51.0974 60.0606 51.0016C60.0377 50.9138 59.9856 50.6976 59.9555 50.385L66.4327 49.7611ZM66.1943 48.8501L72.2994 46.5983C72.0131 45.8221 71.5997 44.9813 71.2045 44.2243L65.4363 47.2361L59.6681 50.2479C59.8238 50.5461 59.9359 50.7725 60.0129 50.9364C60.0958 51.1129 60.1092 51.1562 60.0892 51.1019L66.1943 48.8501ZM65.4363 47.2361L71.2735 44.3603C70.8785 43.5587 70.3351 42.5123 69.6615 41.2485L63.9192 44.3094L58.1769 47.3703C58.827 48.5899 59.295 49.4947 59.5991 50.1119L65.4363 47.2361ZM63.9192 44.3094L69.6689 41.2625L65.0665 32.5777L59.3168 35.6246L53.5671 38.6716L58.1695 47.3564L63.9192 44.3094ZM59.3168 35.6246L65.099 32.6397C65.3502 33.1264 65.4803 33.6207 65.5229 34.0628L59.0457 34.6867L52.5686 35.3107C52.6763 36.4293 52.9872 37.5489 53.5347 38.6095L59.3168 35.6246ZM59.0457 34.6867L65.5229 34.0628C65.566 34.5105 65.5564 35.2834 65.2013 36.1836C64.8274 37.1314 64.2035 37.8792 63.5186 38.3853L59.651 33.1522L55.7835 27.9192C53.142 29.8714 52.3273 32.8061 52.5686 35.3107L59.0457 34.6867ZM59.651 33.1522L63.6681 38.2714C63.2576 38.5936 62.603 38.9231 61.7811 39.0023L61.1572 32.5251L60.5332 26.048C58.6368 26.2307 56.9781 26.9783 55.634 28.0331L59.651 33.1522ZM61.1572 32.5251L61.7811 39.0023C61.1374 39.0643 59.875 38.9952 58.6179 38.1015L62.3885 32.7982L66.1591 27.4948C64.2552 26.1412 62.1719 25.8901 60.5332 26.048L61.1572 32.5251ZM62.3885 32.7982L59.0014 38.3543C58.1739 37.8498 57.5893 37.1295 57.2596 36.4159L63.167 33.6872L69.0744 30.9585C68.3896 29.4758 67.2859 28.1628 65.7756 27.2421L62.3885 32.7982ZM63.167 33.6872L57.3486 36.6007L62.0114 45.9123L67.8298 42.9988L73.6482 40.0852L68.9855 30.7736L63.167 33.6872ZM67.8298 42.9988L73.9143 45.3057C74.6233 43.4356 75.1843 41.5269 75.404 39.6861L68.9427 38.915L62.4814 38.1439C62.4343 38.538 62.2534 39.3518 61.7453 40.6919L67.8298 42.9988ZM68.9427 38.915L75.3897 39.7977C75.6065 38.2143 75.6521 36.5848 75.4245 34.9639L68.9806 35.8686L62.5367 36.7733C62.565 36.9755 62.5854 37.3769 62.4957 38.0323L68.9427 38.915ZM68.9806 35.8686L75.4324 35.0218C75.3388 34.3086 75.2096 33.5342 75.0125 32.7969L68.7261 34.4772L62.4396 36.1575C62.431 36.1253 62.4398 36.1532 62.4594 36.2604C62.4783 36.3636 62.5022 36.5127 62.5288 36.7154L68.9806 35.8686ZM68.7261 34.4772L75.1023 33.1786C75.0459 32.9015 74.9319 32.3353 74.7965 31.8874L68.5675 33.7695L62.3385 35.6516C62.3165 35.5787 62.3012 35.5227 62.2932 35.4928C62.2846 35.4607 62.279 35.4381 62.2765 35.4283C62.2721 35.4102 62.2728 35.4121 62.2795 35.4421C62.2857 35.4699 62.2948 35.5114 62.307 35.5692C62.3191 35.6263 62.3333 35.6949 62.3498 35.7758L68.7261 34.4772ZM68.5675 33.7695L74.9173 32.3469C75.0271 32.8372 75.1192 33.6966 74.8212 34.7295C74.5074 35.8173 73.8832 36.6695 73.2077 37.2429L68.9966 32.2821L64.7855 27.3213C63.683 28.2571 62.7738 29.5384 62.3169 31.122C61.8759 32.6507 61.967 34.0726 62.2178 35.192L68.5675 33.7695ZM68.9966 32.2821L73.2497 37.207C72.9459 37.4693 72.5938 37.6872 72.2146 37.8434C71.8402 37.9976 71.5031 38.0658 71.2432 38.0908L70.6193 31.6136L69.9953 25.1365C68.1414 25.3151 66.2988 26.0141 64.7435 27.3572L68.9966 32.2821ZM70.6193 31.6136L71.2432 38.0908C70.9646 38.1176 69.6288 38.1948 68.1994 37.1785L71.97 31.8752L75.7406 26.5718C73.6643 25.0956 71.4281 24.9984 69.9953 25.1365L70.6193 31.6136ZM71.97 31.8752L68.5829 37.4313C67.5963 36.8298 67.0371 36.0042 66.7712 35.3824L72.7543 32.8239L78.7373 30.2654C78.1085 28.7949 77.0265 27.3367 75.3571 26.319L71.97 31.8752ZM72.7543 32.8239L66.7581 35.3514C66.6265 35.0392 66.5997 34.8429 66.5996 34.8424L73.0398 33.911L79.4799 32.9797C79.3595 32.1473 79.1424 31.2262 78.7505 30.2963L72.7543 32.8239ZM73.0398 33.911L66.6568 35.1764C66.6828 35.3072 66.6994 35.4023 66.7095 35.4661C66.7199 35.5325 66.7202 35.545 66.7172 35.5143L73.1944 34.8903L79.6715 34.2663C79.6179 33.7098 79.5229 33.151 79.4227 32.6457L73.0398 33.911ZM73.1944 34.8903L66.7172 35.5143C66.7767 36.132 66.781 36.7973 66.7182 37.5171L73.2007 38.083L79.6831 38.6489C79.8113 37.1813 79.8114 35.7182 79.6715 34.2663L73.1944 34.8903ZM73.2007 38.083L66.709 37.6337C66.6605 38.3344 66.5541 38.9578 66.4042 39.5152L72.688 41.2052L78.9719 42.8953C79.3543 41.4733 79.5896 40.0153 79.6923 38.5324L73.2007 38.083ZM72.688 41.2052L66.3848 39.5889C66.2716 40.0305 66.1476 40.2842 66.0687 40.4149L71.6403 43.7765L77.2119 47.1381C78.0336 45.7761 78.6081 44.3157 78.9912 42.8216L72.688 41.2052ZM71.6403 43.7765L66.1927 40.2175C66.0361 40.4572 65.8381 40.7866 65.6579 41.0894L71.2501 44.4166L76.8423 47.7438C76.9306 47.5954 76.9977 47.4837 77.0464 47.404C77.0705 47.3645 77.0868 47.3381 77.0965 47.3225C77.1078 47.3044 77.1034 47.3117 77.0879 47.3355L71.6403 43.7765ZM71.2501 44.4166L65.5147 41.3429C65.5475 41.2816 65.5722 41.2439 65.5821 41.2294C65.5919 41.215 65.5892 41.2204 65.5689 41.2451L70.5901 45.384L75.6114 49.5228C76.1073 48.9212 76.5811 48.2449 76.9855 47.4903L71.2501 44.4166ZM70.5901 45.384L65.7145 41.0745C65.897 40.868 66.2667 40.5164 66.8638 40.2244L69.7223 46.0701L72.5808 51.9157C73.7917 51.3236 74.7399 50.5146 75.4658 49.6934L70.5901 45.384ZM69.7223 46.0701L65.4418 50.9711C64.8009 50.4113 64.5238 49.8192 64.4239 49.5303L70.5738 47.404L76.7238 45.2776C76.2341 43.8614 75.3893 42.38 74.0029 41.1691L69.7223 46.0701ZM70.5738 47.404L64.4079 49.4834C64.4396 49.5774 64.4684 49.6979 64.4839 49.8584L70.9611 49.2345L77.4382 48.6105C77.331 47.4975 77.1017 46.3977 76.7398 45.3245L70.5738 47.404ZM70.9611 49.2345L64.4839 49.8584C64.466 49.6724 64.4738 49.3145 64.6292 48.8879C64.7844 48.462 65.0066 48.1876 65.1328 48.0633L69.6982 52.7001L74.2637 57.3369C76.6273 55.0096 77.7574 51.9241 77.4382 48.6105L70.9611 49.2345ZM69.6982 52.7001L65.038 48.1585C65.4008 47.7863 65.6639 47.7195 65.5188 47.7729C65.3674 47.8285 64.9594 47.9449 64.1862 48.0193L64.8102 54.4965L65.4341 60.9737C68.289 60.6986 71.8016 59.8652 74.3584 57.2416L69.6982 52.7001Z" fill="#FADE26" mask="url(#path-3-outside-1_801_10460)"/>
<mask id="path-5-outside-2_801_10460" maskUnits="userSpaceOnUse" x="57.0876" y="-1.28066" width="35.8101" height="39.5226" fill="black">
<rect fill="white" x="57.0876" y="-1.28066" width="35.8101" height="39.5226"/>
<path d="M77.1841 22.117C76.5498 22.5704 75.9898 22.7496 75.5041 22.6544C75.023 22.5314 74.6022 22.2178 74.2419 21.7137L67.8596 12.7849C67.4876 12.2644 67.3271 11.7648 67.3781 11.2861C67.4453 10.7957 67.7961 10.3238 68.4304 9.87044C69.0646 9.41706 69.6165 9.24374 70.086 9.35049C70.5717 9.44561 71.0006 9.75339 71.3726 10.2738L77.7548 19.2026C78.1152 19.7068 78.2676 20.2122 78.212 20.7189C78.161 21.1976 77.8184 21.6637 77.1841 22.117ZM80.9681 27.4109C80.3826 27.8294 79.7831 27.9876 79.1695 27.8856C78.5722 27.7719 78.076 27.4386 77.6807 26.8856C77.2738 26.3164 77.1133 25.7308 77.1991 25.1289C77.3011 24.5153 77.6449 23.9993 78.2304 23.5808C78.7996 23.1739 79.391 23.0215 80.0045 23.1235C80.6181 23.2256 81.1283 23.5612 81.5352 24.1305C81.9305 24.6834 82.0771 25.2667 81.975 25.8802C81.873 26.4938 81.5373 27.004 80.9681 27.4109Z"/>
</mask>
<path d="M77.1841 22.117C76.5498 22.5704 75.9898 22.7496 75.5041 22.6544C75.023 22.5314 74.6022 22.2178 74.2419 21.7137L67.8596 12.7849C67.4876 12.2644 67.3271 11.7648 67.3781 11.2861C67.4453 10.7957 67.7961 10.3238 68.4304 9.87044C69.0646 9.41706 69.6165 9.24374 70.086 9.35049C70.5717 9.44561 71.0006 9.75339 71.3726 10.2738L77.7548 19.2026C78.1152 19.7068 78.2676 20.2122 78.212 20.7189C78.161 21.1976 77.8184 21.6637 77.1841 22.117ZM80.9681 27.4109C80.3826 27.8294 79.7831 27.9876 79.1695 27.8856C78.5722 27.7719 78.076 27.4386 77.6807 26.8856C77.2738 26.3164 77.1133 25.7308 77.1991 25.1289C77.3011 24.5153 77.6449 23.9993 78.2304 23.5808C78.7996 23.1739 79.391 23.0215 80.0045 23.1235C80.6181 23.2256 81.1283 23.5612 81.5352 24.1305C81.9305 24.6834 82.0771 25.2667 81.975 25.8802C81.873 26.4938 81.5373 27.004 80.9681 27.4109Z" fill="#3F3833"/>
<path d="M75.5041 22.6544L73.8922 28.9588L74.2536 29.0403L75.5041 22.6544ZM67.3781 11.2861L60.9312 10.4022L60.9075 10.5972L67.3781 11.2861ZM70.086 9.35049L68.6433 15.6957L68.8355 15.7363L70.086 9.35049ZM78.212 20.7189L71.7437 20.0089L71.7414 20.03L78.212 20.7189ZM79.1695 27.8856L77.9529 34.278L78.1019 34.3046L79.1695 27.8856ZM77.1991 25.1289L70.7801 24.0613L70.757 24.2108L77.1991 25.1289ZM81.975 25.8802L88.394 26.9479L88.394 26.9479L81.975 25.8802ZM77.1841 22.117L73.4001 16.8232C73.4036 16.8207 74.6938 15.865 76.7546 16.2686L75.5041 22.6544L74.2536 29.0403C77.2858 29.6341 79.696 28.3201 80.9681 27.4109L77.1841 22.117ZM75.5041 22.6544L77.116 16.3501C78.461 16.694 79.2321 17.505 79.5357 17.9297L74.2418 21.7137L68.948 25.4976C69.9723 26.9306 71.5849 28.3689 73.8922 28.9588L75.5041 22.6544ZM74.2418 21.7137L79.5357 17.9297L73.1535 9.00089L67.8596 12.7849L62.5658 16.5688L68.948 25.4976L74.2418 21.7137ZM67.8596 12.7849L73.1535 9.00089C73.3985 9.34375 74.0153 10.4092 73.8487 11.9749L67.3781 11.2861L60.9075 10.5972C60.6389 13.1205 61.5767 15.1851 62.5658 16.5688L67.8596 12.7849ZM67.3781 11.2861L73.8249 12.1699C73.5397 14.2504 72.2178 15.1618 72.2143 15.1643L68.4304 9.87044L64.6464 4.57662C63.3743 5.48589 61.3509 7.34103 60.9312 10.4022L67.3781 11.2861ZM68.4304 9.87044L72.2143 15.1643C72.1535 15.2077 71.8329 15.4317 71.2697 15.6086C70.6685 15.7974 69.7383 15.9447 68.6433 15.6957L70.086 9.35049L71.5287 3.00529C68.383 2.29004 65.8794 3.69525 64.6464 4.57662L68.4304 9.87044ZM70.086 9.35049L68.8355 15.7363C67.2561 15.4271 66.3804 14.4797 66.0788 14.0578L71.3726 10.2738L76.6664 6.48986C75.6208 5.02705 73.8873 3.46415 71.3365 2.96463L70.086 9.35049ZM71.3726 10.2738L66.0788 14.0578L72.461 22.9866L77.7548 19.2026L83.0486 15.4187L76.6664 6.48986L71.3726 10.2738ZM77.7548 19.2026L72.461 22.9866C72.1011 22.4831 71.5888 21.4205 71.7437 20.0089L78.212 20.7189L84.6803 21.4288C84.9464 19.004 84.1293 16.9305 83.0486 15.4187L77.7548 19.2026ZM78.212 20.7189L71.7414 20.03C71.8603 18.9133 72.3007 18.0808 72.6739 17.5732C73.0236 17.0975 73.3393 16.8667 73.4001 16.8232L77.1841 22.117L80.9681 27.4109C82.2011 26.5295 84.3411 24.6156 84.6826 21.4077L78.212 20.7189ZM80.9681 27.4109L77.1841 22.1171C77.4314 21.9403 77.8442 21.7034 78.4188 21.5517C79.012 21.3952 79.6387 21.3671 80.2371 21.4666L79.1695 27.8856L78.1019 34.3046C80.687 34.7345 83.0013 33.9562 84.7521 32.7047L80.9681 27.4109ZM79.1695 27.8856L80.3861 21.4932C80.9348 21.5976 81.4842 21.8172 81.9775 22.1485C82.4594 22.4722 82.7799 22.8294 82.9745 23.1017L77.6807 26.8856L72.3869 30.6696C73.6307 32.4097 75.5127 33.8136 77.9529 34.278L79.1695 27.8856ZM77.6807 26.8856L82.9745 23.1017C83.1505 23.3478 83.3796 23.7479 83.5307 24.299C83.6862 24.8663 83.7237 25.4675 83.6411 26.047L77.1991 25.1289L70.757 24.2108C70.3994 26.7201 71.1648 28.96 72.3869 30.6696L77.6807 26.8856ZM77.1991 25.1289L83.618 26.1965C83.5185 26.795 83.2891 27.3788 82.9489 27.8894C82.6194 28.384 82.2617 28.6978 82.0143 28.8746L78.2304 23.5808L74.4464 18.287C72.6956 19.5384 71.2101 21.4761 70.7801 24.0613L77.1991 25.1289ZM78.2304 23.5808L82.0143 28.8746C81.741 29.07 81.3094 29.3119 80.7248 29.4626C80.1248 29.6172 79.5087 29.6376 78.9369 29.5425L80.0045 23.1235L81.0722 16.7046C78.5373 16.283 76.2282 17.0134 74.4464 18.287L78.2304 23.5808ZM80.0045 23.1235L78.9369 29.5425C78.3651 29.4474 77.7888 29.2287 77.2712 28.8881C76.7668 28.5563 76.4368 28.1878 76.2414 27.9144L81.5352 24.1305L86.829 20.3465C85.5554 18.5647 83.6071 17.1262 81.0722 16.7046L80.0045 23.1235ZM81.5352 24.1305L76.2414 27.9144C76.0267 27.6141 75.7801 27.1631 75.6308 26.5689C75.4784 25.9628 75.4654 25.3576 75.556 24.8126L81.975 25.8802L88.394 26.9479C88.8068 24.4655 88.1253 22.1601 86.829 20.3465L81.5352 24.1305ZM81.975 25.8802L75.556 24.8126C75.6512 24.2408 75.8699 23.6645 76.2104 23.1469C76.5422 22.6425 76.9108 22.3124 77.1841 22.1171L80.9681 27.4109L84.7521 32.7047C86.5338 31.4311 87.9724 29.4828 88.394 26.9479L81.975 25.8802Z" fill="#FADE26" mask="url(#path-5-outside-2_801_10460)"/>
</svg>