<svg preserveAspectRatio="none" width="100%" height="100%" overflow="visible" style="display: block;" viewBox="0 0 16.8333 17.1858" fill="none" xmlns="http://www.w3.org/2000/svg">
<g id="Group">
<path id="Vector" fill-rule="evenodd" clip-rule="evenodd" d="M6.78167 0.105424C7.15493 -0.00654822 7.54919 -0.0297114 7.933 0.0377831C8.3168 0.105278 8.67951 0.26156 8.99218 0.494157C9.30484 0.726753 9.5588 1.02922 9.73379 1.37742C9.90877 1.72561 9.99994 2.1099 10 2.49959V14.6863C9.99994 15.0759 9.90877 15.4602 9.73379 15.8084C9.5588 16.1566 9.30484 16.4591 8.99218 16.6917C8.67951 16.9243 8.3168 17.0806 7.933 17.1481C7.54919 17.2156 7.15493 17.1924 6.78167 17.0804L1.78167 15.5804C1.26675 15.426 0.815341 15.1096 0.494401 14.6784C0.173462 14.2471 8.81577e-05 13.7238 0 13.1863V3.99959C8.81577e-05 3.462 0.173462 2.93877 0.494401 2.50749C0.815341 2.07622 1.26675 1.75989 1.78167 1.60542L6.78167 0.105424ZM10.8333 1.92626C10.8333 1.70524 10.9211 1.49328 11.0774 1.337C11.2337 1.18072 11.4457 1.09292 11.6667 1.09292H14.1667C14.8297 1.09292 15.4656 1.35632 15.9344 1.82516C16.4033 2.294 16.6667 2.92988 16.6667 3.59292V4.42626C16.6667 4.64727 16.5789 4.85923 16.4226 5.01551C16.2663 5.17179 16.0543 5.25959 15.8333 5.25959C15.6123 5.25959 15.4004 5.17179 15.2441 5.01551C15.0878 4.85923 15 4.64727 15 4.42626V3.59292C15 3.37191 14.9122 3.15995 14.7559 3.00367C14.5996 2.84739 14.3877 2.75959 14.1667 2.75959H11.6667C11.4457 2.75959 11.2337 2.67179 11.0774 2.51551C10.9211 2.35923 10.8333 2.14727 10.8333 1.92626ZM15.8333 11.9263C16.0543 11.9263 16.2663 12.0141 16.4226 12.1703C16.5789 12.3266 16.6667 12.5386 16.6667 12.7596V13.5929C16.6667 14.256 16.4033 14.8918 15.9344 15.3607C15.4656 15.8295 14.8297 16.0929 14.1667 16.0929H11.6667C11.4457 16.0929 11.2337 16.0051 11.0774 15.8488C10.9211 15.6926 10.8333 15.4806 10.8333 15.2596C10.8333 15.0386 10.9211 14.8266 11.0774 14.6703C11.2337 14.5141 11.4457 14.4263 11.6667 14.4263H14.1667C14.3877 14.4263 14.5996 14.3385 14.7559 14.1822C14.9122 14.0259 15 13.8139 15 13.5929V12.7596C15 12.5386 15.0878 12.3266 15.2441 12.1703C15.4004 12.0141 15.6123 11.9263 15.8333 11.9263ZM5.83333 7.75959C5.61232 7.75959 5.40036 7.84739 5.24408 8.00367C5.0878 8.15995 5 8.37191 5 8.59292C5 8.81394 5.0878 9.0259 5.24408 9.18218C5.40036 9.33846 5.61232 9.42626 5.83333 9.42626H5.83417C6.05518 9.42626 6.26714 9.33846 6.42342 9.18218C6.5797 9.0259 6.6675 8.81394 6.6675 8.59292C6.6675 8.37191 6.5797 8.15995 6.42342 8.00367C6.26714 7.84739 6.05518 7.75959 5.83417 7.75959H5.83333Z" fill="var(--fill-0, #E8FF76)"/>
<path id="Vector_2" d="M15.8333 8.59292H11.6667M11.6667 8.59292L13.3333 6.92626M11.6667 8.59292L13.3333 10.2596" stroke="var(--stroke-0, #E8FF76)" stroke-width="2" stroke-linecap="round" stroke-linejoin="round"/>
</g>
</svg>
