<svg viewBox="0 0 29.958 29.9551" fill="none" xmlns="http://www.w3.org/2000/svg">
  <path
    d="M8.09473 0C10.9633 0.000143025 13.4813 1.49369 14.9189 3.74414C16.368 1.49353 18.9074 0.000976562 21.7988 0.000976562C26.3045 0.00112102 29.9569 3.62456 29.957 8.09473C29.957 10.9632 28.4519 13.4813 26.1836 14.9189C28.4521 16.3679 29.958 18.9056 29.958 21.7969C29.958 26.3024 26.3047 29.9551 21.7988 29.9551C18.9065 29.955 16.3676 28.4484 14.9189 26.1787C13.4814 28.4474 10.9637 29.954 8.09473 29.9541C3.62418 29.9541 0.000137324 26.3013 0 21.7959C0 18.9051 1.49198 16.366 3.74219 14.917C1.49265 13.4792 0.000166821 10.9623 0 8.09473C0 3.6244 3.6241 0 8.09473 0ZM14.9189 12.4434C14.2842 13.4372 13.4391 14.282 12.4453 14.917C13.4396 15.5571 14.2849 16.4099 14.9199 17.4121C15.5597 16.4107 16.4117 15.5588 17.4131 14.9189C16.411 14.2837 15.5589 13.4378 14.9189 12.4434Z"
    fill="currentColor"
  />
  <circle cx="15.0373" cy="15.0381" r="6.01509" fill="#1B161A" />
</svg>
