<svg width="70" height="30" viewBox="0 0 70 30" fill="none" xmlns="http://www.w3.org/2000/svg">
<path d="M3.50391 13.166C3.41797 13.166 3.33984 13.1426 3.26953 13.0957C3.20312 13.0488 3.15039 13.0059 3.11133 12.9668C2.63477 12.416 2.23633 11.7871 1.91602 11.0801C1.59961 10.373 1.36133 9.63086 1.20117 8.85352C1.04102 8.07617 0.960938 7.31055 0.960938 6.55664C0.960938 5.85352 1.04102 5.11523 1.20117 4.3418C1.36133 3.56445 1.60938 2.81055 1.94531 2.08008C2.28516 1.3457 2.7168 0.695313 3.24023 0.128906C3.32617 0.0429687 3.43359 0 3.5625 0C3.61719 0 3.67773 0.0136719 3.74414 0.0410156C3.81445 0.0683594 3.89844 0.130859 3.99609 0.228516C4.14453 0.365234 4.21875 0.501953 4.21875 0.638672C4.21875 0.697266 4.20508 0.755859 4.17773 0.814453C4.15039 0.873047 4.10938 0.933594 4.05469 0.996094C3.61719 1.45703 3.27148 2.00195 3.01758 2.63086C2.76367 3.25977 2.58203 3.91797 2.47266 4.60547C2.36719 5.29297 2.31445 5.96094 2.31445 6.60938C2.31445 7.30469 2.37891 7.99023 2.50781 8.66602C2.63672 9.33789 2.82227 9.9668 3.06445 10.5527C3.30664 11.1348 3.59766 11.6387 3.9375 12.0645C3.97656 12.1113 4.02539 12.1738 4.08398 12.252C4.14258 12.334 4.17188 12.4219 4.17188 12.5156C4.17188 12.5664 4.15625 12.6211 4.125 12.6797C4.09375 12.7422 4.02344 12.8242 3.91406 12.9258C3.80469 13.0312 3.7207 13.0977 3.66211 13.125C3.60352 13.1523 3.55078 13.166 3.50391 13.166ZM7.59398 11.3496C7.23852 11.3496 6.95922 11.2676 6.75609 11.1035C6.55688 10.9355 6.40258 10.6191 6.2932 10.1543C6.09789 9.31836 5.87328 8.48633 5.61938 7.6582C5.36547 6.82617 5.1057 6.00195 4.84008 5.18555C4.82445 5.14258 4.81273 5.10352 4.80492 5.06836C4.80102 5.0293 4.79906 4.99023 4.79906 4.95117C4.79906 4.84961 4.82836 4.76562 4.88695 4.69922C4.94945 4.62891 5.05297 4.59375 5.1975 4.59375H5.85961C5.94555 4.59375 6.03344 4.62305 6.12328 4.68164C6.21703 4.74023 6.2893 4.85742 6.34008 5.0332C6.49242 5.56445 6.635 6.0957 6.76781 6.62695C6.90063 7.1543 7.02758 7.68945 7.14867 8.23242C7.26977 8.77539 7.38891 9.33789 7.50609 9.91992C7.52172 9.99414 7.53539 10.0547 7.54711 10.1016C7.56273 10.1445 7.58617 10.166 7.61742 10.166C7.64867 10.166 7.67602 10.1406 7.69945 10.0898C7.7268 10.0391 7.75414 9.98828 7.78148 9.9375C7.92992 9.63281 8.0725 9.28516 8.20922 8.89453C8.34984 8.5 8.4807 8.0918 8.6018 7.66992C8.72289 7.24414 8.83031 6.82812 8.92406 6.42188C9.02172 6.01172 9.09789 5.63672 9.15258 5.29688C9.18383 5.10547 9.25023 4.95898 9.3518 4.85742C9.45336 4.75195 9.6057 4.69922 9.80883 4.69922C10.0041 4.69922 10.1682 4.71875 10.301 4.75781C10.4338 4.79297 10.5413 4.92188 10.6233 5.14453C10.7795 5.57031 10.9377 6.0625 11.0979 6.62109C11.258 7.17969 11.4084 7.74805 11.5491 8.32617C11.6897 8.90039 11.8069 9.43164 11.9006 9.91992C11.9163 9.99414 11.9299 10.0547 11.9416 10.1016C11.9573 10.1445 11.9807 10.166 12.012 10.166C12.0432 10.166 12.0705 10.1406 12.094 10.0898C12.1174 10.0391 12.1428 9.98828 12.1702 9.9375C12.3694 9.54297 12.5471 9.07031 12.7034 8.51953C12.8635 7.96875 12.9924 7.38672 13.0901 6.77344C13.1877 6.15625 13.2444 5.55859 13.26 4.98047C13.2639 4.82812 13.3088 4.72656 13.3948 4.67578C13.4846 4.62109 13.5666 4.59375 13.6409 4.59375H14.3147C14.4553 4.59375 14.553 4.62695 14.6077 4.69336C14.6663 4.75977 14.6955 4.84375 14.6955 4.94531C14.6955 5.20703 14.678 5.47852 14.6428 5.75977C14.6116 6.03711 14.5686 6.31836 14.5139 6.60352C14.4631 6.88867 14.4045 7.17383 14.3381 7.45898C14.2561 7.81055 14.1487 8.18945 14.0159 8.5957C13.887 9.00195 13.7307 9.40039 13.5471 9.79102C13.3674 10.1777 13.1584 10.5234 12.9202 10.8281C12.7834 11.0039 12.635 11.1348 12.4748 11.2207C12.3186 11.3066 12.137 11.3496 11.9299 11.3496C11.5979 11.3496 11.3381 11.2676 11.1506 11.1035C10.967 10.9395 10.8205 10.625 10.7112 10.1602C10.6252 9.78516 10.5295 9.39258 10.4241 8.98242C10.3186 8.56836 10.219 8.19336 10.1252 7.85742C10.0315 7.51758 9.96117 7.27344 9.9143 7.125C9.90258 7.19922 9.87523 7.32812 9.83227 7.51172C9.7932 7.69531 9.75219 7.86523 9.70922 8.02148C9.62328 8.3418 9.52563 8.66016 9.41625 8.97656C9.30688 9.28906 9.18188 9.60156 9.04125 9.91406C8.90063 10.2305 8.76977 10.4961 8.64867 10.7109C8.52758 10.9219 8.385 11.082 8.22094 11.1914C8.06078 11.2969 7.8518 11.3496 7.59398 11.3496ZM17.52 11.3027C17.1528 11.3027 16.8364 11.1836 16.5708 10.9453C16.3052 10.7031 16.1723 10.2969 16.1723 9.72656V4.96875C16.1723 4.86719 16.2036 4.7793 16.2661 4.70508C16.3325 4.63086 16.4087 4.59375 16.4946 4.59375H17.2622C17.352 4.59375 17.4282 4.63086 17.4907 4.70508C17.5532 4.7793 17.5845 4.86719 17.5845 4.96875V9.5918C17.5845 9.74805 17.6098 9.85742 17.6606 9.91992C17.7153 9.97852 17.7817 10.0078 17.8598 10.0078C17.9575 10.0078 18.0552 9.98242 18.1528 9.93164C18.2505 9.88086 18.3325 9.85547 18.3989 9.85547C18.438 9.85547 18.4712 9.86914 18.4985 9.89648C18.5259 9.91992 18.5532 9.96289 18.5805 10.0254L18.7622 10.4355C18.7934 10.502 18.8091 10.5684 18.8091 10.6348C18.8091 10.7363 18.768 10.8164 18.686 10.875C18.4829 11.0234 18.2739 11.1328 18.0591 11.2031C17.8442 11.2695 17.6645 11.3027 17.52 11.3027ZM16.9048 3.46289C16.6391 3.46289 16.4126 3.37305 16.2251 3.19336C16.0376 3.00977 15.9438 2.78125 15.9438 2.50781C15.9438 2.23437 16.0376 2.00781 16.2251 1.82812C16.4126 1.64844 16.6391 1.55859 16.9048 1.55859C17.1704 1.55859 17.395 1.64844 17.5786 1.82812C17.7661 2.00781 17.8598 2.23437 17.8598 2.50781C17.8598 2.78125 17.7661 3.00977 17.5786 3.19336C17.395 3.37305 17.1704 3.46289 16.9048 3.46289ZM21.7155 11.3027C21.2195 11.3027 20.8171 11.1582 20.5085 10.8691C20.1999 10.5801 20.0456 10.1406 20.0456 9.55078V5.8125H19.5534C19.4167 5.8125 19.321 5.78125 19.2663 5.71875C19.2116 5.65234 19.1843 5.57227 19.1843 5.47852V5.14453C19.1843 5.05469 19.2077 4.98438 19.2546 4.93359C19.3054 4.88281 19.3972 4.84375 19.53 4.81641L20.1159 4.64648L20.3386 3.26953C20.3581 3.15625 20.3933 3.06445 20.4441 2.99414C20.4988 2.91992 20.5691 2.88281 20.655 2.88281H21.1413C21.2312 2.88281 21.3054 2.91992 21.364 2.99414C21.4226 3.06445 21.4519 3.15625 21.4519 3.26953V4.59375H23.1511C23.2409 4.59375 23.3171 4.63086 23.3796 4.70508C23.4421 4.7793 23.4734 4.86719 23.4734 4.96875V5.4375C23.4734 5.53906 23.4421 5.62695 23.3796 5.70117C23.3171 5.77539 23.2409 5.8125 23.1511 5.8125H21.4519V9.49219C21.4519 9.71875 21.5105 9.875 21.6277 9.96094C21.7488 10.0469 21.8874 10.0898 22.0437 10.0898C22.1648 10.0898 22.2859 10.0664 22.407 10.0195C22.528 9.96875 22.6413 9.91797 22.7468 9.86719C22.8523 9.8125 22.9441 9.76172 23.0222 9.71484C23.1003 9.66406 23.1784 9.63867 23.2566 9.63867C23.362 9.63867 23.4421 9.70312 23.4968 9.83203L23.6316 10.1367C23.6667 10.2188 23.6882 10.2773 23.696 10.3125C23.7038 10.3438 23.7077 10.3711 23.7077 10.3945C23.7077 10.5391 23.6042 10.6816 23.3972 10.8223C23.1941 10.959 22.9382 11.0742 22.6296 11.168C22.3249 11.2578 22.0202 11.3027 21.7155 11.3027ZM25.2607 11.2031C25.1748 11.2031 25.0986 11.166 25.0322 11.0918C24.9697 11.0176 24.9384 10.9297 24.9384 10.8281V1.18945C24.9384 1.08789 24.9697 1 25.0322 0.925781C25.0986 0.851562 25.1748 0.814453 25.2607 0.814453H26.04C26.1298 0.814453 26.206 0.851562 26.2685 0.925781C26.331 1 26.3623 1.08789 26.3623 1.18945V6.27539L26.163 6.04688C26.288 5.69922 26.4677 5.40625 26.7021 5.16797C26.9404 4.92969 27.2119 4.75 27.5166 4.62891C27.8213 4.50781 28.1416 4.44727 28.4775 4.44727C29.04 4.44727 29.4775 4.56641 29.79 4.80469C30.1025 5.04297 30.3193 5.36719 30.4404 5.77734C30.5654 6.1875 30.6279 6.6543 30.6279 7.17773V10.8281C30.6279 10.9297 30.5966 11.0176 30.5341 11.0918C30.4716 11.166 30.3955 11.2031 30.3056 11.2031H29.5263C29.4404 11.2031 29.3642 11.166 29.2978 11.0918C29.2353 11.0176 29.2041 10.9297 29.2041 10.8281V7.17188C29.2041 6.67188 29.1123 6.29688 28.9287 6.04688C28.749 5.79688 28.4736 5.67188 28.1025 5.67188C27.8486 5.67188 27.5869 5.75586 27.3173 5.92383C27.0478 6.08789 26.8213 6.3125 26.6377 6.59766C26.4541 6.87891 26.3623 7.19922 26.3623 7.55859V10.8281C26.3623 10.9297 26.331 11.0176 26.2685 11.0918C26.206 11.166 26.1298 11.2031 26.04 11.2031H25.2607ZM36.1948 11.2031C36.1088 11.2031 36.0327 11.166 35.9663 11.0918C35.9038 11.0176 35.8725 10.9297 35.8725 10.8281V5.8125H34.9995C34.9135 5.8125 34.8373 5.77539 34.7709 5.70117C34.7084 5.62695 34.6772 5.53906 34.6772 5.4375V5.23828C34.6772 5.125 34.7065 5.03125 34.7651 4.95703C34.8237 4.88281 34.9272 4.83398 35.0756 4.81055L35.8959 4.68164C35.7905 4.39258 35.6967 4.11133 35.6147 3.83789C35.5366 3.56445 35.4975 3.23828 35.4975 2.85938C35.4975 2.5 35.5873 2.16211 35.767 1.8457C35.9467 1.52539 36.2163 1.26758 36.5756 1.07227C36.9389 0.873047 37.3881 0.773438 37.9233 0.773438C38.142 0.773438 38.3745 0.802734 38.6205 0.861328C38.8666 0.916016 39.101 1.00977 39.3237 1.14258C39.4135 1.19727 39.4936 1.25781 39.5639 1.32422C39.6342 1.39062 39.6694 1.4668 39.6694 1.55273C39.6694 1.64258 39.6342 1.73633 39.5639 1.83398L39.3705 2.10938C39.3159 2.18359 39.2631 2.24219 39.2123 2.28516C39.1616 2.32422 39.103 2.34375 39.0366 2.34375C38.9858 2.34375 38.937 2.33398 38.8901 2.31445C38.8471 2.29492 38.7768 2.25977 38.6791 2.20898C38.6049 2.16602 38.4995 2.12305 38.3627 2.08008C38.2299 2.03711 38.0913 2.01562 37.9467 2.01562C37.6459 2.01562 37.4155 2.07813 37.2553 2.20312C37.0991 2.32812 36.9936 2.48633 36.9389 2.67773C36.8842 2.86523 36.8569 3.06055 36.8569 3.26367C36.8569 3.37695 36.8745 3.55078 36.9096 3.78516C36.9448 4.01953 37.017 4.28906 37.1264 4.59375H38.7495C38.8393 4.59375 38.9155 4.63086 38.978 4.70508C39.0405 4.7793 39.0717 4.86719 39.0717 4.96875V5.4375C39.0717 5.53906 39.0405 5.62695 38.978 5.70117C38.9155 5.77539 38.8393 5.8125 38.7495 5.8125H37.2729V10.8281C37.2729 10.9297 37.2416 11.0176 37.1791 11.0918C37.1166 11.166 37.0405 11.2031 36.9506 11.2031H36.1948ZM42.7516 11.3496C42.0837 11.3496 41.5016 11.2012 41.0055 10.9043C40.5134 10.6074 40.1305 10.1992 39.8571 9.67969C39.5837 9.15625 39.447 8.55859 39.447 7.88672C39.447 7.19531 39.5934 6.5918 39.8864 6.07617C40.1794 5.56055 40.5759 5.16016 41.0759 4.875C41.5759 4.58984 42.1345 4.44727 42.7516 4.44727C43.4743 4.44727 44.0798 4.58984 44.568 4.875C45.0602 5.16016 45.4313 5.56055 45.6813 6.07617C45.9313 6.5918 46.0563 7.19531 46.0563 7.88672C46.0563 8.57812 45.9098 9.18359 45.6169 9.70312C45.3239 10.2227 44.9274 10.627 44.4274 10.916C43.9313 11.2051 43.3727 11.3496 42.7516 11.3496ZM42.7751 10.1367C43.2126 10.1367 43.5641 10.0371 43.8298 9.83789C44.0954 9.63867 44.2887 9.37109 44.4098 9.03516C44.5309 8.69531 44.5915 8.32227 44.5915 7.91602C44.5915 7.56836 44.5329 7.22266 44.4157 6.87891C44.2985 6.53125 44.1052 6.24219 43.8356 6.01172C43.57 5.78125 43.2067 5.66602 42.7458 5.66602C42.3044 5.66602 41.9489 5.77734 41.6794 6C41.4098 6.22266 41.2145 6.50977 41.0934 6.86133C40.9723 7.21289 40.9118 7.58203 40.9118 7.96875C40.9118 8.33594 40.9782 8.68555 41.111 9.01758C41.2477 9.34961 41.4528 9.61914 41.7262 9.82617C42.0036 10.0332 42.3532 10.1367 42.7751 10.1367ZM47.7909 11.2031C47.705 11.2031 47.6288 11.166 47.5624 11.0918C47.4999 11.0176 47.4687 10.9297 47.4687 10.8281V6.7793C47.4687 6.51758 47.4628 6.25195 47.4511 5.98242C47.4394 5.70898 47.4062 5.43555 47.3515 5.16211C47.3476 5.13477 47.3437 5.10938 47.3398 5.08594C47.3359 5.0625 47.3339 5.03906 47.3339 5.01562C47.3339 4.89453 47.3632 4.79492 47.4218 4.7168C47.4843 4.63477 47.578 4.59375 47.703 4.59375H48.0195C48.1445 4.59375 48.2421 4.61914 48.3124 4.66992C48.3827 4.7168 48.4374 4.78516 48.4765 4.875C48.5312 4.99609 48.5839 5.16992 48.6347 5.39648C48.6894 5.61914 48.7304 5.82227 48.7577 6.00586C48.7577 6.00977 48.7597 6.01172 48.7636 6.01172C48.7714 6.01172 48.7753 6.00977 48.7753 6.00586C48.8261 5.66211 48.9238 5.375 49.0683 5.14453C49.2167 4.91406 49.4003 4.74023 49.6191 4.62305C49.8378 4.50586 50.078 4.44727 50.3398 4.44727C50.4374 4.44727 50.5722 4.45703 50.7441 4.47656C50.9159 4.49219 51.0683 4.53516 51.2011 4.60547C51.3378 4.67578 51.3964 4.78906 51.3769 4.94531L51.2831 5.68359C51.2714 5.78125 51.2382 5.85547 51.1835 5.90625C51.1327 5.95703 51.0644 5.98242 50.9784 5.98242C50.8417 5.98242 50.707 5.95898 50.5741 5.91211C50.4452 5.86133 50.3085 5.83594 50.164 5.83594C49.9726 5.83594 49.7988 5.89648 49.6425 6.01758C49.4863 6.13477 49.3515 6.28906 49.2382 6.48047C49.1288 6.67188 49.0429 6.875 48.9804 7.08984C48.9218 7.30469 48.8925 7.50977 48.8925 7.70508V10.8281C48.8925 10.9297 48.8613 11.0176 48.7988 11.0918C48.7363 11.166 48.6601 11.2031 48.5702 11.2031H47.7909ZM54.8634 11.3496C54.2033 11.3496 53.633 11.2051 53.1525 10.916C52.672 10.623 52.3029 10.2148 52.0451 9.69141C51.7873 9.16797 51.6584 8.55859 51.6584 7.86328C51.6584 7.14453 51.7951 6.53125 52.0685 6.02344C52.3459 5.51562 52.7228 5.12695 53.1994 4.85742C53.6759 4.58398 54.2209 4.44727 54.8341 4.44727C55.4357 4.44727 55.9162 4.54883 56.2755 4.75195C56.6349 4.95508 56.8947 5.21289 57.0548 5.52539C57.215 5.83789 57.2951 6.16016 57.2951 6.49219C57.2951 6.76172 57.2248 6.94727 57.0841 7.04883C56.9474 7.15039 56.7755 7.20117 56.5685 7.20117H56.4279C56.2443 7.20117 56.1173 7.15625 56.047 7.06641C55.9806 6.97656 55.9474 6.86328 55.9474 6.72656C55.9474 6.33594 55.8361 6.05859 55.6134 5.89453C55.3908 5.72656 55.1232 5.64258 54.8107 5.64258C54.4123 5.64258 54.09 5.75391 53.8439 5.97656C53.6017 6.19922 53.424 6.47852 53.3107 6.81445C53.1974 7.14648 53.1408 7.48047 53.1408 7.81641C53.1408 8.23438 53.1994 8.61719 53.3166 8.96484C53.4338 9.30859 53.6252 9.58398 53.8908 9.79102C54.1603 9.99414 54.5197 10.0957 54.9689 10.0957C55.2931 10.0957 55.5724 10.0391 55.8068 9.92578C56.0412 9.8125 56.2384 9.71289 56.3986 9.62695C56.465 9.58789 56.5275 9.55664 56.5861 9.5332C56.6447 9.50977 56.6974 9.49805 56.7443 9.49805C56.8068 9.49805 56.8654 9.51367 56.9201 9.54492C56.9787 9.57617 57.0275 9.625 57.0666 9.69141L57.1955 9.9082C57.2267 9.96289 57.2482 10.0117 57.2599 10.0547C57.2755 10.0977 57.2834 10.1367 57.2834 10.1719C57.2834 10.3477 57.1994 10.5078 57.0314 10.6523C56.8673 10.793 56.6564 10.916 56.3986 11.0215C56.1447 11.127 55.8791 11.207 55.6017 11.2617C55.3283 11.3203 55.0822 11.3496 54.8634 11.3496ZM61.6195 11.3496C61.0062 11.3496 60.4535 11.2188 59.9613 10.957C59.473 10.6953 59.0863 10.3164 58.8012 9.82031C58.516 9.32422 58.3734 8.72461 58.3734 8.02148C58.3734 7.17773 58.5082 6.49414 58.7777 5.9707C59.0473 5.44336 59.4242 5.05664 59.9086 4.81055C60.3969 4.56445 60.9652 4.44141 61.6137 4.44141C62.0824 4.44141 62.4984 4.52148 62.8617 4.68164C63.225 4.8418 63.5102 5.07617 63.7172 5.38477C63.9242 5.69336 64.0277 6.07422 64.0277 6.52734C64.0277 6.99219 63.9047 7.36719 63.6586 7.65234C63.4125 7.9375 63.0883 8.14648 62.6859 8.2793C62.2875 8.4082 61.8559 8.47266 61.391 8.47266C61.1293 8.47266 60.8754 8.45312 60.6293 8.41406C60.3832 8.37109 60.1625 8.32422 59.9672 8.27344C59.7719 8.21875 59.6176 8.17383 59.5043 8.13867L59.8852 7.41797C59.8461 7.66797 59.8148 7.86523 59.7914 8.00977C59.7719 8.1543 59.7621 8.26172 59.7621 8.33203C59.7621 8.85156 59.932 9.2832 60.2719 9.62695C60.6117 9.9668 61.0941 10.1367 61.7191 10.1367C62.0355 10.1367 62.2953 10.0996 62.4984 10.0254C62.7055 9.95117 62.8773 9.87305 63.0141 9.79102C63.1234 9.72461 63.2172 9.66797 63.2953 9.62109C63.3734 9.57031 63.4477 9.54492 63.518 9.54492C63.5766 9.54492 63.6312 9.55859 63.682 9.58594C63.7367 9.61328 63.7875 9.67188 63.8344 9.76172L63.9926 10.0898C64.0121 10.1289 64.0258 10.166 64.0336 10.2012C64.0414 10.2324 64.0453 10.2656 64.0453 10.3008C64.0453 10.4766 63.9613 10.6309 63.7934 10.7637C63.6293 10.8926 63.4184 11.002 63.1605 11.0918C62.9066 11.1777 62.641 11.2422 62.3637 11.2852C62.0863 11.3281 61.8383 11.3496 61.6195 11.3496ZM61.1098 7.38867C61.5629 7.38867 61.932 7.32227 62.2172 7.18945C62.5062 7.05664 62.6508 6.83008 62.6508 6.50977C62.6508 6.2168 62.5512 6.00391 62.352 5.87109C62.1566 5.73828 61.8812 5.67188 61.5258 5.67188C61.2484 5.67188 60.9867 5.7207 60.7406 5.81836C60.4984 5.91211 60.2953 6.06641 60.1312 6.28125C59.9711 6.49219 59.8695 6.77734 59.8266 7.13672C59.8773 7.16016 59.9672 7.19141 60.0961 7.23047C60.225 7.26953 60.3773 7.30664 60.5531 7.3418C60.7328 7.37305 60.9184 7.38867 61.1098 7.38867ZM65.7623 13.166C65.7155 13.166 65.6627 13.1523 65.6041 13.125C65.5455 13.0977 65.4616 13.0312 65.3522 12.9258C65.2428 12.8242 65.1725 12.7422 65.1413 12.6797C65.11 12.6211 65.0944 12.5664 65.0944 12.5156C65.0944 12.4219 65.1237 12.334 65.1823 12.252C65.2409 12.1738 65.2897 12.1113 65.3288 12.0645C65.6686 11.6387 65.9596 11.1348 66.2018 10.5527C66.444 9.9668 66.6295 9.33789 66.7584 8.66602C66.8873 7.99023 66.9518 7.30469 66.9518 6.60938C66.9518 5.96094 66.8971 5.29297 66.7877 4.60547C66.6823 3.91797 66.5026 3.25977 66.2487 2.63086C65.9987 2.00195 65.653 1.45703 65.2116 0.996094C65.1569 0.933594 65.1159 0.873047 65.0885 0.814453C65.0612 0.755859 65.0475 0.697266 65.0475 0.638672C65.0475 0.501953 65.1217 0.365234 65.2702 0.228516C65.3717 0.130859 65.4557 0.0683594 65.5221 0.0410156C65.5885 0.0136719 65.6491 0 65.7038 0C65.8327 0 65.9401 0.0429687 66.026 0.128906C66.5534 0.695313 66.985 1.3457 67.3209 2.08008C67.6569 2.81055 67.9049 3.56445 68.0651 4.3418C68.2252 5.11523 68.3053 5.85352 68.3053 6.55664C68.3053 7.31055 68.2252 8.07617 68.0651 8.85352C67.9049 9.63086 67.6647 10.373 67.3444 11.0801C67.028 11.7871 66.6315 12.416 66.1549 12.9668C66.1159 13.0059 66.0631 13.0488 65.9967 13.0957C65.9303 13.1426 65.8522 13.166 65.7623 13.166Z" fill="#E8FF76"/>
<path fill-rule="evenodd" clip-rule="evenodd" d="M49.1055 16.4434C49.5657 16.4434 49.9395 16.8161 49.9395 17.2764V28.3594C49.9395 28.8196 49.5657 29.1934 49.1055 29.1934H38.0225C37.5622 29.1934 37.1895 28.8196 37.1895 28.3594V22.5264C37.1895 22.0661 37.5622 21.6934 38.0225 21.6934H42.4395V17.2764C42.4395 16.8161 42.8122 16.4434 43.2725 16.4434H49.1055ZM46.1895 18.7773C45.7294 18.7775 45.3564 19.1502 45.3564 19.6104V24.6104H42.2861C42.4195 24.3053 42.3619 23.9371 42.1123 23.6875C41.7868 23.3621 41.259 23.362 40.9336 23.6875L39.7666 24.8545C39.6105 25.0108 39.5234 25.2234 39.5234 25.4443C39.5236 25.6652 39.6114 25.8771 39.7676 26.0332L40.9336 27.1992C41.259 27.5245 41.7869 27.5245 42.1123 27.1992C42.3616 26.9498 42.4189 26.5821 42.2861 26.2773H46.1895C46.6497 26.2773 47.0234 25.9036 47.0234 25.4434V19.6104C47.0234 19.1501 46.6497 18.7773 46.1895 18.7773Z" fill="#E8FF76"/>
<path d="M1.81836 27.4434C1.73242 27.4434 1.65625 27.4062 1.58984 27.332C1.52734 27.2578 1.49609 27.1699 1.49609 27.0684V18.8359C1.49609 18.7344 1.52734 18.6465 1.58984 18.5723C1.65625 18.498 1.73242 18.4609 1.81836 18.4609H2.64453C2.73438 18.4609 2.81055 18.498 2.87305 18.5723C2.93555 18.6465 2.9668 18.7344 2.9668 18.8359V22.3398H7.33203V18.8359C7.33203 18.7344 7.36328 18.6465 7.42578 18.5723C7.49219 18.498 7.56836 18.4609 7.6543 18.4609H8.48047C8.57031 18.4609 8.64648 18.498 8.70898 18.5723C8.77148 18.6465 8.80273 18.7344 8.80273 18.8359V27.0684C8.80273 27.1699 8.77148 27.2578 8.70898 27.332C8.64648 27.4062 8.57031 27.4434 8.48047 27.4434H7.6543C7.56836 27.4434 7.49219 27.4062 7.42578 27.332C7.36328 27.2578 7.33203 27.1699 7.33203 27.0684V23.6348H2.9668V27.0684C2.9668 27.1699 2.93555 27.2578 2.87305 27.332C2.81055 27.4062 2.73438 27.4434 2.64453 27.4434H1.81836ZM14.8205 27.5898C14.1448 27.5898 13.5413 27.4648 13.01 27.2148C12.4788 26.9648 12.0276 26.6211 11.6565 26.1836C11.2893 25.7461 11.008 25.2441 10.8127 24.6777C10.6213 24.1113 10.5256 23.5117 10.5256 22.8789C10.5256 22.2188 10.6291 21.6113 10.8362 21.0566C11.0432 20.498 11.3381 20.0156 11.7209 19.6094C12.1077 19.1992 12.5666 18.8809 13.0979 18.6543C13.6291 18.4277 14.219 18.3145 14.8674 18.3145C15.8049 18.3145 16.594 18.5156 17.2346 18.918C17.8791 19.3203 18.3655 19.8672 18.6936 20.5586C19.0256 21.25 19.1916 22.0273 19.1916 22.8906C19.1916 23.5469 19.0862 24.1602 18.8752 24.7305C18.6643 25.2969 18.3635 25.7949 17.9729 26.2246C17.5862 26.6504 17.1252 26.9844 16.5901 27.2266C16.0588 27.4688 15.469 27.5898 14.8205 27.5898ZM14.8498 26.2422C15.4827 26.2422 16.0022 26.0898 16.4084 25.7852C16.8186 25.4766 17.1233 25.0684 17.3225 24.5605C17.5217 24.0527 17.6213 23.4941 17.6213 22.8848C17.6213 22.3105 17.5198 21.7793 17.3166 21.291C17.1135 20.7988 16.8069 20.4043 16.3967 20.1074C15.9866 19.8066 15.4729 19.6562 14.8557 19.6562C14.2854 19.6562 13.7932 19.793 13.3791 20.0664C12.9651 20.3398 12.6467 20.7207 12.4241 21.209C12.2053 21.6934 12.0959 22.252 12.0959 22.8848C12.0959 23.3105 12.1487 23.7246 12.2541 24.127C12.3635 24.5254 12.5295 24.8848 12.7522 25.2051C12.9788 25.5215 13.2639 25.7734 13.6077 25.9609C13.9553 26.1484 14.3694 26.2422 14.8498 26.2422ZM21.2368 27.4434C21.1509 27.4434 21.0747 27.4062 21.0083 27.332C20.9458 27.2578 20.9145 27.1699 20.9145 27.0684V18.8359C20.9145 18.7344 20.9458 18.6465 21.0083 18.5723C21.0747 18.498 21.1509 18.4609 21.2368 18.4609H22.063C22.1528 18.4609 22.229 18.498 22.2915 18.5723C22.354 18.6465 22.3852 18.7344 22.3852 18.8359V26.1367H25.5493C25.6391 26.1367 25.7153 26.1738 25.7778 26.248C25.8403 26.3223 25.8716 26.4102 25.8716 26.5117V27.0684C25.8716 27.1699 25.8403 27.2578 25.7778 27.332C25.7153 27.4062 25.6391 27.4434 25.5493 27.4434H21.2368ZM27.3132 27.4434C27.2273 27.4434 27.1511 27.4062 27.0847 27.332C27.0222 27.2578 26.9909 27.1699 26.9909 27.0684V18.8359C26.9909 18.7344 27.0222 18.6465 27.0847 18.5723C27.1511 18.498 27.2273 18.4609 27.3132 18.4609H29.3698C30.4245 18.4609 31.2917 18.6348 31.9714 18.9824C32.6511 19.3262 33.155 19.8184 33.4831 20.459C33.8113 21.0996 33.9753 21.8652 33.9753 22.7559C33.9753 23.7285 33.7878 24.5645 33.4128 25.2637C33.0378 25.9629 32.4988 26.502 31.7956 26.8809C31.0925 27.2559 30.2488 27.4434 29.2644 27.4434H27.3132ZM29.4519 26.166C30.4909 26.166 31.2429 25.8711 31.7077 25.2812C32.1765 24.6914 32.4109 23.8496 32.4109 22.7559C32.4109 21.7949 32.1667 21.0547 31.6784 20.5352C31.1941 20.0117 30.4831 19.75 29.5456 19.75C29.4089 19.75 29.2605 19.752 29.1003 19.7559C28.9441 19.7559 28.7312 19.7598 28.4616 19.7676V26.1484L29.4519 26.166Z" fill="#E8FF76"/>
</svg>