<svg width="44" height="41" viewBox="0 0 44 41" fill="none" xmlns="http://www.w3.org/2000/svg">
<mask id="path-1-outside-1_801_10280" maskUnits="userSpaceOnUse" x="-1.46129" y="-2.68468" width="46.7159" height="46.7159" fill="black">
<rect fill="white" x="-1.46129" y="-2.68468" width="46.7159" height="46.7159"/>
<path d="M39.3378 8.87571C40.1973 9.1123 40.7025 10.0006 40.4662 10.8602L34.4293 32.8119C34.3157 33.2247 34.0421 33.5754 33.6699 33.787L27.1461 37.4966C26.774 37.7082 26.3326 37.764 25.9198 37.6505L3.96818 31.6137C3.10861 31.3771 2.60354 30.4888 2.83975 29.6292L8.87661 7.67751C8.99015 7.26479 9.26301 6.91378 9.63506 6.70211L16.1591 2.99161L16.3025 2.91963C16.6419 2.76891 17.0249 2.73953 17.3861 2.83884L39.3378 8.87571Z"/>
</mask>
<path d="M39.3378 8.87571C40.1973 9.1123 40.7025 10.0006 40.4662 10.8602L34.4293 32.8119C34.3157 33.2247 34.0421 33.5754 33.6699 33.787L27.1461 37.4966C26.774 37.7082 26.3326 37.764 25.9198 37.6505L3.96818 31.6137C3.10861 31.3771 2.60354 30.4888 2.83975 29.6292L8.87661 7.67751C8.99015 7.26479 9.26301 6.91378 9.63506 6.70211L16.1591 2.99161L16.3025 2.91963C16.6419 2.76891 17.0249 2.73953 17.3861 2.83884L39.3378 8.87571Z" fill="#359757"/>
<path d="M39.3378 8.87571L40.0758 6.19454L40.0752 6.19436L39.3378 8.87571ZM40.4662 10.8602L43.1476 11.5976L43.1477 11.5972L40.4662 10.8602ZM34.4293 32.8119L37.1106 33.5497L37.1107 33.5493L34.4293 32.8119ZM33.6699 33.787L35.0445 36.2044L35.0445 36.2044L33.6699 33.787ZM27.1461 37.4966L28.5207 39.914L28.5207 39.914L27.1461 37.4966ZM25.9198 37.6505L25.1824 40.3319L25.1829 40.332L25.9198 37.6505ZM3.96818 31.6137L3.2304 34.2949L3.23079 34.295L3.96818 31.6137ZM2.83975 29.6292L0.158395 28.8918L0.158236 28.8923L2.83975 29.6292ZM8.87661 7.67751L6.19532 6.9399L6.19526 6.94012L8.87661 7.67751ZM9.63506 6.70211L8.26025 4.28482L8.2599 4.28502L9.63506 6.70211ZM16.1591 2.99161L14.9112 0.506419C14.8684 0.527955 14.826 0.550597 14.7843 0.574323L16.1591 2.99161ZM16.3025 2.91963L15.1738 0.378085C15.1336 0.395923 15.0939 0.414712 15.0546 0.434435L16.3025 2.91963ZM17.3861 2.83884L18.1235 0.157494L18.1234 0.157453L17.3861 2.83884ZM39.3378 8.87571L38.5997 11.5569C37.9792 11.3861 37.614 10.7445 37.7847 10.1232L40.4662 10.8602L43.1477 11.5972C43.791 9.25672 42.4153 6.83853 40.0758 6.19454L39.3378 8.87571ZM40.4662 10.8602L37.7849 10.1228L31.748 32.0745L34.4293 32.8119L37.1107 33.5493L43.1476 11.5976L40.4662 10.8602ZM34.4293 32.8119L31.7481 32.074C31.8309 31.7731 32.0291 31.521 32.2954 31.3696L33.6699 33.787L35.0445 36.2044C36.0552 35.6297 36.8006 34.6762 37.1106 33.5497L34.4293 32.8119ZM33.6699 33.787L32.2954 31.3696L25.7716 35.0791L27.1461 37.4966L28.5207 39.914L35.0445 36.2044L33.6699 33.787ZM27.1461 37.4966L25.7716 35.0791C26.0379 34.9277 26.3558 34.8864 26.6567 34.969L25.9198 37.6505L25.1829 40.332C26.3095 40.6416 27.51 40.4887 28.5207 39.914L27.1461 37.4966ZM25.9198 37.6505L26.6572 34.9692L4.70557 28.9323L3.96818 31.6137L3.23079 34.295L25.1824 40.3319L25.9198 37.6505ZM3.96818 31.6137L4.70595 28.9324C5.32709 29.1033 5.6918 29.7453 5.52125 30.366L2.83975 29.6292L0.158236 28.8923C-0.484723 31.2323 0.89013 33.651 3.2304 34.2949L3.96818 31.6137ZM2.83975 29.6292L5.5211 30.3665L11.558 8.41491L8.87661 7.67751L6.19526 6.94012L0.158395 28.8918L2.83975 29.6292ZM8.87661 7.67751L11.5579 8.41513C11.476 8.71278 11.2794 8.96607 11.0102 9.1192L9.63506 6.70211L8.2599 4.28502C7.24666 4.86148 6.50428 5.8168 6.19532 6.9399L8.87661 7.67751ZM9.63506 6.70211L11.0099 9.1194L17.5339 5.4089L16.1591 2.99161L14.7843 0.574323L8.26025 4.28482L9.63506 6.70211ZM16.1591 2.99161L17.407 5.4768L17.5504 5.40482L16.3025 2.91963L15.0546 0.434435L14.9112 0.506419L16.1591 2.99161ZM16.3025 2.91963L17.4312 5.46117C17.184 5.57096 16.9077 5.5914 16.6489 5.52024L17.3861 2.83884L18.1234 0.157453C17.1421 -0.112337 16.0998 -0.0331417 15.1738 0.378085L16.3025 2.91963ZM17.3861 2.83884L16.6487 5.52019L38.6004 11.5571L39.3378 8.87571L40.0752 6.19436L18.1235 0.157494L17.3861 2.83884Z" fill="#E8FF76" mask="url(#path-1-outside-1_801_10280)"/>
<path fill-rule="evenodd" clip-rule="evenodd" d="M23.097 8.45807C24.2573 8.60009 25.3903 8.91186 26.4589 9.38466L26.5625 9.43138L26.5705 9.4356C26.6591 9.47973 26.7162 9.56985 26.7169 9.66931C26.7209 10.2945 26.7061 10.9034 26.8207 11.45C27.5772 11.8944 28.2734 12.4342 28.8917 13.0567C29.4496 13.0321 30.0357 12.867 30.6424 12.7157C30.742 12.6911 30.8468 12.7269 30.9111 12.8068C31.6999 13.7887 32.3279 14.89 32.7708 16.0691C32.8068 16.1652 32.7837 16.2735 32.7117 16.3466C32.2725 16.7915 31.8315 17.2109 31.5261 17.6785C31.7468 18.5279 31.8568 19.4028 31.8537 20.2804C32.2107 20.6073 32.6573 20.8739 33.1189 21.1489L33.3329 21.2766L33.3406 21.2818C33.4236 21.3358 33.4702 21.4322 33.4594 21.5312C33.3229 22.7832 32.9881 24.0059 32.4675 25.1527C32.425 25.2462 32.3313 25.3061 32.2286 25.3068C31.6035 25.3108 30.9954 25.2962 30.4489 25.4109C30.0048 26.1668 29.4647 26.862 28.8427 27.4799C28.8615 27.7411 28.9349 28.0645 29.0297 28.4095C29.1324 28.783 29.2677 29.206 29.3461 29.5204C29.3707 29.62 29.3358 29.725 29.2559 29.7893C28.274 30.5782 27.1727 31.2062 25.9936 31.6491C25.8974 31.6852 25.7884 31.6619 25.7152 31.5897C25.4845 31.3619 25.1898 31.0303 24.9208 30.7514C24.6724 30.494 24.4324 30.2655 24.2173 30.1164C23.3687 30.3367 22.4953 30.4469 21.6185 30.4439C21.2413 30.8558 20.9444 31.3872 20.6223 31.9231C20.5693 32.0111 20.4698 32.0607 20.3677 32.0496C19.1156 31.9131 17.8931 31.5782 16.7462 31.0577C16.6526 31.0152 16.5928 30.9216 16.5921 30.8188C16.588 30.1936 16.6027 29.5856 16.488 29.039C15.7313 28.5945 15.0348 28.0539 14.4164 27.4312C13.8585 27.4557 13.2732 27.6212 12.6666 27.7724C12.5671 27.7972 12.4621 27.762 12.3977 27.6822C11.6088 26.7004 10.9808 25.599 10.5379 24.42C10.5018 24.3237 10.5251 24.2147 10.5973 24.1416C11.0364 23.6967 11.4766 23.2769 11.782 22.8094C11.5614 21.9602 11.451 21.0858 11.4541 20.2084C11.0422 19.8314 10.5115 19.5343 9.97582 19.2124C9.88774 19.1595 9.83821 19.06 9.84934 18.9579C9.98579 17.7057 10.3207 16.4833 10.8412 15.3364L10.8457 15.3275C10.8899 15.2391 10.9799 15.1828 11.0791 15.182C11.7044 15.178 12.3132 15.1928 12.8599 15.0782C13.3044 14.3215 13.8441 13.6247 14.4668 13.0063C14.4422 12.4484 14.2768 11.8631 14.1256 11.2565C14.1008 11.1569 14.1368 11.0522 14.2167 10.9878C15.1985 10.199 16.2999 9.57097 17.4789 9.1281L17.488 9.12452C17.5818 9.09323 17.6856 9.11735 17.7564 9.18719C18.2013 9.62633 18.6211 10.0665 19.0886 10.3719C19.938 10.1512 20.8129 10.0412 21.6905 10.0442C22.0675 9.63236 22.3645 9.1017 22.6865 8.56597L22.6919 8.55733C22.746 8.47463 22.8422 8.42873 22.941 8.43949C22.9929 8.44515 23.0452 8.45173 23.097 8.45807ZM27.8458 17.8099C26.9559 15.531 24.8916 13.9203 22.4646 13.6116C18.8017 13.1633 15.469 15.77 15.0208 19.4331C14.5728 23.0958 17.1787 26.4283 20.8413 26.8767C21.4209 26.94 22.0061 26.9272 22.5816 26.8387L22.0955 25.3398C22.0644 25.2439 22.0913 25.1388 22.1639 25.0689C22.7604 24.4955 23.561 23.99 24.2018 23.6321C24.5242 23.452 24.8109 23.3072 25.0165 23.2069C25.119 23.157 25.2016 23.1179 25.259 23.0913C25.2877 23.078 25.3107 23.0681 25.3261 23.0611C25.3337 23.0577 25.3395 23.0546 25.3435 23.0528C25.3454 23.052 25.347 23.0515 25.3481 23.051L25.3505 23.0496C25.4482 23.0066 25.5623 23.0267 25.6393 23.1007L26.9101 24.3242C28.3399 22.4735 28.7015 20.0011 27.8458 17.8099Z" fill="white"/>
</svg>