<svg width="87" height="88" viewBox="0 0 87 88" fill="none" xmlns="http://www.w3.org/2000/svg">
<path d="M26.1008 9.24805C27.7065 2.86943 35.5326 0.894164 40.0833 5.49023L63.8811 29.5254C64.3055 29.954 64.8339 30.2662 65.4143 30.4307L72.4231 32.417C75.2834 33.2275 77.5123 35.4735 78.301 38.3398L83.9778 58.9688C85.2403 63.5567 82.4906 68.2871 77.8792 69.4609L19.7893 84.248C15.4085 85.3632 10.9206 82.8541 9.57642 78.5381L2.88599 57.0527C1.71778 53.3011 3.27298 49.2381 6.64771 47.2256L18.9778 39.8721C19.7407 35.5788 23.32 20.2953 26.1008 9.24805Z" fill="#FADE26" stroke="#E64D3D" stroke-width="5"/>
<path d="M31.534 12.8761C32.4753 10.1359 36.004 9.27308 38.1011 11.3651L52.9404 26.1735L53.1343 26.3804C55.0422 28.5622 54.0288 32.0622 51.1604 32.8308L30.8731 38.2668C27.9123 39.06 25.2081 36.3445 26.0029 33.3914L31.4509 13.147L31.534 12.8761ZM39.1204 29.2619L39.5166 29.1557L39.4104 28.7596L39.0142 28.8657L39.1204 29.2619ZM37.0465 20.7296C36.9403 20.7581 36.8733 20.8746 36.9015 20.9808L37.6236 23.6758C37.6522 23.7819 37.7685 23.8492 37.8747 23.8208C37.9809 23.7922 38.048 23.6758 38.0198 23.5696L37.2976 20.8746C37.269 20.7686 37.1526 20.7013 37.0465 20.7296Z" fill="#E64D3D" stroke="#FADE26" stroke-width="2.37913"/>
<path d="M16.1488 61.7664C15.9419 61.8219 15.7503 61.8025 15.574 61.7083C15.3977 61.6141 15.2806 61.4591 15.2227 61.2435L14.0954 57.0445C14.0221 56.7716 13.9426 56.5193 13.8568 56.2875C13.7754 56.0546 13.7053 55.8728 13.6467 55.7423C13.5857 55.603 13.5357 55.496 13.4969 55.4216C13.4568 55.3427 13.4309 55.2812 13.4191 55.2372C13.3564 55.0039 13.3836 54.815 13.5004 54.6703C13.6161 54.5213 13.7686 54.4214 13.9579 54.3706L14.3144 54.2748C14.5037 54.224 14.6623 54.2263 14.7904 54.2815C14.9217 54.3312 15.0396 54.4364 15.1441 54.5971C15.2212 54.7085 15.2889 54.8201 15.3472 54.9318C15.4044 55.0392 15.4624 55.1675 15.5214 55.3168C15.5305 55.3333 15.5395 55.3403 15.5483 55.3379C15.5603 55.33 15.5667 55.3188 15.5676 55.3044C15.5629 54.9707 15.6114 54.6769 15.7132 54.4231C15.8137 54.1649 15.9615 53.9506 16.1564 53.7803C16.3545 53.6044 16.5967 53.4781 16.8828 53.4013C17.0676 53.3516 17.2732 53.3177 17.4995 53.2994C17.7302 53.2799 17.934 53.3007 18.1108 53.3617C18.2876 53.4228 18.3877 53.5493 18.4109 53.7413L18.55 54.7868C18.5691 54.928 18.539 55.0446 18.4599 55.1366C18.384 55.2231 18.2823 55.2834 18.1546 55.3177C17.9918 55.3614 17.8312 55.3785 17.673 55.3691C17.518 55.3541 17.337 55.3744 17.1301 55.4299C16.9717 55.4725 16.8367 55.5583 16.725 55.6873C16.6166 55.8108 16.5309 55.966 16.4678 56.1528C16.4091 56.3384 16.3789 56.5423 16.3772 56.7646C16.3755 56.9868 16.4066 57.2167 16.4704 57.4544L17.3354 60.6763C17.3933 60.8919 17.3696 61.0847 17.2642 61.2545C17.1588 61.4244 17.0027 61.5371 16.7958 61.5926L16.1488 61.7664ZM22.2603 60.2459C21.7541 60.3818 21.305 60.3348 20.913 60.105C20.5242 59.8697 20.2247 59.3603 20.0143 58.5768L18.7505 53.8695C18.695 53.6626 18.7143 53.471 18.8085 53.2947C18.9028 53.1184 19.0577 53.0013 19.2734 52.9434L19.9204 52.7697C20.1361 52.7118 20.3288 52.7356 20.4987 52.841C20.6685 52.9464 20.7812 53.1025 20.8368 53.3094L22.1183 58.0827C22.1396 58.1619 22.168 58.2062 22.2035 58.2155C22.2435 58.2237 22.2853 58.2125 22.329 58.1819C22.3935 58.141 22.459 58.095 22.5256 58.0441C22.591 57.9888 22.6589 57.9517 22.7293 57.9328C22.8129 57.9104 22.9008 57.9127 22.9931 57.9399C23.0885 57.9614 23.1792 58.0267 23.2651 58.1358L23.5753 58.5267C23.66 58.6314 23.7142 58.7277 23.7378 58.8158C23.7804 58.9742 23.7484 59.1362 23.6418 59.3016C23.4632 59.5855 23.2397 59.7989 22.9713 59.9417C22.7042 60.0889 22.4671 60.1903 22.2603 60.2459ZM19.3737 51.8407C19.0084 51.9387 18.6634 51.9016 18.3387 51.7292C18.0184 51.5557 17.8098 51.2885 17.7129 50.9276C17.6172 50.571 17.6651 50.2397 17.8566 49.9335C18.0513 49.6217 18.3313 49.4167 18.6966 49.3186C19.0575 49.2217 19.3981 49.2601 19.7184 49.4336C20.0375 49.6027 20.2449 49.8656 20.3406 50.2221C20.4375 50.583 20.3908 50.9188 20.2005 51.2294C20.0102 51.54 19.7346 51.7438 19.3737 51.8407ZM27.6476 58.849C26.8597 59.0605 26.1332 59.0786 25.468 58.9033C24.8072 58.7269 24.2414 58.3857 23.7705 57.8798C23.2985 57.3695 22.9585 56.727 22.7505 55.9524C22.5354 55.1513 22.5161 54.4204 22.6926 53.7596C22.8679 53.0944 23.2003 52.5309 23.6898 52.0692C24.1836 51.6063 24.7959 51.2767 25.5265 51.0806C26.2572 50.8844 26.8751 50.8483 27.3802 50.9722C27.8853 51.0961 28.2866 51.3163 28.5839 51.6329C28.8856 51.9482 29.0885 52.2996 29.1925 52.6869C29.2929 53.061 29.2516 53.3552 29.0685 53.5696C28.8897 53.7827 28.6551 53.9282 28.3646 54.0062L28.2128 54.047C27.9443 54.1191 27.7191 54.1064 27.5372 54.009C27.3586 53.9059 27.2368 53.7334 27.1718 53.4913C27.0879 53.1788 26.9402 52.9802 26.7287 52.8954C26.5215 52.8094 26.275 52.8049 25.9889 52.8817C25.6191 52.9809 25.347 53.1625 25.1725 53.4264C25.0024 53.6892 24.9059 53.9888 24.883 54.3252C24.8589 54.6573 24.8899 54.984 24.9762 55.3053C25.0861 55.7146 25.2386 56.0629 25.4337 56.3503C25.6333 56.6365 25.8827 56.8361 26.182 56.9492C26.4857 57.0611 26.8467 57.061 27.2648 56.9487C27.5817 56.8636 27.8388 56.7403 28.0361 56.5788C28.2322 56.4129 28.4141 56.2556 28.5818 56.1067C28.6612 56.0335 28.7414 55.9719 28.8223 55.9218C28.9021 55.8674 28.9816 55.8295 29.0608 55.8083C29.184 55.7752 29.3056 55.7709 29.4254 55.7953C29.5496 55.8186 29.6623 55.878 29.7634 55.9735L29.9623 56.1608C30.0499 56.2411 30.1092 56.3124 30.1402 56.3749C30.1755 56.4362 30.1996 56.4911 30.2126 56.5395C30.2776 56.7816 30.2321 57.025 30.0761 57.2698C29.92 57.5146 29.7007 57.7434 29.418 57.9561C29.1354 58.1688 28.8335 58.3537 28.5123 58.5107C28.1955 58.6665 27.9073 58.7793 27.6476 58.849ZM34.7739 56.9428C34.0476 57.1378 33.3544 57.1658 32.6943 57.0269C32.0329 56.8836 31.4578 56.578 30.9688 56.11C30.4786 55.6376 30.1278 55.0075 29.9162 54.2196C29.6645 53.2821 29.6196 52.4731 29.7814 51.7927C29.9475 51.111 30.2817 50.5542 30.7838 50.1221C31.2892 49.6844 31.9204 49.3639 32.6774 49.1607C33.2408 49.0094 33.768 48.9694 34.2589 49.0404C34.7543 49.1104 35.1765 49.2943 35.5254 49.5922C35.8788 49.889 36.1258 50.2993 36.2664 50.8231C36.4117 51.3644 36.3781 51.8454 36.1654 52.2658C35.9515 52.6818 35.6231 53.0319 35.1803 53.3159C34.7419 53.5988 34.2498 53.8135 33.7041 53.96C33.4488 54.0285 33.1916 54.0811 32.9324 54.1176C32.6765 54.1486 32.4392 54.1698 32.2205 54.1814C32.005 54.1873 31.8309 54.1892 31.6983 54.1871L31.9586 53.7067C31.9714 53.8071 31.9803 53.8754 31.9853 53.9118C31.9892 53.9438 32.0018 53.9994 32.023 54.0787C32.1554 54.5716 32.4322 54.9173 32.8535 55.1156C33.2792 55.3127 33.8002 55.3286 34.4164 55.1631C34.7333 55.078 35.0081 54.9594 35.241 54.8073C35.4738 54.6551 35.6701 54.4986 35.8298 54.3377C35.9373 54.2286 36.0304 54.1447 36.109 54.0858C36.1908 54.0214 36.2735 53.978 36.3571 53.9555C36.4628 53.9272 36.5529 53.9289 36.6275 53.9608C36.7065 53.9915 36.7799 54.0449 36.8475 54.1211L37.1943 54.5164C37.2405 54.5654 37.2733 54.6085 37.2927 54.6457C37.311 54.6786 37.3284 54.7258 37.3449 54.7874C37.3768 54.9062 37.332 55.0646 37.2105 55.2623C37.089 55.4601 36.9091 55.6688 36.6708 55.8885C36.4325 56.1082 36.1503 56.3137 35.8242 56.5051C35.5025 56.6953 35.1524 56.8412 34.7739 56.9428ZM32.9613 52.4324C33.4234 52.3083 33.7658 52.1598 33.9883 51.9868C34.214 51.8082 34.2938 51.5957 34.2276 51.3492C34.165 51.1159 34.0387 50.9705 33.8486 50.913C33.6574 50.8511 33.3946 50.8651 33.06 50.9549C32.7916 51.027 32.5529 51.1311 32.3441 51.2674C32.1342 51.3993 31.973 51.5723 31.8606 51.7865C31.7515 51.9951 31.7057 52.2552 31.7233 52.5666C31.814 52.5705 31.9251 52.5714 32.0566 52.5691C32.1869 52.5624 32.3299 52.55 32.4854 52.5318C32.6398 52.5093 32.7984 52.4761 32.9613 52.4324ZM42.9357 54.7515C42.4559 54.8803 41.975 54.908 41.4928 54.8346C41.0095 54.7567 40.5812 54.5674 40.2078 54.2665C39.8377 53.9601 39.5794 53.534 39.4329 52.9882C39.31 52.5304 39.299 52.1205 39.4 51.7584C39.5009 51.3962 39.6668 51.0827 39.8977 50.8178C40.1274 50.5485 40.4011 50.3288 40.7187 50.1586C41.0396 49.9828 41.3651 49.8505 41.6952 49.7619C41.9636 49.6898 42.2768 49.6435 42.6346 49.6229C42.9924 49.6024 43.3642 49.6512 43.7498 49.7695C44.1387 49.8821 44.5107 50.1078 44.8659 50.4466L43.7569 50.8505C43.7652 50.6878 43.7565 50.5061 43.7309 50.3054C43.7041 50.1002 43.6689 49.9162 43.6252 49.7534C43.4798 49.212 43.231 48.8565 42.8787 48.6868C42.5265 48.5171 42.0841 48.5038 41.5515 48.6468C41.2214 48.7354 40.9563 48.8467 40.7563 48.9806C40.5552 49.1101 40.3794 49.2375 40.229 49.3628C40.1288 49.4464 40.0536 49.509 40.0034 49.5508C39.9565 49.587 39.8957 49.6151 39.8208 49.6352C39.6712 49.6754 39.5427 49.6627 39.4355 49.5971C39.3282 49.5315 39.2284 49.4498 39.1361 49.3519C39.029 49.2344 38.9453 49.1247 38.885 49.0229C38.8234 48.9168 38.785 48.8351 38.7696 48.7779C38.7389 48.6634 38.7588 48.5354 38.8293 48.3938C38.8998 48.2522 39.0035 48.1111 39.1403 47.9705C39.3848 47.7209 39.7048 47.4981 40.1005 47.3022C40.4962 47.1063 40.8877 46.9564 41.275 46.8524C41.5435 46.7803 41.8113 46.732 42.0784 46.7075C42.3499 46.6818 42.6208 46.6893 42.8913 46.7299C43.5197 46.8207 44.0491 47.0702 44.4795 47.4784C44.91 47.8866 45.215 48.4252 45.3947 49.0943C45.4561 49.3231 45.5035 49.5699 45.5368 49.8347C45.5702 50.0994 45.5962 50.3897 45.6149 50.7055C45.7882 50.9469 45.9575 51.2081 46.1226 51.4894C46.2878 51.7706 46.4322 52.0362 46.556 52.2861C46.6797 52.536 46.7628 52.7402 46.8054 52.8986C46.8408 53.0307 46.8432 53.1716 46.8127 53.3214C46.7821 53.4711 46.648 53.5779 46.4103 53.6417L45.8491 53.7924C45.5938 53.8609 45.4194 53.844 45.3259 53.7418C45.2312 53.6351 45.1528 53.5098 45.0906 53.3661C45.0134 53.1839 44.9404 53.0266 44.8718 52.894C44.8064 52.7558 44.7543 52.6495 44.7154 52.575C44.6753 52.4961 44.6531 52.4572 44.6487 52.4584L45.215 52.2214C45.193 52.5435 45.0937 52.8769 44.9173 53.2215C44.7441 53.5606 44.494 53.8684 44.1672 54.1449C43.8391 54.417 43.4286 54.6192 42.9357 54.7515ZM42.7495 53.0037C43.0136 52.9328 43.2323 52.8245 43.4055 52.6789C43.582 52.5277 43.7097 52.3708 43.7887 52.208C43.8709 52.0397 43.8977 51.8933 43.869 51.7688C43.8165 51.6084 43.706 51.487 43.5377 51.4048C43.3737 51.3214 43.1839 51.2733 42.9681 51.2605C42.7523 51.2476 42.541 51.269 42.3341 51.3245C42.1448 51.3753 41.9749 51.454 41.8241 51.5605C41.6778 51.6658 41.5706 51.7937 41.5025 51.9441C41.4387 52.0934 41.4322 52.2626 41.4831 52.4519C41.5528 52.7116 41.7046 52.8902 41.9384 52.9879C42.1711 53.0811 42.4414 53.0864 42.7495 53.0037ZM49.9998 52.7983C49.388 52.9626 48.8367 52.9218 48.3461 52.6761C47.8542 52.4259 47.5138 51.9487 47.3247 51.2445L46.3392 47.5737L46.0685 47.6464C45.8616 47.7019 45.6824 47.6934 45.5308 47.6209C45.3792 47.5483 45.2798 47.424 45.2325 47.248L45.1368 46.8915C45.0954 46.7374 45.1079 46.5996 45.1744 46.4779C45.244 46.3507 45.3748 46.2401 45.5666 46.1461L45.9999 45.8882L45.842 44.4301C45.8196 44.2237 45.8509 44.0502 45.9358 43.9094C46.0251 43.7675 46.1446 43.6764 46.2942 43.6363L46.8422 43.4891C47.0006 43.4466 47.1574 43.4682 47.3126 43.5539C47.4709 43.6341 47.5773 43.7754 47.6317 43.9779L47.9702 45.2389L49.4623 44.8383C49.678 44.7804 49.8707 44.8042 50.0406 44.9095C50.2104 45.0149 50.3231 45.1711 50.3787 45.3779L50.4602 45.6816C50.5158 45.8885 50.4964 46.0801 50.4022 46.2564C50.308 46.4327 50.153 46.5498 49.9373 46.6077L48.4453 47.0083L49.4166 50.6262C49.4568 50.7759 49.5148 50.8689 49.5906 50.9051C49.6708 50.9402 49.7725 50.9412 49.8957 50.9081C50.0234 50.8739 50.1564 50.798 50.2947 50.6807C50.4331 50.5633 50.5382 50.4714 50.61 50.4049C50.6894 50.3317 50.7662 50.2663 50.8404 50.2086C50.9178 50.1453 51.0027 50.1013 51.0951 50.0765C51.324 50.015 51.5248 50.0862 51.6975 50.2899L51.926 50.5612C52.0084 50.6571 52.061 50.7302 52.084 50.7807C52.1114 50.83 52.131 50.8766 52.1428 50.9206C52.2019 51.1407 52.1264 51.378 51.9164 51.6326C51.7063 51.8872 51.4246 52.1209 51.0712 52.3337C50.7222 52.5454 50.3651 52.7003 49.9998 52.7983ZM57.6542 50.7999C56.7651 51.0386 56.0161 50.9377 55.4071 50.4972C54.8013 50.0512 54.3595 49.311 54.0818 48.2766L53.1069 44.6455C53.0514 44.4386 53.0707 44.247 53.165 44.0707C53.2592 43.8944 53.4142 43.7773 53.6298 43.7194L54.3098 43.5368C54.5255 43.4789 54.7183 43.5027 54.8881 43.6081C55.058 43.7135 55.1707 43.8696 55.2262 44.0765L56.1816 47.635C56.2915 48.0443 56.4118 48.3518 56.5425 48.5574C56.6732 48.7629 56.8186 48.8914 56.9787 48.9428C57.1387 48.9942 57.3178 48.9933 57.5159 48.9401C57.8152 48.8598 58.0758 48.7143 58.2976 48.5037C58.5227 48.2876 58.686 48.0432 58.7874 47.7706C58.892 47.4925 58.9088 47.2213 58.8379 46.9572L57.8737 43.3657C57.8181 43.1588 57.8375 42.9672 57.9317 42.7909C58.0259 42.6146 58.1809 42.4975 58.3966 42.4396L59.0766 42.2571C59.2923 42.1992 59.485 42.2229 59.6549 42.3283C59.8247 42.4337 59.9374 42.5898 59.993 42.7967L61.0051 46.5665C61.1233 47.0066 61.2403 47.381 61.3562 47.6897C61.4721 47.9983 61.5746 48.2397 61.6639 48.4139C61.6936 48.472 61.7343 48.5531 61.7858 48.6572C61.8374 48.7614 61.8744 48.8553 61.8968 48.9389C61.9394 49.0973 61.918 49.2375 61.8328 49.3595C61.7508 49.4759 61.6152 49.5595 61.4259 49.6103L60.9638 49.7344C60.7657 49.7876 60.6098 49.787 60.4961 49.7325C60.3824 49.6781 60.2884 49.609 60.214 49.5252C60.179 49.4827 60.1197 49.4113 60.0361 49.311C59.9558 49.2052 59.8793 49.096 59.8066 48.9834C59.5972 49.469 59.3083 49.8603 58.9398 50.1575C58.5713 50.4546 58.1428 50.6687 57.6542 50.7999ZM63.9223 48.9401C63.7155 48.9956 63.5239 48.9763 63.3476 48.882C63.1713 48.7878 63.0542 48.6329 62.9963 48.4172L61.8689 44.2182C61.7957 43.9454 61.7161 43.693 61.6303 43.4613C61.5489 43.2283 61.4789 43.0466 61.4202 42.916C61.3592 42.7767 61.3093 42.6698 61.2704 42.5953C61.2304 42.5164 61.2044 42.4549 61.1926 42.4109C61.13 42.1776 61.1571 41.9887 61.274 41.844C61.3897 41.695 61.5422 41.5951 61.7314 41.5443L62.0879 41.4486C62.2772 41.3978 62.4359 41.4 62.564 41.4552C62.6953 41.5049 62.8132 41.6101 62.9177 41.7708C62.9948 41.8822 63.0625 41.9938 63.1208 42.1056C63.1779 42.2129 63.236 42.3413 63.2949 42.4906C63.3041 42.507 63.313 42.514 63.3218 42.5117C63.3338 42.5037 63.3403 42.4926 63.3411 42.4782C63.3365 42.1444 63.385 41.8506 63.4867 41.5968C63.5873 41.3386 63.735 41.1243 63.9299 40.954C64.1281 40.7781 64.3702 40.6518 64.6563 40.575C64.8412 40.5254 65.0467 40.4914 65.273 40.4731C65.5038 40.4536 65.7075 40.4744 65.8843 40.5355C66.0612 40.5965 66.1612 40.723 66.1844 40.915L66.3236 41.9606C66.3426 42.1017 66.3126 42.2183 66.2335 42.3103C66.1576 42.3968 66.0558 42.4571 65.9282 42.4914C65.7653 42.5351 65.6048 42.5523 65.4465 42.5429C65.2915 42.5279 65.1106 42.5481 64.9037 42.6037C64.7452 42.6462 64.6102 42.732 64.4986 42.8611C64.3902 42.9845 64.3044 43.1397 64.2413 43.3265C64.1826 43.5121 64.1524 43.7161 64.1508 43.9383C64.1491 44.1605 64.1801 44.3905 64.244 44.6281L65.109 47.85C65.1669 48.0657 65.1431 48.2584 65.0377 48.4283C64.9323 48.5981 64.7762 48.7108 64.5693 48.7664L63.9223 48.9401ZM22.3021 73.7446C21.5054 73.9585 20.7673 73.9773 20.0877 73.8012C19.4069 73.6206 18.8245 73.2791 18.3404 72.7768C17.8564 72.2744 17.5139 71.6492 17.313 70.9009C17.1051 70.1263 17.0969 69.4018 17.2887 68.7274C17.4848 68.0519 17.8368 67.4737 18.3447 66.9929C18.8559 66.5065 19.4812 66.164 20.2206 65.9655C21.0701 65.7374 21.829 65.7082 22.4975 65.878C23.1691 66.0421 23.7348 66.3739 24.1945 66.8733C24.6542 67.3728 24.988 68.0098 25.196 68.7845C25.404 69.5591 25.4105 70.2864 25.2155 70.9664C25.025 71.6451 24.6769 72.2293 24.1714 72.7189C23.6646 73.2042 23.0415 73.546 22.3021 73.7446ZM21.8362 71.9303C22.2675 71.8145 22.5866 71.6321 22.7935 71.3831C22.9991 71.1297 23.1172 70.8314 23.1477 70.4881C23.1783 70.1449 23.1421 69.7818 23.0393 69.3989C22.9483 69.06 22.8025 68.7452 22.6018 68.4547C22.4011 68.1641 22.1431 67.9502 21.8279 67.8131C21.5171 67.6748 21.1416 67.6647 20.7015 67.7828C20.2789 67.8963 19.9628 68.0897 19.7531 68.3631C19.5477 68.6352 19.43 68.9523 19.3998 69.3144C19.3684 69.672 19.4029 70.0378 19.5033 70.412C19.5932 70.7465 19.7432 71.0506 19.9536 71.3245C20.1628 71.5939 20.4254 71.79 20.7415 71.9127C21.062 72.0343 21.4269 72.0402 21.8362 71.9303ZM29.4283 71.8384C28.865 71.9896 28.4312 71.9645 28.127 71.7631C27.826 71.556 27.5829 71.2745 27.3977 70.9184C26.9482 70.0529 26.4811 69.218 25.9962 68.4139C25.5102 67.6054 25.0048 66.795 24.48 65.9827C24.4447 65.9214 24.4133 65.8661 24.3859 65.8169C24.3618 65.762 24.3438 65.7126 24.3319 65.6686C24.287 65.5013 24.3004 65.3491 24.3721 65.2119C24.4482 65.0735 24.5941 64.9753 24.8098 64.9174L25.5624 64.7153C25.6768 64.6846 25.8239 64.6876 26.0036 64.7243C26.1866 64.7554 26.3487 64.8935 26.49 65.1387C26.7668 65.6071 27.0341 66.0756 27.2921 66.5442C27.5489 67.0085 27.8036 67.4828 28.0563 67.967C28.309 68.4513 28.5682 68.9597 28.8339 69.4924C28.8819 69.5833 28.9196 69.6534 28.947 69.7027C28.9776 69.7463 29.0127 69.7629 29.0523 69.7522C29.0875 69.7428 29.1122 69.7031 29.1265 69.6332C29.1452 69.5621 29.1623 69.4679 29.178 69.3504C29.22 69.0324 29.247 68.676 29.259 68.2811C29.2741 67.8807 29.2792 67.4688 29.274 67.0455C29.2689 66.6222 29.2557 66.2129 29.2345 65.8175C29.2165 65.4165 29.1932 65.0571 29.1644 64.7392C29.1363 64.3881 29.1878 64.1407 29.3191 63.997C29.4492 63.8488 29.6837 63.7292 30.0226 63.6382C30.1766 63.5968 30.3598 63.576 30.572 63.5756C30.7831 63.5709 30.9894 63.7066 31.1909 63.9828C31.4513 64.3375 31.7225 64.7413 32.0045 65.1941C32.2854 65.6425 32.5717 66.1201 32.8634 66.6268C33.1596 67.1324 33.4521 67.6508 33.741 68.182C33.7843 68.2553 33.8224 68.3182 33.8554 68.3707C33.8928 68.422 33.9313 68.4423 33.9709 68.4317C34.0105 68.4211 34.0352 68.3814 34.0451 68.3127C34.0593 68.2428 34.0721 68.1497 34.0834 68.0334C34.1316 67.5628 34.1532 67.0544 34.1482 66.5084C34.1463 65.9568 34.1184 65.3957 34.0643 64.8251C34.009 64.2501 33.9259 63.6944 33.8149 63.158C33.7776 62.984 33.7936 62.8239 33.8629 62.6779C33.9367 62.5307 34.0814 62.4282 34.297 62.3703L35.0299 62.1735C35.2323 62.1192 35.4034 62.1322 35.5429 62.2127C35.6813 62.2888 35.7771 62.4259 35.8303 62.624C35.874 62.7868 35.9174 63.0276 35.9605 63.3463C36.0036 63.6651 36.0416 64.0088 36.0746 64.3774C36.1075 64.7461 36.1301 65.0939 36.1424 65.4209C36.156 65.8231 36.1491 66.2543 36.1217 66.7147C36.0931 67.1706 36.0319 67.6282 35.9382 68.0875C35.8444 68.5468 35.705 68.9853 35.5199 69.4031C35.3742 69.7395 35.2106 69.991 35.0288 70.1578C34.8471 70.3246 34.6044 70.4487 34.3007 70.5302C33.8034 70.6638 33.4279 70.6537 33.1743 70.5C32.9195 70.3419 32.6705 70.0384 32.4272 69.5893C32.2844 69.321 32.1195 69.0231 31.9325 68.6958C31.7488 68.3629 31.5698 68.0477 31.3955 67.75C31.2244 67.4467 31.0876 67.2098 30.9852 67.0391C30.9988 67.2478 31.0076 67.4389 31.0117 67.6124C31.0146 67.7815 31.0168 67.939 31.0182 68.0849C31.0175 68.3634 31.0089 68.63 30.9923 68.8846C30.9757 69.1391 30.9433 69.405 30.895 69.6822C30.8275 70.0636 30.7455 70.3995 30.6488 70.6897C30.5565 70.9787 30.4181 71.2188 30.2334 71.4099C30.0488 71.601 29.7805 71.7438 29.4283 71.8384ZM39.1626 69.048C38.9469 69.1059 38.7541 69.0821 38.5843 68.9767C38.4144 68.8713 38.3017 68.7152 38.2462 68.5083L37.2323 64.7319C37.0858 64.1862 36.9587 63.7744 36.8511 63.4965C36.7434 63.2187 36.6546 63.0019 36.5844 62.8462C36.55 62.7705 36.5224 62.7118 36.5018 62.6702C36.4844 62.6229 36.4698 62.5773 36.458 62.5333C36.3918 62.2868 36.4172 62.0913 36.534 61.9466C36.6497 61.7976 36.8022 61.6977 36.9915 61.6469L37.348 61.5511C37.5153 61.5062 37.67 61.5025 37.8121 61.5398C37.9575 61.5715 38.0926 61.6532 38.2176 61.7848C38.2559 61.8217 38.3044 61.8795 38.3632 61.9581C38.4209 62.0322 38.493 62.1426 38.5796 62.2893C38.7854 61.7905 39.0621 61.3976 39.4098 61.1108C39.7563 60.8196 40.176 60.6078 40.669 60.4755C41.3336 60.2971 41.8924 60.2957 42.3454 60.4713C42.8027 60.6458 43.1755 60.9445 43.4636 61.3673C43.7505 61.7857 43.969 62.2744 44.1191 62.8334L45.1454 66.656C45.201 66.8629 45.1816 67.0545 45.0874 67.2308C44.9932 67.4071 44.8382 67.5242 44.6225 67.5821L43.9491 67.7629C43.7334 67.8208 43.5407 67.797 43.3708 67.6916C43.201 67.5862 43.0883 67.4301 43.0327 67.2233L42.0047 63.394C41.7778 62.5489 41.3364 62.2144 40.6806 62.3905C40.4209 62.4602 40.1791 62.6054 39.9552 62.8259C39.7345 63.0409 39.572 63.2969 39.4677 63.5938C39.3634 63.8908 39.3532 64.1955 39.4371 64.508L40.3589 67.9411C40.4144 68.148 40.3951 68.3396 40.3008 68.5159C40.2066 68.6922 40.0517 68.8093 39.836 68.8672L39.1626 69.048ZM49.4437 66.2877C49.2368 66.3432 49.0452 66.3239 48.8689 66.2297C48.6926 66.1354 48.5755 65.9805 48.5176 65.7648L47.3903 61.5659C47.317 61.293 47.2375 61.0406 47.1517 60.8089C47.0702 60.5759 47.0002 60.3942 46.9416 60.2637C46.8806 60.1243 46.8306 60.0174 46.7918 59.9429C46.7517 59.864 46.7258 59.8025 46.714 59.7585C46.6513 59.5252 46.6784 59.3363 46.7953 59.1917C46.911 59.0426 47.0635 58.9427 47.2528 58.8919L47.6093 58.7962C47.7986 58.7454 47.9572 58.7476 48.0853 58.8029C48.2166 58.8525 48.3345 58.9577 48.439 59.1184C48.5161 59.2299 48.5838 59.3414 48.6421 59.4532C48.6993 59.5605 48.7573 59.6889 48.8163 59.8382C48.8254 59.8546 48.8344 59.8616 48.8432 59.8593C48.8552 59.8513 48.8616 59.8402 48.8625 59.8258C48.8578 59.492 48.9063 59.1982 49.0081 58.9444C49.1086 58.6862 49.2564 58.4719 49.4513 58.3016C49.6494 58.1258 49.8916 57.9994 50.1777 57.9226C50.3625 57.873 50.5681 57.839 50.7944 57.8207C51.0251 57.8012 51.2289 57.822 51.4057 57.8831C51.5825 57.9441 51.6826 58.0706 51.7058 58.2626L51.8449 59.3082C51.864 59.4493 51.8339 59.5659 51.7548 59.658C51.6789 59.7444 51.5772 59.8047 51.4495 59.839C51.2867 59.8827 51.1261 59.8999 50.9679 59.8905C50.8129 59.8755 50.6319 59.8957 50.425 59.9513C50.2666 59.9938 50.1315 60.0796 50.0199 60.2087C49.9115 60.3322 49.8258 60.4873 49.7627 60.6741C49.704 60.8597 49.6738 61.0637 49.6721 61.2859C49.6704 61.5081 49.7015 61.7381 49.7653 61.9758L50.6303 65.1976C50.6882 65.4133 50.6645 65.606 50.5591 65.7759C50.4537 65.9458 50.2976 66.0584 50.0907 66.114L49.4437 66.2877ZM55.5552 64.7672C55.049 64.9031 54.5999 64.8562 54.2079 64.6264C53.8191 64.391 53.5196 63.8816 53.3092 63.0982L52.0454 58.3908C51.9899 58.184 52.0092 57.9924 52.1034 57.8161C52.1977 57.6398 52.3526 57.5227 52.5683 57.4648L53.2153 57.2911C53.431 57.2332 53.6237 57.2569 53.7936 57.3623C53.9634 57.4677 54.0761 57.6238 54.1317 57.8307L55.4132 62.604C55.4345 62.6833 55.4629 62.7276 55.4984 62.7369C55.5384 62.745 55.5802 62.7338 55.6239 62.7032C55.6884 62.6623 55.7539 62.6164 55.8205 62.5655C55.8859 62.5102 55.9538 62.4731 56.0242 62.4542C56.1078 62.4317 56.1957 62.4341 56.288 62.4612C56.3834 62.4828 56.4741 62.5481 56.56 62.6572L56.8702 63.0481C56.9549 63.1527 57.0091 63.2491 57.0327 63.3371C57.0753 63.4956 57.0433 63.6575 56.9367 63.823C56.7581 64.1069 56.5346 64.3202 56.2662 64.463C55.9991 64.6103 55.762 64.7117 55.5552 64.7672ZM52.6686 56.362C52.3033 56.4601 51.9583 56.4229 51.6336 56.2506C51.3133 56.077 51.1047 55.8098 51.0078 55.4489C50.9121 55.0924 50.96 54.761 51.1515 54.4548C51.3461 54.143 51.6262 53.9381 51.9915 53.84C52.3524 53.7431 52.693 53.7814 53.0133 53.9549C53.3324 54.1241 53.5398 54.3869 53.6355 54.7434C53.7324 55.1043 53.6857 55.4401 53.4954 55.7507C53.3051 56.0613 53.0295 56.2651 52.6686 56.362ZM60.1058 63.6021C59.7185 63.7061 59.3164 63.755 58.8995 63.749C58.4882 63.7462 58.1124 63.6819 57.7719 63.5563C57.5616 63.4759 57.4004 63.3941 57.2884 63.3109C57.1753 63.2234 57.1045 63.1267 57.0761 63.0211C57.0501 62.9243 57.0445 62.8243 57.0593 62.7213C57.073 62.6138 57.1086 62.4391 57.1663 62.1971C57.2118 62.015 57.2565 61.8827 57.3004 61.8001C57.3487 61.7164 57.4279 61.6597 57.5379 61.6302C57.6435 61.6018 57.7618 61.6031 57.8928 61.634C58.0282 61.6637 58.1759 61.7042 58.336 61.7556C58.546 61.8172 58.7761 61.8569 59.0262 61.8747C59.2752 61.8881 59.5141 61.864 59.743 61.8026C60.0335 61.7246 60.2467 61.6225 60.3827 61.4963C60.5175 61.3658 60.559 61.2036 60.507 61.01C60.4762 60.8955 60.42 60.8092 60.3383 60.7509C60.2554 60.6882 60.1441 60.6426 60.0043 60.6141C59.8645 60.5856 59.6889 60.5643 59.4775 60.5502C59.2706 60.535 59.0248 60.5161 58.7403 60.4934C58.2632 60.4563 57.8427 60.3663 57.4787 60.2234C57.1192 60.0793 56.8206 59.881 56.5829 59.6287C56.3441 59.3719 56.1763 59.0631 56.0794 58.7022C55.9459 58.2048 55.9762 57.7555 56.1705 57.3541C56.3647 56.9528 56.6606 56.6138 57.0582 56.3372C57.4546 56.0562 57.8905 55.8518 58.3659 55.7242C58.7312 55.6261 59.0989 55.5722 59.4691 55.5625C59.8437 55.5516 60.1709 55.5841 60.4508 55.6599C60.7706 55.7439 60.9642 55.9114 61.0316 56.1622C61.0611 56.2723 61.0644 56.3988 61.0415 56.5418C61.0185 56.6848 60.9963 56.804 60.9747 56.8995C60.9336 57.0804 60.8763 57.2185 60.8028 57.3137C60.7325 57.4033 60.6445 57.4624 60.5389 57.4907C60.4553 57.5132 60.3675 57.5202 60.2756 57.5119C60.1837 57.5035 60.0884 57.4913 59.9897 57.4754C59.8268 57.4483 59.6518 57.4292 59.4648 57.4181C59.2777 57.407 59.0698 57.4321 58.8409 57.4936C58.5856 57.5621 58.4064 57.6504 58.3033 57.7583C58.2033 57.8606 58.1705 57.9756 58.2048 58.1032C58.2438 58.2485 58.3303 58.3597 58.4643 58.437C58.6015 58.5087 58.7809 58.562 59.0026 58.5968C59.2243 58.6317 59.4774 58.6604 59.7619 58.6832C60.2722 58.7207 60.7152 58.7976 61.0908 58.9138C61.4665 59.03 61.7752 59.2043 62.0169 59.4367C62.2586 59.6691 62.432 59.9812 62.5372 60.3729C62.6471 60.7822 62.641 61.1991 62.519 61.6235C62.3971 62.0479 62.1407 62.4376 61.75 62.7926C61.3581 63.1432 60.81 63.413 60.1058 63.6021ZM69.2856 61.0667C68.9159 61.1659 68.5683 61.172 68.2429 61.0847C67.9175 60.9975 67.6028 60.8272 67.2989 60.5738C67.208 60.4991 67.0991 60.4009 66.9721 60.2793C66.845 60.1577 66.7146 60.0323 66.5808 59.903C66.4459 59.7694 66.3205 59.645 66.2046 59.5298C66.0931 59.4135 66.0026 59.3222 65.9329 59.256C65.8461 59.4774 65.7628 59.7121 65.6831 59.96C65.6078 60.2068 65.5478 60.4493 65.5033 60.6878C65.4588 60.9262 65.4362 61.1494 65.4353 61.3572C65.4377 61.5595 65.4025 61.727 65.3296 61.8598C65.26 61.9871 65.1327 62.0755 64.9479 62.1251L64.6177 62.2138C64.4021 62.2717 64.2093 62.2479 64.0395 62.1425C63.8696 62.0371 63.7569 61.881 63.7014 61.6741L60.9504 51.4276C60.8948 51.2208 60.9142 51.0292 61.0084 50.8529C61.1026 50.6766 61.2576 50.5595 61.4733 50.5016L62.1401 50.3225C62.3557 50.2646 62.5485 50.2884 62.7184 50.3938C62.8882 50.4992 63.0009 50.6553 63.0565 50.8622L64.1944 55.1007C64.2842 55.4353 64.3556 55.7889 64.4085 56.1616C64.4614 56.5343 64.5023 56.889 64.5314 57.2257C64.5604 57.5624 64.5825 57.8466 64.5975 58.0785C64.6114 58.306 64.6237 58.4396 64.6343 58.4792C64.6461 58.5232 64.6719 58.5399 64.7115 58.5293C64.7467 58.5198 64.7716 58.4895 64.7862 58.4384C64.804 58.3817 64.8212 58.3228 64.8378 58.2618C64.9685 57.7642 65.0948 57.3033 65.2168 56.8789C65.342 56.4489 65.5039 55.9973 65.7024 55.524C65.8998 55.0463 66.1714 54.485 66.5173 53.8401C66.5922 53.6973 66.6778 53.5941 66.7739 53.5305C66.8689 53.4625 66.956 53.4179 67.0353 53.3967C67.2465 53.3399 67.4628 53.381 67.6841 53.5197L68.0579 53.752C68.1552 53.8156 68.2448 53.8859 68.3269 53.963C68.4089 54.04 68.4647 54.1336 68.4942 54.2436C68.5273 54.3668 68.5189 54.4847 68.4689 54.5972C68.4221 54.7042 68.3761 54.7967 68.3311 54.8749C68.1613 55.1564 68 55.4168 67.8471 55.656C67.6987 55.894 67.5452 56.157 67.3865 56.445C67.2311 56.7274 67.0505 57.0826 66.8445 57.5107C67.1491 57.8016 67.4183 58.0573 67.6521 58.2777C67.8891 58.4925 68.0928 58.6713 68.2633 58.8143C68.4326 58.9529 68.5753 59.0538 68.6914 59.117C68.8119 59.179 68.9073 59.2006 68.9777 59.1817C69.0349 59.1663 69.1188 59.1273 69.2294 59.0645C69.3432 58.9962 69.4397 58.9515 69.5189 58.9302C69.6069 58.9066 69.7005 58.9121 69.7994 58.9469C69.8984 58.9817 69.9691 59.0429 70.0116 59.1306L70.2484 59.5908C70.2769 59.6445 70.2987 59.6905 70.3138 59.7289C70.3288 59.7674 70.3405 59.802 70.3487 59.8328C70.4185 60.0925 70.3547 60.3385 70.1576 60.5707C69.9636 60.7974 69.673 60.9627 69.2856 61.0667Z" fill="#010406"/>
</svg>