<svg preserveAspectRatio="none" width="100%" height="100%" overflow="visible" style="display: block;" viewBox="0 0 40 40" fill="none" xmlns="http://www.w3.org/2000/svg">
<g id="Frame 2147210496">
<rect width="40" height="40" rx="20" fill="var(--fill-0, #3F3833)" fill-opacity="0.2"/>
<path id="Vector" d="M27.74 13.8803C27.7393 13.7584 27.7455 13.6364 27.7585 13.5152C27.7819 13.2793 27.8188 13.0311 27.8587 12.7604C27.8827 12.6031 27.9067 12.4366 27.9307 12.2609C27.9852 11.8537 28.0465 11.3307 27.9774 10.9296C27.9453 10.7399 27.849 10.3614 27.5007 10.1399C27.1212 9.89992 26.733 10.0189 26.5132 10.1266C25.9819 10.3871 25.3544 10.6763 24.7706 10.8702C24.4787 10.9666 24.2151 11.0343 23.9923 11.063C23.7607 11.0937 23.6206 11.0794 23.5505 11.0578C22.5971 10.7604 21.5648 10.5994 20.4867 10.5994C19.5508 10.5994 18.6479 10.7214 17.8034 10.9481C17.42 11.0507 17.0143 10.9994 16.5288 10.8302C16.1799 10.6999 15.8376 10.5506 15.5033 10.383C15.3275 10.2975 15.1388 10.2086 14.9371 10.1163C14.6598 9.99222 14.3046 9.94402 13.9631 10.1389C13.6576 10.3132 13.5039 10.6076 13.4251 10.8178C13.2685 11.2301 13.2305 11.7706 13.2169 12.2076C13.2091 12.4691 13.2091 12.7819 13.2081 13.0588C13.2081 13.2352 13.2081 13.3973 13.2062 13.5224C13.2029 13.7091 13.1955 13.8489 13.1838 13.9419V13.947C12.4249 14.9726 11.9735 16.1911 11.9735 17.51C11.9735 19.4761 12.9756 21.4104 14.5459 22.6494C15.3136 23.2545 16.2097 23.6904 17.1816 23.9765C16.9621 24.3932 16.8444 24.8609 16.8392 25.3375V26.2175H15.5374C15.1998 26.2175 14.758 25.9355 14.2764 25.3796C13.8269 24.8606 13.4845 24.2699 13.3268 23.9971C12.9892 23.4104 12.457 23.0801 11.8188 22.9981C11.6265 22.9733 11.4328 23.0301 11.2803 23.1559C11.1278 23.2817 11.0289 23.4662 11.0054 23.6689C10.9819 23.8715 11.0358 24.0757 11.1551 24.2365C11.2744 24.3973 11.4495 24.5015 11.6417 24.5263C11.8781 24.556 11.9949 24.6493 12.0795 24.796L12.0815 24.8001C12.243 25.0791 12.6467 25.7806 13.1984 26.4165C13.7189 27.0185 14.5362 27.7559 15.5374 27.7559H16.8382L16.8392 29.2308C16.8392 29.6554 17.1661 30 17.5689 30H23.8901C24.0833 29.9995 24.2684 29.9182 24.4048 29.774C24.5412 29.6298 24.6179 29.4344 24.6179 29.2308V25.3693C24.6179 24.8647 24.4797 24.3611 24.2404 23.8637C25.1024 23.5817 25.9021 23.1837 26.5793 22.6494C28.1847 21.3827 29 19.43 29 17.51C29 16.1613 28.5281 14.9193 27.74 13.8803Z" fill="var(--fill-0, #3F3833)"/>
</g>
</svg>
