<svg preserveAspectRatio="none" width="100%" height="100%" overflow="visible" style="display: block;" viewBox="0 0 18 18" fill="none" xmlns="http://www.w3.org/2000/svg">
<g id="streamline:web-remix" clip-path="url(#clip0_0_9)">
<path id="Vector" fill-rule="evenodd" clip-rule="evenodd" d="M7.29868 1.80386C5.8126 2.1569 4.47203 2.96082 3.46066 4.10546C2.44929 5.2501 1.81659 6.67947 1.64925 8.19771H5.10268C5.33796 5.922 6.09139 3.73629 7.29868 1.80386ZM10.7007 1.80386C11.9124 3.73896 12.6637 5.92643 12.8967 8.19771H16.3501C16.1828 6.67947 15.5501 5.2501 14.5387 4.10546C13.5273 2.96082 12.1868 2.1569 10.7007 1.80386ZM11.2792 8.19771C11.0266 6.02296 10.2438 3.94351 8.99968 2.142C7.75551 3.94351 6.97274 6.02296 6.72011 8.19771H11.2792ZM6.72011 9.80486H11.2792C11.0266 11.9796 10.2438 14.0591 8.99968 15.8606C7.75551 14.0591 6.97274 11.9796 6.72011 9.80486ZM5.10268 9.80486H1.64925C1.81659 11.3231 2.44929 12.7525 3.46066 13.8971C4.47203 15.0418 5.8126 15.8457 7.29868 16.1987C6.08692 14.2636 5.33562 12.0761 5.10268 9.80486ZM10.7007 16.1987C11.9124 14.2636 12.6637 12.0761 12.8967 9.80486H16.3501C16.1828 11.3231 15.5501 12.7525 14.5387 13.8971C13.5273 15.0418 12.1868 15.8457 10.7007 16.1987ZM8.99968 18.0026C10.1817 18.0026 11.3522 17.7697 12.4443 17.3174C13.5364 16.865 14.5287 16.202 15.3645 15.3662C16.2004 14.5303 16.8634 13.538 17.3158 12.4459C17.7681 11.3538 18.001 10.1834 18.001 9.00129C18.001 7.81922 17.7681 6.64873 17.3158 5.55664C16.8634 4.46456 16.2004 3.47226 15.3645 2.63642C14.5287 1.80057 13.5364 1.13754 12.4443 0.685182C11.3522 0.232825 10.1817 -1.76142e-08 8.99968 0C6.61239 3.55734e-08 4.32288 0.948347 2.63481 2.63642C0.94674 4.32448 -0.00160698 6.614 -0.00160698 9.00129C-0.00160698 11.3886 0.94674 13.6781 2.63481 15.3662C4.32288 17.0542 6.61239 18.0026 8.99968 18.0026Z" fill="var(--fill-0, #E8FF76)"/>
</g>
<defs>
<clipPath id="clip0_0_9">
<rect width="18" height="18" fill="white"/>
</clipPath>
</defs>
</svg>
