<svg preserveAspectRatio="none" width="100%" height="100%" overflow="visible" style="display: block;" viewBox="0 0 24 24" fill="none" xmlns="http://www.w3.org/2000/svg">
<g id="mynaui:x-twitter-solid">
<path id="Vector" d="M19.57 4.48836C19.6994 4.33719 19.7635 4.14079 19.7481 3.94238C19.7327 3.74397 19.6392 3.55979 19.488 3.43036C19.3368 3.30094 19.1404 3.23687 18.942 3.25225C18.7436 3.26762 18.5594 3.36119 18.43 3.51236L13.062 9.78636L7.83801 3.84836C7.66727 3.65802 7.45794 3.50624 7.22395 3.40313C6.98997 3.30002 6.7367 3.24794 6.48101 3.25036H5.00701C4.32701 3.25036 3.74301 3.60236 3.44701 4.13536C3.28911 4.41834 3.22387 4.74368 3.26046 5.06566C3.29706 5.38763 3.43364 5.69004 3.65101 5.93036L9.93701 13.0774L4.43001 19.5124C4.36592 19.5872 4.31721 19.674 4.28665 19.7676C4.25609 19.8613 4.24428 19.9601 4.25189 20.0583C4.2595 20.1566 4.28639 20.2524 4.33103 20.3402C4.37566 20.4281 4.43715 20.5063 4.51201 20.5704C4.58686 20.6344 4.6736 20.6832 4.76728 20.7137C4.86096 20.7443 4.95975 20.7561 5.05799 20.7485C5.15624 20.7409 5.25202 20.714 5.33987 20.6693C5.42772 20.6247 5.50592 20.5632 5.57001 20.4884L10.938 14.2144L16.162 20.1524C16.507 20.5444 17.012 20.7504 17.519 20.7504H18.993C19.674 20.7504 20.257 20.3984 20.553 19.8654C20.711 19.5825 20.7764 19.2572 20.74 18.9352C20.7036 18.6133 20.5672 18.3108 20.35 18.0704L14.063 10.9244L19.57 4.48836Z" fill="var(--fill-0, #3F3833)"/>
</g>
</svg>
