<svg width="221" height="51" viewBox="0 0 221 51" fill="none" xmlns="http://www.w3.org/2000/svg">
<path d="M94.0442 44.1993C93.1021 44.3834 92.544 44.0306 92.3701 43.1407L90.9162 35.7015C90.7398 34.7986 91.1226 34.255 92.0648 34.0709C92.5359 33.9788 92.8966 34.017 93.1469 34.1855C93.3946 34.3409 93.5632 34.6475 93.6527 35.1055C93.8039 34.6277 94.0749 34.2419 94.4658 33.9481C94.8672 33.6387 95.3624 33.4264 95.9513 33.3113C97.0766 33.0914 97.7352 33.4722 97.927 34.4536C97.9986 34.82 97.9149 35.1216 97.6759 35.3585C97.437 35.5955 97.0034 35.7753 96.3753 35.898C95.7602 36.0182 95.2876 36.1718 94.9573 36.3586C94.6244 36.5323 94.4154 36.7837 94.3303 37.1128C94.2557 37.4263 94.2721 37.8578 94.3795 38.4074L95.1966 42.5883C95.3705 43.4782 94.9864 44.0152 94.0442 44.1993ZM104.834 42.0906C103.525 42.3463 102.456 42.3312 101.626 42.0451C100.809 41.7565 100.169 41.2634 99.7063 40.5658C99.257 39.8656 98.9365 39.0248 98.7447 38.0434C98.3917 36.2376 98.5377 34.8641 99.1825 33.9229C99.8247 32.9687 100.82 32.3599 102.168 32.0965C102.979 31.9379 103.725 31.9346 104.407 32.0867C105.089 32.2387 105.657 32.5354 106.11 32.9767C106.56 33.4049 106.856 33.9789 106.996 34.6986C107.406 36.7923 106.118 38.1307 103.135 38.7138L101.996 38.9363C102.18 39.3215 102.413 39.6089 102.695 39.7984C102.987 39.9722 103.44 39.9991 104.055 39.8789C104.396 39.8124 104.667 39.739 104.868 39.6589C105.07 39.5787 105.259 39.5011 105.434 39.426C105.623 39.3484 105.841 39.2853 106.09 39.2367C106.443 39.1676 106.737 39.1781 106.972 39.268C107.205 39.3449 107.358 39.573 107.432 39.9525C107.537 40.489 107.379 40.9342 106.96 41.288C106.55 41.6261 105.842 41.8937 104.834 42.0906ZM101.575 37.5106C101.652 37.3462 101.751 37.2316 101.875 37.1668C101.995 37.0889 102.193 37.0231 102.468 36.9693C103.24 36.8185 103.756 36.6429 104.016 36.4427C104.286 36.2269 104.383 35.9226 104.306 35.5301C104.209 35.0328 103.997 34.6802 103.671 34.4722C103.343 34.2511 102.969 34.1814 102.55 34.2633C102.066 34.3579 101.726 34.6349 101.531 35.0943C101.335 35.5536 101.35 36.3591 101.575 37.5106ZM113.474 40.4019C113.213 40.4531 112.928 40.4545 112.619 40.406C112.321 40.342 112.02 40.1903 111.715 39.951C111.408 39.6986 111.107 39.309 110.814 38.7821L107.491 32.7271C107.341 32.444 107.3 32.1666 107.369 31.895C107.436 31.6103 107.586 31.3703 107.82 31.1753C108.051 30.9671 108.323 30.8323 108.637 30.7709C108.925 30.7147 109.201 30.7355 109.465 30.8334C109.741 30.9287 109.955 31.118 110.105 31.401L113.299 37.5222C113.635 36.6006 113.802 35.7188 113.801 34.8768C113.81 34.0191 113.74 33.2108 113.592 32.4518C113.546 32.2163 113.494 31.9886 113.438 31.7687C113.379 31.5357 113.329 31.3145 113.288 31.1051C113.213 30.7256 113.306 30.4018 113.566 30.1336C113.84 29.8629 114.166 29.6904 114.545 29.6162C115.331 29.4628 115.855 29.7475 116.118 30.4704C116.17 30.5961 116.224 30.7689 116.281 30.9888C116.335 31.1957 116.389 31.4365 116.442 31.7113C116.529 32.1562 116.586 32.6886 116.612 33.3084C116.649 33.9126 116.616 34.578 116.513 35.3045C116.421 36.0153 116.215 36.7688 115.895 37.5649C115.612 38.2723 115.339 38.8216 115.076 39.2127C114.826 39.6012 114.568 39.8825 114.303 40.0565C114.039 40.2305 113.762 40.3457 113.474 40.4019ZM124.309 38.2844C123.001 38.5401 121.931 38.525 121.101 38.2389C120.284 37.9503 119.644 37.4572 119.182 36.7596C118.732 36.0595 118.412 35.2187 118.22 34.2372C117.867 32.4314 118.013 31.0579 118.658 30.1167C119.3 29.1625 120.295 28.5537 121.643 28.2903C122.454 28.1317 123.201 28.1284 123.883 28.2805C124.564 28.4325 125.132 28.7292 125.585 29.1705C126.035 29.5987 126.331 30.1727 126.472 30.8924C126.881 32.9861 125.594 34.3245 122.61 34.9076L121.472 35.1301C121.656 35.5153 121.888 35.8027 122.17 35.9922C122.462 36.166 122.916 36.1929 123.531 36.0727C123.871 36.0062 124.142 35.9329 124.344 35.8527C124.545 35.7725 124.734 35.6949 124.909 35.6198C125.098 35.5422 125.317 35.4791 125.565 35.4305C125.919 35.3615 126.213 35.3719 126.448 35.4618C126.68 35.5387 126.833 35.7669 126.907 36.1463C127.012 36.6829 126.855 37.128 126.435 37.4818C126.025 37.8199 125.317 38.0875 124.309 38.2844ZM121.05 33.7044C121.127 33.54 121.227 33.4254 121.35 33.3606C121.471 33.2827 121.668 33.2169 121.943 33.1632C122.715 33.0123 123.231 32.8367 123.491 32.6365C123.761 32.4207 123.858 32.1165 123.781 31.7239C123.684 31.2266 123.472 30.874 123.146 30.666C122.818 30.4449 122.444 30.3753 122.026 30.4571C121.541 30.5517 121.202 30.8287 121.006 31.2881C120.811 31.7474 120.825 32.5529 121.05 33.7044ZM130.982 36.9803C130.04 37.1644 129.482 36.8116 129.308 35.9217L127.854 28.4825C127.678 27.5796 128.061 27.036 129.003 26.8519C129.474 26.7598 129.834 26.798 130.085 26.9665C130.332 27.1218 130.501 27.4285 130.591 27.8865C130.742 27.4087 131.013 27.0228 131.404 26.7291C131.805 26.4197 132.3 26.2074 132.889 26.0923C134.015 25.8724 134.673 26.2531 134.865 27.2346C134.937 27.601 134.853 27.9026 134.614 28.1395C134.375 28.3764 133.941 28.5563 133.313 28.679C132.698 28.7992 132.225 28.9527 131.895 29.1396C131.562 29.3133 131.353 29.5647 131.268 29.8938C131.194 30.2073 131.21 30.6388 131.317 31.1884L132.135 35.3693C132.308 36.2592 131.924 36.7961 130.982 36.9803ZM142.133 34.801C140.916 35.0388 139.957 34.9274 139.255 34.4667C138.567 34.0035 138.107 33.1765 137.874 31.9857L137.076 27.9029L136.566 28.0026C135.676 28.1765 135.153 27.8644 134.997 27.0662C134.843 26.281 135.212 25.8015 136.101 25.6276L136.612 25.5278L136.197 23.4079C136.113 22.9761 136.175 22.5972 136.383 22.2713C136.604 21.9428 136.93 21.7363 137.362 21.6519C137.781 21.5701 138.14 21.6357 138.44 21.8488C138.737 22.0489 138.929 22.3714 139.016 22.8163L139.204 23.7781C139.299 24.2623 139.298 24.6767 139.203 25.0215L141.067 24.657C141.957 24.4831 142.479 24.7887 142.632 25.5739C142.788 26.3721 142.421 26.8582 141.532 27.0321L139.902 27.3505L140.712 31.4921C140.789 31.8847 140.889 32.1571 141.014 32.3093C141.136 32.4484 141.302 32.4975 141.512 32.4566C141.786 32.4029 141.985 32.3437 142.109 32.2788C142.242 32.1983 142.414 32.1377 142.623 32.0967C142.977 32.0277 143.271 32.0381 143.506 32.1281C143.738 32.2049 143.891 32.4331 143.966 32.8126C144.07 33.3491 143.978 33.7815 143.689 34.1097C143.398 34.4248 142.879 34.6552 142.133 34.801ZM153.439 32.5913C152.131 32.847 151.051 32.7455 150.201 32.2868C149.348 31.815 148.827 31.0949 148.638 30.1266C148.415 28.9881 148.732 28.0704 149.587 27.3733C150.456 26.6737 151.834 26.2209 153.723 26.0147C153.514 25.4307 153.245 25.0621 152.916 24.909C152.585 24.7428 152.216 24.6994 151.811 24.7786C151.484 24.8426 151.213 24.9159 150.998 24.9986C150.794 25.0657 150.604 25.1368 150.428 25.2119C150.253 25.2869 150.034 25.35 149.772 25.4012C149.419 25.4702 149.126 25.4663 148.894 25.3895C148.659 25.2995 148.504 25.0648 148.43 24.6853C148.325 24.1488 148.477 23.7115 148.887 23.3734C149.307 23.0196 150.021 22.7442 151.028 22.5473C152.625 22.2353 153.898 22.4619 154.849 23.227C155.798 23.979 156.421 25.114 156.717 26.6319C157.06 28.3854 156.993 29.7436 156.515 30.7064C156.048 31.6535 155.023 32.2818 153.439 32.5913ZM151.464 29.5742C151.61 30.3201 152.187 30.5945 153.194 30.3976C153.521 30.3337 153.765 30.2249 153.925 30.0713C154.085 29.9178 154.17 29.6567 154.18 29.288C154.202 28.9168 154.164 28.374 154.065 27.6597C154.013 27.7379 153.936 27.8004 153.837 27.847C153.737 27.8936 153.635 27.9272 153.53 27.9476C152.667 28.1164 152.081 28.3191 151.774 28.5557C151.478 28.7767 151.375 29.1162 151.464 29.5742ZM161.019 31.1099C160.077 31.294 159.519 30.9412 159.345 30.0514L158.425 25.3405C158.179 24.0843 158.384 23.0117 159.039 22.1229C159.707 21.2316 160.702 20.6567 162.023 20.3984C163.345 20.1401 164.477 20.2994 165.418 20.8762C166.373 21.4504 166.973 22.3657 167.218 23.6219L168.139 28.3328C168.313 29.2226 167.929 29.7596 166.986 29.9437C166.044 30.1279 165.486 29.775 165.312 28.8852L164.422 24.3313C164.302 23.7163 164.074 23.2786 163.738 23.0182C163.399 22.7448 162.981 22.6567 162.484 22.7539C161.987 22.851 161.632 23.0901 161.422 23.4709C161.208 23.8387 161.162 24.3301 161.282 24.9451L162.172 29.499C162.346 30.3888 161.962 30.9258 161.019 31.1099ZM172.788 33.3339C170.969 33.6894 169.957 33.3437 169.753 32.2968C169.679 31.9173 169.733 31.6417 169.917 31.4699C170.104 31.3112 170.373 31.1974 170.727 31.1283C171.093 31.0567 171.419 31.0202 171.704 31.0188C171.991 31.0306 172.305 31.0032 172.646 30.9367C173.025 30.8625 173.284 30.7643 173.423 30.642C173.563 30.5197 173.608 30.3343 173.559 30.0856C173.529 29.9286 173.456 29.7322 173.342 29.4963C173.228 29.2605 173.026 28.9196 172.735 28.4738C172.457 28.0255 172.058 27.4105 171.539 26.629L167.923 21.161C167.806 20.9801 167.726 20.7784 167.682 20.5559C167.595 20.111 167.696 19.7585 167.985 19.4982C168.271 19.2249 168.591 19.0537 168.944 18.9847C169.272 18.9208 169.55 18.9547 169.779 19.0864C170.019 19.2025 170.211 19.3825 170.354 19.6263L174.05 25.5065C174.35 24.4017 174.509 23.4741 174.525 22.7237C174.555 21.9707 174.497 21.2958 174.354 20.699C174.266 20.3221 174.18 20.0197 174.095 19.7918C174.02 19.5483 173.97 19.3951 173.944 19.3322C173.81 18.9237 173.873 18.5853 174.133 18.3171C174.403 18.0333 174.748 17.8505 175.167 17.7686C175.546 17.6945 175.851 17.7233 176.08 17.855C176.32 17.9711 176.514 18.1642 176.662 18.4342C176.768 18.6307 176.855 18.8652 176.922 19.1374C176.999 19.394 177.054 19.6074 177.088 19.7775C177.221 20.4579 177.291 21.1643 177.298 21.8965C177.318 22.6261 177.272 23.328 177.159 24.0022C177.057 24.6607 176.881 25.2522 176.63 25.7767C176.59 25.8523 176.518 26.0024 176.412 26.2268C176.32 26.4486 176.194 26.6769 176.036 26.9115C175.876 27.1331 175.699 27.3036 175.505 27.423C175.773 27.6151 175.99 27.8919 176.156 28.2535C176.324 28.6282 176.45 29.0249 176.531 29.4436C176.705 30.3335 176.5 31.1275 175.917 31.8257C175.349 32.5345 174.306 33.0372 172.788 33.3339ZM184.898 26.4431C183.681 26.681 182.722 26.5696 182.021 26.1089C181.332 25.6456 180.872 24.8186 180.639 23.6278L179.841 19.545L179.331 19.6448C178.441 19.8187 177.918 19.5065 177.762 18.7083C177.609 17.9231 177.977 17.4436 178.867 17.2697L179.377 17.17L178.963 15.0501C178.878 14.6182 178.94 14.2393 179.148 13.9134C179.369 13.5849 179.696 13.3784 180.127 13.294C180.546 13.2122 180.905 13.2778 181.205 13.491C181.502 13.691 181.694 14.0135 181.781 14.4584L181.969 15.4202C182.064 15.9044 182.064 16.3188 181.968 16.6636L183.833 16.2992C184.722 16.1252 185.244 16.4309 185.397 17.216C185.553 18.0142 185.187 18.5003 184.297 18.6742L182.668 18.9926L183.477 23.1343C183.554 23.5268 183.655 23.7992 183.779 23.9514C183.902 24.0906 184.067 24.1397 184.277 24.0988C184.552 24.045 184.751 23.9858 184.874 23.9209C185.008 23.8405 185.179 23.7798 185.388 23.7389C185.742 23.6698 186.036 23.6803 186.271 23.7702C186.503 23.847 186.657 24.0752 186.731 24.4547C186.836 24.9912 186.743 25.4236 186.454 25.7518C186.163 26.0669 185.644 26.2974 184.898 26.4431ZM188.096 13.5503C187.612 13.6449 187.176 13.5672 186.787 13.317C186.399 13.0669 186.16 12.7129 186.07 12.2549C185.976 11.7707 186.061 11.3396 186.327 10.9616C186.593 10.5836 186.968 10.3473 187.452 10.2527C187.949 10.1555 188.385 10.2332 188.761 10.4859C189.149 10.736 189.391 11.1032 189.486 11.5874C189.575 12.0454 189.487 12.4634 189.221 12.8414C188.969 13.2168 188.594 13.4531 188.096 13.5503ZM191.562 23.7754C191.733 24.6522 191.361 25.18 190.445 25.3591C190 25.446 189.626 25.4104 189.324 25.2522C189.018 25.0808 188.822 24.7727 188.735 24.3278L187.274 16.8493C187.192 16.4306 187.233 16.083 187.396 15.8065C187.573 15.5275 187.916 15.3381 188.426 15.2383C188.937 15.1386 189.319 15.1861 189.575 15.3807C189.843 15.5727 190.019 15.8781 190.1 16.2969L191.562 23.7754ZM195.331 24.4041C194.389 24.5883 193.831 24.2354 193.657 23.3456L192.736 18.6347C192.475 17.3 192.591 16.2244 193.084 15.4081C193.59 14.5893 194.438 14.0635 195.629 13.8307C197.251 13.5136 198.464 13.8811 199.268 14.9332C199.616 13.6561 200.601 12.8589 202.224 12.5418C203.415 12.3091 204.392 12.4781 205.156 13.0489C205.932 13.6171 206.451 14.5686 206.712 15.9034L207.633 20.6142C207.807 21.5041 207.422 22.0411 206.48 22.2252C205.538 22.4093 204.98 22.0565 204.806 21.1666L203.916 16.6128C203.786 15.9454 203.581 15.4895 203.302 15.2451C203.021 14.9876 202.645 14.9049 202.174 14.997C201.232 15.1811 200.883 15.9013 201.129 17.1575L202.003 21.6329C202.177 22.5227 201.806 23.0571 200.89 23.2361C199.974 23.4152 199.429 23.0598 199.255 22.1699L198.381 17.6946C198.135 16.4384 197.541 15.9023 196.599 16.0864C195.683 16.2655 195.348 16.9831 195.594 18.2393L196.484 22.7932C196.657 23.683 196.273 24.22 195.331 24.4041ZM214.881 20.5834C213.572 20.8391 212.503 20.824 211.673 20.5379C210.855 20.2493 210.216 19.7562 209.753 19.0586C209.304 18.3584 208.983 17.5176 208.792 16.5362C208.439 14.7304 208.585 13.3569 209.229 12.4157C209.872 11.4615 210.867 10.8527 212.215 10.5893C213.026 10.4307 213.772 10.4274 214.454 10.5795C215.136 10.7315 215.703 11.0282 216.157 11.4695C216.607 11.8977 216.903 12.4717 217.043 13.1914C217.452 15.2851 216.165 16.6235 213.182 17.2066L212.043 17.4291C212.227 17.8143 212.46 18.1017 212.742 18.2912C213.034 18.465 213.487 18.4919 214.102 18.3717C214.443 18.3052 214.713 18.2318 214.915 18.1517C215.117 18.0715 215.305 17.9939 215.481 17.9188C215.67 17.8412 215.888 17.7781 216.137 17.7295C216.49 17.6604 216.784 17.6709 217.019 17.7608C217.252 17.8377 217.405 18.0658 217.479 18.4453C217.584 18.9818 217.426 19.427 217.006 19.7808C216.597 20.1189 215.889 20.3865 214.881 20.5834ZM211.622 16.0034C211.699 15.839 211.798 15.7244 211.922 15.6596C212.042 15.5817 212.24 15.5159 212.515 15.4621C213.287 15.3113 213.803 15.1357 214.062 14.9355C214.333 14.7197 214.43 14.4154 214.353 14.0229C214.256 13.5256 214.044 13.173 213.718 12.965C213.39 12.7439 213.016 12.6742 212.597 12.7561C212.113 12.8507 211.773 13.1277 211.578 13.5871C211.382 14.0464 211.397 14.8519 211.622 16.0034Z" fill="#DFECDB"/>
<path d="M46.9388 44.0791C49.3851 44.4181 52.1008 44.59 55.099 44.5527L55.1361 47.5527C52.0017 47.5917 49.135 47.4123 46.5267 47.0508L46.9388 44.0791ZM72.0882 45.585C69.13 46.1888 66.3284 46.6435 63.6791 46.9629L63.3197 43.9844C65.8832 43.6753 68.6049 43.2342 71.4886 42.6455L72.0882 45.585ZM32.9545 38.6855C33.6814 39.2839 34.505 39.859 35.4291 40.4004L35.3656 40.126C35.4549 40.1051 35.5438 40.0835 35.6322 40.0605C36.9368 39.7223 38.0547 39.2785 39.0052 38.7627L40.4369 41.3994C39.9762 41.6494 39.4896 41.8805 38.9789 42.0947C39.0273 42.1135 39.0755 42.1338 39.1244 42.1523L38.058 44.957C36.7732 44.4687 35.5898 43.9212 34.5052 43.3252C33.1785 43.496 31.8124 43.5041 30.43 43.3691L30.722 40.3828C30.987 40.4087 31.2498 40.4262 31.5101 40.4395L32.9545 38.6855ZM84.4418 42.4365C83.0529 42.8556 81.6916 43.2456 80.3578 43.6084L79.5697 40.7139C80.8767 40.3583 82.2119 39.9749 83.5755 39.5635L84.4418 42.4365ZM16.2064 33.917C18.4165 35.6436 20.7557 37.0897 23.1048 38.1797L21.8422 40.9014C19.2683 39.7071 16.735 38.1368 14.3597 36.2812L16.2064 33.917ZM28.6957 28.3301C28.2195 30.0168 28.3392 31.9706 29.2123 33.9473L26.4681 35.1592C25.3367 32.5975 25.1279 29.9282 25.8089 27.5156L28.6957 28.3301ZM45.6947 25.8389C46.9776 28.503 47.3093 31.7242 46.2884 34.7275L43.4486 33.7617C44.1949 31.5658 43.9632 29.1583 42.9916 27.1406L45.6947 25.8389ZM5.82457 21.5371C7.02535 23.9048 8.56091 26.1743 10.3334 28.2705L8.04235 30.208C6.13437 27.9515 4.46475 25.4893 3.14879 22.8945L5.82457 21.5371ZM34.1761 20.0371C35.8071 19.6664 37.3721 19.6901 38.8158 20.042L38.1048 22.957C37.1254 22.7183 36.0321 22.6922 34.8412 22.9629C33.8019 23.1991 32.891 23.5618 32.1097 24.0176L30.599 21.4268C31.659 20.8084 32.8571 20.3369 34.1761 20.0371ZM3.00817 10.043C2.9708 11.351 3.06572 12.6647 3.28063 13.9746L0.320667 14.4609C0.0766274 12.9736 -0.0340249 11.4679 0.0091433 9.95703L3.00817 10.043Z" fill="#DFECDB"/>
</svg>