<svg width="232" height="123" viewBox="0 0 232 123" fill="none" xmlns="http://www.w3.org/2000/svg">
<rect x="58.0186" y="8" width="22" height="36" fill="#FADE26"/>
<rect x="40.0186" y="54" width="80" height="24" fill="#FADE26"/>
<rect x="173.019" y="77" width="33" height="24" fill="#FADE26"/>
<mask id="path-4-outside-1_863_9437" maskUnits="userSpaceOnUse" x="-0.981445" y="51" width="215" height="68" fill="black">
<rect fill="white" x="-0.981445" y="51" width="215" height="68"/>
<path d="M16.0923 106.442C13.3642 106.442 12.0001 105.207 12.0001 102.737V70.3869C12.0001 69.0965 12.3135 68.1565 12.9402 67.5666C13.567 66.9767 14.5624 66.6818 15.9264 66.6818C18.6177 66.6818 19.9633 67.9168 19.9633 70.3869V102.737C19.9633 103.991 19.65 104.931 19.0232 105.558C18.4334 106.147 17.4564 106.442 16.0923 106.442ZM28.3495 106.442C25.6951 106.442 24.3679 105.189 24.3679 102.682V89.41C24.3679 85.8708 25.4923 83.069 27.7412 81.0045C30.0269 78.9399 33.0315 77.9077 36.755 77.9077C40.4786 77.9077 43.4648 78.9399 45.7136 81.0045C47.9994 83.069 49.1422 85.8708 49.1422 89.41V102.682C49.1422 105.189 47.815 106.442 45.1606 106.442C42.5062 106.442 41.179 105.189 41.179 102.682V89.8524C41.179 88.1197 40.7919 86.8109 40.0177 85.9261C39.2435 85.0045 38.156 84.5436 36.755 84.5436C35.3541 84.5436 34.2666 85.0045 33.4924 85.9261C32.7182 86.8109 32.3311 88.1197 32.3311 89.8524V102.682C32.3311 105.189 31.0039 106.442 28.3495 106.442ZM62.7775 106.442C55.8466 106.442 52.3811 104.912 52.3811 101.853C52.3811 100.894 52.6392 100.138 53.1553 99.5852C53.6715 99.0322 54.3535 98.7557 55.2014 98.7557C55.5701 98.7557 55.9203 98.811 56.2521 98.9216C56.6208 98.9953 57.3213 99.1981 58.3535 99.5299C58.7959 99.6774 59.3858 99.8248 60.1231 99.9723C60.8605 100.12 61.5794 100.194 62.2798 100.194C63.607 100.194 64.5471 100.028 65.1001 99.6958C65.6531 99.364 65.9296 98.811 65.9296 98.0368C65.9296 97.4101 65.7822 96.9308 65.4872 96.599C65.1923 96.2304 64.5656 95.8801 63.607 95.5483C62.6485 95.2165 61.1554 94.7557 59.1277 94.1658C57.2844 93.6497 55.7913 92.728 54.6484 91.4008C53.5424 90.0368 52.9894 88.3593 52.9894 86.3685C52.9894 83.5667 54.0033 81.4284 56.0309 79.9538C58.0586 78.4791 60.842 77.7418 64.3812 77.7418C67.0356 77.7418 69.1186 78.1104 70.6301 78.8478C72.1416 79.5851 72.8974 80.6542 72.8974 82.0552C72.8974 82.94 72.6393 83.6773 72.1232 84.2671C71.6071 84.857 70.9066 85.1519 70.0218 85.1519C69.6531 85.1519 69.2107 85.0966 68.6946 84.986C68.2153 84.8754 67.6255 84.728 66.925 84.5436C66.4089 84.3593 65.8559 84.2118 65.266 84.1012C64.713 83.9906 64.1232 83.9353 63.4964 83.9353C61.7268 83.9353 60.842 84.5621 60.842 85.8155C60.842 86.5529 61.1923 87.1796 61.8927 87.6957C62.5932 88.175 63.9388 88.7096 65.9296 89.2994C68.6577 90.1105 70.667 91.1981 71.9573 92.5621C73.2476 93.8893 73.8928 95.6589 73.8928 97.8709C73.8928 100.452 72.8974 102.535 70.9066 104.12C68.9527 105.668 66.243 106.442 62.7775 106.442ZM89.5509 106.442C86.1223 106.442 83.5785 105.631 81.9195 104.009C80.2974 102.387 79.4863 99.8986 79.4863 96.5437V85.0413H78.0485C75.5416 85.0413 74.2881 83.9169 74.2881 81.6681C74.2881 79.4561 75.5416 78.3501 78.0485 78.3501H79.4863V72.3777C79.4863 71.1611 79.855 70.1657 80.5923 69.3915C81.3665 68.6173 82.3619 68.2302 83.5785 68.2302C84.7582 68.2302 85.6983 68.5989 86.3988 69.3362C87.0992 70.0366 87.4495 71.0136 87.4495 72.2671V74.9768C87.4495 76.3408 87.2283 77.4653 86.7859 78.3501H92.0394C94.5463 78.3501 95.7998 79.4561 95.7998 81.6681C95.7998 83.9169 94.5463 85.0413 92.0394 85.0413H87.4495V96.7096C87.4495 97.8156 87.5785 98.6082 87.8366 99.0875C88.0946 99.5299 88.5186 99.7511 89.1085 99.7511C89.8827 99.7511 90.4541 99.6958 90.8228 99.5852C91.2283 99.4377 91.726 99.364 92.3159 99.364C93.3113 99.364 94.1039 99.5483 94.6938 99.917C95.2836 100.249 95.5786 100.949 95.5786 102.018C95.5786 103.53 95.0993 104.654 94.1408 105.392C93.1822 106.092 91.6523 106.442 89.5509 106.442ZM108.999 106.442C105.312 106.442 102.437 105.594 100.372 103.899C98.3078 102.166 97.2756 99.9354 97.2756 97.2073C97.2756 93.9999 98.6212 91.6773 101.312 90.2395C104.041 88.8017 108.022 88.304 113.257 88.7464C112.999 87.0506 112.465 85.9077 111.654 85.3178C110.842 84.6911 109.866 84.3777 108.723 84.3777C107.801 84.3777 107.027 84.433 106.4 84.5436C105.81 84.6174 105.257 84.7095 104.741 84.8201C104.225 84.9307 103.598 84.986 102.861 84.986C101.865 84.986 101.073 84.8201 100.483 84.4883C99.8931 84.1197 99.5982 83.4008 99.5982 82.3317C99.5982 80.8201 100.243 79.7141 101.534 79.0137C102.861 78.2763 104.944 77.9077 107.783 77.9077C112.28 77.9077 115.617 79.198 117.792 81.7787C119.967 84.3224 121.055 87.7326 121.055 92.0091C121.055 96.9493 120.151 100.599 118.345 102.959C116.575 105.281 113.46 106.442 108.999 106.442ZM105.239 97.2073C105.239 99.3087 106.658 100.359 109.497 100.359C110.419 100.359 111.137 100.194 111.654 99.8617C112.17 99.5299 112.538 98.8663 112.76 97.8709C113.018 96.8755 113.202 95.3824 113.313 93.3916C113.128 93.576 112.889 93.705 112.594 93.7787C112.299 93.8525 112.004 93.8893 111.709 93.8893C109.276 93.8893 107.58 94.129 106.621 94.6082C105.7 95.0506 105.239 95.917 105.239 97.2073ZM132.736 102.737C132.736 105.207 131.445 106.442 128.865 106.442C127.611 106.442 126.616 106.129 125.879 105.502C125.141 104.876 124.773 103.954 124.773 102.737V68.1749C124.773 66.8477 125.068 65.797 125.657 65.0228C126.284 64.2486 127.316 63.8615 128.754 63.8615C130.192 63.8615 131.206 64.2486 131.796 65.0228C132.422 65.797 132.736 66.8477 132.736 68.1749V102.737ZM146.252 102.737C146.252 105.207 144.961 106.442 142.381 106.442C141.127 106.442 140.132 106.129 139.395 105.502C138.657 104.876 138.289 103.954 138.289 102.737V68.1749C138.289 66.8477 138.584 65.797 139.173 65.0228C139.8 64.2486 140.832 63.8615 142.27 63.8615C143.708 63.8615 144.722 64.2486 145.312 65.0228C145.938 65.797 146.252 66.8477 146.252 68.1749V102.737ZM164.362 106.442C160.675 106.442 157.781 105.834 155.68 104.618C153.615 103.401 152.14 101.723 151.256 99.5852C150.408 97.447 149.984 94.9953 149.984 92.2303C149.984 87.1427 151.108 83.493 153.357 81.281C155.606 79.0321 158.629 77.9077 162.426 77.9077C164.712 77.9077 166.74 78.2948 168.509 79.069C170.279 79.8432 171.661 80.9492 172.657 82.387C173.652 83.7879 174.15 85.5022 174.15 87.5298C174.15 93.4285 169.947 96.3778 161.541 96.3778H158.334C158.629 97.5207 159.108 98.4239 159.772 99.0875C160.472 99.7142 161.689 100.028 163.422 100.028C164.38 100.028 165.154 99.9723 165.744 99.8617C166.334 99.7511 166.887 99.6405 167.403 99.5299C167.956 99.4193 168.583 99.364 169.283 99.364C170.279 99.364 171.071 99.5483 171.661 99.917C172.251 100.249 172.546 100.949 172.546 102.018C172.546 103.53 171.882 104.654 170.555 105.392C169.265 106.092 167.2 106.442 164.362 106.442ZM157.947 92.2856C158.242 91.8801 158.574 91.622 158.942 91.5114C159.311 91.364 159.882 91.2902 160.657 91.2902C162.832 91.2902 164.325 91.0875 165.136 90.6819C165.984 90.2395 166.408 89.4653 166.408 88.3593C166.408 86.9584 166.021 85.8893 165.246 85.1519C164.472 84.3777 163.495 83.9906 162.316 83.9906C160.952 83.9906 159.882 84.5621 159.108 85.7049C158.334 86.8478 157.947 89.0414 157.947 92.2856ZM189.081 106.442C185.025 106.442 181.818 105.152 179.459 102.571C177.136 99.9907 175.975 96.2119 175.975 91.2349C175.975 87.9169 176.454 85.281 177.412 83.3271C178.371 81.3731 179.698 79.9906 181.394 79.1796C183.127 78.3316 185.081 77.9077 187.256 77.9077C189.21 77.9077 190.795 78.1473 192.012 78.6266C193.228 79.1058 194.187 79.9169 194.887 81.0598C194.629 80.2856 194.426 79.5667 194.279 78.9031C194.168 78.2026 194.076 77.3915 194.002 76.4699C193.966 75.5482 193.947 74.3685 193.947 72.9307V68.1749C193.947 65.2993 195.182 63.8615 197.652 63.8615C200.343 63.8615 201.689 65.2993 201.689 68.1749V91.5667C201.689 96.5437 200.583 100.267 198.371 102.737C196.159 105.207 193.062 106.442 189.081 106.442ZM188.694 99.8064C190.242 99.8064 191.44 99.2534 192.288 98.1474C193.173 97.0414 193.615 94.9769 193.615 91.9538C193.615 89.9262 193.413 88.3962 193.007 87.3639C192.638 86.2948 192.085 85.5575 191.348 85.1519C190.611 84.7464 189.726 84.5436 188.694 84.5436C187.661 84.5436 186.777 84.7464 186.039 85.1519C185.302 85.5575 184.73 86.2948 184.325 87.3639C183.956 88.3962 183.772 89.9262 183.772 91.9538C183.772 94.9769 184.196 97.0414 185.044 98.1474C185.929 99.2534 187.145 99.8064 188.694 99.8064Z"/>
</mask>
<path d="M16.0923 106.442C13.3642 106.442 12.0001 105.207 12.0001 102.737V70.3869C12.0001 69.0965 12.3135 68.1565 12.9402 67.5666C13.567 66.9767 14.5624 66.6818 15.9264 66.6818C18.6177 66.6818 19.9633 67.9168 19.9633 70.3869V102.737C19.9633 103.991 19.65 104.931 19.0232 105.558C18.4334 106.147 17.4564 106.442 16.0923 106.442ZM28.3495 106.442C25.6951 106.442 24.3679 105.189 24.3679 102.682V89.41C24.3679 85.8708 25.4923 83.069 27.7412 81.0045C30.0269 78.9399 33.0315 77.9077 36.755 77.9077C40.4786 77.9077 43.4648 78.9399 45.7136 81.0045C47.9994 83.069 49.1422 85.8708 49.1422 89.41V102.682C49.1422 105.189 47.815 106.442 45.1606 106.442C42.5062 106.442 41.179 105.189 41.179 102.682V89.8524C41.179 88.1197 40.7919 86.8109 40.0177 85.9261C39.2435 85.0045 38.156 84.5436 36.755 84.5436C35.3541 84.5436 34.2666 85.0045 33.4924 85.9261C32.7182 86.8109 32.3311 88.1197 32.3311 89.8524V102.682C32.3311 105.189 31.0039 106.442 28.3495 106.442ZM62.7775 106.442C55.8466 106.442 52.3811 104.912 52.3811 101.853C52.3811 100.894 52.6392 100.138 53.1553 99.5852C53.6715 99.0322 54.3535 98.7557 55.2014 98.7557C55.5701 98.7557 55.9203 98.811 56.2521 98.9216C56.6208 98.9953 57.3213 99.1981 58.3535 99.5299C58.7959 99.6774 59.3858 99.8248 60.1231 99.9723C60.8605 100.12 61.5794 100.194 62.2798 100.194C63.607 100.194 64.5471 100.028 65.1001 99.6958C65.6531 99.364 65.9296 98.811 65.9296 98.0368C65.9296 97.4101 65.7822 96.9308 65.4872 96.599C65.1923 96.2304 64.5656 95.8801 63.607 95.5483C62.6485 95.2165 61.1554 94.7557 59.1277 94.1658C57.2844 93.6497 55.7913 92.728 54.6484 91.4008C53.5424 90.0368 52.9894 88.3593 52.9894 86.3685C52.9894 83.5667 54.0033 81.4284 56.0309 79.9538C58.0586 78.4791 60.842 77.7418 64.3812 77.7418C67.0356 77.7418 69.1186 78.1104 70.6301 78.8478C72.1416 79.5851 72.8974 80.6542 72.8974 82.0552C72.8974 82.94 72.6393 83.6773 72.1232 84.2671C71.6071 84.857 70.9066 85.1519 70.0218 85.1519C69.6531 85.1519 69.2107 85.0966 68.6946 84.986C68.2153 84.8754 67.6255 84.728 66.925 84.5436C66.4089 84.3593 65.8559 84.2118 65.266 84.1012C64.713 83.9906 64.1232 83.9353 63.4964 83.9353C61.7268 83.9353 60.842 84.5621 60.842 85.8155C60.842 86.5529 61.1923 87.1796 61.8927 87.6957C62.5932 88.175 63.9388 88.7096 65.9296 89.2994C68.6577 90.1105 70.667 91.1981 71.9573 92.5621C73.2476 93.8893 73.8928 95.6589 73.8928 97.8709C73.8928 100.452 72.8974 102.535 70.9066 104.12C68.9527 105.668 66.243 106.442 62.7775 106.442ZM89.5509 106.442C86.1223 106.442 83.5785 105.631 81.9195 104.009C80.2974 102.387 79.4863 99.8986 79.4863 96.5437V85.0413H78.0485C75.5416 85.0413 74.2881 83.9169 74.2881 81.6681C74.2881 79.4561 75.5416 78.3501 78.0485 78.3501H79.4863V72.3777C79.4863 71.1611 79.855 70.1657 80.5923 69.3915C81.3665 68.6173 82.3619 68.2302 83.5785 68.2302C84.7582 68.2302 85.6983 68.5989 86.3988 69.3362C87.0992 70.0366 87.4495 71.0136 87.4495 72.2671V74.9768C87.4495 76.3408 87.2283 77.4653 86.7859 78.3501H92.0394C94.5463 78.3501 95.7998 79.4561 95.7998 81.6681C95.7998 83.9169 94.5463 85.0413 92.0394 85.0413H87.4495V96.7096C87.4495 97.8156 87.5785 98.6082 87.8366 99.0875C88.0946 99.5299 88.5186 99.7511 89.1085 99.7511C89.8827 99.7511 90.4541 99.6958 90.8228 99.5852C91.2283 99.4377 91.726 99.364 92.3159 99.364C93.3113 99.364 94.1039 99.5483 94.6938 99.917C95.2836 100.249 95.5786 100.949 95.5786 102.018C95.5786 103.53 95.0993 104.654 94.1408 105.392C93.1822 106.092 91.6523 106.442 89.5509 106.442ZM108.999 106.442C105.312 106.442 102.437 105.594 100.372 103.899C98.3078 102.166 97.2756 99.9354 97.2756 97.2073C97.2756 93.9999 98.6212 91.6773 101.312 90.2395C104.041 88.8017 108.022 88.304 113.257 88.7464C112.999 87.0506 112.465 85.9077 111.654 85.3178C110.842 84.6911 109.866 84.3777 108.723 84.3777C107.801 84.3777 107.027 84.433 106.4 84.5436C105.81 84.6174 105.257 84.7095 104.741 84.8201C104.225 84.9307 103.598 84.986 102.861 84.986C101.865 84.986 101.073 84.8201 100.483 84.4883C99.8931 84.1197 99.5982 83.4008 99.5982 82.3317C99.5982 80.8201 100.243 79.7141 101.534 79.0137C102.861 78.2763 104.944 77.9077 107.783 77.9077C112.28 77.9077 115.617 79.198 117.792 81.7787C119.967 84.3224 121.055 87.7326 121.055 92.0091C121.055 96.9493 120.151 100.599 118.345 102.959C116.575 105.281 113.46 106.442 108.999 106.442ZM105.239 97.2073C105.239 99.3087 106.658 100.359 109.497 100.359C110.419 100.359 111.137 100.194 111.654 99.8617C112.17 99.5299 112.538 98.8663 112.76 97.8709C113.018 96.8755 113.202 95.3824 113.313 93.3916C113.128 93.576 112.889 93.705 112.594 93.7787C112.299 93.8525 112.004 93.8893 111.709 93.8893C109.276 93.8893 107.58 94.129 106.621 94.6082C105.7 95.0506 105.239 95.917 105.239 97.2073ZM132.736 102.737C132.736 105.207 131.445 106.442 128.865 106.442C127.611 106.442 126.616 106.129 125.879 105.502C125.141 104.876 124.773 103.954 124.773 102.737V68.1749C124.773 66.8477 125.068 65.797 125.657 65.0228C126.284 64.2486 127.316 63.8615 128.754 63.8615C130.192 63.8615 131.206 64.2486 131.796 65.0228C132.422 65.797 132.736 66.8477 132.736 68.1749V102.737ZM146.252 102.737C146.252 105.207 144.961 106.442 142.381 106.442C141.127 106.442 140.132 106.129 139.395 105.502C138.657 104.876 138.289 103.954 138.289 102.737V68.1749C138.289 66.8477 138.584 65.797 139.173 65.0228C139.8 64.2486 140.832 63.8615 142.27 63.8615C143.708 63.8615 144.722 64.2486 145.312 65.0228C145.938 65.797 146.252 66.8477 146.252 68.1749V102.737ZM164.362 106.442C160.675 106.442 157.781 105.834 155.68 104.618C153.615 103.401 152.14 101.723 151.256 99.5852C150.408 97.447 149.984 94.9953 149.984 92.2303C149.984 87.1427 151.108 83.493 153.357 81.281C155.606 79.0321 158.629 77.9077 162.426 77.9077C164.712 77.9077 166.74 78.2948 168.509 79.069C170.279 79.8432 171.661 80.9492 172.657 82.387C173.652 83.7879 174.15 85.5022 174.15 87.5298C174.15 93.4285 169.947 96.3778 161.541 96.3778H158.334C158.629 97.5207 159.108 98.4239 159.772 99.0875C160.472 99.7142 161.689 100.028 163.422 100.028C164.38 100.028 165.154 99.9723 165.744 99.8617C166.334 99.7511 166.887 99.6405 167.403 99.5299C167.956 99.4193 168.583 99.364 169.283 99.364C170.279 99.364 171.071 99.5483 171.661 99.917C172.251 100.249 172.546 100.949 172.546 102.018C172.546 103.53 171.882 104.654 170.555 105.392C169.265 106.092 167.2 106.442 164.362 106.442ZM157.947 92.2856C158.242 91.8801 158.574 91.622 158.942 91.5114C159.311 91.364 159.882 91.2902 160.657 91.2902C162.832 91.2902 164.325 91.0875 165.136 90.6819C165.984 90.2395 166.408 89.4653 166.408 88.3593C166.408 86.9584 166.021 85.8893 165.246 85.1519C164.472 84.3777 163.495 83.9906 162.316 83.9906C160.952 83.9906 159.882 84.5621 159.108 85.7049C158.334 86.8478 157.947 89.0414 157.947 92.2856ZM189.081 106.442C185.025 106.442 181.818 105.152 179.459 102.571C177.136 99.9907 175.975 96.2119 175.975 91.2349C175.975 87.9169 176.454 85.281 177.412 83.3271C178.371 81.3731 179.698 79.9906 181.394 79.1796C183.127 78.3316 185.081 77.9077 187.256 77.9077C189.21 77.9077 190.795 78.1473 192.012 78.6266C193.228 79.1058 194.187 79.9169 194.887 81.0598C194.629 80.2856 194.426 79.5667 194.279 78.9031C194.168 78.2026 194.076 77.3915 194.002 76.4699C193.966 75.5482 193.947 74.3685 193.947 72.9307V68.1749C193.947 65.2993 195.182 63.8615 197.652 63.8615C200.343 63.8615 201.689 65.2993 201.689 68.1749V91.5667C201.689 96.5437 200.583 100.267 198.371 102.737C196.159 105.207 193.062 106.442 189.081 106.442ZM188.694 99.8064C190.242 99.8064 191.44 99.2534 192.288 98.1474C193.173 97.0414 193.615 94.9769 193.615 91.9538C193.615 89.9262 193.413 88.3962 193.007 87.3639C192.638 86.2948 192.085 85.5575 191.348 85.1519C190.611 84.7464 189.726 84.5436 188.694 84.5436C187.661 84.5436 186.777 84.7464 186.039 85.1519C185.302 85.5575 184.73 86.2948 184.325 87.3639C183.956 88.3962 183.772 89.9262 183.772 91.9538C183.772 94.9769 184.196 97.0414 185.044 98.1474C185.929 99.2534 187.145 99.8064 188.694 99.8064Z" fill="#3F3833"/>
<path d="M12.9402 67.5666L4.71588 58.8282L4.71586 58.8282L12.9402 67.5666ZM19.0232 105.558L27.5085 114.043L27.5085 114.043L19.0232 105.558ZM16.0923 106.442V94.4424C16.2995 94.4424 18.695 94.4636 21.0773 96.6205C23.686 98.9825 24.0001 101.798 24.0001 102.737H12.0001H0.000145912C0.000145912 106.147 0.996335 110.815 4.96909 114.412C8.71542 117.804 13.157 118.442 16.0923 118.442V106.442ZM12.0001 102.737H24.0001V70.3869H12.0001H0.000145912V102.737H12.0001ZM12.0001 70.3869H24.0001C24.0001 70.7571 23.9299 73.7023 21.1646 76.305L12.9402 67.5666L4.71586 58.8282C0.697108 62.6106 0.000145912 67.436 0.000145912 70.3869H12.0001ZM12.9402 67.5666L21.1646 76.305C19.8575 77.5352 18.5007 78.1316 17.5659 78.4086C16.6727 78.6732 16.059 78.6818 15.9264 78.6818V66.6818V54.6818C13.2176 54.6818 8.56234 55.208 4.71588 58.8282L12.9402 67.5666ZM15.9264 66.6818V78.6818C15.6653 78.6818 13.2312 78.6436 10.8399 76.4489C8.25389 74.0754 7.96333 71.2789 7.96333 70.3869H19.9633H31.9633C31.9633 67.0248 30.9999 62.3758 27.0683 58.7672C23.3314 55.3375 18.8789 54.6818 15.9264 54.6818V66.6818ZM19.9633 70.3869H7.96333V102.737H19.9633H31.9633V70.3869H19.9633ZM19.9633 102.737H7.96333C7.96333 102.141 8.12052 99.4897 10.5379 97.0723L19.0232 105.558L27.5085 114.043C31.1794 110.372 31.9633 105.841 31.9633 102.737H19.9633ZM19.0232 105.558L10.5379 97.0723C11.9218 95.6885 13.3925 95.0314 14.3801 94.7333C15.3219 94.4489 15.9683 94.4424 16.0923 94.4424V106.442V118.442C18.7116 118.442 23.5979 117.954 27.5085 114.043L19.0232 105.558ZM27.7412 81.0045L19.6977 72.0992L19.6259 72.1646L27.7412 81.0045ZM45.7136 81.0045L37.5984 89.8443L37.6702 89.9097L45.7136 81.0045ZM40.0177 85.9261L30.8293 93.6444L30.9868 93.8282L40.0177 85.9261ZM33.4924 85.9261L42.5233 93.8282L42.6808 93.6444L33.4924 85.9261ZM28.3495 106.442V94.4424C28.7065 94.4424 31.2053 94.5139 33.6028 96.7781C36.1289 99.1639 36.3679 101.905 36.3679 102.682H24.3679H12.3679C12.3679 105.966 13.2705 110.587 17.1238 114.226C20.8484 117.744 25.3381 118.442 28.3495 118.442V106.442ZM24.3679 102.682H36.3679V89.41H24.3679H12.3679V102.682H24.3679ZM24.3679 89.41H36.3679C36.3679 88.9121 36.4452 88.881 36.3479 89.1236C36.3008 89.2408 36.2281 89.3825 36.1276 89.5275C36.0274 89.6721 35.9285 89.7781 35.8564 89.8443L27.7412 81.0045L19.6259 72.1646C14.4996 76.8707 12.3679 83.0975 12.3679 89.41H24.3679ZM27.7412 81.0045L35.7846 89.9097C35.75 89.941 35.7029 89.9762 35.6524 90.0058C35.6028 90.0349 35.5815 90.0398 35.6079 90.0308C35.6607 90.0127 35.997 89.9077 36.755 89.9077V77.9077V65.9077C30.7125 65.9077 24.6297 67.6446 19.6977 72.0992L27.7412 81.0045ZM36.755 77.9077V89.9077C37.5148 89.9077 37.8372 90.0131 37.8668 90.0234C37.8811 90.0283 37.845 90.0168 37.7791 89.9778C37.7122 89.9383 37.6487 89.8905 37.5984 89.8443L45.7136 81.0045L53.8289 72.1646C48.903 67.6425 42.7899 65.9077 36.755 65.9077V77.9077ZM45.7136 81.0045L37.6702 89.9097C37.6037 89.8496 37.5058 89.7473 37.4038 89.6025C37.3014 89.4572 37.2249 89.3116 37.1739 89.1865C37.0677 88.9261 37.1422 88.9348 37.1422 89.41H49.1422H61.1422C61.1422 83.0344 58.9481 76.7879 53.7571 72.0992L45.7136 81.0045ZM49.1422 89.41H37.1422V102.682H49.1422H61.1422V89.41H49.1422ZM49.1422 102.682H37.1422C37.1422 101.905 37.3812 99.1639 39.9073 96.7781C42.3048 94.5139 44.8036 94.4424 45.1606 94.4424V106.442V118.442C48.172 118.442 52.6617 117.744 56.3863 114.226C60.2396 110.587 61.1422 105.966 61.1422 102.682H49.1422ZM45.1606 106.442V94.4424C45.5176 94.4424 48.0165 94.5139 50.4139 96.7781C52.94 99.1639 53.179 101.905 53.179 102.682H41.179H29.179C29.179 105.966 30.0816 110.587 33.935 114.226C37.6596 117.744 42.1492 118.442 45.1606 118.442V106.442ZM41.179 102.682H53.179V89.8524H41.179H29.179V102.682H41.179ZM41.179 89.8524H53.179C53.179 86.5572 52.4675 81.9314 49.0487 78.0241L40.0177 85.9261L30.9868 93.8282C30.0643 92.7739 29.6006 91.7155 29.3815 90.9749C29.2748 90.6142 29.2257 90.3297 29.2025 90.1474C29.1793 89.9654 29.179 89.8617 29.179 89.8524H41.179ZM40.0177 85.9261L49.2062 78.2078C45.7667 74.1132 41.0548 72.5436 36.755 72.5436V84.5436V96.5436C36.1412 96.5436 35.1257 96.4409 33.9396 95.9383C32.7052 95.4152 31.6364 94.6053 30.8293 93.6444L40.0177 85.9261ZM36.755 84.5436V72.5436C32.4553 72.5436 27.7434 74.1132 24.3039 78.2078L33.4924 85.9261L42.6808 93.6444C41.8737 94.6053 40.8049 95.4152 39.5705 95.9383C38.3844 96.4409 37.3689 96.5436 36.755 96.5436V84.5436ZM33.4924 85.9261L24.4614 78.0241C21.0426 81.9314 20.3311 86.5572 20.3311 89.8524H32.3311H44.3311C44.3311 89.8617 44.3308 89.9654 44.3076 90.1474C44.2844 90.3297 44.2353 90.6142 44.1286 90.9749C43.9095 91.7155 43.4458 92.7739 42.5233 93.8282L33.4924 85.9261ZM32.3311 89.8524H20.3311V102.682H32.3311H44.3311V89.8524H32.3311ZM32.3311 102.682H20.3311C20.3311 101.905 20.5701 99.1639 23.0962 96.7781C25.4936 94.5139 27.9925 94.4424 28.3495 94.4424V106.442V118.442C31.3609 118.442 35.8505 117.744 39.5751 114.226C43.4285 110.587 44.3311 105.966 44.3311 102.682H32.3311ZM53.1553 99.5852L61.928 107.773V107.773L53.1553 99.5852ZM56.2521 98.9216L52.4574 110.306L53.8987 110.689L56.2521 98.9216ZM58.3535 99.5299L62.1483 88.1457L62.0256 88.1056L58.3535 99.5299ZM60.1231 99.9723L57.7697 111.739H57.7697L60.1231 99.9723ZM65.1001 99.6958L58.9262 89.4059L58.9262 89.4059L65.1001 99.6958ZM65.4872 96.599L56.1168 104.095L56.5183 104.571L65.4872 96.599ZM63.607 95.5483L59.6817 106.888L63.607 95.5483ZM59.1277 94.1658L62.4797 82.6435L62.3633 82.6103L59.1277 94.1658ZM54.6484 91.4008L45.3274 98.9585L45.5552 99.2311L54.6484 91.4008ZM56.0309 79.9538L63.089 89.6586H63.089L56.0309 79.9538ZM70.6301 78.8478L75.8912 68.0625V68.0625L70.6301 78.8478ZM68.6946 84.986L65.9963 96.6787L66.1802 96.7197L68.6946 84.986ZM66.925 84.5436L62.889 95.8446L63.8711 96.1485L66.925 84.5436ZM65.266 84.1012L62.9126 95.8682L63.0545 95.8957L65.266 84.1012ZM61.8927 87.6957L54.7743 97.3564L55.1165 97.5994L61.8927 87.6957ZM65.9296 89.2994L69.3493 77.797L69.3387 77.7939L65.9296 89.2994ZM71.9573 92.5621L63.2397 100.809L63.3534 100.927L71.9573 92.5621ZM70.9066 104.12L78.3596 113.525L78.3817 113.507L70.9066 104.12ZM62.7775 106.442V94.4424C61.4568 94.4424 60.5485 94.3676 59.9762 94.2834C59.3657 94.1936 59.4066 94.1316 59.8268 94.3172C60.2562 94.5067 61.4792 95.1351 62.6078 96.6299C63.8512 98.2767 64.3811 100.186 64.3811 101.853H52.3811H40.3811C40.3811 105.049 41.3443 108.297 43.454 111.091C45.449 113.734 47.9716 115.318 50.1337 116.273C54.1814 118.06 58.8002 118.442 62.7775 118.442V106.442ZM52.3811 101.853H64.3811C64.3811 103.089 63.9982 105.555 61.928 107.773L53.1553 99.5852L44.3827 91.3974C41.2802 94.7214 40.3811 98.6994 40.3811 101.853H52.3811ZM53.1553 99.5852L61.928 107.773C61.0291 108.736 59.885 109.548 58.5624 110.084C57.2704 110.608 56.0902 110.756 55.2014 110.756V98.7557V86.7557C51.4718 86.7557 47.4548 88.1058 44.3827 91.3974L53.1553 99.5852ZM55.2014 98.7557V110.756C54.3505 110.756 53.4141 110.625 52.4574 110.306L56.2521 98.9216L60.0469 87.5374C58.4266 86.9973 56.7897 86.7557 55.2014 86.7557V98.7557ZM56.2521 98.9216L53.8987 110.689C53.7891 110.667 53.7082 110.648 53.6641 110.638C53.6181 110.627 53.5909 110.62 53.5863 110.619C53.5802 110.617 53.6199 110.628 53.7173 110.656C53.9156 110.713 54.2287 110.809 54.6814 110.954L58.3535 99.5299L62.0256 88.1056C61.0833 87.8027 59.7481 87.3832 58.6055 87.1546L56.2521 98.9216ZM58.3535 99.5299L54.5588 110.914C55.6692 111.284 56.8008 111.545 57.7697 111.739L60.1231 99.9723L62.4765 88.2053C62.2529 88.1606 62.1114 88.1277 62.0382 88.1094C62.0034 88.1007 61.9951 88.0981 62.0096 88.1022C62.0234 88.1062 62.0716 88.1202 62.1483 88.1457L58.3535 99.5299ZM60.1231 99.9723L57.7697 111.739C59.2256 112.03 60.7337 112.194 62.2798 112.194V100.194V88.1935C62.425 88.1935 62.4953 88.2091 62.4765 88.2053L60.1231 99.9723ZM62.2798 100.194V112.194C63.9249 112.194 67.7324 112.111 71.2741 109.986L65.1001 99.6958L58.9262 89.4059C60.3587 88.5464 61.5491 88.3127 61.8949 88.2517C62.321 88.1765 62.4926 88.1935 62.2798 88.1935V100.194ZM65.1001 99.6958L71.2741 109.986C76.2168 107.02 77.9296 102.036 77.9296 98.0368H65.9296H53.9296C53.9296 97.0197 54.1108 95.4222 54.9891 93.6656C55.9168 91.8103 57.3344 90.361 58.9262 89.4059L65.1001 99.6958ZM65.9296 98.0368H77.9296C77.9296 95.6745 77.3774 91.9131 74.4561 88.6266L65.4872 96.599L56.5183 104.571C54.1869 101.949 53.9296 99.1457 53.9296 98.0368H65.9296ZM65.4872 96.599L74.8577 89.1027C72.2544 85.8486 68.6818 84.6064 67.5324 84.2085L63.607 95.5483L59.6817 106.888C59.7431 106.909 59.4388 106.813 58.9421 106.535C58.5359 106.308 57.3069 105.583 56.1168 104.095L65.4872 96.599ZM63.607 95.5483L67.5324 84.2085C66.2745 83.7731 64.5409 83.2431 62.4797 82.6435L59.1277 94.1658L55.7758 105.688C57.7699 106.268 59.0225 106.66 59.6817 106.888L63.607 95.5483ZM59.1277 94.1658L62.3633 82.6103C62.4246 82.6274 62.6381 82.6969 62.9286 82.8762C63.2267 83.0602 63.5091 83.3005 63.7417 83.5706L54.6484 91.4008L45.5552 99.2311C48.3841 102.516 51.9926 104.63 55.8922 105.721L59.1277 94.1658ZM54.6484 91.4008L63.9695 83.8432C64.3385 84.2983 64.6244 84.8272 64.8009 85.3626C64.9713 85.8795 64.9894 86.2476 64.9894 86.3685H52.9894H40.9894C40.9894 90.7226 42.2584 95.1734 45.3274 98.9585L54.6484 91.4008ZM52.9894 86.3685H64.9894C64.9894 86.4219 64.9753 86.9977 64.5928 87.8045C64.1883 88.6575 63.5989 89.2877 63.089 89.6586L56.0309 79.9538L48.9729 70.2489C43.4414 74.2718 40.9894 80.2488 40.9894 86.3685H52.9894ZM56.0309 79.9538L63.089 89.6586C62.7387 89.9133 62.5441 89.9392 62.7121 89.8947C62.9031 89.8441 63.4219 89.7418 64.3812 89.7418V77.7418V65.7418C59.3178 65.7418 53.7413 66.781 48.9729 70.2489L56.0309 79.9538ZM64.3812 77.7418V89.7418C65.1757 89.7418 65.6399 89.7987 65.8428 89.8346C66.0542 89.872 65.8359 89.8607 65.369 89.633L70.6301 78.8478L75.8912 68.0625C72.0632 66.1952 67.9143 65.7418 64.3812 65.7418V77.7418ZM70.6301 78.8478L65.369 89.633C64.8148 89.3626 63.6032 88.6453 62.5316 87.1294C61.3751 85.4933 60.8974 83.6522 60.8974 82.0552H72.8974H84.8974C84.8974 79.0572 84.0419 75.981 82.1295 73.2758C80.3022 70.6908 77.9569 69.0702 75.8912 68.0625L70.6301 78.8478ZM72.8974 82.0552H60.8974C60.8974 81.3245 61.0057 80.3698 61.3776 79.3075C61.7568 78.2241 62.3441 77.2201 63.0923 76.3651L72.1232 84.2672L81.1541 92.1692C83.8325 89.1082 84.8974 85.4462 84.8974 82.0552H72.8974ZM72.1232 84.2672L63.0923 76.3651C63.995 75.3334 65.1721 74.453 66.5541 73.8711C67.8996 73.3046 69.1243 73.1519 70.0218 73.1519V85.1519V97.1519C73.8699 97.1519 78.0513 95.7153 81.1541 92.1692L72.1232 84.2672ZM70.0218 85.1519V73.1519C70.4251 73.1519 70.7277 73.1814 70.9019 73.2031C71.0807 73.2255 71.1874 73.2478 71.209 73.2524L68.6946 84.986L66.1802 96.7197C67.2006 96.9383 68.5322 97.1519 70.0218 97.1519V85.1519ZM68.6946 84.986L71.3929 73.2934C71.0738 73.2197 70.6108 73.105 69.9789 72.9388L66.925 84.5436L63.8711 96.1485C64.6402 96.3509 65.3569 96.5312 65.9963 96.6787L68.6946 84.986ZM66.925 84.5436L70.961 73.2427C69.7977 72.8273 68.6298 72.5228 67.4775 72.3068L65.266 84.1012L63.0545 95.8957C63.082 95.9009 63.0201 95.8914 62.889 95.8446L66.925 84.5436ZM65.266 84.1012L67.6194 72.3343C66.2114 72.0527 64.8272 71.9353 63.4964 71.9353V83.9353V95.9353C63.4191 95.9353 63.2147 95.9286 62.9126 95.8682L65.266 84.1012ZM63.4964 83.9353V71.9353C61.5598 71.9353 57.9586 72.2125 54.5694 74.6131C50.4211 77.5515 48.842 81.9947 48.842 85.8155H60.842H72.842C72.842 86.9098 72.6465 88.4435 71.8658 90.1025C71.0558 91.8237 69.8333 93.2121 68.4418 94.1977C65.9375 95.9716 63.6635 95.9353 63.4964 95.9353V83.9353ZM60.842 85.8155H48.842C48.842 91.0824 51.6309 95.0402 54.7743 97.3564L61.8927 87.6957L69.0111 78.0351C69.7523 78.5812 70.7628 79.5224 71.58 80.9847C72.4325 82.5102 72.842 84.1925 72.842 85.8155H60.842ZM61.8927 87.6957L55.1165 97.5994C57.5449 99.261 60.568 100.226 62.5206 100.805L65.9296 89.2994L69.3387 77.7939C68.9586 77.6812 68.6445 77.5816 68.3899 77.4958C68.1329 77.4092 67.9601 77.3446 67.8576 77.3039C67.7494 77.2609 67.7636 77.262 67.8668 77.3131C67.922 77.3405 68.0179 77.3897 68.1453 77.4626C68.2711 77.5345 68.4513 77.6432 68.6689 77.7921L61.8927 87.6957ZM65.9296 89.2994L62.51 100.802C63.2641 101.026 63.6472 101.21 63.7704 101.277C63.891 101.342 63.6334 101.225 63.2397 100.809L71.9573 92.5621L80.6749 84.3157C77.3743 80.8264 73.1375 78.9232 69.3493 77.797L65.9296 89.2994ZM71.9573 92.5621L63.3534 100.927C62.7972 100.355 62.3817 99.6722 62.1348 98.9951C61.9015 98.3552 61.8928 97.9276 61.8928 97.8709H73.8928H85.8928C85.8928 93.1849 84.4439 88.1908 80.5612 84.1972L71.9573 92.5621ZM73.8928 97.8709H61.8928C61.8928 97.5833 61.9579 96.9502 62.319 96.1946C62.6825 95.4339 63.1522 94.9548 63.4315 94.7324L70.9066 104.12L78.3817 113.507C83.2783 109.608 85.8928 104.047 85.8928 97.8709H73.8928ZM70.9066 104.12L63.4536 94.7149C63.8595 94.3932 64.1516 94.3122 64.1122 94.3235C64.0421 94.3435 63.6403 94.4424 62.7775 94.4424V106.442V118.442C67.9093 118.442 73.5931 117.302 78.3596 113.525L70.9066 104.12ZM81.9195 104.009L73.4342 112.494L73.5301 112.589L81.9195 104.009ZM79.4863 85.0413H91.4863L79.4863 73.0413V85.0413ZM79.4863 78.3501V90.3501L91.4863 78.3501H79.4863ZM80.5923 69.3915L72.107 60.9062L71.9026 61.1156L80.5923 69.3915ZM86.3988 69.3362L77.6988 77.6012L77.9135 77.8215L86.3988 69.3362ZM86.7859 78.3501L76.0527 72.9835L86.7859 90.3501V78.3501ZM87.4495 85.0413V73.0413L75.4495 85.0413H87.4495ZM87.8366 99.0875L77.2709 104.777L77.4712 105.134L87.8366 99.0875ZM90.8228 99.5852L94.271 111.079L94.9237 110.863L90.8228 99.5852ZM94.6938 99.917L88.3338 110.093L88.8106 110.376L94.6938 99.917ZM94.1408 105.392L101.221 115.08L101.457 114.903L94.1408 105.392ZM89.5509 106.442V94.4424C88.7409 94.4424 88.5303 94.3417 88.7169 94.4012C88.9577 94.478 89.6125 94.7482 90.3089 95.4291L81.9195 104.009L73.5301 112.589C78.3061 117.259 84.4704 118.442 89.5509 118.442V106.442ZM81.9195 104.009L90.4048 95.5239C91.1076 96.2267 91.4068 96.9097 91.5039 97.2076C91.5821 97.4476 91.4863 97.2956 91.4863 96.5437H79.4863H67.4863C67.4863 101.612 68.701 107.761 73.4342 112.494L81.9195 104.009ZM79.4863 96.5437H91.4863V85.0413H79.4863H67.4863V96.5437H79.4863ZM79.4863 85.0413V73.0413H78.0485V85.0413V97.0413H79.4863V85.0413ZM78.0485 85.0413V73.0413C78.3425 73.0413 80.804 73.0791 83.2413 75.2654C85.9265 77.6743 86.2881 80.5854 86.2881 81.6681H74.2881H62.2881C62.2881 84.9995 63.2764 89.5973 67.2152 93.1306C70.9059 96.4414 75.2476 97.0413 78.0485 97.0413V85.0413ZM74.2881 81.6681H86.2881C86.2881 82.8286 85.8901 85.7755 83.1677 88.1776C80.7318 90.3269 78.301 90.3501 78.0485 90.3501V78.3501V66.3501C75.2891 66.3501 70.9781 66.9262 67.2887 70.1815C63.3129 73.6896 62.2881 78.2955 62.2881 81.6681H74.2881ZM78.0485 78.3501V90.3501H79.4863V78.3501V66.3501H78.0485V78.3501ZM79.4863 78.3501H91.4863V72.3777H79.4863H67.4863V78.3501H79.4863ZM79.4863 72.3777H91.4863C91.4863 72.9868 91.3921 73.8705 91.0158 74.8864C90.6295 75.9294 90.0297 76.8823 89.282 77.6673L80.5923 69.3915L71.9026 61.1156C68.7436 64.4327 67.4863 68.5387 67.4863 72.3777H79.4863ZM80.5923 69.3915L89.0776 77.8768C88.3184 78.6359 87.3615 79.2796 86.2688 79.7046C85.2008 80.1199 84.253 80.2302 83.5785 80.2302V68.2302V56.2302C79.5669 56.2302 75.3917 57.6216 72.107 60.9062L80.5923 69.3915ZM83.5785 68.2302V80.2302C82.9173 80.2302 81.9268 80.1252 80.7873 79.6784C79.6103 79.2168 78.5492 78.4964 77.6988 77.6012L86.3988 69.3362L95.0988 61.0712C91.7657 57.5627 87.4736 56.2302 83.5785 56.2302V68.2302ZM86.3988 69.3362L77.9135 77.8215C76.951 76.8589 76.2843 75.7417 75.8907 74.6438C75.5146 73.5947 75.4495 72.7425 75.4495 72.2671H87.4495H99.4495C99.4495 68.7194 98.3937 64.3605 94.8841 60.8509L86.3988 69.3362ZM87.4495 72.2671H75.4495V74.9768H87.4495H99.4495V72.2671H87.4495ZM87.4495 74.9768H75.4495C75.4495 75.1448 75.4078 74.2735 76.0527 72.9835L86.7859 78.3501L97.519 83.7166C99.0488 80.657 99.4495 77.5369 99.4495 74.9768H87.4495ZM86.7859 78.3501V90.3501H92.0394V78.3501V66.3501H86.7859V78.3501ZM92.0394 78.3501V90.3501C91.7869 90.3501 89.3561 90.3269 86.9202 88.1776C84.1978 85.7755 83.7998 82.8286 83.7998 81.6681H95.7998H107.8C107.8 78.2955 106.775 73.6896 102.799 70.1815C99.1098 66.9262 94.7988 66.3501 92.0394 66.3501V78.3501ZM95.7998 81.6681H83.7998C83.7998 80.5854 84.1613 77.6743 86.8466 75.2654C89.2839 73.0791 91.7453 73.0413 92.0394 73.0413V85.0413V97.0413C94.8403 97.0413 99.182 96.4414 102.873 93.1306C106.811 89.5973 107.8 84.9995 107.8 81.6681H95.7998ZM92.0394 85.0413V73.0413H87.4495V85.0413V97.0413H92.0394V85.0413ZM87.4495 85.0413H75.4495V96.7096H87.4495H99.4495V85.0413H87.4495ZM87.4495 96.7096H75.4495C75.4495 98.1512 75.5162 101.518 77.2709 104.777L87.8366 99.0875L98.4022 93.3983C99.1293 94.7486 99.3327 95.8511 99.3903 96.2055C99.4601 96.6338 99.4495 96.8391 99.4495 96.7096H87.4495ZM87.8366 99.0875L77.4712 105.134C80.2428 109.885 85.0235 111.751 89.1085 111.751V99.7511V87.7511C90.3022 87.7511 92.0425 87.9776 93.8989 88.9462C95.8362 89.9569 97.2755 91.453 98.2019 93.0411L87.8366 99.0875ZM89.1085 99.7511V111.751C90.1207 111.751 92.149 111.716 94.271 111.079L90.8228 99.5852L87.3746 88.0913C87.821 87.9574 88.1844 87.8825 88.4228 87.8404C88.6676 87.7972 88.8533 87.7759 88.9618 87.7654C89.166 87.7457 89.2329 87.7511 89.1085 87.7511V99.7511ZM90.8228 99.5852L94.9237 110.863C93.6302 111.333 92.6467 111.364 92.3159 111.364V99.364V87.364C90.8053 87.364 88.8264 87.5424 86.7219 88.3077L90.8228 99.5852ZM92.3159 99.364V111.364C91.9824 111.364 90.3044 111.325 88.3338 110.093L94.6938 99.917L101.054 89.741C97.9034 87.7721 94.6402 87.364 92.3159 87.364V99.364ZM94.6938 99.917L88.8106 110.376C86.5 109.076 85.05 107.135 84.2977 105.348C83.6268 103.754 83.5786 102.479 83.5786 102.018H95.5786H107.579C107.579 99.2996 106.815 92.967 100.577 89.4581L94.6938 99.917ZM95.5786 102.018H83.5786C83.5786 101.528 83.6546 100.523 84.18 99.2902C84.739 97.9787 85.6524 96.7816 86.8242 95.8802L94.1408 105.392L101.457 114.903C106.098 111.333 107.579 106.228 107.579 102.018H95.5786ZM94.1408 105.392L87.0606 95.703C88.2475 94.8357 89.2589 94.5596 89.5967 94.4823C89.9484 94.4018 89.9831 94.4424 89.5509 94.4424V106.442V118.442C92.4656 118.442 97.1494 118.056 101.221 115.08L94.1408 105.392ZM100.372 103.899L92.6579 113.09L92.7555 113.171L100.372 103.899ZM101.312 90.2395L95.7176 79.6236L95.6579 79.6553L101.312 90.2395ZM113.257 88.7464L112.247 100.704L125.121 86.9411L113.257 88.7464ZM111.654 85.3178L104.316 94.8133L104.595 95.0227L111.654 85.3178ZM106.4 84.5436L107.888 96.451L108.485 96.361L106.4 84.5436ZM100.483 84.4883L94.123 94.6643L94.5998 94.9473L100.483 84.4883ZM101.534 79.0137L107.259 89.5599L107.361 89.5035L101.534 79.0137ZM117.792 81.7787L108.616 89.5123L108.671 89.5773L117.792 81.7787ZM118.345 102.959L108.817 95.6636L108.8 95.686L118.345 102.959ZM111.654 99.8617L105.164 89.7676H105.164L111.654 99.8617ZM112.76 97.8709L101.144 94.8594L101.045 95.2677L112.76 97.8709ZM113.313 93.3916L125.294 94.0573L104.827 84.9064L113.313 93.3916ZM112.594 93.7787L109.683 82.137L109.683 82.137L112.594 93.7787ZM106.621 94.6082L111.814 105.427L111.988 105.341L106.621 94.6082ZM108.999 106.442V94.4424C108.052 94.4424 107.589 94.3309 107.471 94.2964C107.389 94.272 107.635 94.3348 107.989 94.6259L100.372 103.899L92.7555 113.171C97.6563 117.197 103.581 118.442 108.999 118.442V106.442ZM100.372 103.899L108.087 94.7069C108.273 94.8633 108.646 95.2514 108.94 95.8861C109.232 96.5168 109.276 97.0237 109.276 97.2073H97.2756H85.2756C85.2756 103.432 87.8387 109.046 92.6579 113.09L100.372 103.899ZM97.2756 97.2073H109.276C109.276 97.3034 109.244 98.082 108.668 99.0755C108.074 100.102 107.316 100.637 106.967 100.824L101.312 90.2395L95.6579 79.6553C92.6174 81.2797 89.8417 83.6955 87.9016 87.0441C85.9803 90.3602 85.2756 93.9039 85.2756 97.2073H97.2756ZM101.312 90.2395L106.907 100.855C106.671 100.98 106.868 100.816 107.833 100.695C108.786 100.576 110.222 100.533 112.247 100.704L113.257 88.7464L114.268 76.7891C108.173 76.274 101.449 76.6033 95.7176 79.6236L101.312 90.2395ZM113.257 88.7464L125.121 86.9411C124.701 84.1842 123.441 79.0529 118.712 75.613L111.654 85.3178L104.595 95.0227C102.989 93.8546 102.167 92.502 101.793 91.7016C101.435 90.936 101.38 90.4607 101.394 90.5517L113.257 88.7464ZM111.654 85.3178L118.991 75.8224C115.837 73.3854 112.199 72.3777 108.723 72.3777V84.3777V96.3777C108.19 96.3777 107.47 96.3032 106.647 96.0394C105.81 95.7708 105.014 95.3528 104.316 94.8133L111.654 85.3178ZM108.723 84.3777V72.3777C107.383 72.3777 105.86 72.4535 104.315 72.7262L106.4 84.5436L108.485 96.361C108.396 96.3768 108.336 96.3846 108.309 96.3878C108.282 96.391 108.28 96.3906 108.306 96.3887C108.362 96.3847 108.496 96.3777 108.723 96.3777V84.3777ZM106.4 84.5436L104.912 72.6363C104.02 72.7478 103.121 72.8948 102.227 73.0865L104.741 84.8201L107.255 96.5538C107.393 96.5243 107.601 96.4869 107.888 96.451L106.4 84.5436ZM104.741 84.8201L102.227 73.0865C102.531 73.0213 102.742 72.9987 102.829 72.991C102.92 72.983 102.935 72.986 102.861 72.986V84.986V96.986C104.138 96.986 105.66 96.8957 107.255 96.5538L104.741 84.8201ZM102.861 84.986V72.986C103.023 72.986 104.51 72.9851 106.366 74.0294L100.483 84.4883L94.5998 94.9473C97.6361 96.6551 100.708 96.986 102.861 96.986V84.986ZM100.483 84.4883L106.843 74.3124C111.379 77.1471 111.598 81.6196 111.598 82.3316H99.5982H87.5982C87.5982 85.182 88.4077 91.0923 94.123 94.6643L100.483 84.4883ZM99.5982 82.3316H111.598C111.598 83.3144 111.374 84.8257 110.447 86.415C109.509 88.0228 108.254 89.0194 107.259 89.5599L101.534 79.0137L95.8086 68.4674C93.5226 69.7084 91.2998 71.6082 89.7167 74.3221C88.1444 77.0173 87.5982 79.8374 87.5982 82.3316H99.5982ZM101.534 79.0137L107.361 89.5035C106.908 89.7555 106.555 89.8853 106.373 89.9445C106.188 90.0043 106.113 90.0128 106.183 90.0005C106.249 89.9887 106.413 89.9641 106.692 89.9433C106.968 89.9225 107.329 89.9077 107.783 89.9077V77.9077V65.9077C104.394 65.9077 99.7759 66.2627 95.706 68.5238L101.534 79.0137ZM107.783 77.9077V89.9077C108.917 89.9077 109.347 90.0741 109.33 90.0676C109.311 90.0605 109.202 90.0148 109.046 89.9051C108.887 89.7933 108.737 89.6561 108.616 89.5123L117.792 81.7787L126.967 74.045C121.813 67.9301 114.568 65.9077 107.783 65.9077V77.9077ZM117.792 81.7787L108.671 89.5773C108.673 89.579 108.675 89.5811 108.677 89.5848C108.68 89.5886 108.686 89.5982 108.696 89.6157C108.714 89.6483 108.756 89.7324 108.806 89.8902C108.909 90.2129 109.055 90.8747 109.055 92.0091H121.055H133.055C133.055 85.6869 131.414 79.2448 126.912 73.98L117.792 81.7787ZM121.055 92.0091H109.055C109.055 93.7922 108.887 94.9282 108.729 95.5688C108.572 96.2025 108.489 96.0912 108.817 95.6636L118.345 102.959L127.873 110.253C132.038 104.813 133.055 97.9909 133.055 92.0091H121.055ZM118.345 102.959L108.8 95.686C109.106 95.2836 109.456 94.9566 109.797 94.7129C110.13 94.4754 110.388 94.3653 110.49 94.3273C110.585 94.2918 110.531 94.3238 110.274 94.3632C110.017 94.4026 109.602 94.4424 108.999 94.4424V106.442V118.442C115.177 118.442 122.854 116.841 127.89 110.231L118.345 102.959ZM105.239 97.2073H93.2388C93.2388 101.245 94.7952 105.983 99.1635 109.216C102.856 111.95 106.948 112.359 109.497 112.359V100.359V88.3594C109.508 88.3594 109.6 88.3597 109.761 88.3767C109.921 88.3936 110.177 88.4301 110.509 88.5118C111.156 88.6716 112.255 89.0469 113.443 89.9265C114.701 90.8576 115.762 92.1394 116.447 93.6593C117.1 95.111 117.239 96.3928 117.239 97.2073H105.239ZM109.497 100.359V112.359C111.64 112.359 114.948 112.009 118.143 109.956L111.654 99.8617L105.164 89.7676C107.326 88.3777 109.197 88.3594 109.497 88.3594V100.359ZM111.654 99.8617L118.143 109.956C122.618 107.079 123.996 102.625 124.474 100.474L112.76 97.8709L101.045 95.2677C101.105 94.9975 101.296 94.2445 101.827 93.2874C102.38 92.2933 103.407 90.8971 105.164 89.7676L111.654 99.8617ZM112.76 97.8709L124.376 100.882C124.94 98.7039 125.172 96.2491 125.294 94.0573L113.313 93.3916L101.331 92.726C101.286 93.533 101.232 94.1247 101.182 94.5342C101.127 94.9756 101.096 95.0416 101.144 94.8594L112.76 97.8709ZM113.313 93.3916L104.827 84.9064C106.421 83.3129 108.223 82.5019 109.683 82.137L112.594 93.7787L115.504 105.42C117.554 104.908 119.836 103.839 121.798 101.877L113.313 93.3916ZM112.594 93.7787L109.683 82.137C110.311 81.9801 110.993 81.8893 111.709 81.8893V93.8893V105.889C113.015 105.889 114.287 105.725 115.504 105.42L112.594 93.7787ZM111.709 93.8893V81.8893C109.205 81.8893 104.962 82.0214 101.255 83.8751L106.621 94.6082L111.988 105.341C111.657 105.507 111.371 105.624 111.149 105.705C110.926 105.787 110.744 105.842 110.615 105.876C110.368 105.943 110.245 105.958 110.291 105.951C110.33 105.946 110.466 105.929 110.717 105.914C110.966 105.9 111.293 105.889 111.709 105.889V93.8893ZM106.621 94.6082L101.428 83.7899C98.7636 85.0691 96.4748 87.1629 94.9899 89.9544C93.5919 92.5828 93.2388 95.1942 93.2388 97.2073H105.239H117.239C117.239 97.9302 117.116 99.4632 116.179 101.225C115.155 103.15 113.557 104.59 111.814 105.427L106.621 94.6082ZM125.879 105.502L118.107 114.646V114.646L125.879 105.502ZM125.657 65.0228L116.33 57.4724L116.112 57.7503L125.657 65.0228ZM131.796 65.0228L122.25 72.2953L122.469 72.5732L131.796 65.0228ZM132.736 102.737H120.736C120.736 101.985 120.959 99.2508 123.471 96.8471C125.884 94.5373 128.434 94.4424 128.865 94.4424V106.442V118.442C131.877 118.442 136.362 117.73 140.065 114.185C143.867 110.546 144.736 105.959 144.736 102.737H132.736ZM128.865 106.442V94.4424C129.602 94.4424 131.644 94.6536 133.65 96.359L125.879 105.502L118.107 114.646C121.588 117.604 125.621 118.442 128.865 118.442V106.442ZM125.879 105.502L133.65 96.359C134.809 97.3439 135.669 98.5806 136.191 99.8843C136.686 101.121 136.773 102.153 136.773 102.737H124.773H112.773C112.773 106.494 114.021 111.172 118.107 114.646L125.879 105.502ZM124.773 102.737H136.773V68.1749H124.773H112.773V102.737H124.773ZM124.773 68.1749H136.773C136.773 68.5322 136.695 70.3365 135.203 72.2953L125.657 65.0228L116.112 57.7503C113.44 61.2575 112.773 65.1631 112.773 68.1749H124.773ZM125.657 65.0228L134.984 72.5732C132.458 75.6943 129.27 75.8615 128.754 75.8615V63.8615V51.8615C125.363 51.8615 120.111 52.8028 116.33 57.4724L125.657 65.0228ZM128.754 63.8615V75.8615C128.306 75.8615 124.859 75.7194 122.25 72.2953L131.796 65.0228L141.341 57.7503C137.552 52.7778 132.078 51.8615 128.754 51.8615V63.8615ZM131.796 65.0228L122.469 72.5732C120.866 70.5935 120.736 68.6801 120.736 68.1749H132.736H144.736C144.736 65.0153 143.979 61.0004 141.123 57.4724L131.796 65.0228ZM132.736 68.1749H120.736V102.737H132.736H144.736V68.1749H132.736ZM139.395 105.502L131.623 114.646V114.646L139.395 105.502ZM139.173 65.0228L129.847 57.4724L129.628 57.7503L139.173 65.0228ZM145.312 65.0228L135.767 72.2953L135.985 72.5732L145.312 65.0228ZM146.252 102.737H134.252C134.252 101.985 134.475 99.2508 136.987 96.8471C139.4 94.5373 141.95 94.4424 142.381 94.4424V106.442V118.442C145.393 118.442 149.878 117.73 153.582 114.185C157.383 110.546 158.252 105.959 158.252 102.737H146.252ZM142.381 106.442V94.4424C143.118 94.4424 145.16 94.6536 147.166 96.359L139.395 105.502L131.623 114.646C135.104 117.604 139.137 118.442 142.381 118.442V106.442ZM139.395 105.502L147.166 96.359C148.325 97.3439 149.185 98.5806 149.707 99.8843C150.202 101.121 150.289 102.153 150.289 102.737H138.289H126.289C126.289 106.494 127.537 111.172 131.623 114.646L139.395 105.502ZM138.289 102.737H150.289V68.1749H138.289H126.289V102.737H138.289ZM138.289 68.1749H150.289C150.289 68.5322 150.211 70.3365 148.719 72.2953L139.173 65.0228L129.628 57.7503C126.956 61.2575 126.289 65.1631 126.289 68.1749H138.289ZM139.173 65.0228L148.5 72.5732C145.974 75.6943 142.786 75.8615 142.27 75.8615V63.8615V51.8615C138.879 51.8615 133.627 52.8028 129.847 57.4724L139.173 65.0228ZM142.27 63.8615V75.8615C141.822 75.8615 138.375 75.7194 135.767 72.2953L145.312 65.0228L154.857 57.7503C151.068 52.7778 145.594 51.8615 142.27 51.8615V63.8615ZM145.312 65.0228L135.985 72.5732C134.382 70.5935 134.252 68.6801 134.252 68.1749H146.252H158.252C158.252 65.0153 157.495 61.0004 154.639 57.4724L145.312 65.0228ZM146.252 68.1749H134.252V102.737H146.252H158.252V68.1749H146.252ZM155.68 104.618L149.587 114.956L149.667 115.003L155.68 104.618ZM151.256 99.5852L140.101 104.009L140.167 104.173L151.256 99.5852ZM153.357 81.281L161.772 89.8361L161.842 89.7662L153.357 81.281ZM168.509 79.069L163.699 90.0628V90.0629L168.509 79.069ZM172.657 82.387L162.79 89.2175L162.874 89.3374L172.657 82.387ZM158.334 96.3778V84.3778L146.715 99.3764L158.334 96.3778ZM159.772 99.0875L151.286 107.573L151.77 108.03L159.772 99.0875ZM165.744 99.8617L163.533 88.0672V88.0672L165.744 99.8617ZM167.403 99.5299L165.05 87.7629L164.889 87.7963L167.403 99.5299ZM171.661 99.917L165.301 110.093L165.778 110.376L171.661 99.917ZM170.555 105.392L176.28 115.938L176.383 115.882L170.555 105.392ZM157.947 92.2856H145.947L167.652 99.3437L157.947 92.2856ZM158.942 91.5114L162.39 103.005L163.399 102.653L158.942 91.5114ZM165.136 90.6819L170.502 101.415L170.687 101.321L165.136 90.6819ZM165.246 85.1519L156.761 93.6372L156.971 93.8416L165.246 85.1519ZM159.108 85.7049L169.043 92.4351V92.4351L159.108 85.7049ZM164.362 106.442V94.4424C163.154 94.4424 162.36 94.3406 161.895 94.2428C161.432 94.1455 161.431 94.0813 161.692 94.2324L155.68 104.618L149.667 115.003C154.306 117.688 159.572 118.442 164.362 118.442V106.442ZM155.68 104.618L161.772 94.279C161.755 94.269 161.877 94.3407 162.038 94.5239C162.202 94.7108 162.301 94.8925 162.344 94.997L151.256 99.5852L140.167 104.173C142.086 108.81 145.363 112.467 149.587 114.956L155.68 104.618ZM151.256 99.5852L162.411 95.1617C162.221 94.6846 161.984 93.7793 161.984 92.2303H149.984H137.984C137.984 96.2114 138.594 100.209 140.101 104.009L151.256 99.5852ZM149.984 92.2303H161.984C161.984 90.5126 162.18 89.5829 162.295 89.2104C162.394 88.8891 162.335 89.2818 161.772 89.8361L153.357 81.281L144.942 72.7258C139.331 78.2445 137.984 85.8213 137.984 92.2303H149.984ZM153.357 81.281L161.842 89.7662C161.802 89.8061 161.738 89.8606 161.656 89.913C161.575 89.9652 161.514 89.9909 161.494 89.9982C161.453 90.0135 161.708 89.9077 162.426 89.9077V77.9077V65.9077C156.108 65.9077 149.799 67.868 144.872 72.7957L153.357 81.281ZM162.426 77.9077V89.9077C163.356 89.9077 163.698 90.0625 163.699 90.0628L168.509 79.069L173.319 68.0751C169.781 66.5271 166.068 65.9077 162.426 65.9077V77.9077ZM168.509 79.069L163.699 90.0629C163.708 90.0667 163.577 90.0096 163.377 89.8495C163.171 89.6845 162.964 89.4677 162.79 89.2175L172.657 82.387L182.523 75.5564C180.131 72.1009 176.908 69.6451 173.319 68.0751L168.509 79.069ZM172.657 82.387L162.874 89.3374C162.564 88.9002 162.363 88.4521 162.252 88.0691C162.146 87.7031 162.15 87.4972 162.15 87.5298H174.15H186.15C186.15 83.4716 185.122 79.2134 182.439 75.4365L172.657 82.387ZM174.15 87.5298H162.15C162.15 87.582 162.143 87.0502 162.522 86.2522C162.93 85.3936 163.543 84.737 164.105 84.3431C164.589 84.0029 164.782 84.0331 164.324 84.1402C163.864 84.2479 162.979 84.3778 161.541 84.3778V96.3778V108.378C166.78 108.378 172.851 107.525 177.891 103.989C183.706 99.9075 186.15 93.7184 186.15 87.5298H174.15ZM161.541 96.3778V84.3778H158.334V96.3778V108.378H161.541V96.3778ZM158.334 96.3778L146.715 99.3764C147.409 102.067 148.763 105.049 151.286 107.573L159.772 99.0875L168.257 90.6022C169.454 91.799 169.849 92.9746 169.953 93.3793L158.334 96.3778ZM159.772 99.0875L151.77 108.03C155.896 111.722 160.95 112.028 163.422 112.028V100.028V88.0276C163.213 88.0276 163.543 88.0019 164.203 88.1719C164.855 88.3398 166.293 88.8202 167.773 90.1446L159.772 99.0875ZM163.422 100.028V112.028C164.739 112.028 166.338 111.96 167.956 111.656L165.744 99.8617L163.533 88.0672C163.671 88.0413 163.769 88.0281 163.818 88.0221C163.869 88.016 163.886 88.0152 163.866 88.0166C163.847 88.018 163.8 88.0209 163.723 88.0234C163.647 88.0258 163.547 88.0276 163.422 88.0276V100.028ZM165.744 99.8617L167.956 111.656C168.633 111.529 169.288 111.398 169.918 111.264L167.403 99.5299L164.889 87.7963C164.486 87.8826 164.035 87.9731 163.533 88.0672L165.744 99.8617ZM167.403 99.5299L169.757 111.297C169.558 111.337 169.416 111.353 169.343 111.359C169.269 111.366 169.246 111.364 169.283 111.364V99.364V87.364C167.974 87.364 166.537 87.4655 165.05 87.7629L167.403 99.5299ZM169.283 99.364V111.364C168.95 111.364 167.272 111.325 165.301 110.093L171.661 99.917L178.021 89.741C174.871 87.7721 171.608 87.364 169.283 87.364V99.364ZM171.661 99.917L165.778 110.376C163.467 109.076 162.017 107.135 161.265 105.348C160.594 103.754 160.546 102.479 160.546 102.018H172.546H184.546C184.546 99.2996 183.782 92.967 177.544 89.4581L171.661 99.917ZM172.546 102.018H160.546C160.546 100.972 160.793 99.4563 161.714 97.8963C162.633 96.3391 163.833 95.399 164.728 94.9018L170.555 105.392L176.383 115.882C178.605 114.647 180.8 112.776 182.383 110.094C183.967 107.41 184.546 104.576 184.546 102.018H172.546ZM170.555 105.392L164.83 94.8455C165.307 94.5865 165.675 94.4566 165.856 94.3999C166.04 94.342 166.111 94.3353 166.032 94.3488C165.956 94.3616 165.782 94.3864 165.491 94.4072C165.202 94.4279 164.829 94.4424 164.362 94.4424V106.442V118.442C167.659 118.442 172.25 118.126 176.28 115.938L170.555 105.392ZM157.947 92.2856L167.652 99.3437C166.871 100.417 165.206 102.161 162.39 103.005L158.942 91.5114L155.494 80.0175C151.941 81.0833 149.612 83.3435 148.242 85.2276L157.947 92.2856ZM158.942 91.5114L163.399 102.653C162.328 103.081 161.492 103.207 161.183 103.247C160.821 103.294 160.621 103.29 160.657 103.29V91.2902V79.2902C159.526 79.2902 157.057 79.341 154.486 80.3697L158.942 91.5114ZM160.657 91.2902V103.29C162.07 103.29 163.564 103.227 165.023 103.029C166.331 102.851 168.395 102.469 170.502 101.415L165.136 90.6819L159.769 79.9488C160.49 79.5884 161.061 79.4182 161.337 79.3456C161.49 79.305 161.606 79.2806 161.677 79.2671C161.749 79.2534 161.789 79.2478 161.793 79.2473C161.795 79.247 161.704 79.2591 161.498 79.2705C161.295 79.2817 161.018 79.2902 160.657 79.2902V91.2902ZM165.136 90.6819L170.687 101.321C173.03 100.098 175.168 98.1762 176.615 95.5333C178.01 92.9865 178.408 90.426 178.408 88.3593H166.408H154.408C154.408 87.3987 154.594 85.7783 155.565 84.0057C156.588 82.137 158.089 80.8234 159.585 80.0429L165.136 90.6819ZM166.408 88.3593H178.408C178.408 84.7419 177.351 80.1082 173.522 76.4623L165.246 85.1519L156.971 93.8416C154.691 91.6703 154.408 89.1749 154.408 88.3593H166.408ZM165.246 85.1519L173.732 76.6667C170.521 73.4564 166.405 71.9907 162.316 71.9907V83.9906V95.9906C161.577 95.9906 160.593 95.8654 159.513 95.4371C158.414 95.0019 157.483 94.359 156.761 93.6372L165.246 85.1519ZM162.316 83.9906V71.9907C156.914 71.9907 152.148 74.5837 149.173 78.9748L159.108 85.7049L169.043 92.4351C168.491 93.2505 167.556 94.2496 166.147 95.0024C164.733 95.7582 163.356 95.9906 162.316 95.9906V83.9906ZM159.108 85.7049L149.173 78.9748C147.433 81.5433 146.748 84.2629 146.42 86.1218C146.064 88.1405 145.947 90.2499 145.947 92.2856H157.947H169.947C169.947 91.7073 169.964 91.2505 169.989 90.9015C170.014 90.5477 170.044 90.3547 170.055 90.2927C170.067 90.221 170.045 90.3826 169.933 90.7038C169.826 91.0123 169.571 91.6556 169.043 92.4351L159.108 85.7049ZM179.459 102.571L170.539 110.599L170.602 110.669L179.459 102.571ZM177.412 83.327L188.186 88.6122V88.6122L177.412 83.327ZM181.394 79.1796L186.571 90.0052L186.669 89.9582L181.394 79.1796ZM192.012 78.6266L196.41 67.4617L196.41 67.4617L192.012 78.6266ZM194.887 81.0598L184.656 87.3305L206.271 77.265L194.887 81.0598ZM194.279 78.9031L182.426 80.7746L182.565 81.5062L194.279 78.9031ZM194.002 76.4699L182.012 76.9495L182.041 77.4268L194.002 76.4699ZM198.371 102.737L207.31 110.743V110.743L198.371 102.737ZM192.288 98.1474L182.918 90.6511L182.765 90.8462L192.288 98.1474ZM193.007 87.3639L181.663 91.2758L181.838 91.7518L193.007 87.3639ZM191.348 85.1519L185.565 95.6665L185.565 95.6665L191.348 85.1519ZM186.039 85.1519L191.822 95.6665V95.6665L186.039 85.1519ZM184.325 87.3639L173.105 83.1081L173.024 83.3279L184.325 87.3639ZM185.044 98.1474L175.521 105.449L175.673 105.644L185.044 98.1474ZM189.081 106.442V94.4424C188.326 94.4424 188.069 94.3242 188.112 94.3418C188.13 94.349 188.179 94.3719 188.238 94.4128C188.296 94.4534 188.322 94.4824 188.315 94.4742L179.459 102.571L170.602 110.669C175.605 116.141 182.247 118.442 189.081 118.442V106.442ZM179.459 102.571L188.378 94.5438C188.751 94.9581 187.975 94.5202 187.975 91.2349H175.975H163.975C163.975 97.9037 165.521 105.023 170.539 110.599L179.459 102.571ZM175.975 91.2349H187.975C187.975 90.1333 188.056 89.3821 188.141 88.9161C188.226 88.4463 188.291 88.3977 188.186 88.6122L177.412 83.327L166.639 78.042C164.561 82.2773 163.975 86.9579 163.975 91.2349H175.975ZM177.412 83.327L188.186 88.6122C188.193 88.5985 188.085 88.8213 187.783 89.1351C187.468 89.4639 187.051 89.776 186.571 90.0052L181.394 79.1796L176.217 68.354C171.712 70.5085 168.59 74.0644 166.639 78.042L177.412 83.327ZM181.394 79.1796L186.669 89.9582C186.635 89.9744 186.637 89.9672 186.704 89.9528C186.775 89.9373 186.95 89.9077 187.256 89.9077V77.9077V65.9077C183.487 65.9077 179.693 66.6522 176.119 68.401L181.394 79.1796ZM187.256 77.9077V89.9077C187.501 89.9077 187.694 89.9152 187.841 89.9252C187.989 89.9352 188.078 89.9468 188.117 89.9526C188.155 89.9584 188.129 89.9563 188.048 89.9355C187.967 89.9148 187.817 89.8716 187.613 89.7915L192.012 78.6266L196.41 67.4617C193.279 66.2284 190.042 65.9077 187.256 65.9077V77.9077ZM192.012 78.6266L187.613 89.7915C187.053 89.5707 186.454 89.2308 185.892 88.7549C185.332 88.2813 184.928 87.7745 184.656 87.3305L194.887 81.0598L205.118 74.789C203.093 71.4849 200.115 68.9214 196.41 67.4617L192.012 78.6266ZM194.887 81.0598L206.271 77.265C206.119 76.8074 206.036 76.4907 205.993 76.2999L194.279 78.9031L182.565 81.5062C182.817 82.6426 183.139 83.7637 183.503 84.8545L194.887 81.0598ZM194.279 78.9031L206.132 77.0315C206.081 76.7092 206.02 76.2146 205.964 75.5129L194.002 76.4699L182.041 77.4268C182.132 78.5684 182.255 79.696 182.426 80.7746L194.279 78.9031ZM194.002 76.4699L205.993 75.9902C205.965 75.2906 205.947 74.286 205.947 72.9307H193.947H181.947C181.947 74.4509 181.966 75.8058 182.012 76.9495L194.002 76.4699ZM193.947 72.9307H205.947V68.1749H193.947H181.947V72.9307H193.947ZM193.947 68.1749H205.947C205.947 68.178 205.985 70.4199 203.976 72.7589C201.667 75.4471 198.783 75.8615 197.652 75.8615V63.8615V51.8615C194.051 51.8615 189.315 52.9948 185.771 57.1207C182.526 60.8976 181.947 65.2962 181.947 68.1749H193.947ZM197.652 63.8615V75.8615C196.937 75.8615 194.252 75.6327 191.918 73.1397C189.725 70.7962 189.689 68.3963 189.689 68.1749H201.689H213.689C213.689 65.0779 212.98 60.5213 209.441 56.74C205.762 52.8091 201.059 51.8615 197.652 51.8615V63.8615ZM201.689 68.1749H189.689V91.5667H201.689H213.689V68.1749H201.689ZM201.689 91.5667H189.689C189.689 93.206 189.502 94.1832 189.356 94.6753C189.222 95.1264 189.168 95.0261 189.432 94.7319L198.371 102.737L207.31 110.743C212.279 105.195 213.689 98.0591 213.689 91.5667H201.689ZM198.371 102.737L189.432 94.7319C189.481 94.6767 189.565 94.5973 189.678 94.5179C189.792 94.4387 189.889 94.3918 189.944 94.3698C190.056 94.3253 189.838 94.4424 189.081 94.4424V106.442V118.442C195.728 118.442 202.368 116.262 207.31 110.743L198.371 102.737ZM188.694 99.8064V111.806C193.499 111.806 198.418 109.874 201.811 105.449L192.288 98.1474L182.765 90.8462C183.457 89.9436 184.457 89.0814 185.725 88.4962C186.952 87.9295 188.03 87.8064 188.694 87.8064V99.8064ZM192.288 98.1474L201.659 105.644C203.695 103.098 204.581 100.317 205.017 98.2839C205.473 96.1556 205.615 93.9811 205.615 91.9538H193.615H181.615C181.615 92.4236 181.598 92.7675 181.577 93.0018C181.557 93.2408 181.537 93.3137 181.55 93.2552C181.561 93.2033 181.623 92.9267 181.799 92.5045C181.976 92.0832 182.313 91.4073 182.918 90.6511L192.288 98.1474ZM193.615 91.9538H205.615C205.615 89.4582 205.412 86.1226 204.176 82.9761L193.007 87.3639L181.838 91.7518C181.699 91.3972 181.629 91.1344 181.598 91.0033C181.566 90.869 181.561 90.8153 181.567 90.8622C181.573 90.9069 181.586 91.019 181.597 91.2092C181.607 91.3981 181.615 91.6443 181.615 91.9538H193.615ZM193.007 87.3639L204.351 83.452C203.351 80.551 201.263 76.9102 197.131 74.6374L191.348 85.1519L185.565 95.6665C182.907 94.2048 181.926 92.0387 181.663 91.2758L193.007 87.3639ZM191.348 85.1519L197.131 74.6374C194.263 73.0598 191.294 72.5436 188.694 72.5436V84.5436V96.5436C188.158 96.5436 186.959 96.433 185.565 95.6665L191.348 85.1519ZM188.694 84.5436V72.5436C186.093 72.5436 183.124 73.0598 180.256 74.6374L186.039 85.1519L191.822 95.6665C190.429 96.433 189.23 96.5436 188.694 96.5436V84.5436ZM186.039 85.1519L180.256 74.6374C176.249 76.8414 174.158 80.3321 173.105 83.1081L184.325 87.3639L195.545 91.6198C195.303 92.2576 194.355 94.2735 191.822 95.6665L186.039 85.1519ZM184.325 87.3639L173.024 83.3279C171.953 86.3268 171.772 89.5132 171.772 91.9538H183.772H195.772C195.772 91.6263 195.779 91.3593 195.79 91.1473C195.801 90.934 195.815 90.7951 195.824 90.721C195.833 90.6446 195.834 90.6647 195.813 90.7631C195.792 90.8578 195.739 91.0825 195.626 91.4L184.325 87.3639ZM183.772 91.9538H171.772C171.772 93.9587 171.907 96.0968 172.335 98.1834C172.742 100.163 173.573 102.909 175.521 105.449L185.044 98.1474L194.567 90.8462C195.149 91.6055 195.465 92.2721 195.625 92.6703C195.786 93.0716 195.838 93.3256 195.845 93.3556C195.852 93.3928 195.831 93.3002 195.81 93.0449C195.789 92.794 195.772 92.4356 195.772 91.9538H183.772ZM185.044 98.1474L175.673 105.644C179.067 109.886 183.888 111.806 188.694 111.806V99.8064V87.8064C189.362 87.8064 190.406 87.931 191.585 88.4673C192.797 89.018 193.751 89.8216 194.414 90.6511L185.044 98.1474Z" fill="#FADE26" mask="url(#path-4-outside-1_863_9437)"/>
<mask id="path-6-outside-2_863_9437" maskUnits="userSpaceOnUse" x="21.0186" y="1" width="115" height="68" fill="black">
<rect fill="white" x="21.0186" y="1" width="115" height="68"/>
<path d="M37.8158 56.3318C36.5624 56.3318 35.567 56.0553 34.8296 55.5023C34.0923 54.9124 33.7236 54.0829 33.7236 53.0138V29.1243C33.7236 24.8477 34.8481 21.7141 37.0969 19.7233C39.3827 17.6956 42.9403 16.6818 47.7698 16.6818C51.7145 16.6818 54.7192 17.6772 56.7837 19.668C58.8851 21.6219 59.9358 24.4606 59.9358 28.1842C59.9358 29.4745 59.8989 30.728 59.8252 31.9446C59.7515 33.1243 59.6409 33.9538 59.4934 34.433C58.9404 36.4607 57.9266 38.0091 56.4519 39.0782C58.4427 40.7372 59.4381 42.6543 59.4381 44.8294V53.0138C59.4381 55.2995 58.1662 56.4424 55.6224 56.4424C54.3689 56.4424 53.3735 56.1659 52.6362 55.6129C51.8989 55.023 51.5302 54.1567 51.5302 53.0138V45.7142C51.5302 43.7234 51.2168 42.3225 50.5901 41.5114C50.0002 40.7004 48.7836 40.2948 46.9403 40.2948C44.9495 40.2948 43.567 40.7372 42.7928 41.622C42.0555 42.47 41.6868 44.0552 41.6868 46.3778V53.0138C41.6868 55.2258 40.3965 56.3318 37.8158 56.3318ZM41.2444 35.7602C42.1661 34.986 42.9772 34.4883 43.6776 34.2671C44.415 34.0091 45.4657 33.8801 46.8297 33.8801C48.673 33.8801 50.0187 33.7879 50.8666 33.6035C51.7514 33.4192 52.3228 33.0321 52.5809 32.4423C52.839 31.8524 52.968 30.9307 52.968 29.6773C52.968 27.1703 52.5809 25.4376 51.8067 24.4791C51.0694 23.4837 49.7237 22.986 47.7698 22.986C45.5947 22.986 44.0463 23.4837 43.1246 24.4791C42.2398 25.4745 41.7974 27.2072 41.7974 29.6773C41.7974 30.8939 41.7421 31.9814 41.6315 32.94C41.5578 33.8616 41.4288 34.8017 41.2444 35.7602ZM68.4973 23.1519C67.1333 23.1519 65.9904 22.7095 65.0687 21.8247C64.1471 20.9399 63.6862 19.8523 63.6862 18.562C63.6862 17.1979 64.1471 16.0735 65.0687 15.1887C65.9904 14.3039 67.1333 13.8615 68.4973 13.8615C69.8983 13.8615 71.0411 14.3039 71.9259 15.1887C72.8476 16.0735 73.3084 17.1979 73.3084 18.562C73.3084 19.8523 72.8476 20.9399 71.9259 21.8247C71.0411 22.7095 69.8983 23.1519 68.4973 23.1519ZM72.4789 52.7373C72.4789 55.2074 71.1886 56.4424 68.6079 56.4424C67.3545 56.4424 66.3591 56.1475 65.6217 55.5576C64.8844 54.9309 64.5157 53.9908 64.5157 52.7373V31.6681C64.5157 30.4883 64.8107 29.5667 65.4005 28.9031C66.0273 28.2395 67.0595 27.9077 68.4973 27.9077C69.9351 27.9077 70.949 28.2395 71.5388 28.9031C72.1656 29.5667 72.4789 30.4883 72.4789 31.6681V52.7373ZM89.3748 56.4424C84.877 56.4424 81.5406 55.1521 79.3655 52.5714C77.1904 49.9539 76.1028 46.5069 76.1028 42.2303C76.1028 37.9538 77.1904 34.5068 79.3655 31.8893C81.5406 29.2349 84.877 27.9077 89.3748 27.9077C92.2135 27.9077 94.278 28.2026 95.5683 28.7925C96.8955 29.3823 97.5591 30.433 97.5591 31.9446C97.5591 33.0137 97.2642 33.7879 96.6743 34.2671C96.0845 34.7464 95.2918 34.986 94.2964 34.986C93.596 34.986 93.043 34.9307 92.6375 34.8201C92.2319 34.7095 91.7895 34.6174 91.3103 34.5436C90.8679 34.433 90.1674 34.3777 89.2089 34.3777C87.9185 34.3777 86.8863 34.7648 86.1121 35.539C85.3747 36.3132 84.8402 37.3086 84.5084 38.5252C84.2134 39.705 84.066 40.94 84.066 42.2303C84.066 43.4838 84.1766 44.7188 84.3978 45.9354C84.6558 47.1152 85.1535 48.0921 85.8909 48.8663C86.6282 49.6036 87.7526 49.9723 89.2642 49.9723C90.6651 49.9723 91.6974 49.8801 92.361 49.6958C93.0246 49.4746 93.6697 49.364 94.2964 49.364C95.2918 49.364 96.0845 49.5483 96.6743 49.917C97.2642 50.2488 97.5591 50.9493 97.5591 52.0184C97.5591 53.5299 96.8955 54.6544 95.5683 55.3917C94.278 56.0922 92.2135 56.4424 89.3748 56.4424ZM114.044 56.4424C110.357 56.4424 107.463 55.8341 105.362 54.6175C103.298 53.4009 101.823 51.7235 100.938 49.5852C100.09 47.447 99.6662 44.9953 99.6662 42.2303C99.6662 37.1427 100.791 33.493 103.039 31.281C105.288 29.0321 108.311 27.9077 112.109 27.9077C114.394 27.9077 116.422 28.2948 118.192 29.069C119.961 29.8432 121.344 30.9492 122.339 32.387C123.335 33.7879 123.832 35.5022 123.832 37.5298C123.832 43.4285 119.629 46.3778 111.224 46.3778H108.016C108.311 47.5207 108.791 48.4239 109.454 49.0875C110.155 49.7142 111.371 50.0276 113.104 50.0276C114.063 50.0276 114.837 49.9723 115.427 49.8617C116.016 49.7511 116.569 49.6405 117.086 49.5299C117.639 49.4193 118.265 49.364 118.966 49.364C119.961 49.364 120.754 49.5483 121.344 49.917C121.934 50.2488 122.229 50.9493 122.229 52.0184C122.229 53.5299 121.565 54.6544 120.238 55.3917C118.947 56.0922 116.883 56.4424 114.044 56.4424ZM107.629 42.2856C107.924 41.8801 108.256 41.622 108.625 41.5114C108.993 41.364 109.565 41.2902 110.339 41.2902C112.514 41.2902 114.007 41.0875 114.818 40.6819C115.666 40.2395 116.09 39.4653 116.09 38.3593C116.09 36.9584 115.703 35.8893 114.929 35.1519C114.155 34.3777 113.178 33.9906 111.998 33.9906C110.634 33.9906 109.565 34.5621 108.791 35.7049C108.016 36.8478 107.629 39.0414 107.629 42.2856Z"/>
</mask>
<path d="M37.8158 56.3318C36.5624 56.3318 35.567 56.0553 34.8296 55.5023C34.0923 54.9124 33.7236 54.0829 33.7236 53.0138V29.1243C33.7236 24.8477 34.8481 21.7141 37.0969 19.7233C39.3827 17.6956 42.9403 16.6818 47.7698 16.6818C51.7145 16.6818 54.7192 17.6772 56.7837 19.668C58.8851 21.6219 59.9358 24.4606 59.9358 28.1842C59.9358 29.4745 59.8989 30.728 59.8252 31.9446C59.7515 33.1243 59.6409 33.9538 59.4934 34.433C58.9404 36.4607 57.9266 38.0091 56.4519 39.0782C58.4427 40.7372 59.4381 42.6543 59.4381 44.8294V53.0138C59.4381 55.2995 58.1662 56.4424 55.6224 56.4424C54.3689 56.4424 53.3735 56.1659 52.6362 55.6129C51.8989 55.023 51.5302 54.1567 51.5302 53.0138V45.7142C51.5302 43.7234 51.2168 42.3225 50.5901 41.5114C50.0002 40.7004 48.7836 40.2948 46.9403 40.2948C44.9495 40.2948 43.567 40.7372 42.7928 41.622C42.0555 42.47 41.6868 44.0552 41.6868 46.3778V53.0138C41.6868 55.2258 40.3965 56.3318 37.8158 56.3318ZM41.2444 35.7602C42.1661 34.986 42.9772 34.4883 43.6776 34.2671C44.415 34.0091 45.4657 33.8801 46.8297 33.8801C48.673 33.8801 50.0187 33.7879 50.8666 33.6035C51.7514 33.4192 52.3228 33.0321 52.5809 32.4423C52.839 31.8524 52.968 30.9307 52.968 29.6773C52.968 27.1703 52.5809 25.4376 51.8067 24.4791C51.0694 23.4837 49.7237 22.986 47.7698 22.986C45.5947 22.986 44.0463 23.4837 43.1246 24.4791C42.2398 25.4745 41.7974 27.2072 41.7974 29.6773C41.7974 30.8939 41.7421 31.9814 41.6315 32.94C41.5578 33.8616 41.4288 34.8017 41.2444 35.7602ZM68.4973 23.1519C67.1333 23.1519 65.9904 22.7095 65.0687 21.8247C64.1471 20.9399 63.6862 19.8523 63.6862 18.562C63.6862 17.1979 64.1471 16.0735 65.0687 15.1887C65.9904 14.3039 67.1333 13.8615 68.4973 13.8615C69.8983 13.8615 71.0411 14.3039 71.9259 15.1887C72.8476 16.0735 73.3084 17.1979 73.3084 18.562C73.3084 19.8523 72.8476 20.9399 71.9259 21.8247C71.0411 22.7095 69.8983 23.1519 68.4973 23.1519ZM72.4789 52.7373C72.4789 55.2074 71.1886 56.4424 68.6079 56.4424C67.3545 56.4424 66.3591 56.1475 65.6217 55.5576C64.8844 54.9309 64.5157 53.9908 64.5157 52.7373V31.6681C64.5157 30.4883 64.8107 29.5667 65.4005 28.9031C66.0273 28.2395 67.0595 27.9077 68.4973 27.9077C69.9351 27.9077 70.949 28.2395 71.5388 28.9031C72.1656 29.5667 72.4789 30.4883 72.4789 31.6681V52.7373ZM89.3748 56.4424C84.877 56.4424 81.5406 55.1521 79.3655 52.5714C77.1904 49.9539 76.1028 46.5069 76.1028 42.2303C76.1028 37.9538 77.1904 34.5068 79.3655 31.8893C81.5406 29.2349 84.877 27.9077 89.3748 27.9077C92.2135 27.9077 94.278 28.2026 95.5683 28.7925C96.8955 29.3823 97.5591 30.433 97.5591 31.9446C97.5591 33.0137 97.2642 33.7879 96.6743 34.2671C96.0845 34.7464 95.2918 34.986 94.2964 34.986C93.596 34.986 93.043 34.9307 92.6375 34.8201C92.2319 34.7095 91.7895 34.6174 91.3103 34.5436C90.8679 34.433 90.1674 34.3777 89.2089 34.3777C87.9185 34.3777 86.8863 34.7648 86.1121 35.539C85.3747 36.3132 84.8402 37.3086 84.5084 38.5252C84.2134 39.705 84.066 40.94 84.066 42.2303C84.066 43.4838 84.1766 44.7188 84.3978 45.9354C84.6558 47.1152 85.1535 48.0921 85.8909 48.8663C86.6282 49.6036 87.7526 49.9723 89.2642 49.9723C90.6651 49.9723 91.6974 49.8801 92.361 49.6958C93.0246 49.4746 93.6697 49.364 94.2964 49.364C95.2918 49.364 96.0845 49.5483 96.6743 49.917C97.2642 50.2488 97.5591 50.9493 97.5591 52.0184C97.5591 53.5299 96.8955 54.6544 95.5683 55.3917C94.278 56.0922 92.2135 56.4424 89.3748 56.4424ZM114.044 56.4424C110.357 56.4424 107.463 55.8341 105.362 54.6175C103.298 53.4009 101.823 51.7235 100.938 49.5852C100.09 47.447 99.6662 44.9953 99.6662 42.2303C99.6662 37.1427 100.791 33.493 103.039 31.281C105.288 29.0321 108.311 27.9077 112.109 27.9077C114.394 27.9077 116.422 28.2948 118.192 29.069C119.961 29.8432 121.344 30.9492 122.339 32.387C123.335 33.7879 123.832 35.5022 123.832 37.5298C123.832 43.4285 119.629 46.3778 111.224 46.3778H108.016C108.311 47.5207 108.791 48.4239 109.454 49.0875C110.155 49.7142 111.371 50.0276 113.104 50.0276C114.063 50.0276 114.837 49.9723 115.427 49.8617C116.016 49.7511 116.569 49.6405 117.086 49.5299C117.639 49.4193 118.265 49.364 118.966 49.364C119.961 49.364 120.754 49.5483 121.344 49.917C121.934 50.2488 122.229 50.9493 122.229 52.0184C122.229 53.5299 121.565 54.6544 120.238 55.3917C118.947 56.0922 116.883 56.4424 114.044 56.4424ZM107.629 42.2856C107.924 41.8801 108.256 41.622 108.625 41.5114C108.993 41.364 109.565 41.2902 110.339 41.2902C112.514 41.2902 114.007 41.0875 114.818 40.6819C115.666 40.2395 116.09 39.4653 116.09 38.3593C116.09 36.9584 115.703 35.8893 114.929 35.1519C114.155 34.3777 113.178 33.9906 111.998 33.9906C110.634 33.9906 109.565 34.5621 108.791 35.7049C108.016 36.8478 107.629 39.0414 107.629 42.2856Z" fill="#3F3833"/>
<path d="M34.8296 55.5023L27.3333 64.8727L27.6296 65.1023L34.8296 55.5023ZM37.0969 19.7233L45.051 28.7084L45.0603 28.7002L37.0969 19.7233ZM56.7837 19.668L48.4541 28.3061L48.6124 28.456L56.7837 19.668ZM59.8252 31.9446L71.8018 32.6931L71.8032 32.6705L59.8252 31.9446ZM59.4934 34.433L48.024 30.9041L47.9162 31.2756L59.4934 34.433ZM56.4519 39.0782L49.4083 29.3629L48.7697 48.2969L56.4519 39.0782ZM52.6362 55.6129L45.1399 64.9833L45.4362 65.2129L52.6362 55.6129ZM50.5901 41.5114L40.8853 48.5695L41.0947 48.8488L50.5901 41.5114ZM42.7928 41.622L33.7619 33.72L33.7376 33.7479L42.7928 41.622ZM41.2444 35.7602L29.4604 33.4941L48.9627 44.9487L41.2444 35.7602ZM43.6776 34.2672L47.2912 45.7101L47.6418 45.5935L43.6776 34.2672ZM50.8666 33.6035L48.4192 21.8558L48.3174 21.8774L50.8666 33.6035ZM51.8067 24.4791L42.164 31.6218L42.4714 32.0191L51.8067 24.4791ZM43.1246 24.4791L34.3195 16.3262L34.1557 16.5067L43.1246 24.4791ZM41.6315 32.9399L29.7106 31.5645L29.6697 31.983L41.6315 32.9399ZM37.8158 56.3318V44.3318C38.2371 44.3318 40.0569 44.4227 42.0296 45.9023L34.8296 55.5023L27.6296 65.1023C31.0771 67.6879 34.8877 68.3318 37.8158 68.3318V56.3318ZM34.8296 55.5023L42.326 46.1319C43.3946 46.9868 44.3384 48.1524 44.9659 49.5641C45.5738 50.932 45.7236 52.1643 45.7236 53.0138H33.7236H21.7236C21.7236 57.1829 23.3491 61.6854 27.3333 64.8727L34.8296 55.5023ZM33.7236 53.0138H45.7236V29.1243H33.7236H21.7236V53.0138H33.7236ZM33.7236 29.1243H45.7236C45.7236 28.5753 45.7601 28.1856 45.7987 27.9314C45.837 27.6786 45.8732 27.5878 45.8618 27.6195C45.8486 27.6563 45.7884 27.8099 45.6444 28.0287C45.497 28.2526 45.2976 28.4902 45.051 28.7084L37.0969 19.7233L29.1429 10.7381C23.3798 15.8399 21.7236 22.9093 21.7236 29.1243H33.7236ZM37.0969 19.7233L45.0603 28.7002C44.6031 29.1058 44.3612 29.0987 44.7682 28.9827C45.2088 28.8571 46.1484 28.6818 47.7698 28.6818V16.6818V4.68179C41.6255 4.68179 34.5819 5.91314 29.1336 10.7464L37.0969 19.7233ZM47.7698 16.6818V28.6818C48.7621 28.6818 49.1802 28.8103 49.2081 28.8195C49.2125 28.821 49.1206 28.7906 48.9682 28.7009C48.8124 28.6091 48.6322 28.4779 48.4541 28.3061L56.7837 19.668L65.1133 11.0299C60.084 6.18011 53.6366 4.68179 47.7698 4.68179V16.6818ZM56.7837 19.668L48.6124 28.456C48.4342 28.2903 48.2711 28.0976 48.1368 27.8933C48.0039 27.6912 47.9297 27.5246 47.8939 27.4279C47.8269 27.2467 47.9358 27.4282 47.9358 28.1842H59.9358H71.9358C71.9358 22.1737 70.1716 15.7305 64.955 10.88L56.7837 19.668ZM59.9358 28.1842H47.9358C47.9358 29.2464 47.9054 30.2573 47.8472 31.2186L59.8252 31.9446L71.8032 32.6705C71.8924 31.1986 71.9358 29.7026 71.9358 28.1842H59.9358ZM59.8252 31.9446L47.8486 31.196C47.8362 31.394 47.824 31.5496 47.8132 31.6674C47.8022 31.7869 47.7943 31.8499 47.7922 31.8655C47.7896 31.8854 47.7977 31.8187 47.8238 31.6865C47.8374 31.6176 47.8583 31.5181 47.8887 31.3935C47.9188 31.2701 47.9626 31.1037 48.024 30.9041L59.4934 34.433L70.9628 37.962C71.5693 35.9907 71.727 33.8907 71.8018 32.6931L59.8252 31.9446ZM59.4934 34.433L47.9162 31.2756C47.9262 31.2391 48.0113 30.9503 48.2788 30.5417C48.5581 30.1152 48.945 29.6988 49.4083 29.3629L56.4519 39.0782L63.4955 48.7936C67.5176 45.8775 69.9142 41.8306 71.0706 37.5905L59.4934 34.433ZM56.4519 39.0782L48.7697 48.2969C48.7801 48.3055 48.4095 47.9986 48.0416 47.2901C47.6459 46.5279 47.4381 45.6527 47.4381 44.8294H59.4381H71.4381C71.4381 38.4023 68.2818 33.316 64.1341 29.8596L56.4519 39.0782ZM59.4381 44.8294H47.4381V53.0138H59.4381H71.4381V44.8294H59.4381ZM59.4381 53.0138H47.4381C47.4381 51.9555 47.7915 49.0605 50.4637 46.6593C52.8919 44.4775 55.3426 44.4424 55.6224 44.4424V56.4424V68.4424C58.446 68.4424 62.8046 67.8359 66.5046 64.5112C70.4488 60.9672 71.4381 56.3578 71.4381 53.0138H59.4381ZM55.6224 56.4424V44.4424C56.0436 44.4424 57.8634 44.5333 59.8362 46.0129L52.6362 55.6129L45.4362 65.2129C48.8836 67.7985 52.6942 68.4424 55.6224 68.4424V56.4424ZM52.6362 55.6129L60.1325 46.2425C61.3093 47.1839 62.2533 48.4232 62.8486 49.8221C63.4163 51.1563 63.5302 52.3076 63.5302 53.0138H51.5302H39.5302C39.5302 56.9524 40.9527 61.6336 45.1399 64.9833L52.6362 55.6129ZM51.5302 53.0138H63.5302V45.7142H51.5302H39.5302V53.0138H51.5302ZM51.5302 45.7142H63.5302C63.5302 43.1984 63.28 38.3081 60.0855 34.1741L50.5901 41.5114L41.0947 48.8488C39.9921 47.422 39.6679 46.1625 39.5846 45.7899C39.4911 45.3721 39.5302 45.2885 39.5302 45.7142H51.5302ZM50.5901 41.5114L60.2949 34.4534C56.1072 28.6952 49.5611 28.2948 46.9403 28.2948V40.2948V52.2948C47.0864 52.2948 46.4633 52.3241 45.4405 51.9832C44.3386 51.6159 42.4248 50.6863 40.8853 48.5695L50.5901 41.5114ZM46.9403 40.2948V28.2948C43.7891 28.2948 37.9849 28.8937 33.7619 33.72L42.7928 41.622L51.8237 49.5241C50.4714 51.0696 48.9693 51.7672 48.0677 52.0557C47.2292 52.324 46.7593 52.2948 46.9403 52.2948V40.2948ZM42.7928 41.622L33.7376 33.7479C29.9057 38.1546 29.6868 43.7469 29.6868 46.3778H41.6868H53.6868C53.6868 45.7778 53.7415 45.7777 53.6514 46.1651C53.5775 46.4831 53.2116 47.9281 51.8481 49.4962L42.7928 41.622ZM41.6868 46.3778H29.6868V53.0138H41.6868H53.6868V46.3778H41.6868ZM41.6868 53.0138H29.6868C29.6868 51.7455 30.1433 48.7624 32.9096 46.3912C35.3219 44.3236 37.6703 44.3318 37.8158 44.3318V56.3318V68.3318C40.542 68.3318 44.826 67.787 48.5286 64.6134C52.5852 61.1362 53.6868 56.4941 53.6868 53.0138H41.6868ZM41.2444 35.7602L48.9627 44.9487C49.0822 44.8484 49.0322 44.9041 48.8202 45.0342C48.6223 45.1556 48.1022 45.454 47.2912 45.7101L43.6776 34.2672L40.0641 22.8242C37.2028 23.7277 34.9812 25.3495 33.5261 26.5718L41.2444 35.7602ZM43.6776 34.2672L47.6418 45.5935C47.2891 45.7169 47.0086 45.7871 46.8285 45.8261C46.6461 45.8656 46.5254 45.8819 46.4813 45.8873C46.4064 45.8965 46.5052 45.8801 46.8297 45.8801V33.8801V21.8801C44.966 21.8801 42.3355 22.0231 39.7134 22.9408L43.6776 34.2672ZM46.8297 33.8801V45.8801C48.7966 45.8801 51.2321 45.8044 53.4158 45.3297L50.8666 33.6035L48.3174 21.8774C48.4296 21.8531 48.5128 21.8382 48.5616 21.8301C48.5869 21.8259 48.6058 21.8231 48.6179 21.8213C48.63 21.8196 48.6363 21.8188 48.6366 21.8187C48.6369 21.8187 48.632 21.8193 48.6215 21.8205C48.6111 21.8216 48.5959 21.8232 48.5756 21.8251C48.5347 21.8289 48.4771 21.8338 48.4014 21.839C48.0796 21.861 47.5692 21.8801 46.8297 21.8801V33.8801ZM50.8666 33.6035L53.3141 45.3513C56.3528 44.7182 61.1881 42.7073 63.5748 37.2521L52.5809 32.4423L41.587 27.6324C42.4325 25.6999 43.7785 24.2223 45.2286 23.2399C46.5719 22.33 47.7802 21.9889 48.4192 21.8558L50.8666 33.6035ZM52.5809 32.4423L63.5748 37.2521C64.8653 34.3024 64.968 31.3142 64.968 29.6773H52.968H40.968C40.968 29.9247 40.9533 29.8867 40.9871 29.6448C41.0054 29.5144 41.0443 29.2771 41.1254 28.9605C41.2052 28.6489 41.3446 28.1865 41.587 27.6324L52.5809 32.4423ZM52.968 29.6773H64.968C64.968 26.801 64.6993 21.3433 61.142 16.939L51.8067 24.4791L42.4714 32.0191C41.8652 31.2686 41.5044 30.5785 41.2968 30.0975C41.0899 29.6181 41.0003 29.2657 40.9664 29.1139C40.9076 28.8506 40.968 28.9746 40.968 29.6773H52.968ZM51.8067 24.4791L61.4494 17.3363C57.3867 11.8517 51.2929 10.986 47.7698 10.986V22.986V34.986C47.7577 34.986 47.6014 34.9858 47.3314 34.9451C47.0617 34.9044 46.6256 34.8153 46.0817 34.6141C44.9215 34.185 43.3926 33.2803 42.164 31.6218L51.8067 24.4791ZM47.7698 22.986V10.986C44.2144 10.986 38.5693 11.7364 34.3195 16.3262L43.1246 24.4791L51.9297 32.632C50.7347 33.9226 49.4485 34.5267 48.6493 34.7836C47.9131 35.0202 47.536 34.986 47.7698 34.986V22.986ZM43.1246 24.4791L34.1557 16.5067C30.2241 20.9298 29.7974 26.4931 29.7974 29.6773H41.7974H53.7974C53.7974 29.0932 53.8565 29.101 53.7562 29.4938C53.6588 29.8754 53.2841 31.1121 52.0935 32.4514L43.1246 24.4791ZM41.7974 29.6773H29.7974C29.7974 30.5467 29.7571 31.1621 29.7106 31.5645L41.6315 32.9399L53.5524 34.3154C53.7272 32.8008 53.7974 31.241 53.7974 29.6773H41.7974ZM41.6315 32.9399L29.6697 31.983C29.633 32.4418 29.566 32.9445 29.4604 33.4941L41.2444 35.7602L53.0285 38.0264C53.2915 36.6589 53.4825 35.2814 53.5933 33.8969L41.6315 32.9399ZM65.0687 21.8247L73.3791 13.168V13.168L65.0687 21.8247ZM65.0687 15.1887L73.3791 23.8453V23.8453L65.0687 15.1887ZM71.9259 15.1887L63.4406 23.674L63.6155 23.8453L71.9259 15.1887ZM71.9259 21.8247L63.6155 13.168L63.4406 13.3394L71.9259 21.8247ZM65.6217 55.5576L57.85 64.7009L58.1254 64.928L65.6217 55.5576ZM65.4005 28.9031L56.6764 20.6636L56.4316 20.9307L65.4005 28.9031ZM71.5388 28.9031L62.5699 36.8754L62.8147 37.1426L71.5388 28.9031ZM68.4973 23.1519V11.1519C69.1298 11.1519 69.9912 11.2585 70.9491 11.6293C71.9212 12.0056 72.7442 12.5585 73.3791 13.168L65.0687 21.8247L56.7584 30.4813C60.0758 33.6661 64.2662 35.1519 68.4973 35.1519V23.1519ZM65.0687 21.8247L73.3791 13.168C73.9942 13.7585 74.6268 14.5919 75.0809 15.6636C75.5339 16.7328 75.6862 17.7483 75.6862 18.562H63.6862H51.6862C51.6862 23.0831 53.4531 27.3083 56.7584 30.4813L65.0687 21.8247ZM63.6862 18.562H75.6862C75.6862 19.25 75.5653 20.1978 75.1355 21.2463C74.6989 22.3117 74.0622 23.1896 73.3791 23.8453L65.0687 15.1887L56.7584 6.53204C53.3074 9.84492 51.6862 14.1769 51.6862 18.562H63.6862ZM65.0687 15.1887L73.3791 23.8453C72.7442 24.4549 71.9212 25.0078 70.9491 25.3841C69.9912 25.7549 69.1298 25.8615 68.4973 25.8615V13.8615V1.8615C64.2662 1.8615 60.0758 3.34726 56.7584 6.53204L65.0687 15.1887ZM68.4973 13.8615V25.8615C67.9261 25.8615 67.0665 25.7686 66.0732 25.3841C65.0537 24.9894 64.1538 24.3871 63.4406 23.674L71.9259 15.1887L80.4112 6.70341C76.9979 3.29014 72.6648 1.8615 68.4973 1.8615V13.8615ZM71.9259 15.1887L63.6155 23.8453C62.9324 23.1896 62.2958 22.3117 61.8591 21.2463C61.4294 20.1978 61.3084 19.25 61.3084 18.562H73.3084H85.3084C85.3084 14.1769 83.6872 9.84492 80.2363 6.53204L71.9259 15.1887ZM73.3084 18.562H61.3084C61.3084 17.7483 61.4607 16.7328 61.9138 15.6636C62.3679 14.5919 63.0005 13.7585 63.6155 13.168L71.9259 21.8247L80.2363 30.4813C83.5415 27.3083 85.3084 23.0831 85.3084 18.562H73.3084ZM71.9259 21.8247L63.4406 13.3394C64.1538 12.6263 65.0537 12.0239 66.0732 11.6293C67.0665 11.2448 67.9261 11.1519 68.4973 11.1519V23.1519V35.1519C72.6648 35.1519 76.9979 33.7232 80.4112 30.31L71.9259 21.8247ZM72.4789 52.7373H60.4789C60.4789 51.9855 60.7023 49.2508 63.2137 46.8471C65.6269 44.5373 68.1767 44.4424 68.6079 44.4424V56.4424V68.4424C71.6198 68.4424 76.1051 67.73 79.8087 64.1851C83.6103 60.5464 84.4789 55.9592 84.4789 52.7373H72.4789ZM68.6079 56.4424V44.4424C69.1847 44.4424 71.1209 44.5894 73.1181 46.1872L65.6217 55.5576L58.1254 64.928C61.5973 67.7055 65.5242 68.4424 68.6079 68.4424V56.4424ZM65.6217 55.5576L73.3935 46.4143C74.6003 47.4401 75.4578 48.7109 75.9639 50.0014C76.4414 51.2191 76.5157 52.214 76.5157 52.7373H64.5157H52.5157C52.5157 56.397 53.6839 61.1597 57.85 64.7009L65.6217 55.5576ZM64.5157 52.7373H76.5157V31.6681H64.5157H52.5157V52.7373H64.5157ZM64.5157 31.6681H76.5157C76.5157 32.4452 76.2986 34.7051 74.3694 36.8754L65.4005 28.9031L56.4316 20.9307C53.3227 24.4282 52.5157 28.5314 52.5157 31.6681H64.5157ZM65.4005 28.9031L74.1247 37.1425C71.4658 39.9579 68.5053 39.9077 68.4973 39.9077V27.9077V15.9077C65.6138 15.9077 60.5888 16.521 56.6764 20.6636L65.4005 28.9031ZM68.4973 27.9077V39.9077C68.3595 39.9077 67.6383 39.8999 66.6036 39.5613C65.4993 39.1999 63.9457 38.4232 62.5699 36.8754L71.5388 28.9031L80.5077 20.9307C76.5553 16.4842 71.2924 15.9077 68.4973 15.9077V27.9077ZM71.5388 28.9031L62.8147 37.1426C60.7769 34.9849 60.4789 32.6245 60.4789 31.6681H72.4789H84.4789C84.4789 28.3522 83.5542 24.1484 80.263 20.6636L71.5388 28.9031ZM72.4789 31.6681H60.4789V52.7373H72.4789H84.4789V31.6681H72.4789ZM79.3655 52.5714L70.1362 60.2408L70.1899 60.3051L79.3655 52.5714ZM79.3655 31.8893L88.5948 39.5587L88.6472 39.4951L79.3655 31.8893ZM95.5683 28.7925L90.5792 39.7062L90.6947 39.7582L95.5683 28.7925ZM96.6743 34.2672L104.241 43.5805L104.241 43.5805L96.6743 34.2672ZM91.3103 34.5436L88.3998 46.1854L89.4856 46.4041L91.3103 34.5436ZM86.1121 35.539L77.6268 27.0538L77.4224 27.2632L86.1121 35.539ZM84.5084 38.5252L72.9312 35.3678L72.8667 35.6148L84.5084 38.5252ZM84.3978 45.9354L72.5913 48.0821L72.675 48.4998L84.3978 45.9354ZM85.8909 48.8663L77.2012 57.1422L77.4056 57.3516L85.8909 48.8663ZM92.361 49.6958L95.5727 61.258L96.1557 61.08L92.361 49.6958ZM96.6743 49.917L90.3144 60.093L90.7912 60.3759L96.6743 49.917ZM95.5683 55.3917L101.293 65.9379L101.396 65.8816L95.5683 55.3917ZM89.3748 56.4424V44.4424C88.2403 44.4424 87.8107 44.2759 87.8276 44.2825C87.8459 44.2896 87.9552 44.3352 88.1115 44.445C88.2707 44.5568 88.4198 44.694 88.541 44.8377L79.3655 52.5714L70.1899 60.3051C75.3439 66.4199 82.5897 68.4424 89.3748 68.4424V56.4424ZM79.3655 52.5714L88.5948 44.902C88.5622 44.8628 88.4675 44.7454 88.3624 44.4123C88.2474 44.048 88.1028 43.3616 88.1028 42.2303H76.1028H64.1028C64.1028 48.5705 65.7497 54.9622 70.1362 60.2408L79.3655 52.5714ZM76.1028 42.2303H88.1028C88.1028 41.099 88.2474 40.4126 88.3624 40.0483C88.4675 39.7152 88.5622 39.5979 88.5948 39.5587L79.3655 31.8893L70.1362 24.2198C65.7497 29.4985 64.1028 35.8902 64.1028 42.2303H76.1028ZM79.3655 31.8893L88.6472 39.4951C88.5405 39.6254 88.4007 39.7597 88.2416 39.8746C88.0849 39.9878 87.9682 40.0399 87.9346 40.0533C87.8845 40.0732 88.2753 39.9077 89.3748 39.9077V27.9077V15.9077C82.4808 15.9077 75.2029 18.0363 70.0837 24.2834L79.3655 31.8893ZM89.3748 27.9077V39.9077C90.414 39.9077 91.0444 39.9639 91.3551 40.0083C91.5004 40.029 91.5033 40.0371 91.3952 40.0086C91.2931 39.9817 90.9979 39.8975 90.5792 39.7062L95.5683 28.7925L100.557 17.8788C96.8023 16.1621 92.5517 15.9077 89.3748 15.9077V27.9077ZM95.5683 28.7925L90.6947 39.7582C89.5633 39.2554 88.0541 38.2335 86.9156 36.4308C85.7973 34.6602 85.5591 32.9639 85.5591 31.9446H97.5591H109.559C109.559 29.4137 108.989 26.4363 107.207 23.615C105.405 20.7616 102.901 18.9194 100.442 17.8267L95.5683 28.7925ZM97.5591 31.9446H85.5591C85.5591 30.9407 85.883 27.5735 89.1072 24.9538L96.6743 34.2672L104.241 43.5805C108.645 40.0023 109.559 35.0867 109.559 31.9446H97.5591ZM96.6743 34.2672L89.1072 24.9538C91.241 23.2201 93.3972 22.986 94.2964 22.986V34.986V46.986C97.1864 46.986 100.928 46.2727 104.241 43.5805L96.6743 34.2672ZM94.2964 34.986V22.986C94.2476 22.986 94.3438 22.9835 94.5504 23.0041C94.7394 23.023 95.1874 23.0773 95.7948 23.243L92.6375 34.8201L89.4801 46.3973C91.3705 46.9129 93.1369 46.986 94.2964 46.986V34.986ZM92.6375 34.8201L95.7948 23.243C94.8903 22.9963 93.9969 22.8158 93.1349 22.6832L91.3103 34.5436L89.4856 46.4041C89.5083 46.4076 89.5254 46.4105 89.537 46.4126C89.5485 46.4147 89.5541 46.4159 89.5541 46.4158C89.554 46.4158 89.5477 46.4145 89.5355 46.4116C89.5234 46.4087 89.5047 46.404 89.4801 46.3973L92.6375 34.8201ZM91.3103 34.5436L94.2207 22.9019C92.2645 22.4129 90.3191 22.3777 89.2089 22.3777V34.3777V46.3777C89.4776 46.3777 89.5621 46.3862 89.5087 46.382C89.4766 46.3795 89.3703 46.3704 89.2062 46.3466C89.0493 46.3238 88.7673 46.2772 88.3998 46.1854L91.3103 34.5436ZM89.2089 34.3777V22.3777C85.3475 22.3777 81.0498 23.6307 77.6268 27.0538L86.1121 35.539L94.5974 44.0243C93.7645 44.8571 92.7567 45.5004 91.6804 45.904C90.641 46.2938 89.7621 46.3777 89.2089 46.3777V34.3777ZM86.1121 35.539L77.4224 27.2632C75.0863 29.7161 73.6924 32.5768 72.9312 35.3678L84.5084 38.5252L96.0855 41.6826C95.9879 42.0405 95.6632 42.9104 94.8017 43.8149L86.1121 35.539ZM84.5084 38.5252L72.8667 35.6148C72.3197 37.8026 72.066 40.0186 72.066 42.2303H84.066H96.066C96.066 41.8614 96.1072 41.6073 96.1501 41.4357L84.5084 38.5252ZM84.066 42.2303H72.066C72.066 44.1938 72.2396 46.1475 72.5913 48.0821L84.3978 45.9354L96.2042 43.7888C96.1135 43.2901 96.066 42.7738 96.066 42.2303H84.066ZM84.3978 45.9354L72.675 48.4998C73.3401 51.5404 74.7601 54.5791 77.2012 57.1422L85.8909 48.8663L94.5805 40.5905C95.5469 41.6052 95.9716 42.6899 96.1206 43.3711L84.3978 45.9354ZM85.8909 48.8663L77.4056 57.3516C81.2366 61.1826 86.0031 61.9723 89.2642 61.9723V49.9723V37.9723C89.5022 37.9723 92.0198 38.0247 94.3762 40.381L85.8909 48.8663ZM89.2642 49.9723V61.9723C90.8735 61.9723 93.2642 61.8993 95.5727 61.258L92.361 49.6958L89.1492 38.1336C89.3263 38.0844 89.4754 38.0494 89.5902 38.0249C89.7057 38.0003 89.7979 37.9838 89.8631 37.9732C89.9888 37.9527 90.0474 37.9485 90.0219 37.9507C89.9992 37.9528 89.9253 37.9586 89.7915 37.9636C89.6592 37.9686 89.4849 37.9723 89.2642 37.9723V49.9723ZM92.361 49.6958L96.1557 61.08C95.7363 61.2198 95.0999 61.364 94.2964 61.364V49.364V37.364C92.2396 37.364 90.3128 37.7294 88.5662 38.3116L92.361 49.6958ZM94.2964 49.364V61.364C93.9629 61.364 92.2849 61.3246 90.3144 60.093L96.6743 49.917L103.034 39.741C99.884 37.7721 96.6208 37.364 94.2964 37.364V49.364ZM96.6743 49.917L90.7912 60.3759C88.4806 59.0762 87.0306 57.1345 86.2783 55.3479C85.6073 53.7543 85.5591 52.4795 85.5591 52.0184H97.5591H109.559C109.559 49.2996 108.795 42.967 102.557 39.4581L96.6743 49.917ZM97.5591 52.0184H85.5591C85.5591 50.9719 85.8063 49.4563 86.727 47.8963C87.646 46.3391 88.8457 45.399 89.7406 44.9018L95.5683 55.3917L101.396 65.8816C103.618 64.6471 105.813 62.7761 107.396 60.0944C108.98 57.41 109.559 54.5765 109.559 52.0184H97.5591ZM95.5683 55.3917L89.8432 44.8455C90.3204 44.5865 90.6877 44.4566 90.869 44.3999C91.0536 44.342 91.1246 44.3353 91.0452 44.3488C90.9693 44.3616 90.7948 44.3864 90.5037 44.4072C90.2148 44.4279 89.8417 44.4424 89.3748 44.4424V56.4424V68.4424C92.6724 68.4424 97.2628 68.126 101.293 65.9379L95.5683 55.3917ZM105.362 54.6175L99.2697 64.956L99.3496 65.0026L105.362 54.6175ZM100.938 49.5852L89.7831 54.0087L89.8498 54.1734L100.938 49.5852ZM103.039 31.281L111.454 39.8361L111.525 39.7662L103.039 31.281ZM118.192 29.069L113.382 40.0628L113.382 40.0629L118.192 29.069ZM122.339 32.387L112.473 39.2175L112.557 39.3374L122.339 32.387ZM108.016 46.3778V34.3778L96.3971 49.3764L108.016 46.3778ZM109.454 49.0875L100.969 57.5728L101.453 58.0304L109.454 49.0875ZM115.427 49.8617L113.215 38.0672V38.0672L115.427 49.8617ZM117.086 49.5299L114.732 37.7629L114.571 37.7963L117.086 49.5299ZM121.344 49.917L114.984 60.093L115.461 60.3759L121.344 49.917ZM120.238 55.3917L125.963 65.9379L126.065 65.8816L120.238 55.3917ZM107.629 42.2856H95.6293L117.334 49.3437L107.629 42.2856ZM108.625 41.5114L112.073 53.0053L113.081 52.6532L108.625 41.5114ZM114.818 40.6819L120.185 51.4151L120.369 51.321L114.818 40.6819ZM114.929 35.1519L106.444 43.6372L106.653 43.8416L114.929 35.1519ZM108.791 35.7049L118.726 42.4351V42.4351L108.791 35.7049ZM114.044 56.4424V44.4424C112.837 44.4424 112.042 44.3406 111.577 44.2428C111.114 44.1455 111.114 44.0813 111.374 44.2324L105.362 54.6175L99.3496 65.0026C103.988 67.6881 109.255 68.4424 114.044 68.4424V56.4424ZM105.362 54.6175L111.454 44.279C111.437 44.269 111.559 44.3407 111.72 44.5239C111.884 44.7108 111.983 44.8925 112.026 44.997L100.938 49.5852L89.8498 54.1734C91.7686 58.8105 95.0453 62.4666 99.2697 64.956L105.362 54.6175ZM100.938 49.5852L112.093 45.1617C111.904 44.6846 111.666 43.7793 111.666 42.2303H99.6662H87.6662C87.6662 46.2114 88.2765 50.2093 89.7831 54.0087L100.938 49.5852ZM99.6662 42.2303H111.666C111.666 40.5126 111.863 39.5829 111.978 39.2104C112.077 38.8891 112.018 39.2818 111.454 39.8361L103.039 31.281L94.6246 22.7258C89.014 28.2445 87.6662 35.8213 87.6662 42.2303H99.6662ZM103.039 31.281L111.525 39.7662C111.485 39.8061 111.421 39.8606 111.339 39.913C111.257 39.9652 111.196 39.9909 111.177 39.9982C111.136 40.0135 111.39 39.9077 112.109 39.9077V27.9077V15.9077C105.791 15.9077 99.4818 17.868 94.5542 22.7957L103.039 31.281ZM112.109 27.9077V39.9077C113.038 39.9077 113.381 40.0625 113.382 40.0628L118.192 29.069L123.001 18.0751C119.463 16.5271 115.751 15.9077 112.109 15.9077V27.9077ZM118.192 29.069L113.382 40.0629C113.391 40.0667 113.259 40.0096 113.059 39.8495C112.853 39.6845 112.646 39.4677 112.473 39.2175L122.339 32.387L132.205 25.5564C129.813 22.1009 126.59 19.6451 123.001 18.0751L118.192 29.069ZM122.339 32.387L112.557 39.3374C112.246 38.9002 112.046 38.4521 111.935 38.0691C111.829 37.7031 111.832 37.4972 111.832 37.5298H123.832H135.832C135.832 33.4716 134.805 29.2134 132.121 25.4365L122.339 32.387ZM123.832 37.5298H111.832C111.832 37.582 111.826 37.0502 112.205 36.2522C112.613 35.3936 113.226 34.737 113.787 34.3431C114.272 34.0029 114.465 34.0331 114.007 34.1402C113.546 34.2479 112.662 34.3778 111.224 34.3778V46.3778V58.3778C116.463 58.3778 122.534 57.5251 127.573 53.9885C133.389 49.9075 135.832 43.7184 135.832 37.5298H123.832ZM111.224 46.3778V34.3778H108.016V46.3778V58.3778H111.224V46.3778ZM108.016 46.3778L96.3971 49.3764C97.0914 52.0668 98.445 55.0488 100.969 57.5728L109.454 49.0875L117.94 40.6022C119.136 41.799 119.531 42.9746 119.636 43.3793L108.016 46.3778ZM109.454 49.0875L101.453 58.0304C105.578 61.7218 110.633 62.0276 113.104 62.0276V50.0276V38.0276C112.896 38.0276 113.225 38.0019 113.885 38.1719C114.537 38.3398 115.976 38.8202 117.456 40.1446L109.454 49.0875ZM113.104 50.0276V62.0276C114.422 62.0276 116.02 61.9595 117.638 61.6562L115.427 49.8617L113.215 38.0672C113.354 38.0413 113.452 38.0281 113.501 38.0221C113.551 38.016 113.569 38.0152 113.549 38.0166C113.529 38.018 113.482 38.0209 113.406 38.0234C113.329 38.0258 113.229 38.0276 113.104 38.0276V50.0276ZM115.427 49.8617L117.638 61.6562C118.316 61.5291 118.971 61.3984 119.6 61.2635L117.086 49.5299L114.571 37.7963C114.168 37.8826 113.717 37.9731 113.215 38.0672L115.427 49.8617ZM117.086 49.5299L119.439 61.2969C119.241 61.3366 119.099 61.3526 119.025 61.359C118.951 61.3656 118.929 61.364 118.966 61.364V49.364V37.364C117.656 37.364 116.22 37.4655 114.732 37.7629L117.086 49.5299ZM118.966 49.364V61.364C118.632 61.364 116.954 61.3246 114.984 60.093L121.344 49.917L127.704 39.741C124.553 37.7721 121.29 37.364 118.966 37.364V49.364ZM121.344 49.917L115.461 60.3759C113.15 59.0762 111.7 57.1345 110.948 55.3479C110.277 53.7543 110.229 52.4795 110.229 52.0184H122.229H134.229C134.229 49.2996 133.465 42.967 127.227 39.4581L121.344 49.917ZM122.229 52.0184H110.229C110.229 50.9719 110.476 49.4563 111.396 47.8963C112.315 46.3391 113.515 45.399 114.41 44.9018L120.238 55.3917L126.065 65.8816C128.288 64.6471 130.483 62.7761 132.065 60.0944C133.65 57.41 134.229 54.5765 134.229 52.0184H122.229ZM120.238 55.3917L114.513 44.8455C114.99 44.5865 115.357 44.4566 115.538 44.3999C115.723 44.342 115.794 44.3353 115.715 44.3488C115.639 44.3616 115.464 44.3864 115.173 44.4072C114.884 44.4279 114.511 44.4424 114.044 44.4424V56.4424V68.4424C117.342 68.4424 121.932 68.126 125.963 65.9379L120.238 55.3917ZM107.629 42.2856L117.334 49.3437C116.554 50.4167 114.888 52.1607 112.073 53.0053L108.625 41.5114L105.177 30.0175C101.624 31.0833 99.2947 33.3435 97.9245 35.2276L107.629 42.2856ZM108.625 41.5114L113.081 52.6532C112.011 53.0814 111.174 53.207 110.865 53.2469C110.503 53.2936 110.303 53.2902 110.339 53.2902V41.2902V29.2902C109.209 29.2902 106.74 29.341 104.168 30.3697L108.625 41.5114ZM110.339 41.2902V53.2902C111.752 53.2902 113.246 53.2271 114.705 53.029C116.013 52.8514 118.078 52.4687 120.185 51.4151L114.818 40.6819L109.452 29.9488C110.173 29.5884 110.744 29.4182 111.019 29.3456C111.173 29.305 111.289 29.2806 111.36 29.2671C111.431 29.2534 111.471 29.2478 111.475 29.2473C111.478 29.247 111.386 29.2591 111.18 29.2705C110.978 29.2817 110.701 29.2902 110.339 29.2902V41.2902ZM114.818 40.6819L120.369 51.321C122.713 50.0981 124.85 48.1762 126.297 45.5333C127.692 42.9865 128.09 40.426 128.09 38.3593H116.09H104.09C104.09 37.3987 104.276 35.7783 105.247 34.0057C106.27 32.137 107.772 30.8234 109.268 30.0429L114.818 40.6819ZM116.09 38.3593H128.09C128.09 34.7419 127.033 30.1082 123.205 26.4623L114.929 35.1519L106.653 43.8416C104.373 41.6703 104.09 39.1749 104.09 38.3593H116.09ZM114.929 35.1519L123.414 26.6667C120.204 23.4564 116.088 21.9907 111.998 21.9907V33.9906V45.9906C111.259 45.9906 110.276 45.8654 109.195 45.4371C108.097 45.0019 107.165 44.359 106.444 43.6372L114.929 35.1519ZM111.998 33.9906V21.9907C106.596 21.9907 101.83 24.5837 98.8556 28.9748L108.791 35.7049L118.726 42.4351C118.173 43.2505 117.238 44.2496 115.83 45.0024C114.416 45.7582 113.039 45.9906 111.998 45.9906V33.9906ZM108.791 35.7049L98.8556 28.9748C97.1156 31.5433 96.4303 34.2629 96.1023 36.1218C95.746 38.1405 95.6293 40.2499 95.6293 42.2856H107.629H119.629C119.629 41.7073 119.647 41.2505 119.672 40.9015C119.697 40.5477 119.726 40.3547 119.737 40.2927C119.75 40.221 119.727 40.3826 119.616 40.7038C119.508 41.0123 119.254 41.6556 118.726 42.4351L108.791 35.7049Z" fill="#FADE26" mask="url(#path-6-outside-2_863_9437)"/>
<rect x="203.561" y="52.3052" width="24" height="10" rx="5" transform="rotate(1.30383 203.561 52.3052)" fill="#FADE26"/>
<mask id="path-9-outside-3_863_9437" maskUnits="userSpaceOnUse" x="183.38" y="3.17514" width="53.4002" height="72.5477" fill="black">
<rect fill="white" x="183.38" y="3.17514" width="53.4002" height="72.5477"/>
<path d="M212.383 47.0565C211.025 47.527 209.941 47.5513 209.131 47.1294C208.345 46.6605 207.764 45.8861 207.39 44.8062L200.766 25.681C200.38 24.5663 200.357 23.5988 200.698 22.7787C201.073 21.9466 201.939 21.2952 203.298 20.8247C204.657 20.3541 205.723 20.3359 206.498 20.7699C207.307 21.1918 207.905 21.9602 208.291 23.0749L214.915 42.2001C215.289 43.28 215.294 44.2535 214.931 45.1205C214.591 45.9406 213.742 46.5859 212.383 47.0565ZM216.31 58.3957C215.056 58.8301 213.913 58.7968 212.882 58.2958C211.885 57.7828 211.181 56.934 210.771 55.7496C210.348 54.5303 210.37 53.4108 210.836 52.391C211.337 51.3592 212.215 50.6261 213.469 50.1917C214.688 49.7695 215.814 49.8088 216.846 50.3098C217.878 50.8107 218.605 51.6708 219.027 52.8901C219.437 54.0746 219.392 55.1827 218.891 56.2145C218.39 57.2464 217.53 57.9734 216.31 58.3957Z"/>
</mask>
<path d="M212.383 47.0565C211.025 47.527 209.941 47.5513 209.131 47.1294C208.345 46.6605 207.764 45.8861 207.39 44.8062L200.766 25.681C200.38 24.5663 200.357 23.5988 200.698 22.7787C201.073 21.9466 201.939 21.2952 203.298 20.8247C204.657 20.3541 205.723 20.3359 206.498 20.7699C207.307 21.1918 207.905 21.9602 208.291 23.0749L214.915 42.2001C215.289 43.28 215.294 44.2535 214.931 45.1205C214.591 45.9406 213.742 46.5859 212.383 47.0565ZM216.31 58.3957C215.056 58.8301 213.913 58.7968 212.882 58.2958C211.885 57.7828 211.181 56.934 210.771 55.7496C210.348 54.5303 210.37 53.4108 210.836 52.391C211.337 51.3592 212.215 50.6261 213.469 50.1917C214.688 49.7695 215.814 49.8088 216.846 50.3098C217.878 50.8107 218.605 51.6708 219.027 52.8901C219.437 54.0746 219.392 55.1827 218.891 56.2145C218.39 57.2464 217.53 57.9734 216.31 58.3957Z" fill="#3F3833"/>
<path d="M209.131 47.1294L202.987 57.4373L203.584 57.7703L209.131 47.1294ZM200.698 22.7787L189.757 17.8482L189.613 18.1807L200.698 22.7787ZM206.498 20.7699L200.632 31.2385L200.951 31.4108L206.498 20.7699ZM214.931 45.1205L203.862 40.4863L203.847 40.5224L214.931 45.1205ZM212.882 58.2958L207.391 68.966L207.641 69.0908L212.882 58.2958ZM210.836 52.391L200.041 47.15L199.923 47.4024L210.836 52.391ZM216.846 50.3098L211.605 61.1047L216.846 50.3098ZM218.891 56.2145L229.686 61.4556V61.4556L218.891 56.2145ZM212.383 47.0565L208.456 35.7173C208.463 35.7147 211.244 34.6984 214.678 36.4885L209.131 47.1294L203.584 57.7703C208.637 60.4043 213.586 59.3393 216.31 58.3956L212.383 47.0565ZM209.131 47.1294L215.275 36.8214C217.474 38.1322 218.414 39.9694 218.729 40.879L207.39 44.8062L196.051 48.7334C197.114 51.8029 199.215 55.1888 202.987 57.4373L209.131 47.1294ZM207.39 44.8062L218.729 40.879L212.106 21.7538L200.766 25.681L189.427 29.6083L196.051 48.7334L207.39 44.8062ZM200.766 25.681L212.106 21.7538C212.36 22.4882 212.894 24.6947 211.782 27.3768L200.698 22.7787L189.613 18.1807C187.82 22.503 188.401 26.6444 189.427 29.6083L200.766 25.681ZM200.698 22.7787L211.638 27.7093C210.047 31.2398 207.233 32.1612 207.225 32.1638L203.298 20.8247L199.371 9.4855C196.646 10.4292 192.098 12.6533 189.757 17.8482L200.698 22.7787ZM203.298 20.8247L207.225 32.1638C207.095 32.209 206.411 32.4377 205.322 32.4563C204.161 32.4762 202.439 32.2508 200.632 31.2385L206.498 20.7699L212.364 10.3013C207.174 7.39317 202.012 8.57076 199.371 9.4855L203.298 20.8247ZM206.498 20.7699L200.951 31.4108C198.319 30.0388 197.265 27.9059 196.952 27.0022L208.291 23.0749L219.63 19.1477C218.545 16.0144 216.295 12.3448 212.045 10.129L206.498 20.7699ZM208.291 23.0749L196.952 27.0022L203.576 46.1273L214.915 42.2001L226.254 38.2729L219.63 19.1477L208.291 23.0749ZM214.915 42.2001L203.576 46.1273C203.202 45.0489 202.851 42.9019 203.862 40.4863L214.931 45.1205L226.001 49.7547C227.738 45.6051 227.376 41.5112 226.254 38.2729L214.915 42.2001ZM214.931 45.1205L203.847 40.5224C204.641 38.6096 205.855 37.3673 206.78 36.6644C207.647 36.0057 208.326 35.7624 208.456 35.7173L212.383 47.0565L216.31 58.3956C218.952 57.4809 223.736 55.2137 226.016 49.7186L214.931 45.1205ZM216.31 58.3957L212.383 47.0565C212.913 46.8731 213.767 46.6697 214.862 46.7016C215.993 46.7345 217.116 47.0122 218.123 47.5008L212.882 58.2958L207.641 69.0908C211.988 71.2015 216.488 71.0337 220.238 69.7349L216.31 58.3957ZM212.882 58.2958L218.372 47.6256C219.288 48.0969 220.145 48.7722 220.844 49.6158C221.528 50.4401 221.908 51.2392 222.11 51.8224L210.771 55.7496L199.432 59.6768C200.722 63.404 203.318 66.87 207.391 68.966L212.882 58.2958ZM210.771 55.7496L222.11 51.8224C222.293 52.3497 222.489 53.1769 222.468 54.2304C222.447 55.315 222.199 56.3979 221.75 57.3797L210.836 52.391L199.923 47.4024C197.979 51.6536 198.163 56.0148 199.432 59.6768L210.771 55.7496ZM210.836 52.391L221.631 57.6321C221.143 58.6385 220.432 59.5512 219.564 60.2766C218.723 60.9792 217.926 61.3474 217.396 61.5309L213.469 50.1917L209.542 38.8526C205.792 40.1514 202.152 42.8025 200.041 47.15L210.836 52.391ZM213.469 50.1917L217.396 61.5309C216.811 61.7337 215.921 61.9361 214.809 61.8972C213.667 61.8573 212.566 61.5716 211.605 61.1047L216.846 50.3098L222.087 39.5148C217.824 37.4451 213.358 37.5308 209.542 38.8526L213.469 50.1917ZM216.846 50.3098L211.605 61.1047C210.643 60.6379 209.738 59.95 209 59.0773C208.282 58.2271 207.891 57.4028 207.688 56.8173L219.027 52.8901L230.366 48.9629C229.044 45.1464 226.35 41.5845 222.087 39.5148L216.846 50.3098ZM219.027 52.8901L207.688 56.8173C207.465 56.1741 207.264 55.2476 207.311 54.1186C207.358 52.9672 207.651 51.8899 208.096 50.9735L218.891 56.2145L229.686 61.4556C231.713 57.281 231.711 52.8475 230.366 48.9629L219.027 52.8901ZM218.891 56.2145L208.096 50.9735C208.563 50.0119 209.251 49.1069 210.123 48.3692C210.973 47.6505 211.798 47.2593 212.383 47.0565L216.31 58.3957L220.238 69.7349C224.054 68.4131 227.616 65.7186 229.686 61.4556L218.891 56.2145Z" fill="#FADE26" mask="url(#path-9-outside-3_863_9437)"/>
</svg>