<svg width="104" height="47" viewBox="0 0 104 47" fill="none" xmlns="http://www.w3.org/2000/svg">
<rect x="90.3263" y="25.6245" width="7.08728" height="6.04492" fill="var(--c-accent, #FADE26)"/>
<rect x="20.84" y="21.9741" width="47.6367" height="13.3457" fill="var(--c-accent, #FADE26)"/>
<mask id="path-3-outside-1_801_10455" maskUnits="userSpaceOnUse" x="-1.99028" y="7.38799" width="85.0741" height="43.697" fill="black">
<rect fill="white" x="-1.99028" y="7.38799" width="85.0741" height="43.697"/>
<path d="M12.8605 36.1631C9.11942 36.5235 7.16934 35.8779 7.01023 34.2262C6.96039 33.7089 7.06039 33.2875 7.31022 32.9622C7.56006 32.6368 7.91382 32.4521 8.3715 32.4081C8.57049 32.3889 8.76241 32.4005 8.94725 32.443C9.15008 32.4636 9.53871 32.5366 10.1131 32.662C10.3596 32.7186 10.6857 32.7676 11.0913 32.8088C11.497 32.8501 11.8888 32.8525 12.2669 32.8161C12.9833 32.7471 13.4821 32.6086 13.7633 32.4008C14.0446 32.1929 14.1651 31.8801 14.1248 31.4622C14.0922 31.1239 13.9877 30.8729 13.8112 30.7091C13.6329 30.5255 13.2764 30.369 12.7417 30.2398C12.2071 30.1105 11.3772 29.9394 10.2521 29.7264C9.23031 29.5437 8.37646 29.1239 7.69058 28.4669C7.02267 27.7881 6.63696 26.9115 6.53345 25.8369C6.38776 24.3246 6.82381 23.1177 7.84159 22.2163C8.85937 21.3149 10.3234 20.7722 12.2337 20.5882C13.6665 20.4501 14.81 20.5408 15.6642 20.8602C16.5184 21.1796 16.9819 21.7174 17.0548 22.4736C17.1008 22.9511 16.9998 23.3625 16.7519 23.7078C16.504 24.053 16.1412 24.2486 15.6636 24.2946C15.4646 24.3138 15.223 24.3069 14.9386 24.2741C14.6742 24.2393 14.3481 24.1904 13.9605 24.1273C13.6723 24.0546 13.3661 24.0038 13.042 23.9748C12.7378 23.9438 12.4165 23.9447 12.0782 23.9772C11.123 24.0693 10.6781 24.4536 10.7432 25.1301C10.7816 25.5281 11.0032 25.8482 11.4081 26.0904C11.8111 26.3126 12.5652 26.5312 13.6705 26.7461C15.1852 27.042 16.3263 27.5245 17.0937 28.1937C17.8591 28.843 18.2994 29.7646 18.4144 30.9586C18.5486 32.3515 18.1196 33.5276 17.1275 34.4868C16.1533 35.4241 14.731 35.9829 12.8605 36.1631ZM27.8712 34.7171C25.742 34.9222 24.002 34.4773 22.6513 33.3823C21.3006 32.2873 20.4949 30.3866 20.2342 27.6803C19.9716 24.9541 20.3997 22.9346 21.5184 21.6218C22.6352 20.2891 24.2582 19.5202 26.3875 19.3151C28.5167 19.11 30.2566 19.5549 31.6073 20.6499C32.9561 21.725 33.7618 23.6257 34.0244 26.3519C34.2851 29.0582 33.8571 31.0777 32.7402 32.4104C31.6234 33.7431 30.0004 34.512 27.8712 34.7171ZM27.5261 31.1352C28.0833 31.0816 28.5404 30.9271 28.8974 30.6717C29.2525 30.3965 29.5008 29.9509 29.6422 29.3347C29.8036 28.7166 29.8316 27.8604 29.7262 26.7659C29.6207 25.6715 29.4298 24.8363 29.1534 24.2604C28.8969 23.6826 28.5691 23.3025 28.1699 23.12C27.7688 22.9176 27.2897 22.8433 26.7325 22.8969C26.1952 22.9487 25.7391 23.1131 25.3641 23.3903C25.0071 23.6456 24.7479 24.0823 24.5865 24.7003C24.4451 25.3165 24.427 26.1718 24.5325 27.2662C24.6379 28.3607 24.8189 29.1968 25.0754 29.7746C25.3518 30.3505 25.6905 30.7397 26.0916 30.942C26.5107 31.1226 26.9889 31.187 27.5261 31.1352ZM39.7876 33.5691C38.3549 33.7072 37.5733 33.0996 37.443 31.7465L36.3532 20.4337C36.2209 19.0607 36.8712 18.3052 38.3039 18.1671C39.0203 18.0981 39.553 18.2075 39.9021 18.4952C40.2492 18.763 40.4563 19.2452 40.5234 19.9416C40.8183 19.2505 41.2788 18.714 41.9048 18.3324C42.5488 17.9289 43.3185 17.6841 44.214 17.5978C45.9253 17.4329 46.8529 18.0967 46.9966 19.5892C47.0503 20.1464 46.8816 20.5844 46.4906 20.9032C46.0995 21.2221 45.4264 21.4275 44.4713 21.5195C43.536 21.6096 42.8084 21.7701 42.2883 22.0009C41.7664 22.2119 41.418 22.5567 41.2432 23.0355C41.0864 23.4925 41.0482 24.1388 41.1288 24.9746L41.7412 31.3324C41.8716 32.6855 41.2204 33.4311 39.7876 33.5691ZM51.3307 32.4572C49.898 32.5952 49.1164 31.9876 48.9861 30.6345L47.8963 19.3218C47.764 17.9487 48.4143 17.1932 49.847 17.0552C50.5634 16.9861 51.0961 17.0955 51.4452 17.3832C51.7923 17.651 51.9994 18.1332 52.0665 18.8297C52.3615 18.1385 52.8219 17.6021 53.4479 17.2204C54.0919 16.8169 54.8616 16.5721 55.7571 16.4858C57.4684 16.321 58.396 16.9848 58.5398 18.4772C58.5934 19.0344 58.4247 19.4724 58.0337 19.7912C57.6427 20.1101 56.9695 20.3155 56.0144 20.4075C55.0791 20.4976 54.3515 20.6581 53.8314 20.8889C53.3095 21.0999 52.9611 21.4448 52.7863 21.9235C52.6295 22.3805 52.5914 23.0268 52.6719 23.8626L53.2843 30.2204C53.4147 31.5736 52.7635 32.3191 51.3307 32.4572ZM64.8102 37.8466C62.0442 38.113 60.5845 37.4503 60.4311 35.8584C60.3755 35.2813 60.4974 34.8779 60.7966 34.6483C61.0977 34.4385 61.5169 34.3077 62.0542 34.256C62.6114 34.2023 63.1027 34.1951 63.5283 34.2345C63.9558 34.2937 64.4282 34.2984 64.9456 34.2486C65.5226 34.193 65.9239 34.084 66.1492 33.9217C66.3746 33.7594 66.4691 33.4892 66.4327 33.1112C66.4097 32.8724 66.3302 32.5687 66.1943 32.2002C66.0584 31.8317 65.8057 31.2937 65.4363 30.5862C65.0868 29.8768 64.5811 28.9012 63.9192 27.6595L59.3168 18.9747C59.1687 18.6877 59.0783 18.3751 59.0457 18.0368C58.9805 17.3603 59.1823 16.8488 59.651 16.5023C60.1179 16.136 60.6199 15.927 61.1572 15.8752C61.6547 15.8273 62.0651 15.9183 62.3885 16.1483C62.7299 16.3564 62.9894 16.6527 63.167 17.0373L67.8298 26.3489C68.4384 24.7438 68.8093 23.3825 68.9427 22.2651C69.0959 21.1457 69.1086 20.1302 68.9806 19.2187C68.9051 18.6435 68.8203 18.1797 68.7261 17.8273C68.6498 17.4531 68.597 17.2171 68.5675 17.1196C68.4266 16.4905 68.5696 15.9947 68.9966 15.6322C69.4416 15.2479 69.9825 15.0251 70.6193 14.9637C71.1963 14.9081 71.6466 14.9953 71.97 15.2253C72.3114 15.4334 72.5728 15.7496 72.7543 16.174C72.8844 16.4828 72.9796 16.8452 73.0398 17.2611C73.1179 17.6553 73.1694 17.9817 73.1943 18.2404C73.294 19.2752 73.2961 20.3394 73.2007 21.4331C73.1251 22.5249 72.9542 23.5657 72.688 24.5553C72.4398 25.5232 72.0906 26.3803 71.6403 27.1266C71.5703 27.2338 71.4402 27.4471 71.2501 27.7667C71.0799 28.0844 70.8599 28.4068 70.5901 28.7341C70.3185 29.0414 70.0292 29.2701 69.7223 29.4202C70.0951 29.7458 70.379 30.1904 70.5738 30.7541C70.7706 31.3376 70.8997 31.9478 70.9611 32.5846C71.0914 33.9377 70.6705 35.0929 69.6982 36.0502C68.7478 37.0254 67.1185 37.6242 64.8102 37.8466Z"/>
</mask>
<path d="M12.8605 36.1631C9.11942 36.5235 7.16934 35.8779 7.01023 34.2262C6.96039 33.7089 7.06039 33.2875 7.31022 32.9622C7.56006 32.6368 7.91382 32.4521 8.3715 32.4081C8.57049 32.3889 8.76241 32.4005 8.94725 32.443C9.15008 32.4636 9.53871 32.5366 10.1131 32.662C10.3596 32.7186 10.6857 32.7676 11.0913 32.8088C11.497 32.8501 11.8888 32.8525 12.2669 32.8161C12.9833 32.7471 13.4821 32.6086 13.7633 32.4008C14.0446 32.1929 14.1651 31.8801 14.1248 31.4622C14.0922 31.1239 13.9877 30.8729 13.8112 30.7091C13.6329 30.5255 13.2764 30.369 12.7417 30.2398C12.2071 30.1105 11.3772 29.9394 10.2521 29.7264C9.23031 29.5437 8.37646 29.1239 7.69058 28.4669C7.02267 27.7881 6.63696 26.9115 6.53345 25.8369C6.38776 24.3246 6.82381 23.1177 7.84159 22.2163C8.85937 21.3149 10.3234 20.7722 12.2337 20.5882C13.6665 20.4501 14.81 20.5408 15.6642 20.8602C16.5184 21.1796 16.9819 21.7174 17.0548 22.4736C17.1008 22.9511 16.9998 23.3625 16.7519 23.7078C16.504 24.053 16.1412 24.2486 15.6636 24.2946C15.4646 24.3138 15.223 24.3069 14.9386 24.2741C14.6742 24.2393 14.3481 24.1904 13.9605 24.1273C13.6723 24.0546 13.3661 24.0038 13.042 23.9748C12.7378 23.9438 12.4165 23.9447 12.0782 23.9772C11.123 24.0693 10.6781 24.4536 10.7432 25.1301C10.7816 25.5281 11.0032 25.8482 11.4081 26.0904C11.8111 26.3126 12.5652 26.5312 13.6705 26.7461C15.1852 27.042 16.3263 27.5245 17.0937 28.1937C17.8591 28.843 18.2994 29.7646 18.4144 30.9586C18.5486 32.3515 18.1196 33.5276 17.1275 34.4868C16.1533 35.4241 14.731 35.9829 12.8605 36.1631ZM27.8712 34.7171C25.742 34.9222 24.002 34.4773 22.6513 33.3823C21.3006 32.2873 20.4949 30.3866 20.2342 27.6803C19.9716 24.9541 20.3997 22.9346 21.5184 21.6218C22.6352 20.2891 24.2582 19.5202 26.3875 19.3151C28.5167 19.11 30.2566 19.5549 31.6073 20.6499C32.9561 21.725 33.7618 23.6257 34.0244 26.3519C34.2851 29.0582 33.8571 31.0777 32.7402 32.4104C31.6234 33.7431 30.0004 34.512 27.8712 34.7171ZM27.5261 31.1352C28.0833 31.0816 28.5404 30.9271 28.8974 30.6717C29.2525 30.3965 29.5008 29.9509 29.6422 29.3347C29.8036 28.7166 29.8316 27.8604 29.7262 26.7659C29.6207 25.6715 29.4298 24.8363 29.1534 24.2604C28.8969 23.6826 28.5691 23.3025 28.1699 23.12C27.7688 22.9176 27.2897 22.8433 26.7325 22.8969C26.1952 22.9487 25.7391 23.1131 25.3641 23.3903C25.0071 23.6456 24.7479 24.0823 24.5865 24.7003C24.4451 25.3165 24.427 26.1718 24.5325 27.2662C24.6379 28.3607 24.8189 29.1968 25.0754 29.7746C25.3518 30.3505 25.6905 30.7397 26.0916 30.942C26.5107 31.1226 26.9889 31.187 27.5261 31.1352ZM39.7876 33.5691C38.3549 33.7072 37.5733 33.0996 37.443 31.7465L36.3532 20.4337C36.2209 19.0607 36.8712 18.3052 38.3039 18.1671C39.0203 18.0981 39.553 18.2075 39.9021 18.4952C40.2492 18.763 40.4563 19.2452 40.5234 19.9416C40.8183 19.2505 41.2788 18.714 41.9048 18.3324C42.5488 17.9289 43.3185 17.6841 44.214 17.5978C45.9253 17.4329 46.8529 18.0967 46.9966 19.5892C47.0503 20.1464 46.8816 20.5844 46.4906 20.9032C46.0995 21.2221 45.4264 21.4275 44.4713 21.5195C43.536 21.6096 42.8084 21.7701 42.2883 22.0009C41.7664 22.2119 41.418 22.5567 41.2432 23.0355C41.0864 23.4925 41.0482 24.1388 41.1288 24.9746L41.7412 31.3324C41.8716 32.6855 41.2204 33.4311 39.7876 33.5691ZM51.3307 32.4572C49.898 32.5952 49.1164 31.9876 48.9861 30.6345L47.8963 19.3218C47.764 17.9487 48.4143 17.1932 49.847 17.0552C50.5634 16.9861 51.0961 17.0955 51.4452 17.3832C51.7923 17.651 51.9994 18.1332 52.0665 18.8297C52.3615 18.1385 52.8219 17.6021 53.4479 17.2204C54.0919 16.8169 54.8616 16.5721 55.7571 16.4858C57.4684 16.321 58.396 16.9848 58.5398 18.4772C58.5934 19.0344 58.4247 19.4724 58.0337 19.7912C57.6427 20.1101 56.9695 20.3155 56.0144 20.4075C55.0791 20.4976 54.3515 20.6581 53.8314 20.8889C53.3095 21.0999 52.9611 21.4448 52.7863 21.9235C52.6295 22.3805 52.5914 23.0268 52.6719 23.8626L53.2843 30.2204C53.4147 31.5736 52.7635 32.3191 51.3307 32.4572ZM64.8102 37.8466C62.0442 38.113 60.5845 37.4503 60.4311 35.8584C60.3755 35.2813 60.4974 34.8779 60.7966 34.6483C61.0977 34.4385 61.5169 34.3077 62.0542 34.256C62.6114 34.2023 63.1027 34.1951 63.5283 34.2345C63.9558 34.2937 64.4282 34.2984 64.9456 34.2486C65.5226 34.193 65.9239 34.084 66.1492 33.9217C66.3746 33.7594 66.4691 33.4892 66.4327 33.1112C66.4097 32.8724 66.3302 32.5687 66.1943 32.2002C66.0584 31.8317 65.8057 31.2937 65.4363 30.5862C65.0868 29.8768 64.5811 28.9012 63.9192 27.6595L59.3168 18.9747C59.1687 18.6877 59.0783 18.3751 59.0457 18.0368C58.9805 17.3603 59.1823 16.8488 59.651 16.5023C60.1179 16.136 60.6199 15.927 61.1572 15.8752C61.6547 15.8273 62.0651 15.9183 62.3885 16.1483C62.7299 16.3564 62.9894 16.6527 63.167 17.0373L67.8298 26.3489C68.4384 24.7438 68.8093 23.3825 68.9427 22.2651C69.0959 21.1457 69.1086 20.1302 68.9806 19.2187C68.9051 18.6435 68.8203 18.1797 68.7261 17.8273C68.6498 17.4531 68.597 17.2171 68.5675 17.1196C68.4266 16.4905 68.5696 15.9947 68.9966 15.6322C69.4416 15.2479 69.9825 15.0251 70.6193 14.9637C71.1963 14.9081 71.6466 14.9953 71.97 15.2253C72.3114 15.4334 72.5728 15.7496 72.7543 16.174C72.8844 16.4828 72.9796 16.8452 73.0398 17.2611C73.1179 17.6553 73.1694 17.9817 73.1943 18.2404C73.294 19.2752 73.2961 20.3394 73.2007 21.4331C73.1251 22.5249 72.9542 23.5657 72.688 24.5553C72.4398 25.5232 72.0906 26.3803 71.6403 27.1266C71.5703 27.2338 71.4402 27.4471 71.2501 27.7667C71.0799 28.0844 70.8599 28.4068 70.5901 28.7341C70.3185 29.0414 70.0292 29.2701 69.7223 29.4202C70.0951 29.7458 70.379 30.1904 70.5738 30.7541C70.7706 31.3376 70.8997 31.9478 70.9611 32.5846C71.0914 33.9377 70.6705 35.0929 69.6982 36.0502C68.7478 37.0254 67.1185 37.6242 64.8102 37.8466Z" fill="var(--color-brown, #3F3833)"/>
<path d="M7.31022 32.9622L12.4711 36.9255L12.4711 36.9255L7.31022 32.9622ZM8.94725 32.443L7.49093 38.7851L8.28882 38.9167L8.94725 32.443ZM10.1131 32.662L11.5695 26.3199L11.5012 26.3047L10.1131 32.662ZM11.0913 32.8088L10.4329 39.2826L10.4329 39.2826L11.0913 32.8088ZM13.7633 32.4008L9.89581 27.1677L9.89581 27.1677L13.7633 32.4008ZM13.8112 30.7091L9.14321 35.2426L9.3847 35.4787L13.8112 30.7091ZM12.7417 30.2398L11.2126 36.5647L12.7417 30.2398ZM10.2521 29.7264L11.4622 23.3328L11.3977 23.3209L10.2521 29.7264ZM7.69058 28.4669L3.05238 33.0309L3.18954 33.1662L7.69058 28.4669ZM7.84159 22.2163L12.1559 27.0876L12.1559 27.0876L7.84159 22.2163ZM15.6642 20.8602L17.9431 14.7652L17.9431 14.7652L15.6642 20.8602ZM14.9386 24.2741L14.0902 30.7257L14.1916 30.7382L14.9386 24.2741ZM13.9605 24.1273L12.3696 30.437L12.9155 30.55L13.9605 24.1273ZM13.042 23.9748L12.3836 30.4485L12.4616 30.456L13.042 23.9748ZM11.4081 26.0904L8.0682 31.675L8.26554 31.7883L11.4081 26.0904ZM13.6705 26.7461L14.9182 20.3597L14.9123 20.3585L13.6705 26.7461ZM17.0937 28.1937L12.817 33.0981L12.8845 33.1562L17.0937 28.1937ZM17.1275 34.4868L21.6394 39.1757L21.6504 39.165L17.1275 34.4868ZM12.8605 36.1631L12.2365 29.6859C11.5237 29.7546 11.0295 29.7615 10.7162 29.7458C10.382 29.729 10.4008 29.6935 10.6373 29.7718C10.8789 29.8518 11.5718 30.1273 12.2586 30.8755C13.0154 31.6998 13.4007 32.7029 13.4874 33.6023L7.01023 34.2262L0.533069 34.8502C0.699265 36.5754 1.38801 38.2786 2.6721 39.6772C3.88628 40.9996 5.33028 41.7238 6.54693 42.1266C8.82464 42.8807 11.3376 42.8471 13.4844 42.6403L12.8605 36.1631ZM7.01023 34.2262L13.4874 33.6023C13.5517 34.2694 13.4732 35.6206 12.4711 36.9255L7.31022 32.9622L2.14932 28.9988C0.647572 30.9544 0.369118 33.1483 0.533069 34.8502L7.01023 34.2262ZM7.31022 32.9622L12.4711 36.9255C12.036 37.4921 11.4607 37.9897 10.7747 38.3479C10.1045 38.6978 9.47519 38.839 8.99546 38.8852L8.3715 32.4081L7.74754 25.9309C5.73443 26.1248 3.63639 27.0624 2.14932 28.9988L7.31022 32.9622ZM8.3715 32.4081L8.99546 38.8852C8.53615 38.9295 8.02388 38.9074 7.49093 38.7851L8.94725 32.443L10.4036 26.1009C9.50094 25.8936 8.60483 25.8483 7.74754 25.9309L8.3715 32.4081ZM8.94725 32.443L8.28882 38.9167C8.2285 38.9106 8.18389 38.9048 8.15954 38.9015C8.13416 38.8981 8.11912 38.8957 8.11653 38.8953C8.11316 38.8948 8.13511 38.8983 8.18917 38.9084C8.29917 38.9291 8.47319 38.9644 8.7251 39.0194L10.1131 32.662L11.5012 26.3047C10.9768 26.1902 10.2343 26.0332 9.60568 25.9692L8.94725 32.443ZM10.1131 32.662L8.65682 39.0041C9.27541 39.1462 9.89979 39.2283 10.4329 39.2826L11.0913 32.8088L11.7497 26.3351C11.6267 26.3226 11.5486 26.3121 11.5081 26.3061C11.4889 26.3032 11.4843 26.3022 11.4924 26.3037C11.5 26.3051 11.5268 26.3101 11.5695 26.3199L10.1131 32.662ZM11.0913 32.8088L10.4329 39.2826C11.2339 39.364 12.0563 39.3736 12.8909 39.2932L12.2669 32.8161L11.6429 26.3389C11.7213 26.3314 11.7601 26.3361 11.7497 26.3351L11.0913 32.8088ZM12.2669 32.8161L12.8909 39.2932C13.7788 39.2077 15.8297 38.965 17.6308 37.6339L13.7633 32.4008L9.89581 27.1677C10.6243 26.6293 11.2547 26.4412 11.4382 26.3903C11.6643 26.3276 11.7578 26.3278 11.6429 26.3389L12.2669 32.8161ZM13.7633 32.4008L17.6308 37.6339C20.1445 35.7761 20.8099 32.9967 20.602 30.8382L14.1248 31.4622L7.64763 32.0861C7.59475 31.5372 7.60949 30.6655 7.99223 29.6717C8.39647 28.622 9.08626 27.766 9.89581 27.1677L13.7633 32.4008ZM14.1248 31.4622L20.602 30.8382C20.4791 29.5631 19.9855 27.5616 18.2378 25.9396L13.8112 30.7091L9.3847 35.4787C7.98988 34.1842 7.70529 32.6847 7.64763 32.0861L14.1248 31.4622ZM13.8112 30.7091L18.4793 26.1756C16.9049 24.5546 14.912 24.0698 14.2709 23.9148L12.7417 30.2398L11.2126 36.5647C11.2469 36.573 11.0776 36.5366 10.7951 36.4126C10.564 36.3112 9.86293 35.9837 9.14321 35.2426L13.8112 30.7091ZM12.7417 30.2398L14.2709 23.9148C13.5693 23.7452 12.606 23.5493 11.4622 23.3328L10.2521 29.7264L9.04197 36.1201C10.1485 36.3295 10.845 36.4758 11.2126 36.5647L12.7417 30.2398ZM10.2521 29.7264L11.3977 23.3209C11.4316 23.327 11.5505 23.3534 11.7167 23.4351C11.8871 23.5189 12.0521 23.6339 12.1916 23.7676L7.69058 28.4669L3.18954 33.1662C4.88725 34.7923 6.94493 35.7454 9.10652 36.132L10.2521 29.7264ZM7.69058 28.4669L12.3288 23.9029C12.5516 24.1294 12.7334 24.4 12.8565 24.6798C12.9754 24.9499 13.0043 25.1477 13.0106 25.213L6.53345 25.8369L0.0562885 26.4609C0.282685 28.811 1.19903 31.1474 3.05238 33.0309L7.69058 28.4669ZM6.53345 25.8369L13.0106 25.213C13.0134 25.2417 13.0357 25.5533 12.8712 26.0087C12.6972 26.4901 12.4118 26.8609 12.1559 27.0876L7.84159 22.2163L3.52728 17.345C0.750787 19.804 -0.26192 23.1577 0.0562885 26.4609L6.53345 25.8369ZM7.84159 22.2163L12.1559 27.0876C11.9801 27.2433 11.8764 27.2674 11.9647 27.2346C12.0652 27.1974 12.3399 27.1152 12.8577 27.0653L12.2337 20.5882L11.6098 14.111C8.87673 14.3743 5.92079 15.2252 3.52728 17.345L7.84159 22.2163ZM12.2337 20.5882L12.8577 27.0653C13.2865 27.024 13.54 27.0306 13.6515 27.0394C13.7675 27.0486 13.6491 27.0539 13.3852 26.9553L15.6642 20.8602L17.9431 14.7652C15.7798 13.9563 13.5168 13.9273 11.6098 14.111L12.2337 20.5882ZM15.6642 20.8602L13.3852 26.9552C13.072 26.8381 12.3807 26.5139 11.7235 25.7515C11.0142 24.9285 10.6606 23.9596 10.5776 23.0975L17.0548 22.4736L23.5319 21.8496C23.376 20.2314 22.7543 18.6155 21.5814 17.2547C20.4607 15.9545 19.1105 15.2017 17.9431 14.7652L15.6642 20.8602ZM17.0548 22.4736L10.5776 23.0975C10.5396 22.7032 10.5484 22.1822 10.6939 21.5895C10.8422 20.985 11.1071 20.4125 11.4664 19.9121L16.7519 23.7078L22.0373 27.5034C23.3239 25.712 23.7082 23.68 23.5319 21.8496L17.0548 22.4736ZM16.7519 23.7078L11.4664 19.9121C11.9001 19.3083 12.4896 18.7719 13.2053 18.386C13.9021 18.0102 14.5552 17.8641 15.0397 17.8175L15.6636 24.2946L16.2876 30.7718C18.3647 30.5717 20.5469 29.5788 22.0373 27.5034L16.7519 23.7078ZM15.6636 24.2946L15.0397 17.8175C15.2574 17.7965 15.4222 17.7966 15.5174 17.7993C15.615 17.8021 15.6738 17.8086 15.6857 17.81L14.9386 24.2741L14.1916 30.7382C14.7537 30.8032 15.4836 30.8492 16.2876 30.7718L15.6636 24.2946ZM14.9386 24.2741L15.7871 17.8225C15.611 17.7993 15.3551 17.7615 15.0054 17.7046L13.9605 24.1273L12.9155 30.55C13.3411 30.6193 13.7374 30.6793 14.0902 30.7257L14.9386 24.2741ZM13.9605 24.1273L15.5514 17.8176C14.9018 17.6539 14.2556 17.5503 13.6224 17.4936L13.042 23.9748L12.4616 30.456C12.4767 30.4573 12.4428 30.4554 12.3696 30.437L13.9605 24.1273ZM13.042 23.9748L13.7004 17.501C12.9258 17.4222 12.1726 17.4309 11.4542 17.5001L12.0782 23.9772L12.7022 30.4544C12.6604 30.4584 12.5497 30.4654 12.3836 30.4485L13.042 23.9748ZM12.0782 23.9772L11.4542 17.5001C10.4089 17.6008 8.47952 17.9376 6.77501 19.4096C4.68869 21.2114 4.0674 23.6917 4.26607 25.7541L10.7432 25.1301L17.2204 24.5062C17.2773 25.0968 17.2515 25.9348 16.9163 26.8709C16.5687 27.842 15.981 28.655 15.2812 29.2593C14.0217 30.347 12.7923 30.4457 12.7022 30.4544L12.0782 23.9772ZM10.7432 25.1301L4.26607 25.7541C4.53993 28.5969 6.25104 30.5882 8.0682 31.675L11.4081 26.0904L14.748 20.5057C15.1765 20.762 15.7709 21.2174 16.288 21.9643C16.8275 22.7433 17.136 23.6301 17.2204 24.5062L10.7432 25.1301ZM11.4081 26.0904L8.26554 31.7883C9.66268 32.5589 11.3446 32.9229 12.4286 33.1336L13.6705 26.7461L14.9123 20.3585C14.7013 20.3175 14.5266 20.2801 14.3847 20.247C14.2415 20.2136 14.1449 20.1877 14.0874 20.1711C14.0267 20.1535 14.0345 20.1533 14.0929 20.1756C14.124 20.1874 14.1784 20.209 14.2509 20.2417C14.3226 20.2741 14.4255 20.3233 14.5507 20.3924L11.4081 26.0904ZM13.6705 26.7461L12.4228 33.1325C12.8414 33.2143 13.0578 33.2936 13.1278 33.3232C13.1963 33.3521 13.0511 33.3023 12.817 33.0981L17.0937 28.1937L21.3703 23.2893C19.4073 21.5776 17.0215 20.7706 14.9182 20.3597L13.6705 26.7461ZM17.0937 28.1937L12.8845 33.1562C12.5545 32.8763 12.2948 32.5294 12.1263 32.1767C11.9671 31.8435 11.9402 31.6131 11.9372 31.5825L18.4144 30.9586L24.8916 30.3346C24.6479 27.8053 23.6062 25.185 21.3028 23.2313L17.0937 28.1937ZM18.4144 30.9586L11.9372 31.5825C11.9223 31.4273 11.9245 31.0822 12.0801 30.6555C12.2368 30.226 12.4654 29.943 12.6046 29.8085L17.1275 34.4868L21.6504 39.165C24.0907 36.8058 25.2127 33.668 24.8916 30.3346L18.4144 30.9586ZM17.1275 34.4868L12.6156 29.7979C12.818 29.6032 12.9714 29.5442 12.9508 29.5523C12.9139 29.5668 12.7022 29.6411 12.2365 29.6859L12.8605 36.1631L13.4844 42.6403C16.2544 42.3734 19.263 41.4623 21.6394 39.1757L17.1275 34.4868ZM22.6513 33.3823L18.5534 38.437V38.437L22.6513 33.3823ZM21.5184 21.6218L26.4711 25.8424L26.5058 25.8013L21.5184 21.6218ZM31.6073 20.6499L27.5094 25.7046L27.5513 25.7383L31.6073 20.6499ZM32.7402 32.4104L37.7277 36.5899L37.7277 36.5899L32.7402 32.4104ZM28.8974 30.6717L32.6827 35.9646L32.8837 35.8149L28.8974 30.6717ZM29.6422 29.3347L23.3462 27.6907L23.3002 27.8784L29.6422 29.3347ZM29.1534 24.2604L23.206 26.9006L23.287 27.076L29.1534 24.2604ZM28.1699 23.12L25.2387 28.9295L25.4646 29.0381L28.1699 23.12ZM25.3641 23.3903L29.1494 28.6831L29.2316 28.6234L25.3641 23.3903ZM24.5865 24.7003L18.2905 23.0564L18.2445 23.244L24.5865 24.7003ZM25.0754 29.7746L19.1279 32.4148L19.2089 32.5903L25.0754 29.7746ZM26.0916 30.942L23.1604 36.7516L23.5169 36.9181L26.0916 30.942ZM27.8712 34.7171L27.2472 28.2399C26.7928 28.2837 26.5972 28.237 26.5814 28.2329C26.5743 28.2311 26.5977 28.2367 26.6393 28.2574C26.6816 28.2785 26.7202 28.304 26.7492 28.3275L22.6513 33.3823L18.5534 38.437C21.5222 40.8437 25.0807 41.5232 28.4951 41.1942L27.8712 34.7171ZM22.6513 33.3823L26.7492 28.3275C27.0431 28.5658 27.0899 28.7487 27.0251 28.5959C26.948 28.4139 26.7971 27.9461 26.7114 27.0563L20.2342 27.6803L13.7571 28.3043C14.0932 31.7935 15.2512 35.7598 18.5534 38.437L22.6513 33.3823ZM20.2342 27.6803L26.7114 27.0563C26.6242 26.1511 26.6839 25.6596 26.724 25.4703C26.7575 25.3125 26.7405 25.5263 26.4711 25.8424L21.5184 21.6218L16.5657 17.4012C13.7842 20.6652 13.4218 24.8243 13.7571 28.3043L20.2342 27.6803ZM21.5184 21.6218L26.5058 25.8013C26.4819 25.83 26.4488 25.8624 26.4114 25.8911C26.3744 25.9194 26.3525 25.9294 26.3592 25.9262C26.3739 25.9192 26.557 25.836 27.0114 25.7922L26.3875 19.3151L25.7635 12.8379C22.3491 13.1668 18.9857 14.5131 16.531 17.4423L21.5184 21.6218ZM26.3875 19.3151L27.0114 25.7922C27.4658 25.7485 27.6615 25.7952 27.6772 25.7992C27.6844 25.8011 27.661 25.7955 27.6193 25.7748C27.5771 25.7537 27.5385 25.7282 27.5094 25.7046L31.6073 20.6499L35.7052 15.5952C32.7365 13.1884 29.1779 12.509 25.7635 12.8379L26.3875 19.3151ZM31.6073 20.6499L27.5513 25.7383C27.2266 25.4795 27.1691 25.2728 27.2321 25.4214C27.3076 25.5995 27.46 26.0706 27.5472 26.9758L34.0244 26.3519L40.5016 25.7279C40.1663 22.2479 39.0167 18.2345 35.6633 15.5615L31.6073 20.6499ZM34.0244 26.3519L27.5472 26.9758C27.633 27.8656 27.5742 28.3535 27.5332 28.5469C27.4988 28.7093 27.5098 28.5208 27.7528 28.2308L32.7402 32.4104L37.7277 36.5899C40.4582 33.3316 40.8377 29.2172 40.5016 25.7279L34.0244 26.3519ZM32.7402 32.4104L27.7528 28.2308C27.7768 28.2022 27.8098 28.1698 27.8473 28.141C27.8842 28.1127 27.9061 28.1028 27.8994 28.106C27.8847 28.1129 27.7016 28.1962 27.2472 28.2399L27.8712 34.7171L28.4951 41.1942C31.9096 40.8653 35.273 39.5191 37.7277 36.5899L32.7402 32.4104ZM27.5261 31.1352L28.1501 37.6124C29.5388 37.4786 31.1714 37.0454 32.6827 35.9646L28.8974 30.6717L25.1121 25.3789C25.9094 24.8087 26.6278 24.6845 26.9022 24.6581L27.5261 31.1352ZM28.8974 30.6717L32.8837 35.8149C34.8278 34.3081 35.6414 32.2843 35.9843 30.791L29.6422 29.3347L23.3002 27.8784C23.3601 27.6174 23.6771 26.485 24.9111 25.5286L28.8974 30.6717ZM29.6422 29.3347L35.9383 30.9787C36.3836 29.2734 36.3371 27.5302 36.2033 26.142L29.7262 26.7659L23.249 27.3899C23.282 27.7327 23.2833 27.9326 23.2806 28.0165C23.2793 28.0547 23.2779 28.0459 23.2841 27.9975C23.2902 27.9503 23.3063 27.8433 23.3462 27.6907L29.6422 29.3347ZM29.7262 26.7659L36.2033 26.142C36.0696 24.7537 35.7825 23.0337 35.0199 21.4448L29.1534 24.2604L23.287 27.076C23.2187 26.9338 23.1825 26.8319 23.1675 26.7867C23.1522 26.7404 23.1519 26.7315 23.1604 26.7688C23.1791 26.8506 23.216 27.0471 23.249 27.3899L29.7262 26.7659ZM29.1534 24.2604L35.1009 21.6202C34.4798 20.2212 33.2426 18.284 30.8752 17.2019L28.1699 23.12L25.4646 29.0381C23.8956 28.3209 23.314 27.144 23.206 26.9006L29.1534 24.2604ZM28.1699 23.12L31.1011 17.3104C29.3605 16.4322 27.5897 16.2771 26.1086 16.4198L26.7325 22.8969L27.3565 29.3741C26.9897 29.4094 26.1772 29.4031 25.2387 28.9295L28.1699 23.12ZM26.7325 22.8969L26.1086 16.4198C24.5852 16.5665 22.9612 17.0748 21.4966 18.1572L25.3641 23.3903L29.2316 28.6234C28.517 29.1515 27.8052 29.3309 27.3565 29.3741L26.7325 22.8969ZM25.3641 23.3903L21.5788 18.0974C19.5278 19.5642 18.6658 21.6192 18.2905 23.0564L24.5865 24.7003L30.8826 26.3443C30.8301 26.5453 30.4864 27.727 29.1494 28.6831L25.3641 23.3903ZM24.5865 24.7003L18.2445 23.244C17.872 24.8661 17.9247 26.534 18.0553 27.8902L24.5325 27.2662L31.0096 26.6423C30.9748 26.2807 30.9702 26.055 30.9726 25.941C30.9737 25.8874 30.976 25.8789 30.9728 25.9086C30.9697 25.937 30.9591 26.024 30.9286 26.1567L24.5865 24.7003ZM24.5325 27.2662L18.0553 27.8902C18.186 29.2464 18.4526 30.8937 19.1279 32.4148L25.0754 29.7746L31.0228 27.1344C31.078 27.2588 31.1051 27.3422 31.1136 27.3695C31.1224 27.3981 31.1185 27.3901 31.1072 27.3377C31.083 27.2262 31.0445 27.0038 31.0096 26.6423L24.5325 27.2662ZM25.0754 29.7746L19.2089 32.5903C19.8515 33.9291 21.0353 35.6794 23.1604 36.7516L26.0916 30.942L29.0228 25.1325C30.3457 25.8 30.852 26.7719 30.9418 26.959L25.0754 29.7746ZM26.0916 30.942L23.5169 36.9181C25.1125 37.6056 26.7213 37.75 28.1501 37.6124L27.5261 31.1352L26.9022 24.6581C27.2564 24.6239 27.9088 24.6396 28.6663 24.9659L26.0916 30.942ZM39.9021 18.4952L35.7632 23.5164L35.9273 23.6473L39.9021 18.4952ZM40.5234 19.9416L34.0463 20.5656L46.5085 22.4955L40.5234 19.9416ZM41.9048 18.3324L45.2921 23.8884L45.3596 23.8467L41.9048 18.3324ZM46.4906 20.9032L42.3785 15.86L42.3785 15.86L46.4906 20.9032ZM42.2883 22.0009L44.7267 28.034L44.9285 27.9484L42.2883 22.0009ZM41.2432 23.0355L35.1307 20.8038L35.0884 20.9233L41.2432 23.0355ZM39.7876 33.5691L39.1637 27.092C39.3564 27.0734 40.7089 26.9821 42.1207 28.0796C43.6082 29.236 43.8797 30.7031 43.9201 31.1225L37.443 31.7465L30.9658 32.3704C31.1366 34.143 31.8641 36.5904 34.1332 38.3544C36.3265 40.0594 38.7862 40.2029 40.4116 40.0463L39.7876 33.5691ZM37.443 31.7465L43.9201 31.1225L42.8304 19.8098L36.3532 20.4337L29.876 21.0577L30.9658 32.3704L37.443 31.7465ZM36.3532 20.4337L42.8304 19.8098C42.8673 20.1935 42.8936 21.6646 41.6738 23.082C40.5006 24.4451 39.1426 24.6236 38.9279 24.6443L38.3039 18.1671L37.68 11.69C36.0324 11.8487 33.633 12.4739 31.8096 14.5926C29.9395 16.7655 29.7068 19.3009 29.876 21.0577L36.3532 20.4337ZM38.3039 18.1671L38.9279 24.6443C38.9057 24.6464 37.3499 24.8243 35.7632 23.5164L39.9021 18.4952L44.0409 13.4739C41.7561 11.5906 39.1349 11.5498 37.68 11.69L38.3039 18.1671ZM39.9021 18.4952L35.9273 23.6473C34.1943 22.3103 34.0516 20.6215 34.0463 20.5656L40.5234 19.9416L47.0006 19.3177C46.861 17.8689 46.3041 15.2157 43.8769 13.3431L39.9021 18.4952ZM40.5234 19.9416L46.5085 22.4955C46.4114 22.723 46.257 22.992 46.0274 23.2594C45.7969 23.5279 45.5399 23.7373 45.2921 23.8884L41.9048 18.3324L38.5175 12.7764C36.7035 13.8823 35.3511 15.483 34.5384 17.3878L40.5234 19.9416ZM41.9048 18.3324L45.3596 23.8467C45.0037 24.0696 44.7643 24.0821 44.8379 24.075L44.214 17.5978L43.59 11.1206C41.8727 11.2861 40.0939 11.7882 38.45 12.8181L41.9048 18.3324ZM44.214 17.5978L44.8379 24.075C44.816 24.0771 44.5572 24.102 44.1416 24.0234C43.7055 23.9409 43.0679 23.7372 42.4062 23.2637C40.8954 22.1825 40.5677 20.7135 40.5195 20.2131L46.9966 19.5892L53.4738 18.9652C53.2818 16.9724 52.4185 14.4253 49.9801 12.6803C47.7253 11.0667 45.2431 10.9614 43.59 11.1206L44.214 17.5978ZM46.9966 19.5892L40.5195 20.2131C40.468 19.6782 40.4958 18.8856 40.838 17.997C41.191 17.0803 41.7644 16.3608 42.3785 15.86L46.4906 20.9032L50.6026 25.9464C52.886 24.0846 53.7092 21.4092 53.4738 18.9652L46.9966 19.5892ZM46.4906 20.9032L42.3785 15.86C43.0405 15.3203 43.6186 15.1259 43.793 15.0727C43.991 15.0123 44.0367 15.0241 43.8473 15.0423L44.4713 21.5195L45.0952 27.9967C46.3528 27.8755 48.6598 27.5305 50.6026 25.9464L46.4906 20.9032ZM44.4713 21.5195L43.8473 15.0423C42.6072 15.1618 41.0882 15.4142 39.6481 16.0535L42.2883 22.0009L44.9285 27.9484C44.8024 28.0044 44.7105 28.0355 44.6647 28.0499C44.6181 28.0645 44.6027 28.0669 44.6255 28.0619C44.6476 28.057 44.6972 28.047 44.7783 28.0348C44.859 28.0226 44.9638 28.0093 45.0952 27.9967L44.4713 21.5195ZM42.2883 22.0009L39.85 15.9679C37.8198 16.7884 36.0073 18.4031 35.1307 20.8038L41.2432 23.0355L47.3557 25.2672C47.1276 25.892 46.7482 26.5129 46.2135 27.0423C45.6906 27.5598 45.1474 27.8639 44.7267 28.034L42.2883 22.0009ZM41.2432 23.0355L35.0884 20.9233C34.4847 22.6823 34.5383 24.4225 34.6516 25.5985L41.1288 24.9746L47.6059 24.3506C47.589 24.175 47.5984 24.1523 47.5928 24.2464C47.5881 24.326 47.5635 24.6655 47.398 25.1477L41.2432 23.0355ZM41.1288 24.9746L34.6516 25.5985L35.2641 31.9564L41.7412 31.3324L48.2184 30.7084L47.6059 24.3506L41.1288 24.9746ZM41.7412 31.3324L35.2641 31.9564C35.2237 31.5369 35.2101 30.045 36.4496 28.6259C37.6259 27.2791 38.971 27.1105 39.1637 27.092L39.7876 33.5691L40.4116 40.0463C42.037 39.8897 44.4241 39.2794 46.2516 37.187C48.1422 35.0223 48.3891 32.481 48.2184 30.7084L41.7412 31.3324ZM51.4452 17.3832L47.3063 22.4045L47.4704 22.5353L51.4452 17.3832ZM52.0665 18.8297L45.5894 19.4536L58.0516 21.3835L52.0665 18.8297ZM53.4479 17.2204L56.8352 22.7764L56.9027 22.7347L53.4479 17.2204ZM58.0337 19.7912L53.9216 14.748L53.9216 14.748L58.0337 19.7912ZM53.8314 20.8889L56.2698 26.922L56.4716 26.8364L53.8314 20.8889ZM52.7863 21.9235L46.6738 19.6918L46.6315 19.8113L52.7863 21.9235ZM51.3307 32.4572L50.7068 25.98C50.8995 25.9614 52.252 25.8701 53.6638 26.9676C55.1513 28.124 55.4229 29.5911 55.4633 30.0105L48.9861 30.6345L42.5089 31.2584C42.6797 33.031 43.4072 35.4784 45.6763 37.2424C47.8696 38.9475 50.3293 39.0909 51.9547 38.9343L51.3307 32.4572ZM48.9861 30.6345L55.4633 30.0105L54.3735 18.6978L47.8963 19.3218L41.4192 19.9457L42.5089 31.2584L48.9861 30.6345ZM47.8963 19.3218L54.3735 18.6978C54.4104 19.0816 54.4367 20.5527 53.2169 21.97C52.0437 23.3331 50.6857 23.5116 50.471 23.5323L49.847 17.0552L49.2231 10.578C47.5756 10.7367 45.1761 11.362 43.3527 13.4806C41.4826 15.6535 41.2499 18.1889 41.4192 19.9457L47.8963 19.3218ZM49.847 17.0552L50.471 23.5323C50.4488 23.5345 48.8931 23.7123 47.3063 22.4045L51.4452 17.3832L55.584 12.362C53.2992 10.4787 50.678 10.4378 49.2231 10.578L49.847 17.0552ZM51.4452 17.3832L47.4704 22.5353C45.7374 21.1983 45.5947 19.5095 45.5894 19.4536L52.0665 18.8297L58.5437 18.2057C58.4041 16.7569 57.8472 14.1037 55.42 12.2311L51.4452 17.3832ZM52.0665 18.8297L58.0516 21.3835C57.9545 21.6111 57.8001 21.88 57.5706 22.1474C57.34 22.416 57.083 22.6254 56.8352 22.7764L53.4479 17.2204L50.0607 11.6644C48.2466 12.7703 46.8942 14.371 46.0815 16.2758L52.0665 18.8297ZM53.4479 17.2204L56.9027 22.7347C56.5468 22.9577 56.3075 22.9701 56.3811 22.963L55.7571 16.4858L55.1331 10.0087C53.4158 10.1741 51.637 10.6762 49.9932 11.7061L53.4479 17.2204ZM55.7571 16.4858L56.3811 22.963C56.3591 22.9651 56.1003 22.99 55.6847 22.9114C55.2486 22.829 54.611 22.6252 53.9493 22.1517C52.4385 21.0705 52.1108 19.6015 52.0626 19.1012L58.5398 18.4772L65.0169 17.8532C64.8249 15.8604 63.9616 13.3133 61.5232 11.5683C59.2685 9.95475 56.7862 9.84942 55.1331 10.0087L55.7571 16.4858ZM58.5398 18.4772L52.0626 19.1012C52.0111 18.5662 52.0389 17.7736 52.3811 16.885C52.7341 15.9683 53.3075 15.2488 53.9216 14.748L58.0337 19.7912L62.1457 24.8344C64.4291 22.9727 65.2524 20.2973 65.0169 17.8532L58.5398 18.4772ZM58.0337 19.7912L53.9216 14.748C54.5836 14.2083 55.1618 14.0139 55.3361 13.9607C55.5341 13.9003 55.5798 13.9121 55.3904 13.9304L56.0144 20.4075L56.6383 26.8847C57.8959 26.7635 60.2029 26.4186 62.1458 24.8344L58.0337 19.7912ZM56.0144 20.4075L55.3904 13.9304C54.1503 14.0498 52.6313 14.3022 51.1913 14.9415L53.8314 20.8889L56.4716 26.8364C56.3455 26.8924 56.2536 26.9235 56.2078 26.9379C56.1612 26.9525 56.1459 26.9549 56.1686 26.9499C56.1908 26.945 56.2403 26.935 56.3214 26.9228C56.4021 26.9106 56.5069 26.8973 56.6383 26.8847L56.0144 20.4075ZM53.8314 20.8889L51.3931 14.8559C49.3629 15.6765 47.5504 17.2911 46.6738 19.6918L52.7863 21.9235L58.8988 24.1552C58.6707 24.78 58.2913 25.401 57.7566 25.9303C57.2337 26.4479 56.6906 26.7519 56.2698 26.922L53.8314 20.8889ZM52.7863 21.9235L46.6315 19.8113C46.0279 21.5703 46.0814 23.3106 46.1947 24.4866L52.6719 23.8626L59.149 23.2386C59.1321 23.0631 59.1415 23.0403 59.1359 23.1345C59.1312 23.2141 59.1066 23.5535 58.9411 24.0358L52.7863 21.9235ZM52.6719 23.8626L46.1947 24.4866L46.8072 30.8444L53.2843 30.2204L59.7615 29.5964L59.149 23.2386L52.6719 23.8626ZM53.2843 30.2204L46.8072 30.8444C46.7668 30.4249 46.7532 28.933 47.9927 27.5139C49.169 26.1671 50.5141 25.9986 50.7068 25.98L51.3307 32.4572L51.9547 38.9343C53.5801 38.7777 55.9672 38.1674 57.7947 36.075C59.6853 33.9103 59.9323 31.369 59.7615 29.5964L53.2843 30.2204ZM60.7966 34.6483L57.0772 29.3088L56.8346 29.4863L60.7966 34.6483ZM63.5283 34.2345L64.4215 27.7889L64.1273 27.755L63.5283 34.2345ZM66.1492 33.9217L69.9519 39.2022V39.2022L66.1492 33.9217ZM66.1943 32.2002L60.0892 34.452V34.452L66.1943 32.2002ZM65.4363 30.5862L59.5991 33.462L59.6681 33.598L65.4363 30.5862ZM63.9192 27.6595L58.1695 30.7065L58.1769 30.7204L63.9192 27.6595ZM59.3168 18.9747L53.5347 21.9596L53.5671 22.0217L59.3168 18.9747ZM59.651 16.5023L63.5186 21.7354L63.6681 21.6215L59.651 16.5023ZM62.3885 16.1483L58.6179 21.4516L59.0014 21.7044L62.3885 16.1483ZM63.167 17.0373L57.2596 19.766L57.3486 19.9508L63.167 17.0373ZM67.8298 26.3489L62.0114 29.2624L73.9143 28.6558L67.8298 26.3489ZM68.9427 22.2651L62.4957 21.3824L62.4814 21.494L68.9427 22.2651ZM68.9806 19.2187L62.5288 20.0655L62.5367 20.1234L68.9806 19.2187ZM68.7261 17.8273L62.3498 19.1259L62.4396 19.5076L68.7261 17.8273ZM68.5675 17.1196L62.2178 18.5421L62.3385 19.0017L68.5675 17.1196ZM68.9966 15.6322L73.2077 20.593L73.2497 20.557L68.9966 15.6322ZM71.97 15.2253L68.1994 20.5286L68.5829 20.7814L71.97 15.2253ZM72.7543 16.174L78.7505 13.6464L78.7373 13.6155L72.7543 16.174ZM73.0398 17.2611L66.5996 18.1925L66.6568 18.5265L73.0398 17.2611ZM73.2007 21.4331L66.7182 20.8672L66.709 20.9838L73.2007 21.4331ZM72.688 24.5553L66.4042 22.8653L66.3848 22.939L72.688 24.5553ZM71.6403 27.1266L77.0879 30.6856L77.2119 30.4882L71.6403 27.1266ZM71.2501 27.7667L65.6579 24.4395L65.5147 24.693L71.2501 27.7667ZM70.5901 28.7341L75.4658 33.0435L75.6114 32.8729L70.5901 28.7341ZM69.7223 29.4202L66.8638 23.5745L65.4418 34.3212L69.7223 29.4202ZM70.5738 30.7541L76.7398 28.6746L76.7238 28.6277L70.5738 30.7541ZM69.6982 36.0502L65.1328 31.4134L65.038 31.5086L69.6982 36.0502ZM64.8102 37.8466L64.1862 31.3694C63.9938 31.388 63.8476 31.395 63.743 31.3965C63.6915 31.3972 63.6528 31.3965 63.6263 31.3955C63.5997 31.3946 63.5874 31.3934 63.5882 31.3935C63.5889 31.3936 63.6052 31.3951 63.6354 31.4C63.6656 31.4048 63.7125 31.4135 63.7739 31.4283C63.8943 31.4573 64.0888 31.5144 64.3311 31.6243C64.8414 31.8561 65.5224 32.3079 66.0833 33.0919C66.6448 33.8767 66.8539 34.6701 66.9083 35.2344L60.4311 35.8584L53.954 36.4823C54.2545 39.6023 56.1074 42.1835 58.9507 43.4744C61.2243 44.5067 63.6421 44.4964 65.4341 44.3238L64.8102 37.8466ZM60.4311 35.8584L66.9083 35.2344C66.9453 35.6188 67.0593 38.0443 64.7586 39.8102L60.7966 34.6483L56.8346 29.4863C53.9354 31.7116 53.8058 34.9438 53.954 36.4823L60.4311 35.8584ZM60.7966 34.6483L64.5159 39.9877C63.5681 40.6479 62.7658 40.7247 62.6782 40.7331L62.0542 34.256L61.4302 27.7788C60.268 27.8908 58.6273 28.2291 57.0772 29.3088L60.7966 34.6483ZM62.0542 34.256L62.6782 40.7331C62.8045 40.721 62.8887 40.7175 62.9355 40.7168C62.9831 40.7161 62.9783 40.7185 62.9293 40.714L63.5283 34.2345L64.1273 27.755C63.1924 27.6685 62.2769 27.6972 61.4302 27.7788L62.0542 34.256ZM63.5283 34.2345L62.635 40.68C63.6551 40.8214 64.646 40.8147 65.5695 40.7257L64.9456 34.2486L64.3216 27.7714C64.2694 27.7764 64.2528 27.7755 64.2679 27.7756C64.2832 27.7758 64.3363 27.7771 64.4215 27.7889L63.5283 34.2345ZM64.9456 34.2486L65.5695 40.7257C66.2964 40.6557 68.2217 40.4481 69.9519 39.2022L66.1492 33.9217L62.3466 28.6413C63.1 28.0987 63.759 27.9038 63.9741 27.8454C64.2354 27.7745 64.3758 27.7662 64.3216 27.7714L64.9456 34.2486ZM66.1492 33.9217L69.9519 39.2022C72.7207 37.2082 73.0763 34.2157 72.9098 32.4872L66.4327 33.1112L59.9555 33.7351C59.9115 33.2789 59.899 32.4438 60.2466 31.4496C60.6254 30.3664 61.3418 29.3649 62.3466 28.6413L66.1492 33.9217ZM66.4327 33.1112L72.9098 32.4872C72.8102 31.4528 72.5227 30.5539 72.2994 29.9484L66.1943 32.2002L60.0892 34.452C60.1013 34.4848 60.0857 34.4475 60.0606 34.3517C60.0377 34.2639 59.9856 34.0477 59.9555 33.7351L66.4327 33.1112ZM66.1943 32.2002L72.2994 29.9484C72.0131 29.1722 71.5997 28.3314 71.2045 27.5744L65.4363 30.5862L59.6681 33.598C59.8238 33.8961 59.9359 34.1226 60.0129 34.2865C60.0958 34.463 60.1092 34.5063 60.0892 34.452L66.1943 32.2002ZM65.4363 30.5862L71.2735 27.7104C70.8785 26.9088 70.3351 25.8624 69.6615 24.5986L63.9192 27.6595L58.1769 30.7204C58.827 31.94 59.295 32.8448 59.5991 33.462L65.4363 30.5862ZM63.9192 27.6595L69.6689 24.6125L65.0665 15.9278L59.3168 18.9747L53.5671 22.0217L58.1695 30.7065L63.9192 27.6595ZM59.3168 18.9747L65.099 15.9898C65.3502 16.4765 65.4803 16.9708 65.5229 17.4129L59.0457 18.0368L52.5686 18.6608C52.6763 19.7794 52.9872 20.899 53.5347 21.9596L59.3168 18.9747ZM59.0457 18.0368L65.5229 17.4129C65.566 17.8606 65.5564 18.6335 65.2013 19.5336C64.8274 20.4815 64.2035 21.2293 63.5186 21.7354L59.651 16.5023L55.7835 11.2693C53.142 13.2215 52.3273 16.1562 52.5686 18.6608L59.0457 18.0368ZM59.651 16.5023L63.6681 21.6215C63.2576 21.9437 62.603 22.2732 61.7811 22.3524L61.1572 15.8752L60.5332 9.39808C58.6368 9.58077 56.9781 10.3284 55.634 11.3832L59.651 16.5023ZM61.1572 15.8752L61.7811 22.3524C61.1374 22.4144 59.875 22.3453 58.6179 21.4516L62.3885 16.1483L66.1591 10.8449C64.2552 9.49131 62.1719 9.24022 60.5332 9.39808L61.1572 15.8752ZM62.3885 16.1483L59.0014 21.7044C58.1739 21.1999 57.5893 20.4795 57.2596 19.766L63.167 17.0373L69.0744 14.3086C68.3896 12.8259 67.2859 11.5129 65.7756 10.5922L62.3885 16.1483ZM63.167 17.0373L57.3486 19.9508L62.0114 29.2624L67.8298 26.3489L73.6482 23.4353L68.9855 14.1237L63.167 17.0373ZM67.8298 26.3489L73.9143 28.6558C74.6233 26.7857 75.1843 24.877 75.404 23.0362L68.9427 22.2651L62.4814 21.494C62.4343 21.8881 62.2534 22.7019 61.7453 24.042L67.8298 26.3489ZM68.9427 22.2651L75.3897 23.1478C75.6065 21.5644 75.6521 19.9349 75.4245 18.314L68.9806 19.2187L62.5367 20.1234C62.565 20.3256 62.5854 20.727 62.4957 21.3824L68.9427 22.2651ZM68.9806 19.2187L75.4324 18.3719C75.3388 17.6587 75.2096 16.8843 75.0125 16.147L68.7261 17.8273L62.4396 19.5076C62.431 19.4754 62.4398 19.5033 62.4594 19.6105C62.4783 19.7137 62.5022 19.8628 62.5288 20.0655L68.9806 19.2187ZM68.7261 17.8273L75.1023 16.5287C75.0459 16.2516 74.9319 15.6854 74.7965 15.2375L68.5675 17.1196L62.3385 19.0017C62.3165 18.9288 62.3012 18.8728 62.2932 18.8429C62.2846 18.8108 62.279 18.7882 62.2765 18.7784C62.2721 18.7603 62.2728 18.7622 62.2795 18.7922C62.2857 18.82 62.2948 18.8615 62.307 18.9193C62.3191 18.9764 62.3333 19.045 62.3498 19.1259L68.7261 17.8273ZM68.5675 17.1196L74.9173 15.697C75.0271 16.1873 75.1192 17.0467 74.8212 18.0796C74.5074 19.1674 73.8832 20.0196 73.2077 20.593L68.9966 15.6322L64.7855 10.6714C63.683 11.6072 62.7738 12.8885 62.3169 14.4721C61.8759 16.0008 61.967 17.4227 62.2178 18.5421L68.5675 17.1196ZM68.9966 15.6322L73.2497 20.557C72.9459 20.8194 72.5938 21.0373 72.2146 21.1935C71.8402 21.3477 71.5031 21.4159 71.2432 21.4409L70.6193 14.9637L69.9953 8.48657C68.1414 8.66516 66.2988 9.36416 64.7435 10.7073L68.9966 15.6322ZM70.6193 14.9637L71.2432 21.4409C70.9646 21.4677 69.6288 21.5449 68.1994 20.5286L71.97 15.2253L75.7406 9.92188C73.6643 8.44573 71.4281 8.34855 69.9953 8.48657L70.6193 14.9637ZM71.97 15.2253L68.5829 20.7814C67.5963 20.1799 67.0371 19.3543 66.7712 18.7325L72.7543 16.174L78.7373 13.6155C78.1085 12.145 77.0265 10.6868 75.3571 9.66914L71.97 15.2253ZM72.7543 16.174L66.7581 18.7015C66.6265 18.3893 66.5997 18.193 66.5996 18.1925L73.0398 17.2611L79.4799 16.3298C79.3595 15.4974 79.1424 14.5763 78.7505 13.6464L72.7543 16.174ZM73.0398 17.2611L66.6568 18.5265C66.6828 18.6573 66.6994 18.7524 66.7095 18.8162C66.7199 18.8826 66.7202 18.8951 66.7172 18.8644L73.1944 18.2404L79.6715 17.6164C79.6179 17.0599 79.5229 16.5011 79.4227 15.9958L73.0398 17.2611ZM73.1944 18.2404L66.7172 18.8644C66.7767 19.4821 66.781 20.1474 66.7182 20.8672L73.2007 21.4331L79.6831 21.999C79.8113 20.5314 79.8114 19.0682 79.6715 17.6164L73.1944 18.2404ZM73.2007 21.4331L66.709 20.9838C66.6605 21.6845 66.5541 22.3079 66.4042 22.8653L72.688 24.5553L78.9719 26.2454C79.3543 24.8234 79.5896 23.3654 79.6923 21.8825L73.2007 21.4331ZM72.688 24.5553L66.3848 22.939C66.2716 23.3806 66.1476 23.6343 66.0687 23.765L71.6403 27.1266L77.2119 30.4882C78.0336 29.1262 78.6081 27.6658 78.9912 26.1717L72.688 24.5553ZM71.6403 27.1266L66.1927 23.5676C66.0361 23.8073 65.8381 24.1367 65.6579 24.4395L71.2501 27.7667L76.8423 31.0939C76.9306 30.9455 76.9977 30.8338 77.0464 30.7541C77.0705 30.7145 77.0868 30.6882 77.0965 30.6726C77.1078 30.6545 77.1034 30.6618 77.0879 30.6856L71.6403 27.1266ZM71.2501 27.7667L65.5147 24.693C65.5475 24.6317 65.5722 24.594 65.5821 24.5795C65.5919 24.5651 65.5892 24.5705 65.5689 24.5952L70.5901 28.7341L75.6114 32.8729C76.1073 32.2713 76.5811 31.595 76.9855 30.8404L71.2501 27.7667ZM70.5901 28.7341L65.7145 24.4246C65.897 24.2181 66.2667 23.8665 66.8638 23.5745L69.7223 29.4202L72.5808 35.2658C73.7917 34.6737 74.7399 33.8647 75.4658 33.0435L70.5901 28.7341ZM69.7223 29.4202L65.4418 34.3212C64.8009 33.7614 64.5238 33.1693 64.4239 32.8804L70.5738 30.7541L76.7238 28.6277C76.2341 27.2115 75.3893 25.7301 74.0029 24.5192L69.7223 29.4202ZM70.5738 30.7541L64.4079 32.8335C64.4396 32.9275 64.4684 33.048 64.4839 33.2085L70.9611 32.5846L77.4382 31.9606C77.331 30.8476 77.1017 29.7478 76.7398 28.6746L70.5738 30.7541ZM70.9611 32.5846L64.4839 33.2085C64.466 33.0225 64.4738 32.6646 64.6292 32.238C64.7844 31.8121 65.0066 31.5377 65.1328 31.4134L69.6982 36.0502L74.2637 40.687C76.6273 38.3597 77.7574 35.2742 77.4382 31.9606L70.9611 32.5846ZM69.6982 36.0502L65.038 31.5086C65.4008 31.1364 65.6639 31.0696 65.5188 31.123C65.3674 31.1786 64.9594 31.295 64.1862 31.3694L64.8102 37.8466L65.4341 44.3238C68.289 44.0487 71.8016 43.2153 74.3584 40.5917L69.6982 36.0502Z" fill="var(--c-accent, #FADE26)" mask="url(#path-3-outside-1_801_10455)"/>
<mask id="path-5-outside-2_801_10455" maskUnits="userSpaceOnUse" x="70.0226" y="-0.212298" width="35.8101" height="39.5226" fill="black">
<rect fill="white" x="70.0226" y="-0.212298" width="35.8101" height="39.5226"/>
<path d="M90.119 23.1854C89.4848 23.6388 88.9247 23.8179 88.439 23.7228C87.9579 23.5998 87.5372 23.2862 87.1768 22.782L80.7946 13.8532C80.4226 13.3328 80.262 12.8332 80.313 12.3544C80.3802 11.8641 80.731 11.3922 81.3653 10.9388C81.9996 10.4854 82.5515 10.3121 83.0209 10.4188C83.5067 10.514 83.9355 10.8217 84.3075 11.3422L90.6898 20.271C91.0501 20.7752 91.2025 21.2806 91.1469 21.7872C91.096 22.266 90.7533 22.732 90.119 23.1854ZM93.903 28.4793C93.3175 28.8978 92.718 29.056 92.1045 28.9539C91.5072 28.8403 91.0109 28.5069 90.6156 27.954C90.2088 27.3848 90.0482 26.7992 90.134 26.1972C90.236 25.5837 90.5798 25.0677 91.1653 24.6491C91.7345 24.2423 92.3259 24.0898 92.9395 24.1919C93.553 24.2939 94.0633 24.6296 94.4701 25.1988C94.8654 25.7518 95.012 26.335 94.91 26.9486C94.8079 27.5622 94.4723 28.0724 93.903 28.4793Z"/>
</mask>
<path d="M90.119 23.1854C89.4848 23.6388 88.9247 23.8179 88.439 23.7228C87.9579 23.5998 87.5372 23.2862 87.1768 22.782L80.7946 13.8532C80.4226 13.3328 80.262 12.8332 80.313 12.3544C80.3802 11.8641 80.731 11.3922 81.3653 10.9388C81.9996 10.4854 82.5515 10.3121 83.0209 10.4188C83.5067 10.514 83.9355 10.8217 84.3075 11.3422L90.6898 20.271C91.0501 20.7752 91.2025 21.2806 91.1469 21.7872C91.096 22.266 90.7533 22.732 90.119 23.1854ZM93.903 28.4793C93.3175 28.8978 92.718 29.056 92.1045 28.9539C91.5072 28.8403 91.0109 28.5069 90.6156 27.954C90.2088 27.3848 90.0482 26.7992 90.134 26.1972C90.236 25.5837 90.5798 25.0677 91.1653 24.6491C91.7345 24.2423 92.3259 24.0898 92.9395 24.1919C93.553 24.2939 94.0633 24.6296 94.4701 25.1988C94.8654 25.7518 95.012 26.335 94.91 26.9486C94.8079 27.5622 94.4723 28.0724 93.903 28.4793Z" fill="var(--color-brown, #3F3833)"/>
<path d="M88.439 23.7228L86.8271 30.0271L87.1885 30.1087L88.439 23.7228ZM80.313 12.3544L73.8662 11.4706L73.8424 11.6656L80.313 12.3544ZM83.0209 10.4188L81.5782 16.764L81.7704 16.8047L83.0209 10.4188ZM91.1469 21.7872L84.6786 21.0773L84.6763 21.0984L91.1469 21.7872ZM92.1045 28.9539L90.8879 35.3464L91.0368 35.3729L92.1045 28.9539ZM90.134 26.1972L83.715 25.1296L83.6919 25.2791L90.134 26.1972ZM94.91 26.9486L101.329 28.0162L101.329 28.0162L94.91 26.9486ZM90.119 23.1854L86.3351 17.8916C86.3386 17.8891 87.6288 16.9334 89.6895 17.3369L88.439 23.7228L87.1885 30.1087C90.2207 30.7024 92.6309 29.3885 93.903 28.4792L90.119 23.1854ZM88.439 23.7228L90.0509 17.4185C91.396 17.7624 92.1671 18.5734 92.4706 18.9981L87.1768 22.782L81.883 26.566C82.9073 27.999 84.5199 29.4372 86.8271 30.0271L88.439 23.7228ZM87.1768 22.782L92.4706 18.9981L86.0884 10.0693L80.7946 13.8532L75.5008 17.6372L81.883 26.566L87.1768 22.782ZM80.7946 13.8532L86.0884 10.0693C86.3335 10.4121 86.9503 11.4775 86.7836 13.0433L80.313 12.3544L73.8424 11.6656C73.5738 14.1888 74.5117 16.2535 75.5008 17.6372L80.7946 13.8532ZM80.313 12.3544L86.7599 13.2383C86.4746 15.3187 85.1528 16.2301 85.1493 16.2326L81.3653 10.9388L77.5813 5.64498C76.3092 6.55425 74.2859 8.40938 73.8662 11.4706L80.313 12.3544ZM81.3653 10.9388L85.1493 16.2326C85.0884 16.2761 84.7679 16.5001 84.2046 16.677C83.6035 16.8658 82.6732 17.013 81.5782 16.764L83.0209 10.4188L84.4636 4.07365C81.3179 3.3584 78.8144 4.76361 77.5813 5.64498L81.3653 10.9388ZM83.0209 10.4188L81.7704 16.8047C80.1911 16.4954 79.3153 15.5481 79.0137 15.1262L84.3075 11.3422L89.6014 7.55822C88.5558 6.09541 86.8223 4.53251 84.2714 4.03299L83.0209 10.4188ZM84.3075 11.3422L79.0137 15.1262L85.3959 24.055L90.6898 20.271L95.9836 16.487L89.6014 7.55822L84.3075 11.3422ZM90.6898 20.271L85.3959 24.055C85.036 23.5515 84.5237 22.4888 84.6786 21.0773L91.1469 21.7872L97.6152 22.4971C97.8814 20.0723 97.0642 17.9989 95.9836 16.487L90.6898 20.271ZM91.1469 21.7872L84.6763 21.0984C84.7952 19.9817 85.2357 19.1492 85.6089 18.6416C85.9586 18.1659 86.2743 17.9351 86.3351 17.8916L90.119 23.1854L93.903 28.4792C95.1361 27.5979 97.276 25.684 97.6175 22.4761L91.1469 21.7872ZM93.903 28.4793L90.1191 23.1854C90.3664 23.0087 90.7792 22.7717 91.3537 22.6201C91.947 22.4635 92.5736 22.4354 93.1721 22.535L92.1045 28.9539L91.0368 35.3729C93.6219 35.8029 95.9362 35.0245 97.687 33.7731L93.903 28.4793ZM92.1045 28.9539L93.321 22.5615C93.8697 22.666 94.4191 22.8855 94.9124 23.2169C95.3943 23.5406 95.7148 23.8977 95.9095 24.17L90.6156 27.954L85.3218 31.7379C86.5656 33.478 88.4476 34.8819 90.8879 35.3464L92.1045 28.9539ZM90.6156 27.954L95.9095 24.17C96.0854 24.4162 96.3145 24.8163 96.4656 25.3673C96.6212 25.9346 96.6586 26.5359 96.576 27.1153L90.134 26.1972L83.6919 25.2791C83.3343 27.7885 84.0998 30.0283 85.3218 31.7379L90.6156 27.954ZM90.134 26.1972L96.553 27.2649C96.4534 27.8633 96.224 28.4471 95.8838 28.9578C95.5544 29.4523 95.1966 29.7662 94.9493 29.943L91.1653 24.6491L87.3813 19.3553C85.6306 20.6068 84.145 22.5445 83.715 25.1296L90.134 26.1972ZM91.1653 24.6491L94.9493 29.943C94.6759 30.1383 94.2444 30.3802 93.6597 30.5309C93.0598 30.6855 92.4437 30.706 91.8719 30.6109L92.9395 24.1919L94.0071 17.7729C91.4722 17.3513 89.1631 18.0817 87.3813 19.3553L91.1653 24.6491ZM92.9395 24.1919L91.8719 30.6109C91.3 30.5158 90.7237 30.297 90.2061 29.9565C89.7017 29.6247 89.3717 29.2561 89.1763 28.9828L94.4701 25.1988L99.764 21.4148C98.4904 19.6331 96.542 18.1945 94.0071 17.7729L92.9395 24.1919ZM94.4701 25.1988L89.1763 28.9828C88.9617 28.6825 88.715 28.2315 88.5657 27.6372C88.4134 27.0312 88.4003 26.4259 88.491 25.881L94.91 26.9486L101.329 28.0162C101.742 25.5339 101.06 23.2284 99.764 21.4148L94.4701 25.1988ZM94.91 26.9486L88.491 25.881C88.5861 25.3092 88.8048 24.7329 89.1454 24.2152C89.4771 23.7109 89.8457 23.3808 90.1191 23.1854L93.903 28.4793L97.687 33.7731C99.4688 32.4995 100.907 30.5511 101.329 28.0162L94.91 26.9486Z" fill="var(--c-accent, #FADE26)" mask="url(#path-5-outside-2_801_10455)"/>
</svg>