<svg width="114" height="75" viewBox="0 0 114 75" fill="none" xmlns="http://www.w3.org/2000/svg">
<rect x="27.5391" y="20.2671" width="69" height="35" rx="2" fill="var(--preview-graphic-fill, #FADE26)"/>
<rect x="14.0391" width="48" height="48" rx="24" fill="var(--preview-graphic-fill, #FADE26)"/>
<path d="M44.668 19.0278C44.6674 18.9287 44.6727 18.8297 44.6839 18.7312C44.7039 18.5395 44.7355 18.3378 44.7697 18.1178C44.7902 17.9901 44.8108 17.8548 44.8314 17.712C44.878 17.3812 44.9305 16.9562 44.8714 16.6303C44.8439 16.4762 44.7614 16.1687 44.463 15.9887C44.138 15.7937 43.8055 15.8903 43.6172 15.9778C43.1622 16.1895 42.6247 16.4245 42.1247 16.582C41.8747 16.6603 41.6489 16.7153 41.458 16.7387C41.2597 16.7637 41.1397 16.752 41.0797 16.7345C40.263 16.4928 39.3789 16.362 38.4555 16.362C37.6539 16.362 36.8805 16.4612 36.1572 16.6453C35.8289 16.7287 35.4814 16.687 35.0655 16.5495C34.7667 16.4437 34.4735 16.3224 34.1872 16.1862C34.0366 16.1167 33.875 16.0445 33.7022 15.9695C33.4647 15.8687 33.1605 15.8295 32.868 15.9878C32.6064 16.1295 32.4747 16.3687 32.4072 16.5395C32.273 16.8745 32.2405 17.3137 32.2289 17.6687C32.2222 17.8812 32.2222 18.1353 32.2214 18.3603C32.2214 18.5037 32.2214 18.6353 32.2197 18.737C32.2169 18.8887 32.2105 19.0023 32.2005 19.0778V19.082C31.5505 19.9153 31.1639 20.9053 31.1639 21.977C31.1639 23.5745 32.0222 25.1462 33.3672 26.1528C34.0247 26.6445 34.7922 26.9987 35.6247 27.2312C35.4367 27.5697 35.3359 27.9498 35.3314 28.337V29.052H34.2164C33.9272 29.052 33.5489 28.8228 33.1364 28.3712C32.7514 27.9495 32.458 27.4695 32.323 27.2478C32.0339 26.7712 31.578 26.5028 31.0314 26.4362C30.8667 26.4161 30.7008 26.4622 30.5702 26.5644C30.4395 26.6666 30.3548 26.8165 30.3347 26.9812C30.3146 27.1458 30.3607 27.3117 30.4629 27.4424C30.5651 27.573 30.715 27.6577 30.8797 27.6778C31.0822 27.702 31.1822 27.7778 31.2547 27.897L31.2564 27.9003C31.3947 28.127 31.7405 28.697 32.213 29.2137C32.6589 29.7028 33.3589 30.302 34.2164 30.302H35.3305L35.3314 31.5003C35.3314 31.8453 35.6114 32.1253 35.9564 32.1253H41.3705C41.536 32.1249 41.6945 32.0589 41.8114 31.9417C41.9282 31.8245 41.9939 31.6658 41.9939 31.5003V28.3628C41.9939 27.9528 41.8755 27.5437 41.6705 27.1395C42.4089 26.9103 43.0939 26.587 43.6739 26.1528C45.0489 25.1237 45.7472 23.537 45.7472 21.977C45.7472 20.8812 45.343 19.872 44.668 19.0278Z" fill="var(--preview-graphic-text, #3F3833)"/>
<rect x="57.0918" y="20.2415" width="33" height="16" fill="var(--preview-graphic-fill, #FADE26)"/>
<g transform="translate(67.05 12.83) scale(1.00009279 1.0000047)"><g id="dot">
<path id="Vector" d="M36.7515 21.2904C35.0372 21.2904 33.7653 20.8849 32.9358 20.0738C32.1247 19.2628 31.7192 18.0185 31.7192 16.3411V10.5899H31.0003C29.7468 10.5899 29.1201 10.0277 29.1201 8.90326C29.1201 7.79726 29.7468 7.24427 31.0003 7.24427H31.7192V4.25807C31.7192 3.64977 31.9035 3.15207 32.2722 2.76497C32.6593 2.37788 33.157 2.18433 33.7653 2.18433C34.3552 2.18433 34.8252 2.36866 35.1755 2.73732C35.5257 3.08756 35.7008 3.57604 35.7008 4.20277V5.55762C35.7008 6.23965 35.5902 6.80187 35.369 7.24427H37.9957C39.2492 7.24427 39.8759 7.79726 39.8759 8.90326C39.8759 10.0277 39.2492 10.5899 37.9957 10.5899H35.7008V16.424C35.7008 16.977 35.7653 17.3734 35.8944 17.613C36.0234 17.8342 36.2354 17.9448 36.5303 17.9448C36.9174 17.9448 37.2031 17.9171 37.3875 17.8618C37.5902 17.7881 37.8391 17.7512 38.134 17.7512C38.6317 17.7512 39.028 17.8434 39.3229 18.0277C39.6179 18.1936 39.7653 18.5439 39.7653 19.0784C39.7653 19.8342 39.5257 20.3964 39.0464 20.7651C38.5672 21.1153 37.8022 21.2904 36.7515 21.2904Z" fill="var(--preview-graphic-text, #3F3833)"/>
<path id="Vector_2" d="M21.8593 21.2904C19.8869 21.2904 18.3293 20.7282 17.1865 19.6038C16.0436 18.4794 15.4722 16.6637 15.4722 14.1568C15.4722 11.6314 16.0436 9.81571 17.1865 8.70972C18.3293 7.58529 19.8869 7.02307 21.8593 7.02307C23.8317 7.02307 25.3893 7.58529 26.5321 8.70972C27.675 9.81571 28.2464 11.6314 28.2464 14.1568C28.2464 16.6637 27.675 18.4794 26.5321 19.6038C25.3893 20.7282 23.8317 21.2904 21.8593 21.2904ZM21.8593 17.9724C22.3754 17.9724 22.8086 17.8711 23.1588 17.6683C23.5091 17.4471 23.7764 17.06 23.9607 16.507C24.1635 15.954 24.2648 15.1706 24.2648 14.1568C24.2648 13.1429 24.1635 12.3595 23.9607 11.8065C23.7764 11.2535 23.5091 10.8756 23.1588 10.6729C22.8086 10.4517 22.3754 10.3411 21.8593 10.3411C21.3616 10.3411 20.9284 10.4517 20.5598 10.6729C20.2095 10.8756 19.933 11.2535 19.7303 11.8065C19.5459 12.3595 19.4538 13.1429 19.4538 14.1568C19.4538 15.1706 19.5459 15.954 19.7303 16.507C19.933 17.06 20.2095 17.4471 20.5598 17.6683C20.9284 17.8711 21.3616 17.9724 21.8593 17.9724Z" fill="var(--preview-graphic-text, #3F3833)"/>
<path id="Vector_3" d="M6.55304 21.2905C4.52537 21.2905 2.92168 20.6453 1.74195 19.355C0.580649 18.0646 0 16.1752 0 13.6867C0 12.0277 0.239633 10.7097 0.718898 9.73278C1.19816 8.75581 1.86176 8.06456 2.70969 7.65903C3.57606 7.23507 4.55302 7.02308 5.64059 7.02308C6.61755 7.02308 7.41018 7.1429 8.01848 7.38253C8.62678 7.62217 9.10605 8.0277 9.45628 8.59913C9.32725 8.21203 9.22586 7.85258 9.15213 7.52078C9.09683 7.17055 9.05075 6.76502 9.01388 6.30419C8.99545 5.84335 8.98623 5.25349 8.98623 4.53459V2.1567C8.98623 0.718899 9.60375 0 10.8388 0C12.1844 0 12.8572 0.718899 12.8572 2.1567V13.8526C12.8572 16.3411 12.3042 18.2029 11.1982 19.4379C10.0922 20.6729 8.54383 21.2905 6.55304 21.2905ZM6.35949 17.9725C7.13368 17.9725 7.73277 17.696 8.15673 17.143C8.59913 16.59 8.82033 15.5577 8.82033 14.0462C8.82033 13.0323 8.71895 12.2674 8.51618 11.7512C8.33185 11.2167 8.05535 10.848 7.68668 10.6452C7.31802 10.4425 6.87562 10.3411 6.35949 10.3411C5.84335 10.3411 5.40095 10.4425 5.03229 10.6452C4.66362 10.848 4.37791 11.2167 4.17514 11.7512C3.99081 12.2674 3.89864 13.0323 3.89864 14.0462C3.89864 15.5577 4.11062 16.59 4.53459 17.143C4.97699 17.696 5.58529 17.9725 6.35949 17.9725Z" fill="var(--preview-graphic-text, #3F3833)"/>
</g></g>
<g transform="translate(61.05 6.83) scale(1.0000694 0.999997)"><g id="dot (Stroke)">
<path id="Stroke" d="M45.7656 25.0781C45.7655 24.5441 45.6178 24.1943 45.3232 24.0283C45.0283 23.844 44.6315 23.751 44.1338 23.751C43.839 23.751 43.5904 23.7886 43.3877 23.8623L43.2305 23.8984C43.0542 23.9296 42.8207 23.9453 42.5303 23.9453L42.4238 23.9395C42.1839 23.9153 42.0075 23.8068 41.8945 23.6133C41.7655 23.3736 41.7012 22.9768 41.7012 22.4238V16.5898H43.9961L44.2236 16.583C45.3252 16.5171 45.876 15.9574 45.876 14.9033C45.876 13.7975 45.2493 13.2442 43.9961 13.2441H41.3691C41.5903 12.8018 41.7012 12.2395 41.7012 11.5576V10.2031C41.7012 9.57646 41.5259 9.08753 41.1758 8.7373C40.8256 8.36871 40.3553 8.18464 39.7656 8.18457C39.1575 8.18457 38.6595 8.37778 38.2725 8.76465C37.9039 9.15167 37.7188 9.64968 37.7188 10.2578V13.2441H37C35.7468 13.2442 35.1201 13.7974 35.1201 14.9033C35.1201 16.0277 35.7467 16.5898 37 16.5898H37.7188V22.3408C37.7188 24.0182 38.1245 25.2632 38.9355 26.0742C39.729 26.85 40.9274 27.2534 42.5303 27.2871L42.752 27.291C43.6711 27.291 44.3717 27.1568 44.8535 26.8887L45.0469 26.7656C45.4663 26.443 45.7015 25.9716 45.7539 25.3525L45.7656 25.0781ZM45.1992 29.5801C45.2759 29.5569 45.3555 29.5308 45.4375 29.501L45.1992 29.5801ZM29.3369 16.7998C29.6004 17.0177 29.8095 17.3523 29.9609 17.8066C30.0754 18.1188 30.1552 18.5048 30.2051 18.9639C29.7765 18.2485 29.5018 17.5096 29.3369 16.7998ZM51.7656 25.0781C51.7656 27.1826 51.0251 29.7356 48.7051 31.5205L48.5869 31.6094C46.5514 33.0969 44.2093 33.291 42.752 33.291C40.2911 33.291 37.321 32.7356 34.9668 30.5781L34.7412 30.3643L34.6934 30.3164C33.3755 28.9986 32.6035 27.4613 32.1777 25.9199C32.2993 25.8194 32.4188 25.7151 32.5322 25.6035C33.6748 24.4791 34.246 22.6638 34.2461 20.1572C34.2461 17.632 33.675 15.816 32.5322 14.71C31.6855 13.8768 30.6107 13.3526 29.3086 13.1367C29.5982 11.802 30.2673 10.3539 31.6201 9.16016C31.6832 9.10451 31.7487 9.05256 31.8125 9C32.0374 7.46961 32.6897 5.92688 33.9277 4.62695L34.0293 4.52246C35.6716 2.88014 37.7598 2.18457 39.7656 2.18457C41.6715 2.18464 43.7654 2.82467 45.416 4.49609L45.418 4.49512C45.4326 4.5098 45.4464 4.5253 45.4609 4.54004C45.4821 4.56177 45.5044 4.58242 45.5254 4.60449L45.5225 4.60645C46.5033 5.62608 47.0825 6.77885 47.3936 7.91016C48.0612 8.19614 48.7378 8.59704 49.376 9.16016C51.3637 10.9142 51.876 13.2171 51.876 14.9033C51.876 16.4097 51.4712 18.4332 49.9375 20.1133C51.5313 21.8469 51.7656 24.0148 51.7656 25.0781Z" fill="var(--preview-graphic-fill, #FADE26)"/>
<path id="Stroke_2" d="M34.2461 20.1572C34.2461 17.632 33.675 15.816 32.5322 14.71C31.3894 13.5856 29.8317 13.0235 27.8594 13.0234C25.887 13.0234 24.3294 13.5855 23.1865 14.71C22.0437 15.816 21.4717 17.6319 21.4717 20.1572L21.4785 20.6191C21.5455 22.8881 22.1152 24.5494 23.1865 25.6035C24.3294 26.7279 25.887 27.291 27.8594 27.291C29.8317 27.291 31.3894 26.7279 32.5322 25.6035C33.6034 24.5494 34.1723 22.888 34.2393 20.6191L34.2461 20.1572ZM28.2461 20.1572C28.2461 19.9262 28.2375 19.7247 28.2256 19.5508L27.9209 19.0254C27.901 19.0251 27.8805 19.0234 27.8594 19.0234V21.291C27.862 21.291 27.8646 21.29 27.8672 21.29L28.2334 20.623C28.2406 20.4836 28.2461 20.3287 28.2461 20.1572ZM27.5225 21.0781C27.5315 21.1516 27.5437 21.2173 27.5537 21.2764C27.5841 21.279 27.6169 21.2813 27.6523 21.2832L27.5225 21.0781ZM28.0654 21.2832C28.1009 21.2813 28.1337 21.279 28.1641 21.2764C28.1741 21.2173 28.1862 21.1516 28.1953 21.0781L28.0654 21.2832ZM27.5195 19.2686C27.4937 19.4954 27.4717 19.7884 27.4717 20.1572L27.4766 20.4482C27.4804 20.5754 27.4882 20.6914 27.4961 20.7969L27.7803 21.2881C27.8056 21.2886 27.832 21.291 27.8594 21.291V19.0234C27.7896 19.0234 27.7266 19.0265 27.6699 19.0293L27.5195 19.2686ZM28.2256 19.5508C28.2227 19.5091 28.2172 19.4692 28.2139 19.4307L27.9717 19.0264C27.9552 19.0259 27.9383 19.0256 27.9209 19.0254L28.2256 19.5508ZM28.2139 19.4307C28.2004 19.2746 28.1838 19.144 28.166 19.0361C28.11 19.0312 28.0454 19.0284 27.9717 19.0264L28.2139 19.4307ZM27.6699 19.0293C27.6269 19.0314 27.5876 19.033 27.5518 19.0361C27.5405 19.1043 27.5295 19.1815 27.5195 19.2686L27.6699 19.0293ZM30.2598 20.5264C30.2376 21.3628 30.1383 22.023 29.9609 22.5068C29.7767 23.0596 29.5092 23.4467 29.1592 23.668C28.809 23.8707 28.3754 23.9726 27.8594 23.9727C27.3617 23.9727 26.9282 23.8707 26.5596 23.668C26.2095 23.4467 25.9332 23.0597 25.7305 22.5068C25.5692 22.023 25.4782 21.3629 25.458 20.5264L25.4541 20.1572C25.4541 19.1434 25.5461 18.3596 25.7305 17.8066C25.9332 17.2537 26.2094 16.8756 26.5596 16.6729C26.9282 16.4517 27.3617 16.3408 27.8594 16.3408C28.3754 16.3408 28.809 16.4517 29.1592 16.6729C29.5093 16.8757 29.7767 17.2538 29.9609 17.8066C30.1637 18.3596 30.2646 19.1435 30.2646 20.1572L30.2598 20.5264ZM37.7188 22.3408C37.7188 24.0182 38.1245 25.2632 38.9355 26.0742C39.0044 26.1416 39.0774 26.2049 39.1523 26.2666C38.6142 27.5638 37.8392 28.7996 36.7402 29.8809C34.2283 32.3522 31.0222 33.291 27.8594 33.291C24.7954 33.291 21.6906 32.4102 19.2158 30.1084L18.9785 29.8809C17.8303 28.7511 17.0333 27.4537 16.4932 26.0928C16.7447 25.8978 16.9809 25.6812 17.1982 25.4385C18.3042 24.2034 18.8574 22.341 18.8574 19.8525V10.5547C18.9075 10.5042 18.9574 10.4532 19.0088 10.4033C21.5162 7.95406 24.7092 7.02344 27.8594 7.02344C31.0222 7.02347 34.2283 7.96124 36.7402 10.4326L36.7393 10.4336C37.0993 10.7853 37.4251 11.1533 37.7188 11.5352V13.2441H37C35.7468 13.2442 35.1201 13.7974 35.1201 14.9033C35.1201 16.0277 35.7467 16.5898 37 16.5898H37.7188V22.3408Z" fill="var(--preview-graphic-fill, #FADE26)"/>
<path id="Stroke_3" d="M18.8574 8.15723C18.8574 6.71947 18.1844 6.00004 16.8389 6C15.6038 6 14.9863 6.71943 14.9863 8.15723V10.5352C14.9863 11.2538 14.9952 11.844 15.0137 12.3047C15.0505 12.7652 15.0971 13.1704 15.1523 13.5205C15.2261 13.8523 15.327 14.2125 15.4561 14.5996C15.1059 14.0282 14.6268 13.6225 14.0186 13.3828C13.4103 13.1432 12.6176 13.0234 11.6406 13.0234C10.5531 13.0234 9.57627 13.2353 8.70996 13.6592C7.86212 14.0647 7.198 14.7556 6.71875 15.7324C6.23951 16.7093 6.00003 18.0277 6 19.6865C6 22.175 6.58089 24.0651 7.74219 25.3555C8.92183 26.6455 10.5254 27.291 12.5527 27.291C14.5434 27.291 16.0923 26.6733 17.1982 25.4385C18.3042 24.2034 18.8574 22.341 18.8574 19.8525V8.15723ZM12.3594 19.0576L12.8555 19.9609C12.8558 19.9255 12.8574 19.8893 12.8574 19.8525V18.7676L12.5771 18.6621L12.3594 19.0576ZM12.1514 18.6797L12.3594 19.0576V18.5977L12.1514 18.6797ZM12.3594 18.5977V19.0576L12.5771 18.6621L12.3838 18.5889L12.3594 18.5977ZM11.8789 18.6602L11.4746 18.7998C11.5245 18.8273 11.5736 18.8541 11.623 18.8779C11.7179 18.8098 11.8034 18.7359 11.8789 18.6602ZM11.2627 18.1631C11.1672 18.1954 11.0694 18.234 10.9688 18.2773L11.1094 18.5635C11.2301 18.6539 11.3525 18.7324 11.4746 18.7998L11.6406 18.7422V18.3066L11.2627 18.1631ZM11.6406 18.7422L11.8789 18.6602C11.8871 18.652 11.8964 18.6449 11.9043 18.6367C11.9348 18.6049 11.9605 18.5743 11.9834 18.5469L12.0215 18.4512L11.6406 18.3066V18.7422ZM12.0723 18.5928C12.066 18.6315 12.0586 18.6734 12.0527 18.7188L12.1514 18.6797L12.0986 18.584L12.0723 18.5928ZM12.6816 18.4717L12.6016 18.6172L12.8574 18.709V18.4023L12.6816 18.4717ZM12.0986 18.584L12.1514 18.6797L12.3838 18.5889L12.2422 18.5352L12.0986 18.584ZM12.3594 18.4941V18.5312L12.6016 18.6172L12.7412 18.3623L12.3594 18.4941ZM12.0723 18.5928L12.0986 18.584L12.0791 18.5488C12.0766 18.563 12.0747 18.5777 12.0723 18.5928ZM12.083 18.5273C12.0817 18.5344 12.0804 18.5415 12.0791 18.5488L12.0986 18.584L12.2422 18.5352L12.0938 18.4785C12.0907 18.4937 12.0862 18.5098 12.083 18.5273ZM10.9268 18.2949L11.0244 18.498C11.0526 18.5206 11.081 18.5422 11.1094 18.5635L10.9688 18.2773C10.9549 18.2833 10.9407 18.2887 10.9268 18.2949ZM11.9834 18.5469C12.0052 18.5207 12.0236 18.4967 12.0391 18.4756L12.0264 18.4531L12.0215 18.4512L11.9834 18.5469ZM12.3066 18.5127L12.3594 18.5312V18.4941L12.3066 18.5127ZM12.207 17.9795L12.0596 18.3525L12.1055 18.375C12.1504 18.2834 12.1353 18.2888 12.1025 18.4395L12.3066 18.5127L12.3594 18.4941V17.9727C12.3125 17.9727 12.2617 17.9766 12.207 17.9795ZM10.875 18.3174C10.8622 18.3233 10.8496 18.3299 10.8369 18.3359C10.8761 18.3727 10.9153 18.4111 10.958 18.4473C10.9794 18.4654 11.0028 18.4807 11.0244 18.498L10.9268 18.2949C10.9097 18.3025 10.8922 18.3095 10.875 18.3174ZM12.3594 18.4941L12.7412 18.3623L12.8574 18.1523V18.0146C12.6653 17.9837 12.4966 17.9727 12.3594 17.9727V18.4941ZM12.0391 18.4756C12.0425 18.4709 12.0457 18.4663 12.0488 18.4619L12.0264 18.4531L12.0391 18.4756ZM12.7412 18.3623L12.6816 18.4717L12.8574 18.4023V18.3223L12.7412 18.3623ZM12.0352 18.415L12.0713 18.4287C12.0937 18.3948 12.105 18.3759 12.1055 18.375L12.0596 18.3525L12.0352 18.415ZM11.998 18.4023L12.0352 18.415L12.0596 18.3525L11.9385 18.293L11.998 18.4023ZM11.6406 18.2744L11.998 18.4023L11.9385 18.293L11.6406 18.1465V18.2744ZM12.7412 18.3623L12.8574 18.3223V18.1523L12.7412 18.3623ZM12.207 17.9795C12.0858 17.9859 11.9461 17.9986 11.792 18.0264L11.9385 18.293L12.0596 18.3525L12.207 17.9795ZM11.792 18.0264C11.6395 18.0539 11.4727 18.0933 11.2959 18.1514L11.6406 18.2744V18.1465L11.9385 18.293L11.792 18.0264ZM24.8574 13.5869C24.2266 13.8613 23.6693 14.2349 23.1865 14.71C22.0437 15.816 21.4717 17.6319 21.4717 20.1572C21.4717 22.6639 22.0438 24.4791 23.1865 25.6035C23.3641 25.7782 23.5533 25.9374 23.751 26.085C23.2644 27.2746 22.5887 28.4122 21.668 29.4404C19.1965 32.2002 15.8764 33.291 12.5527 33.291C9.24273 33.291 6.02297 32.2102 3.55078 29.6553L3.31348 29.4033L3.28223 29.3691C0.773206 26.5813 0 23.0209 0 19.6865C2.54972e-05 17.5481 0.293207 15.2074 1.33203 13.0898L1.52148 12.7197C2.49746 10.896 3.98624 9.28208 6.07227 8.27051V8.26953C7.03018 7.80077 8.0201 7.47748 9.02246 7.27734C9.14006 5.90649 9.57865 4.1654 10.8975 2.62988C12.6695 0.56692 15.0382 0 16.8389 0C18.5421 2.17403e-05 20.894 0.474057 22.7334 2.43945C24.5028 4.33007 24.8574 6.60875 24.8574 8.15723V13.5869ZM12 19.7109C12.002 20.5902 12.1173 21.0555 12.1914 21.2646C12.2695 21.2767 12.3869 21.291 12.5527 21.291C12.6161 21.291 12.672 21.2858 12.7207 21.2832C12.7827 21.0253 12.8489 20.6007 12.8555 19.9609L12.3594 19.0576L12 19.7109ZM14.8096 20.5908C14.7612 21.8084 14.5433 22.6587 14.1562 23.1426C13.7323 23.6956 13.1336 23.9727 12.3594 23.9727C11.5852 23.9726 10.9766 23.6956 10.5342 23.1426C10.1105 22.5895 9.89844 21.557 9.89844 20.0459C9.89846 19.0322 9.99049 18.267 10.1748 17.751C10.3775 17.2166 10.6637 16.8483 11.0322 16.6455C11.4009 16.4428 11.8433 16.3408 12.3594 16.3408C12.8755 16.3408 13.3179 16.4427 13.6865 16.6455C14.0552 16.8483 14.3323 17.2165 14.5166 17.751C14.7193 18.267 14.8203 19.0322 14.8203 20.0459L14.8096 20.5908ZM12 19.7109L12.3594 19.0576L12.1514 18.6797L12.0527 18.7188C12.041 18.8094 12.0312 18.9137 12.0225 19.0322C12.0275 19.0336 12.0318 19.036 12.0361 19.0371C12.0764 19.0474 12.0901 19.0487 12.0713 19.0459C12.0616 19.0444 12.0448 19.0435 12.0215 19.041C12.0084 19.222 12 19.4362 12 19.6865V19.7109Z" fill="var(--preview-graphic-fill, #FADE26)"/>
</g></g>
<rect x="61.647" y="43.532" width="27" height="14" fill="var(--preview-graphic-fill, #FADE26)"/>
<g transform="translate(57.62 40.12) scale(1.00009279 1.0000047)"><g id="dot">
<path id="Vector" d="M36.7515 21.2904C35.0372 21.2904 33.7653 20.8849 32.9358 20.0738C32.1247 19.2628 31.7192 18.0185 31.7192 16.3411V10.5899H31.0003C29.7468 10.5899 29.1201 10.0277 29.1201 8.90326C29.1201 7.79726 29.7468 7.24427 31.0003 7.24427H31.7192V4.25807C31.7192 3.64977 31.9035 3.15207 32.2722 2.76497C32.6593 2.37788 33.157 2.18433 33.7653 2.18433C34.3552 2.18433 34.8252 2.36866 35.1755 2.73732C35.5257 3.08756 35.7008 3.57604 35.7008 4.20277V5.55762C35.7008 6.23965 35.5902 6.80187 35.369 7.24427H37.9957C39.2492 7.24427 39.8759 7.79726 39.8759 8.90326C39.8759 10.0277 39.2492 10.5899 37.9957 10.5899H35.7008V16.424C35.7008 16.977 35.7653 17.3734 35.8944 17.613C36.0234 17.8342 36.2354 17.9448 36.5303 17.9448C36.9174 17.9448 37.2031 17.9171 37.3875 17.8618C37.5902 17.7881 37.8391 17.7512 38.134 17.7512C38.6317 17.7512 39.028 17.8434 39.3229 18.0277C39.6179 18.1936 39.7653 18.5439 39.7653 19.0784C39.7653 19.8342 39.5257 20.3964 39.0464 20.7651C38.5672 21.1153 37.8022 21.2904 36.7515 21.2904Z" fill="var(--preview-graphic-text, #3F3833)"/>
<path id="Vector_2" d="M21.8593 21.2905C19.8869 21.2905 18.3293 20.7283 17.1865 19.6038C16.0436 18.4794 15.4722 16.6637 15.4722 14.1568C15.4722 11.6314 16.0436 9.81574 17.1865 8.70975C18.3293 7.58532 19.8869 7.0231 21.8593 7.0231C23.8317 7.0231 25.3893 7.58532 26.5321 8.70975C27.675 9.81574 28.2464 11.6314 28.2464 14.1568C28.2464 16.6637 27.675 18.4794 26.5321 19.6038C25.3893 20.7283 23.8317 21.2905 21.8593 21.2905ZM21.8593 17.9725C22.3754 17.9725 22.8086 17.8711 23.1588 17.6683C23.5091 17.4471 23.7764 17.06 23.9607 16.507C24.1635 15.954 24.2648 15.1706 24.2648 14.1568C24.2648 13.143 24.1635 12.3595 23.9607 11.8065C23.7764 11.2535 23.5091 10.8757 23.1588 10.6729C22.8086 10.4517 22.3754 10.3411 21.8593 10.3411C21.3616 10.3411 20.9284 10.4517 20.5598 10.6729C20.2095 10.8757 19.933 11.2535 19.7303 11.8065C19.5459 12.3595 19.4538 13.143 19.4538 14.1568C19.4538 15.1706 19.5459 15.954 19.7303 16.507C19.933 17.06 20.2095 17.4471 20.5598 17.6683C20.9284 17.8711 21.3616 17.9725 21.8593 17.9725Z" fill="var(--preview-graphic-text, #3F3833)"/>
<path id="Vector_3" d="M6.55304 21.2905C4.52537 21.2905 2.92168 20.6453 1.74195 19.355C0.580649 18.0646 0 16.1752 0 13.6867C0 12.0277 0.239633 10.7097 0.718898 9.73278C1.19816 8.75581 1.86176 8.06456 2.70969 7.65903C3.57606 7.23507 4.55302 7.02308 5.64059 7.02308C6.61755 7.02308 7.41018 7.1429 8.01848 7.38253C8.62678 7.62217 9.10605 8.0277 9.45628 8.59913C9.32725 8.21203 9.22586 7.85258 9.15213 7.52078C9.09683 7.17055 9.05075 6.76502 9.01388 6.30419C8.99545 5.84335 8.98623 5.25349 8.98623 4.53459V2.1567C8.98623 0.718899 9.60375 0 10.8388 0C12.1844 0 12.8572 0.718899 12.8572 2.1567V13.8526C12.8572 16.3411 12.3042 18.2029 11.1982 19.4379C10.0922 20.6729 8.54383 21.2905 6.55304 21.2905ZM6.35949 17.9725C7.13368 17.9725 7.73277 17.696 8.15673 17.143C8.59913 16.59 8.82033 15.5577 8.82033 14.0462C8.82033 13.0323 8.71895 12.2674 8.51618 11.7512C8.33185 11.2167 8.05535 10.848 7.68668 10.6452C7.31802 10.4425 6.87562 10.3411 6.35949 10.3411C5.84335 10.3411 5.40095 10.4425 5.03229 10.6452C4.66362 10.848 4.37791 11.2167 4.17514 11.7512C3.99081 12.2674 3.89864 13.0323 3.89864 14.0462C3.89864 15.5577 4.11062 16.59 4.53459 17.143C4.97699 17.696 5.58529 17.9725 6.35949 17.9725Z" fill="var(--preview-graphic-text, #3F3833)"/>
</g></g>
<g transform="translate(51.62 34.12) scale(1.0000694 0.999997)"><g id="dot (Stroke)">
<path id="Stroke" d="M45.7656 25.0781C45.7655 24.5441 45.6178 24.1943 45.3232 24.0283C45.0283 23.844 44.6315 23.751 44.1338 23.751C43.839 23.751 43.5904 23.7886 43.3877 23.8623L43.2305 23.8984C43.0542 23.9296 42.8207 23.9453 42.5303 23.9453L42.4238 23.9395C42.1839 23.9153 42.0075 23.8068 41.8945 23.6133C41.7655 23.3736 41.7012 22.9768 41.7012 22.4238V16.5898H43.9961L44.2236 16.583C45.3252 16.5171 45.876 15.9574 45.876 14.9033C45.876 13.7975 45.2493 13.2442 43.9961 13.2441H41.3691C41.5903 12.8018 41.7012 12.2395 41.7012 11.5576V10.2031C41.7012 9.57646 41.5259 9.08753 41.1758 8.7373C40.8256 8.36871 40.3553 8.18464 39.7656 8.18457C39.1575 8.18457 38.6595 8.37778 38.2725 8.76465C37.9039 9.15167 37.7188 9.64968 37.7188 10.2578V13.2441H37C35.7468 13.2442 35.1201 13.7974 35.1201 14.9033C35.1201 16.0277 35.7467 16.5898 37 16.5898H37.7188V22.3408C37.7188 24.0182 38.1245 25.2632 38.9355 26.0742C39.729 26.85 40.9274 27.2534 42.5303 27.2871L42.752 27.291C43.6711 27.291 44.3717 27.1568 44.8535 26.8887L45.0469 26.7656C45.4663 26.443 45.7015 25.9716 45.7539 25.3525L45.7656 25.0781ZM45.1992 29.5801C45.2759 29.5569 45.3555 29.5308 45.4375 29.501L45.1992 29.5801ZM29.3369 16.7998C29.6004 17.0177 29.8095 17.3523 29.9609 17.8066C30.0754 18.1188 30.1552 18.5048 30.2051 18.9639C29.7765 18.2485 29.5018 17.5096 29.3369 16.7998ZM51.7656 25.0781C51.7656 27.1826 51.0251 29.7356 48.7051 31.5205L48.5869 31.6094C46.5514 33.0969 44.2093 33.291 42.752 33.291C40.2911 33.291 37.321 32.7356 34.9668 30.5781L34.7412 30.3643L34.6934 30.3164C33.3755 28.9986 32.6035 27.4613 32.1777 25.9199C32.2993 25.8194 32.4188 25.7151 32.5322 25.6035C33.6748 24.4791 34.246 22.6638 34.2461 20.1572C34.2461 17.632 33.675 15.816 32.5322 14.71C31.6855 13.8768 30.6107 13.3526 29.3086 13.1367C29.5982 11.802 30.2673 10.3539 31.6201 9.16016C31.6832 9.10451 31.7487 9.05256 31.8125 9C32.0374 7.46961 32.6897 5.92688 33.9277 4.62695L34.0293 4.52246C35.6716 2.88014 37.7598 2.18457 39.7656 2.18457C41.6715 2.18464 43.7654 2.82467 45.416 4.49609L45.418 4.49512C45.4326 4.5098 45.4464 4.5253 45.4609 4.54004C45.4821 4.56177 45.5044 4.58242 45.5254 4.60449L45.5225 4.60645C46.5033 5.62608 47.0825 6.77885 47.3936 7.91016C48.0612 8.19614 48.7378 8.59704 49.376 9.16016C51.3637 10.9142 51.876 13.2171 51.876 14.9033C51.876 16.4097 51.4712 18.4332 49.9375 20.1133C51.5313 21.8469 51.7656 24.0148 51.7656 25.0781Z" fill="var(--preview-graphic-fill, #FADE26)"/>
<path id="Stroke_2" d="M34.2461 20.1572C34.2461 17.632 33.675 15.816 32.5322 14.71C31.3894 13.5856 29.8317 13.0235 27.8594 13.0234C25.887 13.0234 24.3294 13.5855 23.1865 14.71C22.0437 15.816 21.4717 17.6319 21.4717 20.1572L21.4785 20.6191C21.5455 22.8881 22.1152 24.5494 23.1865 25.6035C24.3294 26.7279 25.887 27.291 27.8594 27.291C29.8317 27.291 31.3894 26.7279 32.5322 25.6035C33.6034 24.5494 34.1723 22.888 34.2393 20.6191L34.2461 20.1572ZM28.2461 20.1572C28.2461 19.9262 28.2375 19.7247 28.2256 19.5508L27.9209 19.0254C27.901 19.0251 27.8805 19.0234 27.8594 19.0234V21.291C27.862 21.291 27.8646 21.29 27.8672 21.29L28.2334 20.623C28.2406 20.4836 28.2461 20.3287 28.2461 20.1572ZM27.5225 21.0781C27.5315 21.1516 27.5437 21.2173 27.5537 21.2764C27.5841 21.279 27.6169 21.2813 27.6523 21.2832L27.5225 21.0781ZM28.0654 21.2832C28.1009 21.2813 28.1337 21.279 28.1641 21.2764C28.1741 21.2173 28.1862 21.1516 28.1953 21.0781L28.0654 21.2832ZM27.5195 19.2686C27.4937 19.4954 27.4717 19.7884 27.4717 20.1572L27.4766 20.4482C27.4804 20.5754 27.4882 20.6914 27.4961 20.7969L27.7803 21.2881C27.8056 21.2886 27.832 21.291 27.8594 21.291V19.0234C27.7896 19.0234 27.7266 19.0265 27.6699 19.0293L27.5195 19.2686ZM28.2256 19.5508C28.2227 19.5091 28.2172 19.4692 28.2139 19.4307L27.9717 19.0264C27.9552 19.0259 27.9383 19.0256 27.9209 19.0254L28.2256 19.5508ZM28.2139 19.4307C28.2004 19.2746 28.1838 19.144 28.166 19.0361C28.11 19.0312 28.0454 19.0284 27.9717 19.0264L28.2139 19.4307ZM27.6699 19.0293C27.6269 19.0314 27.5876 19.033 27.5518 19.0361C27.5405 19.1043 27.5295 19.1815 27.5195 19.2686L27.6699 19.0293ZM30.2598 20.5264C30.2376 21.3628 30.1383 22.023 29.9609 22.5068C29.7767 23.0596 29.5092 23.4467 29.1592 23.668C28.809 23.8707 28.3754 23.9726 27.8594 23.9727C27.3617 23.9727 26.9282 23.8707 26.5596 23.668C26.2095 23.4467 25.9332 23.0597 25.7305 22.5068C25.5692 22.023 25.4782 21.3629 25.458 20.5264L25.4541 20.1572C25.4541 19.1434 25.5461 18.3596 25.7305 17.8066C25.9332 17.2537 26.2094 16.8756 26.5596 16.6729C26.9282 16.4517 27.3617 16.3408 27.8594 16.3408C28.3754 16.3408 28.809 16.4517 29.1592 16.6729C29.5093 16.8757 29.7767 17.2538 29.9609 17.8066C30.1637 18.3596 30.2646 19.1435 30.2646 20.1572L30.2598 20.5264ZM37.7188 22.3408C37.7188 24.0182 38.1245 25.2632 38.9355 26.0742C39.0044 26.1416 39.0774 26.2049 39.1523 26.2666C38.6142 27.5638 37.8392 28.7996 36.7402 29.8809C34.2283 32.3522 31.0222 33.291 27.8594 33.291C24.7954 33.291 21.6906 32.4102 19.2158 30.1084L18.9785 29.8809C17.8303 28.7511 17.0333 27.4537 16.4932 26.0928C16.7447 25.8978 16.9809 25.6812 17.1982 25.4385C18.3042 24.2034 18.8574 22.341 18.8574 19.8525V10.5547C18.9075 10.5042 18.9574 10.4532 19.0088 10.4033C21.5162 7.95406 24.7092 7.02344 27.8594 7.02344C31.0222 7.02347 34.2283 7.96124 36.7402 10.4326L36.7393 10.4336C37.0993 10.7853 37.4251 11.1533 37.7188 11.5352V13.2441H37C35.7468 13.2442 35.1201 13.7974 35.1201 14.9033C35.1201 16.0277 35.7467 16.5898 37 16.5898H37.7188V22.3408Z" fill="var(--preview-graphic-fill, #FADE26)"/>
<path id="Stroke_3" d="M18.8574 8.15723C18.8574 6.71947 18.1844 6.00004 16.8389 6C15.6038 6 14.9863 6.71943 14.9863 8.15723V10.5352C14.9863 11.2538 14.9952 11.844 15.0137 12.3047C15.0505 12.7652 15.0971 13.1704 15.1523 13.5205C15.2261 13.8523 15.327 14.2125 15.4561 14.5996C15.1059 14.0282 14.6268 13.6225 14.0186 13.3828C13.4103 13.1432 12.6176 13.0234 11.6406 13.0234C10.5531 13.0234 9.57627 13.2353 8.70996 13.6592C7.86212 14.0647 7.198 14.7556 6.71875 15.7324C6.23951 16.7093 6.00003 18.0277 6 19.6865C6 22.175 6.58089 24.0651 7.74219 25.3555C8.92183 26.6455 10.5254 27.291 12.5527 27.291C14.5434 27.291 16.0923 26.6733 17.1982 25.4385C18.3042 24.2034 18.8574 22.341 18.8574 19.8525V8.15723ZM12.3594 19.0576L12.8555 19.9609C12.8558 19.9255 12.8574 19.8893 12.8574 19.8525V18.7676L12.5771 18.6621L12.3594 19.0576ZM12.1514 18.6797L12.3594 19.0576V18.5977L12.1514 18.6797ZM12.3594 18.5977V19.0576L12.5771 18.6621L12.3838 18.5889L12.3594 18.5977ZM11.8789 18.6602L11.4746 18.7998C11.5245 18.8273 11.5736 18.8541 11.623 18.8779C11.7179 18.8098 11.8034 18.7359 11.8789 18.6602ZM11.2627 18.1631C11.1672 18.1954 11.0694 18.234 10.9688 18.2773L11.1094 18.5635C11.2301 18.6539 11.3525 18.7324 11.4746 18.7998L11.6406 18.7422V18.3066L11.2627 18.1631ZM11.6406 18.7422L11.8789 18.6602C11.8871 18.652 11.8964 18.6449 11.9043 18.6367C11.9348 18.6049 11.9605 18.5743 11.9834 18.5469L12.0215 18.4512L11.6406 18.3066V18.7422ZM12.0723 18.5928C12.066 18.6315 12.0586 18.6734 12.0527 18.7188L12.1514 18.6797L12.0986 18.584L12.0723 18.5928ZM12.6816 18.4717L12.6016 18.6172L12.8574 18.709V18.4023L12.6816 18.4717ZM12.0986 18.584L12.1514 18.6797L12.3838 18.5889L12.2422 18.5352L12.0986 18.584ZM12.3594 18.4941V18.5312L12.6016 18.6172L12.7412 18.3623L12.3594 18.4941ZM12.0723 18.5928L12.0986 18.584L12.0791 18.5488C12.0766 18.563 12.0747 18.5777 12.0723 18.5928ZM12.083 18.5273C12.0817 18.5344 12.0804 18.5415 12.0791 18.5488L12.0986 18.584L12.2422 18.5352L12.0938 18.4785C12.0907 18.4937 12.0862 18.5098 12.083 18.5273ZM10.9268 18.2949L11.0244 18.498C11.0526 18.5206 11.081 18.5422 11.1094 18.5635L10.9688 18.2773C10.9549 18.2833 10.9407 18.2887 10.9268 18.2949ZM11.9834 18.5469C12.0052 18.5207 12.0236 18.4967 12.0391 18.4756L12.0264 18.4531L12.0215 18.4512L11.9834 18.5469ZM12.3066 18.5127L12.3594 18.5312V18.4941L12.3066 18.5127ZM12.207 17.9795L12.0596 18.3525L12.1055 18.375C12.1504 18.2834 12.1353 18.2888 12.1025 18.4395L12.3066 18.5127L12.3594 18.4941V17.9727C12.3125 17.9727 12.2617 17.9766 12.207 17.9795ZM10.875 18.3174C10.8622 18.3233 10.8496 18.3299 10.8369 18.3359C10.8761 18.3727 10.9153 18.4111 10.958 18.4473C10.9794 18.4654 11.0028 18.4807 11.0244 18.498L10.9268 18.2949C10.9097 18.3025 10.8922 18.3095 10.875 18.3174ZM12.3594 18.4941L12.7412 18.3623L12.8574 18.1523V18.0146C12.6653 17.9837 12.4966 17.9727 12.3594 17.9727V18.4941ZM12.0391 18.4756C12.0425 18.4709 12.0457 18.4663 12.0488 18.4619L12.0264 18.4531L12.0391 18.4756ZM12.7412 18.3623L12.6816 18.4717L12.8574 18.4023V18.3223L12.7412 18.3623ZM12.0352 18.415L12.0713 18.4287C12.0937 18.3948 12.105 18.3759 12.1055 18.375L12.0596 18.3525L12.0352 18.415ZM11.998 18.4023L12.0352 18.415L12.0596 18.3525L11.9385 18.293L11.998 18.4023ZM11.6406 18.2744L11.998 18.4023L11.9385 18.293L11.6406 18.1465V18.2744ZM12.7412 18.3623L12.8574 18.3223V18.1523L12.7412 18.3623ZM12.207 17.9795C12.0858 17.9859 11.9461 17.9986 11.792 18.0264L11.9385 18.293L12.0596 18.3525L12.207 17.9795ZM11.792 18.0264C11.6395 18.0539 11.4727 18.0933 11.2959 18.1514L11.6406 18.2744V18.1465L11.9385 18.293L11.792 18.0264ZM24.8574 13.5869C24.2266 13.8613 23.6693 14.2349 23.1865 14.71C22.0437 15.816 21.4717 17.6319 21.4717 20.1572C21.4717 22.6639 22.0438 24.4791 23.1865 25.6035C23.3641 25.7782 23.5533 25.9374 23.751 26.085C23.2644 27.2746 22.5887 28.4122 21.668 29.4404C19.1965 32.2002 15.8764 33.291 12.5527 33.291C9.24273 33.291 6.02297 32.2102 3.55078 29.6553L3.31348 29.4033L3.28223 29.3691C0.773206 26.5813 0 23.0209 0 19.6865C2.54972e-05 17.5481 0.293207 15.2074 1.33203 13.0898L1.52148 12.7197C2.49746 10.896 3.98624 9.28208 6.07227 8.27051V8.26953C7.03018 7.80077 8.0201 7.47748 9.02246 7.27734C9.14006 5.90649 9.57865 4.1654 10.8975 2.62988C12.6695 0.56692 15.0382 0 16.8389 0C18.5421 2.17403e-05 20.894 0.474057 22.7334 2.43945C24.5028 4.33007 24.8574 6.60875 24.8574 8.15723V13.5869ZM12 19.7109C12.002 20.5902 12.1173 21.0555 12.1914 21.2646C12.2695 21.2767 12.3869 21.291 12.5527 21.291C12.6161 21.291 12.672 21.2858 12.7207 21.2832C12.7827 21.0253 12.8489 20.6007 12.8555 19.9609L12.3594 19.0576L12 19.7109ZM14.8096 20.5908C14.7612 21.8084 14.5433 22.6587 14.1562 23.1426C13.7323 23.6956 13.1336 23.9727 12.3594 23.9727C11.5852 23.9726 10.9766 23.6956 10.5342 23.1426C10.1105 22.5895 9.89844 21.557 9.89844 20.0459C9.89846 19.0322 9.99049 18.267 10.1748 17.751C10.3775 17.2166 10.6637 16.8483 11.0322 16.6455C11.4009 16.4428 11.8433 16.3408 12.3594 16.3408C12.8755 16.3408 13.3179 16.4427 13.6865 16.6455C14.0552 16.8483 14.3323 17.2165 14.5166 17.751C14.7193 18.267 14.8203 19.0322 14.8203 20.0459L14.8096 20.5908ZM12 19.7109L12.3594 19.0576L12.1514 18.6797L12.0527 18.7188C12.041 18.8094 12.0312 18.9137 12.0225 19.0322C12.0275 19.0336 12.0318 19.036 12.0361 19.0371C12.0764 19.0474 12.0901 19.0487 12.0713 19.0459C12.0616 19.0444 12.0448 19.0435 12.0215 19.041C12.0084 19.222 12 19.4362 12 19.6865V19.7109Z" fill="var(--preview-graphic-fill, #FADE26)"/>
</g></g>
<rect x="12.0322" y="46.6909" width="27" height="14" fill="var(--preview-graphic-fill, #FADE26)"/>
<g transform="translate(8 43.29) scale(1.00009279 1.0000047)"><g id="dot">
<path id="Vector" d="M36.7515 21.2904C35.0372 21.2904 33.7653 20.8849 32.9358 20.0738C32.1247 19.2628 31.7192 18.0185 31.7192 16.3411V10.5899H31.0003C29.7468 10.5899 29.1201 10.0277 29.1201 8.90326C29.1201 7.79726 29.7468 7.24427 31.0003 7.24427H31.7192V4.25807C31.7192 3.64977 31.9035 3.15207 32.2722 2.76497C32.6593 2.37788 33.157 2.18433 33.7653 2.18433C34.3552 2.18433 34.8252 2.36866 35.1755 2.73732C35.5257 3.08756 35.7008 3.57604 35.7008 4.20277V5.55762C35.7008 6.23965 35.5902 6.80187 35.369 7.24427H37.9957C39.2492 7.24427 39.8759 7.79726 39.8759 8.90326C39.8759 10.0277 39.2492 10.5899 37.9957 10.5899H35.7008V16.424C35.7008 16.977 35.7653 17.3734 35.8944 17.613C36.0234 17.8342 36.2354 17.9448 36.5303 17.9448C36.9174 17.9448 37.2031 17.9171 37.3875 17.8618C37.5902 17.7881 37.8391 17.7512 38.134 17.7512C38.6317 17.7512 39.028 17.8434 39.3229 18.0277C39.6179 18.1936 39.7653 18.5439 39.7653 19.0784C39.7653 19.8342 39.5257 20.3964 39.0464 20.7651C38.5672 21.1153 37.8022 21.2904 36.7515 21.2904Z" fill="var(--preview-graphic-text, #3F3833)"/>
<path id="Vector_2" d="M21.8593 21.2905C19.8869 21.2905 18.3293 20.7283 17.1865 19.6038C16.0436 18.4794 15.4722 16.6637 15.4722 14.1568C15.4722 11.6314 16.0436 9.81574 17.1865 8.70975C18.3293 7.58532 19.8869 7.0231 21.8593 7.0231C23.8317 7.0231 25.3893 7.58532 26.5321 8.70975C27.675 9.81574 28.2464 11.6314 28.2464 14.1568C28.2464 16.6637 27.675 18.4794 26.5321 19.6038C25.3893 20.7283 23.8317 21.2905 21.8593 21.2905ZM21.8593 17.9725C22.3754 17.9725 22.8086 17.8711 23.1588 17.6683C23.5091 17.4471 23.7764 17.06 23.9607 16.507C24.1635 15.954 24.2648 15.1706 24.2648 14.1568C24.2648 13.143 24.1635 12.3595 23.9607 11.8065C23.7764 11.2535 23.5091 10.8757 23.1588 10.6729C22.8086 10.4517 22.3754 10.3411 21.8593 10.3411C21.3616 10.3411 20.9284 10.4517 20.5598 10.6729C20.2095 10.8757 19.933 11.2535 19.7303 11.8065C19.5459 12.3595 19.4538 13.143 19.4538 14.1568C19.4538 15.1706 19.5459 15.954 19.7303 16.507C19.933 17.06 20.2095 17.4471 20.5598 17.6683C20.9284 17.8711 21.3616 17.9725 21.8593 17.9725Z" fill="var(--preview-graphic-text, #3F3833)"/>
<path id="Vector_3" d="M6.55304 21.2905C4.52537 21.2905 2.92168 20.6453 1.74195 19.355C0.580649 18.0646 0 16.1752 0 13.6867C0 12.0277 0.239633 10.7097 0.718898 9.73278C1.19816 8.75581 1.86176 8.06456 2.70969 7.65903C3.57606 7.23507 4.55302 7.02308 5.64059 7.02308C6.61755 7.02308 7.41018 7.1429 8.01848 7.38253C8.62678 7.62217 9.10605 8.0277 9.45628 8.59913C9.32725 8.21203 9.22586 7.85258 9.15213 7.52078C9.09683 7.17055 9.05075 6.76502 9.01388 6.30419C8.99545 5.84335 8.98623 5.25349 8.98623 4.53459V2.1567C8.98623 0.718899 9.60375 0 10.8388 0C12.1844 0 12.8572 0.718899 12.8572 2.1567V13.8526C12.8572 16.3411 12.3042 18.2029 11.1982 19.4379C10.0922 20.6729 8.54383 21.2905 6.55304 21.2905ZM6.35949 17.9725C7.13368 17.9725 7.73277 17.696 8.15673 17.143C8.59913 16.59 8.82033 15.5577 8.82033 14.0462C8.82033 13.0323 8.71895 12.2674 8.51618 11.7512C8.33185 11.2167 8.05535 10.848 7.68668 10.6452C7.31802 10.4425 6.87562 10.3411 6.35949 10.3411C5.84335 10.3411 5.40095 10.4425 5.03229 10.6452C4.66362 10.848 4.37791 11.2167 4.17514 11.7512C3.99081 12.2674 3.89864 13.0323 3.89864 14.0462C3.89864 15.5577 4.11062 16.59 4.53459 17.143C4.97699 17.696 5.58529 17.9725 6.35949 17.9725Z" fill="var(--preview-graphic-text, #3F3833)"/>
</g></g>
<g transform="translate(2 37.29) scale(1.0000694 0.999997)"><g id="dot (Stroke)">
<path id="Stroke" d="M45.7656 25.0781C45.7655 24.5441 45.6178 24.1943 45.3232 24.0283C45.0283 23.844 44.6315 23.751 44.1338 23.751C43.839 23.751 43.5904 23.7886 43.3877 23.8623L43.2305 23.8984C43.0542 23.9296 42.8207 23.9453 42.5303 23.9453L42.4238 23.9395C42.1839 23.9153 42.0075 23.8068 41.8945 23.6133C41.7655 23.3736 41.7012 22.9768 41.7012 22.4238V16.5898H43.9961L44.2236 16.583C45.3252 16.5171 45.876 15.9574 45.876 14.9033C45.876 13.7975 45.2493 13.2442 43.9961 13.2441H41.3691C41.5903 12.8018 41.7012 12.2395 41.7012 11.5576V10.2031C41.7012 9.57646 41.5259 9.08753 41.1758 8.7373C40.8256 8.36871 40.3553 8.18464 39.7656 8.18457C39.1575 8.18457 38.6595 8.37778 38.2725 8.76465C37.9039 9.15167 37.7188 9.64968 37.7188 10.2578V13.2441H37C35.7468 13.2442 35.1201 13.7974 35.1201 14.9033C35.1201 16.0277 35.7467 16.5898 37 16.5898H37.7188V22.3408C37.7188 24.0182 38.1245 25.2632 38.9355 26.0742C39.729 26.85 40.9274 27.2534 42.5303 27.2871L42.752 27.291C43.6711 27.291 44.3717 27.1568 44.8535 26.8887L45.0469 26.7656C45.4663 26.443 45.7015 25.9716 45.7539 25.3525L45.7656 25.0781ZM45.1992 29.5801C45.2759 29.5569 45.3555 29.5308 45.4375 29.501L45.1992 29.5801ZM29.3369 16.7998C29.6004 17.0177 29.8095 17.3523 29.9609 17.8066C30.0754 18.1188 30.1552 18.5048 30.2051 18.9639C29.7765 18.2485 29.5018 17.5096 29.3369 16.7998ZM51.7656 25.0781C51.7656 27.1826 51.0251 29.7356 48.7051 31.5205L48.5869 31.6094C46.5514 33.0969 44.2093 33.291 42.752 33.291C40.2911 33.291 37.321 32.7356 34.9668 30.5781L34.7412 30.3643L34.6934 30.3164C33.3755 28.9986 32.6035 27.4613 32.1777 25.9199C32.2993 25.8194 32.4188 25.7151 32.5322 25.6035C33.6748 24.4791 34.246 22.6638 34.2461 20.1572C34.2461 17.632 33.675 15.816 32.5322 14.71C31.6855 13.8768 30.6107 13.3526 29.3086 13.1367C29.5982 11.802 30.2673 10.3539 31.6201 9.16016C31.6832 9.10451 31.7487 9.05256 31.8125 9C32.0374 7.46961 32.6897 5.92688 33.9277 4.62695L34.0293 4.52246C35.6716 2.88014 37.7598 2.18457 39.7656 2.18457C41.6715 2.18464 43.7654 2.82467 45.416 4.49609L45.418 4.49512C45.4326 4.5098 45.4464 4.5253 45.4609 4.54004C45.4821 4.56177 45.5044 4.58242 45.5254 4.60449L45.5225 4.60645C46.5033 5.62608 47.0825 6.77885 47.3936 7.91016C48.0612 8.19614 48.7378 8.59704 49.376 9.16016C51.3637 10.9142 51.876 13.2171 51.876 14.9033C51.876 16.4097 51.4712 18.4332 49.9375 20.1133C51.5313 21.8469 51.7656 24.0148 51.7656 25.0781Z" fill="var(--preview-graphic-fill, #FADE26)"/>
<path id="Stroke_2" d="M34.2461 20.1572C34.2461 17.632 33.675 15.816 32.5322 14.71C31.3894 13.5856 29.8317 13.0235 27.8594 13.0234C25.887 13.0234 24.3294 13.5855 23.1865 14.71C22.0437 15.816 21.4717 17.6319 21.4717 20.1572L21.4785 20.6191C21.5455 22.8881 22.1152 24.5494 23.1865 25.6035C24.3294 26.7279 25.887 27.291 27.8594 27.291C29.8317 27.291 31.3894 26.7279 32.5322 25.6035C33.6034 24.5494 34.1723 22.888 34.2393 20.6191L34.2461 20.1572ZM28.2461 20.1572C28.2461 19.9262 28.2375 19.7247 28.2256 19.5508L27.9209 19.0254C27.901 19.0251 27.8805 19.0234 27.8594 19.0234V21.291C27.862 21.291 27.8646 21.29 27.8672 21.29L28.2334 20.623C28.2406 20.4836 28.2461 20.3287 28.2461 20.1572ZM27.5225 21.0781C27.5315 21.1516 27.5437 21.2173 27.5537 21.2764C27.5841 21.279 27.6169 21.2813 27.6523 21.2832L27.5225 21.0781ZM28.0654 21.2832C28.1009 21.2813 28.1337 21.279 28.1641 21.2764C28.1741 21.2173 28.1862 21.1516 28.1953 21.0781L28.0654 21.2832ZM27.5195 19.2686C27.4937 19.4954 27.4717 19.7884 27.4717 20.1572L27.4766 20.4482C27.4804 20.5754 27.4882 20.6914 27.4961 20.7969L27.7803 21.2881C27.8056 21.2886 27.832 21.291 27.8594 21.291V19.0234C27.7896 19.0234 27.7266 19.0265 27.6699 19.0293L27.5195 19.2686ZM28.2256 19.5508C28.2227 19.5091 28.2172 19.4692 28.2139 19.4307L27.9717 19.0264C27.9552 19.0259 27.9383 19.0256 27.9209 19.0254L28.2256 19.5508ZM28.2139 19.4307C28.2004 19.2746 28.1838 19.144 28.166 19.0361C28.11 19.0312 28.0454 19.0284 27.9717 19.0264L28.2139 19.4307ZM27.6699 19.0293C27.6269 19.0314 27.5876 19.033 27.5518 19.0361C27.5405 19.1043 27.5295 19.1815 27.5195 19.2686L27.6699 19.0293ZM30.2598 20.5264C30.2376 21.3628 30.1383 22.023 29.9609 22.5068C29.7767 23.0596 29.5092 23.4467 29.1592 23.668C28.809 23.8707 28.3754 23.9726 27.8594 23.9727C27.3617 23.9727 26.9282 23.8707 26.5596 23.668C26.2095 23.4467 25.9332 23.0597 25.7305 22.5068C25.5692 22.023 25.4782 21.3629 25.458 20.5264L25.4541 20.1572C25.4541 19.1434 25.5461 18.3596 25.7305 17.8066C25.9332 17.2537 26.2094 16.8756 26.5596 16.6729C26.9282 16.4517 27.3617 16.3408 27.8594 16.3408C28.3754 16.3408 28.809 16.4517 29.1592 16.6729C29.5093 16.8757 29.7767 17.2538 29.9609 17.8066C30.1637 18.3596 30.2646 19.1435 30.2646 20.1572L30.2598 20.5264ZM37.7188 22.3408C37.7188 24.0182 38.1245 25.2632 38.9355 26.0742C39.0044 26.1416 39.0774 26.2049 39.1523 26.2666C38.6142 27.5638 37.8392 28.7996 36.7402 29.8809C34.2283 32.3522 31.0222 33.291 27.8594 33.291C24.7954 33.291 21.6906 32.4102 19.2158 30.1084L18.9785 29.8809C17.8303 28.7511 17.0333 27.4537 16.4932 26.0928C16.7447 25.8978 16.9809 25.6812 17.1982 25.4385C18.3042 24.2034 18.8574 22.341 18.8574 19.8525V10.5547C18.9075 10.5042 18.9574 10.4532 19.0088 10.4033C21.5162 7.95406 24.7092 7.02344 27.8594 7.02344C31.0222 7.02347 34.2283 7.96124 36.7402 10.4326L36.7393 10.4336C37.0993 10.7853 37.4251 11.1533 37.7188 11.5352V13.2441H37C35.7468 13.2442 35.1201 13.7974 35.1201 14.9033C35.1201 16.0277 35.7467 16.5898 37 16.5898H37.7188V22.3408Z" fill="var(--preview-graphic-fill, #FADE26)"/>
<path id="Stroke_3" d="M18.8574 8.15723C18.8574 6.71947 18.1844 6.00004 16.8389 6C15.6038 6 14.9863 6.71943 14.9863 8.15723V10.5352C14.9863 11.2538 14.9952 11.844 15.0137 12.3047C15.0505 12.7652 15.0971 13.1704 15.1523 13.5205C15.2261 13.8523 15.327 14.2125 15.4561 14.5996C15.1059 14.0282 14.6268 13.6225 14.0186 13.3828C13.4103 13.1432 12.6176 13.0234 11.6406 13.0234C10.5531 13.0234 9.57627 13.2353 8.70996 13.6592C7.86212 14.0647 7.198 14.7556 6.71875 15.7324C6.23951 16.7093 6.00003 18.0277 6 19.6865C6 22.175 6.58089 24.0651 7.74219 25.3555C8.92183 26.6455 10.5254 27.291 12.5527 27.291C14.5434 27.291 16.0923 26.6733 17.1982 25.4385C18.3042 24.2034 18.8574 22.341 18.8574 19.8525V8.15723ZM12.3594 19.0576L12.8555 19.9609C12.8558 19.9255 12.8574 19.8893 12.8574 19.8525V18.7676L12.5771 18.6621L12.3594 19.0576ZM12.1514 18.6797L12.3594 19.0576V18.5977L12.1514 18.6797ZM12.3594 18.5977V19.0576L12.5771 18.6621L12.3838 18.5889L12.3594 18.5977ZM11.8789 18.6602L11.4746 18.7998C11.5245 18.8273 11.5736 18.8541 11.623 18.8779C11.7179 18.8098 11.8034 18.7359 11.8789 18.6602ZM11.2627 18.1631C11.1672 18.1954 11.0694 18.234 10.9688 18.2773L11.1094 18.5635C11.2301 18.6539 11.3525 18.7324 11.4746 18.7998L11.6406 18.7422V18.3066L11.2627 18.1631ZM11.6406 18.7422L11.8789 18.6602C11.8871 18.652 11.8964 18.6449 11.9043 18.6367C11.9348 18.6049 11.9605 18.5743 11.9834 18.5469L12.0215 18.4512L11.6406 18.3066V18.7422ZM12.0723 18.5928C12.066 18.6315 12.0586 18.6734 12.0527 18.7188L12.1514 18.6797L12.0986 18.584L12.0723 18.5928ZM12.6816 18.4717L12.6016 18.6172L12.8574 18.709V18.4023L12.6816 18.4717ZM12.0986 18.584L12.1514 18.6797L12.3838 18.5889L12.2422 18.5352L12.0986 18.584ZM12.3594 18.4941V18.5312L12.6016 18.6172L12.7412 18.3623L12.3594 18.4941ZM12.0723 18.5928L12.0986 18.584L12.0791 18.5488C12.0766 18.563 12.0747 18.5777 12.0723 18.5928ZM12.083 18.5273C12.0817 18.5344 12.0804 18.5415 12.0791 18.5488L12.0986 18.584L12.2422 18.5352L12.0938 18.4785C12.0907 18.4937 12.0862 18.5098 12.083 18.5273ZM10.9268 18.2949L11.0244 18.498C11.0526 18.5206 11.081 18.5422 11.1094 18.5635L10.9688 18.2773C10.9549 18.2833 10.9407 18.2887 10.9268 18.2949ZM11.9834 18.5469C12.0052 18.5207 12.0236 18.4967 12.0391 18.4756L12.0264 18.4531L12.0215 18.4512L11.9834 18.5469ZM12.3066 18.5127L12.3594 18.5312V18.4941L12.3066 18.5127ZM12.207 17.9795L12.0596 18.3525L12.1055 18.375C12.1504 18.2834 12.1353 18.2888 12.1025 18.4395L12.3066 18.5127L12.3594 18.4941V17.9727C12.3125 17.9727 12.2617 17.9766 12.207 17.9795ZM10.875 18.3174C10.8622 18.3233 10.8496 18.3299 10.8369 18.3359C10.8761 18.3727 10.9153 18.4111 10.958 18.4473C10.9794 18.4654 11.0028 18.4807 11.0244 18.498L10.9268 18.2949C10.9097 18.3025 10.8922 18.3095 10.875 18.3174ZM12.3594 18.4941L12.7412 18.3623L12.8574 18.1523V18.0146C12.6653 17.9837 12.4966 17.9727 12.3594 17.9727V18.4941ZM12.0391 18.4756C12.0425 18.4709 12.0457 18.4663 12.0488 18.4619L12.0264 18.4531L12.0391 18.4756ZM12.7412 18.3623L12.6816 18.4717L12.8574 18.4023V18.3223L12.7412 18.3623ZM12.0352 18.415L12.0713 18.4287C12.0937 18.3948 12.105 18.3759 12.1055 18.375L12.0596 18.3525L12.0352 18.415ZM11.998 18.4023L12.0352 18.415L12.0596 18.3525L11.9385 18.293L11.998 18.4023ZM11.6406 18.2744L11.998 18.4023L11.9385 18.293L11.6406 18.1465V18.2744ZM12.7412 18.3623L12.8574 18.3223V18.1523L12.7412 18.3623ZM12.207 17.9795C12.0858 17.9859 11.9461 17.9986 11.792 18.0264L11.9385 18.293L12.0596 18.3525L12.207 17.9795ZM11.792 18.0264C11.6395 18.0539 11.4727 18.0933 11.2959 18.1514L11.6406 18.2744V18.1465L11.9385 18.293L11.792 18.0264ZM24.8574 13.5869C24.2266 13.8613 23.6693 14.2349 23.1865 14.71C22.0437 15.816 21.4717 17.6319 21.4717 20.1572C21.4717 22.6639 22.0438 24.4791 23.1865 25.6035C23.3641 25.7782 23.5533 25.9374 23.751 26.085C23.2644 27.2746 22.5887 28.4122 21.668 29.4404C19.1965 32.2002 15.8764 33.291 12.5527 33.291C9.24273 33.291 6.02297 32.2102 3.55078 29.6553L3.31348 29.4033L3.28223 29.3691C0.773206 26.5813 0 23.0209 0 19.6865C2.54972e-05 17.5481 0.293207 15.2074 1.33203 13.0898L1.52148 12.7197C2.49746 10.896 3.98624 9.28208 6.07227 8.27051V8.26953C7.03018 7.80077 8.0201 7.47748 9.02246 7.27734C9.14006 5.90649 9.57865 4.1654 10.8975 2.62988C12.6695 0.56692 15.0382 0 16.8389 0C18.5421 2.17403e-05 20.894 0.474057 22.7334 2.43945C24.5028 4.33007 24.8574 6.60875 24.8574 8.15723V13.5869ZM12 19.7109C12.002 20.5902 12.1173 21.0555 12.1914 21.2646C12.2695 21.2767 12.3869 21.291 12.5527 21.291C12.6161 21.291 12.672 21.2858 12.7207 21.2832C12.7827 21.0253 12.8489 20.6007 12.8555 19.9609L12.3594 19.0576L12 19.7109ZM14.8096 20.5908C14.7612 21.8084 14.5433 22.6587 14.1562 23.1426C13.7323 23.6956 13.1336 23.9727 12.3594 23.9727C11.5852 23.9726 10.9766 23.6956 10.5342 23.1426C10.1105 22.5895 9.89844 21.557 9.89844 20.0459C9.89846 19.0322 9.99049 18.267 10.1748 17.751C10.3775 17.2166 10.6637 16.8483 11.0322 16.6455C11.4009 16.4428 11.8433 16.3408 12.3594 16.3408C12.8755 16.3408 13.3179 16.4427 13.6865 16.6455C14.0552 16.8483 14.3323 17.2165 14.5166 17.751C14.7193 18.267 14.8203 19.0322 14.8203 20.0459L14.8096 20.5908ZM12 19.7109L12.3594 19.0576L12.1514 18.6797L12.0527 18.7188C12.041 18.8094 12.0312 18.9137 12.0225 19.0322C12.0275 19.0336 12.0318 19.036 12.0361 19.0371C12.0764 19.0474 12.0901 19.0487 12.0713 19.0459C12.0616 19.0444 12.0448 19.0435 12.0215 19.041C12.0084 19.222 12 19.4362 12 19.6865V19.7109Z" fill="var(--preview-graphic-fill, #FADE26)"/>
</g></g>
</svg>
