<svg width="136" height="43" viewBox="0 0 136 43" fill="none" xmlns="http://www.w3.org/2000/svg">
<mask id="path-1-outside-1_929_95214" maskUnits="userSpaceOnUse" x="-0.932129" y="-0.642578" width="137" height="44" fill="black">
<rect fill="white" x="-0.932129" y="-0.642578" width="137" height="44"/>
<path d="M9.11612 11.5451C8.37644 11.5451 7.75671 11.3052 7.25692 10.8254C6.75714 10.3456 6.50725 9.7559 6.50725 9.0562C6.50725 8.31652 6.75714 7.70679 7.25692 7.22699C7.75671 6.7472 8.37644 6.50731 9.11612 6.50731C9.87579 6.50731 10.4955 6.7472 10.9753 7.22699C11.4751 7.70679 11.725 8.31652 11.725 9.0562C11.725 9.7559 11.4751 10.3456 10.9753 10.8254C10.4955 11.3052 9.87579 11.5451 9.11612 11.5451ZM11.2752 27.5882C11.2752 28.9276 10.5755 29.5973 9.17609 29.5973C8.49639 29.5973 7.95662 29.4374 7.55679 29.1175C7.15697 28.7777 6.95705 28.2679 6.95705 27.5882V16.1631C6.95705 15.5234 7.11698 15.0236 7.43685 14.6638C7.7767 14.3039 8.33646 14.124 9.11612 14.124C9.89578 14.124 10.4455 14.3039 10.7654 14.6638C11.1053 15.0236 11.2752 15.5234 11.2752 16.1631V27.5882ZM16.6408 29.5973C15.2014 29.5973 14.4817 28.9176 14.4817 27.5582V20.3613C14.4817 18.4421 15.0914 16.9228 16.3109 15.8033C17.5504 14.6838 19.1797 14.124 21.1988 14.124C23.2179 14.124 24.8372 14.6838 26.0567 15.8033C27.2961 16.9228 27.9159 18.4421 27.9159 20.3613V27.5582C27.9159 28.9176 27.1962 29.5973 25.7568 29.5973C24.3174 29.5973 23.5977 28.9176 23.5977 27.5582V20.6012C23.5977 19.6616 23.3878 18.9519 22.968 18.4721C22.5482 17.9723 21.9585 17.7225 21.1988 17.7225C20.4391 17.7225 19.8494 17.9723 19.4295 18.4721C19.0097 18.9519 18.7998 19.6616 18.7998 20.6012V27.5582C18.7998 28.9176 18.0801 29.5973 16.6408 29.5973ZM36.2094 29.5973C32.451 29.5973 30.5718 28.7677 30.5718 27.1084C30.5718 26.5886 30.7118 26.1788 30.9917 25.8789C31.2715 25.5791 31.6414 25.4291 32.1012 25.4291C32.3011 25.4291 32.491 25.4591 32.6709 25.5191C32.8708 25.5591 33.2507 25.669 33.8104 25.8489C34.0503 25.9289 34.3702 26.0089 34.77 26.0888C35.1698 26.1688 35.5597 26.2088 35.9395 26.2088C36.6592 26.2088 37.169 26.1188 37.4689 25.9389C37.7687 25.759 37.9187 25.4591 37.9187 25.0393C37.9187 24.6994 37.8387 24.4395 37.6788 24.2596C37.5188 24.0597 37.179 23.8698 36.6592 23.6899C36.1394 23.51 35.3298 23.2601 34.2303 22.9402C33.2307 22.6603 32.421 22.1605 31.8013 21.4408C31.2016 20.7012 30.9017 19.7916 30.9017 18.712C30.9017 17.1927 31.4515 16.0332 32.551 15.2335C33.6505 14.4339 35.1599 14.034 37.079 14.034C38.5184 14.034 39.6479 14.234 40.4676 14.6338C41.2872 15.0336 41.697 15.6134 41.697 16.373C41.697 16.8528 41.5571 17.2527 41.2772 17.5725C40.9973 17.8924 40.6175 18.0523 40.1377 18.0523C39.9378 18.0523 39.6979 18.0223 39.418 17.9624C39.1581 17.9024 38.8383 17.8224 38.4584 17.7225C38.1785 17.6225 37.8787 17.5425 37.5588 17.4826C37.2589 17.4226 36.9391 17.3926 36.5992 17.3926C35.6396 17.3926 35.1599 17.7325 35.1599 18.4122C35.1599 18.812 35.3498 19.1518 35.7296 19.4317C36.1094 19.6916 36.8391 19.9815 37.9187 20.3013C39.398 20.7411 40.4875 21.3309 41.1872 22.0706C41.8869 22.7903 42.2368 23.7498 42.2368 24.9493C42.2368 26.3487 41.697 27.4782 40.6175 28.3379C39.558 29.1775 38.0886 29.5973 36.2094 29.5973ZM51.6272 29.5973C49.768 29.5973 48.3886 29.1575 47.489 28.2779C46.6094 27.3983 46.1695 26.0489 46.1695 24.2296V17.9923H45.3899C44.0305 17.9923 43.3508 17.3826 43.3508 16.1631C43.3508 14.9636 44.0305 14.3639 45.3899 14.3639H46.1695V11.1253C46.1695 10.4656 46.3695 9.92583 46.7693 9.50601C47.1891 9.08619 47.7289 8.87628 48.3886 8.87628C49.0283 8.87628 49.5381 9.07619 49.9179 9.47602C50.2978 9.85586 50.4877 10.3856 50.4877 11.0653V12.5347C50.4877 13.2744 50.3677 13.8841 50.1278 14.3639H52.9766C54.336 14.3639 55.0157 14.9636 55.0157 16.1631C55.0157 17.3826 54.336 17.9923 52.9766 17.9923H50.4877V24.3196C50.4877 24.9193 50.5576 25.3492 50.6976 25.609C50.8375 25.8489 51.0674 25.9689 51.3873 25.9689C51.8071 25.9689 52.117 25.9389 52.3169 25.8789C52.5368 25.799 52.8067 25.759 53.1265 25.759C53.6663 25.759 54.0961 25.8589 54.416 26.0588C54.7358 26.2388 54.8958 26.6186 54.8958 27.1984C54.8958 28.018 54.6359 28.6277 54.1161 29.0276C53.5963 29.4074 52.7667 29.5973 51.6272 29.5973ZM63.0729 29.5973C61.0737 29.5973 59.5144 29.1375 58.3949 28.2179C57.2754 27.2783 56.7156 26.0688 56.7156 24.5895C56.7156 22.8502 57.4453 21.5908 58.9047 20.8111C60.384 20.0315 62.5431 19.7616 65.3819 20.0015C65.2419 19.0819 64.952 18.4621 64.5122 18.1423C64.0724 17.8024 63.5427 17.6325 62.9229 17.6325C62.4231 17.6325 62.0033 17.6625 61.6635 17.7225C61.3436 17.7624 61.0437 17.8124 60.7639 17.8724C60.484 17.9324 60.1441 17.9624 59.7443 17.9624C59.2045 17.9624 58.7747 17.8724 58.4549 17.6925C58.135 17.4926 57.9751 17.1027 57.9751 16.523C57.9751 15.7033 58.3249 15.1036 59.0246 14.7238C59.7443 14.3239 60.8738 14.124 62.4131 14.124C64.8521 14.124 66.6613 14.8237 67.8408 16.2231C69.0203 17.6025 69.61 19.4517 69.61 21.7707C69.61 24.4495 69.1202 26.4287 68.1407 27.7081C67.1811 28.9676 65.4918 29.5973 63.0729 29.5973ZM61.0337 24.5895C61.0337 25.729 61.8034 26.2987 63.3427 26.2987C63.8425 26.2987 64.2324 26.2088 64.5122 26.0289C64.7921 25.8489 64.992 25.4891 65.112 24.9493C65.2519 24.4096 65.3519 23.5999 65.4118 22.5204C65.3119 22.6203 65.1819 22.6903 65.022 22.7303C64.8621 22.7703 64.7022 22.7903 64.5422 22.7903C63.2228 22.7903 62.3032 22.9202 61.7834 23.1801C61.2836 23.42 61.0337 23.8898 61.0337 24.5895ZM76.8439 27.5882C76.8439 28.9276 76.1442 29.5973 74.7448 29.5973C74.0651 29.5973 73.5254 29.4274 73.1255 29.0875C72.7257 28.7477 72.5258 28.2479 72.5258 27.5882V8.84629C72.5258 8.12661 72.6857 7.55685 73.0056 7.13703C73.3454 6.71721 73.9052 6.50731 74.6849 6.50731C75.4645 6.50731 76.0143 6.71721 76.3342 7.13703C76.674 7.55685 76.8439 8.12661 76.8439 8.84629V27.5882ZM85.0728 27.5882C85.0728 28.9276 84.3731 29.5973 82.9737 29.5973C82.294 29.5973 81.7542 29.4274 81.3544 29.0875C80.9546 28.7477 80.7547 28.2479 80.7547 27.5882V8.84629C80.7547 8.12661 80.9146 7.55685 81.2345 7.13703C81.5743 6.71721 82.1341 6.50731 82.9137 6.50731C83.6934 6.50731 84.2432 6.71721 84.563 7.13703C84.9029 7.55685 85.0728 8.12661 85.0728 8.84629V27.5882ZM91.0826 11.5451C90.3429 11.5451 89.7232 11.3052 89.2234 10.8254C88.7236 10.3456 88.4737 9.7559 88.4737 9.0562C88.4737 8.31652 88.7236 7.70679 89.2234 7.22699C89.7232 6.7472 90.3429 6.50731 91.0826 6.50731C91.8423 6.50731 92.462 6.7472 92.9418 7.22699C93.4416 7.70679 93.6915 8.31652 93.6915 9.0562C93.6915 9.7559 93.4416 10.3456 92.9418 10.8254C92.462 11.3052 91.8423 11.5451 91.0826 11.5451ZM93.2417 27.5882C93.2417 28.9276 92.542 29.5973 91.1426 29.5973C90.4629 29.5973 89.9231 29.4374 89.5233 29.1175C89.1235 28.7777 88.9235 28.2679 88.9235 27.5882V16.1631C88.9235 15.5234 89.0835 15.0236 89.4033 14.6638C89.7432 14.3039 90.3029 14.124 91.0826 14.124C91.8623 14.124 92.412 14.3039 92.7319 14.6638C93.0718 15.0236 93.2417 15.5234 93.2417 16.1631V27.5882ZM98.6072 29.5973C97.1679 29.5973 96.4482 28.9176 96.4482 27.5582V20.3613C96.4482 18.4421 97.0579 16.9228 98.2774 15.8033C99.5169 14.6838 101.146 14.124 103.165 14.124C105.184 14.124 106.804 14.6838 108.023 15.8033C109.263 16.9228 109.882 18.4421 109.882 20.3613V27.5582C109.882 28.9176 109.163 29.5973 107.723 29.5973C106.284 29.5973 105.564 28.9176 105.564 27.5582V20.6012C105.564 19.6616 105.354 18.9519 104.935 18.4721C104.515 17.9723 103.925 17.7225 103.165 17.7225C102.406 17.7225 101.816 17.9723 101.396 18.4721C100.976 18.9519 100.766 19.6616 100.766 20.6012V27.5582C100.766 28.9176 100.047 29.5973 98.6072 29.5973ZM126.417 31.1866C126.417 32.8859 125.618 34.1553 124.018 34.995C122.419 35.8346 120.13 36.2544 117.151 36.2544C115.612 36.2544 114.483 36.0545 113.763 35.6547C113.063 35.2749 112.713 34.6751 112.713 33.8555C112.713 33.2757 112.873 32.8859 113.193 32.686C113.513 32.5061 113.943 32.4161 114.483 32.4161C114.882 32.4161 115.222 32.4361 115.502 32.4761C115.782 32.536 116.082 32.586 116.402 32.626C116.742 32.686 117.161 32.716 117.661 32.716C119.241 32.716 120.37 32.596 121.05 32.3561C121.749 32.1162 122.099 31.6264 122.099 30.8868C122.099 30.267 121.849 29.7672 121.35 29.3874C120.85 29.0076 120.22 28.8177 119.46 28.8177C114.862 28.8177 112.563 26.3687 112.563 21.4708C112.563 18.9719 113.143 17.1227 114.303 15.9232C115.462 14.7238 117.191 14.124 119.49 14.124C121.01 14.124 122.269 14.3839 123.269 14.9037C123.749 13.1045 124.768 12.2048 126.327 12.2048C127.087 12.2048 127.667 12.4048 128.067 12.8046C128.487 13.1844 128.696 13.7442 128.696 14.4839C128.696 15.1636 128.497 15.6533 128.097 15.9532C127.697 16.2531 127.057 16.403 126.178 16.403C125.798 16.403 125.448 16.433 125.128 16.493C125.988 17.6925 126.417 19.3617 126.417 21.5008C126.417 22.8402 126.217 23.9498 125.818 24.8294C125.438 25.709 124.728 26.4387 123.689 27.0184C124.688 27.3783 125.388 27.938 125.788 28.6977C126.207 29.4374 126.417 30.267 126.417 31.1866ZM116.882 21.4708C116.882 23.9698 117.751 25.2192 119.49 25.2192C121.23 25.2192 122.099 23.9698 122.099 21.4708C122.099 20.1714 121.879 19.2218 121.44 18.6221C121.02 18.0223 120.37 17.7225 119.49 17.7225C118.631 17.7225 117.981 18.0223 117.541 18.6221C117.101 19.2218 116.882 20.1714 116.882 21.4708Z"/>
</mask>
<path d="M9.11612 11.5451C8.37644 11.5451 7.75671 11.3052 7.25692 10.8254C6.75714 10.3456 6.50725 9.7559 6.50725 9.0562C6.50725 8.31652 6.75714 7.70679 7.25692 7.22699C7.75671 6.7472 8.37644 6.50731 9.11612 6.50731C9.87579 6.50731 10.4955 6.7472 10.9753 7.22699C11.4751 7.70679 11.725 8.31652 11.725 9.0562C11.725 9.7559 11.4751 10.3456 10.9753 10.8254C10.4955 11.3052 9.87579 11.5451 9.11612 11.5451ZM11.2752 27.5882C11.2752 28.9276 10.5755 29.5973 9.17609 29.5973C8.49639 29.5973 7.95662 29.4374 7.55679 29.1175C7.15697 28.7777 6.95705 28.2679 6.95705 27.5882V16.1631C6.95705 15.5234 7.11698 15.0236 7.43685 14.6638C7.7767 14.3039 8.33646 14.124 9.11612 14.124C9.89578 14.124 10.4455 14.3039 10.7654 14.6638C11.1053 15.0236 11.2752 15.5234 11.2752 16.1631V27.5882ZM16.6408 29.5973C15.2014 29.5973 14.4817 28.9176 14.4817 27.5582V20.3613C14.4817 18.4421 15.0914 16.9228 16.3109 15.8033C17.5504 14.6838 19.1797 14.124 21.1988 14.124C23.2179 14.124 24.8372 14.6838 26.0567 15.8033C27.2961 16.9228 27.9159 18.4421 27.9159 20.3613V27.5582C27.9159 28.9176 27.1962 29.5973 25.7568 29.5973C24.3174 29.5973 23.5977 28.9176 23.5977 27.5582V20.6012C23.5977 19.6616 23.3878 18.9519 22.968 18.4721C22.5482 17.9723 21.9585 17.7225 21.1988 17.7225C20.4391 17.7225 19.8494 17.9723 19.4295 18.4721C19.0097 18.9519 18.7998 19.6616 18.7998 20.6012V27.5582C18.7998 28.9176 18.0801 29.5973 16.6408 29.5973ZM36.2094 29.5973C32.451 29.5973 30.5718 28.7677 30.5718 27.1084C30.5718 26.5886 30.7118 26.1788 30.9917 25.8789C31.2715 25.5791 31.6414 25.4291 32.1012 25.4291C32.3011 25.4291 32.491 25.4591 32.6709 25.5191C32.8708 25.5591 33.2507 25.669 33.8104 25.8489C34.0503 25.9289 34.3702 26.0089 34.77 26.0888C35.1698 26.1688 35.5597 26.2088 35.9395 26.2088C36.6592 26.2088 37.169 26.1188 37.4689 25.9389C37.7687 25.759 37.9187 25.4591 37.9187 25.0393C37.9187 24.6994 37.8387 24.4395 37.6788 24.2596C37.5188 24.0597 37.179 23.8698 36.6592 23.6899C36.1394 23.51 35.3298 23.2601 34.2303 22.9402C33.2307 22.6603 32.421 22.1605 31.8013 21.4408C31.2016 20.7012 30.9017 19.7916 30.9017 18.712C30.9017 17.1927 31.4515 16.0332 32.551 15.2335C33.6505 14.4339 35.1599 14.034 37.079 14.034C38.5184 14.034 39.6479 14.234 40.4676 14.6338C41.2872 15.0336 41.697 15.6134 41.697 16.373C41.697 16.8528 41.5571 17.2527 41.2772 17.5725C40.9973 17.8924 40.6175 18.0523 40.1377 18.0523C39.9378 18.0523 39.6979 18.0223 39.418 17.9624C39.1581 17.9024 38.8383 17.8224 38.4584 17.7225C38.1785 17.6225 37.8787 17.5425 37.5588 17.4826C37.2589 17.4226 36.9391 17.3926 36.5992 17.3926C35.6396 17.3926 35.1599 17.7325 35.1599 18.4122C35.1599 18.812 35.3498 19.1518 35.7296 19.4317C36.1094 19.6916 36.8391 19.9815 37.9187 20.3013C39.398 20.7411 40.4875 21.3309 41.1872 22.0706C41.8869 22.7903 42.2368 23.7498 42.2368 24.9493C42.2368 26.3487 41.697 27.4782 40.6175 28.3379C39.558 29.1775 38.0886 29.5973 36.2094 29.5973ZM51.6272 29.5973C49.768 29.5973 48.3886 29.1575 47.489 28.2779C46.6094 27.3983 46.1695 26.0489 46.1695 24.2296V17.9923H45.3899C44.0305 17.9923 43.3508 17.3826 43.3508 16.1631C43.3508 14.9636 44.0305 14.3639 45.3899 14.3639H46.1695V11.1253C46.1695 10.4656 46.3695 9.92583 46.7693 9.50601C47.1891 9.08619 47.7289 8.87628 48.3886 8.87628C49.0283 8.87628 49.5381 9.07619 49.9179 9.47602C50.2978 9.85586 50.4877 10.3856 50.4877 11.0653V12.5347C50.4877 13.2744 50.3677 13.8841 50.1278 14.3639H52.9766C54.336 14.3639 55.0157 14.9636 55.0157 16.1631C55.0157 17.3826 54.336 17.9923 52.9766 17.9923H50.4877V24.3196C50.4877 24.9193 50.5576 25.3492 50.6976 25.609C50.8375 25.8489 51.0674 25.9689 51.3873 25.9689C51.8071 25.9689 52.117 25.9389 52.3169 25.8789C52.5368 25.799 52.8067 25.759 53.1265 25.759C53.6663 25.759 54.0961 25.8589 54.416 26.0588C54.7358 26.2388 54.8958 26.6186 54.8958 27.1984C54.8958 28.018 54.6359 28.6277 54.1161 29.0276C53.5963 29.4074 52.7667 29.5973 51.6272 29.5973ZM63.0729 29.5973C61.0737 29.5973 59.5144 29.1375 58.3949 28.2179C57.2754 27.2783 56.7156 26.0688 56.7156 24.5895C56.7156 22.8502 57.4453 21.5908 58.9047 20.8111C60.384 20.0315 62.5431 19.7616 65.3819 20.0015C65.2419 19.0819 64.952 18.4621 64.5122 18.1423C64.0724 17.8024 63.5427 17.6325 62.9229 17.6325C62.4231 17.6325 62.0033 17.6625 61.6635 17.7225C61.3436 17.7624 61.0437 17.8124 60.7639 17.8724C60.484 17.9324 60.1441 17.9624 59.7443 17.9624C59.2045 17.9624 58.7747 17.8724 58.4549 17.6925C58.135 17.4926 57.9751 17.1027 57.9751 16.523C57.9751 15.7033 58.3249 15.1036 59.0246 14.7238C59.7443 14.3239 60.8738 14.124 62.4131 14.124C64.8521 14.124 66.6613 14.8237 67.8408 16.2231C69.0203 17.6025 69.61 19.4517 69.61 21.7707C69.61 24.4495 69.1202 26.4287 68.1407 27.7081C67.1811 28.9676 65.4918 29.5973 63.0729 29.5973ZM61.0337 24.5895C61.0337 25.729 61.8034 26.2987 63.3427 26.2987C63.8425 26.2987 64.2324 26.2088 64.5122 26.0289C64.7921 25.8489 64.992 25.4891 65.112 24.9493C65.2519 24.4096 65.3519 23.5999 65.4118 22.5204C65.3119 22.6203 65.1819 22.6903 65.022 22.7303C64.8621 22.7703 64.7022 22.7903 64.5422 22.7903C63.2228 22.7903 62.3032 22.9202 61.7834 23.1801C61.2836 23.42 61.0337 23.8898 61.0337 24.5895ZM76.8439 27.5882C76.8439 28.9276 76.1442 29.5973 74.7448 29.5973C74.0651 29.5973 73.5254 29.4274 73.1255 29.0875C72.7257 28.7477 72.5258 28.2479 72.5258 27.5882V8.84629C72.5258 8.12661 72.6857 7.55685 73.0056 7.13703C73.3454 6.71721 73.9052 6.50731 74.6849 6.50731C75.4645 6.50731 76.0143 6.71721 76.3342 7.13703C76.674 7.55685 76.8439 8.12661 76.8439 8.84629V27.5882ZM85.0728 27.5882C85.0728 28.9276 84.3731 29.5973 82.9737 29.5973C82.294 29.5973 81.7542 29.4274 81.3544 29.0875C80.9546 28.7477 80.7547 28.2479 80.7547 27.5882V8.84629C80.7547 8.12661 80.9146 7.55685 81.2345 7.13703C81.5743 6.71721 82.1341 6.50731 82.9137 6.50731C83.6934 6.50731 84.2432 6.71721 84.563 7.13703C84.9029 7.55685 85.0728 8.12661 85.0728 8.84629V27.5882ZM91.0826 11.5451C90.3429 11.5451 89.7232 11.3052 89.2234 10.8254C88.7236 10.3456 88.4737 9.7559 88.4737 9.0562C88.4737 8.31652 88.7236 7.70679 89.2234 7.22699C89.7232 6.7472 90.3429 6.50731 91.0826 6.50731C91.8423 6.50731 92.462 6.7472 92.9418 7.22699C93.4416 7.70679 93.6915 8.31652 93.6915 9.0562C93.6915 9.7559 93.4416 10.3456 92.9418 10.8254C92.462 11.3052 91.8423 11.5451 91.0826 11.5451ZM93.2417 27.5882C93.2417 28.9276 92.542 29.5973 91.1426 29.5973C90.4629 29.5973 89.9231 29.4374 89.5233 29.1175C89.1235 28.7777 88.9235 28.2679 88.9235 27.5882V16.1631C88.9235 15.5234 89.0835 15.0236 89.4033 14.6638C89.7432 14.3039 90.3029 14.124 91.0826 14.124C91.8623 14.124 92.412 14.3039 92.7319 14.6638C93.0718 15.0236 93.2417 15.5234 93.2417 16.1631V27.5882ZM98.6072 29.5973C97.1679 29.5973 96.4482 28.9176 96.4482 27.5582V20.3613C96.4482 18.4421 97.0579 16.9228 98.2774 15.8033C99.5169 14.6838 101.146 14.124 103.165 14.124C105.184 14.124 106.804 14.6838 108.023 15.8033C109.263 16.9228 109.882 18.4421 109.882 20.3613V27.5582C109.882 28.9176 109.163 29.5973 107.723 29.5973C106.284 29.5973 105.564 28.9176 105.564 27.5582V20.6012C105.564 19.6616 105.354 18.9519 104.935 18.4721C104.515 17.9723 103.925 17.7225 103.165 17.7225C102.406 17.7225 101.816 17.9723 101.396 18.4721C100.976 18.9519 100.766 19.6616 100.766 20.6012V27.5582C100.766 28.9176 100.047 29.5973 98.6072 29.5973ZM126.417 31.1866C126.417 32.8859 125.618 34.1553 124.018 34.995C122.419 35.8346 120.13 36.2544 117.151 36.2544C115.612 36.2544 114.483 36.0545 113.763 35.6547C113.063 35.2749 112.713 34.6751 112.713 33.8555C112.713 33.2757 112.873 32.8859 113.193 32.686C113.513 32.5061 113.943 32.4161 114.483 32.4161C114.882 32.4161 115.222 32.4361 115.502 32.4761C115.782 32.536 116.082 32.586 116.402 32.626C116.742 32.686 117.161 32.716 117.661 32.716C119.241 32.716 120.37 32.596 121.05 32.3561C121.749 32.1162 122.099 31.6264 122.099 30.8868C122.099 30.267 121.849 29.7672 121.35 29.3874C120.85 29.0076 120.22 28.8177 119.46 28.8177C114.862 28.8177 112.563 26.3687 112.563 21.4708C112.563 18.9719 113.143 17.1227 114.303 15.9232C115.462 14.7238 117.191 14.124 119.49 14.124C121.01 14.124 122.269 14.3839 123.269 14.9037C123.749 13.1045 124.768 12.2048 126.327 12.2048C127.087 12.2048 127.667 12.4048 128.067 12.8046C128.487 13.1844 128.696 13.7442 128.696 14.4839C128.696 15.1636 128.497 15.6533 128.097 15.9532C127.697 16.2531 127.057 16.403 126.178 16.403C125.798 16.403 125.448 16.433 125.128 16.493C125.988 17.6925 126.417 19.3617 126.417 21.5008C126.417 22.8402 126.217 23.9498 125.818 24.8294C125.438 25.709 124.728 26.4387 123.689 27.0184C124.688 27.3783 125.388 27.938 125.788 28.6977C126.207 29.4374 126.417 30.267 126.417 31.1866ZM116.882 21.4708C116.882 23.9698 117.751 25.2192 119.49 25.2192C121.23 25.2192 122.099 23.9698 122.099 21.4708C122.099 20.1714 121.879 19.2218 121.44 18.6221C121.02 18.0223 120.37 17.7225 119.49 17.7225C118.631 17.7225 117.981 18.0223 117.541 18.6221C117.101 19.2218 116.882 20.1714 116.882 21.4708Z" fill="var(--preview-graphic-text, #3F3833)"/>
<path d="M7.25692 10.8254L11.7633 6.13126H11.7633L7.25692 10.8254ZM7.25692 7.22699L11.7633 11.9212H11.7633L7.25692 7.22699ZM10.9753 7.22699L6.37407 11.8282L6.46891 11.9212L10.9753 7.22699ZM10.9753 10.8254L6.46891 6.13126L6.37407 6.22419L10.9753 10.8254ZM7.55679 29.1175L3.34245 34.0756L3.49181 34.1988L7.55679 29.1175ZM7.43685 14.6638L2.70606 10.1958L2.57335 10.3407L7.43685 14.6638ZM10.7654 14.6638L5.9019 18.9869L6.03463 19.1317L10.7654 14.6638ZM9.11612 11.5451V5.03798C9.45909 5.03798 9.92619 5.09579 10.4456 5.29685C10.9728 5.50092 11.419 5.80073 11.7633 6.13126L7.25692 10.8254L2.75052 15.5196C4.54946 17.2466 6.82171 18.0523 9.11612 18.0523V11.5451ZM7.25692 10.8254L11.7633 6.13126C12.0969 6.45146 12.4399 6.90336 12.6861 7.48453C12.9318 8.06431 13.0144 8.61497 13.0144 9.0562H6.50725H0.00010252C0.00010252 11.5078 0.958228 13.799 2.75052 15.5196L7.25692 10.8254ZM6.50725 9.0562H13.0144C13.0144 9.42928 12.9488 9.94322 12.7158 10.5118C12.479 11.0895 12.1338 11.5656 11.7633 11.9212L7.25692 7.22699L2.75052 2.53282C0.879216 4.32927 0.00010252 6.67833 0.00010252 9.0562H6.50725ZM7.25692 7.22699L11.7633 11.9212C11.419 12.2517 10.9728 12.5515 10.4456 12.7556C9.92619 12.9566 9.45909 13.0145 9.11612 13.0145V6.50731V0.000160217C6.82171 0.000160217 4.54946 0.805836 2.75052 2.53282L7.25692 7.22699ZM9.11612 6.50731V13.0145C8.80636 13.0145 8.34024 12.9641 7.80163 12.7556C7.24876 12.5416 6.76077 12.2149 6.37407 11.8282L10.9753 7.22699L15.5766 2.62575C13.7257 0.77486 11.376 0.000160217 9.11612 0.000160217V6.50731ZM10.9753 7.22699L6.46891 11.9212C6.09849 11.5656 5.75325 11.0895 5.51648 10.5118C5.28345 9.94322 5.21785 9.42928 5.21785 9.0562H11.725H18.2321C18.2321 6.67833 17.353 4.32927 15.4817 2.53282L10.9753 7.22699ZM11.725 9.0562H5.21785C5.21785 8.61497 5.30044 8.06431 5.54611 7.48453C5.79237 6.90336 6.13537 6.45146 6.46891 6.13126L10.9753 10.8254L15.4817 15.5196C17.274 13.799 18.2321 11.5078 18.2321 9.0562H11.725ZM10.9753 10.8254L6.37407 6.22419C6.76077 5.83749 7.24876 5.51086 7.80163 5.29685C8.34024 5.08835 8.80636 5.03798 9.11612 5.03798V11.5451V18.0523C11.376 18.0523 13.7257 17.2776 15.5766 15.4267L10.9753 10.8254ZM11.2752 27.5882H4.76804C4.76804 27.1805 4.88919 25.6976 6.251 24.3942C7.5596 23.1416 8.94226 23.0902 9.17609 23.0902V29.5973V36.1045C10.8093 36.1045 13.2415 35.7181 15.2498 33.7959C17.3113 31.8228 17.7823 29.3353 17.7823 27.5882H11.2752ZM9.17609 29.5973V23.0902C9.48887 23.0902 10.5388 23.1699 11.6218 24.0363L7.55679 29.1175L3.49181 34.1988C5.37448 35.7049 7.50391 36.1045 9.17609 36.1045V29.5973ZM7.55679 29.1175L11.7711 24.1595C12.4255 24.7157 12.8905 25.4048 13.165 26.1046C13.4239 26.7649 13.4642 27.3044 13.4642 27.5882H6.95705H0.449908C0.449908 29.5727 1.08333 32.1553 3.34245 34.0756L7.55679 29.1175ZM6.95705 27.5882H13.4642V16.1631H6.95705H0.449908V27.5882H6.95705ZM6.95705 16.1631H13.4642C13.4642 16.5846 13.3465 17.81 12.3003 18.9869L7.43685 14.6638L2.57335 10.3407C0.887512 12.2372 0.449908 14.4623 0.449908 16.1631H6.95705ZM7.43685 14.6638L12.1676 19.1317C10.7258 20.6584 9.12043 20.6312 9.11612 20.6312V14.124V7.61687C7.55248 7.61687 4.82761 7.94948 2.70606 10.1958L7.43685 14.6638ZM9.11612 14.124V20.6312C9.04137 20.6312 8.65032 20.627 8.08921 20.4433C7.4904 20.2473 6.64797 19.8262 5.9019 18.9869L10.7654 14.6638L15.6289 10.3407C13.4857 7.9295 10.6318 7.61687 9.11612 7.61687V14.124ZM10.7654 14.6638L6.03463 19.1317C4.92961 17.9617 4.76804 16.6818 4.76804 16.1631H11.2752H17.7823C17.7823 14.365 17.2809 12.0855 15.4962 10.1958L10.7654 14.6638ZM11.2752 16.1631H4.76804V27.5882H11.2752H17.7823V16.1631H11.2752ZM16.3109 15.8033L11.9492 10.9743L11.9103 11.0098L16.3109 15.8033ZM26.0567 15.8033L21.6561 20.5968L21.695 20.6323L26.0567 15.8033ZM22.968 18.4721L17.9855 22.6575L18.0709 22.7571L22.968 18.4721ZM19.4295 18.4721L24.3267 22.7571L24.4121 22.6575L19.4295 18.4721ZM16.6408 29.5973V23.0902C16.8343 23.0902 18.1894 23.129 19.4894 24.3568C20.8592 25.6505 20.9888 27.1368 20.9888 27.5582H14.4817H7.97454C7.97454 29.339 8.46399 31.8449 10.5535 33.8183C12.5732 35.7258 15.0078 36.1045 16.6408 36.1045V29.5973ZM14.4817 27.5582H20.9888V20.3613H14.4817H7.97454V27.5582H14.4817ZM14.4817 20.3613H20.9888C20.9888 20.0913 21.0308 20.0744 20.978 20.206C20.9525 20.2695 20.9131 20.3464 20.8586 20.425C20.8042 20.5034 20.7506 20.5609 20.7115 20.5968L16.3109 15.8033L11.9103 11.0098C9.13051 13.5617 7.97454 16.9383 7.97454 20.3613H14.4817ZM16.3109 15.8033L20.6725 20.6323C20.6538 20.6492 20.6282 20.6683 20.6009 20.6844C20.5739 20.7001 20.5624 20.7028 20.5768 20.6979C20.6053 20.6881 20.7877 20.6312 21.1988 20.6312V14.124V7.61687C17.9222 7.61687 14.6236 8.55873 11.9492 10.9743L16.3109 15.8033ZM21.1988 14.124V20.6312C21.6108 20.6312 21.7856 20.6883 21.8017 20.6939C21.8094 20.6966 21.7898 20.6903 21.7541 20.6692C21.7178 20.6478 21.6834 20.6219 21.6561 20.5968L26.0567 15.8033L30.4573 11.0098C27.7862 8.55763 24.4713 7.61687 21.1988 7.61687V14.124ZM26.0567 15.8033L21.695 20.6323C21.659 20.5997 21.6059 20.5442 21.5506 20.4657C21.4951 20.3869 21.4536 20.308 21.4259 20.2401C21.3683 20.0989 21.4087 20.1036 21.4087 20.3613H27.9159H34.423C34.423 16.9041 33.2332 13.5168 30.4183 10.9743L26.0567 15.8033ZM27.9159 20.3613H21.4087V27.5582H27.9159H34.423V20.3613H27.9159ZM27.9159 27.5582H21.4087C21.4087 27.1368 21.5383 25.6505 22.9082 24.3568C24.2082 23.129 25.5632 23.0902 25.7568 23.0902V29.5973V36.1045C27.3898 36.1045 29.8244 35.7258 31.8441 33.8183C33.9336 31.8449 34.423 29.339 34.423 27.5582H27.9159ZM25.7568 29.5973V23.0902C25.9504 23.0902 27.3054 23.129 28.6055 24.3568C29.9753 25.6505 30.1049 27.1368 30.1049 27.5582H23.5977H17.0906C17.0906 29.339 17.58 31.8449 19.6696 33.8183C21.6893 35.7258 24.1238 36.1045 25.7568 36.1045V29.5973ZM23.5977 27.5582H30.1049V20.6012H23.5977H17.0906V27.5582H23.5977ZM23.5977 20.6012H30.1049C30.1049 18.8143 29.7191 16.3059 27.8651 14.1871L22.968 18.4721L18.0709 22.7571C17.5706 22.1854 17.3192 21.6115 17.2004 21.2099C17.1426 21.0143 17.1159 20.86 17.1033 20.7612C17.0907 20.6625 17.0906 20.6063 17.0906 20.6012H23.5977ZM22.968 18.4721L27.9506 14.2868C26.0855 12.0664 23.5304 11.2153 21.1988 11.2153V17.7225V24.2296C20.8659 24.2296 20.3153 24.1739 19.6721 23.9013C19.0027 23.6177 18.4231 23.1785 17.9855 22.6575L22.968 18.4721ZM21.1988 17.7225V11.2153C18.8672 11.2153 16.3121 12.0664 14.447 14.2868L19.4295 18.4721L24.4121 22.6575C23.9744 23.1785 23.3949 23.6177 22.7255 23.9013C22.0823 24.1739 21.5317 24.2296 21.1988 24.2296V17.7225ZM19.4295 18.4721L14.5324 14.1871C12.6785 16.3059 12.2927 18.8143 12.2927 20.6012H18.7998H25.307C25.307 20.6063 25.3068 20.6625 25.2943 20.7612C25.2817 20.86 25.255 21.0143 25.1972 21.2099C25.0784 21.6115 24.8269 22.1854 24.3267 22.7571L19.4295 18.4721ZM18.7998 20.6012H12.2927V27.5582H18.7998H25.307V20.6012H18.7998ZM18.7998 27.5582H12.2927C12.2927 27.1368 12.4223 25.6505 13.7921 24.3568C15.0921 23.129 16.4472 23.0902 16.6408 23.0902V29.5973V36.1045C18.2737 36.1045 20.7083 35.7258 22.728 33.8183C24.8175 31.8449 25.307 29.339 25.307 27.5582H18.7998ZM30.9917 25.8789L35.7487 30.3189V30.3189L30.9917 25.8789ZM32.6709 25.5191L30.6132 31.6923L31.3948 31.8999L32.6709 25.5191ZM33.8104 25.8489L35.8682 19.6757L35.8017 19.6539L33.8104 25.8489ZM34.77 26.0888L33.4939 32.4696V32.4696L34.77 26.0888ZM37.4689 25.9389L34.121 20.3591L34.121 20.3591L37.4689 25.9389ZM37.6788 24.2596L32.5975 28.3246L32.8153 28.5827L37.6788 24.2596ZM36.6592 23.6899L34.5306 29.839L36.6592 23.6899ZM34.2303 22.9402L36.0479 16.6921L35.9848 16.674L34.2303 22.9402ZM31.8013 21.4408L26.7468 25.5391L26.8704 25.6869L31.8013 21.4408ZM32.551 15.2335L36.3783 20.4961L36.3783 20.4961L32.551 15.2335ZM40.4676 14.6338L43.3204 8.78537V8.78537L40.4676 14.6338ZM39.418 17.9624L37.9548 24.3029L38.0546 24.3251L39.418 17.9624ZM38.4584 17.7225L36.2698 23.8505L36.8024 24.0154L38.4584 17.7225ZM37.5588 17.4826L36.2827 23.8633L36.3596 23.8782L37.5588 17.4826ZM35.7296 19.4317L31.8696 24.6703L32.0551 24.8021L35.7296 19.4317ZM37.9187 20.3013L39.773 14.064L39.7673 14.0623L37.9187 20.3013ZM41.1872 22.0706L36.46 26.5423L36.5217 26.6066L41.1872 22.0706ZM40.6175 28.3379L44.659 33.4378L44.671 33.4283L40.6175 28.3379ZM36.2094 29.5973V23.0902C35.4932 23.0902 35.0007 23.0496 34.6904 23.004C34.3593 22.9552 34.3815 22.9217 34.6093 23.0223C34.8422 23.1251 35.5054 23.4658 36.1174 24.2763C36.7916 25.1694 37.079 26.2048 37.079 27.1084H30.5718H24.0647C24.0647 28.8416 24.587 30.603 25.731 32.1183C26.8128 33.551 28.1807 34.4103 29.3531 34.9279C31.548 35.8969 34.0526 36.1045 36.2094 36.1045V29.5973ZM30.5718 27.1084H37.079C37.079 27.7786 36.8713 29.1161 35.7487 30.3189L30.9917 25.8789L26.2346 21.439C24.5522 23.2415 24.0647 25.3986 24.0647 27.1084H30.5718ZM30.9917 25.8789L35.7487 30.3189C35.2613 30.8411 34.6409 31.2813 33.9237 31.572C33.2231 31.856 32.5831 31.9363 32.1012 31.9363V25.4291V18.922C30.0788 18.922 27.9005 19.6541 26.2346 21.439L30.9917 25.8789ZM32.1012 25.4291V31.9363C31.6397 31.9363 31.1319 31.8652 30.6132 31.6923L32.6709 25.5191L34.7287 19.3459C33.8501 19.053 32.9624 18.922 32.1012 18.922V25.4291ZM32.6709 25.5191L31.3948 31.8999C31.3353 31.888 31.2915 31.878 31.2675 31.8724C31.2426 31.8665 31.2279 31.8627 31.2253 31.8621C31.222 31.8612 31.2435 31.8668 31.2964 31.8821C31.4039 31.9132 31.5737 31.965 31.8192 32.0439L33.8104 25.8489L35.8017 19.6539C35.2907 19.4897 34.5667 19.2622 33.9471 19.1383L32.6709 25.5191ZM33.8104 25.8489L31.7527 32.0222C32.3548 32.2229 32.9684 32.3645 33.4939 32.4696L34.77 26.0888L36.0462 19.7081C35.9249 19.6838 35.8482 19.666 35.8085 19.656C35.7896 19.6513 35.7851 19.6499 35.793 19.6521C35.8005 19.6543 35.8266 19.6619 35.8682 19.6757L33.8104 25.8489ZM34.77 26.0888L33.4939 32.4696C34.2833 32.6275 35.1011 32.7159 35.9395 32.7159V26.2088V19.7016C36.0182 19.7016 36.0563 19.7101 36.0462 19.7081L34.77 26.0888ZM35.9395 26.2088V32.7159C36.8316 32.7159 38.8963 32.671 40.8168 31.5187L37.4689 25.9389L34.121 20.3591C34.8978 19.893 35.5433 19.7663 35.7308 19.7332C35.9618 19.6924 36.0549 19.7016 35.9395 19.7016V26.2088ZM37.4689 25.9389L40.8167 31.5187C43.497 29.9106 44.4258 27.2078 44.4258 25.0393H37.9187H31.4115C31.4115 24.4878 31.5098 23.6215 31.986 22.669C32.4891 21.6629 33.2578 20.877 34.121 20.3591L37.4689 25.9389ZM37.9187 25.0393H44.4258C44.4258 23.7583 44.1264 21.7186 42.5423 19.9365L37.6788 24.2596L32.8153 28.5827C31.551 27.1605 31.4115 25.6406 31.4115 25.0393H37.9187ZM37.6788 24.2596L42.76 20.1947C41.3484 18.4301 39.4111 17.7565 38.7878 17.5407L36.6592 23.6899L34.5306 29.839C34.564 29.8506 34.399 29.7981 34.1296 29.6476C33.9093 29.5245 33.2429 29.1313 32.5975 28.3246L37.6788 24.2596ZM36.6592 23.6899L38.7878 17.5407C38.1057 17.3046 37.1656 17.0172 36.0479 16.6921L34.2303 22.9402L32.4126 29.1883C33.4939 29.5029 34.1732 29.7153 34.5306 29.839L36.6592 23.6899ZM34.2303 22.9402L35.9848 16.674C36.018 16.6834 36.1338 16.721 36.2913 16.8183C36.4529 16.918 36.6061 17.0483 36.7322 17.1948L31.8013 21.4408L26.8704 25.6869C28.4044 27.4683 30.3612 28.6143 32.4757 29.2063L34.2303 22.9402ZM31.8013 21.4408L36.8558 17.3426C37.0559 17.5894 37.2109 17.8762 37.3066 18.1665C37.399 18.4468 37.4088 18.6465 37.4088 18.712H30.9017H24.3946C24.3946 21.0731 25.0826 23.4865 26.7468 25.5391L31.8013 21.4408ZM30.9017 18.712H37.4088C37.4088 18.7409 37.4012 19.0532 37.1937 19.4907C36.9744 19.9533 36.6548 20.295 36.3783 20.4961L32.551 15.2335L28.7237 9.97097C25.7242 12.1524 24.3946 15.3935 24.3946 18.712H30.9017ZM32.551 15.2335L36.3783 20.4961C36.1884 20.6342 36.0828 20.6482 36.1739 20.6241C36.2775 20.5967 36.5588 20.5412 37.079 20.5412V14.034V7.5269C34.3333 7.5269 31.3094 8.09042 28.7237 9.97097L32.551 15.2335ZM37.079 14.034V20.5412C37.5098 20.5412 37.7615 20.5721 37.8716 20.5915C37.9862 20.6118 37.8679 20.6057 37.6147 20.4822L40.4676 14.6338L43.3204 8.78537C41.2447 7.77281 38.9949 7.5269 37.079 7.5269V14.034ZM40.4676 14.6338L37.6147 20.4822C37.3141 20.3356 36.6571 19.9466 36.0761 19.1246C35.4489 18.2374 35.1899 17.2391 35.1899 16.373H41.697H48.2042C48.2042 14.7473 47.7402 13.0793 46.7032 11.6123C45.7124 10.2106 44.4406 9.3318 43.3204 8.78537L40.4676 14.6338ZM41.697 16.373H35.1899C35.1899 15.9768 35.2486 15.4592 35.4502 14.8831C35.6559 14.2956 35.9744 13.7512 36.3801 13.2875L41.2772 17.5725L46.1743 21.8575C47.6267 20.1976 48.2042 18.2119 48.2042 16.373H41.697ZM41.2772 17.5725L36.3801 13.2875C36.8696 12.7281 37.5079 12.2507 38.2573 11.9351C38.9869 11.6279 39.651 11.5452 40.1377 11.5452V18.0523V24.5595C42.2244 24.5595 44.4918 23.7804 46.1743 21.8575L41.2772 17.5725ZM40.1377 18.0523V11.5452C40.3564 11.5452 40.5205 11.5611 40.615 11.5729C40.7119 11.585 40.7697 11.5971 40.7815 11.5996L39.418 17.9624L38.0546 24.3251C38.6079 24.4436 39.33 24.5595 40.1377 24.5595V18.0523ZM39.418 17.9624L40.8812 11.6218C40.7081 11.5819 40.4571 11.5197 40.1145 11.4296L38.4584 17.7225L36.8024 24.0154C37.2194 24.1251 37.6081 24.2228 37.9548 24.3029L39.418 17.9624ZM38.4584 17.7225L40.647 11.5944C40.0162 11.3691 39.3829 11.204 38.758 11.0869L37.5588 17.4826L36.3596 23.8782C36.3745 23.881 36.3409 23.8759 36.2698 23.8505L38.4584 17.7225ZM37.5588 17.4826L38.835 11.1018C38.0715 10.9491 37.3209 10.8855 36.5992 10.8855V17.3926V23.8997C36.5573 23.8997 36.4464 23.8961 36.2827 23.8633L37.5588 17.4826ZM36.5992 17.3926V10.8855C35.5491 10.8855 33.5963 11.0357 31.7585 12.3375C29.509 13.9309 28.6527 16.3402 28.6527 18.4122H35.1599H41.667C41.667 19.0056 41.5609 19.8372 41.1376 20.7368C40.6984 21.6701 40.0355 22.423 39.2809 22.9575C37.9229 23.9194 36.6898 23.8997 36.5992 23.8997V17.3926ZM35.1599 18.4122H28.6527C28.6527 21.2682 30.165 23.4143 31.8696 24.6703L35.7296 19.4317L39.5896 14.1931C39.9916 14.4892 40.5395 14.9996 40.9827 15.7926C41.4449 16.6198 41.667 17.532 41.667 18.4122H35.1599ZM35.7296 19.4317L32.0551 24.8021C33.3719 25.7031 35.0112 26.2267 36.0701 26.5404L37.9187 20.3013L39.7673 14.0623C39.5611 14.0012 39.3908 13.9472 39.2528 13.9007C39.1134 13.8537 39.0197 13.8187 38.9641 13.7966C38.9054 13.7733 38.9132 13.7739 38.9691 13.8016C38.999 13.8164 39.051 13.8431 39.1201 13.8827C39.1884 13.9217 39.2861 13.9806 39.4041 14.0613L35.7296 19.4317ZM37.9187 20.3013L36.0643 26.5387C36.4732 26.6602 36.681 26.76 36.7478 26.7961C36.8132 26.8315 36.6735 26.768 36.46 26.5423L41.1872 22.0706L45.9145 17.5989C44.1246 15.7068 41.8272 14.6747 39.773 14.064L37.9187 20.3013ZM41.1872 22.0706L36.5217 26.6066C36.22 26.2963 35.9948 25.9261 35.8609 25.5589C35.7344 25.2119 35.7296 24.9801 35.7296 24.9493H42.2368H48.7439C48.7439 22.4083 47.9583 19.7001 45.8528 17.5346L41.1872 22.0706ZM42.2368 24.9493H35.7296C35.7296 24.7934 35.765 24.45 35.9608 24.0403C36.1579 23.6278 36.4126 23.368 36.564 23.2475L40.6175 28.3379L44.671 33.4283C47.3262 31.3139 48.7439 28.2981 48.7439 24.9493H42.2368ZM40.6175 28.3379L36.576 23.2379C36.7961 23.0635 36.9545 23.0196 36.9332 23.0257C36.8951 23.0366 36.6773 23.0902 36.2094 23.0902V29.5973V36.1045C38.9922 36.1045 42.0743 35.4861 44.659 33.4378L40.6175 28.3379ZM47.489 28.2779L42.8877 32.8791L42.9397 32.9305L47.489 28.2779ZM46.1695 17.9923H52.6767L46.1695 11.4852V17.9923ZM46.1695 14.3639V20.8711L52.6767 14.3639H46.1695ZM46.7693 9.50601L42.168 4.90476L42.0572 5.01832L46.7693 9.50601ZM49.9179 9.47602L45.2002 13.9578L45.3167 14.0773L49.9179 9.47602ZM50.1278 14.3639L44.3077 11.4538L50.1278 20.8711V14.3639ZM50.4877 17.9923V11.4852L43.9805 17.9923H50.4877ZM50.6976 25.609L44.9682 28.6941L45.0768 28.8878L50.6976 25.609ZM52.3169 25.8789L54.1867 32.1116L54.5407 31.9943L52.3169 25.8789ZM54.416 26.0588L50.9672 31.5769L51.2258 31.7303L54.416 26.0588ZM54.1161 29.0276L57.9554 34.2814L58.0836 34.1853L54.1161 29.0276ZM51.6272 29.5973V23.0902C51.188 23.0902 51.0737 23.0355 51.1749 23.0678C51.3055 23.1095 51.6606 23.256 52.0382 23.6252L47.489 28.2779L42.9397 32.9305C45.5295 35.4628 48.8723 36.1045 51.6272 36.1045V29.5973ZM47.489 28.2779L52.0902 23.6766C52.4713 24.0578 52.6336 24.4281 52.6862 24.5897C52.7286 24.7198 52.6767 24.6374 52.6767 24.2296H46.1695H39.6624C39.6624 26.9781 40.3211 30.3125 42.8877 32.8791L47.489 28.2779ZM46.1695 24.2296H52.6767V17.9923H46.1695H39.6624V24.2296H46.1695ZM46.1695 17.9923V11.4852H45.3899V17.9923V24.4995H46.1695V17.9923ZM45.3899 17.9923V11.4852C45.5493 11.4852 46.8841 11.5056 48.2057 12.6912C49.6618 13.9975 49.8579 15.5761 49.8579 16.1631H43.3508H36.8436C36.8436 17.9697 37.3795 20.4629 39.5154 22.3788C41.5167 24.1742 43.871 24.4995 45.3899 24.4995V17.9923ZM43.3508 16.1631H49.8579C49.8579 16.7925 49.6421 18.3904 48.1658 19.693C46.8449 20.8585 45.5268 20.8711 45.3899 20.8711V14.3639V7.85676C43.8935 7.85676 41.5559 8.16919 39.5553 9.93441C37.3993 11.8367 36.8436 14.3343 36.8436 16.1631H43.3508ZM45.3899 14.3639V20.8711H46.1695V14.3639V7.85676H45.3899V14.3639ZM46.1695 14.3639H52.6767V11.1253H46.1695H39.6624V14.3639H46.1695ZM46.1695 11.1253H52.6767C52.6767 11.4556 52.6256 11.9348 52.4215 12.4857C52.2121 13.0513 51.8868 13.568 51.4814 13.9937L46.7693 9.50601L42.0572 5.01832C40.3442 6.81703 39.6624 9.04355 39.6624 11.1253H46.1695ZM46.7693 9.50601L51.3705 14.1073C50.9589 14.5189 50.44 14.868 49.8475 15.0984C49.2683 15.3236 48.7543 15.3834 48.3886 15.3834V8.87628V2.36913C46.2132 2.36913 43.9492 3.12362 42.168 4.90476L46.7693 9.50601ZM48.3886 8.87628V15.3834C48.03 15.3834 47.493 15.3265 46.875 15.0842C46.2368 14.8339 45.6614 14.4432 45.2002 13.9578L49.9179 9.47602L54.6356 4.99423C52.8282 3.09171 50.5008 2.36913 48.3886 2.36913V8.87628ZM49.9179 9.47602L45.3167 14.0773C44.7947 13.5553 44.4332 12.9495 44.2198 12.3541C44.0159 11.7852 43.9805 11.3231 43.9805 11.0653H50.4877H56.9948C56.9948 9.14157 56.4223 6.77791 54.5192 4.87477L49.9179 9.47602ZM50.4877 11.0653H43.9805V12.5347H50.4877H56.9948V11.0653H50.4877ZM50.4877 12.5347H43.9805C43.9805 12.6258 43.9579 12.1533 44.3077 11.4538L50.1278 14.3639L55.948 17.274C56.7775 15.6149 56.9948 13.923 56.9948 12.5347H50.4877ZM50.1278 14.3639V20.8711H52.9766V14.3639V7.85676H50.1278V14.3639ZM52.9766 14.3639V20.8711C52.8397 20.8711 51.5215 20.8585 50.2007 19.693C48.7244 18.3904 48.5086 16.7925 48.5086 16.1631H55.0157H61.5229C61.5229 14.3343 60.9672 11.8367 58.8112 9.93441C56.8106 8.16919 54.4729 7.85676 52.9766 7.85676V14.3639ZM55.0157 16.1631H48.5086C48.5086 15.5761 48.7046 13.9975 50.1608 12.6912C51.4824 11.5056 52.8172 11.4852 52.9766 11.4852V17.9923V24.4995C54.4954 24.4995 56.8498 24.1742 58.8511 22.3788C60.9869 20.4629 61.5229 17.9697 61.5229 16.1631H55.0157ZM52.9766 17.9923V11.4852H50.4877V17.9923V24.4995H52.9766V17.9923ZM50.4877 17.9923H43.9805V24.3196H50.4877H56.9948V17.9923H50.4877ZM50.4877 24.3196H43.9805C43.9805 25.1013 44.0167 26.9269 44.9682 28.6941L50.6976 25.609L56.4269 22.524C56.8212 23.2562 56.9315 23.8541 56.9628 24.0462C57.0006 24.2785 56.9948 24.3898 56.9948 24.3196H50.4877ZM50.6976 25.609L45.0768 28.8878C46.5797 31.4642 49.1722 32.476 51.3873 32.476V25.9689V19.4617C52.0346 19.4617 52.9783 19.5846 53.9849 20.1098C55.0355 20.6579 55.816 21.4691 56.3183 22.3303L50.6976 25.609ZM51.3873 25.9689V32.476C51.9362 32.476 53.0361 32.4568 54.1867 32.1116L52.3169 25.8789L50.4471 19.6462C50.6892 19.5736 50.8862 19.533 51.0155 19.5102C51.1482 19.4867 51.2489 19.4752 51.3078 19.4695C51.4185 19.4588 51.4547 19.4617 51.3873 19.4617V25.9689ZM52.3169 25.8789L54.5407 31.9943C53.8393 32.2494 53.3059 32.2661 53.1265 32.2661V25.759V19.2518C52.3074 19.2518 51.2343 19.3486 50.0931 19.7636L52.3169 25.8789ZM53.1265 25.759V32.2661C52.9457 32.2661 52.0358 32.2448 50.9672 31.5769L54.416 26.0588L57.8648 20.5408C56.1565 19.4731 54.3869 19.2518 53.1265 19.2518V25.759ZM54.416 26.0588L51.2258 31.7303C49.9728 31.0255 49.1865 29.9726 48.7786 29.0038C48.4148 28.1397 48.3886 27.4484 48.3886 27.1984H54.8958H61.4029C61.4029 25.724 60.9888 22.2901 57.6062 20.3874L54.416 26.0588ZM54.8958 27.1984H48.3886C48.3886 26.9327 48.4299 26.3874 48.7148 25.719C49.0179 25.0078 49.5132 24.3587 50.1486 23.8698L54.1161 29.0276L58.0836 34.1853C60.6001 32.2495 61.4029 29.4808 61.4029 27.1984H54.8958ZM54.1161 29.0276L50.2768 23.7738C50.9204 23.3034 51.4689 23.1537 51.652 23.1118C51.8427 23.0681 51.8616 23.0902 51.6272 23.0902V29.5973V36.1045C53.2077 36.1045 55.7476 35.8948 57.9554 34.2814L54.1161 29.0276ZM58.3949 28.2179L54.2116 33.2022L54.2645 33.2462L58.3949 28.2179ZM58.9047 20.8111L55.8708 15.0545L55.8384 15.0717L58.9047 20.8111ZM65.3819 20.0015L64.8339 26.4855L71.8149 19.0225L65.3819 20.0015ZM64.5122 18.1423L60.5335 23.2913L60.6849 23.4048L64.5122 18.1423ZM61.6635 17.7225L62.4706 24.1794L62.7943 24.1306L61.6635 17.7225ZM58.4549 17.6925L55.0061 23.2105L55.2647 23.3639L58.4549 17.6925ZM59.0246 14.7238L62.1291 20.4426L62.1848 20.412L59.0246 14.7238ZM67.8408 16.2231L62.8652 20.4168L62.8951 20.452L67.8408 16.2231ZM68.1407 27.7081L62.974 23.7524L62.9647 23.7645L68.1407 27.7081ZM64.5122 26.0289L60.9934 20.5552H60.9934L64.5122 26.0289ZM65.112 24.9493L58.8131 23.3163L58.7598 23.5377L65.112 24.9493ZM65.4118 22.5204L71.909 22.8813L60.8106 17.9191L65.4118 22.5204ZM65.022 22.7303L63.4438 16.4174L63.4438 16.4174L65.022 22.7303ZM61.7834 23.1801L64.5993 29.0464L64.6935 29.0003L61.7834 23.1801ZM63.0729 29.5973V23.0902C62.5592 23.0902 62.3079 23.0297 62.2444 23.011C62.1996 22.9978 62.3331 23.0318 62.5252 23.1897L58.3949 28.2179L54.2645 33.2462C56.9221 35.4291 60.135 36.1045 63.0729 36.1045V29.5973ZM58.3949 28.2179L62.5781 23.2336C62.6792 23.3184 62.8815 23.5289 63.0408 23.8731C63.1991 24.2151 63.2228 24.4899 63.2228 24.5895H56.7156H50.2085C50.2085 27.965 51.5983 31.0089 54.2116 33.2022L58.3949 28.2179ZM56.7156 24.5895H63.2228C63.2228 24.6416 63.2054 25.0638 62.8933 25.6025C62.571 26.1589 62.1603 26.4494 61.9709 26.5505L58.9047 20.8111L55.8384 15.0717C54.1897 15.9525 52.6845 17.2625 51.6324 19.0784C50.5906 20.8766 50.2085 22.7981 50.2085 24.5895H56.7156ZM58.9047 20.8111L61.9385 26.5677C61.8103 26.6353 61.917 26.5463 62.4406 26.4809C62.9573 26.4163 63.7359 26.3927 64.8339 26.4855L65.3819 20.0015L65.9298 13.5174C62.625 13.2382 58.9784 13.4167 55.8708 15.0545L58.9047 20.8111ZM65.3819 20.0015L71.8149 19.0225C71.5874 17.5275 70.9043 14.745 68.3396 12.8797L64.5122 18.1423L60.6849 23.4048C59.814 22.7714 59.3683 22.0379 59.1653 21.6039C58.9711 21.1888 58.9413 20.9311 58.9488 20.9804L65.3819 20.0015ZM64.5122 18.1423L68.491 12.9933C66.7808 11.6717 64.8079 11.1253 62.9229 11.1253V17.6325V24.1396C62.6342 24.1396 62.2437 24.0992 61.7976 23.9561C61.3436 23.8105 60.9121 23.5839 60.5335 23.2913L64.5122 18.1423ZM62.9229 17.6325V11.1253C62.1964 11.1253 61.3707 11.1664 60.5326 11.3143L61.6635 17.7225L62.7943 24.1306C62.7458 24.1391 62.7131 24.1434 62.6986 24.1451C62.6839 24.1468 62.6828 24.1466 62.6968 24.1456C62.7271 24.1434 62.8 24.1396 62.9229 24.1396V17.6325ZM61.6635 17.7225L60.8564 11.2656C60.3726 11.326 59.8855 11.4057 59.4004 11.5097L60.7639 17.8724L62.1273 24.2351C62.202 24.2191 62.3146 24.1989 62.4706 24.1794L61.6635 17.7225ZM60.7639 17.8724L59.4004 11.5097C59.5655 11.4743 59.6798 11.4621 59.7271 11.4579C59.7763 11.4536 59.7848 11.4552 59.7443 11.4552V17.9624V24.4695C60.4367 24.4695 61.2621 24.4205 62.1273 24.2351L60.7639 17.8724ZM59.7443 17.9624V11.4552C59.8324 11.4552 60.6383 11.4547 61.6451 12.021L58.4549 17.6925L55.2647 23.3639C56.9111 24.2901 58.5767 24.4695 59.7443 24.4695V17.9624ZM58.4549 17.6925L61.9036 12.1744C64.3631 13.7116 64.4822 16.1368 64.4822 16.523H57.9751H51.4679C51.4679 18.0686 51.9069 21.2735 55.0061 23.2105L58.4549 17.6925ZM57.9751 16.523H64.4822C64.4822 17.0559 64.3609 17.8754 63.8582 18.7372C63.3496 19.6091 62.669 20.1495 62.1291 20.4426L59.0246 14.7238L55.9201 9.00492C54.6805 9.67784 53.4752 10.708 52.6167 12.1797C51.7641 13.6412 51.4679 15.1704 51.4679 16.523H57.9751ZM59.0246 14.7238L62.1848 20.412C61.9388 20.5486 61.7476 20.619 61.6487 20.6511C61.5487 20.6836 61.5079 20.6882 61.5456 20.6815C61.5817 20.6751 61.6704 20.6618 61.8215 20.6505C61.9716 20.6392 62.167 20.6312 62.4131 20.6312V14.124V7.61687C60.5758 7.61687 58.0714 7.80939 55.8645 9.03548L59.0246 14.7238ZM62.4131 14.124V20.6312C63.0283 20.6312 63.2613 20.7214 63.2521 20.7179C63.2422 20.714 63.1829 20.6893 63.0981 20.6297C63.0118 20.5691 62.931 20.4947 62.8652 20.4168L67.8408 16.2231L72.8163 12.0294C70.0215 8.71357 66.0924 7.61687 62.4131 7.61687V14.124ZM67.8408 16.2231L62.8951 20.452C62.896 20.453 62.8969 20.4541 62.8983 20.4561C62.8997 20.4582 62.9031 20.4633 62.9083 20.4728C62.918 20.4905 62.9409 20.5361 62.9682 20.6217C63.024 20.7967 63.1029 21.1556 63.1029 21.7707H69.61H76.1172C76.1172 18.3424 75.2276 14.8491 72.7864 11.9942L67.8408 16.2231ZM69.61 21.7707H63.1029C63.1029 22.7376 63.0121 23.3536 62.9261 23.701C62.841 24.0446 62.7964 23.9843 62.974 23.7524L68.1407 27.7081L73.3074 31.6639C75.5661 28.7138 76.1172 25.0144 76.1172 21.7707H69.61ZM68.1407 27.7081L62.9647 23.7645C63.1309 23.5463 63.3204 23.369 63.5057 23.2369C63.6863 23.1081 63.8257 23.0484 63.8811 23.0278C63.9326 23.0085 63.9036 23.0259 63.7643 23.0472C63.6248 23.0686 63.3997 23.0902 63.0729 23.0902V29.5973V36.1045C66.4231 36.1045 70.5856 35.2362 73.3167 31.6517L68.1407 27.7081ZM61.0337 24.5895H54.5266C54.5266 26.7791 55.3706 29.348 57.7394 31.1015C59.7418 32.5838 61.9605 32.8059 63.3427 32.8059V26.2987V19.7916C63.3487 19.7916 63.3988 19.7918 63.4859 19.801C63.5725 19.8101 63.7118 19.8299 63.8915 19.8743C64.2425 19.9609 64.8383 20.1644 65.4826 20.6414C66.1647 21.1463 66.7403 21.8413 67.1114 22.6655C67.4659 23.4528 67.5409 24.1478 67.5409 24.5895H61.0337ZM63.3427 26.2987V32.8059C64.5049 32.8059 66.2989 32.616 68.031 31.5025L64.5122 26.0289L60.9934 20.5552C62.1658 19.8015 63.1801 19.7916 63.3427 19.7916V26.2987ZM64.5122 26.0289L68.031 31.5025C70.4576 29.9426 71.2049 27.5274 71.4642 26.3609L65.112 24.9493L58.7598 23.5377C58.7924 23.3912 58.8955 22.9829 59.1838 22.4639C59.4833 21.9248 60.0407 21.1677 60.9934 20.5552L64.5122 26.0289ZM65.112 24.9493L71.4109 26.5824C71.7171 25.401 71.8429 24.0699 71.909 22.8813L65.4118 22.5204L58.9147 22.1594C58.8904 22.597 58.8612 22.9179 58.8338 23.14C58.8042 23.3793 58.7875 23.4151 58.8131 23.3163L65.112 24.9493ZM65.4118 22.5204L60.8106 17.9191C61.6746 17.0551 62.6522 16.6153 63.4438 16.4174L65.022 22.7303L66.6002 29.0431C67.7116 28.7653 68.9491 28.1856 70.0131 27.1216L65.4118 22.5204ZM65.022 22.7303L63.4438 16.4174C63.7841 16.3324 64.1539 16.2831 64.5422 16.2831V22.7903V29.2974C65.2504 29.2974 65.9401 29.2082 66.6002 29.0431L65.022 22.7303ZM64.5422 22.7903V16.2831C63.1845 16.2831 60.8837 16.3548 58.8733 17.3599L61.7834 23.1801L64.6935 29.0003C64.5144 29.0898 64.3592 29.1534 64.2386 29.1976C64.1176 29.242 64.019 29.2715 63.9493 29.2904C63.8154 29.3267 63.7484 29.3344 63.7734 29.3309C63.7945 29.3279 63.868 29.3188 64.0046 29.3108C64.1394 29.303 64.3169 29.2974 64.5422 29.2974V22.7903ZM61.7834 23.1801L58.9676 17.3138C57.5225 18.0074 56.2814 19.1428 55.4762 20.6565C54.7181 22.0818 54.5266 23.4978 54.5266 24.5895H61.0337H67.5409C67.5409 24.9814 67.4743 25.8128 66.9661 26.7682C66.4108 27.8122 65.5445 28.5927 64.5993 29.0464L61.7834 23.1801ZM73.1255 29.0875L68.9112 34.0456H68.9112L73.1255 29.0875ZM73.0056 7.13703L67.948 3.04274L67.8296 3.19342L73.0056 7.13703ZM76.3342 7.13703L71.1582 11.0806L71.2765 11.2313L76.3342 7.13703ZM76.8439 27.5882H70.3368C70.3368 27.1805 70.4579 25.6976 71.8197 24.3942C73.1283 23.1416 74.511 23.0902 74.7448 23.0902V29.5973V36.1045C76.3781 36.1045 78.8103 35.7181 80.8186 33.7959C82.8801 31.8228 83.3511 29.3353 83.3511 27.5882H76.8439ZM74.7448 29.5973V23.0902C75.1445 23.0902 76.2519 23.2047 77.3399 24.1295L73.1255 29.0875L68.9112 34.0456C70.7988 35.6501 72.9858 36.1045 74.7448 36.1045V29.5973ZM73.1255 29.0875L77.3399 24.1295C77.9682 24.6635 78.4347 25.3342 78.7175 26.0411C78.9858 26.7118 79.0329 27.2714 79.0329 27.5882H72.5258H66.0187C66.0187 29.6253 66.6954 32.1622 68.9112 34.0456L73.1255 29.0875ZM72.5258 27.5882H79.0329V8.84629H72.5258L66.0187 8.84629V27.5882H72.5258ZM72.5258 8.84629H79.0329C79.0329 9.04008 78.9909 10.0184 78.1816 11.0806L73.0056 7.13703L67.8296 3.19342C66.3806 5.09527 66.0187 7.21313 66.0187 8.84629L72.5258 8.84629ZM73.0056 7.13703L78.0632 11.2313C76.6931 12.9238 74.9645 13.0145 74.6849 13.0145V6.50731V0.000160217C72.8459 0.000160217 69.9978 0.51062 67.948 3.04274L73.0056 7.13703ZM74.6849 6.50731V13.0145C74.4417 13.0145 72.5728 12.9374 71.1582 11.0806L76.3342 7.13703L81.5101 3.19342C79.4557 0.497023 76.4874 0.000160217 74.6849 0.000160217V6.50731ZM76.3342 7.13703L71.2765 11.2313C70.4075 10.1578 70.3368 9.12026 70.3368 8.84629H76.8439H83.3511C83.3511 7.13295 82.9405 4.95587 81.3918 3.04275L76.3342 7.13703ZM76.8439 8.84629H70.3368V27.5882H76.8439H83.3511V8.84629H76.8439ZM81.3544 29.0875L77.1401 34.0456V34.0456L81.3544 29.0875ZM81.2345 7.13703L76.1768 3.04274L76.0585 3.19342L81.2345 7.13703ZM84.563 7.13703L79.387 11.0806L79.5054 11.2313L84.563 7.13703ZM85.0728 27.5882H78.5656C78.5656 27.1805 78.6868 25.6976 80.0486 24.3942C81.3572 23.1416 82.7399 23.0902 82.9737 23.0902V29.5973V36.1045C84.6069 36.1045 87.0391 35.7181 89.0474 33.7959C91.1089 31.8228 91.5799 29.3353 91.5799 27.5882H85.0728ZM82.9737 29.5973V23.0902C83.3734 23.0902 84.4808 23.2047 85.5687 24.1295L81.3544 29.0875L77.1401 34.0456C79.0277 35.6501 81.2146 36.1045 82.9737 36.1045V29.5973ZM81.3544 29.0875L85.5687 24.1295C86.197 24.6635 86.6636 25.3342 86.9463 26.0411C87.2146 26.7118 87.2618 27.2714 87.2618 27.5882H80.7547H74.2475C74.2475 29.6253 74.9243 32.1622 77.1401 34.0456L81.3544 29.0875ZM80.7547 27.5882H87.2618V8.84629H80.7547H74.2475V27.5882H80.7547ZM80.7547 8.84629H87.2618C87.2618 9.04008 87.2197 10.0184 86.4104 11.0806L81.2345 7.13703L76.0585 3.19342C74.6094 5.09527 74.2475 7.21313 74.2475 8.84629H80.7547ZM81.2345 7.13703L86.2921 11.2313C84.922 12.9238 83.1933 13.0145 82.9137 13.0145V6.50731V0.000160217C81.0748 0.000160217 78.2266 0.51062 76.1768 3.04274L81.2345 7.13703ZM82.9137 6.50731V13.0145C82.6706 13.0145 80.8017 12.9374 79.387 11.0806L84.563 7.13703L89.739 3.19342C87.6846 0.497023 84.7162 0.000160217 82.9137 0.000160217V6.50731ZM84.563 7.13703L79.5054 11.2313C78.6364 10.1578 78.5656 9.12026 78.5656 8.84629H85.0728H91.5799C91.5799 7.13295 91.1694 4.95587 89.6207 3.04275L84.563 7.13703ZM85.0728 8.84629H78.5656V27.5882H85.0728H91.5799V8.84629H85.0728ZM89.2234 10.8254L93.7298 6.13126V6.13126L89.2234 10.8254ZM89.2234 7.22699L93.7298 11.9212V11.9212L89.2234 7.22699ZM92.9418 7.22699L88.3406 11.8282L88.4354 11.9212L92.9418 7.22699ZM92.9418 10.8254L88.4354 6.13126L88.3406 6.22419L92.9418 10.8254ZM89.5233 29.1175L85.3089 34.0756L85.4583 34.1988L89.5233 29.1175ZM89.4033 14.6638L84.6726 10.1958L84.5398 10.3407L89.4033 14.6638ZM92.7319 14.6638L87.8684 18.9869L88.0011 19.1317L92.7319 14.6638ZM91.0826 11.5451V5.03798C91.4256 5.03798 91.8927 5.09579 92.4121 5.29685C92.9393 5.50092 93.3855 5.80073 93.7298 6.13126L89.2234 10.8254L84.717 15.5196C86.516 17.2466 88.7882 18.0523 91.0826 18.0523V11.5451ZM89.2234 10.8254L93.7298 6.13126C94.0634 6.45146 94.4064 6.90336 94.6526 7.48453C94.8983 8.06431 94.9809 8.61497 94.9809 9.0562H88.4737H81.9666C81.9666 11.5078 82.9247 13.799 84.717 15.5196L89.2234 10.8254ZM88.4737 9.0562H94.9809C94.9809 9.42928 94.9153 9.94322 94.6823 10.5118C94.4455 11.0895 94.1002 11.5656 93.7298 11.9212L89.2234 7.22699L84.717 2.53282C82.8457 4.32927 81.9666 6.67833 81.9666 9.0562H88.4737ZM89.2234 7.22699L93.7298 11.9212C93.3855 12.2517 92.9393 12.5515 92.4121 12.7556C91.8927 12.9566 91.4256 13.0145 91.0826 13.0145V6.50731V0.000160217C88.7882 0.000160217 86.516 0.805836 84.717 2.53282L89.2234 7.22699ZM91.0826 6.50731V13.0145C90.7729 13.0145 90.3067 12.9641 89.7681 12.7556C89.2152 12.5416 88.7273 12.2149 88.3406 11.8282L92.9418 7.22699L97.5431 2.62575C95.6922 0.77486 93.3425 0.000160217 91.0826 0.000160217V6.50731ZM92.9418 7.22699L88.4354 11.9212C88.065 11.5656 87.7197 11.0895 87.483 10.5118C87.2499 9.94322 87.1843 9.42928 87.1843 9.0562H93.6915H100.199C100.199 6.67833 99.3195 4.32927 97.4482 2.53282L92.9418 7.22699ZM93.6915 9.0562H87.1843C87.1843 8.61497 87.2669 8.06431 87.5126 7.48453C87.7589 6.90336 88.1019 6.45146 88.4354 6.13126L92.9418 10.8254L97.4482 15.5196C99.2405 13.799 100.199 11.5078 100.199 9.0562H93.6915ZM92.9418 10.8254L88.3406 6.22419C88.7273 5.83749 89.2152 5.51086 89.7681 5.29685C90.3067 5.08835 90.7729 5.03798 91.0826 5.03798V11.5451V18.0523C93.3425 18.0523 95.6922 17.2776 97.5431 15.4267L92.9418 10.8254ZM93.2417 27.5882H86.7345C86.7345 27.1805 86.8557 25.6976 88.2175 24.3942C89.5261 23.1416 90.9088 23.0902 91.1426 23.0902V29.5973V36.1045C92.7758 36.1045 95.208 35.7181 97.2163 33.7959C99.2778 31.8228 99.7488 29.3353 99.7488 27.5882H93.2417ZM91.1426 29.5973V23.0902C91.4554 23.0902 92.5052 23.1699 93.5883 24.0363L89.5233 29.1175L85.4583 34.1988C87.341 35.7049 89.4704 36.1045 91.1426 36.1045V29.5973ZM89.5233 29.1175L93.7376 24.1595C94.392 24.7157 94.857 25.4048 95.1315 26.1046C95.3904 26.7649 95.4307 27.3044 95.4307 27.5882H88.9235H82.4164C82.4164 29.5727 83.0498 32.1553 85.3089 34.0756L89.5233 29.1175ZM88.9235 27.5882H95.4307V16.1631H88.9235H82.4164V27.5882H88.9235ZM88.9235 16.1631H95.4307C95.4307 16.5846 95.313 17.81 94.2668 18.9869L89.4033 14.6638L84.5398 10.3407C82.854 12.2372 82.4164 14.4623 82.4164 16.1631H88.9235ZM89.4033 14.6638L94.1341 19.1317C92.6923 20.6584 91.0869 20.6312 91.0826 20.6312V14.124V7.61687C89.519 7.61687 86.7941 7.94948 84.6726 10.1958L89.4033 14.6638ZM91.0826 14.124V20.6312C91.0079 20.6312 90.6168 20.627 90.0557 20.4433C89.4569 20.2473 88.6145 19.8262 87.8684 18.9869L92.7319 14.6638L97.5954 10.3407C95.4521 7.9295 92.5983 7.61687 91.0826 7.61687V14.124ZM92.7319 14.6638L88.0011 19.1317C86.8961 17.9617 86.7345 16.6818 86.7345 16.1631H93.2417H99.7488C99.7488 14.365 99.2474 12.0855 97.4627 10.1958L92.7319 14.6638ZM93.2417 16.1631H86.7345V27.5882H93.2417H99.7488V16.1631H93.2417ZM98.2774 15.8033L93.9157 10.9743L93.8768 11.0098L98.2774 15.8033ZM108.023 15.8033L103.623 20.5968L103.662 20.6323L108.023 15.8033ZM104.935 18.4721L99.952 22.6575L100.037 22.7571L104.935 18.4721ZM101.396 18.4721L106.293 22.7571L106.379 22.6575L101.396 18.4721ZM98.6072 29.5973V23.0902C98.8008 23.0902 100.156 23.129 101.456 24.3568C102.826 25.6505 102.955 27.1368 102.955 27.5582H96.4482H89.941C89.941 29.339 90.4305 31.8449 92.52 33.8183C94.5397 35.7258 96.9743 36.1045 98.6072 36.1045V29.5973ZM96.4482 27.5582H102.955V20.3613H96.4482H89.941V27.5582H96.4482ZM96.4482 20.3613H102.955C102.955 20.0913 102.997 20.0744 102.944 20.206C102.919 20.2695 102.88 20.3464 102.825 20.425C102.771 20.5034 102.717 20.5609 102.678 20.5968L98.2774 15.8033L93.8768 11.0098C91.097 13.5617 89.941 16.9383 89.941 20.3613H96.4482ZM98.2774 15.8033L102.639 20.6323C102.62 20.6492 102.595 20.6683 102.567 20.6844C102.54 20.7001 102.529 20.7028 102.543 20.6979C102.572 20.6881 102.754 20.6312 103.165 20.6312V14.124V7.61687C99.8887 7.61687 96.5901 8.55873 93.9157 10.9743L98.2774 15.8033ZM103.165 14.124V20.6312C103.577 20.6312 103.752 20.6883 103.768 20.6939C103.776 20.6966 103.756 20.6903 103.721 20.6692C103.684 20.6478 103.65 20.6219 103.623 20.5968L108.023 15.8033L112.424 11.0098C109.753 8.55763 106.438 7.61687 103.165 7.61687V14.124ZM108.023 15.8033L103.662 20.6323C103.625 20.5997 103.572 20.5442 103.517 20.4657C103.462 20.3869 103.42 20.308 103.392 20.2401C103.335 20.0989 103.375 20.1036 103.375 20.3613H109.882H116.39C116.39 16.9041 115.2 13.5168 112.385 10.9743L108.023 15.8033ZM109.882 20.3613H103.375V27.5582H109.882H116.39V20.3613H109.882ZM109.882 27.5582H103.375C103.375 27.1368 103.505 25.6505 104.875 24.3568C106.175 23.129 107.53 23.0902 107.723 23.0902V29.5973V36.1045C109.356 36.1045 111.791 35.7258 113.811 33.8183C115.9 31.8449 116.39 29.339 116.39 27.5582H109.882ZM107.723 29.5973V23.0902C107.917 23.0902 109.272 23.129 110.572 24.3568C111.942 25.6505 112.071 27.1368 112.071 27.5582H105.564H99.0571C99.0571 29.339 99.5465 31.8449 101.636 33.8183C103.656 35.7258 106.09 36.1045 107.723 36.1045V29.5973ZM105.564 27.5582H112.071V20.6012H105.564H99.0571V27.5582H105.564ZM105.564 20.6012H112.071C112.071 18.8143 111.686 16.3059 109.832 14.1871L104.935 18.4721L100.037 22.7571C99.5371 22.1854 99.2857 21.6115 99.1669 21.2099C99.109 21.0143 99.0824 20.86 99.0698 20.7612C99.0572 20.6625 99.0571 20.6063 99.0571 20.6012H105.564ZM104.935 18.4721L109.917 14.2868C108.052 12.0664 105.497 11.2153 103.165 11.2153V17.7225V24.2296C102.832 24.2296 102.282 24.1739 101.639 23.9013C100.969 23.6177 100.39 23.1785 99.952 22.6575L104.935 18.4721ZM103.165 17.7225V11.2153C100.834 11.2153 98.2786 12.0664 96.4135 14.2868L101.396 18.4721L106.379 22.6575C105.941 23.1785 105.361 23.6177 104.692 23.9013C104.049 24.1739 103.498 24.2296 103.165 24.2296V17.7225ZM101.396 18.4721L96.4989 14.1871C94.645 16.3059 94.2592 18.8143 94.2592 20.6012H100.766H107.273C107.273 20.6063 107.273 20.6625 107.261 20.7612C107.248 20.86 107.222 21.0143 107.164 21.2099C107.045 21.6115 106.793 22.1854 106.293 22.7571L101.396 18.4721ZM100.766 20.6012H94.2592V27.5582H100.766H107.273V20.6012H100.766ZM100.766 27.5582H94.2592C94.2592 27.1368 94.3888 25.6505 95.7586 24.3568C97.0586 23.129 98.4137 23.0902 98.6072 23.0902V29.5973V36.1045C100.24 36.1045 102.675 35.7258 104.695 33.8183C106.784 31.8449 107.273 29.339 107.273 27.5582H100.766ZM124.018 34.995L127.043 40.7564V40.7564L124.018 34.995ZM113.763 35.6547L116.923 29.9664L116.867 29.9359L113.763 35.6547ZM113.193 32.686L110.003 27.0145L109.744 27.1679L113.193 32.686ZM115.502 32.4761L116.866 26.1134L116.422 26.0343L115.502 32.4761ZM116.402 32.626L117.533 26.2179L117.209 26.1691L116.402 32.626ZM121.05 32.3561L118.939 26.2007L118.884 26.2199L121.05 32.3561ZM121.35 29.3874L125.287 24.2067L121.35 29.3874ZM114.303 15.9232L118.981 20.4458V20.4458L114.303 15.9232ZM123.269 14.9037L120.267 20.6769L129.556 16.5803L123.269 14.9037ZM128.067 12.8046L123.465 17.4058L123.701 17.6299L128.067 12.8046ZM128.097 15.9532L124.192 10.7475L124.192 10.7475L128.097 15.9532ZM125.128 16.493L123.929 10.0973L119.839 20.2835L125.128 16.493ZM125.818 24.8294L119.894 22.1367L119.844 22.2497L125.818 24.8294ZM123.689 27.0184L120.519 21.3353L121.484 33.1409L123.689 27.0184ZM125.788 28.6977L120.029 31.7284L120.129 31.9097L125.788 28.6977ZM121.44 18.6221L116.109 22.3537L116.192 22.4702L121.44 18.6221ZM126.417 31.1866H119.91C119.91 30.976 119.974 30.4816 120.312 29.9449C120.636 29.4298 120.986 29.2377 120.994 29.2336L124.018 34.995L127.043 40.7564C128.65 39.9126 130.199 38.6659 131.324 36.8814C132.461 35.0753 132.925 33.0965 132.925 31.1866H126.417ZM124.018 34.995L120.994 29.2336C120.746 29.3636 119.681 29.7473 117.151 29.7473V36.2544V42.7616C120.579 42.7616 124.092 42.3057 127.043 40.7564L124.018 34.995ZM117.151 36.2544V29.7473C116.905 29.7473 116.71 29.7392 116.56 29.728C116.409 29.7167 116.32 29.7033 116.284 29.6969C116.246 29.6903 116.287 29.6949 116.387 29.7273C116.486 29.7594 116.677 29.8298 116.923 29.9664L113.763 35.6547L110.603 41.343C112.81 42.5691 115.314 42.7616 117.151 42.7616V36.2544ZM113.763 35.6547L116.867 29.9359C117.407 30.2289 118.088 30.7694 118.596 31.6413C119.099 32.5031 119.22 33.3226 119.22 33.8555H112.713H106.206C106.206 35.208 106.502 36.7372 107.355 38.1988C108.213 39.6704 109.419 40.7006 110.658 41.3735L113.763 35.6547ZM112.713 33.8555H119.22C119.22 34.2416 119.101 36.6669 116.642 38.204L113.193 32.686L109.744 27.1679C106.645 29.1049 106.206 32.3098 106.206 33.8555H112.713ZM113.193 32.686L116.383 38.3575C115.377 38.9237 114.571 38.9232 114.483 38.9232V32.4161V25.909C113.315 25.909 111.649 26.0884 110.003 27.0145L113.193 32.686ZM114.483 32.4161V38.9232C114.576 38.9232 114.632 38.9257 114.655 38.927C114.666 38.9276 114.665 38.9278 114.654 38.9267C114.643 38.9257 114.619 38.9231 114.582 38.9178L115.502 32.4761L116.422 26.0343C115.742 25.9371 115.075 25.909 114.483 25.909V32.4161ZM115.502 32.4761L114.139 38.8388C114.624 38.9427 115.111 39.0224 115.595 39.0829L116.402 32.626L117.209 26.1691C117.053 26.1496 116.94 26.1294 116.866 26.1134L115.502 32.4761ZM116.402 32.626L115.271 39.0341C116.109 39.182 116.935 39.2231 117.661 39.2231V32.716V26.2088C117.538 26.2088 117.465 26.205 117.435 26.2029C117.421 26.2019 117.422 26.2016 117.437 26.2034C117.451 26.2051 117.484 26.2093 117.533 26.2179L116.402 32.626ZM117.661 32.716V39.2231C119.312 39.2231 121.409 39.1298 123.215 38.4923L121.05 32.3561L118.884 26.2199C118.984 26.1848 119.06 26.1629 119.107 26.1504C119.155 26.1378 119.182 26.1322 119.186 26.1314C119.191 26.1305 119.135 26.1415 119.006 26.1552C118.738 26.1837 118.303 26.2088 117.661 26.2088V32.716ZM121.05 32.3561L123.16 38.5115C124.495 38.0539 126.004 37.1709 127.132 35.5911C128.26 34.0112 128.606 32.2978 128.606 30.8868H122.099H115.592C115.592 30.2154 115.763 29.1167 116.542 28.0267C117.32 26.9366 118.304 26.4184 118.939 26.2007L121.05 32.3561ZM122.099 30.8868H128.606C128.606 28.2027 127.381 25.7983 125.287 24.2067L121.35 29.3874L117.412 34.5682C116.968 34.2303 116.465 33.703 116.092 32.9572C115.717 32.2087 115.592 31.4754 115.592 30.8868H122.099ZM121.35 29.3874L125.287 24.2067C123.433 22.7974 121.335 22.3105 119.46 22.3105V28.8177V35.3248C119.105 35.3248 118.267 35.2178 117.412 34.5682L121.35 29.3874ZM119.46 28.8177V22.3105C118.871 22.3105 118.63 22.2299 118.62 22.2264C118.62 22.2262 118.634 22.2311 118.659 22.2435C118.685 22.2559 118.72 22.2747 118.762 22.3016C118.85 22.3579 118.944 22.4342 119.032 22.5272C119.221 22.7282 119.242 22.8603 119.205 22.7417C119.159 22.5966 119.071 22.2067 119.071 21.4708H112.563H106.056C106.056 24.8241 106.835 28.5498 109.543 31.4347C112.324 34.3968 116.049 35.3248 119.46 35.3248V28.8177ZM112.563 21.4708H119.071C119.071 20.701 119.163 20.2992 119.207 20.1564C119.243 20.0417 119.211 20.2085 118.981 20.4458L114.303 15.9232L109.624 11.4006C106.821 14.3002 106.056 18.1109 106.056 21.4708H112.563ZM114.303 15.9232L118.981 20.4458C118.893 20.5366 118.801 20.6084 118.719 20.6595C118.639 20.7093 118.593 20.7247 118.601 20.7217C118.63 20.7117 118.889 20.6312 119.49 20.6312V14.124V7.61687C116.112 7.61687 112.415 8.5131 109.624 11.4006L114.303 15.9232ZM119.49 14.124V20.6312C120.313 20.6312 120.46 20.7776 120.267 20.6769L123.269 14.9037L126.271 9.13042C124.078 7.99016 121.707 7.61687 119.49 7.61687V14.124ZM123.269 14.9037L129.556 16.5803C129.584 16.4757 129.446 17.0994 128.699 17.7589C127.846 18.5112 126.885 18.712 126.327 18.712V12.2048V5.69769C124.21 5.69769 121.96 6.34824 120.088 8.00024C118.321 9.55928 117.433 11.5324 116.981 13.227L123.269 14.9037ZM126.327 12.2048V18.712C125.972 18.712 124.659 18.5993 123.465 17.4058L128.067 12.8046L132.668 8.20333C130.675 6.21022 128.202 5.69769 126.327 5.69769V12.2048ZM128.067 12.8046L123.701 17.6299C123.098 17.0839 122.685 16.4307 122.446 15.7941C122.221 15.193 122.189 14.7158 122.189 14.4839H128.696H135.204C135.204 12.5014 134.603 9.94281 132.432 7.9793L128.067 12.8046ZM128.696 14.4839H122.189C122.189 14.2102 122.227 13.6254 122.522 12.9019C122.84 12.1227 123.394 11.3462 124.192 10.7475L128.097 15.9532L132.001 21.1589C134.585 19.2213 135.204 16.4178 135.204 14.4839H128.696ZM128.097 15.9532L124.192 10.7475C124.9 10.2164 125.539 10.0239 125.832 9.95511C126.131 9.88505 126.274 9.89588 126.178 9.89588V16.403V22.9102C127.514 22.9102 129.898 22.7362 132.001 21.1589L128.097 15.9532ZM126.178 16.403V9.89588C125.46 9.89588 124.703 9.95211 123.929 10.0973L125.128 16.493L126.327 22.8887C126.193 22.9139 126.135 22.9102 126.178 22.9102V16.403ZM125.128 16.493L119.839 20.2835C119.728 20.1294 119.746 20.0828 119.793 20.2671C119.844 20.4626 119.91 20.8531 119.91 21.5008H126.417H132.925C132.925 18.5877 132.353 15.4032 130.417 12.7025L125.128 16.493ZM126.417 21.5008H119.91C119.91 21.8534 119.883 22.0727 119.863 22.1836C119.844 22.2934 119.837 22.2615 119.894 22.1367L125.818 24.8294L131.742 27.5221C132.644 25.5365 132.925 23.4329 132.925 21.5008H126.417ZM125.818 24.8294L119.844 22.2497C119.987 21.9185 120.174 21.6663 120.336 21.4995C120.488 21.3427 120.578 21.3023 120.519 21.3353L123.689 27.0184L126.858 32.7015C128.839 31.5966 130.718 29.8953 131.792 27.409L125.818 24.8294ZM123.689 27.0184L121.484 33.1409C121.433 33.1222 121.2 33.0307 120.898 32.7894C120.58 32.5346 120.265 32.176 120.029 31.7284L125.788 28.6977L131.546 25.667C130.22 23.1478 128.042 21.6696 125.893 20.8959L123.689 27.0184ZM125.788 28.6977L120.129 31.9097C120.049 31.7692 119.989 31.6177 119.952 31.4708C119.915 31.3266 119.91 31.2252 119.91 31.1866H126.417H132.925C132.925 29.2353 132.467 27.2835 131.447 25.4857L125.788 28.6977ZM116.882 21.4708H110.374C110.374 23.2747 110.652 25.7854 112.193 27.9994C114.032 30.6417 116.842 31.7264 119.49 31.7264V25.2192V18.7121C119.834 18.7121 120.449 18.7756 121.16 19.1161C121.903 19.4721 122.484 20.0037 122.875 20.5649C123.546 21.5293 123.389 22.1658 123.389 21.4708H116.882ZM119.49 25.2192V31.7264C122.138 31.7264 124.949 30.6417 126.788 27.9994C128.329 25.7854 128.606 23.2747 128.606 21.4708H122.099H115.592C115.592 22.1658 115.435 21.5293 116.106 20.5649C116.497 20.0037 117.078 19.4721 117.821 19.1161C118.532 18.7756 119.147 18.7121 119.49 18.7121V25.2192ZM122.099 21.4708H128.606C128.606 19.7069 128.359 17.0541 126.687 14.774L121.44 18.6221L116.192 22.4702C115.756 21.875 115.625 21.3823 115.595 21.2521C115.564 21.1166 115.592 21.1626 115.592 21.4708H122.099ZM121.44 18.6221L126.77 14.8905C124.878 12.1871 122.006 11.2153 119.49 11.2153V17.7225V24.2296C119.2 24.2296 118.613 24.18 117.911 23.8556C117.165 23.5116 116.543 22.9741 116.109 22.3537L121.44 18.6221ZM119.49 17.7225V11.2153C116.927 11.2153 114.162 12.226 112.294 14.774L117.541 18.6221L122.789 22.4702C122.383 23.0231 121.802 23.5249 121.085 23.8556C120.401 24.1716 119.816 24.2296 119.49 24.2296V17.7225ZM117.541 18.6221L112.294 14.774C110.622 17.0541 110.374 19.7069 110.374 21.4708H116.882H123.389C123.389 21.1626 123.417 21.1166 123.386 21.2521C123.356 21.3823 123.225 21.875 122.789 22.4702L117.541 18.6221Z" fill="var(--preview-graphic-fill, #FADE26)" mask="url(#path-1-outside-1_929_95214)"/>
</svg>