<svg width="137" height="78" viewBox="0 0 137 78" fill="none" xmlns="http://www.w3.org/2000/svg">
<rect x="7.02832" y="53.5488" width="17" height="11" fill="var(--preview-graphic-fill, #FADE26)"/>
<rect x="89.1056" y="8.75391" width="6.65054" height="5.39926" fill="var(--preview-graphic-fill, #FADE26)"/>
<rect x="120.121" y="20.8677" width="2.59834" height="4.06529" fill="var(--preview-graphic-fill, #FADE26)"/>
<rect x="77.9873" y="21.667" width="3.02554" height="6.53203" fill="var(--preview-graphic-fill, #FADE26)"/>
<path d="M28.7295 25.6891L115.183 27.5476L116.99 43.7478L31.4417 53.2913L28.7295 25.6891Z" fill="var(--preview-graphic-fill, #FADE26)"/>
<mask id="path-6-outside-1_859_8996" maskUnits="userSpaceOnUse" x="26.7744" y="-0.671167" width="112.717" height="54.2491" fill="black">
<rect fill="white" x="26.7744" y="-0.671167" width="112.717" height="54.2491"/>
<path d="M40.6968 36.801C40.8252 38.1342 40.1929 38.868 38.8 39.0021C38.1234 39.0673 37.5699 38.9499 37.1393 38.65C36.7087 38.35 36.4618 37.8717 36.3985 37.215L34.6014 18.5595C34.5324 17.8431 34.6369 17.2607 34.9151 16.8121C35.2131 16.3617 35.7502 16.099 36.5262 16.0243C37.3023 15.9495 37.8697 16.1057 38.2283 16.493C38.6068 16.8782 38.8306 17.4291 38.8996 18.1455L40.6968 36.801ZM50.6943 37.8563C48.5651 38.0614 46.8251 37.6165 45.4744 36.5215C44.1238 35.4265 43.3181 33.5258 43.0574 30.8195C42.7947 28.0934 43.2228 26.0739 44.3415 24.761C45.4583 23.4283 47.0814 22.6594 49.2106 22.4543C51.3398 22.2492 53.0798 22.6942 54.4304 23.7892C55.7792 24.8643 56.5849 26.7649 56.8475 29.4911C57.1082 32.1974 56.6802 34.2169 55.5634 35.5496C54.4465 36.8823 52.8235 37.6512 50.6943 37.8563ZM50.3492 34.2745C50.9064 34.2208 51.3635 34.0663 51.7205 33.811C52.0756 33.5358 52.3239 33.0901 52.4654 32.4739C52.6267 31.8559 52.6547 30.9996 52.5493 29.9052C52.4439 28.8107 52.2529 27.9755 51.9765 27.3996C51.72 26.8218 51.3922 26.4417 50.993 26.2592C50.5919 26.0569 50.1128 25.9825 49.5556 26.0362C49.0184 26.0879 48.5622 26.2524 48.1872 26.5295C47.8302 26.7848 47.5711 27.2215 47.4097 27.8396C47.2682 28.4557 47.2502 29.311 47.3556 30.4055C47.461 31.4999 47.642 32.3361 47.8985 32.9139C48.1749 33.4898 48.5136 33.8789 48.9147 34.0813C49.3338 34.2618 49.812 34.3262 50.3492 34.2745ZM65.7463 36.4063C63.7564 36.598 62.1601 36.2899 60.9576 35.4818C59.7531 34.6539 59.08 33.5037 58.9381 32.0312C58.7714 30.2999 59.3769 28.9763 60.7548 28.0603C62.1526 27.1424 64.2758 26.6667 67.1245 26.6333C66.897 25.7313 66.5491 25.1423 66.0806 24.866C65.6102 24.5699 65.0666 24.4516 64.4497 24.511C63.9523 24.5589 63.5373 24.629 63.2047 24.7213C62.8902 24.7918 62.5965 24.8703 62.3236 24.9568C62.0508 25.0434 61.7154 25.1058 61.3174 25.1441C60.7801 25.1959 60.3437 25.1476 60.008 24.9992C59.6705 24.8308 59.4739 24.4581 59.4183 23.8811C59.3397 23.0652 59.6304 22.4347 60.2905 21.9895C60.9685 21.5225 62.0736 21.2152 63.6059 21.0676C66.0336 20.8337 67.9016 21.3567 69.2098 22.6366C70.5161 23.8965 71.2805 25.6806 71.5028 27.9889C71.7597 30.6554 71.462 32.6724 70.6096 34.0399C69.7752 35.3856 68.1541 36.1744 65.7463 36.4063ZM63.2364 31.6171C63.3456 32.7514 64.1664 33.2447 65.6986 33.0971C66.1961 33.0492 66.5755 32.9222 66.8369 32.7163C67.0982 32.5104 67.2627 32.133 67.3303 31.5842C67.4179 31.0335 67.4397 30.218 67.3959 29.1377C67.306 29.2468 67.1833 29.3289 67.028 29.384C66.8726 29.4392 66.7153 29.4744 66.5562 29.4897C65.2428 29.6163 64.3399 29.8338 63.8474 30.1423C63.373 30.429 63.1693 30.9206 63.2364 31.6171ZM81.4218 34.8963C79.2329 35.1071 77.4346 34.5774 76.0268 33.3072C74.639 32.035 73.8157 30.0557 73.5569 27.3693C73.3844 25.5784 73.506 24.1307 73.9218 23.0262C74.3376 21.9217 74.9821 21.1064 75.8552 20.5805C76.7464 20.0327 77.779 19.7022 78.9531 19.5891C80.0078 19.4875 80.8759 19.5345 81.5575 19.7299C82.2391 19.9253 82.7986 20.3133 83.2361 20.8937C83.0566 20.4893 82.9098 20.1118 82.7957 19.7612C82.6995 19.3889 82.6076 18.9559 82.5199 18.4623C82.4521 17.9667 82.3808 17.3309 82.306 16.5548L82.0587 13.9878C81.9092 12.4357 82.5011 11.5954 83.8343 11.467C85.287 11.327 86.088 12.0331 86.2376 13.5853L87.4539 26.2113C87.7127 28.8977 87.3093 30.9651 86.2438 32.4133C85.1783 33.8616 83.5709 34.6892 81.4218 34.8963ZM80.8678 31.3345C81.7036 31.254 82.3216 30.8932 82.7217 30.2522C83.1418 29.6092 83.2733 28.4718 83.1161 26.8401C83.0106 25.7456 82.8216 24.9303 82.5491 24.3943C82.2945 23.8363 81.9577 23.4671 81.5386 23.2866C81.1195 23.106 80.6314 23.0426 80.0742 23.0962C79.517 23.1499 79.05 23.3054 78.6731 23.5626C78.2962 23.8198 78.0261 24.2475 77.8628 24.8457C77.7175 25.422 77.6975 26.2574 77.803 27.3519C77.9602 28.9836 78.2964 30.076 78.8115 30.6288C79.3466 31.1798 80.0321 31.415 80.8678 31.3345ZM91.8668 15.7543C91.1305 15.8252 90.4907 15.6459 89.9472 15.2162C89.4037 14.7866 89.0984 14.2235 89.0313 13.527C88.9604 12.7907 89.1507 12.1599 89.6021 11.6343C90.0536 11.1088 90.6475 10.8106 91.3838 10.7397C92.1399 10.6669 92.7798 10.8462 93.3034 11.2778C93.8469 11.7075 94.1541 12.2904 94.225 13.0267C94.2921 13.7232 94.0999 14.3342 93.6484 14.8597C93.2169 15.3832 92.623 15.6815 91.8668 15.7543ZM95.5543 31.5164C95.6827 32.8497 95.0505 33.5834 93.6575 33.7176C92.9809 33.7827 92.4283 33.6753 91.9997 33.3953C91.5691 33.0953 91.3212 32.607 91.2561 31.9305L90.1605 20.5581C90.0992 19.9213 90.2104 19.4085 90.4943 19.0196C90.7981 18.6288 91.338 18.3961 92.1141 18.3213C92.8902 18.2465 93.4547 18.3729 93.8076 18.7004C94.1803 19.026 94.3974 19.5072 94.4588 20.144L95.5543 31.5164ZM101.088 33.0018C99.655 33.1398 98.8735 32.5322 98.7431 31.1791L98.053 24.0154C97.869 22.105 98.3302 20.5342 99.4368 19.3029C100.563 18.0697 102.131 17.3563 104.141 17.1627C106.151 16.9691 107.816 17.371 109.138 18.3684C110.479 19.3639 111.241 20.8169 111.425 22.7272L112.115 29.8909C112.246 31.2441 111.595 31.9896 110.162 32.1277C108.729 32.2657 107.948 31.6581 107.817 30.305L107.15 23.38C107.06 22.4448 106.783 21.7585 106.319 21.3212C105.853 20.8639 105.242 20.6717 104.486 20.7446C103.73 20.8174 103.167 21.1227 102.797 21.6604C102.425 22.1783 102.284 22.9048 102.374 23.8401L103.041 30.765C103.172 32.1182 102.521 32.8638 101.088 33.0018ZM128.922 31.9171C129.085 33.6085 128.411 34.9488 126.899 35.9379C125.388 36.9271 123.15 37.5644 120.185 37.8501C118.653 37.9977 117.509 37.907 116.754 37.578C116.022 37.267 115.616 36.7036 115.537 35.8877C115.482 35.3106 115.603 34.9073 115.903 34.6776C116.204 34.4678 116.623 34.3371 117.16 34.2853C117.558 34.247 117.898 34.2343 118.181 34.2472C118.465 34.2801 118.768 34.3011 119.091 34.3102C119.435 34.3373 119.855 34.3269 120.353 34.279C121.925 34.1276 123.038 33.8999 123.691 33.5959C124.365 33.29 124.666 32.7689 124.595 32.0327C124.536 31.4158 124.239 30.9423 123.705 30.6121C123.171 30.2819 122.526 30.1533 121.77 30.2261C117.193 30.667 114.67 28.4498 114.2 23.5745C113.961 21.0871 114.361 19.1908 115.4 17.8857C116.439 16.5806 118.103 15.8178 120.391 15.5973C121.903 15.4516 123.182 15.5896 124.227 16.0111C124.532 14.1741 125.46 13.1809 127.013 13.0314C127.769 12.9586 128.365 13.102 128.801 13.4616C129.256 13.7994 129.518 14.3365 129.589 15.0728C129.654 15.7493 129.502 16.256 129.133 16.5929C128.764 16.9297 128.141 17.1403 127.266 17.2246C126.888 17.261 126.542 17.3244 126.23 17.4148C127.2 18.5263 127.788 20.1467 127.993 22.2759C128.122 23.6092 128.029 24.7327 127.716 25.6466C127.422 26.5586 126.785 27.353 125.806 28.0298C126.836 28.2921 127.586 28.7822 128.057 29.5C128.546 30.196 128.834 31.0017 128.922 31.9171ZM118.499 23.1604C118.738 25.6479 119.724 26.8082 121.455 26.6414C123.186 26.4746 123.932 25.1475 123.692 22.6601C123.568 21.3667 123.258 20.4425 122.762 19.8877C122.287 19.331 121.612 19.0948 120.736 19.1792C119.88 19.2616 119.262 19.6224 118.882 20.2615C118.502 20.9007 118.374 21.867 118.499 23.1604Z"/>
</mask>
<path d="M40.6968 36.801C40.8252 38.1342 40.1929 38.868 38.8 39.0021C38.1234 39.0673 37.5699 38.9499 37.1393 38.65C36.7087 38.35 36.4618 37.8717 36.3985 37.215L34.6014 18.5595C34.5324 17.8431 34.6369 17.2607 34.9151 16.8121C35.2131 16.3617 35.7502 16.099 36.5262 16.0243C37.3023 15.9495 37.8697 16.1057 38.2283 16.493C38.6068 16.8782 38.8306 17.4291 38.8996 18.1455L40.6968 36.801ZM50.6943 37.8563C48.5651 38.0614 46.8251 37.6165 45.4744 36.5215C44.1238 35.4265 43.3181 33.5258 43.0574 30.8195C42.7947 28.0934 43.2228 26.0739 44.3415 24.761C45.4583 23.4283 47.0814 22.6594 49.2106 22.4543C51.3398 22.2492 53.0798 22.6942 54.4304 23.7892C55.7792 24.8643 56.5849 26.7649 56.8475 29.4911C57.1082 32.1974 56.6802 34.2169 55.5634 35.5496C54.4465 36.8823 52.8235 37.6512 50.6943 37.8563ZM50.3492 34.2745C50.9064 34.2208 51.3635 34.0663 51.7205 33.811C52.0756 33.5358 52.3239 33.0901 52.4654 32.4739C52.6267 31.8559 52.6547 30.9996 52.5493 29.9052C52.4439 28.8107 52.2529 27.9755 51.9765 27.3996C51.72 26.8218 51.3922 26.4417 50.993 26.2592C50.5919 26.0569 50.1128 25.9825 49.5556 26.0362C49.0184 26.0879 48.5622 26.2524 48.1872 26.5295C47.8302 26.7848 47.5711 27.2215 47.4097 27.8396C47.2682 28.4557 47.2502 29.311 47.3556 30.4055C47.461 31.4999 47.642 32.3361 47.8985 32.9139C48.1749 33.4898 48.5136 33.8789 48.9147 34.0813C49.3338 34.2618 49.812 34.3262 50.3492 34.2745ZM65.7463 36.4063C63.7564 36.598 62.1601 36.2899 60.9576 35.4818C59.7531 34.6539 59.08 33.5037 58.9381 32.0312C58.7714 30.2999 59.3769 28.9763 60.7548 28.0603C62.1526 27.1424 64.2758 26.6667 67.1245 26.6333C66.897 25.7313 66.5491 25.1423 66.0806 24.866C65.6102 24.5699 65.0666 24.4516 64.4497 24.511C63.9523 24.5589 63.5373 24.629 63.2047 24.7213C62.8902 24.7918 62.5965 24.8703 62.3236 24.9568C62.0508 25.0434 61.7154 25.1058 61.3174 25.1441C60.7801 25.1959 60.3437 25.1476 60.008 24.9992C59.6705 24.8308 59.4739 24.4581 59.4183 23.8811C59.3397 23.0652 59.6304 22.4347 60.2905 21.9895C60.9685 21.5225 62.0736 21.2152 63.6059 21.0676C66.0336 20.8337 67.9016 21.3567 69.2098 22.6366C70.5161 23.8965 71.2805 25.6806 71.5028 27.9889C71.7597 30.6554 71.462 32.6724 70.6096 34.0399C69.7752 35.3856 68.1541 36.1744 65.7463 36.4063ZM63.2364 31.6171C63.3456 32.7514 64.1664 33.2447 65.6986 33.0971C66.1961 33.0492 66.5755 32.9222 66.8369 32.7163C67.0982 32.5104 67.2627 32.133 67.3303 31.5842C67.4179 31.0335 67.4397 30.218 67.3959 29.1377C67.306 29.2468 67.1833 29.3289 67.028 29.384C66.8726 29.4392 66.7153 29.4744 66.5562 29.4897C65.2428 29.6163 64.3399 29.8338 63.8474 30.1423C63.373 30.429 63.1693 30.9206 63.2364 31.6171ZM81.4218 34.8963C79.2329 35.1071 77.4346 34.5774 76.0268 33.3072C74.639 32.035 73.8157 30.0557 73.5569 27.3693C73.3844 25.5784 73.506 24.1307 73.9218 23.0262C74.3376 21.9217 74.9821 21.1064 75.8552 20.5805C76.7464 20.0327 77.779 19.7022 78.9531 19.5891C80.0078 19.4875 80.8759 19.5345 81.5575 19.7299C82.2391 19.9253 82.7986 20.3133 83.2361 20.8937C83.0566 20.4893 82.9098 20.1118 82.7957 19.7612C82.6995 19.3889 82.6076 18.9559 82.5199 18.4623C82.4521 17.9667 82.3808 17.3309 82.306 16.5548L82.0587 13.9878C81.9092 12.4357 82.5011 11.5954 83.8343 11.467C85.287 11.327 86.088 12.0331 86.2376 13.5853L87.4539 26.2113C87.7127 28.8977 87.3093 30.9651 86.2438 32.4133C85.1783 33.8616 83.5709 34.6892 81.4218 34.8963ZM80.8678 31.3345C81.7036 31.254 82.3216 30.8932 82.7217 30.2522C83.1418 29.6092 83.2733 28.4718 83.1161 26.8401C83.0106 25.7456 82.8216 24.9303 82.5491 24.3943C82.2945 23.8363 81.9577 23.4671 81.5386 23.2866C81.1195 23.106 80.6314 23.0426 80.0742 23.0962C79.517 23.1499 79.05 23.3054 78.6731 23.5626C78.2962 23.8198 78.0261 24.2475 77.8628 24.8457C77.7175 25.422 77.6975 26.2574 77.803 27.3519C77.9602 28.9836 78.2964 30.076 78.8115 30.6288C79.3466 31.1798 80.0321 31.415 80.8678 31.3345ZM91.8668 15.7543C91.1305 15.8252 90.4907 15.6459 89.9472 15.2162C89.4037 14.7866 89.0984 14.2235 89.0313 13.527C88.9604 12.7907 89.1507 12.1599 89.6021 11.6343C90.0536 11.1088 90.6475 10.8106 91.3838 10.7397C92.1399 10.6669 92.7798 10.8462 93.3034 11.2778C93.8469 11.7075 94.1541 12.2904 94.225 13.0267C94.2921 13.7232 94.0999 14.3342 93.6484 14.8597C93.2169 15.3832 92.623 15.6815 91.8668 15.7543ZM95.5543 31.5164C95.6827 32.8497 95.0505 33.5834 93.6575 33.7176C92.9809 33.7827 92.4283 33.6753 91.9997 33.3953C91.5691 33.0953 91.3212 32.607 91.2561 31.9305L90.1605 20.5581C90.0992 19.9213 90.2104 19.4085 90.4943 19.0196C90.7981 18.6288 91.338 18.3961 92.1141 18.3213C92.8902 18.2465 93.4547 18.3729 93.8076 18.7004C94.1803 19.026 94.3974 19.5072 94.4588 20.144L95.5543 31.5164ZM101.088 33.0018C99.655 33.1398 98.8735 32.5322 98.7431 31.1791L98.053 24.0154C97.869 22.105 98.3302 20.5342 99.4368 19.3029C100.563 18.0697 102.131 17.3563 104.141 17.1627C106.151 16.9691 107.816 17.371 109.138 18.3684C110.479 19.3639 111.241 20.8169 111.425 22.7272L112.115 29.8909C112.246 31.2441 111.595 31.9896 110.162 32.1277C108.729 32.2657 107.948 31.6581 107.817 30.305L107.15 23.38C107.06 22.4448 106.783 21.7585 106.319 21.3212C105.853 20.8639 105.242 20.6717 104.486 20.7446C103.73 20.8174 103.167 21.1227 102.797 21.6604C102.425 22.1783 102.284 22.9048 102.374 23.8401L103.041 30.765C103.172 32.1182 102.521 32.8638 101.088 33.0018ZM128.922 31.9171C129.085 33.6085 128.411 34.9488 126.899 35.9379C125.388 36.9271 123.15 37.5644 120.185 37.8501C118.653 37.9977 117.509 37.907 116.754 37.578C116.022 37.267 115.616 36.7036 115.537 35.8877C115.482 35.3106 115.603 34.9073 115.903 34.6776C116.204 34.4678 116.623 34.3371 117.16 34.2853C117.558 34.247 117.898 34.2343 118.181 34.2472C118.465 34.2801 118.768 34.3011 119.091 34.3102C119.435 34.3373 119.855 34.3269 120.353 34.279C121.925 34.1276 123.038 33.8999 123.691 33.5959C124.365 33.29 124.666 32.7689 124.595 32.0327C124.536 31.4158 124.239 30.9423 123.705 30.6121C123.171 30.2819 122.526 30.1533 121.77 30.2261C117.193 30.667 114.67 28.4498 114.2 23.5745C113.961 21.0871 114.361 19.1908 115.4 17.8857C116.439 16.5806 118.103 15.8178 120.391 15.5973C121.903 15.4516 123.182 15.5896 124.227 16.0111C124.532 14.1741 125.46 13.1809 127.013 13.0314C127.769 12.9586 128.365 13.102 128.801 13.4616C129.256 13.7994 129.518 14.3365 129.589 15.0728C129.654 15.7493 129.502 16.256 129.133 16.5929C128.764 16.9297 128.141 17.1403 127.266 17.2246C126.888 17.261 126.542 17.3244 126.23 17.4148C127.2 18.5263 127.788 20.1467 127.993 22.2759C128.122 23.6092 128.029 24.7327 127.716 25.6466C127.422 26.5586 126.785 27.353 125.806 28.0298C126.836 28.2921 127.586 28.7822 128.057 29.5C128.546 30.196 128.834 31.0017 128.922 31.9171ZM118.499 23.1604C118.738 25.6479 119.724 26.8082 121.455 26.6414C123.186 26.4746 123.932 25.1475 123.692 22.6601C123.568 21.3667 123.258 20.4425 122.762 19.8877C122.287 19.331 121.612 19.0948 120.736 19.1792C119.88 19.2616 119.262 19.6224 118.882 20.2615C118.502 20.9007 118.374 21.867 118.499 23.1604Z" fill="var(--preview-graphic-text, #3F3833)"/>
<path d="M37.1393 38.65L33.4198 43.9893L33.4198 43.9893L37.1393 38.65ZM34.9151 16.8121L29.4881 13.2217L29.3848 13.383L34.9151 16.8121ZM38.2283 16.493L33.4543 20.9147L33.5866 21.0533L38.2283 16.493ZM40.6968 36.801L34.2196 37.4249C34.1805 37.0191 34.1589 35.5315 35.3895 34.1034C36.5719 32.7312 37.9433 32.5474 38.176 32.525L38.8 39.0021L39.424 45.4793C41.0497 45.3227 43.4336 44.7049 45.2483 42.599C47.1112 40.4372 47.3415 37.9161 47.1739 36.177L40.6968 36.801ZM38.8 39.0021L38.176 32.525C38.5738 32.4867 39.6871 32.4945 40.8588 33.3107L37.1393 38.65L33.4198 43.9893C35.4526 45.4054 37.673 45.648 39.424 45.4793L38.8 39.0021ZM37.1393 38.65L40.8588 33.3107C41.5354 33.782 42.0641 34.4048 42.4133 35.0814C42.7447 35.7233 42.8453 36.2757 42.8757 36.5911L36.3985 37.215L29.9214 37.839C30.1167 39.8667 31.0336 42.327 33.4198 43.9893L37.1393 38.65ZM36.3985 37.215L42.8757 36.5911L41.0786 17.9356L34.6014 18.5595L28.1242 19.1835L29.9214 37.839L36.3985 37.215ZM34.6014 18.5595L41.0786 17.9356C41.0971 18.1284 41.1491 19.1063 40.4454 20.2412L34.9151 16.8121L29.3848 13.383C28.1248 15.415 27.9676 17.5578 28.1242 19.1835L34.6014 18.5595ZM34.9151 16.8121L40.342 20.4026C39.1405 22.2186 37.4285 22.4746 37.1502 22.5014L36.5262 16.0243L35.9023 9.54711C34.0718 9.72345 31.2857 10.5047 29.4881 13.2217L34.9151 16.8121ZM36.5262 16.0243L37.1502 22.5014C36.9081 22.5248 35.0405 22.6273 33.4543 20.9147L38.2283 16.493L43.0023 12.0712C40.6988 9.58421 37.6965 9.37427 35.9023 9.54711L36.5262 16.0243ZM38.2283 16.493L33.5866 21.0533C32.6186 20.0681 32.4487 19.0421 32.4225 18.7694L38.8996 18.1455L45.3768 17.5215C45.2125 15.816 44.5951 13.6884 42.87 11.9326L38.2283 16.493ZM38.8996 18.1455L32.4225 18.7694L34.2196 37.4249L40.6968 36.801L47.1739 36.177L45.3768 17.5215L38.8996 18.1455ZM45.4744 36.5215L41.3766 41.5762V41.5762L45.4744 36.5215ZM44.3415 24.761L49.2943 28.9816L49.329 28.9406L44.3415 24.761ZM54.4304 23.7892L50.3326 28.8439L50.3745 28.8776L54.4304 23.7892ZM55.5634 35.5496L60.5508 39.7291L60.5508 39.7291L55.5634 35.5496ZM51.7205 33.811L55.5058 39.1039L55.7068 38.9542L51.7205 33.811ZM52.4654 32.4739L46.1693 30.83L46.1233 31.0176L52.4654 32.4739ZM51.9765 27.3996L46.0291 30.0398L46.1101 30.2153L51.9765 27.3996ZM50.993 26.2592L48.0618 32.0688L48.2877 32.1774L50.993 26.2592ZM48.1872 26.5295L51.9725 31.8224L52.0548 31.7626L48.1872 26.5295ZM47.4097 27.8396L41.1136 26.1956L41.0676 26.3833L47.4097 27.8396ZM47.8985 32.9139L41.951 35.5541L42.032 35.7295L47.8985 32.9139ZM48.9147 34.0813L45.9835 39.8908L46.34 40.0574L48.9147 34.0813ZM50.6943 37.8563L50.0703 31.3792C49.6159 31.4229 49.4203 31.3762 49.4046 31.3722C49.3974 31.3703 49.4208 31.3759 49.4624 31.3966C49.5047 31.4177 49.5433 31.4432 49.5723 31.4668L45.4744 36.5215L41.3766 41.5762C44.3453 43.983 47.9038 44.6624 51.3183 44.3335L50.6943 37.8563ZM45.4744 36.5215L49.5723 31.4668C49.8662 31.705 49.913 31.8879 49.8482 31.7351C49.7711 31.5531 49.6202 31.0853 49.5345 30.1956L43.0574 30.8195L36.5802 31.4435C36.9163 34.9328 38.0743 38.8991 41.3766 41.5762L45.4744 36.5215ZM43.0574 30.8195L49.5345 30.1956C49.4473 29.2904 49.507 28.7989 49.5472 28.6096C49.5806 28.4517 49.5636 28.6656 49.2943 28.9816L44.3415 24.761L39.3888 20.5405C36.6073 23.8045 36.245 27.9635 36.5802 31.4435L43.0574 30.8195ZM44.3415 24.761L49.329 28.9406C49.305 28.9692 49.2719 29.0016 49.2345 29.0304C49.1976 29.0587 49.1757 29.0686 49.1824 29.0654C49.197 29.0585 49.3801 28.9753 49.8345 28.9315L49.2106 22.4543L48.5866 15.9772C45.1722 16.3061 41.8088 17.6523 39.3541 20.5815L44.3415 24.761ZM49.2106 22.4543L49.8345 28.9315C50.289 28.8877 50.4846 28.9344 50.5003 28.9385C50.5075 28.9403 50.4841 28.9348 50.4425 28.914C50.4002 28.8929 50.3616 28.8674 50.3326 28.8439L54.4304 23.7892L58.5283 18.7344C55.5596 16.3277 52.001 15.6482 48.5866 15.9772L49.2106 22.4543ZM54.4304 23.7892L50.3745 28.8776C50.0498 28.6187 49.9922 28.412 50.0552 28.5606C50.1307 28.7388 50.2832 29.2099 50.3704 30.1151L56.8475 29.4911L63.3247 28.8671C62.9894 25.3871 61.8398 21.3738 58.4864 18.7007L54.4304 23.7892ZM56.8475 29.4911L50.3704 30.1151C50.4561 31.0048 50.3973 31.4928 50.3563 31.6862C50.3219 31.8485 50.3329 31.6601 50.5759 31.3701L55.5634 35.5496L60.5508 39.7291C63.2813 36.4708 63.6608 32.3564 63.3247 28.8671L56.8475 29.4911ZM55.5634 35.5496L50.5759 31.3701C50.5999 31.3415 50.633 31.309 50.6704 31.2803C50.7073 31.252 50.7292 31.242 50.7225 31.2452C50.7078 31.2522 50.5248 31.3354 50.0703 31.3792L50.6943 37.8563L51.3183 44.3335C54.7327 44.0046 58.0961 42.6583 60.5508 39.7291L55.5634 35.5496ZM50.3493 34.2745L50.9732 40.7516C52.3619 40.6178 53.9945 40.1847 55.5058 39.1039L51.7205 33.811L47.9352 28.5181C48.7325 27.9479 49.4509 27.8237 49.7253 27.7973L50.3493 34.2745ZM51.7205 33.811L55.7068 38.9542C57.651 37.4473 58.4646 35.4235 58.8075 33.9303L52.4654 32.4739L46.1233 31.0176C46.1832 30.7567 46.5002 29.6242 47.7342 28.6678L51.7205 33.811ZM52.4654 32.4739L58.7614 34.1179C59.2067 32.4127 59.1602 30.6695 59.0265 29.2812L52.5493 29.9052L46.0721 30.5291C46.1052 30.8719 46.1064 31.0719 46.1037 31.1557C46.1025 31.194 46.1011 31.1851 46.1073 31.1368C46.1133 31.0895 46.1295 30.9826 46.1693 30.83L52.4654 32.4739ZM52.5493 29.9052L59.0265 29.2812C58.8927 27.8929 58.6056 26.1729 57.843 24.584L51.9765 27.3996L46.1101 30.2153C46.0418 30.0731 46.0056 29.9712 45.9906 29.9259C45.9753 29.8797 45.975 29.8707 45.9835 29.908C46.0022 29.9898 46.0391 30.1863 46.0721 30.5291L52.5493 29.9052ZM51.9765 27.3996L57.924 24.7594C57.3029 23.3604 56.0657 21.4233 53.6983 20.3411L50.993 26.2592L48.2877 32.1774C46.7187 31.4601 46.1371 30.2833 46.0291 30.0398L51.9765 27.3996ZM50.993 26.2592L53.9242 20.4497C52.1836 19.5714 50.4128 19.4163 48.9317 19.559L49.5556 26.0362L50.1796 32.5133C49.8128 32.5487 49.0003 32.5423 48.0618 32.0688L50.993 26.2592ZM49.5556 26.0362L48.9317 19.559C47.4084 19.7058 45.7843 20.214 44.3197 21.2964L48.1872 26.5295L52.0548 31.7626C51.3402 32.2907 50.6284 32.4701 50.1796 32.5133L49.5556 26.0362ZM48.1872 26.5295L44.402 21.2366C42.3509 22.7034 41.4889 24.7585 41.1136 26.1956L47.4097 27.8396L53.7057 29.4835C53.6532 29.6846 53.3095 30.8662 51.9725 31.8224L48.1872 26.5295ZM47.4097 27.8396L41.0676 26.3833C40.6951 28.0053 40.7478 29.6732 40.8784 31.0294L47.3556 30.4055L53.8328 29.7815C53.7979 29.42 53.7933 29.1943 53.7957 29.0803C53.7969 29.0266 53.7992 29.0181 53.796 29.0478C53.7929 29.0762 53.7822 29.1633 53.7518 29.2959L47.4097 27.8396ZM47.3556 30.4055L40.8784 31.0294C41.0091 32.3857 41.2758 34.0329 41.951 35.5541L47.8985 32.9139L53.846 30.2737C53.9012 30.3981 53.9282 30.4814 53.9367 30.5088C53.9455 30.5373 53.9416 30.5294 53.9303 30.4769C53.9062 30.3655 53.8676 30.1431 53.8328 29.7815L47.3556 30.4055ZM47.8985 32.9139L42.032 35.7295C42.6746 37.0684 43.8584 38.8186 45.9835 39.8908L48.9147 34.0813L51.8459 28.2717C53.1689 28.9392 53.6751 29.9112 53.7649 30.0983L47.8985 32.9139ZM48.9147 34.0813L46.34 40.0574C47.9356 40.7448 49.5444 40.8893 50.9732 40.7516L50.3493 34.2745L49.7253 27.7973C50.0795 27.7632 50.732 27.7788 51.4895 28.1052L48.9147 34.0813ZM60.9576 35.4818L57.2715 40.8443L57.3284 40.883L60.9576 35.4818ZM60.7548 28.0603L57.1829 22.6211L57.1523 22.6413L60.7548 28.0603ZM67.1245 26.6333L67.2008 33.14L73.4341 25.042L67.1245 26.6333ZM66.0806 24.866L62.6139 30.3728L62.7756 30.4714L66.0806 24.866ZM63.2047 24.7213L64.6273 31.0711L64.9448 30.9915L63.2047 24.7213ZM60.008 24.9992L57.1042 30.8225L57.3763 30.9504L60.008 24.9992ZM60.2905 21.9895L63.9291 27.3843L63.9815 27.3485L60.2905 21.9895ZM69.2098 22.6366L64.6593 27.288L64.6925 27.3202L69.2098 22.6366ZM70.6096 34.0399L65.0874 30.5978L65.0793 30.6108L70.6096 34.0399ZM66.8368 32.7163L62.8094 27.6053L62.8094 27.6053L66.8368 32.7163ZM67.3303 31.5842L60.9039 30.5627L60.872 30.7882L67.3303 31.5842ZM67.3959 29.1377L73.8977 28.874L62.3746 24.9989L67.3959 29.1377ZM67.028 29.384L64.8517 23.2516L64.8517 23.2516L67.028 29.384ZM63.8474 30.1423L67.2128 35.7116L67.3022 35.6566L63.8474 30.1423ZM65.7463 36.4063L65.1223 29.9292C64.6111 29.9784 64.3551 29.9424 64.2901 29.9298C64.2442 29.9209 64.3803 29.942 64.5867 30.0807L60.9576 35.4818L57.3284 40.883C60.183 42.8011 63.4459 43.1652 66.3702 42.8835L65.7463 36.4063ZM60.9576 35.4818L64.6436 30.1194C64.7524 30.1941 64.9739 30.3842 65.1655 30.7115C65.3558 31.0368 65.4057 31.3081 65.4153 31.4072L58.9381 32.0312L52.461 32.6551C52.7846 36.015 54.46 38.9117 57.2715 40.8443L60.9576 35.4818ZM58.9381 32.0312L65.4153 31.4072C65.4203 31.4591 65.4435 31.881 65.1845 32.4472C64.917 33.0319 64.5361 33.3604 64.3573 33.4793L60.7548 28.0603L57.1523 22.6413C55.5956 23.6762 54.223 25.1245 53.3499 27.0329C52.4853 28.9227 52.2892 30.872 52.461 32.6551L58.9381 32.0312ZM60.7548 28.0603L64.3267 33.4995C64.2055 33.579 64.3032 33.4802 64.8181 33.3649C65.3263 33.251 66.0989 33.1529 67.2008 33.14L67.1245 26.6333L67.0482 20.1266C63.7318 20.1655 60.1192 20.6929 57.1829 22.6211L60.7548 28.0603ZM67.1245 26.6333L73.4341 25.042C73.0643 23.5757 72.1175 20.8715 69.3857 19.2607L66.0806 24.866L62.7756 30.4714C61.8479 29.9244 61.3339 29.237 61.0902 28.8245C60.8571 28.4298 60.8027 28.1762 60.8149 28.2246L67.1245 26.6333ZM66.0806 24.866L69.5473 19.3592C67.7183 18.2078 65.7021 17.8531 63.8258 18.0339L64.4497 24.511L65.0737 30.9882C64.7863 31.0159 64.3937 31.0131 63.936 30.9134C63.4701 30.812 63.0188 30.6278 62.6139 30.3728L66.0806 24.866ZM64.4497 24.511L63.8258 18.0339C63.1026 18.1035 62.2847 18.2236 61.4646 18.4512L63.2047 24.7213L64.9448 30.9915C64.8973 31.0047 64.8652 31.012 64.8509 31.0151C64.8365 31.0183 64.8353 31.0181 64.8492 31.0158C64.8792 31.0107 64.9514 31 65.0737 30.9882L64.4497 24.511ZM63.2047 24.7213L61.7822 18.3716C61.3065 18.4781 60.8293 18.6042 60.3564 18.7542L62.3236 24.9568L64.2909 31.1595C64.3637 31.1364 64.4738 31.1054 64.6273 31.0711L63.2047 24.7213ZM62.3236 24.9568L60.3564 18.7542C60.5173 18.7032 60.6299 18.68 60.6766 18.6713C60.7252 18.6623 60.7337 18.6631 60.6934 18.667L61.3174 25.1441L61.9414 31.6213C62.6306 31.5549 63.4474 31.427 64.2909 31.1595L62.3236 24.9568ZM61.3174 25.1441L60.6934 18.667C60.7811 18.6585 61.5833 18.5808 62.6397 19.0479L60.008 24.9992L57.3763 30.9504C59.104 31.7144 60.7791 31.7333 61.9414 31.6213L61.3174 25.1441ZM60.008 24.9992L62.9118 19.1758C65.5073 20.4701 65.8584 22.8727 65.8955 23.2571L59.4183 23.8811L52.9411 24.505C53.0893 26.0435 53.8336 29.1916 57.1042 30.8225L60.008 24.9992ZM59.4183 23.8811L65.8955 23.2571C65.9466 23.7875 65.9044 24.6149 65.4866 25.5209C65.064 26.4376 64.4383 27.0408 63.9291 27.3843L60.2905 21.9895L56.6519 16.5947C55.4826 17.3834 54.3815 18.5244 53.6682 20.0716C52.9597 21.6081 52.8114 23.1587 52.9411 24.505L59.4183 23.8811ZM60.2905 21.9895L63.9815 27.3485C63.7498 27.5081 63.5663 27.5965 63.4708 27.6379C63.3744 27.6798 63.3343 27.6883 63.3711 27.678C63.4064 27.6682 63.4935 27.6464 63.6428 27.6207C63.7911 27.5951 63.9848 27.5683 64.2299 27.5447L63.6059 21.0676L62.9819 14.5904C61.1531 14.7666 58.6787 15.1984 56.5995 16.6304L60.2905 21.9895ZM63.6059 21.0676L64.2299 27.5447C64.8422 27.4858 65.0827 27.5533 65.0733 27.5506C65.063 27.5477 65.0016 27.5288 64.9116 27.4777C64.8198 27.4256 64.7322 27.3593 64.6593 27.288L69.2098 22.6366L73.7603 17.9851C70.6604 14.9525 66.6443 14.2376 62.9819 14.5904L63.6059 21.0676ZM69.2098 22.6366L64.6925 27.3202C64.6934 27.3211 64.6944 27.3221 64.6959 27.324C64.6976 27.3259 64.7015 27.3307 64.7076 27.3397C64.7189 27.3563 64.7461 27.3995 64.7815 27.4821C64.8538 27.6509 64.9667 28.0006 65.0257 28.6129L71.5028 27.9889L77.98 27.365C77.6513 23.9525 76.4308 20.5605 73.7272 17.9529L69.2098 22.6366ZM71.5028 27.9889L65.0257 28.6129C65.1184 29.5753 65.0871 30.1972 65.0348 30.5512C64.9831 30.9015 64.9329 30.8457 65.0874 30.5978L70.6096 34.0399L76.1318 37.482C78.0972 34.3289 78.291 30.5937 77.98 27.365L71.5028 27.9889ZM70.6096 34.0399L65.0793 30.6108C65.2239 30.3776 65.3955 30.183 65.5673 30.0337C65.7347 29.8882 65.8677 29.8154 65.9208 29.7895C65.9703 29.7655 65.9431 29.7855 65.8065 29.8201C65.6697 29.8548 65.4476 29.8978 65.1223 29.9292L65.7463 36.4063L66.3702 42.8835C69.7051 42.5622 73.7651 41.2989 76.1399 37.469L70.6096 34.0399ZM63.2364 31.6171L56.7592 32.2411C56.9692 34.4206 58.0556 36.8967 60.5816 38.415C62.717 39.6985 64.9467 39.7068 66.3226 39.5742L65.6986 33.0971L65.0747 26.6199C65.0806 26.6193 65.1304 26.6147 65.2181 26.6155C65.3052 26.6163 65.4457 26.6227 65.6288 26.6496C65.9865 26.7021 66.5991 26.8476 67.2861 27.2606C68.0135 27.6978 68.6531 28.3344 69.1015 29.1192C69.5299 29.8688 69.6712 30.5535 69.7135 30.9931L63.2364 31.6171ZM65.6986 33.0971L66.3226 39.5742C67.4794 39.4628 69.2469 39.1018 70.8643 37.8273L66.8368 32.7163L62.8094 27.6053C63.9041 26.7426 64.9128 26.6355 65.0747 26.6199L65.6986 33.0971ZM66.8368 32.7163L70.8643 37.8273C73.1301 36.0419 73.6424 33.5662 73.7886 32.3802L67.3303 31.5842L60.872 30.7882C60.8904 30.6392 60.9539 30.2229 61.1911 29.6787C61.4376 29.1134 61.9198 28.3063 62.8094 27.6053L66.8368 32.7163ZM67.3303 31.5842L73.7568 32.6058C73.9484 31.4005 73.9459 30.0634 73.8977 28.874L67.3959 29.1377L60.8941 29.4014C60.9119 29.8394 60.9135 30.1615 60.9076 30.3852C60.9011 30.6263 60.8878 30.6635 60.9039 30.5627L67.3303 31.5842ZM67.3959 29.1377L62.3746 24.9989C63.1519 24.056 64.0828 23.5245 64.8517 23.2516L67.028 29.384L69.2042 35.5165C70.2839 35.1333 71.4601 34.4376 72.4172 33.2765L67.3959 29.1377ZM67.028 29.384L64.8517 23.2516C65.1823 23.1343 65.5457 23.0498 65.9322 23.0126L66.5562 29.4897L67.1801 35.9669C67.885 35.899 68.563 35.7441 69.2043 35.5165L67.028 29.384ZM66.5562 29.4897L65.9322 23.0126C64.5807 23.1428 62.2974 23.4347 60.3927 24.628L63.8474 30.1423L67.3022 35.6566C67.1325 35.763 66.9841 35.8411 66.8684 35.8967C66.7521 35.9525 66.6568 35.9913 66.5892 36.0168C66.4594 36.0657 66.3935 36.0798 66.418 36.0739C66.4388 36.0689 66.5111 36.0528 66.6463 36.0318C66.7797 36.0111 66.9558 35.9885 67.1801 35.9669L66.5562 29.4897ZM63.8474 30.1423L60.4821 24.573C59.1102 25.402 57.9836 26.6512 57.3273 28.2352C56.7093 29.7265 56.6545 31.1544 56.7592 32.2411L63.2364 31.6171L69.7135 30.9931C69.7511 31.3833 69.7646 32.2172 69.3503 33.2169C68.8977 34.3093 68.1102 35.1693 67.2128 35.7116L63.8474 30.1423ZM76.0268 33.3072L71.6298 38.1039L71.6675 38.1383L76.0268 33.3072ZM73.9218 23.0262L80.0117 25.3187V25.3187L73.9218 23.0262ZM75.8552 20.5805L79.2128 26.1545L79.2628 26.1241L75.8552 20.5805ZM81.5575 19.7299L83.351 13.4748L83.351 13.4748L81.5575 19.7299ZM83.2361 20.8937L78.0398 24.8104L89.1836 18.2535L83.2361 20.8937ZM82.7957 19.7612L76.4951 21.3878L76.6081 21.7754L82.7957 19.7612ZM82.5199 18.4623L76.0728 19.3446L76.1131 19.6008L82.5199 18.4623ZM86.2438 32.4133L91.4852 36.2695V36.2695L86.2438 32.4133ZM82.7217 30.2522L77.2741 26.6931L77.2018 26.8064L82.7217 30.2522ZM82.5491 24.3943L76.6291 27.0956L76.7486 27.3434L82.5491 24.3943ZM81.5386 23.2866L78.9638 29.2627L78.9639 29.2627L81.5386 23.2866ZM78.6731 23.5626L82.3413 28.9373L82.3413 28.9373L78.6731 23.5626ZM77.8628 24.8457L71.5854 23.1319L71.5531 23.2548L77.8628 24.8457ZM78.8115 30.6288L74.0509 35.0649L74.1435 35.1623L78.8115 30.6288ZM81.4218 34.8963L80.7979 28.4191C80.3908 28.4583 80.2454 28.4079 80.27 28.4151C80.28 28.4181 80.3076 28.4279 80.3414 28.4469C80.3751 28.4658 80.3906 28.4801 80.3861 28.4761L76.0268 33.3072L71.6675 38.1383C74.6525 40.8317 78.3572 41.7288 82.0458 41.3734L81.4218 34.8963ZM76.0268 33.3072L80.4239 28.5104C80.6467 28.7146 80.2049 28.5186 80.0341 26.7453L73.5569 27.3693L67.0797 27.9933C67.4265 31.5928 68.6313 35.3554 71.6298 38.1039L76.0268 33.3072ZM73.5569 27.3693L80.0341 26.7453C79.9768 26.1507 79.9815 25.741 80.003 25.4851C80.0247 25.2271 80.0574 25.1974 80.0117 25.3187L73.9218 23.0262L67.8319 20.7336C66.9306 23.1278 66.8574 25.6847 67.0797 27.9933L73.5569 27.3693ZM73.9218 23.0262L80.0117 25.3187C80.0146 25.3109 79.9679 25.4369 79.8216 25.6219C79.6684 25.8158 79.4595 26.0059 79.2128 26.1545L75.8552 20.5805L72.4977 15.0064C70.1781 16.4036 68.6782 18.4853 67.8319 20.7336L73.9218 23.0262ZM75.8552 20.5805L79.2628 26.1241C79.2456 26.1346 79.2462 26.1306 79.2813 26.1194C79.3191 26.1073 79.4118 26.0822 79.5771 26.0663L78.9531 19.5891L78.3291 13.112C76.295 13.3079 74.2857 13.9071 72.4477 15.0368L75.8552 20.5805ZM78.9531 19.5891L79.5771 26.0663C79.7092 26.0536 79.8142 26.0476 79.8941 26.0453C79.9742 26.043 80.0231 26.0447 80.044 26.0458C80.0651 26.0469 80.0508 26.0472 80.0059 26.0402C79.9612 26.0332 79.8779 26.0177 79.764 25.985L81.5575 19.7299L83.351 13.4748C81.597 12.9719 79.8331 12.9671 78.3291 13.112L78.9531 19.5891ZM81.5575 19.7299L79.764 25.985C79.45 25.895 79.1091 25.7427 78.7808 25.515C78.454 25.2885 78.2097 25.0359 78.0398 24.8104L83.2361 20.8937L88.4325 16.977C87.1676 15.2989 85.4269 14.07 83.351 13.4748L81.5575 19.7299ZM83.2361 20.8937L89.1836 18.2535C89.0775 18.0144 89.016 17.8479 88.9832 17.7471L82.7957 19.7612L76.6081 21.7754C76.8035 22.3757 77.0357 22.9641 77.2887 23.5339L83.2361 20.8937ZM82.7957 19.7612L89.0962 18.1347C89.052 17.9634 88.9935 17.6996 88.9267 17.3238L82.5199 18.4623L76.1131 19.6008C76.2218 20.2122 76.3471 20.8144 76.4951 21.3878L82.7957 19.7612ZM82.5199 18.4623L88.9669 17.5799C88.9155 17.2037 88.8537 16.6624 88.7832 15.9309L82.306 16.5548L75.8289 17.1788C75.9079 17.9993 75.9887 18.7297 76.0728 19.3446L82.5199 18.4623ZM82.306 16.5548L88.7832 15.9309L88.5359 13.3639L82.0587 13.9878L75.5816 14.6118L75.8289 17.1788L82.306 16.5548ZM82.0587 13.9878L88.5359 13.3639C88.5361 13.3655 88.6733 14.5737 87.7104 15.9406C86.6039 17.5117 85.0689 17.8853 84.4583 17.9441L83.8343 11.467L83.2104 4.9898C81.2665 5.17705 78.769 6.03505 77.0705 8.44635C75.5158 10.6536 75.4319 13.058 75.5816 14.6118L82.0587 13.9878ZM83.8343 11.467L84.4583 17.9441C84.0723 17.9813 82.6109 17.9975 81.2219 16.7731C79.9162 15.6222 79.7719 14.3287 79.7604 14.2092L86.2376 13.5853L92.7147 12.9613C92.5537 11.2896 91.9341 8.86704 89.8274 7.01005C87.6372 5.0796 85.049 4.81268 83.2104 4.9898L83.8343 11.467ZM86.2376 13.5853L79.7604 14.2092L80.9767 26.8353L87.4539 26.2113L93.931 25.5874L92.7147 12.9613L86.2376 13.5853ZM87.4539 26.2113L80.9767 26.8353C81.0619 27.7201 81.012 28.2573 80.9587 28.5305C80.9099 28.781 80.8754 28.7296 81.0024 28.5571L86.2438 32.4133L91.4852 36.2695C93.8784 33.0167 94.2686 29.0917 93.931 25.5874L87.4539 26.2113ZM86.2438 32.4133L81.0024 28.5571C81.0261 28.5248 81.0671 28.4775 81.1244 28.4288C81.1816 28.3801 81.2316 28.3497 81.2602 28.335C81.3181 28.3052 81.2067 28.3797 80.7979 28.4191L81.4218 34.8963L82.0458 41.3734C85.6338 41.0278 89.1042 39.5058 91.4852 36.2695L86.2438 32.4133ZM80.8678 31.3345L81.4918 37.8117C84.0857 37.5618 86.6403 36.2632 88.2417 33.6979L82.7217 30.2522L77.2018 26.8064C77.5284 26.2832 78.0233 25.7658 78.6773 25.384C79.3105 25.0144 79.8856 24.8919 80.2439 24.8574L80.8678 31.3345ZM82.7217 30.2522L88.1693 33.8112C89.1361 32.3314 89.47 30.7842 89.5995 29.6639C89.735 28.4915 89.6986 27.3103 89.5932 26.2161L83.1161 26.8401L76.6389 27.464C76.6633 27.7176 76.6718 27.9041 76.673 28.0317C76.6742 28.1617 76.6675 28.2021 76.6713 28.1699C76.6746 28.1413 76.6935 27.9887 76.7669 27.7517C76.8402 27.5151 76.9869 27.1328 77.2741 26.6931L82.7217 30.2522ZM83.1161 26.8401L89.5932 26.2161C89.4635 24.869 89.1804 23.0792 88.3495 21.4451L82.5491 24.3943L76.7486 27.3434C76.655 27.1593 76.6036 27.021 76.58 26.9519C76.5558 26.8811 76.5504 26.8523 76.5562 26.8773C76.5617 26.9011 76.5744 26.961 76.5902 27.0631C76.6058 27.1645 76.6228 27.297 76.6389 27.464L83.1161 26.8401ZM82.5491 24.3943L88.469 21.6929C87.7782 20.179 86.462 18.3224 84.1133 17.3105L81.5386 23.2866L78.9639 29.2627C77.4533 28.6119 76.8108 27.4937 76.6291 27.0956L82.5491 24.3943ZM81.5386 23.2866L84.1133 17.3105C82.4832 16.6081 80.8539 16.4839 79.4503 16.6191L80.0742 23.0962L80.6982 29.5734C80.4089 29.6013 79.7559 29.6039 78.9638 29.2627L81.5386 23.2866ZM80.0742 23.0962L79.4503 16.6191C78.0466 16.7543 76.471 17.1873 75.0049 18.1879L78.6731 23.5626L82.3413 28.9373C81.629 29.4235 80.9875 29.5455 80.6982 29.5734L80.0742 23.0962ZM78.6731 23.5626L75.0049 18.1879C72.9565 19.586 72.0094 21.5788 71.5854 23.1319L77.8628 24.8457L84.1402 26.5594C84.0428 26.9163 83.6359 28.0537 82.3413 28.9373L78.6731 23.5626ZM77.8628 24.8457L71.5531 23.2548C71.131 24.9292 71.1989 26.6585 71.3258 27.9759L77.803 27.3519L84.2801 26.7279C84.2631 26.5512 84.2533 26.4067 84.2482 26.2917C84.2431 26.1759 84.2432 26.1003 84.2441 26.0598C84.2451 26.0181 84.2467 26.0289 84.2403 26.0831C84.2342 26.1353 84.2172 26.2593 84.1725 26.4366L77.8628 24.8457ZM77.803 27.3519L71.3258 27.9759C71.4301 29.058 71.614 30.2051 71.9538 31.3091C72.2762 32.3567 72.8677 33.7952 74.0509 35.0649L78.8115 30.6288L83.5722 26.1927C83.9259 26.5723 84.1309 26.9157 84.2379 27.1223C84.3456 27.3306 84.3874 27.4649 84.3922 27.4808C84.3983 27.5005 84.3822 27.4516 84.3574 27.3149C84.3331 27.1805 84.3052 26.988 84.2801 26.7279L77.803 27.3519ZM78.8115 30.6288L74.1435 35.1623C76.1961 37.2758 78.898 38.0616 81.4918 37.8117L80.8678 31.3345L80.2439 24.8574C80.6048 24.8226 81.1745 24.8356 81.8392 25.0637C82.5217 25.298 83.0783 25.6821 83.4796 26.0954L78.8115 30.6288ZM89.9472 15.2162L93.9827 10.1116V10.1116L89.9472 15.2162ZM89.6021 11.6343L94.5379 15.8748V15.8748L89.6021 11.6343ZM93.3034 11.2778L89.1646 16.2991L89.2679 16.3825L93.3034 11.2778ZM93.6484 14.8597L88.7127 10.6192L88.6272 10.7208L93.6484 14.8597ZM91.9997 33.3953L88.2802 38.7346L88.4407 38.8429L91.9997 33.3953ZM90.4943 19.0196L85.3569 15.0259L85.2387 15.1828L90.4943 19.0196ZM93.8076 18.7004L89.381 23.47L89.527 23.6014L93.8076 18.7004ZM91.8668 15.7543L91.2429 9.27714C91.5842 9.24426 92.0547 9.25701 92.591 9.40734C93.1354 9.55992 93.6083 9.81556 93.9827 10.1116L89.9472 15.2162L85.9117 20.3209C87.8679 21.8674 90.2069 22.4515 92.4908 22.2315L91.8668 15.7543ZM89.9472 15.2162L93.9827 10.1116C94.3454 10.3983 94.7302 10.8152 95.031 11.3701C95.3311 11.9236 95.4662 12.4639 95.5085 12.9031L89.0313 13.527L82.5542 14.151C82.7892 16.5913 83.9626 18.7801 85.9117 20.3209L89.9472 15.2162ZM89.0313 13.527L95.5085 12.9031C95.5442 13.2744 95.5282 13.7923 95.3508 14.3806C95.1705 14.9783 94.8725 15.4853 94.5379 15.8748L89.6021 11.6343L84.6664 7.39392C82.976 9.36153 82.3261 11.7841 82.5542 14.151L89.0313 13.527ZM89.6021 11.6343L94.5379 15.8748C94.2269 16.2368 93.8114 16.578 93.3062 16.8317C92.8085 17.0816 92.3491 17.184 92.0077 17.2169L91.3837 10.7397L90.7598 4.26254C88.476 4.48255 86.2914 5.50239 84.6664 7.39392L89.6021 11.6343ZM91.3837 10.7397L92.0077 17.2169C91.6994 17.2466 91.2306 17.2411 90.6745 17.0852C90.1036 16.9252 89.5866 16.6469 89.1646 16.2991L93.3034 11.2778L97.4422 6.25654C95.4224 4.59167 93.0093 4.04584 90.7598 4.26254L91.3837 10.7397ZM93.3034 11.2778L89.2679 16.3825C88.8651 16.064 88.4758 15.6233 88.1847 15.0709C87.8982 14.5273 87.7836 14.022 87.7479 13.6507L94.225 13.0267L100.702 12.4027C100.474 10.0358 99.3739 7.78188 97.3389 6.17314L93.3034 11.2778ZM94.225 13.0267L87.7479 13.6507C87.7055 13.2115 87.7349 12.6554 87.9239 12.0547C88.1133 11.4526 88.4114 10.9699 88.7127 10.6192L93.6484 14.8597L98.5842 19.1001C100.203 17.2156 100.937 14.8431 100.702 12.4027L94.225 13.0267ZM93.6484 14.8597L88.6272 10.7208C88.975 10.2988 89.4294 9.92691 89.9592 9.66086C90.4754 9.40169 90.9345 9.30685 91.2429 9.27714L91.8668 15.7543L92.4908 22.2315C94.7402 22.0148 97.0048 21.0183 98.6697 18.9985L93.6484 14.8597ZM95.5543 31.5164L89.0771 32.1404C89.038 31.7346 89.0164 30.2469 90.247 28.8189C91.4294 27.4466 92.8008 27.2628 93.0336 27.2404L93.6575 33.7176L94.2815 40.1947C95.9072 40.0381 98.2911 39.4203 100.106 37.3144C101.969 35.1527 102.199 32.6315 102.031 30.8924L95.5543 31.5164ZM93.6575 33.7176L93.0336 27.2404C93.3449 27.2104 94.3976 27.1891 95.5587 27.9477L91.9997 33.3953L88.4407 38.8429C90.4591 40.1615 92.617 40.3551 94.2815 40.1947L93.6575 33.7176ZM91.9997 33.3953L95.7192 28.0559C96.4239 28.5469 96.9528 29.1882 97.2931 29.8585C97.6142 30.4909 97.706 31.024 97.7332 31.3065L91.2561 31.9305L84.7789 32.5544C84.9692 34.5298 85.8473 37.0398 88.2802 38.7346L91.9997 33.3953ZM91.2561 31.9305L97.7332 31.3065L96.6377 19.9341L90.1605 20.5581L83.6834 21.182L84.7789 32.5544L91.2561 31.9305ZM90.1605 20.5581L96.6377 19.9341C96.6781 20.3536 96.6784 21.5847 95.75 22.8565L90.4943 19.0196L85.2387 15.1828C83.7425 17.2322 83.5203 19.489 83.6834 21.182L90.1605 20.5581ZM90.4943 19.0196L95.6317 23.0134C94.3429 24.6712 92.7424 24.7981 92.7381 24.7985L92.1141 18.3213L91.4901 11.8441C89.9337 11.9941 87.2533 12.5864 85.3569 15.0259L90.4943 19.0196ZM92.1141 18.3213L92.7381 24.7985C92.6637 24.8056 92.274 24.839 91.6979 24.71C91.083 24.5723 90.2041 24.2339 89.381 23.47L93.8076 18.7004L98.2341 13.9309C95.8695 11.7364 92.9988 11.6988 91.4901 11.8441L92.1141 18.3213ZM93.8076 18.7004L89.527 23.6014C88.3149 22.5428 88.0313 21.2842 87.9816 20.768L94.4588 20.144L100.936 19.52C100.763 17.7302 100.046 15.5093 98.0881 13.7994L93.8076 18.7004ZM94.4588 20.144L87.9816 20.768L89.0771 32.1404L95.5543 31.5164L102.031 30.8924L100.936 19.52L94.4588 20.144ZM99.4368 19.3029L94.6322 14.9145L94.5968 14.9535L99.4368 19.3029ZM109.138 18.3684L105.217 23.5618L105.259 23.5934L109.138 18.3684ZM106.319 21.3211L101.761 25.965L101.855 26.056L106.319 21.3211ZM102.797 21.6604L108.082 25.4561L108.158 25.3487L102.797 21.6604ZM101.088 33.0018L100.464 26.5246C100.657 26.5061 102.009 26.4147 103.421 27.5122C104.908 28.6686 105.18 30.1357 105.22 30.5551L98.7431 31.1791L92.266 31.8031C92.4367 33.5756 93.1642 36.0231 95.4333 37.787C97.6266 39.4921 100.086 39.6355 101.712 39.4789L101.088 33.0018ZM98.7431 31.1791L105.22 30.5551L104.53 23.3914L98.053 24.0154L91.5759 24.6393L92.266 31.8031L98.7431 31.1791ZM98.053 24.0154L104.53 23.3914C104.504 23.1227 104.544 23.1018 104.505 23.2378C104.485 23.3036 104.453 23.3838 104.407 23.4673C104.36 23.5505 104.312 23.6129 104.277 23.6524L99.4368 19.3029L94.5968 14.9535C92.0745 17.7602 91.2476 21.2321 91.5759 24.6393L98.053 24.0154ZM99.4368 19.3029L104.241 23.6914C104.224 23.7101 104.201 23.7316 104.175 23.7502C104.15 23.7684 104.139 23.7722 104.152 23.766C104.18 23.7535 104.356 23.6793 104.765 23.6399L104.141 17.1627L103.517 10.6856C100.256 10.9997 97.0626 12.2536 94.6322 14.9145L99.4368 19.3029ZM104.141 17.1627L104.765 23.6399C105.175 23.6004 105.355 23.6405 105.371 23.6445C105.379 23.6464 105.359 23.6421 105.321 23.6245C105.283 23.6066 105.247 23.5842 105.217 23.5618L109.138 18.3684L113.058 13.175C110.164 10.9903 106.775 10.3718 103.517 10.6856L104.141 17.1627ZM109.138 18.3684L105.259 23.5934C105.22 23.5644 105.162 23.5143 105.099 23.4414C105.037 23.3683 104.988 23.2937 104.954 23.2288C104.883 23.0938 104.923 23.0946 104.948 23.3511L111.425 22.7272L117.902 22.1032C117.571 18.6619 116.062 15.4043 113.016 13.1435L109.138 18.3684ZM111.425 22.7272L104.948 23.3511L105.638 30.5149L112.115 29.8909L118.593 29.2669L117.902 22.1032L111.425 22.7272ZM112.115 29.8909L105.638 30.5149C105.598 30.0954 105.584 28.6035 106.824 27.1844C108 25.8376 109.345 25.6691 109.538 25.6505L110.162 32.1277L110.786 38.6048C112.411 38.4482 114.798 37.8379 116.626 35.7455C118.516 33.5808 118.763 31.0395 118.593 29.2669L112.115 29.8909ZM110.162 32.1277L109.538 25.6505C109.731 25.6319 111.083 25.5406 112.495 26.6381C113.982 27.7945 114.254 29.2616 114.294 29.681L107.817 30.305L101.34 30.9289C101.511 32.7015 102.238 35.1489 104.507 36.9129C106.701 38.618 109.16 38.7614 110.786 38.6048L110.162 32.1277ZM107.817 30.305L114.294 29.681L113.627 22.7561L107.15 23.38L100.673 24.004L101.34 30.9289L107.817 30.305ZM107.15 23.38L113.627 22.7561C113.456 20.9774 112.831 18.5176 110.783 16.5863L106.319 21.3211L101.855 26.056C101.303 25.5348 100.997 24.9877 100.841 24.5993C100.764 24.4102 100.723 24.2592 100.701 24.162C100.679 24.0649 100.673 24.009 100.673 24.004L107.15 23.38ZM106.319 21.3211L110.877 16.6773C108.808 14.646 106.183 14.0438 103.862 14.2674L104.486 20.7446L105.11 27.2217C104.779 27.2537 104.225 27.251 103.559 27.0414C102.865 26.8232 102.246 26.4416 101.761 25.965L106.319 21.3211ZM104.486 20.7446L103.862 14.2674C101.541 14.491 99.0796 15.5832 97.436 17.9722L102.797 21.6604L108.158 25.3487C107.772 25.9093 107.237 26.4021 106.598 26.7486C105.984 27.0815 105.441 27.1898 105.11 27.2217L104.486 20.7446ZM102.797 21.6604L97.5115 17.8648C95.8693 20.1516 95.7258 22.6854 95.8971 24.4641L102.374 23.8401L108.851 23.2161C108.852 23.2212 108.857 23.2771 108.854 23.3766C108.851 23.4761 108.839 23.6323 108.801 23.8325C108.721 24.2437 108.526 24.839 108.082 25.4561L102.797 21.6604ZM102.374 23.8401L95.8971 24.4641L96.5642 31.389L103.041 30.765L109.519 30.1411L108.851 23.2161L102.374 23.8401ZM103.041 30.765L96.5642 31.389C96.5238 30.9696 96.5103 29.4776 97.7497 28.0585C98.926 26.7117 100.271 26.5432 100.464 26.5246L101.088 33.0018L101.712 39.4789C103.337 39.3224 105.724 38.712 107.552 36.6196C109.442 34.4549 109.689 31.9137 109.519 30.1411L103.041 30.765ZM126.899 35.9379L130.463 41.3828V41.3828L126.899 35.9379ZM116.754 37.578L119.355 31.6129L119.296 31.5878L116.754 37.578ZM115.903 34.6776L112.183 29.3382L111.941 29.5157L115.903 34.6776ZM118.181 34.2472L118.928 27.7831L118.479 27.7469L118.181 34.2472ZM119.091 34.3102L119.602 27.8232L119.275 27.8057L119.091 34.3102ZM123.691 33.5959L121 27.6712L120.947 27.6957L123.691 33.5959ZM123.705 30.6121L127.128 25.0777L123.705 30.6121ZM115.4 17.8857L120.49 21.9388V21.9388L115.4 17.8857ZM124.227 16.0111L121.792 22.0456L130.646 17.0771L124.227 16.0111ZM128.801 13.4616L124.662 18.4829L124.918 18.6833L128.801 13.4616ZM129.133 16.5929L124.748 11.7855L124.748 11.7855L129.133 16.5929ZM126.23 17.4148L124.423 11.1636L121.328 21.695L126.23 17.4148ZM127.716 25.6466L121.561 23.5344L121.522 23.6517L127.716 25.6466ZM125.806 28.0298L122.106 22.6768L124.199 34.3354L125.806 28.0298ZM128.057 29.5L122.616 33.0689L122.732 33.2398L128.057 29.5ZM122.762 19.8877L117.814 24.1133L117.908 24.2213L122.762 19.8877ZM128.922 31.9171L122.445 32.5411C122.425 32.3314 122.441 31.8332 122.726 31.2666C122.999 30.7227 123.329 30.498 123.336 30.4931L126.899 35.9379L130.463 41.3828C131.982 40.3888 133.404 38.9993 134.352 37.1152C135.311 35.2083 135.582 33.1942 135.399 31.2931L128.922 31.9171ZM126.899 35.9379L123.336 30.4931C123.102 30.6463 122.079 31.1303 119.561 31.3729L120.185 37.8501L120.809 44.3272C124.221 43.9985 127.674 43.2078 130.463 41.3828L126.899 35.9379ZM120.185 37.8501L119.561 31.3729C119.316 31.3965 119.121 31.4072 118.97 31.4104C118.819 31.4136 118.729 31.4089 118.692 31.406C118.654 31.4029 118.695 31.4036 118.798 31.4263C118.9 31.4488 119.097 31.5005 119.355 31.6129L116.754 37.578L114.154 43.5431C116.469 44.5519 118.98 44.5034 120.809 44.3272L120.185 37.8501ZM116.754 37.578L119.296 31.5878C119.862 31.8278 120.591 32.3005 121.181 33.1196C121.764 33.9292 121.963 34.7333 122.014 35.2637L115.537 35.8877L109.06 36.5117C109.19 37.858 109.631 39.3517 110.62 40.7248C111.616 42.1073 112.914 43.0172 114.213 43.5682L116.754 37.578ZM115.537 35.8877L122.014 35.2637C122.051 35.6481 122.165 38.0736 119.865 39.8395L115.903 34.6776L111.941 29.5157C109.041 31.7409 108.912 34.9732 109.06 36.5117L115.537 35.8877ZM115.903 34.6776L119.622 40.017C118.674 40.6772 117.872 40.754 117.784 40.7625L117.16 34.2853L116.536 27.8082C115.374 27.9201 113.733 28.2584 112.183 29.3382L115.903 34.6776ZM117.16 34.2853L117.784 40.7625C117.878 40.7535 117.933 40.7505 117.956 40.7497C117.967 40.7493 117.966 40.7495 117.955 40.7495C117.944 40.7495 117.92 40.7492 117.883 40.7476L118.181 34.2472L118.479 27.7469C117.792 27.7154 117.126 27.7513 116.536 27.8082L117.16 34.2853ZM118.181 34.2472L117.434 40.7114C117.927 40.7683 118.419 40.801 118.906 40.8148L119.091 34.3102L119.275 27.8057C119.118 27.8012 119.004 27.7919 118.928 27.7831L118.181 34.2472ZM119.091 34.3102L118.58 40.7973C119.428 40.8641 120.254 40.8258 120.977 40.7562L120.353 34.279L119.729 27.8018C119.607 27.8136 119.534 27.8168 119.503 27.8176C119.489 27.8179 119.49 27.8176 119.505 27.8179C119.52 27.8183 119.553 27.8193 119.602 27.8232L119.091 34.3102ZM120.353 34.279L120.977 40.7562C122.62 40.5979 124.699 40.3039 126.436 39.4961L123.691 33.5959L120.947 27.6957C121.043 27.6511 121.117 27.622 121.163 27.6051C121.209 27.588 121.236 27.5798 121.24 27.5786C121.244 27.5773 121.19 27.5934 121.062 27.6196C120.798 27.6736 120.367 27.7403 119.729 27.8018L120.353 34.279ZM123.691 33.5959L126.382 39.5206C127.667 38.9371 129.084 37.9135 130.056 36.2327C131.028 34.5519 131.208 32.8132 131.072 31.4087L124.595 32.0327L118.118 32.6566C118.054 31.9884 118.119 30.8783 118.789 29.7186C119.46 28.5589 120.389 27.9488 121 27.6712L123.691 33.5959ZM124.595 32.0327L131.072 31.4087C130.815 28.737 129.365 26.4611 127.128 25.0777L123.705 30.6121L120.283 36.1465C119.808 35.8529 119.257 35.3762 118.814 34.6696C118.37 33.9605 118.174 33.2426 118.118 32.6566L124.595 32.0327ZM123.705 30.6121L127.128 25.0777C125.147 23.8527 123.012 23.5692 121.146 23.749L121.77 30.2261L122.394 36.7033C122.04 36.7374 121.196 36.7112 120.283 36.1465L123.705 30.6121ZM121.77 30.2261L121.146 23.749C120.559 23.8055 120.312 23.7484 120.302 23.7458C120.301 23.7457 120.316 23.7492 120.342 23.7591C120.369 23.7689 120.406 23.7844 120.45 23.807C120.543 23.8546 120.644 23.9215 120.74 24.0058C120.947 24.1877 120.981 24.3172 120.933 24.2027C120.874 24.0627 120.748 23.683 120.678 22.9505L114.2 23.5745L107.723 24.1985C108.045 27.5362 109.177 31.1701 112.15 33.782C115.202 36.4639 118.999 37.0304 122.394 36.7033L121.77 30.2261ZM114.2 23.5745L120.678 22.9505C120.604 22.1843 120.657 21.7754 120.688 21.629C120.712 21.5114 120.696 21.6806 120.49 21.9388L115.4 17.8857L110.309 13.8326C107.797 16.9876 107.401 20.854 107.723 24.1985L114.2 23.5745ZM115.4 17.8857L120.49 21.9388C120.412 22.0376 120.327 22.1179 120.25 22.1766C120.175 22.2339 120.13 22.2537 120.139 22.2499C120.167 22.2371 120.416 22.1322 121.015 22.0745L120.391 15.5973L119.767 9.12016C116.404 9.44413 112.811 10.6907 110.309 13.8326L115.4 17.8857ZM120.391 15.5973L121.015 22.0745C121.833 21.9956 121.994 22.1273 121.792 22.0456L124.227 16.0111L126.661 9.97657C124.369 9.05183 121.973 8.90761 119.767 9.12016L120.391 15.5973ZM124.227 16.0111L130.646 17.0771C130.664 16.9703 130.586 17.6044 129.905 18.3325C129.129 19.1631 128.192 19.4551 127.636 19.5086L127.013 13.0314L126.389 6.55424C124.281 6.75725 122.104 7.62055 120.399 9.44447C118.789 11.1657 118.095 13.2149 117.807 14.9451L124.227 16.0111ZM127.013 13.0314L127.636 19.5086C127.283 19.5426 125.965 19.5564 124.662 18.4829L128.801 13.4616L132.94 8.44035C130.765 6.64753 128.255 6.37447 126.389 6.55424L127.013 13.0314ZM128.801 13.4616L124.918 18.6833C124.265 18.1977 123.792 17.5871 123.493 16.9763C123.211 16.3996 123.134 15.9275 123.112 15.6967L129.589 15.0728L136.066 14.4488C135.876 12.4754 135.033 9.98629 132.684 8.23992L128.801 13.4616ZM129.589 15.0728L123.112 15.6967C123.086 15.4243 123.067 14.8387 123.291 14.0902C123.533 13.284 124.01 12.458 124.748 11.7855L129.133 16.5929L133.518 21.4002C135.904 19.2237 136.252 16.3739 136.066 14.4488L129.589 15.0728ZM129.133 16.5929L124.748 11.7855C125.401 11.189 126.018 10.9361 126.304 10.8395C126.595 10.7411 126.738 10.7382 126.642 10.7475L127.266 17.2246L127.89 23.7018C129.22 23.5736 131.576 23.1719 133.518 21.4002L129.133 16.5929ZM127.266 17.2246L126.642 10.7475C125.928 10.8162 125.18 10.9448 124.423 11.1636L126.23 17.4148L128.037 23.666C127.905 23.7041 127.848 23.7058 127.89 23.7018L127.266 17.2246ZM126.23 17.4148L121.328 21.695C121.204 21.5522 121.217 21.5041 121.282 21.6831C121.351 21.8728 121.454 22.2552 121.516 22.8999L127.993 22.2759L134.471 21.652C134.191 18.7522 133.317 15.6373 131.131 13.1346L126.23 17.4148ZM127.993 22.2759L121.516 22.8999C121.55 23.2508 121.544 23.4717 121.535 23.584C121.526 23.6952 121.516 23.6641 121.561 23.5344L127.716 25.6466L133.87 27.7589C134.578 25.696 134.656 23.5751 134.471 21.652L127.993 22.2759ZM127.716 25.6466L121.522 23.6517C121.632 23.3083 121.794 23.0393 121.94 22.8577C122.076 22.6871 122.162 22.6382 122.106 22.6768L125.806 28.0298L129.506 33.3828C131.372 32.0929 133.079 30.2193 133.909 27.6416L127.716 25.6466ZM125.806 28.0298L124.199 34.3354C124.146 34.3218 123.905 34.253 123.582 34.0417C123.241 33.8186 122.893 33.4919 122.616 33.0689L128.057 29.5L133.498 25.9312C131.937 23.5507 129.626 22.2882 127.413 21.7241L125.806 28.0298ZM128.057 29.5L122.732 33.2398C122.639 33.1077 122.565 32.9626 122.513 32.8199C122.463 32.6799 122.449 32.5794 122.445 32.5411L128.922 31.9171L135.399 31.2931C135.212 29.3508 134.57 27.4519 133.382 25.7602L128.057 29.5ZM118.499 23.1604L112.021 23.7844C112.194 25.58 112.711 28.0525 114.458 30.1085C116.542 32.5623 119.443 33.3725 122.079 33.1186L121.455 26.6414L120.831 20.1642C121.173 20.1313 121.791 20.1355 122.531 20.4064C123.305 20.6894 123.935 21.1628 124.377 21.684C125.138 22.5796 125.042 23.2283 124.976 22.5365L118.499 23.1604ZM121.455 26.6414L122.079 33.1186C124.715 32.8646 127.408 31.5155 128.985 28.709C130.307 26.3575 130.342 23.8318 130.169 22.0362L123.692 22.6601L117.215 23.2841C117.282 23.9759 117.064 23.3574 117.64 22.333C117.975 21.7369 118.502 21.1521 119.208 20.7265C119.883 20.3193 120.489 20.1972 120.831 20.1642L121.455 26.6414ZM123.692 22.6601L130.169 22.0362C130 20.2804 129.5 17.6635 127.617 15.5542L122.762 19.8877L117.908 24.2213C117.417 23.6707 117.24 23.1928 117.197 23.0661C117.153 22.9343 117.186 22.9773 117.215 23.2841L123.692 22.6601ZM122.762 19.8877L127.711 15.6622C125.568 13.1527 122.616 12.4608 120.112 12.702L120.736 19.1792L121.36 25.6563C121.07 25.6842 120.482 25.691 119.752 25.4355C118.977 25.1646 118.306 24.6893 117.814 24.1133L122.762 19.8877ZM120.736 19.1792L120.112 12.702C117.56 12.9478 114.906 14.2189 113.29 16.9344L118.882 20.2616L124.474 23.5887C124.124 24.178 123.593 24.7333 122.912 25.1311C122.26 25.5113 121.684 25.6252 121.36 25.6563L120.736 19.1792ZM118.882 20.2616L113.29 16.9344C111.844 19.3643 111.852 22.0286 112.021 23.7844L118.499 23.1604L124.976 22.5365C124.946 22.2297 124.97 22.1812 124.952 22.3191C124.934 22.4515 124.852 22.9545 124.474 23.5887L118.882 20.2616Z" fill="var(--preview-graphic-fill, #FADE26)" mask="url(#path-6-outside-1_859_8996)"/>
<mask id="path-8-outside-2_859_8996" maskUnits="userSpaceOnUse" x="-0.493652" y="32.8804" width="116" height="46" fill="black">
<rect fill="white" x="-0.493652" y="32.8804" width="116" height="46"/>
<path d="M10.1194 71.4C8.66674 71.5399 7.86566 70.8338 7.71614 69.2817L6.58322 57.5213C6.32252 54.815 6.72492 52.7377 7.79044 51.2894C8.85596 49.8411 10.4633 49.0135 12.6124 48.8065C14.8013 48.5956 16.5897 49.1263 17.9775 50.3984C19.3853 51.6687 20.2185 53.647 20.4773 56.3334C20.6498 58.1244 20.5292 59.582 20.1153 60.7064C19.6995 61.8109 19.057 62.6461 18.1876 63.2118C17.3182 63.7776 16.2866 64.118 15.0926 64.233C14.0579 64.3327 13.1878 64.2659 12.4825 64.0325C11.7971 63.7973 11.2356 63.3895 10.7981 62.809C10.9757 63.1936 11.1126 63.572 11.2087 63.9444C11.3247 64.3148 11.4167 64.7478 11.4845 65.2433C11.5722 65.737 11.6534 66.3718 11.7282 67.1479L11.895 68.8791C12.0445 70.4313 11.4526 71.2716 10.1194 71.4ZM13.9801 60.8154C14.8159 60.7349 15.4348 60.3841 15.8369 59.7629C16.257 59.1199 16.3884 57.9826 16.2312 56.3508C16.0741 54.7191 15.7289 53.6377 15.1957 53.1066C14.6805 52.5537 14.005 52.3175 13.1693 52.3981C12.3335 52.4786 11.7056 52.8403 11.2855 53.4833C10.8834 54.1045 10.761 55.2309 10.9181 56.8627C11.0753 58.4944 11.4115 59.5867 11.9267 60.1396C12.4599 60.6707 13.1444 60.8959 13.9801 60.8154Z"/>
<path d="M26.1822 63.1647C24.7494 63.3027 23.9679 62.6952 23.8375 61.342L22.7477 50.0293C22.6155 48.6562 23.2657 47.9007 24.6985 47.7627C25.4148 47.6937 25.9475 47.803 26.2966 48.0907C26.6437 48.3586 26.8509 48.8407 26.918 49.5372C27.2129 48.846 27.6733 48.3096 28.2994 47.9279C28.9433 47.5245 29.7131 47.2796 30.6085 47.1934C32.3199 47.0285 33.2474 47.6923 33.3912 49.1847C33.4449 49.7419 33.2762 50.1799 32.8851 50.4988C32.4941 50.8176 31.821 51.023 30.8658 51.1151C29.9305 51.2052 29.2029 51.3656 28.6829 51.5965C28.1609 51.8074 27.8126 52.1523 27.6378 52.6311C27.4809 53.088 27.4428 53.7344 27.5233 54.5701L28.1358 60.9279C28.2661 62.2811 27.6149 63.0267 26.1822 63.1647Z"/>
<path d="M42.59 61.5841C40.6 61.7758 39.0063 61.5979 37.8088 61.0505C36.6312 60.5012 35.748 59.6725 35.1592 58.5643C34.5904 57.4542 34.234 56.153 34.0903 54.6605C33.8257 51.9145 34.2429 49.886 35.3417 48.5751C36.4386 47.2443 38.0119 46.4802 40.0615 46.2827C41.2953 46.1639 42.4099 46.2674 43.4053 46.5933C44.4007 46.9191 45.2044 47.4442 45.8165 48.1685C46.4266 48.8729 46.7844 49.7724 46.8898 50.8668C47.1965 54.0507 45.0814 55.8612 40.5443 56.2982L38.8131 56.465C39.0317 57.0666 39.3374 57.5292 39.7301 57.8529C40.1407 58.1547 40.8137 58.2606 41.749 58.1705C42.2664 58.1207 42.6814 58.0506 42.994 57.9602C43.3066 57.8698 43.5994 57.7814 43.8722 57.6948C44.1649 57.6064 44.5004 57.5439 44.8784 57.5075C45.4157 57.4558 45.8531 57.514 46.1907 57.6824C46.5263 57.8308 46.722 58.1935 46.7775 58.7706C46.8561 59.5865 46.5564 60.2279 45.8784 60.6949C45.2183 61.1401 44.1222 61.4365 42.59 61.5841ZM38.3914 54.2763C38.5295 54.0421 38.6952 53.8856 38.8884 53.8067C39.0797 53.7079 39.3843 53.6384 39.8022 53.5982C40.9763 53.4851 41.7716 53.298 42.1883 53.0369C42.623 52.754 42.8116 52.3141 42.7541 51.7171C42.6813 50.961 42.4167 50.404 41.9605 50.0463C41.5024 49.6686 40.9549 49.5105 40.3181 49.5718C39.5818 49.6428 39.0345 50.0068 38.676 50.6639C38.3176 51.3211 38.2227 52.5252 38.3914 54.2763Z"/>
<path d="M55.729 60.3184C55.3311 60.3567 54.9055 60.3174 54.4524 60.2003C54.0173 60.0615 53.5896 59.7914 53.1693 59.39C52.7471 58.9688 52.3555 58.3437 51.9945 57.5149L47.9144 47.9966C47.731 47.5523 47.7106 47.1325 47.8533 46.7372C47.994 46.3219 48.2529 45.9857 48.6298 45.7285C49.0047 45.4513 49.431 45.2898 49.9086 45.2437C50.3464 45.2016 50.7549 45.2727 51.1342 45.4571C51.5334 45.6395 51.8246 45.9529 52.008 46.3972L55.885 55.9953C56.5204 54.6689 56.8981 53.3772 57.018 52.1205C57.1559 50.8419 57.1693 49.6255 57.0581 48.4714C57.0236 48.1132 56.9801 47.7659 56.9276 47.4295C56.8732 47.0733 56.8307 46.7359 56.8 46.4176C56.7444 45.8405 56.9301 45.3707 57.3571 45.0082C57.804 44.6438 58.316 44.4338 58.8931 44.3782C60.0871 44.2632 60.8282 44.7642 61.1166 45.8812C61.1756 46.0764 61.2313 46.3422 61.2838 46.6785C61.3343 46.995 61.3798 47.3622 61.42 47.7801C61.4852 48.4566 61.4922 49.2593 61.4411 50.1881C61.408 51.0951 61.2621 52.0832 61.0036 53.1524C60.7631 54.1999 60.3464 55.2944 59.7534 56.4361C59.2286 57.4507 58.7414 58.2307 58.2918 58.7761C57.8621 59.3196 57.437 59.7019 57.0165 59.9232C56.596 60.1445 56.1668 60.2762 55.729 60.3184Z"/>
<path d="M69.532 56.9703C69.6604 58.3035 69.0282 59.0372 67.6352 59.1714C66.9587 59.2366 66.406 59.1292 65.9774 58.8491C65.5468 58.5492 65.2989 58.0609 65.2338 57.3843L64.1382 46.0119C64.0769 45.3751 64.1882 44.8623 64.472 44.4735C64.7758 44.0827 65.3158 43.8499 66.0918 43.7752C66.8679 43.7004 67.4324 43.8268 67.7853 44.1543C68.1581 44.4799 68.3751 44.9611 68.4365 45.5978L69.532 56.9703Z"/>
<path d="M80.3383 57.9477C78.3483 58.1394 76.7546 57.9615 75.5571 57.4141C74.3795 56.8648 73.4963 56.0361 72.9075 54.9279C72.3387 53.8178 71.9823 52.5166 71.8386 51.0241C71.574 48.2781 71.9912 46.2496 73.09 44.9387C74.1869 43.6079 75.7602 42.8438 77.8098 42.6463C79.0436 42.5275 80.1582 42.631 81.1536 42.9569C82.149 43.2827 82.9527 43.8078 83.5648 44.5321C84.1749 45.2365 84.5327 46.136 84.6381 47.2304C84.9448 50.4143 82.8297 52.2248 78.2926 52.6619L76.5614 52.8286C76.78 53.4302 77.0857 53.8928 77.4784 54.2165C77.889 54.5183 78.562 54.6242 79.4973 54.5341C80.0147 54.4843 80.4297 54.4142 80.7423 54.3238C81.0549 54.2334 81.3477 54.145 81.6205 54.0584C81.9133 53.97 82.2487 53.9076 82.6267 53.8711C83.164 53.8194 83.6014 53.8777 83.939 54.046C84.2746 54.1944 84.4703 54.5571 84.5258 55.1342C84.6044 55.9501 84.3047 56.5915 83.6267 57.0585C82.9666 57.5037 81.8705 57.8001 80.3383 57.9477ZM76.1397 50.6399C76.2778 50.4057 76.4435 50.2492 76.6367 50.1703C76.828 50.0715 77.1326 50.002 77.5505 49.9618C78.7246 49.8487 79.52 49.6616 79.9366 49.4005C80.3713 49.1176 80.5599 48.6777 80.5024 48.0807C80.4296 47.3246 80.165 46.7676 79.7088 46.4099C79.2507 46.0323 78.7032 45.8741 78.0664 45.9355C77.3302 46.0064 76.7828 46.3704 76.4243 47.0275C76.0659 47.6847 75.971 48.8888 76.1397 50.6399Z"/>
<path d="M93.3281 56.6963C92.4923 56.7769 91.8127 56.6013 91.2891 56.1698C90.7655 55.7382 90.2501 54.9744 89.7428 53.8785L85.8867 45.1219C85.6757 44.5999 85.5587 44.2195 85.5357 43.9808C85.4801 43.4037 85.6412 42.8861 86.0188 42.4279C86.4144 41.948 86.9306 41.6773 87.5674 41.616C88.0648 41.5681 88.4942 41.6472 88.8555 41.8534C89.2367 42.0577 89.5071 42.363 89.6668 42.7694L93.4111 51.9285C94.0664 50.6001 94.5024 49.3932 94.7192 48.3079C94.9559 47.2206 95.0148 46.0601 94.896 44.8264L94.6379 42.7725C94.588 42.2552 94.7557 41.8072 95.141 41.4287C95.5244 41.0302 96.0246 40.8013 96.6414 40.7419C96.9996 40.7073 97.3305 40.806 97.634 41.0379C97.9375 41.2697 98.2493 41.6916 98.5693 42.3034C98.7906 42.724 99.0442 43.2719 99.3302 43.9473C99.636 44.6208 100.015 45.5282 100.466 46.6697C100.935 47.7894 101.519 49.2595 102.216 51.0802C102.838 50.2371 103.293 49.2292 103.582 48.0566C103.869 46.8641 103.889 45.5065 103.642 43.9839L103.324 41.9358C103.254 41.4203 103.422 40.9724 103.827 40.5919C104.25 40.1896 104.78 39.9578 105.417 39.8965C106.611 39.7815 107.352 40.2825 107.64 41.3995C107.705 41.6543 107.764 41.9499 107.816 42.2863C107.869 42.6227 107.911 42.96 107.944 43.2983C108.084 44.7509 107.996 46.2356 107.68 47.7522C107.382 49.247 106.895 50.6496 106.218 51.9601C105.506 53.334 104.867 54.3094 104.3 54.8862C103.751 55.4412 103.119 55.7532 102.402 55.8222C101.925 55.8682 101.411 55.6466 100.862 55.1572C100.331 54.646 99.8101 53.933 99.3002 53.0181C98.7903 52.1032 98.3485 51.0612 97.9748 49.8922C97.8352 50.5282 97.582 51.2355 97.2152 52.0139C96.8663 52.7705 96.4548 53.5031 95.9808 54.2115C95.5068 54.9199 95.0312 55.508 94.5541 55.9757C94.095 56.4216 93.6863 56.6618 93.3281 56.6963Z"/>
</mask>
<path d="M10.1194 71.4C8.66674 71.5399 7.86566 70.8338 7.71614 69.2817L6.58322 57.5213C6.32252 54.815 6.72492 52.7377 7.79044 51.2894C8.85596 49.8411 10.4633 49.0135 12.6124 48.8065C14.8013 48.5956 16.5897 49.1263 17.9775 50.3984C19.3853 51.6687 20.2185 53.647 20.4773 56.3334C20.6498 58.1244 20.5292 59.582 20.1153 60.7064C19.6995 61.8109 19.057 62.6461 18.1876 63.2118C17.3182 63.7776 16.2866 64.118 15.0926 64.233C14.0579 64.3327 13.1878 64.2659 12.4825 64.0325C11.7971 63.7973 11.2356 63.3895 10.7981 62.809C10.9757 63.1936 11.1126 63.572 11.2087 63.9444C11.3247 64.3148 11.4167 64.7478 11.4845 65.2433C11.5722 65.737 11.6534 66.3718 11.7282 67.1479L11.895 68.8791C12.0445 70.4313 11.4526 71.2716 10.1194 71.4ZM13.9801 60.8154C14.8159 60.7349 15.4348 60.3841 15.8369 59.7629C16.257 59.1199 16.3884 57.9826 16.2312 56.3508C16.0741 54.7191 15.7289 53.6377 15.1957 53.1066C14.6805 52.5537 14.005 52.3175 13.1693 52.3981C12.3335 52.4786 11.7056 52.8403 11.2855 53.4833C10.8834 54.1045 10.761 55.2309 10.9181 56.8627C11.0753 58.4944 11.4115 59.5867 11.9267 60.1396C12.4599 60.6707 13.1444 60.8959 13.9801 60.8154Z" fill="var(--preview-graphic-text, #3F3833)"/>
<path d="M26.1822 63.1647C24.7494 63.3027 23.9679 62.6952 23.8375 61.342L22.7477 50.0293C22.6155 48.6562 23.2657 47.9007 24.6985 47.7627C25.4148 47.6937 25.9475 47.803 26.2966 48.0907C26.6437 48.3586 26.8509 48.8407 26.918 49.5372C27.2129 48.846 27.6733 48.3096 28.2994 47.9279C28.9433 47.5245 29.7131 47.2796 30.6085 47.1934C32.3199 47.0285 33.2474 47.6923 33.3912 49.1847C33.4449 49.7419 33.2762 50.1799 32.8851 50.4988C32.4941 50.8176 31.821 51.023 30.8658 51.1151C29.9305 51.2052 29.2029 51.3656 28.6829 51.5965C28.1609 51.8074 27.8126 52.1523 27.6378 52.6311C27.4809 53.088 27.4428 53.7344 27.5233 54.5701L28.1358 60.9279C28.2661 62.2811 27.6149 63.0267 26.1822 63.1647Z" fill="var(--preview-graphic-text, #3F3833)"/>
<path d="M42.59 61.5841C40.6 61.7758 39.0063 61.5979 37.8088 61.0505C36.6312 60.5012 35.748 59.6725 35.1592 58.5643C34.5904 57.4542 34.234 56.153 34.0903 54.6605C33.8257 51.9145 34.2429 49.886 35.3417 48.5751C36.4386 47.2443 38.0119 46.4802 40.0615 46.2827C41.2953 46.1639 42.4099 46.2674 43.4053 46.5933C44.4007 46.9191 45.2044 47.4442 45.8165 48.1685C46.4266 48.8729 46.7844 49.7724 46.8898 50.8668C47.1965 54.0507 45.0814 55.8612 40.5443 56.2982L38.8131 56.465C39.0317 57.0666 39.3374 57.5292 39.7301 57.8529C40.1407 58.1547 40.8137 58.2606 41.749 58.1705C42.2664 58.1207 42.6814 58.0506 42.994 57.9602C43.3066 57.8698 43.5994 57.7814 43.8722 57.6948C44.1649 57.6064 44.5004 57.5439 44.8784 57.5075C45.4157 57.4558 45.8531 57.514 46.1907 57.6824C46.5263 57.8308 46.722 58.1935 46.7775 58.7706C46.8561 59.5865 46.5564 60.2279 45.8784 60.6949C45.2183 61.1401 44.1222 61.4365 42.59 61.5841ZM38.3914 54.2763C38.5295 54.0421 38.6952 53.8856 38.8884 53.8067C39.0797 53.7079 39.3843 53.6384 39.8022 53.5982C40.9763 53.4851 41.7716 53.298 42.1883 53.0369C42.623 52.754 42.8116 52.3141 42.7541 51.7171C42.6813 50.961 42.4167 50.404 41.9605 50.0463C41.5024 49.6686 40.9549 49.5105 40.3181 49.5718C39.5818 49.6428 39.0345 50.0068 38.676 50.6639C38.3176 51.3211 38.2227 52.5252 38.3914 54.2763Z" fill="var(--preview-graphic-text, #3F3833)"/>
<path d="M55.729 60.3184C55.3311 60.3567 54.9055 60.3174 54.4524 60.2003C54.0173 60.0615 53.5896 59.7914 53.1693 59.39C52.7471 58.9688 52.3555 58.3437 51.9945 57.5149L47.9144 47.9966C47.731 47.5523 47.7106 47.1325 47.8533 46.7372C47.994 46.3219 48.2529 45.9857 48.6298 45.7285C49.0047 45.4513 49.431 45.2898 49.9086 45.2437C50.3464 45.2016 50.7549 45.2727 51.1342 45.4571C51.5334 45.6395 51.8246 45.9529 52.008 46.3972L55.885 55.9953C56.5204 54.6689 56.8981 53.3772 57.018 52.1205C57.1559 50.8419 57.1693 49.6255 57.0581 48.4714C57.0236 48.1132 56.9801 47.7659 56.9276 47.4295C56.8732 47.0733 56.8307 46.7359 56.8 46.4176C56.7444 45.8405 56.9301 45.3707 57.3571 45.0082C57.804 44.6438 58.316 44.4338 58.8931 44.3782C60.0871 44.2632 60.8282 44.7642 61.1166 45.8812C61.1756 46.0764 61.2313 46.3422 61.2838 46.6785C61.3343 46.995 61.3798 47.3622 61.42 47.7801C61.4852 48.4566 61.4922 49.2593 61.4411 50.1881C61.408 51.0951 61.2621 52.0832 61.0036 53.1524C60.7631 54.1999 60.3464 55.2944 59.7534 56.4361C59.2286 57.4507 58.7414 58.2307 58.2918 58.7761C57.8621 59.3196 57.437 59.7019 57.0165 59.9232C56.596 60.1445 56.1668 60.2762 55.729 60.3184Z" fill="var(--preview-graphic-text, #3F3833)"/>
<path d="M69.532 56.9703C69.6604 58.3035 69.0282 59.0372 67.6352 59.1714C66.9587 59.2366 66.406 59.1292 65.9774 58.8491C65.5468 58.5492 65.2989 58.0609 65.2338 57.3843L64.1382 46.0119C64.0769 45.3751 64.1882 44.8623 64.472 44.4735C64.7758 44.0827 65.3158 43.8499 66.0918 43.7752C66.8679 43.7004 67.4324 43.8268 67.7853 44.1543C68.1581 44.4799 68.3751 44.9611 68.4365 45.5978L69.532 56.9703Z" fill="var(--preview-graphic-text, #3F3833)"/>
<path d="M80.3383 57.9477C78.3483 58.1394 76.7546 57.9615 75.5571 57.4141C74.3795 56.8648 73.4963 56.0361 72.9075 54.9279C72.3387 53.8178 71.9823 52.5166 71.8386 51.0241C71.574 48.2781 71.9912 46.2496 73.09 44.9387C74.1869 43.6079 75.7602 42.8438 77.8098 42.6463C79.0436 42.5275 80.1582 42.631 81.1536 42.9569C82.149 43.2827 82.9527 43.8078 83.5648 44.5321C84.1749 45.2365 84.5327 46.136 84.6381 47.2304C84.9448 50.4143 82.8297 52.2248 78.2926 52.6619L76.5614 52.8286C76.78 53.4302 77.0857 53.8928 77.4784 54.2165C77.889 54.5183 78.562 54.6242 79.4973 54.5341C80.0147 54.4843 80.4297 54.4142 80.7423 54.3238C81.0549 54.2334 81.3477 54.145 81.6205 54.0584C81.9133 53.97 82.2487 53.9076 82.6267 53.8711C83.164 53.8194 83.6014 53.8777 83.939 54.046C84.2746 54.1944 84.4703 54.5571 84.5258 55.1342C84.6044 55.9501 84.3047 56.5915 83.6267 57.0585C82.9666 57.5037 81.8705 57.8001 80.3383 57.9477ZM76.1397 50.6399C76.2778 50.4057 76.4435 50.2492 76.6367 50.1703C76.828 50.0715 77.1326 50.002 77.5505 49.9618C78.7246 49.8487 79.52 49.6616 79.9366 49.4005C80.3713 49.1176 80.5599 48.6777 80.5024 48.0807C80.4296 47.3246 80.165 46.7676 79.7088 46.4099C79.2507 46.0323 78.7032 45.8741 78.0664 45.9355C77.3302 46.0064 76.7828 46.3704 76.4243 47.0275C76.0659 47.6847 75.971 48.8888 76.1397 50.6399Z" fill="var(--preview-graphic-text, #3F3833)"/>
<path d="M93.3281 56.6963C92.4923 56.7769 91.8127 56.6013 91.2891 56.1698C90.7655 55.7382 90.2501 54.9744 89.7428 53.8785L85.8867 45.1219C85.6757 44.5999 85.5587 44.2195 85.5357 43.9808C85.4801 43.4037 85.6412 42.8861 86.0188 42.4279C86.4144 41.948 86.9306 41.6773 87.5674 41.616C88.0648 41.5681 88.4942 41.6472 88.8555 41.8534C89.2367 42.0577 89.5071 42.363 89.6668 42.7694L93.4111 51.9285C94.0664 50.6001 94.5024 49.3932 94.7192 48.3079C94.9559 47.2206 95.0148 46.0601 94.896 44.8264L94.6379 42.7725C94.588 42.2552 94.7557 41.8072 95.141 41.4287C95.5244 41.0302 96.0246 40.8013 96.6414 40.7419C96.9996 40.7073 97.3305 40.806 97.634 41.0379C97.9375 41.2697 98.2493 41.6916 98.5693 42.3034C98.7906 42.724 99.0442 43.2719 99.3302 43.9473C99.636 44.6208 100.015 45.5282 100.466 46.6697C100.935 47.7894 101.519 49.2595 102.216 51.0802C102.838 50.2371 103.293 49.2292 103.582 48.0566C103.869 46.8641 103.889 45.5065 103.642 43.9839L103.324 41.9358C103.254 41.4203 103.422 40.9724 103.827 40.5919C104.25 40.1896 104.78 39.9578 105.417 39.8965C106.611 39.7815 107.352 40.2825 107.64 41.3995C107.705 41.6543 107.764 41.9499 107.816 42.2863C107.869 42.6227 107.911 42.96 107.944 43.2983C108.084 44.7509 107.996 46.2356 107.68 47.7522C107.382 49.247 106.895 50.6496 106.218 51.9601C105.506 53.334 104.867 54.3094 104.3 54.8862C103.751 55.4412 103.119 55.7532 102.402 55.8222C101.925 55.8682 101.411 55.6466 100.862 55.1572C100.331 54.646 99.8101 53.933 99.3002 53.0181C98.7903 52.1032 98.3485 51.0612 97.9748 49.8922C97.8352 50.5282 97.582 51.2355 97.2152 52.0139C96.8663 52.7705 96.4548 53.5031 95.9808 54.2115C95.5068 54.9199 95.0312 55.508 94.5541 55.9757C94.095 56.4216 93.6863 56.6618 93.3281 56.6963Z" fill="var(--preview-graphic-text, #3F3833)"/>
<path d="M10.1194 71.4C8.66674 71.5399 7.86566 70.8338 7.71614 69.2817L6.58322 57.5213C6.32252 54.815 6.72492 52.7377 7.79044 51.2894C8.85596 49.8411 10.4633 49.0135 12.6124 48.8065C14.8013 48.5956 16.5897 49.1263 17.9775 50.3984C19.3853 51.6687 20.2185 53.647 20.4773 56.3334C20.6498 58.1244 20.5292 59.582 20.1153 60.7064C19.6995 61.8109 19.057 62.6461 18.1876 63.2118C17.3182 63.7776 16.2866 64.118 15.0926 64.233C14.0579 64.3327 13.1878 64.2659 12.4825 64.0325C11.7971 63.7973 11.2356 63.3895 10.7981 62.809C10.9757 63.1936 11.1126 63.572 11.2087 63.9444C11.3247 64.3148 11.4167 64.7478 11.4845 65.2433C11.5722 65.737 11.6534 66.3718 11.7282 67.1479L11.895 68.8791C12.0445 70.4313 11.4526 71.2716 10.1194 71.4ZM13.9801 60.8154C14.8159 60.7349 15.4348 60.3841 15.8369 59.7629C16.257 59.1199 16.3884 57.9826 16.2312 56.3508C16.0741 54.7191 15.7289 53.6377 15.1957 53.1066C14.6805 52.5537 14.005 52.3175 13.1693 52.3981C12.3335 52.4786 11.7056 52.8403 11.2855 53.4833C10.8834 54.1045 10.761 55.2309 10.9181 56.8627C11.0753 58.4944 11.4115 59.5867 11.9267 60.1396C12.4599 60.6707 13.1444 60.8959 13.9801 60.8154Z" stroke="var(--preview-graphic-fill, #FADE26)" stroke-width="13.0143" stroke-linejoin="bevel" mask="url(#path-8-outside-2_859_8996)"/>
<path d="M26.1822 63.1647C24.7494 63.3027 23.9679 62.6952 23.8375 61.342L22.7477 50.0293C22.6155 48.6562 23.2657 47.9007 24.6985 47.7627C25.4148 47.6937 25.9475 47.803 26.2966 48.0907C26.6437 48.3586 26.8509 48.8407 26.918 49.5372C27.2129 48.846 27.6733 48.3096 28.2994 47.9279C28.9433 47.5245 29.7131 47.2796 30.6085 47.1934C32.3199 47.0285 33.2474 47.6923 33.3912 49.1847C33.4449 49.7419 33.2762 50.1799 32.8851 50.4988C32.4941 50.8176 31.821 51.023 30.8658 51.1151C29.9305 51.2052 29.2029 51.3656 28.6829 51.5965C28.1609 51.8074 27.8126 52.1523 27.6378 52.6311C27.4809 53.088 27.4428 53.7344 27.5233 54.5701L28.1358 60.9279C28.2661 62.2811 27.6149 63.0267 26.1822 63.1647Z" stroke="var(--preview-graphic-fill, #FADE26)" stroke-width="13.0143" stroke-linejoin="bevel" mask="url(#path-8-outside-2_859_8996)"/>
<path d="M42.59 61.5841C40.6 61.7758 39.0063 61.5979 37.8088 61.0505C36.6312 60.5012 35.748 59.6725 35.1592 58.5643C34.5904 57.4542 34.234 56.153 34.0903 54.6605C33.8257 51.9145 34.2429 49.886 35.3417 48.5751C36.4386 47.2443 38.0119 46.4802 40.0615 46.2827C41.2953 46.1639 42.4099 46.2674 43.4053 46.5933C44.4007 46.9191 45.2044 47.4442 45.8165 48.1685C46.4266 48.8729 46.7844 49.7724 46.8898 50.8668C47.1965 54.0507 45.0814 55.8612 40.5443 56.2982L38.8131 56.465C39.0317 57.0666 39.3374 57.5292 39.7301 57.8529C40.1407 58.1547 40.8137 58.2606 41.749 58.1705C42.2664 58.1207 42.6814 58.0506 42.994 57.9602C43.3066 57.8698 43.5994 57.7814 43.8722 57.6948C44.1649 57.6064 44.5004 57.5439 44.8784 57.5075C45.4157 57.4558 45.8531 57.514 46.1907 57.6824C46.5263 57.8308 46.722 58.1935 46.7775 58.7706C46.8561 59.5865 46.5564 60.2279 45.8784 60.6949C45.2183 61.1401 44.1222 61.4365 42.59 61.5841ZM38.3914 54.2763C38.5295 54.0421 38.6952 53.8856 38.8884 53.8067C39.0797 53.7079 39.3843 53.6384 39.8022 53.5982C40.9763 53.4851 41.7716 53.298 42.1883 53.0369C42.623 52.754 42.8116 52.3141 42.7541 51.7171C42.6813 50.961 42.4167 50.404 41.9605 50.0463C41.5024 49.6686 40.9549 49.5105 40.3181 49.5718C39.5818 49.6428 39.0345 50.0068 38.676 50.6639C38.3176 51.3211 38.2227 52.5252 38.3914 54.2763Z" stroke="var(--preview-graphic-fill, #FADE26)" stroke-width="13.0143" stroke-linejoin="bevel" mask="url(#path-8-outside-2_859_8996)"/>
<path d="M55.729 60.3184C55.3311 60.3567 54.9055 60.3174 54.4524 60.2003C54.0173 60.0615 53.5896 59.7914 53.1693 59.39C52.7471 58.9688 52.3555 58.3437 51.9945 57.5149L47.9144 47.9966C47.731 47.5523 47.7106 47.1325 47.8533 46.7372C47.994 46.3219 48.2529 45.9857 48.6298 45.7285C49.0047 45.4513 49.431 45.2898 49.9086 45.2437C50.3464 45.2016 50.7549 45.2727 51.1342 45.4571C51.5334 45.6395 51.8246 45.9529 52.008 46.3972L55.885 55.9953C56.5204 54.6689 56.8981 53.3772 57.018 52.1205C57.1559 50.8419 57.1693 49.6255 57.0581 48.4714C57.0236 48.1132 56.9801 47.7659 56.9276 47.4295C56.8732 47.0733 56.8307 46.7359 56.8 46.4176C56.7444 45.8405 56.9301 45.3707 57.3571 45.0082C57.804 44.6438 58.316 44.4338 58.8931 44.3782C60.0871 44.2632 60.8282 44.7642 61.1166 45.8812C61.1756 46.0764 61.2313 46.3422 61.2838 46.6785C61.3343 46.995 61.3798 47.3622 61.42 47.7801C61.4852 48.4566 61.4922 49.2593 61.4411 50.1881C61.408 51.0951 61.2621 52.0832 61.0036 53.1524C60.7631 54.1999 60.3464 55.2944 59.7534 56.4361C59.2286 57.4507 58.7414 58.2307 58.2918 58.7761C57.8621 59.3196 57.437 59.7019 57.0165 59.9232C56.596 60.1445 56.1668 60.2762 55.729 60.3184Z" stroke="var(--preview-graphic-fill, #FADE26)" stroke-width="13.0143" stroke-linejoin="bevel" mask="url(#path-8-outside-2_859_8996)"/>
<path d="M69.532 56.9703C69.6604 58.3035 69.0282 59.0372 67.6352 59.1714C66.9587 59.2366 66.406 59.1292 65.9774 58.8491C65.5468 58.5492 65.2989 58.0609 65.2338 57.3843L64.1382 46.0119C64.0769 45.3751 64.1882 44.8623 64.472 44.4735C64.7758 44.0827 65.3158 43.8499 66.0918 43.7752C66.8679 43.7004 67.4324 43.8268 67.7853 44.1543C68.1581 44.4799 68.3751 44.9611 68.4365 45.5978L69.532 56.9703Z" stroke="var(--preview-graphic-fill, #FADE26)" stroke-width="13.0143" stroke-linejoin="bevel" mask="url(#path-8-outside-2_859_8996)"/>
<path d="M80.3383 57.9477C78.3483 58.1394 76.7546 57.9615 75.5571 57.4141C74.3795 56.8648 73.4963 56.0361 72.9075 54.9279C72.3387 53.8178 71.9823 52.5166 71.8386 51.0241C71.574 48.2781 71.9912 46.2496 73.09 44.9387C74.1869 43.6079 75.7602 42.8438 77.8098 42.6463C79.0436 42.5275 80.1582 42.631 81.1536 42.9569C82.149 43.2827 82.9527 43.8078 83.5648 44.5321C84.1749 45.2365 84.5327 46.136 84.6381 47.2304C84.9448 50.4143 82.8297 52.2248 78.2926 52.6619L76.5614 52.8286C76.78 53.4302 77.0857 53.8928 77.4784 54.2165C77.889 54.5183 78.562 54.6242 79.4973 54.5341C80.0147 54.4843 80.4297 54.4142 80.7423 54.3238C81.0549 54.2334 81.3477 54.145 81.6205 54.0584C81.9133 53.97 82.2487 53.9076 82.6267 53.8711C83.164 53.8194 83.6014 53.8777 83.939 54.046C84.2746 54.1944 84.4703 54.5571 84.5258 55.1342C84.6044 55.9501 84.3047 56.5915 83.6267 57.0585C82.9666 57.5037 81.8705 57.8001 80.3383 57.9477ZM76.1397 50.6399C76.2778 50.4057 76.4435 50.2492 76.6367 50.1703C76.828 50.0715 77.1326 50.002 77.5505 49.9618C78.7246 49.8487 79.52 49.6616 79.9366 49.4005C80.3713 49.1176 80.5599 48.6777 80.5024 48.0807C80.4296 47.3246 80.165 46.7676 79.7088 46.4099C79.2507 46.0323 78.7032 45.8741 78.0664 45.9355C77.3302 46.0064 76.7828 46.3704 76.4243 47.0275C76.0659 47.6847 75.971 48.8888 76.1397 50.6399Z" stroke="var(--preview-graphic-fill, #FADE26)" stroke-width="13.0143" stroke-linejoin="bevel" mask="url(#path-8-outside-2_859_8996)"/>
<path d="M93.3281 56.6963C92.4923 56.7769 91.8127 56.6013 91.2891 56.1698C90.7655 55.7382 90.2501 54.9744 89.7428 53.8785L85.8867 45.1219C85.6757 44.5999 85.5587 44.2195 85.5357 43.9808C85.4801 43.4037 85.6412 42.8861 86.0188 42.4279C86.4144 41.948 86.9306 41.6773 87.5674 41.616C88.0648 41.5681 88.4942 41.6472 88.8555 41.8534C89.2367 42.0577 89.5071 42.363 89.6668 42.7694L93.4111 51.9285C94.0664 50.6001 94.5024 49.3932 94.7192 48.3079C94.9559 47.2206 95.0148 46.0601 94.896 44.8264L94.6379 42.7725C94.588 42.2552 94.7557 41.8072 95.141 41.4287C95.5244 41.0302 96.0246 40.8013 96.6414 40.7419C96.9996 40.7073 97.3305 40.806 97.634 41.0379C97.9375 41.2697 98.2493 41.6916 98.5693 42.3034C98.7906 42.724 99.0442 43.2719 99.3302 43.9473C99.636 44.6208 100.015 45.5282 100.466 46.6697C100.935 47.7894 101.519 49.2595 102.216 51.0802C102.838 50.2371 103.293 49.2292 103.582 48.0566C103.869 46.8641 103.889 45.5065 103.642 43.9839L103.324 41.9358C103.254 41.4203 103.422 40.9724 103.827 40.5919C104.25 40.1896 104.78 39.9578 105.417 39.8965C106.611 39.7815 107.352 40.2825 107.64 41.3995C107.705 41.6543 107.764 41.9499 107.816 42.2863C107.869 42.6227 107.911 42.96 107.944 43.2983C108.084 44.7509 107.996 46.2356 107.68 47.7522C107.382 49.247 106.895 50.6496 106.218 51.9601C105.506 53.334 104.867 54.3094 104.3 54.8862C103.751 55.4412 103.119 55.7532 102.402 55.8222C101.925 55.8682 101.411 55.6466 100.862 55.1572C100.331 54.646 99.8101 53.933 99.3002 53.0181C98.7903 52.1032 98.3485 51.0612 97.9748 49.8922C97.8352 50.5282 97.582 51.2355 97.2152 52.0139C96.8663 52.7705 96.4548 53.5031 95.9808 54.2115C95.5068 54.9199 95.0312 55.508 94.5541 55.9757C94.095 56.4216 93.6863 56.6618 93.3281 56.6963Z" stroke="var(--preview-graphic-fill, #FADE26)" stroke-width="13.0143" stroke-linejoin="bevel" mask="url(#path-8-outside-2_859_8996)"/>
</svg>