<svg preserveAspectRatio="none" width="100%" height="100%" overflow="visible" style="display: block;" viewBox="0 0 199.998 199.999" fill="none" xmlns="http://www.w3.org/2000/svg">
<path id="Union" d="M97.5077 0.211609C101.08 -0.418295 104.574 0.389328 107.395 2.21844C109.342 1.18348 111.563 0.597402 113.922 0.597351C118.214 0.597351 122.052 2.53976 124.606 5.59344C126.789 4.80941 129.2 4.5671 131.648 4.99872C135.822 5.73483 139.223 8.27739 141.19 11.6804C143.437 11.3164 145.806 11.5048 148.097 12.3386C151.765 13.6738 154.522 16.405 155.986 19.7136C158.087 19.8245 160.193 20.4199 162.14 21.5436C165.658 23.5753 167.942 26.9243 168.728 30.6081C170.903 31.0518 173.001 32.0278 174.82 33.5544C177.859 36.1041 179.519 39.6861 179.722 43.3571C181.77 44.1729 183.651 45.4932 185.168 47.3005C187.705 50.3237 188.721 54.1162 188.3 57.7497C190.287 58.9171 192.008 60.5986 193.243 62.737C195.34 66.369 195.595 70.5583 194.3 74.2253C195.957 75.6955 197.282 77.5874 198.093 79.8151C199.542 83.7968 199.04 88.0118 197.078 91.4167C198.425 93.1381 199.381 95.205 199.787 97.5075C200.417 101.081 199.608 104.573 197.779 107.395C198.814 109.342 199.401 111.563 199.401 113.922C199.401 118.214 197.458 122.052 194.404 124.606C195.188 126.789 195.432 129.2 195.001 131.648C194.265 135.822 191.721 139.223 188.317 141.19C188.68 143.436 188.493 145.803 187.66 148.092C186.325 151.761 183.593 154.518 180.284 155.982C180.174 158.084 179.579 160.192 178.455 162.139C176.423 165.659 173.074 167.942 169.39 168.728C168.946 170.902 167.971 173.001 166.444 174.82C163.894 177.859 160.312 179.519 156.64 179.721C155.825 181.77 154.505 183.651 152.698 185.168C149.675 187.704 145.882 188.721 142.249 188.299C141.081 190.287 139.4 192.008 137.262 193.243C133.629 195.34 129.439 195.595 125.772 194.299C124.302 195.956 122.411 197.282 120.183 198.092C116.202 199.542 111.986 199.041 108.581 197.079C106.86 198.425 104.793 199.382 102.491 199.788C98.5208 200.488 94.6486 199.412 91.6874 197.133C89.4983 198.567 86.8815 199.402 84.0692 199.402C79.9991 199.402 76.3366 197.655 73.7909 194.871C72.0549 195.265 70.2134 195.329 68.3504 195.001C64.176 194.265 60.7747 191.721 58.8075 188.317C56.562 188.68 54.1954 188.493 51.9061 187.66C48.2374 186.325 45.48 183.594 44.0155 180.285C41.9141 180.174 39.8065 179.579 37.8592 178.455C34.3399 176.423 32.0553 173.074 31.2694 169.389C29.0955 168.946 26.9976 167.97 25.1786 166.444C22.1396 163.894 20.4785 160.312 20.2762 156.64C18.2284 155.824 16.3471 154.505 14.8309 152.698C12.2941 149.675 11.277 145.882 11.6981 142.249C9.71139 141.081 7.99016 139.4 6.75571 137.261C4.65815 133.628 4.40249 129.437 5.69907 125.769C4.04221 124.299 2.71691 122.407 1.90611 120.179C0.457335 116.199 0.957076 111.984 2.91782 108.58C1.57235 106.859 0.617553 104.792 0.211769 102.491C-0.48821 98.5206 0.585472 94.6475 2.86509 91.6862C1.43156 89.4974 0.596588 86.8809 0.596535 84.069C0.596535 79.9995 2.34301 76.3374 5.12681 73.7917C4.73254 72.0556 4.66937 70.2135 4.9979 68.3503C5.73402 64.1761 8.27726 60.7746 11.6805 58.8073C11.3168 56.5607 11.505 54.1926 12.3387 51.902C13.6741 48.2334 16.4049 45.4759 19.7137 44.0114C19.8248 41.9113 20.4202 39.8051 21.5438 37.8591C23.5755 34.3401 26.9244 32.0553 30.6083 31.2692C31.052 29.0953 32.0282 26.9975 33.5545 25.1784C36.1043 22.1398 39.6863 20.4786 43.3573 20.2761C44.1731 18.2281 45.4936 16.347 47.3006 14.8307C50.3239 12.294 54.1163 11.2768 57.7499 11.6979C58.9172 9.71125 60.5991 7.98999 62.7372 6.75555C66.37 4.65817 70.5608 4.40271 74.2284 5.69891C75.6987 4.04184 77.5913 2.71683 79.8192 1.90594C83.8 0.457123 88.0144 0.957725 91.4188 2.91864C93.1398 1.57298 95.2062 0.617428 97.5077 0.211609ZM93.0155 25.7263C91.905 26.5926 90.6428 27.3035 89.2479 27.8112C86.1184 28.9503 82.8439 28.885 79.9325 27.8522C78.9764 28.9273 77.8355 29.8708 76.5213 30.6296C73.8522 32.1706 70.8816 32.7178 68.0389 32.3854C67.2639 33.7014 66.257 34.9113 65.0204 35.9489C62.6439 37.9429 59.7921 38.9974 56.9159 39.153C56.3859 40.479 55.6406 41.7456 54.6727 42.8991C52.6169 45.3491 49.8896 46.9026 46.9862 47.5192C46.6962 48.9327 46.1789 50.325 45.4178 51.6432C43.898 54.2755 41.6402 56.2149 39.0575 57.3552C38.9859 58.6808 38.7216 60.0186 38.244 61.3307C37.0902 64.5007 34.8936 66.9893 32.1834 68.5524C32.4218 70.0328 32.4223 71.5775 32.1473 73.1374C31.6126 76.1698 30.1236 78.7941 28.0448 80.7575C28.3037 81.8189 28.4422 82.9279 28.4422 84.069C28.4422 87.3374 27.3151 90.3421 25.4295 92.7175C26.3665 94.1944 27.0376 95.8745 27.3602 97.7038C27.9455 101.023 27.2892 104.275 25.7264 106.982C26.5929 108.093 27.3036 109.355 27.8114 110.751C28.9503 113.88 28.8848 117.154 27.8524 120.065C28.9277 121.021 29.8708 122.163 30.6297 123.477C32.1704 126.146 32.7165 129.116 32.3846 131.958C33.7011 132.733 34.911 133.741 35.9491 134.978C37.9428 137.354 38.9973 140.206 39.1532 143.082C40.4791 143.612 41.7448 144.358 42.8983 145.326C45.3481 147.382 46.9026 150.108 47.5194 153.011C48.9328 153.301 50.3243 153.82 51.6424 154.581C54.2745 156.1 56.215 158.358 57.3553 160.94C58.6822 161.011 60.0214 161.277 61.3348 161.755C64.5043 162.908 66.9924 165.105 68.5555 167.814C70.035 167.576 71.5787 167.576 73.1376 167.851C76.1697 168.386 78.7944 169.874 80.7577 171.953C81.819 171.694 82.9282 171.556 84.0692 171.556C87.3371 171.556 90.3414 172.683 92.7167 174.568C94.1936 173.631 95.8745 172.961 97.704 172.638C101.024 172.053 104.276 172.71 106.984 174.273C108.095 173.406 109.359 172.695 110.755 172.187C113.883 171.049 117.156 171.113 120.066 172.144C121.022 171.07 122.164 170.127 123.477 169.369C126.146 167.828 129.116 167.281 131.958 167.613C132.733 166.297 133.742 165.087 134.978 164.049C137.355 162.056 140.206 161 143.082 160.844C143.612 159.519 144.358 158.254 145.326 157.1C147.382 154.65 150.108 153.095 153.012 152.478C153.302 151.065 153.82 149.674 154.581 148.356C156.101 145.724 158.358 143.783 160.94 142.642C161.012 141.316 161.277 139.977 161.755 138.664C162.908 135.494 165.104 133.005 167.813 131.442C167.576 129.963 167.577 128.419 167.851 126.861C168.427 123.598 170.106 120.807 172.437 118.804C171.868 117.285 171.556 115.64 171.556 113.922C171.557 111.044 172.429 108.37 173.925 106.151C173.322 104.965 172.881 103.672 172.639 102.295C172.053 98.974 172.709 95.7214 174.273 93.0134C173.406 91.9025 172.695 90.6395 172.187 89.2438C171.049 86.1154 171.113 82.8419 172.144 79.9313C171.07 78.9756 170.127 77.8347 169.369 76.5212C167.828 73.8523 167.281 70.8821 167.613 68.0397C166.297 67.2647 165.087 66.2569 164.05 65.0202C162.056 62.6438 161 59.7919 160.845 56.9157C159.519 56.3858 158.254 55.6401 157.1 54.6725C154.65 52.6166 153.095 49.8897 152.478 46.986C151.065 46.696 149.673 46.1786 148.355 45.4177C145.723 43.8978 143.783 41.6402 142.642 39.0573C141.317 38.9856 139.98 38.7213 138.668 38.2438C135.498 37.0901 133.009 34.8935 131.446 32.1833C129.966 32.4216 128.421 32.4222 126.861 32.1472C123.598 31.5718 120.807 29.8917 118.805 27.5602C117.285 28.1294 115.64 28.4421 113.922 28.4421C111.044 28.442 108.371 27.5687 106.151 26.0729C104.966 26.6756 103.673 27.1171 102.295 27.36C98.9749 27.9454 95.7231 27.2894 93.0155 25.7263Z" class="fillWheelRim"/>
</svg>
