<svg width="119" height="75" viewBox="0 0 119 75" fill="none" xmlns="http://www.w3.org/2000/svg">
<rect x="13.0156" width="48" height="48" rx="24" fill="var(--preview-graphic-fill, #FADE26)"/>
<path fill-rule="evenodd" clip-rule="evenodd" d="M47.0161 32.4148C44.5694 29.4282 42.3968 27.7335 40.4981 27.3308C38.5994 26.9282 36.7918 26.8673 35.0751 27.1483V32.4968L27.0161 23.7693L35.0751 15.4968V20.5803C38.2494 20.6053 40.9481 21.7442 43.1711 23.9968C45.3938 26.2495 46.6754 29.0555 47.0161 32.4148Z" fill="var(--preview-graphic-text, #3F3833)" stroke="var(--preview-graphic-text, #3F3833)" stroke-width="2" stroke-linejoin="round"/>
<rect x="26.3086" y="34" width="68.7739" height="17.3356" rx="8" fill="var(--preview-graphic-fill, #FADE26)"/>
<g transform="translate(61.12 20.47) scale(1 1)"><g id="try">
<path id="Vector" d="M27.2836 25.2444C24.7213 25.2444 23.4402 24.5071 23.4402 23.0324C23.4402 22.4978 23.5877 22.1384 23.8826 21.9541C24.1776 21.7882 24.5739 21.7052 25.0716 21.7052C25.5877 21.7052 26.0393 21.7421 26.4264 21.8158C26.8135 21.908 27.2467 21.9541 27.726 21.9541C28.2605 21.9541 28.6384 21.8895 28.8596 21.7605C29.0808 21.6315 29.1914 21.3918 29.1914 21.0416C29.1914 20.8204 29.1453 20.5347 29.0532 20.1845C28.961 19.8342 28.7767 19.3181 28.5002 18.6361C28.2421 17.954 27.8642 17.0139 27.3665 15.8158L23.9103 7.43783C23.7997 7.16133 23.7444 6.8664 23.7444 6.55304C23.7444 5.9263 23.9748 5.47469 24.4356 5.19819C24.8965 4.90326 25.3757 4.75579 25.8734 4.75579C26.3343 4.75579 26.7029 4.87561 26.9794 5.11524C27.2744 5.33644 27.4863 5.63137 27.6154 6.00004L31.0716 14.9586C31.7721 13.5393 32.2329 12.3227 32.4541 11.3088C32.6937 10.295 32.7951 9.36411 32.7583 8.51618C32.7398 7.98162 32.703 7.54843 32.6477 7.21663C32.6108 6.8664 32.5831 6.6452 32.5647 6.55304C32.491 5.96317 32.6661 5.52077 33.0901 5.22584C33.5325 4.91247 34.0486 4.75579 34.6385 4.75579C35.173 4.75579 35.5786 4.87561 35.8551 5.11524C36.15 5.33644 36.362 5.6498 36.491 6.05534C36.5832 6.35027 36.6385 6.69128 36.6569 7.07838C36.6938 7.44705 36.7122 7.7512 36.7122 7.99083C36.7122 8.94936 36.62 9.92633 36.4357 10.9217C36.2698 11.9171 36.021 12.8572 35.6892 13.742C35.3758 14.6084 34.9795 15.3641 34.5002 16.0093C34.4265 16.1015 34.2882 16.2858 34.0855 16.5623C33.9011 16.8388 33.6707 17.1153 33.3942 17.3918C33.1177 17.6499 32.832 17.8342 32.5371 17.9448C32.8504 18.2766 33.0716 18.7098 33.2007 19.2444C33.3297 19.7974 33.3942 20.3688 33.3942 20.9587C33.3942 22.2121 32.9057 23.2352 31.9288 24.0278C30.9702 24.8389 29.4218 25.2444 27.2836 25.2444Z" fill="var(--preview-graphic-text, #3F3833)"/>
<path id="Vector_2" d="M15.3885 19.1061C14.0613 19.1061 13.3977 18.4794 13.3977 17.2259V6.74658C13.3977 5.47469 14.0613 4.83874 15.3885 4.83874C16.0521 4.83874 16.5314 4.98621 16.8263 5.28114C17.1212 5.55764 17.2687 6.01847 17.2687 6.66364C17.6005 6.05534 18.0705 5.60372 18.6788 5.30879C19.3056 4.99542 20.0337 4.83874 20.8632 4.83874C22.4484 4.83874 23.2411 5.52999 23.2411 6.91248C23.2411 7.42862 23.0475 7.81571 22.6604 8.07378C22.2733 8.33185 21.6374 8.46088 20.7526 8.46088C19.8862 8.46088 19.2042 8.54383 18.7065 8.70973C18.2088 8.8572 17.8586 9.14291 17.6558 9.56688C17.4715 9.97241 17.3793 10.5623 17.3793 11.3365V17.2259C17.3793 18.4794 16.7157 19.1061 15.3885 19.1061Z" fill="var(--preview-graphic-text, #3F3833)"/>
<path id="Vector_3" d="M7.63138 19.1061C5.91709 19.1061 4.64519 18.7006 3.81569 17.8895C3.00463 17.0784 2.59909 15.8342 2.59909 14.1568V8.40558H1.8802C0.626732 8.40558 0 7.84337 0 6.71894C0 5.61294 0.626732 5.05994 1.8802 5.05994H2.59909V2.07374C2.59909 1.46545 2.78343 0.967748 3.15209 0.580648C3.53919 0.19355 4.03689 0 4.64519 0C5.23506 0 5.7051 0.184333 6.05534 0.552999C6.40557 0.903231 6.58069 1.39171 6.58069 2.01845V3.37329C6.58069 4.05532 6.47009 4.61754 6.24889 5.05994H8.87563C10.1291 5.05994 10.7558 5.61294 10.7558 6.71894C10.7558 7.84337 10.1291 8.40558 8.87563 8.40558H6.58069V14.2397C6.58069 14.7927 6.6452 15.189 6.77423 15.4287C6.90327 15.6499 7.11525 15.7605 7.41018 15.7605C7.79728 15.7605 8.083 15.7328 8.26733 15.6775C8.4701 15.6038 8.71895 15.5669 9.01388 15.5669C9.51158 15.5669 9.90789 15.6591 10.2028 15.8434C10.4978 16.0093 10.6452 16.3595 10.6452 16.8941C10.6452 17.6499 10.4056 18.2121 9.92633 18.5808C9.44706 18.931 8.68208 19.1061 7.63138 19.1061Z" fill="var(--preview-graphic-text, #3F3833)"/>
</g></g>
<g transform="translate(55.12 14.47) scale(1 1)"><g id="try (Stroke)">
<path id="Stroke" d="M33.7256 26.5654V27.4785C33.8171 27.6274 33.9299 27.7836 34.0674 27.9424C33.9616 27.9491 33.8477 27.9541 33.7256 27.9541L33.375 27.9453C33.0328 27.928 32.7161 27.8846 32.4258 27.8154C32.0388 27.7418 31.5872 27.7051 31.0713 27.7051C30.5737 27.7051 30.1777 27.7883 29.8828 27.9541C29.5879 28.1384 29.4404 28.4977 29.4404 29.0322C29.4404 30.5069 30.7211 31.2441 33.2832 31.2441C35.4215 31.2441 36.9702 30.8384 37.9287 30.0273C38.9054 29.2348 39.3934 28.2121 39.3936 26.959C39.3936 26.3691 39.3292 25.7971 39.2002 25.2441C39.0712 24.7096 38.8505 24.2761 38.5371 23.9443C38.8318 23.8337 39.1172 23.6495 39.3936 23.3916C39.6699 23.1152 39.9007 22.8389 40.085 22.5625C40.2877 22.286 40.4263 22.101 40.5 22.0088C40.9791 21.3638 41.3752 20.6083 41.6885 19.7422C42.0202 18.8575 42.2696 17.9172 42.4355 16.9219C42.6199 15.9265 42.7119 14.9488 42.7119 13.9902C42.7119 13.7507 42.6931 13.4466 42.6562 13.0781C42.6378 12.6913 42.5833 12.3504 42.4912 12.0557C42.3622 11.6501 42.1494 11.3364 41.8545 11.1152C41.5781 10.8757 41.1729 10.7559 40.6387 10.7559C40.0488 10.7559 39.5322 10.9122 39.0898 11.2256C38.6659 11.5205 38.4908 11.9629 38.5645 12.5527C38.5829 12.6449 38.6106 12.8666 38.6475 13.2168C38.7027 13.5485 38.7394 13.9814 38.7578 14.5156C38.7947 15.3635 38.6937 16.2948 38.4541 17.3086C38.2329 18.3223 37.7717 19.5388 37.0713 20.958L33.6152 12C33.4862 11.6314 33.2743 11.3364 32.9795 11.1152C32.703 10.8756 32.3339 10.7559 31.873 10.7559C31.3754 10.7559 30.8963 10.9033 30.4355 11.1982L30.2734 11.3096C29.9205 11.5898 29.7442 12.0043 29.7441 12.5527C29.7441 12.8661 29.7996 13.161 29.9102 13.4375L28.9355 13.8262C29.1373 13.5881 29.2412 13.2847 29.2412 12.9121C29.2411 11.5299 28.4482 10.839 26.8633 10.8389C26.0338 10.8389 25.3054 10.9953 24.6787 11.3086C24.3286 11.4784 24.0251 11.701 23.7666 11.9746C23.92 9.84284 24.9325 7.55702 27.2363 6.12207C28.5561 5.2858 30.1319 4.75589 31.873 4.75586C33.1551 4.75586 34.7012 5.05337 36.1318 5.99512C37.5479 5.13639 39.1076 4.75586 40.6387 4.75586C41.907 4.75592 43.8279 5.02004 45.5449 6.38574C46.844 7.39041 47.6611 8.68305 48.1191 9.97266L48.208 10.2363L48.2178 10.2656C48.4788 11.101 48.5966 11.9158 48.6406 12.6543C48.6798 13.0795 48.7119 13.537 48.7119 13.9902C48.7119 15.2994 48.5872 16.6067 48.3525 17.9072L48.3535 17.9082C48.1282 19.2601 47.7833 20.5774 47.3066 21.8486L47.3057 21.8477C46.8257 23.1578 46.1798 24.4208 45.3232 25.5762C45.3696 26.0361 45.3936 26.4975 45.3936 26.959L45.3906 27.2451C45.3116 30.1978 44.009 32.8197 41.708 34.6865C39.1438 36.7999 35.8953 37.2441 33.2832 37.2441C31.6233 37.2441 29.4036 37.0399 27.4082 35.8916C24.9906 34.5002 23.5329 32.0794 23.4443 29.3018L23.4404 29.0322L23.4453 28.748C23.5002 27.2427 24.0232 24.5407 26.7021 22.8662L26.9404 22.7246C27.0249 22.6771 27.1098 22.6313 27.1943 22.5879L24.3633 15.7256L24.3389 15.666C24.2513 15.4472 24.1759 15.2262 24.1084 15.0049C24.2759 14.8768 24.475 14.7785 24.7061 14.71C25.2037 14.5441 25.8858 14.461 26.752 14.4609C27.6368 14.4609 28.2731 14.3313 28.6602 14.0732C28.7677 14.0015 28.8579 13.9178 28.9355 13.8262L29.9102 13.4375L33.3662 21.8154C33.8639 23.0135 34.2419 23.9537 34.5 24.6357C34.7765 25.3178 34.9606 25.8343 35.0527 26.1846C35.1448 26.5345 35.1913 26.8199 35.1914 27.041C35.1914 27.3912 35.0806 27.6317 34.8594 27.7607L34.7695 27.8057C34.6279 27.8672 34.4396 27.9084 34.2051 27.9316L34.5371 26.498C34.5083 26.4611 34.4785 26.4257 34.4492 26.3906L33.7256 26.5654ZM33.7256 25.873C33.6872 25.9367 33.6491 26.0061 33.6133 26.0811C33.5249 26.2662 33.47 26.4392 33.4375 26.5879L33.7256 26.5215V25.873ZM33.7979 25.7637C33.7741 25.7984 33.749 25.8342 33.7256 25.873V26.5215L34.1357 26.4258L34.416 26.3516C34.2122 26.1135 34.0005 25.9192 33.7979 25.7637ZM34.1357 26.4258L34.4219 26.3584C34.4199 26.3561 34.418 26.3538 34.416 26.3516L34.1357 26.4258ZM33.4062 26.7783C33.4612 26.9576 33.557 27.2044 33.7256 27.4785V26.5654L33.4287 26.6367C33.4189 26.6874 33.4115 26.7347 33.4062 26.7783Z" fill="var(--preview-graphic-fill, #FADE26)"/>
<path id="Stroke_2" d="M26.8633 16.8389C26.7996 16.8389 26.9874 16.8462 27.2949 16.7061L26.8633 15.8154V16.8389ZM26.752 16.8301C26.817 16.8359 26.8557 16.8389 26.8633 16.8389V15.8154L26.752 15.585V16.8301ZM25.3975 16.3574L26.1807 16.7139C26.197 16.7189 26.2127 16.7249 26.2285 16.7295C26.4623 16.7975 26.6438 16.8205 26.752 16.8301V15.585L26.4727 15.0098L25.3975 14.7354V16.3574ZM26.8633 15.8154L27.2949 16.7061C27.3062 16.7009 27.3175 16.695 27.3291 16.6895C27.3398 16.6841 27.3505 16.6785 27.3613 16.6729L26.8633 15.6768V15.8154ZM26.8633 15.6768L27.3613 16.6729C27.5822 16.558 27.8125 16.4008 28.0264 16.1953C28.2021 16.0265 28.3397 15.853 28.4434 15.6924L28.5361 15.5361L26.8633 15.1094V15.6768ZM26.752 15.585L26.8633 15.8154V15.6768L26.752 15.4541V15.585ZM26.752 15.4541L26.8633 15.6768V15.1094L26.752 15.0811V15.4541ZM26.752 15.585V15.4541L26.5371 15.0264L26.4727 15.0098L26.752 15.585ZM26.752 15.4541V15.0811L26.5371 15.0264L26.752 15.4541ZM34.8711 15.2559L33.6152 12C33.4862 11.6314 33.2743 11.3364 32.9795 11.1152C32.703 10.8756 32.3339 10.7559 31.873 10.7559C31.3754 10.7559 30.8963 10.9033 30.4355 11.1982C29.9748 11.4747 29.7442 11.9261 29.7441 12.5527C29.7441 12.8661 29.7996 13.161 29.9102 13.4375L32.1777 18.9346C32.1155 18.9788 32.0526 19.0235 31.9883 19.0664C31.1275 19.6402 30.2214 19.9787 29.3789 20.1787V23.2256C29.3789 24.8676 28.9276 27.1784 27.001 28.998C25.1389 30.7567 22.8943 31.1064 21.3887 31.1064C19.883 31.1064 17.6377 30.7569 15.7754 28.998C14.51 27.8029 13.8823 26.3957 13.5996 25.1055C13.61 25.1055 13.6204 25.1064 13.6309 25.1064C14.6813 25.1064 15.4465 24.9311 15.9258 24.5811C16.405 24.2124 16.6445 23.6493 16.6445 22.8936C16.6445 22.3592 16.497 22.0096 16.2021 21.8438C15.9072 21.6595 15.5113 21.5664 15.0137 21.5664C14.7189 21.5664 14.4703 21.6041 14.2676 21.6777C14.0833 21.733 13.7972 21.7607 13.4102 21.7607C13.406 21.7607 13.4016 21.7598 13.3975 21.7598V14.4053H14.875C16.1285 14.4053 16.7559 13.8432 16.7559 12.7188C16.7558 11.6128 16.1284 11.0596 14.875 11.0596H13.5566C13.8138 9.72597 14.4312 8.2416 15.7441 6.9834C17.6049 5.20036 19.8626 4.83887 21.3887 4.83887C22.0527 4.83889 22.9724 4.90491 23.9658 5.20215C24.9391 4.94651 25.9166 4.83887 26.8633 4.83887C28.3945 4.83891 30.6632 5.15484 32.5898 6.83496C34.5432 8.53848 35.1644 10.7667 35.2344 12.5596L35.2412 12.9121L35.2295 13.3379C35.1942 13.9806 35.0738 14.6265 34.8711 15.2559ZM19.4053 23.4531C19.4778 24.4817 20.0585 25.0302 21.1475 25.0986L21.3887 25.1064C22.7156 25.1063 23.3789 24.4789 23.3789 23.2256V17.3359C23.3789 16.5619 23.471 15.9719 23.6553 15.5664C23.7419 15.3852 23.8575 15.2313 23.998 15.1006C24.0765 15.2109 24.1617 15.3221 24.2568 15.4316C24.4887 15.1799 24.6727 14.9239 24.8203 14.6748C25.2687 14.5437 25.8512 14.4731 26.5684 14.4629L26.752 14.4609C27.6368 14.4609 28.2731 14.3313 28.6602 14.0732C28.9988 13.8474 29.1892 13.523 29.2314 13.0996L29.2412 12.9121C29.2411 11.5299 28.4482 10.839 26.8633 10.8389C26.0338 10.8389 25.3054 10.9953 24.6787 11.3086C24.0705 11.6035 23.6003 12.055 23.2686 12.6631C23.2685 12.0183 23.1209 11.5577 22.8262 11.2812C22.5313 10.9864 22.0521 10.8389 21.3887 10.8389C20.0616 10.8389 19.3976 11.4744 19.3975 12.7461V23.2256L19.4053 23.4531ZM17.2705 12.7461C17.2806 12.9695 17.3433 13.6134 17.7354 14.3682C17.8493 13.9447 17.9985 13.5128 18.1934 13.084L18.2432 12.9775C18.2526 12.9578 18.2629 12.9385 18.2725 12.9189L17.2686 12.6631L17.2705 12.7461Z" fill="var(--preview-graphic-fill, #FADE26)"/>
<path id="Stroke_3" d="M16.6445 22.8936C16.6445 22.3592 16.497 22.0096 16.2021 21.8438C15.9072 21.6595 15.5113 21.5664 15.0137 21.5664C14.7189 21.5664 14.4703 21.6041 14.2676 21.6777L14.1094 21.7139C13.9332 21.7449 13.7001 21.7607 13.4102 21.7607L13.3037 21.7549C13.0637 21.7308 12.8874 21.6222 12.7744 21.4287C12.6454 21.1891 12.5801 20.7923 12.5801 20.2393V14.4053H14.875C16.1285 14.4053 16.7559 13.8432 16.7559 12.7188C16.7558 11.6128 16.1284 11.0596 14.875 11.0596H12.249C12.4701 10.6172 12.5801 10.0549 12.5801 9.37305V8.01855C12.5801 7.39182 12.4049 6.90297 12.0547 6.55273C11.7045 6.18425 11.2343 6 10.6445 6C10.0367 6.00009 9.53929 6.19337 9.15234 6.58008C8.78375 6.9671 8.59871 7.46511 8.59863 8.07324V11.0596H7.87988C6.62649 11.0596 6.00002 11.6128 6 12.7188C6 13.8432 6.62647 14.4052 7.87988 14.4053H8.59863V20.1562C8.59863 21.8337 9.00436 23.0786 9.81543 23.8896C10.6089 24.6654 11.8072 25.0688 13.4102 25.1025L13.6309 25.1064C14.6813 25.1064 15.4465 24.9311 15.9258 24.5811C16.405 24.2124 16.6445 23.6493 16.6445 22.8936ZM16.0791 27.3955C16.1558 27.3723 16.2354 27.3462 16.3174 27.3164L16.0791 27.3955ZM19.3975 23.2256C19.3975 24.479 20.0615 25.1064 21.3887 25.1064C21.7892 25.1064 22.1286 25.0469 22.4082 24.9326C22.0372 26.4995 21.1889 28.1014 19.584 29.3359L19.4658 29.4248C17.4301 30.9124 15.0882 31.1064 13.6309 31.1064C11.1701 31.1064 8.20078 30.5508 5.84668 28.3936L5.62109 28.1797L5.57324 28.1318C3.20663 25.7652 2.59863 22.6905 2.59863 20.1562V18.5645C2.55402 18.5263 2.50714 18.4899 2.46289 18.4502C0.493651 16.6836 0 14.3844 0 12.7188C8.65555e-06 11.0325 0.512139 8.72963 2.5 6.97559C2.56311 6.9199 2.62859 6.86802 2.69238 6.81543C2.91725 5.28509 3.56868 3.74228 4.80664 2.44238L4.90918 2.33789C6.55138 0.695689 8.63886 9.85665e-05 10.6445 0C12.5506 0 14.6452 0.639917 16.2959 2.31152L16.2979 2.31055C16.3125 2.32523 16.3263 2.34073 16.3408 2.35547C16.3619 2.3772 16.3843 2.39785 16.4053 2.41992L16.4023 2.42188C17.3831 3.4415 17.9624 4.5943 18.2734 5.72559C18.9409 6.01153 19.6168 6.41261 20.2549 6.97559C21.6597 8.2151 22.3257 9.72908 22.5967 11.1055C22.304 10.9288 21.9021 10.8389 21.3887 10.8389C20.0616 10.8389 19.3976 11.4744 19.3975 12.7461V23.2256Z" fill="var(--preview-graphic-fill, #FADE26)"/>
</g></g>
<rect x="9.16943" y="51.3354" width="94.6924" height="16.9682" fill="var(--preview-graphic-fill, #FADE26)"/>
<rect x="80.2256" y="52.3037" width="30" height="16" fill="var(--preview-graphic-fill, #FADE26)"/>
<g transform="translate(5.77 45.58) scale(1 1)"><g id="another?">
<path id="Vector" d="M99.8638 14.5439C98.297 14.5439 97.1818 14.4149 96.5182 14.1568C95.873 13.8987 95.5504 13.4655 95.5504 12.8572C95.5504 12.4148 95.6426 12.0738 95.8269 11.8342C96.0113 11.5761 96.4168 11.401 97.0435 11.3088C97.6703 11.1982 98.638 11.1429 99.9468 11.1429C100.758 11.1429 101.385 10.8664 101.827 10.3134C102.288 9.76045 102.518 9.00468 102.518 8.04615C102.518 7.01389 102.315 6.26734 101.91 5.80651C101.504 5.34568 100.841 5.12448 99.9191 5.14291C98.4629 5.14291 97.3385 5.10604 96.5458 5.03231C95.7716 4.94014 95.2371 4.77424 94.9421 4.53461C94.6656 4.27655 94.5274 3.9171 94.5274 3.45626C94.5274 2.0922 95.9836 1.41017 98.8961 1.41017H99.8638C101.91 1.41017 103.523 2.00925 104.703 3.20741C105.901 4.38715 106.5 6.00006 106.5 8.04615C106.5 9.31805 106.214 10.4425 105.643 11.4194C105.09 12.3964 104.315 13.1614 103.32 13.7144C102.325 14.2674 101.173 14.5439 99.8638 14.5439ZM98.0942 21.2905C97.4306 21.2905 96.8961 21.0877 96.4905 20.6822C96.1034 20.2766 95.9099 19.7605 95.9099 19.1338C95.9099 18.4886 96.1034 17.9633 96.4905 17.5577C96.8961 17.1522 97.4306 16.9494 98.0942 16.9494C98.7394 16.9494 99.2647 17.1522 99.6703 17.5577C100.076 17.9633 100.279 18.4886 100.279 19.1338C100.279 19.7605 100.076 20.2766 99.6703 20.6822C99.2647 21.0877 98.7394 21.2905 98.0942 21.2905Z" fill="var(--preview-graphic-text, #3F3833)"/>
<path id="Vector_2" d="M88.2833 21.2905C86.9561 21.2905 86.2925 20.6637 86.2925 19.4103V8.93095C86.2925 7.65905 86.9561 7.02311 88.2833 7.02311C88.9469 7.02311 89.4261 7.17057 89.7211 7.46551C90.016 7.742 90.1635 8.20284 90.1635 8.848C90.4953 8.2397 90.9653 7.78809 91.5736 7.49316C92.2003 7.17979 92.9284 7.02311 93.7579 7.02311C95.3432 7.02311 96.1358 7.71435 96.1358 9.09685C96.1358 9.61298 95.9423 10.0001 95.5552 10.2581C95.1681 10.5162 94.5321 10.6452 93.6473 10.6452C92.781 10.6452 92.0989 10.7282 91.6012 10.8941C91.1036 11.0416 90.7533 11.3273 90.5506 11.7512C90.3662 12.1568 90.274 12.7466 90.274 13.5208V19.4103C90.274 20.6637 89.6105 21.2905 88.2833 21.2905Z" fill="var(--preview-graphic-text, #3F3833)"/>
<path id="Vector_3" d="M78.8836 21.2905C77.0402 21.2905 75.5932 20.9863 74.5425 20.378C73.5103 19.7697 72.7729 18.931 72.3305 17.8619C71.9066 16.7928 71.6946 15.5669 71.6946 14.1844C71.6946 11.6406 72.2568 9.81575 73.3812 8.70975C74.5057 7.58532 76.0172 7.02311 77.9158 7.02311C79.0587 7.02311 80.0725 7.21666 80.9573 7.60375C81.8421 7.99085 82.5334 8.54385 83.0311 9.26275C83.5288 9.96322 83.7776 10.8204 83.7776 11.8342C83.7776 14.7835 81.6762 16.2582 77.4734 16.2582H75.8697C76.0172 16.8296 76.2568 17.2812 76.5886 17.613C76.9389 17.9264 77.5472 18.0831 78.4135 18.0831C78.8928 18.0831 79.2799 18.0554 79.5748 18.0001C79.8697 17.9448 80.1462 17.8895 80.4043 17.8342C80.6808 17.7789 80.9942 17.7513 81.3444 17.7513C81.8421 17.7513 82.2384 17.8434 82.5334 18.0278C82.8283 18.1937 82.9758 18.5439 82.9758 19.0785C82.9758 19.8342 82.644 20.3965 81.9804 20.7651C81.3352 21.1154 80.3029 21.2905 78.8836 21.2905ZM75.6762 14.2121C75.8236 14.0093 75.9895 13.8803 76.1739 13.825C76.3582 13.7513 76.6439 13.7144 77.031 13.7144C78.1186 13.7144 78.8651 13.613 79.2707 13.4102C79.6946 13.189 79.9066 12.8019 79.9066 12.2489C79.9066 11.5485 79.7131 11.0139 79.326 10.6452C78.9389 10.2581 78.4504 10.0646 77.8605 10.0646C77.1785 10.0646 76.6439 10.3503 76.2568 10.9217C75.8697 11.4932 75.6762 12.59 75.6762 14.2121Z" fill="var(--preview-graphic-text, #3F3833)"/>
<path id="Vector_4" d="M60.6253 19.4379C60.6253 20.673 59.9802 21.2905 58.6898 21.2905C58.0631 21.2905 57.5654 21.1338 57.1967 20.8204C56.8281 20.5071 56.6437 20.0462 56.6437 19.4379V2.15672C56.6437 0.718921 57.3165 2.24113e-05 58.6622 2.24113e-05C59.9894 2.24113e-05 60.653 0.718921 60.653 2.15672V5.11526C60.653 5.63139 60.5977 6.12909 60.4871 6.60836C60.3765 7.08762 60.1921 7.58532 59.9341 8.10146C60.2474 7.71436 60.6622 7.43786 61.1783 7.27196C61.6945 7.10606 62.2935 7.02311 62.9756 7.02311C64.1922 7.02311 65.2521 7.26274 66.1553 7.742C67.0585 8.22127 67.759 8.89408 68.2567 9.76045C68.7728 10.6084 69.0309 11.6222 69.0309 12.8019V19.4379C69.0309 20.673 68.3857 21.2905 67.0954 21.2905C66.4687 21.2905 65.971 21.1338 65.6023 20.8204C65.2336 20.5071 65.0493 20.0462 65.0493 19.4379V12.9678C65.0493 12.1015 64.8465 11.4471 64.441 11.0047C64.0539 10.5623 63.5101 10.3411 62.8097 10.3411C62.1276 10.3411 61.5931 10.5715 61.206 11.0323C60.8189 11.4747 60.6253 12.1199 60.6253 12.9678V19.4379Z" fill="var(--preview-graphic-text, #3F3833)"/>
<path id="Vector_5" d="M50.8781 21.2905C49.1638 21.2905 47.8919 20.8849 47.0624 20.0739C46.2513 19.2628 45.8458 18.0186 45.8458 16.3411V10.5899H45.1269C43.8734 10.5899 43.2467 10.0277 43.2467 8.9033C43.2467 7.79731 43.8734 7.24431 45.1269 7.24431H45.8458V4.25811C45.8458 3.64981 46.0301 3.15212 46.3988 2.76502C46.7859 2.37792 47.2836 2.18437 47.8919 2.18437C48.4817 2.18437 48.9518 2.3687 49.302 2.73737C49.6523 3.0876 49.8274 3.57608 49.8274 4.20281V5.55766C49.8274 6.23969 49.7168 6.80191 49.4956 7.24431H52.1223C53.3758 7.24431 54.0025 7.79731 54.0025 8.9033C54.0025 10.0277 53.3758 10.5899 52.1223 10.5899H49.8274V16.4241C49.8274 16.9771 49.8919 17.3734 50.0209 17.613C50.15 17.8342 50.3619 17.9448 50.6569 17.9448C51.044 17.9448 51.3297 17.9172 51.514 17.8619C51.7168 17.7881 51.9656 17.7513 52.2606 17.7513C52.7583 17.7513 53.1546 17.8434 53.4495 18.0278C53.7444 18.1937 53.8919 18.5439 53.8919 19.0785C53.8919 19.8342 53.6523 20.3965 53.173 20.7651C52.6938 21.1154 51.9288 21.2905 50.8781 21.2905Z" fill="var(--preview-graphic-text, #3F3833)"/>
<path id="Vector_6" d="M35.9858 21.2905C34.0134 21.2905 32.4558 20.7283 31.3129 19.6038C30.1701 18.4794 29.5986 16.6637 29.5986 14.1568C29.5986 11.6314 30.1701 9.81575 31.3129 8.70975C32.4558 7.58532 34.0134 7.02311 35.9858 7.02311C37.9581 7.02311 39.5158 7.58532 40.6586 8.70975C41.8015 9.81575 42.3729 11.6314 42.3729 14.1568C42.3729 16.6637 41.8015 18.4794 40.6586 19.6038C39.5158 20.7283 37.9581 21.2905 35.9858 21.2905ZM35.9858 17.9725C36.5019 17.9725 36.9351 17.8711 37.2853 17.6683C37.6356 17.4471 37.9028 17.06 38.0872 16.507C38.2899 15.954 38.3913 15.1706 38.3913 14.1568C38.3913 13.143 38.2899 12.3595 38.0872 11.8065C37.9028 11.2535 37.6356 10.8757 37.2853 10.6729C36.9351 10.4517 36.5019 10.3411 35.9858 10.3411C35.4881 10.3411 35.0549 10.4517 34.6862 10.6729C34.336 10.8757 34.0595 11.2535 33.8567 11.8065C33.6724 12.3595 33.5802 13.143 33.5802 14.1568C33.5802 15.1706 33.6724 15.954 33.8567 16.507C34.0595 17.06 34.336 17.4471 34.6862 17.6683C35.0549 17.8711 35.4881 17.9725 35.9858 17.9725Z" fill="var(--preview-graphic-text, #3F3833)"/>
<path id="Vector_7" d="M16.5392 21.2905C15.212 21.2905 14.5484 20.6637 14.5484 19.4103V12.7743C14.5484 11.0047 15.1106 9.60377 16.2351 8.5715C17.3779 7.53924 18.8803 7.02311 20.742 7.02311C22.6038 7.02311 24.0969 7.53924 25.2213 8.5715C26.3642 9.60377 26.9356 11.0047 26.9356 12.7743V19.4103C26.9356 20.6637 26.272 21.2905 24.9448 21.2905C23.6176 21.2905 22.954 20.6637 22.954 19.4103V12.9955C22.954 12.1291 22.7605 11.4747 22.3734 11.0323C21.9863 10.5715 21.4425 10.3411 20.742 10.3411C20.0416 10.3411 19.4978 10.5715 19.1107 11.0323C18.7236 11.4747 18.53 12.1291 18.53 12.9955V19.4103C18.53 20.6637 17.8664 21.2905 16.5392 21.2905Z" fill="var(--preview-graphic-text, #3F3833)"/>
<path id="Vector_8" d="M5.86182 21.2905C4.01849 21.2905 2.58069 20.8665 1.54842 20.0186C0.516161 19.1522 2.83122e-05 18.037 2.83122e-05 16.6729C2.83122e-05 15.0692 0.672844 13.9079 2.01847 13.189C3.38254 12.4701 5.37333 12.2213 7.99086 12.4425C7.86183 11.5946 7.59454 11.0231 7.18901 10.7282C6.78348 10.4148 6.295 10.2581 5.72357 10.2581C5.26273 10.2581 4.87563 10.2858 4.56227 10.3411C4.26734 10.378 3.99084 10.424 3.73277 10.4793C3.4747 10.5346 3.16134 10.5623 2.79267 10.5623C2.29497 10.5623 1.89866 10.4793 1.60372 10.3134C1.30879 10.1291 1.16133 9.76967 1.16133 9.2351C1.16133 8.47934 1.48391 7.92634 2.12907 7.57611C2.79267 7.20744 3.83415 7.02311 5.25352 7.02311C7.50238 7.02311 9.17059 7.66827 10.2582 8.9586C11.3457 10.2305 11.8895 11.9356 11.8895 14.0738C11.8895 16.5439 11.4379 18.3688 10.5347 19.5485C9.64986 20.7098 8.09224 21.2905 5.86182 21.2905ZM3.98162 16.6729C3.98162 17.7236 4.6913 18.249 6.11067 18.249C6.5715 18.249 6.93095 18.166 7.18901 18.0001C7.44708 17.8342 7.63141 17.5024 7.74201 17.0047C7.87104 16.507 7.96321 15.7605 8.01851 14.7651C7.92634 14.8573 7.80653 14.9218 7.65906 14.9586C7.5116 14.9955 7.36413 15.0139 7.21666 15.0139C6.00006 15.0139 5.15213 15.1338 4.67287 15.3734C4.21204 15.5946 3.98162 16.0278 3.98162 16.6729Z" fill="var(--preview-graphic-text, #3F3833)"/>
</g></g>
<g transform="translate(-0.23 39.58) scale(1 1)"><g id="another? (Stroke)">
<path id="Stroke" d="M112.5 14.0459C112.5 12 111.9 10.3867 110.702 9.20703C109.522 8.00908 107.909 7.41016 105.863 7.41016H104.896C101.983 7.41021 100.528 8.09222 100.527 9.45605C100.527 9.91688 100.665 10.2771 100.941 10.5352L101.063 10.6211C101.374 10.8147 101.868 10.9516 102.546 11.0322L103.202 11.0811C103.921 11.1225 104.827 11.1426 105.919 11.1426C106.841 11.1242 107.505 11.3458 107.91 11.8066C108.315 12.2674 108.518 13.014 108.518 14.0459C108.518 15.0043 108.288 15.7605 107.827 16.3135C107.385 16.8665 106.757 17.1426 105.946 17.1426C104.638 17.1426 103.67 17.198 103.043 17.3086C102.417 17.4007 102.012 17.5762 101.827 17.834C101.643 18.0736 101.55 18.415 101.55 18.8574C101.55 19.4656 101.873 19.8992 102.518 20.1572C103.181 20.4153 104.297 20.5439 105.863 20.5439C107.172 20.5439 108.325 20.2678 109.32 19.7148C110.316 19.1619 111.09 18.3967 111.643 17.4199C112.143 16.5652 112.424 15.5971 112.486 14.5166L112.5 14.0459ZM101.909 25.1338C101.909 25.5601 102.002 25.9339 102.181 26.2578C101.673 26.1627 101.168 26.0379 100.683 25.8721L100.344 25.749L100.338 25.7461C100.376 25.9502 100.436 26.1762 100.528 26.416C100.734 26.949 101.05 27.4228 101.428 27.8008L101.573 27.9395C101.924 28.2557 102.345 28.5192 102.812 28.6992C103.331 28.8996 103.784 28.9492 104.094 28.9492C104.374 28.9492 104.811 28.9062 105.323 28.7119C105.852 28.5113 106.338 28.1963 106.733 27.8008L105.641 26.708L105.67 26.6826C105.685 26.6673 105.698 26.6494 105.713 26.6338L106.83 27.7002C107.177 27.3366 107.454 26.9025 107.643 26.4336C107.051 26.5069 106.457 26.5439 105.863 26.5439C105.841 26.5439 105.818 26.543 105.796 26.543C106.117 26.1605 106.278 25.6913 106.278 25.1338C106.278 24.4886 106.075 23.9631 105.67 23.5576C105.264 23.1522 104.739 22.9492 104.094 22.9492C103.43 22.9493 102.896 23.1522 102.49 23.5576C102.103 23.9631 101.909 24.4886 101.909 25.1338ZM118.493 14.459C118.434 16.4947 117.933 18.5141 116.863 20.374L116.864 20.375C116.861 20.3809 116.857 20.3867 116.854 20.3926C116.843 20.4112 116.832 20.4306 116.821 20.4492L116.82 20.4482C115.725 22.3522 114.176 23.8683 112.273 24.9346C112.275 25.0011 112.278 25.0675 112.278 25.1338C112.278 27.1892 111.554 29.2841 109.913 30.9248C108.238 32.6003 106.113 33.291 104.094 33.291C102.234 33.291 100.225 32.7132 98.5732 31.2334L98.248 30.9248L98.1504 30.8252C96.9342 29.5511 96.2645 28.037 96.0195 26.5088C96.1875 26.2215 96.2734 25.8561 96.2734 25.4102V22.6396C96.3093 22.5208 96.348 22.4023 96.3896 22.2842C96.3494 22.2079 96.3105 22.1315 96.2734 22.0547V19.5205C96.2735 18.7465 96.3665 18.1564 96.5508 17.751C96.7535 17.3274 97.1033 17.042 97.6006 16.8945C98.0983 16.7286 98.7811 16.6455 99.6475 16.6455C100.532 16.6455 101.168 16.5158 101.555 16.2578C101.942 15.9997 102.136 15.6128 102.136 15.0967C102.136 13.7144 101.343 13.0235 99.7578 13.0234C98.9283 13.0234 98.2 13.1798 97.5732 13.4932C97.1 13.7226 96.7112 14.0476 96.4053 14.4668C96.2844 14.3328 96.1699 14.197 96.0625 14.0586C95.989 13.8098 95.8764 13.6119 95.7207 13.4658C95.6761 13.4213 95.6262 13.3816 95.5732 13.3438C94.8749 12.173 94.581 10.9158 94.5342 9.78516L94.5273 9.45605L94.5322 9.17871C94.5816 7.78958 95.0046 6.3572 95.9121 5.08203C96.8393 3.77938 98.0308 2.977 99.0742 2.48828C101.006 1.58358 103.161 1.41018 104.896 1.41016H105.863C109.116 1.41016 112.376 2.39689 114.911 4.93164C117.495 7.47594 118.5 10.7648 118.5 14.0459L118.493 14.459Z" fill="var(--preview-graphic-fill, #FADE26)"/>
<path id="Stroke_2" d="M99.7578 19.0234C99.6941 19.0234 99.8818 19.0299 100.189 18.8896L99.7578 17.998V19.0234ZM99.6475 19.0146C99.712 19.0204 99.7502 19.0234 99.7578 19.0234V17.998L99.6475 17.7705V19.0146ZM98.292 18.542L99.0762 18.8994C99.0921 18.9043 99.1076 18.9096 99.123 18.9141C99.3574 18.9822 99.5394 19.0051 99.6475 19.0146V17.7705L99.3672 17.1943L98.292 16.9199V18.542ZM99.7578 17.998L100.189 18.8896C100.203 18.8836 100.217 18.8778 100.23 18.8711C100.239 18.8668 100.247 18.8619 100.256 18.8574L99.7578 17.8613V17.998ZM99.7578 17.8613L100.256 18.8574C100.477 18.7425 100.708 18.5855 100.922 18.3799C101.098 18.2111 101.234 18.0375 101.338 17.877L101.431 17.7207L99.7578 17.2939V17.8613ZM99.6475 17.7705L99.7578 17.998V17.8613L99.6475 17.6406V17.7705ZM99.6475 17.6406L99.7578 17.8613V17.2939L99.6475 17.2656V17.6406ZM99.6475 17.7705V17.6406L99.4316 17.2109L99.3672 17.1943L99.6475 17.7705ZM99.6475 17.6406V17.2656L99.4316 17.2109L99.6475 17.6406ZM92.292 25.4102C92.292 26.5853 92.8755 27.2098 94.042 27.2832L94.2832 27.291C95.6103 27.291 96.2734 26.6636 96.2734 25.4102V19.5205C96.2735 18.8433 96.3443 18.3072 96.4854 17.9121L96.5508 17.751C96.6374 17.57 96.7522 17.4157 96.8926 17.2852C96.971 17.3955 97.0562 17.5067 97.1514 17.6162C97.3832 17.3645 97.5672 17.1085 97.7148 16.8594C98.1632 16.7282 98.7457 16.6577 99.4629 16.6475L99.6475 16.6455C100.532 16.6455 101.168 16.5158 101.555 16.2578C101.893 16.032 102.085 15.7077 102.127 15.2842L102.136 15.0967C102.136 13.7144 101.343 13.0235 99.7578 13.0234C98.9283 13.0234 98.2 13.1798 97.5732 13.4932C96.9651 13.7881 96.4949 14.2395 96.1631 14.8477C96.163 14.2028 96.0155 13.7423 95.7207 13.4658C95.4258 13.1709 94.9467 13.0235 94.2832 13.0234C92.9561 13.0234 92.2921 13.659 92.292 14.9307V25.4102ZM108.136 15.0967C108.136 15.3712 108.12 15.6476 108.091 15.9238C108.013 16.0626 107.927 16.1937 107.827 16.3135C107.385 16.8665 106.757 17.1426 105.946 17.1426C104.638 17.1426 103.67 17.198 103.043 17.3086C102.417 17.4007 102.012 17.5762 101.827 17.834C101.643 18.0736 101.55 18.415 101.55 18.8574C101.55 19.4656 101.873 19.8992 102.518 20.1572C103.17 20.4109 104.259 20.5387 105.784 20.543C105.509 20.7947 105.21 21.0329 104.883 21.251C104.022 21.8247 103.116 22.1633 102.273 22.3633V23.8311C102.032 24.191 101.909 24.6244 101.909 25.1338C101.909 25.5948 102.015 25.9956 102.225 26.3369C102.067 27.8535 101.482 29.6845 99.8955 31.1826C98.0333 32.9412 95.7888 33.291 94.2832 33.291C92.7775 33.291 90.5322 32.9415 88.6699 31.1826C87.3732 29.9579 86.7459 28.5103 86.4736 27.1943C87.1049 27.1089 87.6077 26.968 87.9805 26.7656C88.644 26.397 88.9756 25.8339 88.9756 25.0781C88.9755 24.544 88.8279 24.1942 88.5332 24.0283C88.2383 23.844 87.8414 23.751 87.3438 23.751C86.9938 23.751 86.6806 23.7787 86.4043 23.834C86.3674 23.8419 86.3296 23.8485 86.292 23.8564V21.9658C88.6153 21.4034 89.7773 20.0268 89.7773 17.834C89.7773 16.8203 89.5288 15.9631 89.0312 15.2627C88.5336 14.5438 87.8418 13.9906 86.957 13.6035C86.7845 13.528 86.6062 13.4621 86.4238 13.4014C86.6622 12.0281 87.274 10.4758 88.6387 9.16797C90.4995 7.38484 92.7571 7.02344 94.2832 7.02344C94.9473 7.02345 95.8669 7.0895 96.8604 7.38672C97.8337 7.13104 98.8111 7.02344 99.7578 7.02344C100.643 7.02345 101.775 7.13068 102.945 7.54492C101.333 7.80472 100.527 8.44138 100.527 9.45605C100.527 9.91688 100.665 10.2771 100.941 10.5352C101.236 10.7748 101.772 10.9401 102.546 11.0322C103.339 11.1059 104.463 11.1426 105.919 11.1426C106.47 11.1316 106.927 11.2089 107.294 11.3691C107.924 12.6476 108.136 13.9762 108.136 15.0967ZM90.1631 14.8477C90.1631 14.8833 90.1552 15.6358 90.6309 16.5518C90.7448 16.1287 90.8932 15.6969 91.0879 15.2686L91.1377 15.1621C91.1471 15.1424 91.1574 15.1231 91.167 15.1035L90.1631 14.8477Z" fill="var(--preview-graphic-fill, #FADE26)"/>
<path id="Stroke_3" d="M83.916 7.02344C85.7369 7.02349 87.5933 7.3325 89.3623 8.10645C91.1354 8.88219 92.7292 10.0914 93.9209 11.7871H93.9219C93.9266 11.7937 93.9309 11.801 93.9355 11.8076C93.9449 11.821 93.9546 11.8342 93.9639 11.8477H93.9629C94.2354 12.2373 94.4723 12.6372 94.6777 13.0439C94.5544 13.0309 94.4229 13.0234 94.2832 13.0234C92.9561 13.0234 92.2921 13.659 92.292 14.9307V25.4102C92.292 26.6636 92.956 27.291 94.2832 27.291C94.4228 27.291 94.5548 27.2815 94.6797 27.2676C94.5073 27.886 94.2521 28.5087 93.8936 29.1162C93.1022 30.457 92.0046 31.3925 90.8936 32.0098L90.8428 32.0381C88.8276 33.132 86.5326 33.291 84.8838 33.291C82.6388 33.291 80.1836 32.9593 77.9746 31.8115L77.5361 31.5703L77.4961 31.5469C75.7391 30.5115 74.3122 29.0714 73.3291 27.2822C74.4633 27.21 75.0301 26.5961 75.0303 25.4385V18.8018C75.0302 17.6223 74.7728 16.6085 74.2568 15.7607C73.8742 15.0946 73.3705 14.5437 72.748 14.1064C73.2755 12.8006 74.043 11.5547 75.1387 10.4668L75.3711 10.2402C77.7991 7.94277 80.8557 7.02344 83.916 7.02344ZM83.916 13.0234C82.0174 13.0234 80.5053 13.5855 79.3809 14.71C78.2565 15.816 77.6943 17.6409 77.6943 20.1846C77.6943 21.567 77.9061 22.7932 78.3301 23.8623C78.7724 24.9312 79.51 25.7697 80.542 26.3779C81.5927 26.9862 83.0405 27.291 84.8838 27.291C86.3029 27.291 87.3354 27.1158 87.9805 26.7656C88.644 26.397 88.9756 25.8339 88.9756 25.0781C88.9755 24.544 88.8279 24.1942 88.5332 24.0283C88.2383 23.844 87.8414 23.751 87.3438 23.751C86.9938 23.751 86.6806 23.7787 86.4043 23.834C86.1462 23.8893 85.8692 23.9447 85.5742 24C85.2793 24.0553 84.8922 24.083 84.4131 24.083C83.5471 24.083 82.9391 23.9264 82.5889 23.6133C82.2571 23.2815 82.0166 22.8292 81.8691 22.2578H83.4736C87.6761 22.2577 89.7773 20.7832 89.7773 17.834C89.7773 16.8203 89.5288 15.9631 89.0312 15.2627C88.5336 14.5438 87.8418 13.9906 86.957 13.6035C86.0724 13.2165 85.0586 13.0235 83.916 13.0234ZM83.8604 16.0645C84.4502 16.0645 84.9391 16.2584 85.3262 16.6455C85.713 17.0142 85.9062 17.5488 85.9062 18.249C85.9062 18.802 85.6944 19.1889 85.2705 19.4102C84.865 19.6129 84.1186 19.7148 83.0312 19.7148C82.6442 19.7148 82.3582 19.7515 82.1738 19.8252C81.9895 19.8805 81.8232 20.0092 81.6758 20.2119C81.6758 18.5899 81.8698 17.4933 82.2568 16.9219C82.6439 16.3505 83.1783 16.0645 83.8604 16.0645Z" fill="var(--preview-graphic-fill, #FADE26)"/>
<path id="Stroke_4" d="M56.6475 7.8584C56.6928 6.32522 57.1086 4.21202 58.7676 2.43945C60.607 0.474052 62.9589 0 64.6621 0C66.3794 3.37407e-05 68.7339 0.487812 70.5635 2.46973C72.077 4.10943 72.5355 6.03065 72.6309 7.50977C73.2986 7.69754 73.9594 7.94353 74.6055 8.25781L74.9678 8.44238C76.8004 9.4149 78.3104 10.8333 79.3809 12.6406H79.3818L79.4131 12.6943C79.4282 12.7201 79.4441 12.7455 79.459 12.7715H79.458C79.7129 13.2036 79.9335 13.6439 80.1211 14.0908C79.8584 14.2739 79.6111 14.4797 79.3809 14.71C78.2565 15.816 77.6943 17.6409 77.6943 20.1846C77.6943 21.567 77.9061 22.7932 78.3301 23.8623C78.7724 24.9312 79.51 25.7697 80.542 26.3779C80.673 26.4538 80.8108 26.5244 80.9541 26.5908C80.7656 28.0373 80.1769 29.744 78.6953 31.1621C76.8436 32.9343 74.6006 33.291 73.0947 33.291C71.8271 33.291 70.32 33.0319 68.8906 32.2139C67.394 33.0842 65.8306 33.291 64.6895 33.291C63.1688 33.291 61.3013 32.9224 59.6396 31.6572L59.3105 31.3926C57.9021 30.1954 57.1678 28.7115 56.8477 27.29C56.8577 27.2901 56.8679 27.291 56.8779 27.291C57.9285 27.291 58.6936 27.1158 59.1729 26.7656C59.6521 26.397 59.8916 25.8339 59.8916 25.0781C59.8915 24.5439 59.744 24.1942 59.4492 24.0283C59.1544 23.844 58.7582 23.751 58.2607 23.751C57.9658 23.751 57.7164 23.7886 57.5137 23.8623C57.3293 23.9176 57.0432 23.9453 56.6562 23.9453C56.652 23.9453 56.6478 23.9444 56.6436 23.9443V16.5898H58.1221C59.3755 16.5898 60.002 16.0278 60.002 14.9033C60.0019 13.7974 59.3755 13.2441 58.1221 13.2441H56.6436V8.15723L56.6475 7.8584ZM62.6436 25.4385L62.6523 25.6592C62.6927 26.1591 62.8738 26.5461 63.1963 26.8203C63.5189 27.0946 63.9406 27.249 64.4609 27.2832L64.6895 27.291C65.8992 27.291 66.5416 26.7477 66.6172 25.6621L66.625 25.4385V18.9678C66.625 18.1199 66.819 17.4746 67.2061 17.0322C67.5931 16.5716 68.1277 16.3408 68.8096 16.3408C69.5099 16.3409 70.0534 16.5626 70.4404 17.0049C70.8459 17.4473 71.0488 18.1015 71.0488 18.9678V25.4385L71.0576 25.6592C71.0979 26.1592 71.28 26.5461 71.6025 26.8203C71.9251 27.0944 72.3461 27.2489 72.8662 27.2832L73.0947 27.291C74.3045 27.291 74.9479 26.7477 75.0234 25.6621L75.0303 25.4385V18.8018C75.0302 17.6223 74.7728 16.6085 74.2568 15.7607C73.7592 14.8944 73.0584 14.2214 72.1553 13.7422C71.2521 13.263 70.1921 13.0235 68.9756 13.0234C68.2936 13.0234 67.6939 13.1066 67.1777 13.2725C66.6618 13.4384 66.2469 13.7146 65.9336 14.1016C66.1917 13.5854 66.3767 13.0877 66.4873 12.6084C66.5979 12.1292 66.6523 11.6313 66.6523 11.1152V8.15723C66.6523 6.71949 65.9892 6.00006 64.6621 6C63.3165 6 62.6436 6.71943 62.6436 8.15723V25.4385Z" fill="var(--preview-graphic-fill, #FADE26)"/>
<path id="Stroke_5" d="M59.8916 25.0781C59.8915 24.6105 59.7786 24.284 59.5527 24.0986L59.4492 24.0283C59.1544 23.844 58.7582 23.751 58.2607 23.751C57.9658 23.751 57.7164 23.7886 57.5137 23.8623L57.3564 23.8984C57.1802 23.9295 56.9465 23.9453 56.6562 23.9453L56.5498 23.9395C56.31 23.9152 56.1334 23.8068 56.0205 23.6133C55.8915 23.3736 55.8271 22.9768 55.8271 22.4238V16.5898H58.1221C59.3755 16.5898 60.002 16.0278 60.002 14.9033C60.0019 13.7974 59.3755 13.2441 58.1221 13.2441H55.4951C55.7163 12.8018 55.8271 12.2396 55.8271 11.5576V10.2031C55.8271 9.57639 55.652 9.08754 55.3018 8.7373C54.9515 8.36869 54.4814 8.18457 53.8916 8.18457C53.2834 8.18458 52.7855 8.37767 52.3984 8.76465C52.0298 9.15167 51.8458 9.64968 51.8457 10.2578V13.2441H51.127L50.8994 13.251C49.7975 13.3157 49.2461 13.8663 49.2461 14.9033C49.2461 15.9576 49.7975 16.5172 50.8994 16.583L51.127 16.5898H51.8457V22.3408C51.8457 24.0182 52.2514 25.2632 53.0625 26.0742C53.8559 26.8497 55.0538 27.2533 56.6562 27.2871L56.8779 27.291C57.7971 27.291 58.4977 27.1567 58.9795 26.8887L59.1729 26.7656C59.6521 26.397 59.8916 25.8339 59.8916 25.0781ZM43.4639 16.7998C43.7271 17.0177 43.9355 17.3525 44.0869 17.8066C44.2016 18.1195 44.2822 18.5064 44.332 18.9668C43.9026 18.2507 43.629 17.5103 43.4639 16.7998ZM65.959 14.0723C65.9507 14.0821 65.9417 14.0916 65.9336 14.1016C65.9419 14.085 65.9479 14.0673 65.9561 14.0508C65.9568 14.058 65.9583 14.0651 65.959 14.0723ZM62.6436 25.4385C62.6437 26.0464 62.8279 26.507 63.1963 26.8203C63.5649 27.1337 64.0628 27.291 64.6895 27.291C65.0655 27.291 65.3859 27.2357 65.6523 27.1309C65.2797 28.6934 64.4312 30.2895 62.8311 31.5205L62.7129 31.6094C60.6772 33.097 58.3353 33.291 56.8779 33.291C54.4172 33.291 51.4479 32.7353 49.0938 30.5781L48.8672 30.3643L48.8193 30.3164C47.5016 28.9986 46.7304 27.4611 46.3047 25.9199C46.4262 25.8195 46.5449 25.715 46.6582 25.6035C47.8009 24.4791 48.373 22.6639 48.373 20.1572C48.373 17.6319 47.8011 15.816 46.6582 14.71C45.8114 13.8768 44.7369 13.3525 43.4346 13.1367C43.7242 11.8019 44.3941 10.354 45.7471 9.16016C45.81 9.10461 45.8748 9.05247 45.9385 9C46.1633 7.4696 46.8157 5.92689 48.0537 4.62695L48.1562 4.52246C49.7985 2.88027 51.8859 2.18458 53.8916 2.18457C55.7975 2.18457 57.8913 2.8247 59.542 4.49609L59.5439 4.49512C59.5583 4.50945 59.5718 4.52468 59.5859 4.53906C59.6074 4.56112 59.6301 4.58208 59.6514 4.60449L59.6484 4.60547C60.6297 5.62532 61.2094 6.77854 61.5205 7.91016C61.8953 8.07075 62.2718 8.26881 62.6436 8.51074V25.4385Z" fill="var(--preview-graphic-fill, #FADE26)"/>
<path id="Stroke_6" d="M48.373 20.1572C48.373 17.6319 47.8011 15.816 46.6582 14.71C45.5153 13.5855 43.9577 13.0234 41.9854 13.0234C40.0131 13.0235 38.4553 13.5856 37.3125 14.71C36.1698 15.816 35.5986 17.632 35.5986 20.1572L35.6055 20.6191C35.6725 22.888 36.2413 24.5494 37.3125 25.6035C38.4553 26.7279 40.0131 27.291 41.9854 27.291C43.9577 27.291 45.5153 26.7279 46.6582 25.6035C47.7295 24.5494 48.2992 22.8881 48.3662 20.6191L48.373 20.1572ZM42.373 20.1572C42.373 19.9257 42.3635 19.7239 42.3516 19.5498L42.0479 19.0254C42.0277 19.0251 42.0068 19.0234 41.9854 19.0234V21.291C41.9879 21.291 41.9906 21.29 41.9932 21.29L42.3594 20.623C42.3665 20.4836 42.373 20.3287 42.373 20.1572ZM41.6484 21.0781C41.6575 21.1516 41.6697 21.2173 41.6797 21.2764C41.7101 21.279 41.7429 21.2813 41.7783 21.2832L41.6484 21.0781ZM42.1914 21.2832C42.2269 21.2813 42.2597 21.279 42.29 21.2764C42.3001 21.2173 42.3122 21.1516 42.3213 21.0781L42.1914 21.2832ZM42.3516 19.5498C42.3487 19.5081 42.3432 19.4683 42.3398 19.4297L42.0977 19.0264C42.0815 19.0259 42.0649 19.0256 42.0479 19.0254L42.3516 19.5498ZM42.3398 19.4297C42.3264 19.2741 42.3098 19.1438 42.292 19.0361C42.2359 19.0312 42.1714 19.0284 42.0977 19.0264L42.3398 19.4297ZM41.7959 19.0293C41.7529 19.0314 41.7136 19.0329 41.6777 19.0361C41.6665 19.1043 41.6554 19.1815 41.6455 19.2686L41.7959 19.0293ZM41.9854 20.1572V19.0234C41.9155 19.0234 41.8526 19.0265 41.7959 19.0293L41.6455 19.2686C41.6197 19.4954 41.5986 19.7884 41.5986 20.1572H41.9854ZM41.6025 20.4482C41.6064 20.575 41.6142 20.6907 41.6221 20.7959L41.9072 21.2881C41.9323 21.2886 41.9583 21.291 41.9854 21.291V20.1572H41.5986L41.6025 20.4482ZM44.3867 20.5264C44.3645 21.3629 44.2643 22.023 44.0869 22.5068C43.9026 23.0597 43.6353 23.4467 43.2852 23.668C42.9349 23.8707 42.5015 23.9727 41.9854 23.9727C41.4877 23.9726 41.0542 23.8707 40.6855 23.668C40.3356 23.4467 40.0591 23.0596 39.8564 22.5068C39.6952 22.023 39.6041 21.3629 39.584 20.5264L39.5801 20.1572C39.5801 19.1434 39.6721 18.3596 39.8564 17.8066C40.0592 17.2538 40.3354 16.8757 40.6855 16.6729C41.0542 16.4517 41.4877 16.3408 41.9854 16.3408C42.5015 16.3408 42.9349 16.4517 43.2852 16.6729C43.6354 16.8756 43.9026 17.2536 44.0869 17.8066C44.2897 18.3596 44.3906 19.1434 44.3906 20.1572L44.3867 20.5264ZM51.8457 22.3408C51.8457 24.0182 52.2514 25.2632 53.0625 26.0742C53.1314 26.1416 53.2043 26.2049 53.2793 26.2666C52.7411 27.5639 51.9653 28.7995 50.8662 29.8809C48.3543 32.3522 45.1482 33.291 41.9854 33.291C38.8225 33.291 35.6164 32.3522 33.1045 29.8809C32.2967 29.0861 31.6638 28.2077 31.1709 27.2832C32.3472 27.2141 32.9355 26.5902 32.9355 25.4102V18.7744C32.9355 17.0048 32.3636 15.6036 31.2207 14.5713C31.0418 14.4071 30.8528 14.2572 30.6553 14.1191C31.1934 12.7946 31.9797 11.5326 33.1045 10.4336V10.4326C35.6164 7.96124 38.8225 7.02347 41.9854 7.02344C45.1333 7.02344 48.3235 7.95314 50.8301 10.3984H50.8311C50.8327 10.4 50.8343 10.4017 50.8359 10.4033C50.846 10.4131 50.8562 10.4228 50.8662 10.4326H50.8652C51.2259 10.7849 51.5517 11.1537 51.8457 11.5361V13.2441H51.127C49.8735 13.2441 49.2461 13.7974 49.2461 14.9033C49.2461 16.0278 49.8735 16.5898 51.127 16.5898H51.8457V22.3408Z" fill="var(--preview-graphic-fill, #FADE26)"/>
<path id="Stroke_7" d="M28.9619 25.6377C29.0344 26.666 29.6145 27.2145 30.7031 27.2832L30.9443 27.291C32.1887 27.291 32.8501 26.7396 32.9277 25.6377L32.9355 25.4102V18.7744C32.9355 17.0048 32.3636 15.6036 31.2207 14.5713C30.0964 13.5393 28.6036 13.0235 26.7422 13.0234C24.8804 13.0234 23.3772 13.539 22.2344 14.5713C21.11 15.6035 20.5479 17.0049 20.5479 18.7744V25.4102C20.5479 26.5853 21.1314 27.2097 22.2979 27.2832L22.5391 27.291C23.8662 27.291 24.5293 26.6636 24.5293 25.4102V18.9951C24.5294 18.129 24.7233 17.4746 25.1104 17.0322C25.4974 16.5714 26.0418 16.3408 26.7422 16.3408C27.4424 16.3409 27.986 16.5716 28.373 17.0322C28.7601 17.4746 28.954 18.129 28.9541 18.9951V25.4102L28.9619 25.6377ZM37.3125 25.6035C37.7597 26.0435 38.2714 26.3962 38.8457 26.6641C38.6401 28.1114 38.0312 29.7908 36.5576 31.1826C34.6953 32.9415 32.45 33.291 30.9443 33.291C29.8044 33.291 28.2417 33.089 26.7412 32.2285C25.241 33.0886 23.6788 33.291 22.5391 33.291C21.0334 33.291 18.7881 32.9415 16.9258 31.1826C15.5203 29.8552 14.9017 28.266 14.6689 26.8662C15.4635 26.576 16.0855 26.1376 16.5342 25.5488C17.4374 24.3691 17.8896 22.5441 17.8896 20.0742C17.8896 17.936 17.3453 16.2309 16.2578 14.959C16.0041 14.658 15.7173 14.3939 15.4004 14.1631C15.9872 12.6955 16.8948 11.3283 18.1768 10.1514L18.2129 10.1191L18.4463 9.91406C20.8694 7.83829 23.8154 7.02344 26.7422 7.02344C29.7448 7.02352 32.7856 7.88274 35.2422 10.1191H35.2432L35.2646 10.1387C35.2692 10.1429 35.2737 10.1472 35.2783 10.1514H35.2773C36.5483 11.3088 37.4572 12.6535 38.0508 14.1016C37.7882 14.2819 37.5417 14.4844 37.3125 14.71C36.1698 15.816 35.5986 17.632 35.5986 20.1572C35.5987 22.6638 36.1699 24.4791 37.3125 25.6035Z" fill="var(--preview-graphic-fill, #FADE26)"/>
<path id="Stroke_8" d="M17.8896 20.0742C17.8896 17.936 17.3453 16.2309 16.2578 14.959C15.1702 13.6687 13.5018 13.0234 11.2529 13.0234C9.83378 13.0235 8.79245 13.2076 8.12891 13.5762C7.48374 13.9264 7.16113 14.4796 7.16113 15.2354C7.16117 15.7698 7.30862 16.1292 7.60352 16.3135C7.89836 16.4793 8.2945 16.5625 8.79199 16.5625C9.1606 16.5625 9.47438 16.5348 9.73242 16.4795C9.99049 16.4242 10.2676 16.3777 10.5625 16.3408C10.8758 16.2856 11.2631 16.2578 11.7236 16.2578C12.2949 16.2579 12.783 16.4152 13.1885 16.7285C13.594 17.0234 13.8612 17.5946 13.9902 18.4424C11.373 18.2212 9.38255 18.4706 8.01855 19.1895C6.67296 19.9083 6.00004 21.0692 6 22.6729C6 24.0368 6.51574 25.1522 7.54785 26.0186C8.58007 26.8664 10.0181 27.291 11.8613 27.291C14.0916 27.291 15.6493 26.71 16.5342 25.5488C17.381 24.4428 17.8309 22.7695 17.8838 20.5293L17.8896 20.0742ZM14.0186 20.7656C13.9633 21.7608 13.8712 22.5073 13.7422 23.0049C13.6316 23.5026 13.4465 23.8341 13.1885 24C12.9304 24.1658 12.5711 24.249 12.1104 24.249C10.691 24.249 9.98145 23.7235 9.98145 22.6729C9.98148 22.0278 10.2121 21.5942 10.6729 21.373C11.1522 21.1335 12.0005 21.0137 13.2168 21.0137C13.3641 21.0136 13.5118 20.9958 13.6592 20.959C13.8065 20.9221 13.9265 20.8577 14.0186 20.7656ZM20.5479 25.4102C20.5479 26.6404 21.1874 27.2653 22.4658 27.2881C22.1465 27.9499 21.7615 28.5897 21.2979 29.1953C18.7795 32.4912 14.9471 33.291 11.8613 33.291C9.23716 33.291 6.37476 32.7063 3.9707 30.8398L3.73926 30.6553L3.69141 30.6143C1.28179 28.5919 0 25.7853 0 22.6729C2.05054e-05 21.0213 0.352097 19.2497 1.3125 17.5918C1.35633 17.5161 1.40273 17.4419 1.44824 17.3682C1.2579 16.6725 1.18456 16.0279 1.16602 15.5195L1.16113 15.2354L1.1748 14.7607C1.23778 13.6368 1.53276 12.4098 2.2207 11.2305C3.00046 9.89378 4.09089 8.95293 5.21582 8.33203L5.21484 8.33105C5.2249 8.32547 5.23505 8.31999 5.24512 8.31445C5.25215 8.31061 5.25956 8.30655 5.2666 8.30273V8.30371C7.28887 7.19852 9.57305 7.02346 11.2529 7.02344C14.6333 7.02344 18.2422 8.02766 20.8174 11.0596H20.8184C21.6438 12.025 22.2754 13.0703 22.7461 14.1621C22.5685 14.2883 22.3973 14.4241 22.2344 14.5713C21.11 15.6035 20.5479 17.0049 20.5479 18.7744V25.4102Z" fill="var(--preview-graphic-fill, #FADE26)"/>
</g></g>
</svg>
