<svg preserveAspectRatio="none" width="100%" height="100%" overflow="visible" style="display: block;" viewBox="0 0 8.20513 5.64103" fill="none" xmlns="http://www.w3.org/2000/svg">
<path id="Vector" d="M6.98064 5.64102H1.22449C0.997245 5.64133 0.774551 5.58208 0.582187 5.47012C0.389822 5.35817 0.235653 5.1981 0.137524 5.00843C0.0226521 4.78339 -0.0215917 4.53302 0.00983393 4.28584C0.0412595 4.03866 0.147091 3.80463 0.315267 3.6104L3.19334 0.384178C3.30629 0.263587 3.44593 0.166873 3.6028 0.100589C3.75967 0.0343045 3.93011 0 4.10256 0C4.27502 0 4.44546 0.0343045 4.60233 0.100589C4.7592 0.166873 4.89884 0.263587 5.01179 0.384178L7.88986 3.6104C8.05804 3.80463 8.16387 4.03866 8.19529 4.28584C8.22672 4.53302 8.18247 4.78339 8.0676 5.00843C7.96947 5.1981 7.8153 5.35817 7.62294 5.47012C7.43058 5.58208 7.20788 5.64133 6.98064 5.64102Z" fill="currentColor"/>
</svg>
