<svg width="42" height="44" viewBox="0 0 42 44" fill="none" xmlns="http://www.w3.org/2000/svg">
<rect width="40" height="40" rx="20" transform="matrix(-1 0 0 1 40 1)" fill="#73A94A"/>
<path d="M15.0186 30.4062C14.4686 30.4062 13.9979 30.2106 13.6066 29.8193C13.2152 29.4279 13.0192 28.9569 13.0186 28.4062V15.4062C12.7352 15.4062 12.4979 15.3102 12.3066 15.1182C12.1152 14.9262 12.0192 14.6889 12.0186 14.4062C12.0179 14.1236 12.1139 13.8863 12.3066 13.6943C12.4992 13.5023 12.7366 13.4062 13.0186 13.4062H17.0186C17.0186 13.1229 17.1146 12.8856 17.3066 12.6943C17.4986 12.5029 17.7359 12.4069 18.0186 12.4062H22.0186C22.3019 12.4062 22.5396 12.5023 22.7316 12.6943C22.9236 12.8863 23.0192 13.1236 23.0186 13.4062H27.0186C27.3019 13.4062 27.5396 13.5023 27.7316 13.6943C27.9236 13.8863 28.0192 14.1236 28.0186 14.4062C28.0179 14.6889 27.9219 14.9266 27.7306 15.1192C27.5392 15.3119 27.3019 15.4076 27.0186 15.4062V28.4062C27.0186 28.9562 26.8229 29.4272 26.4316 29.8193C26.0402 30.2113 25.5692 30.4069 25.0186 30.4062H15.0186ZM18.7316 26.1182C18.9229 25.9276 19.0186 25.6903 19.0186 25.4062V18.4062C19.0186 18.1229 18.9226 17.8856 18.7306 17.6943C18.5386 17.5029 18.3012 17.4069 18.0186 17.4062C17.7359 17.4056 17.4986 17.5016 17.3066 17.6943C17.1146 17.8869 17.0186 18.1242 17.0186 18.4062V25.4062C17.0186 25.6896 17.1146 25.9272 17.3066 26.1192C17.4986 26.3112 17.7359 26.4069 18.0186 26.4062C18.3012 26.4056 18.5389 26.3096 18.7316 26.1182ZM22.7316 26.1182C22.9229 25.9276 23.0186 25.6903 23.0186 25.4062V18.4062C23.0186 18.1229 22.9226 17.8856 22.7306 17.6943C22.5386 17.5029 22.3012 17.4069 22.0186 17.4062C21.7359 17.4056 21.4986 17.5016 21.3066 17.6943C21.1146 17.8869 21.0186 18.1242 21.0186 18.4062V25.4062C21.0186 25.6896 21.1146 25.9272 21.3066 26.1192C21.4986 26.3112 21.7359 26.4069 22.0186 26.4062C22.3012 26.4056 22.5389 26.3096 22.7316 26.1182Z" fill="#E8FF76"/>
<circle cx="6" cy="6" r="6" transform="matrix(-1 0 0 1 42 0)" fill="#73A94A"/>
<circle cx="6" cy="6" r="6" transform="matrix(-1 0 0 1 12 32)" fill="#73A94A"/>
</svg>
