<svg width="42" height="44" viewBox="0 0 42 44" fill="none" xmlns="http://www.w3.org/2000/svg">
<rect x="2" y="1" width="40" height="40" rx="20" fill="#FADE26"/>
<path d="M28.629 16.0278C28.6284 15.9287 28.6336 15.8297 28.6448 15.7312C28.6648 15.5395 28.6965 15.3378 28.7306 15.1178C28.7512 14.9901 28.7717 14.8548 28.7923 14.712C28.839 14.3812 28.8915 13.9562 28.8323 13.6303C28.8048 13.4762 28.7223 13.1687 28.424 12.9887C28.099 12.7937 27.7665 12.8903 27.5781 12.9778C27.1231 13.1895 26.5856 13.4245 26.0856 13.582C25.8356 13.6603 25.6098 13.7153 25.419 13.7387C25.2206 13.7637 25.1006 13.752 25.0406 13.7345C24.224 13.4928 23.3398 13.362 22.4165 13.362C21.6148 13.362 20.8415 13.4612 20.1181 13.6453C19.7898 13.7287 19.4423 13.687 19.0265 13.5495C18.7276 13.4437 18.4344 13.3224 18.1481 13.1862C17.9976 13.1167 17.8359 13.0445 17.6631 12.9695C17.4256 12.8687 17.1215 12.8295 16.829 12.9878C16.5673 13.1295 16.4356 13.3687 16.3681 13.5395C16.234 13.8745 16.2015 14.3137 16.1898 14.6687C16.1831 14.8812 16.1831 15.1353 16.1823 15.3603C16.1823 15.5037 16.1823 15.6353 16.1806 15.737C16.1779 15.8887 16.1715 16.0023 16.1615 16.0778V16.082C15.5115 16.9153 15.1248 17.9053 15.1248 18.977C15.1248 20.5745 15.9831 22.1462 17.3281 23.1528C17.9856 23.6445 18.7531 23.9987 19.5856 24.2312C19.3976 24.5697 19.2968 24.9498 19.2923 25.337V26.052H18.1773C17.8881 26.052 17.5098 25.8228 17.0973 25.3712C16.7123 24.9495 16.419 24.4695 16.284 24.2478C15.9948 23.7712 15.539 23.5028 14.9923 23.4362C14.8276 23.4161 14.6617 23.4622 14.5311 23.5644C14.4004 23.6666 14.3157 23.8165 14.2956 23.9812C14.2755 24.1458 14.3216 24.3117 14.4238 24.4424C14.5261 24.573 14.676 24.6577 14.8406 24.6778C15.0431 24.702 15.1431 24.7778 15.2156 24.897L15.2173 24.9003C15.3556 25.127 15.7015 25.697 16.174 26.2137C16.6198 26.7028 17.3198 27.302 18.1773 27.302H19.2915L19.2923 28.5003C19.2923 28.8453 19.5723 29.1253 19.9173 29.1253H25.3315C25.4969 29.1249 25.6555 29.0589 25.7723 28.9417C25.8892 28.8245 25.9548 28.6658 25.9548 28.5003V25.3628C25.9548 24.9528 25.8365 24.5437 25.6315 24.1395C26.3698 23.9103 27.0548 23.587 27.6348 23.1528C29.0098 22.1237 29.7081 20.537 29.7081 18.977C29.7081 17.8812 29.304 16.872 28.629 16.0278Z" fill="#3F3833"/>
<circle cx="6" cy="6" r="6" fill="#FADE26"/>
<circle cx="36" cy="38" r="6" fill="#FADE26"/>
</svg>
