<svg preserveAspectRatio="none" width="100%" height="100%" overflow="visible" style="display: block;" viewBox="0 0 199.999 200" fill="none" xmlns="http://www.w3.org/2000/svg">
<path id="Union" d="M97.5077 0.211603C101.08 -0.418326 104.574 0.389456 107.395 2.21844C109.342 1.18335 111.564 0.596369 113.923 0.596369C118.215 0.596499 122.053 2.54026 124.607 5.59442C126.79 4.81052 129.201 4.56712 131.648 4.99871C135.823 5.73486 139.224 8.27851 141.191 11.6823C143.438 11.3185 145.806 11.5059 148.097 12.3395C151.766 13.675 154.523 16.4071 155.987 19.7165C158.087 19.8276 160.193 20.4221 162.139 21.5456C165.658 23.5768 167.941 26.9253 168.727 30.6081C170.902 31.0517 173 32.0284 174.82 33.5554C177.859 36.1057 179.521 39.6882 179.723 43.36C181.77 44.1758 183.652 45.4956 185.168 47.3024C187.704 50.3253 188.72 54.1175 188.3 57.7507C190.287 58.9181 192.008 60.5996 193.243 62.738C195.34 66.3707 195.595 70.5607 194.299 74.2282C195.956 75.6985 197.282 77.5901 198.093 79.818C199.542 83.7995 199.041 88.0149 197.079 91.4196C198.425 93.1409 199.382 95.2073 199.788 97.5095C200.418 101.082 199.609 104.575 197.78 107.397C198.815 109.344 199.402 111.565 199.402 113.924C199.402 118.216 197.458 122.054 194.404 124.608C195.188 126.791 195.432 129.201 195.001 131.648C194.265 135.823 191.721 139.224 188.317 141.191C188.681 143.438 188.494 145.805 187.66 148.095C186.325 151.764 183.593 154.521 180.284 155.985C180.173 158.086 179.579 160.194 178.455 162.141C176.423 165.66 173.074 167.943 169.39 168.729C168.947 170.903 167.971 173.001 166.444 174.82C163.894 177.859 160.313 179.519 156.641 179.721C155.826 181.77 154.506 183.654 152.698 185.171C149.674 187.708 145.881 188.724 142.247 188.302C141.08 190.288 139.399 192.009 137.262 193.243C133.629 195.34 129.44 195.595 125.773 194.299C124.303 195.957 122.411 197.283 120.183 198.093C116.202 199.543 111.987 199.042 108.582 197.08C106.861 198.426 104.794 199.383 102.492 199.789C98.5216 200.489 94.6487 199.414 91.6873 197.134C89.4982 198.569 86.8816 199.404 84.0692 199.404C79.9992 199.404 76.3376 197.657 73.7918 194.873C72.0558 195.267 70.2145 195.331 68.3514 195.003C64.1768 194.267 60.7748 191.723 58.8075 188.319C56.5621 188.682 54.1953 188.495 51.9061 187.662C48.2367 186.326 45.4798 183.594 44.0155 180.284C41.9142 180.173 39.8064 179.579 37.8592 178.455C34.3409 176.423 32.0569 173.075 31.2704 169.392C29.0962 168.949 26.9978 167.973 25.1786 166.446C22.1392 163.895 20.4779 160.312 20.2762 156.64C18.2286 155.824 16.347 154.506 14.8309 152.699C12.2942 149.676 11.2771 145.883 11.6981 142.25C9.71162 141.082 7.99003 139.401 6.75571 137.263C4.65836 133.631 4.40289 129.44 5.69907 125.772C4.04225 124.302 2.71689 122.41 1.9061 120.182C0.457026 116.201 0.957993 111.985 2.91977 108.581C1.57368 106.86 0.617663 104.793 0.211762 102.491C-0.488219 98.5206 0.585544 94.6475 2.86508 91.6862C1.43186 89.4976 0.597574 86.8815 0.597504 84.07C0.597504 80.0005 2.3431 76.3384 5.1268 73.7927C4.73272 72.0568 4.67039 70.2151 4.99887 68.3522C5.73499 64.1782 8.27737 60.7766 11.6805 58.8093C11.3171 56.5632 11.5053 54.1959 12.3387 51.9059C13.674 48.2373 16.4051 45.4799 19.7137 44.0153C19.8244 41.9141 20.4196 39.8062 21.5438 37.8591C23.5755 34.3402 26.9245 32.0553 30.6082 31.2692C31.0522 29.096 32.0286 26.9989 33.5545 25.1804C36.104 22.142 39.6857 20.4808 43.3563 20.278C44.1721 18.2293 45.493 16.3475 47.3006 14.8307C50.3241 12.2938 54.1171 11.2766 57.7508 11.6979C58.9181 9.71223 60.6 7.99247 62.7372 6.75848C66.37 4.66106 70.5608 4.40563 74.2284 5.70184C75.6988 4.04419 77.5908 2.718 79.8192 1.90692C83.7995 0.458198 88.0136 0.95831 91.4178 2.91863C93.1389 1.57275 95.2059 0.617466 97.5077 0.211603ZM93.0164 25.7263C91.9057 26.5929 90.6433 27.3043 89.2479 27.8122C86.119 28.951 82.8454 28.8854 79.9344 27.8532C78.978 28.9291 77.8364 29.8733 76.5213 30.6325C73.8521 32.1736 70.8817 32.7198 68.0389 32.3874C67.264 33.7027 66.2564 34.9117 65.0204 35.9489C62.6442 37.9426 59.7927 38.9972 56.9168 39.153C56.3868 40.4796 55.641 41.746 54.6727 42.9001C52.6166 45.3505 49.8892 46.9047 46.9852 47.5212C46.6952 48.9341 46.1786 50.3256 45.4178 51.6432C43.898 54.2757 41.6404 56.2159 39.0575 57.3561C38.986 58.6826 38.7219 60.0216 38.244 61.3347C37.0903 64.504 34.8939 66.9913 32.1844 68.5544C32.4227 70.0348 32.4223 71.5795 32.1473 73.1393C31.6126 76.1718 30.1237 78.7961 28.0448 80.7595C28.3036 81.8206 28.4422 82.9292 28.4422 84.07C28.4421 87.338 27.3157 90.3422 25.4305 92.7175C26.3673 94.1943 27.0376 95.8746 27.3602 97.7038C27.9456 101.024 27.2888 104.275 25.7254 106.983C26.5926 108.094 27.3033 109.358 27.8114 110.754C28.9502 113.883 28.8845 117.156 27.8524 120.067C28.9278 121.023 29.8717 122.165 30.6307 123.479C32.1712 126.147 32.7173 129.117 32.3856 131.959C33.7018 132.734 34.9113 133.741 35.9491 134.978C37.9435 137.355 38.9978 140.208 39.1532 143.085C40.4793 143.615 41.7456 144.361 42.8993 145.329C45.3482 147.384 46.9023 150.109 47.5194 153.011C48.933 153.301 50.3251 153.82 51.6434 154.581C54.276 156.101 56.2161 158.359 57.3563 160.942C58.683 161.013 60.0216 161.279 61.3348 161.757C64.5043 162.91 66.9934 165.106 68.5565 167.815C70.0358 167.577 71.5799 167.578 73.1385 167.853C76.1704 168.388 78.7944 169.876 80.7577 171.955C81.819 171.696 82.9281 171.558 84.0692 171.558C87.3373 171.558 90.3423 172.685 92.7176 174.57C94.1946 173.633 95.8756 172.963 97.7049 172.64C101.025 172.055 104.277 172.712 106.984 174.275C108.095 173.408 109.359 172.697 110.755 172.189C113.882 171.051 117.155 171.115 120.065 172.146C121.021 171.071 122.164 170.128 123.478 169.369C126.147 167.828 129.117 167.281 131.959 167.613C132.734 166.298 133.742 165.09 134.978 164.052C137.354 162.059 140.205 161.003 143.081 160.847C143.611 159.521 144.358 158.254 145.326 157.1C147.382 154.65 150.109 153.096 153.013 152.479C153.303 151.066 153.82 149.675 154.581 148.357C156.101 145.725 158.358 143.784 160.94 142.644C161.012 141.318 161.278 139.979 161.756 138.667C162.909 135.497 165.105 133.008 167.814 131.445C167.576 129.965 167.576 128.42 167.851 126.861C168.427 123.598 170.106 120.808 172.437 118.805C171.868 117.286 171.557 115.641 171.556 113.924C171.556 111.046 172.429 108.372 173.925 106.153C173.322 104.967 172.881 103.674 172.639 102.297C172.053 98.9762 172.71 95.7242 174.273 93.0163C173.406 91.9055 172.695 90.6423 172.187 89.2468C171.049 86.1176 171.113 82.8434 172.145 79.9323C171.071 78.9765 170.128 77.8359 169.369 76.5222C167.829 73.854 167.281 70.8844 167.613 68.0427C166.297 67.2677 165.088 66.2597 164.051 65.0231C162.056 62.646 161 59.7929 160.845 56.9157C159.519 56.3857 158.254 55.6402 157.1 54.6725C154.651 52.6172 153.095 49.8917 152.478 46.9889C151.065 46.699 149.674 46.1805 148.356 45.4196C145.723 43.8994 143.782 41.6419 142.641 39.0583C141.316 38.9865 139.979 38.7222 138.668 38.2448C135.498 37.0909 133.008 34.8948 131.445 32.1843C129.965 32.4224 128.421 32.4221 126.861 32.1472C123.598 31.5718 120.807 29.8918 118.805 27.5602C117.285 28.1293 115.641 28.442 113.923 28.4421C111.045 28.4421 108.371 27.5693 106.152 26.0739C104.966 26.6767 103.673 27.117 102.295 27.36C98.9751 27.9454 95.724 27.2893 93.0164 25.7263Z" fill="var(--fill-0, #D0DACB)"/>
</svg>
