<svg preserveAspectRatio="none" width="100%" height="100%" overflow="visible" style="display: block;" viewBox="0 0 199.999 199.999" fill="none" xmlns="http://www.w3.org/2000/svg">
<path id="Union" d="M97.5077 0.211538C101.081 -0.418402 104.575 0.389881 107.396 2.21935C109.343 1.18459 111.564 0.597339 113.922 0.59728C118.214 0.59728 122.053 2.5403 124.607 5.59435C126.79 4.81052 129.201 4.56708 131.648 4.99865C135.822 5.73473 139.223 8.27814 141.19 11.6813C143.437 11.3173 145.806 11.5057 148.097 12.3395C151.765 13.6748 154.522 16.4058 155.986 19.7145C158.087 19.8254 160.193 20.4208 162.14 21.5445C165.658 23.5761 167.941 26.9246 168.727 30.608C170.902 31.0516 173.001 32.0284 174.82 33.5553C177.859 36.1051 179.519 39.687 179.722 43.358C181.77 44.1739 183.651 45.4941 185.168 47.3014C187.704 50.3244 188.721 54.1163 188.3 57.7496C190.287 58.917 192.008 60.5994 193.243 62.7379C195.34 66.37 195.594 70.5592 194.299 74.2262C195.956 75.6965 197.282 77.5881 198.093 79.816C199.542 83.7975 199.04 88.0119 197.078 91.4166C198.425 93.138 199.382 95.2048 199.788 97.5074C200.418 101.08 199.608 104.573 197.779 107.395C198.815 109.342 199.402 111.564 199.402 113.922C199.402 118.215 197.458 122.052 194.404 124.606C195.188 126.789 195.432 129.2 195.001 131.648C194.265 135.822 191.721 139.223 188.317 141.19C188.681 143.436 188.493 145.804 187.66 148.093C186.325 151.762 183.593 154.519 180.284 155.983C180.174 158.085 179.579 160.193 178.455 162.14C176.423 165.659 173.074 167.943 169.39 168.729C168.946 170.903 167.971 173.002 166.444 174.821C163.894 177.86 160.312 179.52 156.641 179.722C155.825 181.77 154.505 183.652 152.698 185.169C149.675 187.706 145.882 188.722 142.248 188.3C141.081 190.287 139.4 192.009 137.262 193.244C133.629 195.341 129.439 195.596 125.772 194.3C124.302 195.957 122.411 197.283 120.183 198.093C116.202 199.543 111.986 199.041 108.581 197.079C106.86 198.425 104.793 199.382 102.491 199.788C98.5207 200.488 94.6487 199.412 91.6874 197.132C89.4983 198.567 86.8817 199.402 84.0692 199.402C79.9997 199.402 76.3386 197.655 73.7929 194.872C72.0564 195.266 70.2141 195.329 68.3505 195.001C64.1762 194.264 60.7748 191.721 58.8075 188.318C56.562 188.681 54.1954 188.494 51.9061 187.661C48.2372 186.325 45.48 183.594 44.0155 180.285C41.9141 180.174 39.8065 179.58 37.8593 178.456C34.3401 176.424 32.0564 173.074 31.2704 169.39C29.0962 168.947 26.9979 167.971 25.1786 166.445C22.1397 163.895 20.4786 160.313 20.2762 156.641C18.2284 155.825 16.3471 154.506 14.8309 152.699C12.294 149.675 11.2768 145.882 11.6981 142.249C9.7116 141.081 7.99011 139.4 6.75574 137.262C4.65797 133.629 4.40313 129.437 5.70008 125.769C4.04315 124.299 2.71697 122.408 1.90613 120.18C0.457212 116.199 0.956842 111.984 2.91785 108.58C1.57256 106.859 0.617545 104.793 0.211797 102.492C-0.488269 98.5215 0.585558 94.6485 2.86512 91.6871C1.43147 89.4982 0.597539 86.881 0.597539 84.069C0.597654 79.9994 2.34295 76.3373 5.12684 73.7916C4.7327 72.0557 4.66944 70.2142 4.99793 68.3512C5.73397 64.177 8.27729 60.7756 11.6805 58.8082C11.3168 56.5616 11.5051 54.1935 12.3387 51.9029C13.6741 48.2342 16.405 45.4769 19.7137 44.0123C19.8248 41.9122 20.4203 39.8061 21.5438 37.86C23.5755 34.341 26.9244 32.0563 30.6083 31.2701C31.052 29.0962 32.0282 26.9984 33.5546 25.1793C36.1043 22.1406 39.6863 20.4795 43.3573 20.277C44.1731 18.229 45.4936 16.348 47.3007 14.8317C50.3236 12.2951 54.1157 11.278 57.7489 11.6988C58.9163 9.7119 60.5989 7.99103 62.7372 6.75646C66.3701 4.65902 70.5608 4.40358 74.2284 5.69982C75.6987 4.04266 77.5913 2.71776 79.8192 1.90685C83.7999 0.458012 88.0144 0.957785 91.4188 2.91857C93.1397 1.57303 95.2063 0.617334 97.5077 0.211538ZM93.0155 25.7262C91.9049 26.5926 90.6431 27.3043 89.2479 27.8121C86.1184 28.9512 82.8439 28.8858 79.9325 27.8531C78.9765 28.9282 77.8356 29.8717 76.5214 30.6305C73.8525 32.1713 70.8823 32.7175 68.0399 32.3854C67.2649 33.7016 66.2573 34.911 65.0204 35.9488C62.6439 37.943 59.7922 38.9983 56.9159 39.1539C56.3859 40.4798 55.6405 41.7456 54.6727 42.899C52.6168 45.3492 49.8898 46.9035 46.9862 47.5201C46.6963 48.9334 46.1788 50.3251 45.4179 51.6432C43.898 54.2756 41.6404 56.2158 39.0575 57.3561C38.9859 58.6817 38.7216 60.0195 38.244 61.3317C37.0903 64.5015 34.8935 66.9893 32.1835 68.5524C32.4219 70.0331 32.4224 71.5781 32.1473 73.1383C31.6126 76.1707 30.1237 78.795 28.0448 80.7584C28.3037 81.8196 28.4422 82.9281 28.4423 84.069C28.4423 87.3373 27.315 90.342 25.4296 92.7174C26.3667 94.1945 27.0376 95.8751 27.3602 97.7047C27.9456 101.024 27.2894 104.276 25.7264 106.983C26.5929 108.094 27.3036 109.356 27.8114 110.752C28.9502 113.881 28.8846 117.154 27.8524 120.065C28.9279 121.021 29.8707 122.164 30.6298 123.478C32.1703 126.146 32.7164 129.116 32.3846 131.958C33.7013 132.733 34.911 133.742 35.9491 134.979C37.9428 137.355 38.9974 140.207 39.1532 143.083C40.4792 143.613 41.7448 144.359 42.8983 145.327C45.3482 147.382 46.9027 150.109 47.5194 153.012C48.9329 153.302 50.3252 153.821 51.6434 154.582C54.2754 156.101 56.2151 158.359 57.3554 160.941C58.6823 161.012 60.0214 161.277 61.3348 161.755C64.5041 162.909 66.9924 165.105 68.5555 167.814C70.035 167.576 71.5788 167.577 73.1376 167.852C76.1698 168.387 78.7944 169.875 80.7577 171.954C81.819 171.695 82.9282 171.557 84.0692 171.557C87.3372 171.557 90.3424 172.683 92.7177 174.568C94.1944 173.631 95.875 172.962 97.704 172.639C101.024 172.054 104.276 172.71 106.984 174.274C108.095 173.407 109.359 172.696 110.755 172.188C113.883 171.05 117.156 171.114 120.066 172.145C121.022 171.07 122.163 170.127 123.477 169.369C126.146 167.828 129.117 167.281 131.959 167.613C132.734 166.297 133.742 165.088 134.978 164.05C137.355 162.057 140.206 161.001 143.082 160.845C143.612 159.519 144.358 158.254 145.326 157.1C147.382 154.65 150.108 153.096 153.012 152.479C153.302 151.066 153.82 149.674 154.581 148.356C156.101 145.724 158.358 143.783 160.94 142.643C161.012 141.317 161.277 139.978 161.755 138.665C162.908 135.495 165.104 133.005 167.814 131.442C167.577 129.963 167.577 128.419 167.851 126.861C168.427 123.598 170.106 120.807 172.437 118.804C171.868 117.285 171.557 115.64 171.557 113.922C171.557 111.045 172.429 108.371 173.925 106.152C173.322 104.966 172.882 103.672 172.639 102.295C172.053 98.9741 172.71 95.7221 174.273 93.0143C173.406 91.9034 172.695 90.6404 172.187 89.2447C171.049 86.1165 171.113 82.8428 172.144 79.9322C171.07 78.9764 170.128 77.8349 169.369 76.5211C167.828 73.8524 167.281 70.8829 167.613 68.0406C166.297 67.2656 165.087 66.2578 164.05 65.0211C162.056 62.6447 161 59.7928 160.845 56.9166C159.519 56.3867 158.254 55.641 157.1 54.6735C154.65 52.6176 153.095 49.8905 152.478 46.9869C151.065 46.697 149.674 46.1793 148.356 45.4186C145.724 43.8987 143.783 41.6411 142.642 39.0582C141.317 38.9865 139.98 38.7213 138.668 38.2438C135.498 37.09 133.009 34.8942 131.446 32.1842C129.966 32.4225 128.421 32.4221 126.861 32.1471C123.598 31.5717 120.807 29.8925 118.805 27.5611C117.285 28.1303 115.64 28.443 113.922 28.443C111.044 28.4429 108.371 27.5695 106.151 26.0738C104.966 26.6764 103.673 27.118 102.295 27.361C98.9748 27.9464 95.7232 27.2895 93.0155 25.7262Z" fill="var(--fill-0, #D0DACB)"/>
</svg>
