<svg preserveAspectRatio="none" width="100%" height="100%" overflow="visible" style="display: block;" viewBox="0 0 452 4" fill="none" xmlns="http://www.w3.org/2000/svg">
<g id="Frame 2147209645" opacity="0.3">
<circle id="Ellipse 2045" cx="2" cy="2" r="2" fill="var(--fill-0, #DFECDB)"/>
<circle id="Ellipse 2046" cx="10" cy="2" r="2" fill="var(--fill-0, #DFECDB)"/>
<circle id="Ellipse 2047" cx="18" cy="2" r="2" fill="var(--fill-0, #DFECDB)"/>
<circle id="Ellipse 2048" cx="26" cy="2" r="2" fill="var(--fill-0, #DFECDB)"/>
<circle id="Ellipse 2049" cx="34" cy="2" r="2" fill="var(--fill-0, #DFECDB)"/>
<circle id="Ellipse 2050" cx="42" cy="2" r="2" fill="var(--fill-0, #DFECDB)"/>
<circle id="Ellipse 2051" cx="50" cy="2" r="2" fill="var(--fill-0, #DFECDB)"/>
<circle id="Ellipse 2052" cx="58" cy="2" r="2" fill="var(--fill-0, #DFECDB)"/>
<circle id="Ellipse 2053" cx="66" cy="2" r="2" fill="var(--fill-0, #DFECDB)"/>
<circle id="Ellipse 2054" cx="74" cy="2" r="2" fill="var(--fill-0, #DFECDB)"/>
<circle id="Ellipse 2055" cx="82" cy="2" r="2" fill="var(--fill-0, #DFECDB)"/>
<circle id="Ellipse 2056" cx="90" cy="2" r="2" fill="var(--fill-0, #DFECDB)"/>
<circle id="Ellipse 2057" cx="98" cy="2" r="2" fill="var(--fill-0, #DFECDB)"/>
<circle id="Ellipse 2058" cx="106" cy="2" r="2" fill="var(--fill-0, #DFECDB)"/>
<circle id="Ellipse 2059" cx="114" cy="2" r="2" fill="var(--fill-0, #DFECDB)"/>
<circle id="Ellipse 2060" cx="122" cy="2" r="2" fill="var(--fill-0, #DFECDB)"/>
<circle id="Ellipse 2061" cx="130" cy="2" r="2" fill="var(--fill-0, #DFECDB)"/>
<circle id="Ellipse 2062" cx="138" cy="2" r="2" fill="var(--fill-0, #DFECDB)"/>
<circle id="Ellipse 2063" cx="146" cy="2" r="2" fill="var(--fill-0, #DFECDB)"/>
<circle id="Ellipse 2064" cx="154" cy="2" r="2" fill="var(--fill-0, #DFECDB)"/>
<circle id="Ellipse 2065" cx="162" cy="2" r="2" fill="var(--fill-0, #DFECDB)"/>
<circle id="Ellipse 2066" cx="170" cy="2" r="2" fill="var(--fill-0, #DFECDB)"/>
<circle id="Ellipse 2067" cx="178" cy="2" r="2" fill="var(--fill-0, #DFECDB)"/>
<circle id="Ellipse 2068" cx="186" cy="2" r="2" fill="var(--fill-0, #DFECDB)"/>
<circle id="Ellipse 2069" cx="194" cy="2" r="2" fill="var(--fill-0, #DFECDB)"/>
<circle id="Ellipse 2070" cx="202" cy="2" r="2" fill="var(--fill-0, #DFECDB)"/>
<circle id="Ellipse 2071" cx="210" cy="2" r="2" fill="var(--fill-0, #DFECDB)"/>
<circle id="Ellipse 2072" cx="218" cy="2" r="2" fill="var(--fill-0, #DFECDB)"/>
<circle id="Ellipse 2073" cx="226" cy="2" r="2" fill="var(--fill-0, #DFECDB)"/>
<circle id="Ellipse 2074" cx="234" cy="2" r="2" fill="var(--fill-0, #DFECDB)"/>
<circle id="Ellipse 2075" cx="242" cy="2" r="2" fill="var(--fill-0, #DFECDB)"/>
<circle id="Ellipse 2076" cx="250" cy="2" r="2" fill="var(--fill-0, #DFECDB)"/>
<circle id="Ellipse 2077" cx="258" cy="2" r="2" fill="var(--fill-0, #DFECDB)"/>
<circle id="Ellipse 2078" cx="266" cy="2" r="2" fill="var(--fill-0, #DFECDB)"/>
<circle id="Ellipse 2079" cx="274" cy="2" r="2" fill="var(--fill-0, #DFECDB)"/>
<circle id="Ellipse 2080" cx="282" cy="2" r="2" fill="var(--fill-0, #DFECDB)"/>
<circle id="Ellipse 2081" cx="290" cy="2" r="2" fill="var(--fill-0, #DFECDB)"/>
<circle id="Ellipse 2082" cx="298" cy="2" r="2" fill="var(--fill-0, #DFECDB)"/>
<circle id="Ellipse 2083" cx="306" cy="2" r="2" fill="var(--fill-0, #DFECDB)"/>
<circle id="Ellipse 2084" cx="314" cy="2" r="2" fill="var(--fill-0, #DFECDB)"/>
<circle id="Ellipse 2085" cx="322" cy="2" r="2" fill="var(--fill-0, #DFECDB)"/>
<circle id="Ellipse 2086" cx="330" cy="2" r="2" fill="var(--fill-0, #DFECDB)"/>
<circle id="Ellipse 2087" cx="338" cy="2" r="2" fill="var(--fill-0, #DFECDB)"/>
<circle id="Ellipse 2088" cx="346" cy="2" r="2" fill="var(--fill-0, #DFECDB)"/>
<circle id="Ellipse 2089" cx="354" cy="2" r="2" fill="var(--fill-0, #DFECDB)"/>
<circle id="Ellipse 2090" cx="362" cy="2" r="2" fill="var(--fill-0, #DFECDB)"/>
<circle id="Ellipse 2091" cx="370" cy="2" r="2" fill="var(--fill-0, #DFECDB)"/>
<circle id="Ellipse 2092" cx="378" cy="2" r="2" fill="var(--fill-0, #DFECDB)"/>
<circle id="Ellipse 2093" cx="386" cy="2" r="2" fill="var(--fill-0, #DFECDB)"/>
<circle id="Ellipse 2094" cx="394" cy="2" r="2" fill="var(--fill-0, #DFECDB)"/>
<circle id="Ellipse 2095" cx="402" cy="2" r="2" fill="var(--fill-0, #DFECDB)"/>
<circle id="Ellipse 2096" cx="410" cy="2" r="2" fill="var(--fill-0, #DFECDB)"/>
<circle id="Ellipse 2097" cx="418" cy="2" r="2" fill="var(--fill-0, #DFECDB)"/>
<circle id="Ellipse 2098" cx="426" cy="2" r="2" fill="var(--fill-0, #DFECDB)"/>
<circle id="Ellipse 2099" cx="434" cy="2" r="2" fill="var(--fill-0, #DFECDB)"/>
<circle id="Ellipse 2100" cx="442" cy="2" r="2" fill="var(--fill-0, #DFECDB)"/>
<circle id="Ellipse 2101" cx="450" cy="2" r="2" fill="var(--fill-0, #DFECDB)"/>
</g>
</svg>
