<svg preserveAspectRatio="none" width="100%" height="100%" overflow="visible" style="display: block;" viewBox="0 0 51.7852 51.7852" fill="none" xmlns="http://www.w3.org/2000/svg">
<g id="Group 1321315796">
<g id="Group 1321315794">
<g id="Union">
<mask id="path-1-outside-1_0_54" maskUnits="userSpaceOnUse" x="-0.107874" y="-0.107874" width="52" height="52" fill="black">
<rect fill="white" x="-0.107874" y="-0.107874" width="52" height="52"/>
<path d="M25.8941 1.89213C31.9132 1.89237 36.7934 6.77235 36.7935 12.7915C36.7935 13.6487 36.6896 14.4816 36.5025 15.2818C37.3028 15.0946 38.1363 14.9927 38.9937 14.9927C45.0127 14.993 49.8929 19.8731 49.8931 25.8921C49.8931 31.9113 45.0128 36.7912 38.9937 36.7915C38.1363 36.7915 37.3029 36.6887 36.5025 36.5015C36.6899 37.3022 36.7935 38.1359 36.7935 38.9937C36.7934 45.0129 31.9132 49.8929 25.8941 49.8931C19.8748 49.893 14.9948 45.013 14.9947 38.9937C14.9947 38.136 15.0964 37.3021 15.2837 36.5015C14.4831 36.6889 13.6493 36.7915 12.7915 36.7915C6.77214 36.7915 1.89213 31.9115 1.89213 25.8921C1.8924 19.873 6.77231 14.9927 12.7915 14.9927C13.6489 14.9927 14.4824 15.0945 15.2828 15.2818C15.0957 14.4818 14.9947 13.6485 14.9947 12.7915C14.9947 6.77224 19.8748 1.89219 25.8941 1.89213ZM39.4566 34.8872H39.4576C39.6109 34.8796 39.7633 34.8684 39.9146 34.8531H39.9136C39.7624 34.8684 39.61 34.8795 39.4566 34.8872ZM41.6714 34.4947C41.3894 34.5824 41.1013 34.6564 40.8081 34.7163L41.2447 34.6158C41.3883 34.5788 41.5306 34.5385 41.6714 34.4947Z"/>
</mask>
<path d="M25.8941 1.89213C31.9132 1.89237 36.7934 6.77235 36.7935 12.7915C36.7935 13.6487 36.6896 14.4816 36.5025 15.2818C37.3028 15.0946 38.1363 14.9927 38.9937 14.9927C45.0127 14.993 49.8929 19.8731 49.8931 25.8921C49.8931 31.9113 45.0128 36.7912 38.9937 36.7915C38.1363 36.7915 37.3029 36.6887 36.5025 36.5015C36.6899 37.3022 36.7935 38.1359 36.7935 38.9937C36.7934 45.0129 31.9132 49.8929 25.8941 49.8931C19.8748 49.893 14.9948 45.013 14.9947 38.9937C14.9947 38.136 15.0964 37.3021 15.2837 36.5015C14.4831 36.6889 13.6493 36.7915 12.7915 36.7915C6.77214 36.7915 1.89213 31.9115 1.89213 25.8921C1.8924 19.873 6.77231 14.9927 12.7915 14.9927C13.6489 14.9927 14.4824 15.0945 15.2828 15.2818C15.0957 14.4818 14.9947 13.6485 14.9947 12.7915C14.9947 6.77224 19.8748 1.89219 25.8941 1.89213ZM39.4566 34.8872H39.4576C39.6109 34.8796 39.7633 34.8684 39.9146 34.8531H39.9136C39.7624 34.8684 39.61 34.8795 39.4566 34.8872ZM41.6714 34.4947C41.3894 34.5824 41.1013 34.6564 40.8081 34.7163L41.2447 34.6158C41.3883 34.5788 41.5306 34.5385 41.6714 34.4947Z" fill="var(--fill-0, #FFC501)"/>
<path d="M25.8941 1.89213L25.8942 1.35769e-08H25.8941L25.8941 1.89213ZM36.7935 12.7915L38.6856 12.7916V12.7915L36.7935 12.7915ZM36.5025 15.2818L34.6601 14.8508L33.966 17.8183L36.9334 17.1242L36.5025 15.2818ZM38.9937 14.9927L38.9938 13.1006H38.9937V14.9927ZM49.8931 25.8921H51.7852V25.8921L49.8931 25.8921ZM38.9937 36.7915V38.6837H38.9938L38.9937 36.7915ZM36.5025 36.5015L36.9334 34.6591L33.9655 33.9649L34.6601 36.9327L36.5025 36.5015ZM36.7935 38.9937L38.6856 38.9937V38.9937L36.7935 38.9937ZM25.8941 49.8931L25.8941 51.7852H25.8942L25.8941 49.8931ZM14.9947 38.9937L13.1025 38.9937V38.9937L14.9947 38.9937ZM15.2837 36.5015L17.1261 36.9326L17.8206 33.9645L14.8525 34.6592L15.2837 36.5015ZM12.7915 36.7915V38.6837H12.7916L12.7915 36.7915ZM1.89213 25.8921L0 25.892V25.8921H1.89213ZM12.7915 14.9927L12.7916 13.1006H12.7915V14.9927ZM15.2828 15.2818L14.8517 17.1242L17.819 17.8184L17.1252 14.851L15.2828 15.2818ZM14.9947 12.7915L13.1025 12.7915V12.7916L14.9947 12.7915ZM39.4566 34.8872L39.3608 32.9975L39.4566 36.7794V34.8872ZM39.4576 34.8872V36.7794H39.5046L39.5515 36.777L39.4576 34.8872ZM39.9146 34.8531L40.1059 36.7355L39.9146 32.9609V34.8531ZM39.9136 34.8531V32.9609H39.8178L39.7225 32.9706L39.9136 34.8531ZM41.6714 34.4947L42.2334 36.3014L41.1095 32.6879L41.6714 34.4947ZM40.8081 34.7163L40.3833 32.8725L41.1874 36.5701L40.8081 34.7163ZM41.2447 34.6158L41.6695 36.4596L41.6929 36.4542L41.7162 36.4482L41.2447 34.6158ZM25.8941 1.89213L25.894 3.78425C30.8683 3.78445 34.9013 7.8174 34.9014 12.7916L36.7935 12.7915L38.6856 12.7915C38.6855 5.7273 32.9582 0.000286116 25.8942 1.35769e-08L25.8941 1.89213ZM36.7935 12.7915L34.9014 12.7915C34.9013 13.4952 34.8162 14.1835 34.6601 14.8508L36.5025 15.2818L38.3449 15.7127C38.5631 14.7797 38.6856 13.8022 38.6856 12.7916L36.7935 12.7915ZM36.5025 15.2818L36.9334 17.1242C37.5978 16.9688 38.2868 16.8848 38.9937 16.8848V14.9927V13.1006C37.9858 13.1006 37.0077 13.2204 36.0715 13.4394L36.5025 15.2818ZM38.9937 14.9927L38.9936 16.8848C43.9678 16.8851 48.0008 20.9181 48.001 25.8922L49.8931 25.8921L51.7852 25.8921C51.785 18.828 46.0577 13.1009 38.9938 13.1006L38.9937 14.9927ZM49.8931 25.8921H48.001C48.001 30.8662 43.9679 34.8992 38.9936 34.8994L38.9937 36.7915L38.9938 38.6837C46.0577 38.6833 51.7852 32.9564 51.7852 25.8921H49.8931ZM38.9937 36.7915V34.8994C38.2882 34.8994 37.5994 34.8149 36.9334 34.6591L36.5025 36.5015L36.0715 38.3439C37.0063 38.5626 37.9843 38.6837 38.9937 38.6837V36.7915ZM36.5025 36.5015L34.6601 36.9327C34.8163 37.5999 34.9014 38.2889 34.9014 38.9937L36.7935 38.9937L38.6856 38.9937C38.6856 37.9828 38.5635 37.0045 38.3448 36.0703L36.5025 36.5015ZM36.7935 38.9937L34.9014 38.9937C34.9013 43.9678 30.8683 48.0008 25.894 48.001L25.8941 49.8931L25.8942 51.7852C32.9582 51.7849 38.6855 46.0579 38.6856 38.9937L36.7935 38.9937ZM25.8941 49.8931L25.8941 48.001C20.9198 48.0009 16.8869 43.968 16.8868 38.9937L14.9947 38.9937L13.1025 38.9937C13.1026 46.058 18.8298 51.7851 25.8941 51.7852L25.8941 49.8931ZM14.9947 38.9937L16.8868 38.9937C16.8868 38.2862 16.9706 37.5969 17.1261 36.9326L15.2837 36.5015L13.4414 36.0704C13.2221 37.0073 13.1026 37.9858 13.1025 38.9937L14.9947 38.9937ZM15.2837 36.5015L14.8525 34.6592C14.1869 34.815 13.4977 34.8994 12.7915 34.8994L12.7915 36.7915L12.7916 38.6837C13.8009 38.6836 14.7793 38.5628 15.7149 38.3438L15.2837 36.5015ZM12.7915 36.7915V34.8994C7.81713 34.8994 3.78425 30.8665 3.78425 25.8921H1.89213H0C-3.57628e-07 32.9565 5.72715 38.6837 12.7915 38.6837V36.7915ZM1.89213 25.8921L3.78425 25.8922C3.78448 20.9179 7.81739 16.8848 12.7915 16.8848V14.9927V13.1006C5.72723 13.1006 0.000320911 18.828 0 25.892L1.89213 25.8921ZM12.7915 14.9927L12.7915 16.8848C13.4984 16.8849 14.1875 16.9687 14.8517 17.1242L15.2828 15.2818L15.7138 13.4394C14.7774 13.2203 13.7993 13.1006 12.7916 13.1006L12.7915 14.9927ZM15.2828 15.2818L17.1252 14.851C16.9702 14.188 16.8868 13.4992 16.8868 12.7915L14.9947 12.7915L13.1025 12.7916C13.1026 13.7978 13.2212 14.7756 13.4403 15.7126L15.2828 15.2818ZM14.9947 12.7915L16.8868 12.7916C16.8868 7.81724 20.9198 3.78431 25.8941 3.78425L25.8941 1.89213L25.8941 1.35769e-08C18.8298 8.04798e-05 13.1026 5.72724 13.1025 12.7915L14.9947 12.7915ZM39.4566 34.8872V36.7794H39.4576V34.8872V32.9951H39.4566V34.8872ZM39.4576 34.8872L39.5515 36.777C39.7344 36.7679 39.9194 36.7544 40.1059 36.7355L39.9146 34.8531L39.7233 32.9706C39.6073 32.9824 39.4875 32.9913 39.3636 32.9975L39.4576 34.8872ZM39.9146 34.8531V32.9609H39.9136V34.8531V36.7452H39.9146V34.8531ZM39.9136 34.8531L39.7225 32.9706C39.6074 32.9823 39.4871 32.9911 39.3608 32.9975L39.4566 34.8872L39.5524 36.7769C39.7328 36.7678 39.9173 36.7545 40.1047 36.7355L39.9136 34.8531ZM41.6714 34.4947L41.1095 32.6879C40.8883 32.7567 40.6612 32.8151 40.4289 32.8626L40.8081 34.7163L41.1874 36.5701C41.5414 36.4976 41.8905 36.4081 42.2334 36.3014L41.6714 34.4947ZM40.8081 34.7163L41.233 36.5602L41.6695 36.4596L41.2447 34.6158L40.8198 32.7719L40.3833 32.8725L40.8081 34.7163ZM41.2447 34.6158L41.7162 36.4482C41.8895 36.4036 42.062 36.3547 42.2333 36.3014L41.6714 34.4947L41.1095 32.6879C40.9993 32.7222 40.8871 32.754 40.7731 32.7833L41.2447 34.6158Z" fill="var(--stroke-0, black)" mask="url(#path-1-outside-1_0_54)"/>
</g>
</g>
<circle id="Ellipse 2148" cx="25.858" cy="25.8589" r="6.9378" fill="var(--fill-0, black)"/>
</g>
</svg>
