<svg preserveAspectRatio="none" width="100%" height="100%" overflow="visible" style="display: block;" viewBox="0 0 200.209 130.387" fill="none" xmlns="http://www.w3.org/2000/svg">
<path id="Union" d="M112.506 0.527193C141.299 -1.96673 161.335 4.58438 174.92 16.0155C188.489 27.4333 195.486 43.6058 198.438 60.1004C201.391 76.5943 200.315 93.4925 197.668 106.497C196.344 112.999 194.62 118.561 192.79 122.632C191.876 124.664 190.922 126.357 189.957 127.614C189.015 128.841 187.96 129.791 186.805 130.1C184.485 130.722 182.589 130.3 181.19 129.153C179.838 128.044 179.082 126.365 178.749 124.694C178.415 123.016 178.481 121.223 178.894 119.752C179.033 119.254 179.227 118.749 179.484 118.287C179.638 116.954 180.585 115.786 181.959 115.418C183.756 114.936 185.603 116.003 186.084 117.8C186.565 119.596 185.499 121.442 183.702 121.924C182.582 122.224 181.442 121.922 180.626 121.217C180.486 122.179 180.504 123.264 180.711 124.303C180.989 125.699 181.584 126.89 182.459 127.607C183.288 128.287 184.495 128.649 186.287 128.169C186.794 128.033 187.51 127.518 188.371 126.396C189.209 125.305 190.089 123.763 190.967 121.811C192.72 117.913 194.405 112.501 195.708 106.098C198.315 93.2936 199.191 76.6456 196.291 60.4442C193.391 44.2431 186.554 28.5605 173.454 17.537C160.37 6.52709 141.079 0.0591899 112.677 2.51938C89.7566 4.50495 75.911 12.7941 60.5 19.1805C52.1979 22.6209 43.522 25.4595 32.8799 26.3797C32.8621 26.3859 32.8448 26.3931 32.8271 26.3993L32.8213 26.3846C23.6717 27.1692 13.0682 26.5365 0 23.6454L0.431641 21.6922C13.1937 24.5157 23.5356 25.1518 32.4531 24.409C36.5649 22.9474 41.8513 20.2114 44.8809 16.662C46.416 14.8633 47.3083 12.9325 47.2754 10.9051C47.2563 9.7372 46.9271 8.47334 46.1611 7.11997C45.725 7.69552 45.1021 8.13637 44.3506 8.33774C42.5542 8.81888 40.708 7.75323 40.2266 5.95688C39.7452 4.16044 40.8111 2.31338 42.6074 1.83188C44.404 1.3505 46.251 2.41718 46.7324 4.21372C46.7552 4.29885 46.7731 4.38437 46.7891 4.46958C48.4551 6.64064 49.2413 8.78366 49.2754 10.8729C49.3188 13.5425 48.1357 15.9289 46.4023 17.9598C44.5086 20.1786 41.8806 22.0617 39.1875 23.5555C46.7618 22.259 53.3527 19.976 59.7334 17.3319C74.9129 11.0414 89.1836 2.54738 112.506 0.527193Z" fill="var(--fill-0, #D9D9D9)"/>
</svg>
