<svg preserveAspectRatio="none" width="100%" height="100%" overflow="visible" style="display: block;" viewBox="0 0 187.978 122.808" fill="none" xmlns="http://www.w3.org/2000/svg">
<path id="Union" d="M170.122 1.15874C171.435 0.0819477 173.215 -0.314389 175.393 0.269096C176.478 0.559964 177.468 1.45209 178.353 2.60406C179.259 3.78466 180.155 5.37332 181.013 7.28179C182.731 11.1037 184.35 16.3257 185.593 22.4302C188.078 34.6403 189.087 50.5071 186.315 65.9937C183.543 81.4806 176.974 96.6642 164.234 107.384C151.479 118.117 132.667 124.269 105.633 121.927C83.7354 120.031 70.3371 112.054 56.085 106.148C54.9131 105.662 53.7325 105.192 52.54 104.737C53.6645 105.599 54.6985 106.541 55.5674 107.559C57.1948 109.466 58.3054 111.707 58.2646 114.213C58.2326 116.175 57.4948 118.187 55.9307 120.225C55.9158 120.304 55.8992 120.384 55.8779 120.463C55.426 122.15 53.6917 123.152 52.0049 122.7C50.3183 122.248 49.3176 120.513 49.7695 118.827C50.2215 117.14 51.9549 116.14 53.6416 116.591C54.3474 116.78 54.9314 117.195 55.3408 117.736C56.0597 116.466 56.3688 115.279 56.3867 114.183C56.4177 112.28 55.58 110.467 54.1387 108.778C51.3109 105.465 46.3896 102.906 42.5391 101.528C31.5511 98.7397 18.5971 98.0295 0.405273 102.054L0 100.221C18.4131 96.1475 31.6151 96.8456 42.8125 99.6578L42.8213 99.6353C42.8992 99.6623 42.9776 99.6913 43.0566 99.7193C47.9272 100.959 52.4208 102.597 56.8037 104.414C71.2734 110.41 84.2736 118.192 105.794 120.056C132.46 122.366 150.74 116.285 163.024 105.948C175.324 95.5977 181.744 80.8731 184.467 65.6617C187.19 50.4503 186.2 34.8277 183.753 22.8052C182.529 16.7937 180.947 11.7127 179.301 8.0523C178.477 6.22002 177.65 4.77144 176.863 3.74663C176.055 2.69394 175.383 2.21035 174.907 2.08257C173.225 1.63189 172.092 1.97195 171.313 2.60992C170.492 3.28354 169.932 4.40117 169.671 5.71246C169.477 6.68743 169.461 7.7068 169.592 8.60992C170.358 7.94783 171.428 7.66513 172.479 7.94683C174.166 8.3988 175.168 10.1321 174.716 11.8189C174.264 13.5057 172.53 14.5072 170.843 14.0552C169.552 13.7093 168.664 12.6123 168.521 11.3609C168.279 10.9272 168.096 10.4532 167.965 9.98589C167.577 8.60467 167.515 6.92098 167.829 5.34527C168.142 3.77677 168.853 2.20015 170.122 1.15874Z" fill="var(--fill-0, #D9D9D9)"/>
</svg>
