<svg preserveAspectRatio="none" width="100%" height="100%" overflow="visible" style="display: block;" viewBox="0 0 200.209 130.387" fill="none" xmlns="http://www.w3.org/2000/svg">
<path id="Union" d="M112.506 0.527188C141.299 -1.96673 161.335 4.58441 174.92 16.0155C188.489 27.4333 195.486 43.6058 198.438 60.1004C201.391 76.5945 200.315 93.4934 197.668 106.498C196.344 112.999 194.62 118.561 192.79 122.632C191.876 124.664 190.922 126.357 189.957 127.614C189.015 128.841 187.96 129.791 186.805 130.1C184.485 130.722 182.589 130.3 181.19 129.153C179.838 128.044 179.082 126.365 178.749 124.694C178.415 123.016 178.481 121.223 178.894 119.752C179.033 119.254 179.227 118.748 179.484 118.286C179.638 116.954 180.585 115.787 181.959 115.419C183.756 114.937 185.603 116.003 186.084 117.8C186.565 119.596 185.499 121.443 183.702 121.925C182.582 122.225 181.442 121.922 180.626 121.217C180.486 122.179 180.504 123.264 180.711 124.303C180.989 125.699 181.584 126.89 182.459 127.607C183.288 128.287 184.495 128.649 186.287 128.169C186.794 128.033 187.51 127.518 188.371 126.396C189.209 125.305 190.089 123.763 190.967 121.811C192.72 117.913 194.405 112.501 195.708 106.098C198.315 93.2935 199.191 76.6456 196.291 60.4442C193.391 44.2433 186.554 28.5614 173.454 17.5379C160.37 6.52807 141.079 0.0591853 112.677 2.51938C89.7566 4.50494 75.911 12.7941 60.5 19.1805C52.1979 22.6209 43.522 25.4595 32.8799 26.3797C32.8621 26.3859 32.8448 26.3931 32.8271 26.3993L32.8213 26.3846C23.6717 27.1692 13.0682 26.5365 0 23.6454L0.431641 21.6922C13.1947 24.5159 23.5371 25.1511 32.4551 24.408C36.5666 22.9463 41.8518 20.2108 44.8809 16.662C46.416 14.8633 47.3083 12.9324 47.2754 10.9051C47.2563 9.7372 46.9272 8.47332 46.1611 7.11996C45.725 7.69557 45.1021 8.13636 44.3506 8.33774C42.5541 8.81891 40.7079 7.75331 40.2266 5.95688C39.7452 4.16051 40.8112 2.31443 42.6074 1.83285C44.404 1.35147 46.251 2.41717 46.7324 4.21371C46.7552 4.29884 46.7731 4.38436 46.7891 4.46957C48.4551 6.64062 49.2413 8.78367 49.2754 10.8729C49.3188 13.5425 48.1357 15.9289 46.4023 17.9598C44.5086 20.1786 41.8806 22.0617 39.1875 23.5555C46.7618 22.259 53.3527 19.976 59.7334 17.3319C74.9129 11.0414 89.1837 2.54737 112.506 0.527188Z" fill="var(--fill-0, #D9D9D9)"/>
</svg>
