<svg preserveAspectRatio="none" width="100%" height="100%" overflow="visible" style="display: block;" viewBox="0 0 20 20" fill="none" xmlns="http://www.w3.org/2000/svg">
<g id="iconoir:sound-low-solid">
<path id="Vector" fill-rule="evenodd" clip-rule="evenodd" d="M16.1862 6.23298C16.2948 6.12773 16.442 6.06861 16.5955 6.06861C16.749 6.06861 16.8963 6.12773 17.0049 6.23298L17.0064 6.23448L17.0087 6.23598L17.0141 6.24123L17.0296 6.25621L17.0775 6.30792C17.1161 6.35064 17.1702 6.41134 17.2327 6.48853C17.9464 7.38856 18.3333 8.49227 18.3333 9.62784C18.3333 10.7634 17.9464 11.8671 17.2327 12.7671C17.168 12.8472 17.1 12.9247 17.0288 12.9995L17.0134 13.0145L17.0087 13.0197L17.0064 13.0212L17.0057 13.0219L16.6117 12.6412L17.0057 13.0234C16.897 13.1289 16.7496 13.1881 16.5959 13.1881C16.4422 13.1881 16.2948 13.1289 16.1862 13.0234C16.0775 12.918 16.0165 12.775 16.0165 12.6259C16.0165 12.4768 16.0775 12.3338 16.1862 12.2283L16.1854 12.2291L16.1839 12.2298L16.1877 12.2261L16.2132 12.1991C16.2379 12.1731 16.2737 12.1314 16.3206 12.0739C16.8092 11.455 17.102 10.7117 17.1634 9.93435C17.2249 9.15699 17.0522 8.37906 16.6666 7.69509C16.5659 7.51509 16.4502 7.3434 16.3206 7.18174C16.2786 7.12915 16.2343 7.07839 16.1877 7.02961L16.1839 7.02587C16.0762 6.92024 16.0159 6.77754 16.0164 6.62896C16.0168 6.48038 16.0779 6.33801 16.1862 6.23298ZM11.6038 3.55457C12.502 2.97977 13.6992 3.60553 13.6992 4.64947V15.3556C13.6992 16.4003 12.502 17.0253 11.6038 16.4505L6.96963 13.4866C6.93828 13.4663 6.9015 13.4554 6.86382 13.4551H4.62398C4.06067 13.4551 3.52042 13.238 3.1221 12.8515C2.72378 12.465 2.5 11.9408 2.5 11.3942V8.61088C2.5 8.0643 2.72378 7.5401 3.1221 7.15361C3.52042 6.76712 4.06067 6.54999 4.62398 6.54999H6.86382C6.90169 6.55011 6.93875 6.53942 6.97041 6.51926L11.6038 3.55457Z" fill="var(--fill-0, #DFECDB)"/>
</g>
</svg>
