<svg preserveAspectRatio="none" width="100%" height="100%" overflow="visible" style="display: block;" viewBox="0 0 20 20" fill="none" xmlns="http://www.w3.org/2000/svg">
<g id="iconoir:sound-low-solid">
<path id="Vector" fill-rule="evenodd" clip-rule="evenodd" d="M16.1862 6.23028C16.2948 6.12502 16.442 6.0659 16.5955 6.0659C16.749 6.0659 16.8963 6.12502 17.0049 6.23028L17.0064 6.23177L17.0087 6.23327L17.0141 6.23852L17.0296 6.25351L17.0775 6.30522C17.1161 6.34793 17.1702 6.40864 17.2327 6.48583C17.9464 7.38585 18.3333 8.48956 18.3333 9.62513C18.3333 10.7607 17.9464 11.8644 17.2327 12.7644C17.168 12.8445 17.1 12.922 17.0288 12.9968L17.0134 13.0117L17.0087 13.017L17.0064 13.0185L17.0057 13.0192L16.6117 12.6385L17.0057 13.0207C16.897 13.1262 16.7496 13.1854 16.5959 13.1854C16.4422 13.1854 16.2948 13.1262 16.1862 13.0207C16.0775 12.9153 16.0165 12.7723 16.0165 12.6232C16.0165 12.4741 16.0775 12.331 16.1862 12.2256L16.1854 12.2264L16.1839 12.2271L16.1877 12.2234L16.2132 12.1964C16.2379 12.1704 16.2737 12.1287 16.3206 12.0712C16.8092 11.4523 17.102 10.709 17.1634 9.93164C17.2249 9.15428 17.0522 8.37635 16.6666 7.69239C16.5659 7.51238 16.4502 7.34069 16.3206 7.17904C16.2786 7.12644 16.2343 7.07568 16.1877 7.0269L16.1839 7.02316C16.0762 6.91754 16.0159 6.77483 16.0164 6.62625C16.0168 6.47767 16.0779 6.3353 16.1862 6.23028ZM11.6038 3.55186C12.502 2.97706 13.6992 3.60282 13.6992 4.64676V15.3529C13.6992 16.3976 12.502 17.0226 11.6038 16.4478L6.96963 13.4839C6.93828 13.4636 6.9015 13.4527 6.86382 13.4524H4.62398C4.06067 13.4524 3.52042 13.2353 3.1221 12.8488C2.72378 12.4623 2.5 11.9381 2.5 11.3915V8.60817C2.5 8.06159 2.72378 7.53739 3.1221 7.1509C3.52042 6.76441 4.06067 6.54728 4.62398 6.54728H6.86382C6.90169 6.5474 6.93875 6.53671 6.97041 6.51655L11.6038 3.55186Z" fill="var(--fill-0, #DFECDB)"/>
</g>
</svg>
