<svg preserveAspectRatio="none" width="100%" height="100%" overflow="visible" style="display: block;" viewBox="0 0 12.1026 13.5232" fill="none" xmlns="http://www.w3.org/2000/svg">
<path id="Vector 636" d="M1.1633 9.85916L3.76632 9.43793C4.23512 9.36206 4.69262 9.62639 4.86106 10.0704L5.92599 12.8779C6.24559 13.7204 7.42901 13.7436 7.78137 12.9142L8.78649 10.5484C8.94336 10.1791 9.3057 9.93938 9.70687 9.93938H11.1007C11.9616 9.93938 12.4201 8.92387 11.8508 8.27808L9.23826 5.31467C9.11219 5.17167 9.02962 4.99561 9.00029 4.80724L8.38355 0.847054C8.24886 -0.0178202 7.14663 -0.304529 6.60759 0.385098L4.97121 2.47861C4.7282 2.78951 4.32507 2.92843 3.94212 2.83325L1.75603 2.28987C0.902288 2.07766 0.21028 2.99181 0.64624 3.75591L1.75015 5.69071C1.975 6.0848 1.90635 6.58088 1.58292 6.8991L0.302215 8.15917C-0.39249 8.84269 0.201236 10.0148 1.1633 9.85916Z" fill="var(--fill-0, #FCF080)"/>
</svg>
