<svg preserveAspectRatio="none" width="100%" height="100%" overflow="visible" style="display: block;" viewBox="0 0 14.0793 14.1793" fill="none" xmlns="http://www.w3.org/2000/svg">
<path id="Vector 643" d="M0.467846 7.33449L3.76189 9.40603C4.0002 9.5559 4.1643 9.79927 4.2139 10.0764L4.80063 13.3546C4.94984 14.1883 6.0031 14.4706 6.54928 13.8233L9.69011 10.1008C9.7983 9.97261 9.93702 9.87366 10.0935 9.81311L13.4401 8.51798C14.2102 8.21994 14.3077 7.16976 13.6055 6.73511L10.1539 4.59836C9.90886 4.4467 9.74119 4.19672 9.69382 3.9125L9.18111 0.836244C9.02753 -0.0852807 7.80646 -0.311629 7.33279 0.493621L5.45256 3.69C5.33002 3.89833 5.13616 4.05523 4.90686 4.13166L0.683973 5.53929C-0.117219 5.80635 -0.247067 6.8849 0.467846 7.33449Z" fill="var(--fill-0, #FCF080)"/>
</svg>
