<svg preserveAspectRatio="none" width="100%" height="100%" overflow="visible" style="display: block;" viewBox="0 0 24 24" fill="none" xmlns="http://www.w3.org/2000/svg">
<path d="M18.5223 8.69118H16.3929V2.07353C16.3929 1.34559 15.7902 0.75 15.0536 0.75H9.69643C8.95982 0.75 8.35714 1.34559 8.35714 2.07353V8.69118H6.22768C5.03571 8.69118 4.43304 10.1206 5.27679 10.9544L11.4241 17.0294C11.9464 17.5456 12.7902 17.5456 13.3125 17.0294L19.4598 10.9544C20.3036 10.1206 19.7143 8.69118 18.5223 8.69118ZM3 21.9265C3 22.6544 3.60268 23.25 4.33929 23.25H20.4107C21.1473 23.25 21.75 22.6544 21.75 21.9265C21.75 21.1985 21.1473 20.6029 20.4107 20.6029H4.33929C3.60268 20.6029 3 21.1985 3 21.9265Z" fill="var(--fill-0, #E8FF76)"/>
</svg>
