<svg preserveAspectRatio="none" width="100%" height="100%" overflow="visible" style="display: block;" viewBox="0 0 12.75 12.75" fill="none" xmlns="http://www.w3.org/2000/svg">
<g id="Frame 2147210493">
<path id="Subtract" fill-rule="evenodd" clip-rule="evenodd" d="M11.916 0C12.3763 0 12.75 0.372771 12.75 0.833008V11.916C12.75 12.3763 12.3763 12.75 11.916 12.75H0.833008C0.372771 12.75 0 12.3763 0 11.916V6.08301C2.57802e-07 5.62277 0.372771 5.25 0.833008 5.25H5.25V0.833008C5.25 0.372771 5.62277 2.578e-07 6.08301 0H11.916ZM9 2.33398C8.53991 2.33416 8.16699 2.70686 8.16699 3.16699V8.16699H5.09668C5.23004 7.86193 5.17246 7.49378 4.92285 7.24414C4.59736 6.91876 4.06952 6.91865 3.74414 7.24414L2.57715 8.41113C2.42103 8.56742 2.33394 8.78006 2.33398 9.00098C2.33416 9.22182 2.42192 9.43371 2.57812 9.58984L3.74414 10.7559C4.06958 11.0812 4.59747 11.0812 4.92285 10.7559C5.17212 10.5065 5.22943 10.1388 5.09668 9.83398H9C9.46024 9.83398 9.83398 9.46024 9.83398 9V3.16699C9.83398 2.70675 9.46024 2.33398 9 2.33398Z" fill="var(--fill-0, #3F3833)"/>
</g>
</svg>
