<svg preserveAspectRatio="none" width="100%" height="100%" overflow="visible" style="display: block;" viewBox="0 0 57.1483 50.9756" fill="none" xmlns="http://www.w3.org/2000/svg">
<g id="Frame 2147210506">
<g id="Bottom">
<mask id="path-1-inside-1_0_57" fill="white">
<path d="M45.6772 0.0195117C49.4974 -0.215576 57.1381 1.6415 57.1381 10.9512V43.041C57.3144 45.6858 55.2689 50.9756 45.6772 50.9756H11.4711C1.87951 50.9755 -0.166129 45.6858 0.0101818 43.041V10.9512C0.0101818 1.64161 7.65081 -0.215524 11.4711 0.0195117H45.6772Z"/>
</mask>
<path d="M45.6772 0.0195117C49.4974 -0.215576 57.1381 1.6415 57.1381 10.9512V43.041C57.3144 45.6858 55.2689 50.9756 45.6772 50.9756H11.4711C1.87951 50.9755 -0.166129 45.6858 0.0101818 43.041V10.9512C0.0101818 1.64161 7.65081 -0.215524 11.4711 0.0195117H45.6772Z" fill="var(--key-fill, #1B161A)"/>
<path d="M45.6772 0.0195117V1.45541H45.7213L45.7654 1.4527L45.6772 0.0195117ZM57.1381 43.041H55.7022V43.0888L55.7054 43.1365L57.1381 43.041ZM45.6772 50.9756V52.4115H45.6772L45.6772 50.9756ZM11.4711 50.9756L11.4711 52.4115H11.4711V50.9756ZM0.0101818 43.041L1.4429 43.1365L1.44608 43.0888V43.041H0.0101818ZM11.4711 0.0195117L11.3829 1.4527L11.427 1.45541H11.4711V0.0195117ZM45.6772 0.0195117L45.7654 1.4527C47.4459 1.34928 49.9776 1.7175 52.0414 3.09922C54.0178 4.42242 55.7022 6.75929 55.7022 10.9512H57.1381H58.574C58.574 5.83336 56.4381 2.58686 53.6391 0.712882C50.9275 -1.10257 47.7287 -1.54534 45.589 -1.41367L45.6772 0.0195117ZM57.1381 10.9512H55.7022V43.041H57.1381H58.574V10.9512H57.1381ZM57.1381 43.041L55.7054 43.1365C55.7677 44.0717 55.4331 45.6357 54.0661 46.9741C52.7172 48.2948 50.2102 49.5397 45.6772 49.5397L45.6772 50.9756L45.6772 52.4115C50.7359 52.4115 54.0475 51.0114 56.0752 49.0261C58.0849 47.0584 58.6848 44.655 58.5708 42.9455L57.1381 43.041ZM45.6772 50.9756V49.5397H11.4711V50.9756V52.4115H45.6772V50.9756ZM11.4711 50.9756L11.4711 49.5397C6.93813 49.5396 4.43117 48.2948 3.08223 46.9741C1.71523 45.6356 1.38055 44.0717 1.4429 43.1365L0.0101818 43.041L-1.42254 42.9455C-1.5365 44.6551 -0.936511 47.0584 1.07313 49.026C3.10084 51.0114 6.4125 52.4114 11.4711 52.4115L11.4711 50.9756ZM0.0101818 43.041H1.44608V10.9512H0.0101818H-1.42572V43.041H0.0101818ZM0.0101818 10.9512H1.44608C1.44608 6.75935 3.13051 4.42249 5.10688 3.09928C7.17066 1.71755 9.70234 1.3493 11.3829 1.4527L11.4711 0.0195117L11.5593 -1.41368C9.4196 -1.54532 6.22081 -1.10252 3.50919 0.712945C0.710172 2.58693 -1.42572 5.83341 -1.42572 10.9512H0.0101818ZM11.4711 0.0195117V1.45541H45.6772V0.0195117V-1.41639H11.4711V0.0195117Z" fill="var(--key-stroke, #7D6E64)" mask="url(#path-1-inside-1_0_57)"/>
</g>
<g id="Top">
<rect id="Face" x="5.71788" y="0.720297" width="46.523" height="32.4174" rx="4.92427" fill="var(--key-fill, #1B161A)" stroke="var(--key-stroke, #7D6E64)" stroke-width="1.4359"/>
<path id="Arrow" d="M29.4663 13.5541C29.0368 12.8184 27.963 12.8184 27.5335 13.5541L24.1511 19.3472C23.7216 20.0828 24.2585 21.0023 25.1175 21.0023L31.8824 21.0023C32.7414 21.0023 33.2783 20.0828 32.8488 19.3472L29.4663 13.5541Z" fill="var(--key-symbol, #7D6E64)"/>
</g>
</g>
</svg>
