<svg preserveAspectRatio="none" width="100%" height="100%" overflow="visible" style="display: block;" viewBox="0 0 57.1474 50.9752" fill="none" xmlns="http://www.w3.org/2000/svg">
<g id="Frame 2147210507">
<g id="Union">
<mask id="path-1-inside-1_0_51" fill="white">
<path d="M45.6762 0.0191152C49.4965 -0.215976 57.1371 1.64119 57.1372 10.9508V43.0406C57.3135 45.6854 55.268 50.9752 45.6762 50.9752H11.4712C1.87939 50.9752 -0.166091 45.6854 0.0102281 43.0406V10.9508C0.0102906 1.64119 7.65093 -0.215976 11.4712 0.0191152H45.6762Z"/>
</mask>
<path d="M45.6762 0.0191152C49.4965 -0.215976 57.1371 1.64119 57.1372 10.9508V43.0406C57.3135 45.6854 55.268 50.9752 45.6762 50.9752H11.4712C1.87939 50.9752 -0.166091 45.6854 0.0102281 43.0406V10.9508C0.0102906 1.64119 7.65093 -0.215976 11.4712 0.0191152H45.6762Z" fill="var(--fill-0, #1B161A)"/>
<path d="M45.6762 0.0191152V1.45501H45.7204L45.7644 1.4523L45.6762 0.0191152ZM57.1372 10.9508H58.5731V10.9507L57.1372 10.9508ZM57.1372 43.0406H55.7013V43.0884L55.7045 43.1361L57.1372 43.0406ZM0.0102281 43.0406L1.44295 43.1361L1.44613 43.0884V43.0406H0.0102281ZM0.0102281 10.9508L-1.42567 10.9507V10.9508H0.0102281ZM11.4712 0.0191152L11.383 1.4523L11.427 1.45501H11.4712V0.0191152ZM45.6762 0.0191152L45.7644 1.4523C47.445 1.34888 49.9767 1.71712 52.0404 3.09886C54.0168 4.42207 55.7013 6.75894 55.7013 10.9508L57.1372 10.9508L58.5731 10.9507C58.573 5.833 56.4371 2.58651 53.6381 0.71252C50.9265 -1.10295 47.7277 -1.54574 45.588 -1.41407L45.6762 0.0191152ZM57.1372 10.9508H55.7013V43.0406H57.1372H58.5731V10.9508H57.1372ZM57.1372 43.0406L55.7045 43.1361C55.7668 44.0714 55.4322 45.6353 54.0652 46.9737C52.7163 48.2944 50.2093 49.5393 45.6762 49.5393V50.9752V52.4111C50.7349 52.4111 54.0466 51.011 56.0743 49.0257C58.0839 47.058 58.6839 44.6546 58.5699 42.9451L57.1372 43.0406ZM45.6762 50.9752V49.5393H11.4712V50.9752V52.4111H45.6762V50.9752ZM11.4712 50.9752V49.5393C6.93808 49.5393 4.43113 48.2944 3.08222 46.9737C1.71525 45.6353 1.3806 44.0714 1.44295 43.1361L0.0102281 43.0406L-1.42249 42.9451C-1.53646 44.6546 -0.936531 47.058 1.0731 49.0257C3.1008 51.011 6.41247 52.4111 11.4712 52.4111V50.9752ZM0.0102281 43.0406H1.44613V10.9508H0.0102281H-1.42567V43.0406H0.0102281ZM0.0102281 10.9508L1.44613 10.9508C1.44615 6.75894 3.1306 4.42207 5.10698 3.09886C7.17076 1.71712 9.70241 1.34888 11.383 1.4523L11.4712 0.0191152L11.5594 -1.41407C9.41968 -1.54574 6.2209 -1.10295 3.50929 0.71252C0.710268 2.58651 -1.42564 5.833 -1.42567 10.9507L0.0102281 10.9508ZM11.4712 0.0191152V1.45501H45.6762V0.0191152V-1.41678H11.4712V0.0191152Z" fill="var(--stroke-0, #7D6E64)" mask="url(#path-1-inside-1_0_51)"/>
</g>
<rect id="Rectangle 24" x="5.69642" y="0.719902" width="46.5641" height="32.5641" rx="4.92427" fill="var(--fill-0, #1B161A)" stroke="var(--stroke-0, #7D6E64)" stroke-width="1.4359"/>
<path id="Polygon 53" d="M29.4449 20.4502C29.0154 21.1859 27.9416 21.1859 27.5121 20.4502L24.1296 14.6571C23.7001 13.9215 24.237 13.002 25.096 13.002L31.8609 13.002C32.7199 13.002 33.2568 13.9215 32.8273 14.6571L29.4449 20.4502Z" fill="var(--fill-0, #7D6E64)"/>
</g>
</svg>
