<svg preserveAspectRatio="none" width="100%" height="100%" overflow="visible" style="display: block;" viewBox="0 0 29.6806 6.3315" fill="none" xmlns="http://www.w3.org/2000/svg">
<path id="Vector 924" d="M0.390337 4.53883C-0.0474166 4.87556 -0.129308 5.50341 0.207428 5.94116C0.544163 6.37892 1.17201 6.46081 1.60976 6.12407L1.00005 5.33145L0.390337 4.53883ZM1.00005 5.33145L1.60976 6.12407C2.04916 5.78607 2.53243 5.46205 3.05499 5.15455L2.54784 4.2927L2.04068 3.43084C1.45395 3.7761 0.901318 4.14576 0.390337 4.53883L1.00005 5.33145ZM5.92912 2.71547L6.27371 3.65422C7.36015 3.25542 8.52121 2.92022 9.72836 2.65809L9.51616 1.68086L9.30396 0.70364C8.01219 0.984145 6.76231 1.34438 5.58452 1.77672L5.92912 2.71547ZM13.2075 1.11848L13.2965 2.11451C14.494 2.0074 15.7036 1.97388 16.9007 2.02052L16.9396 1.02128L16.9785 0.022033C15.6925 -0.0280707 14.3973 0.00805831 13.1184 0.122459L13.2075 1.11848ZM20.6492 1.43111L20.4647 2.41394C21.6577 2.63787 22.8054 2.95479 23.882 3.37001L24.2418 2.437L24.6017 1.50399C23.3996 1.04038 22.1332 0.692202 20.8337 0.448271L20.6492 1.43111ZM27.5443 4.16359L26.9747 4.98557C27.4517 5.31602 27.901 5.67519 28.3195 6.06388L29 5.33117L29.6806 4.59845C29.1891 4.14196 28.6651 3.72357 28.1138 3.3416L27.5443 4.16359Z" fill="var(--stroke-0, #7D6E64)"/>
</svg>
