<svg width="129" height="40" viewBox="0 0 129 40" fill="none" xmlns="http://www.w3.org/2000/svg">
<path opacity="0.1" d="M12.8552 24.0097H20.1082C20.2082 25.2102 20.2582 26.3607 20.2582 27.4111C20.2582 35.4644 18.9577 39.1659 10.5043 39.1659C5.50226 39.1659 3.15131 38.3656 1.85078 36.0646C0.550251 33.8637 2.83007e-05 30.9626 2.83007e-05 19.2578C2.83007e-05 7.55307 0.550251 5.30215 1.85078 3.00122C3.15131 0.750306 5.50226 2.32137e-06 10.2542 2.32137e-06C18.7576 2.32137e-06 20.1582 3.10126 20.1582 11.1545C20.1582 12.1049 20.1082 13.2554 20.0582 14.5059H12.7052C12.7052 10.5043 12.5551 9.40382 12.355 8.70353C12.205 8.05327 11.5547 7.75315 10.2542 7.75315C9.00368 7.75315 8.50348 8.05327 8.3034 8.70353C7.95325 9.70394 7.80319 10.9544 7.80319 19.1578C7.80319 27.5112 7.95325 28.7116 8.3034 29.8121C8.50348 30.4624 9.00368 30.7125 10.5043 30.7125C11.5547 30.7125 12.1049 30.4624 12.305 29.8621C12.8052 28.4615 12.8552 27.111 12.8552 24.0097ZM40.2238 36.0646C38.9232 38.4156 36.6723 39.1659 31.8704 39.1659C27.0184 39.1659 24.7675 38.4156 23.467 36.0646C22.1664 33.7637 21.6162 31.4628 21.6162 19.5579C21.6162 7.65311 22.1664 5.45221 23.467 3.10126C24.7675 0.800329 27.0184 2.32137e-06 31.8704 2.32137e-06C36.6723 2.32137e-06 38.9232 0.800329 40.2238 3.10126C41.5243 5.45221 42.0745 7.65311 42.0745 19.5579C42.0745 31.4628 41.5243 33.7637 40.2238 36.0646ZM33.8212 29.8121C34.1213 28.8117 34.2713 27.4611 34.2713 19.3579C34.2713 11.0045 34.1213 9.65392 33.8212 8.70353C33.5711 8.05327 33.1209 7.75315 31.8704 7.75315C30.6199 7.75315 30.1197 8.05327 29.9196 8.70353C29.5694 9.65392 29.4194 11.0045 29.4194 19.3579C29.4194 27.4611 29.5694 28.8117 29.9196 29.8121C30.1197 30.4624 30.6199 30.7125 31.8704 30.7125C33.1209 30.7125 33.5711 30.4624 33.8212 29.8121ZM61.8888 36.0646C60.5883 38.4156 58.3374 39.1659 53.5354 39.1659C48.6834 39.1659 46.4325 38.4156 45.132 36.0646C43.8315 33.7637 43.2813 31.4628 43.2813 19.5579C43.2813 7.65311 43.8315 5.45221 45.132 3.10126C46.4325 0.800329 48.6834 2.32137e-06 53.5354 2.32137e-06C58.3374 2.32137e-06 60.5883 0.800329 61.8888 3.10126C63.1893 5.45221 63.7395 7.65311 63.7395 19.5579C63.7395 31.4628 63.1893 33.7637 61.8888 36.0646ZM55.4862 29.8121C55.7863 28.8117 55.9364 27.4611 55.9364 19.3579C55.9364 11.0045 55.7863 9.65392 55.4862 8.70353C55.2361 8.05327 54.7859 7.75315 53.5354 7.75315C52.2849 7.75315 51.7847 8.05327 51.5846 8.70353C51.2345 9.65392 51.0844 11.0045 51.0844 19.3579C51.0844 27.4611 51.2345 28.8117 51.5846 29.8121C51.7847 30.4624 52.2849 30.7125 53.5354 30.7125C54.7859 30.7125 55.2361 30.4624 55.4862 29.8121ZM87.7555 38.5156H78.7519L74 21.5087H73.4998C73.5998 22.3591 73.5998 23.3595 73.5998 24.3099V38.5156H65.5465V0.650267H73.5998V14.4559C73.5998 15.2562 73.5498 15.8564 73.4998 16.5067H74L79.052 0.650267H87.3054V0.900368L81.553 17.8072L87.7555 38.2655V38.5156ZM105.677 38.5156H88.9701V0.650267H105.727V8.65351H96.8233V15.3062H105.577V22.9593H96.8233V30.1122H105.677V38.5156ZM128.658 38.5156H120.305C119.905 37.2651 119.754 36.5148 118.754 27.7613C118.404 24.2598 117.954 23.7596 116.953 23.7596H115.753V38.5156H107.9V0.650267H119.354C126.157 0.650267 127.908 3.55144 127.908 10.8544C127.908 18.6576 126.807 19.2078 124.656 20.4583V20.7584C125.057 21.1086 125.507 21.4087 125.857 22.3091C126.407 23.5095 126.957 25.7605 127.508 30.1622C128.258 36.3147 128.308 37.1651 128.658 38.2655V38.5156ZM115.753 16.7068H117.954C119.404 16.7068 119.955 15.7064 119.955 12.205C119.955 9.20374 119.304 8.45343 117.754 8.45343H115.753V16.7068Z" fill="#D0ECFB"/>
</svg>
