<svg width="72" height="40" viewBox="0 0 72 40" fill="none" xmlns="http://www.w3.org/2000/svg">
<path opacity="0.1" d="M20.7584 38.5156H12.405C12.0049 37.2651 11.8548 36.5148 10.8544 27.7613C10.5043 24.2598 10.0541 23.7596 9.05368 23.7596H7.85319V38.5156H6.24172e-06V0.650267H11.4547C18.2574 0.650267 20.0081 3.55144 20.0081 10.8544C20.0081 18.6576 18.9077 19.2078 16.7568 20.4583V20.7584C17.157 21.1086 17.6071 21.4087 17.9573 22.3091C18.5075 23.5095 19.0577 25.7605 19.608 30.1622C20.3583 36.3147 20.4083 37.1651 20.7584 38.2655V38.5156ZM7.85319 16.7068H10.0541C11.5047 16.7068 12.0549 15.7064 12.0549 12.205C12.0549 9.20374 11.4046 8.45343 9.854 8.45343H7.85319V16.7068ZM30.258 38.5156H22.2047V0.650267H30.258V38.5156ZM45.0339 24.0097H52.2868C52.3869 25.2102 52.4369 26.3607 52.4369 27.4111C52.4369 35.4644 51.1364 39.1659 42.6829 39.1659C37.6809 39.1659 35.33 38.3656 34.0294 36.0646C32.7289 33.8637 32.1787 30.9626 32.1787 19.2578C32.1787 7.55307 32.7289 5.30215 34.0294 3.00122C35.33 0.750306 37.6809 2.32137e-06 42.4328 2.32137e-06C50.9363 2.32137e-06 52.3369 3.10126 52.3369 11.1545C52.3369 12.1049 52.2868 13.2554 52.2368 14.5059H44.8838C44.8838 10.5043 44.7338 9.40382 44.5337 8.70353C44.3836 8.05327 43.7334 7.75315 42.4328 7.75315C41.1823 7.75315 40.6821 8.05327 40.482 8.70353C40.1319 9.70394 39.9818 10.9544 39.9818 19.1578C39.9818 27.5112 40.1319 28.7116 40.482 29.8121C40.6821 30.4624 41.1823 30.7125 42.6829 30.7125C43.7334 30.7125 44.2836 30.4624 44.4837 29.8621C44.9839 28.4615 45.0339 27.111 45.0339 24.0097ZM71.1019 38.5156H54.3951V0.650267H71.1519V8.65351H62.2483V15.3062H71.0018V22.9593H62.2483V30.1122H71.1019V38.5156Z" fill="#D0ECFB"/>
</svg>
