<svg width="190" height="90" viewBox="0 0 190 90" fill="none" xmlns="http://www.w3.org/2000/svg">
<path d="M55.5342 0.957573C56.8125 -0.116529 58.6767 -0.335209 60.2064 0.547921C60.8167 0.900338 61.3014 1.3871 61.6454 1.9486C63.2013 1.07586 65.2069 1.30068 66.5305 2.624C67.2969 3.39033 67.6939 4.38585 67.724 5.38987C68.6412 5.6936 69.4554 6.32171 69.9766 7.22419C70.4512 8.04625 70.6058 8.9653 70.4822 9.83752C71.6095 10.3088 72.5149 11.2782 72.8557 12.5497C73.0342 13.2162 73.0354 13.8886 72.8912 14.5173C74.4136 15.111 75.4927 16.5907 75.493 18.3232C75.493 19.3159 75.1368 20.2248 74.548 20.9327C74.727 20.9558 74.9071 20.9902 75.0862 21.0382C75.8876 21.253 76.5693 21.6927 77.0817 22.27C78.1808 21.8649 79.4456 21.9332 80.5393 22.5646C80.9716 22.8142 81.3416 23.1311 81.6426 23.4942C83.0788 22.989 84.7422 23.3118 85.8907 24.4603C86.4825 25.0523 86.8539 25.7813 87.0064 26.545C88.1584 26.7451 89.2167 27.4363 89.8471 28.528C90.2727 29.2653 90.4421 30.0804 90.3834 30.8698C91.4105 31.37 92.2241 32.296 92.543 33.486C92.8171 34.5096 92.6758 35.5464 92.2244 36.4188C92.9459 37.1555 93.3919 38.1634 93.392 39.2759C93.392 39.9695 93.2166 40.6216 92.9113 41.1936C93.5931 40.7484 94.4069 40.4885 95.282 40.4885C96.9239 40.4887 98.3527 41.4001 99.0916 42.744C100.205 42.2041 101.539 42.1402 102.757 42.6826C103.865 43.1758 104.665 44.0758 105.059 45.128C106.527 44.8177 108.115 45.2761 109.191 46.4711C109.76 47.1036 110.109 47.8574 110.243 48.6384C111.581 48.9341 112.745 49.8565 113.308 51.1845H113.704C114.018 50.6967 114.446 50.2724 114.983 49.9623C115.993 49.3789 117.163 49.317 118.177 49.6937C118.661 49.0849 119.339 48.6202 120.148 48.4033C120.769 48.2369 121.396 48.2369 121.981 48.3745C122.67 47.6003 123.675 47.1122 124.793 47.112C125.409 47.112 125.991 47.2611 126.505 47.5236C126.563 47.5536 126.622 47.5856 126.678 47.6186C126.764 47.6685 126.848 47.7225 126.93 47.7788C127.327 47.504 127.779 47.3031 128.267 47.1974C128.292 47.192 128.317 47.1869 128.342 47.182C128.577 47.1362 128.819 47.112 129.067 47.112C130.32 47.112 131.429 47.7243 132.113 48.6652C132.769 48.4612 133.489 48.4341 134.202 48.6249C135.09 48.8628 135.817 49.3999 136.307 50.0976C136.31 50.0958 136.313 50.0945 136.316 50.0928C137.193 49.5867 138.189 49.4743 139.1 49.6994C139.566 49.1973 140.174 48.8152 140.884 48.6249C141.596 48.4341 142.316 48.4612 142.972 48.6652C143.657 47.7244 144.766 47.112 146.018 47.112C146.324 47.1121 146.621 47.1498 146.905 47.2185C146.946 47.2285 146.988 47.2388 147.029 47.2502C147.273 47.3182 147.508 47.4101 147.73 47.5236C147.789 47.5536 147.847 47.5856 147.904 47.6186C147.978 47.6619 148.052 47.7075 148.123 47.7557C148.203 47.8093 148.279 47.8672 148.353 47.9265C148.746 47.6152 149.202 47.3798 149.699 47.2444C149.729 47.2362 149.76 47.2289 149.791 47.2214C150.079 47.1508 150.38 47.1121 150.69 47.112C151.942 47.1121 153.051 47.7244 153.736 48.6652C154.391 48.4613 155.112 48.4341 155.824 48.6249C157.034 48.9492 157.947 49.8278 158.365 50.914C159.051 50.8869 159.753 51.0462 160.392 51.4148C161.476 52.0411 162.132 53.1263 162.254 54.2833C162.923 54.4348 163.561 54.7703 164.082 55.2916C165.082 56.2914 165.401 57.7143 165.041 58.9842C165.371 59.2599 165.659 59.5986 165.886 59.9925C166.559 61.1587 166.537 62.5355 165.948 63.6429C166.337 64.0719 166.633 64.5976 166.794 65.1952C167.034 66.0931 166.927 67.002 166.558 67.7807C167.301 68.4683 167.767 69.4528 167.767 70.5456C167.767 71.798 167.155 72.9075 166.214 73.5916C166.418 74.2476 166.445 74.9677 166.254 75.6802C165.93 76.8893 165.052 77.8012 163.966 78.2187C163.994 78.9055 163.834 79.6085 163.465 80.2478C162.838 81.3323 161.753 81.9861 160.596 82.108C160.445 82.7782 160.109 83.4157 159.588 83.9375C158.588 84.9372 157.165 85.2554 155.895 84.895C155.619 85.225 155.282 85.5136 154.888 85.7411C153.634 86.4647 152.138 86.3832 150.994 85.6605C150.54 86.1197 149.962 86.4695 149.294 86.6487C148.925 86.7474 148.555 86.7819 148.192 86.7686C147.808 86.7895 147.415 86.7536 147.023 86.6487C146.425 86.4885 145.9 86.1915 145.472 85.8025C144.364 86.3911 142.987 86.4143 141.821 85.7411C141.427 85.5136 141.089 85.225 140.814 84.895C139.713 85.2076 138.499 85.009 137.543 84.3001C136.588 85.009 135.373 85.2074 134.273 84.895C133.997 85.2249 133.659 85.5127 133.265 85.7402C132.099 86.4135 130.723 86.3902 129.615 85.8016C129.186 86.191 128.661 86.4883 128.063 86.6487C127.681 86.7509 127.298 86.788 126.923 86.7705C126.553 86.7864 126.175 86.7495 125.799 86.6487C125.201 86.4884 124.676 86.1915 124.247 85.8025C123.14 86.3912 121.762 86.4146 120.596 85.7411C120.202 85.5135 119.864 85.225 119.589 84.895C118.319 85.2553 116.896 84.9373 115.896 83.9375C115.634 83.6759 115.419 83.3853 115.251 83.076C114.614 83.8237 113.72 84.2749 112.78 84.374C112.629 85.0442 112.292 85.6818 111.771 86.2035C110.771 87.2031 109.348 87.5216 108.078 87.161C107.802 87.4909 107.465 87.7797 107.071 88.0072C105.905 88.6801 104.528 88.6569 103.42 88.0686C102.991 88.4576 102.466 88.7545 101.868 88.9147C101.518 89.0086 101.166 89.0473 100.82 89.0395C100.504 89.0393 100.182 89.0006 99.861 88.9147C99.263 88.7545 98.7378 88.4577 98.3088 88.0686C97.2012 88.657 95.8246 88.6803 94.6584 88.0072C94.2643 87.7797 93.9267 87.491 93.651 87.161C92.3809 87.5216 90.9584 87.2033 89.9584 86.2035C89.4366 85.6818 89.1005 85.0443 88.9491 84.374C87.7922 84.2521 86.7069 83.5982 86.0806 82.5138C85.8767 82.1606 85.7382 81.7873 85.6585 81.4086C85.3576 82.334 84.7296 83.1564 83.8203 83.6814C83.631 83.7907 83.4359 83.8826 83.238 83.9586C82.7319 84.9596 81.8193 85.7493 80.6506 86.0625C79.8287 86.2827 78.9982 86.2358 78.2512 85.9752C77.5026 86.8248 76.4073 87.3615 75.186 87.3615C74.052 87.3614 73.0259 86.8989 72.2858 86.1527C71.3563 86.7388 70.195 86.9517 69.0499 86.6449C68.3742 86.4638 67.7834 86.1232 67.3076 85.6749C66.0898 86.3639 64.5499 86.4098 63.2504 85.6596C62.6847 85.3329 62.227 84.8907 61.8891 84.3807C60.4646 84.861 58.8279 84.5351 57.6928 83.4003C57.6907 83.3982 57.6891 83.3956 57.687 83.3935C57.2143 84.5166 56.2488 85.4186 54.9807 85.7584C54.2115 85.9644 53.4349 85.9352 52.7261 85.7171C51.9834 86.7364 50.7817 87.3999 49.424 87.3999C48.2822 87.3998 47.2496 86.931 46.5084 86.1757C45.5947 86.719 44.4715 86.9081 43.3636 86.6113C42.5987 86.4062 41.9428 85.9971 41.4391 85.4581C40.1824 86.3188 38.4927 86.4385 37.0855 85.626C36.5772 85.3325 36.156 84.946 35.8306 84.5007C34.9846 84.6002 34.1144 84.4349 33.3516 84.0066C32.8316 84.9298 31.9578 85.6524 30.8534 85.9483C30.0796 86.1557 29.2987 86.125 28.5864 85.9033C27.8439 86.9249 26.6409 87.5898 25.2814 87.5898C24.0282 87.5898 22.907 87.0257 22.1577 86.1374C21.2427 86.6837 20.1168 86.8753 19.0061 86.5777C18.3627 86.4052 17.7974 86.0872 17.3339 85.6701C16.1353 86.2981 14.6515 86.3191 13.3928 85.5924C12.8513 85.2797 12.4089 84.8613 12.0756 84.3788C10.6634 84.8338 9.05336 84.5023 7.93209 83.3811C7.37824 82.8272 7.01628 82.154 6.84704 81.4441C5.8987 81.1505 5.05423 80.5133 4.51864 79.5858C4.11812 78.892 3.94394 78.1294 3.97372 77.384C2.79544 76.931 1.8417 75.9414 1.4899 74.6287C1.27363 73.8215 1.31525 73.0053 1.56378 72.2687C0.612113 71.5208 0 70.36 0 69.0557C0.000109707 67.8699 0.50537 66.8019 1.31242 66.0558C0.911027 65.2104 0.796108 64.2235 1.05723 63.2486C1.28776 62.3884 1.77657 61.666 2.41762 61.1428C2.03791 60.0586 2.11485 58.8215 2.73421 57.7486C3.07988 57.1499 3.55439 56.6714 4.10227 56.3287C3.97685 55.1442 4.36683 53.9152 5.27463 53.0074C5.80607 52.4759 6.44805 52.1227 7.12622 51.9453C6.25508 51.4188 5.57713 50.5703 5.29286 49.5095C5.08565 48.7359 5.11546 47.9545 5.33699 47.2425C4.31573 46.5 3.65142 45.2967 3.65137 43.9374C3.65149 42.8593 4.06931 41.8785 4.75177 41.1486C4.26436 40.2587 4.10483 39.1868 4.38817 38.1294C4.56211 37.4807 4.88318 36.9102 5.30533 36.4447C4.66695 35.2426 4.64271 33.7482 5.37344 32.4825C5.67989 31.952 6.08807 31.5162 6.55827 31.1855C6.25509 29.8606 6.61903 28.4135 7.65099 27.3816C8.06351 26.9692 8.54284 26.6635 9.05359 26.4644C9.13508 25.1429 9.85597 23.8854 11.0884 23.1738C11.7815 22.7737 12.5437 22.6004 13.2883 22.6298C13.7412 21.4511 14.7326 20.4978 16.0455 20.146C16.8187 19.9389 17.5997 19.9688 18.3115 20.1901C19.0541 19.1685 20.2589 18.5035 21.6185 18.5035C21.6872 18.5035 21.7559 18.505 21.8238 18.5083C21.8308 18.5087 21.838 18.5099 21.8449 18.5102C22.0357 18.5207 22.2232 18.5445 22.4061 18.5803C22.4333 18.5856 22.4607 18.5907 22.4877 18.5966C23.13 18.7359 23.7163 19.026 24.2069 19.4284C24.3526 19.5478 24.4896 19.6777 24.6175 19.816C25.4632 19.4142 26.4513 19.2994 27.4265 19.5608C27.7275 19.6414 28.0103 19.756 28.2746 19.8956C28.2943 19.7892 28.3181 19.6824 28.3466 19.5761C28.7374 18.1184 29.8695 17.0572 31.2285 16.6894C31.1593 15.8851 31.3258 15.0517 31.76 14.2996C32.2215 13.5005 32.9129 12.9165 33.7018 12.5823C33.7221 11.5644 34.1194 10.5519 34.8962 9.77516C35.4783 9.19324 36.1929 8.82429 36.9425 8.66709C37.1628 7.55104 37.8448 6.532 38.9073 5.91849C39.3732 5.64956 39.8705 5.48246 40.3723 5.41098C40.8294 4.24342 41.8169 3.3006 43.1209 2.95115C43.6983 2.79649 44.2804 2.77435 44.8343 2.86481C45.5811 1.89524 46.7538 1.27048 48.0722 1.27033C48.7558 1.27037 49.4009 1.43782 49.967 1.73466C50.9493 0.504924 52.6004 -0.0965275 54.218 0.33686C54.7047 0.467289 55.1469 0.681058 55.5342 0.957573Z" fill="#414727"/>
<path d="M21.9704 54.292C25.3451 54.292 28.7628 55.4934 31.2697 57.8134C31.4199 57.9524 31.4368 58.1824 31.314 58.3462L27.2514 63.7628C27.1059 63.9569 26.8249 63.9812 26.6367 63.8284C25.3916 62.8174 23.7959 62.2418 22.2001 62.2418C19.443 62.2418 17.3291 64.1258 17.3291 66.929C17.3291 69.778 19.397 71.754 22.292 71.754C23.8455 71.754 25.399 71.1785 26.637 70.1679C26.8249 70.0145 27.1059 70.0389 27.2514 70.2329L31.314 75.6496C31.4368 75.8134 31.4199 76.0433 31.2697 76.1825C28.7657 78.5024 25.3895 79.7038 21.9704 79.7038C14.7558 79.7038 9.01172 74.3273 9.01172 66.9749C9.01172 59.6225 14.7558 54.292 21.9704 54.292Z" fill="#E8FF76"/>
<path d="M31.3552 66.9749C31.3552 59.3927 36.8695 54.292 44.3598 54.292C51.85 54.292 57.3184 59.3927 57.3184 66.9749C57.3184 74.5571 51.85 79.7038 44.3598 79.7038C36.8695 79.7038 31.3552 74.5571 31.3552 66.9749ZM48.955 66.9749C48.955 64.2177 47.1629 62.2418 44.3598 62.2418C41.5566 62.2418 39.6726 64.1718 39.6726 66.9749C39.6726 69.7321 41.5107 71.754 44.3598 71.754C47.1629 71.754 48.955 69.7321 48.955 66.9749Z" fill="#E8FF76"/>
<path d="M59.2632 66.9749C59.2632 59.3927 64.7775 54.292 72.2678 54.292C79.7581 54.292 85.2264 59.3927 85.2264 66.9749C85.2264 74.5571 79.7581 79.7038 72.2678 79.7038C64.7775 79.7038 59.2632 74.5571 59.2632 66.9749ZM76.863 66.9749C76.863 64.2177 75.0709 62.2418 72.2678 62.2418C69.4647 62.2418 67.5806 64.1718 67.5806 66.9749C67.5806 69.7321 69.4187 71.754 72.2678 71.754C75.0709 71.754 76.863 69.7321 76.863 66.9749Z" fill="#E8FF76"/>
<path d="M88.223 78.8766C87.9974 78.8766 87.8145 78.6937 87.8145 78.4681V47.2561C87.8145 47.0305 87.9974 46.8477 88.223 46.8477H95.9073C96.1329 46.8477 96.3158 47.0305 96.3158 47.2561V63.6254C96.3158 63.851 96.4987 64.0339 96.7243 64.0339H99.6411C99.7992 64.0339 99.9431 63.9427 100.011 63.7997L104.017 55.3074C104.085 55.1644 104.229 55.0732 104.387 55.0732H111.783C112.087 55.0732 112.284 55.3934 112.148 55.6651L107.942 64.0363C107.824 64.2705 107.956 64.5533 108.207 64.6278C112.054 65.7689 112.859 68.4265 112.859 72.3973V75.9357C112.859 76.7767 112.891 77.5859 113.007 78.3898C113.044 78.6434 112.851 78.8766 112.595 78.8766H105.009C104.817 78.8766 104.649 78.7422 104.617 78.5523C104.527 78.0159 104.495 77.4742 104.495 76.9007C104.495 76.4411 104.495 75.9816 104.541 75.5221L104.587 74.2354C104.587 72.1676 104.174 70.4673 101.187 70.4673H96.7243C96.4987 70.4673 96.3158 70.6502 96.3158 70.8758V78.4681C96.3158 78.6937 96.1329 78.8766 95.9073 78.8766H88.223Z" fill="#E8FF76"/>
<path d="M151.19 54.292C152.276 54.292 153.286 54.4058 154.254 54.6679C154.428 54.7149 154.545 54.8744 154.545 55.0542V61.9838C154.545 62.2663 154.264 62.4641 153.99 62.3983C153.531 62.2884 153.073 62.2418 152.615 62.2418C149.169 62.2418 148.112 64.6313 148.112 67.7101V78.4681C148.112 78.6937 147.929 78.8766 147.703 78.8766H140.019C139.793 78.8766 139.61 78.6937 139.61 78.4681V67.3885C139.61 59.8982 143.241 54.292 151.19 54.292Z" fill="#E8FF76"/>
<path d="M127.357 60.6671C124.909 60.6671 123.082 62.0619 122.515 64.3178C122.442 64.6059 122.717 64.8452 123.002 64.761L130.664 62.4981C130.946 62.4147 131.048 62.0703 130.826 61.8761C129.874 61.0409 128.582 60.6671 127.357 60.6671ZM132.279 69.5594C132.474 69.4064 132.762 69.4459 132.897 69.6538L136.407 75.0404C136.515 75.2058 136.489 75.4252 136.342 75.5567C133.84 77.7924 130.503 78.9103 127.081 78.9103C119.728 78.9103 114.444 73.6257 114.444 66.1814C114.444 58.6911 119.912 53.7027 127.357 53.7027C134.134 53.7027 138.394 58.0467 138.535 63.8225C138.539 63.9989 138.425 64.1565 138.258 64.2116L123.681 69.0019C123.426 69.0858 123.32 69.3902 123.494 69.595C124.489 70.7641 126.015 71.2822 127.54 71.2822C129.268 71.2822 130.919 70.6252 132.279 69.5594Z" fill="#E8FF76"/>
<path d="M52.9216 25.7729C56.2964 25.7729 59.7144 26.9748 62.2214 29.2948C62.3716 29.4338 62.3885 29.6638 62.2657 29.8276L58.2036 35.2439C58.0581 35.4379 57.7771 35.4623 57.5888 35.3095C56.3438 34.2986 54.7478 33.7232 53.1521 33.7231C50.395 33.7231 48.2811 35.6067 48.281 38.4097C48.281 41.2587 50.3489 43.2349 53.2439 43.2349C54.7973 43.2348 56.3512 42.6596 57.5892 41.649C57.7771 41.4957 58.0581 41.5201 58.2036 41.7141L62.2657 47.1304C62.3885 47.2942 62.3715 47.5241 62.222 47.664C59.7439 49.9834 56.7495 51.185 53.3308 51.1851C46.1162 51.1851 39.9636 45.808 39.9636 38.4556C39.9638 31.1035 45.7074 25.7732 52.9216 25.7729ZM74.8113 25.9771C81.5886 25.9771 85.8484 30.3215 85.9893 36.0973C85.9936 36.2737 85.8796 36.4313 85.712 36.4864L71.1362 41.2764C70.8808 41.3603 70.7749 41.6647 70.9491 41.8695C71.9435 43.0384 73.4691 43.5561 74.9949 43.5562C76.7226 43.5562 78.3729 42.8995 79.7335 41.8338C79.9288 41.6808 80.2164 41.7203 80.3518 41.9281L83.8615 47.3145C83.9693 47.4799 83.9438 47.6993 83.7966 47.8308C81.2946 50.0666 77.9575 51.1851 74.5349 51.1851C67.1827 51.1848 61.8982 45.8997 61.8982 38.4556C61.8983 30.9655 67.3671 25.9771 74.8113 25.9771ZM23.4324 25.7729C24.6565 25.773 25.8247 26.1424 26.6601 26.8811C26.7429 26.9543 26.7869 27.0609 26.7869 27.1713V33.4648C26.7869 33.7473 26.5062 33.9451 26.2315 33.8793C25.7734 33.7696 25.3153 33.7232 24.8572 33.7231C21.4108 33.7231 20.3533 36.1122 20.3533 39.1909V49.9494C20.3533 50.175 20.1704 50.3579 19.9448 50.3579H12.2608C12.0352 50.3579 11.8523 50.175 11.8523 49.9494V38.8696C11.8523 31.3794 15.4826 25.7729 23.4324 25.7729ZM35.8621 35.5229C36.7468 35.2351 37.7634 35.8591 37.7634 36.7896V49.9494C37.7634 50.175 37.5805 50.3579 37.3549 50.3579H29.6709C29.4453 50.3579 29.2625 50.175 29.2625 49.9494V36.7896C29.2625 35.8591 30.28 35.235 31.1648 35.5229C31.8813 35.7561 32.7163 35.9497 33.5134 35.9497C34.3106 35.9497 35.1455 35.7561 35.8621 35.5229ZM74.8113 32.9419C72.364 32.9419 70.5366 34.3365 69.9695 36.5925C69.897 36.8806 70.1719 37.1198 70.4568 37.0357L78.1191 34.7729C78.4015 34.6895 78.5025 34.345 78.2812 34.1509C77.3294 33.3157 76.0362 32.9419 74.8113 32.9419Z" fill="#E8FF76"/>
<path d="M39.6375 28.3738C38.1008 29.8274 34.787 32.8982 33.8976 37.6529L32.292 37.3526C33.2892 32.0213 36.9934 28.6259 38.5145 27.187L39.6375 28.3738Z" fill="#E8FF76"/>
<path d="M51.3271 8.90598C56.1428 8.43681 60.4294 10.1033 62.4501 11.2319L61.6534 12.6585C59.8218 11.6356 55.8706 10.1049 51.4856 10.5321C47.1686 10.9527 42.326 13.2774 38.6002 20.1431C35.0105 27.7687 33.3795 38.4203 32.8464 49.0015L31.2142 48.919C31.7507 38.27 33.3967 27.3488 37.1325 19.4262L37.153 19.3857C41.1302 12.043 46.4473 9.38143 51.3271 8.90598Z" fill="#E8FF76"/>
<path d="M47.6801 10.2524L44.2827 13.2708L43.1979 12.0491L46.5953 9.03125L47.6801 10.2524Z" fill="#E8FF76"/>
<path d="M36.5338 18.183C36.2778 19.8307 35.5625 21.0876 34.9363 20.9903C34.31 20.893 34.0099 19.4784 34.2659 17.8306C34.5219 16.1829 35.2372 14.926 35.8634 15.0234C36.4897 15.1207 36.7898 16.5353 36.5338 18.183Z" fill="#E8FF76"/>
<path d="M41.667 14.1836C41.0237 15.722 40.0283 16.771 39.4436 16.5265C38.8589 16.282 38.9063 14.8367 39.5496 13.2983C40.1929 11.7598 41.1884 10.7109 41.7731 10.9554C42.3578 11.1999 42.3103 12.6452 41.667 14.1836Z" fill="#E8FF76"/>
<path d="M49.3285 8.82026C48.0791 9.92462 46.726 10.4349 46.3063 9.9601C45.8866 9.48526 46.5591 8.20506 47.8085 7.1007C49.0579 5.99634 50.4109 5.48601 50.8307 5.96086C51.2504 6.4357 50.5778 7.7159 49.3285 8.82026Z" fill="#E8FF76"/>
<path d="M55.6026 8.32808C54.1116 8.32808 52.903 7.81009 52.903 7.17112C52.903 6.53215 54.1116 6.01416 55.6026 6.01416C57.0935 6.01416 58.3021 6.53215 58.3021 7.17112C58.3021 7.81009 57.0935 8.32808 55.6026 8.32808Z" fill="#E8FF76"/>
<path d="M60.9659 6.70342C59.4181 6.59664 58.1944 6.06198 58.2325 5.50922C58.2706 4.95646 59.5562 4.59492 61.104 4.70169C62.6517 4.80846 63.8755 5.34312 63.8373 5.89588C63.7992 6.44864 62.5136 6.81019 60.9659 6.70342Z" fill="#E8FF76"/>
<path d="M63.1175 13.6256C61.6191 13.1152 60.5682 12.2207 60.7703 11.6276C60.9723 11.0345 62.3507 10.9674 63.8491 11.4778C65.3475 11.9881 66.3984 12.8827 66.1963 13.4758C65.9943 14.0689 64.6159 14.1359 63.1175 13.6256Z" fill="#E8FF76"/>
<path d="M69.0886 18.9945C67.9439 17.9012 67.4129 16.5992 67.9027 16.0864C68.3924 15.5737 69.7174 16.0443 70.8621 17.1376C72.0067 18.2309 72.5377 19.5329 72.0479 20.0456C71.5582 20.5584 70.2332 20.0878 69.0886 18.9945Z" fill="#E8FF76"/>
<path d="M58.0262 13.3686C56.6876 12.5237 55.9093 11.3527 56.2878 10.7531C56.6662 10.1535 58.0582 10.3524 59.3967 11.1972C60.7353 12.0421 61.5136 13.2131 61.1352 13.8127C60.7567 14.4123 59.3648 14.2135 58.0262 13.3686Z" fill="#E8FF76"/>
<path d="M51.1911 13.0054C49.3283 12.3243 48.0091 11.2499 48.2446 10.6058C48.4802 9.96169 50.1812 9.99173 52.044 10.6729C53.9069 11.3541 55.2261 12.4284 54.9905 13.0725C54.755 13.7166 53.054 13.6866 51.1911 13.0054Z" fill="#E8FF76"/>
<path d="M46.5173 16.4904C44.8635 17.1838 43.2816 17.1704 42.9838 16.4604C42.6861 15.7504 43.7854 14.6127 45.4392 13.9192C47.0929 13.2257 48.6749 13.2391 48.9727 13.9492C49.2704 14.6592 48.1711 15.7969 46.5173 16.4904Z" fill="#E8FF76"/>
<path d="M44.3365 19.8136C42.8287 20.7843 41.2594 21.0325 40.8315 20.3678C40.4036 19.7031 41.279 18.3774 42.7868 17.4066C44.2946 16.4359 45.8639 16.1877 46.2918 16.8524C46.7197 17.5171 45.8443 18.8429 44.3365 19.8136Z" fill="#E8FF76"/>
<path d="M38.9494 25.1078C37.8238 26.5038 36.4125 27.2333 35.7971 26.7371C35.1817 26.2409 35.5953 24.707 36.7209 23.3109C37.8464 21.9149 39.2578 21.1854 39.8732 21.6816C40.4886 22.1778 40.075 23.7117 38.9494 25.1078Z" fill="#E8FF76"/>
<path d="M41.5788 27.4609C40.1968 28.856 38.5778 29.4931 37.9628 28.8838C37.3478 28.2746 37.9697 26.6497 39.3518 25.2546C40.7338 23.8595 42.3528 23.2224 42.9678 23.8317C43.5828 24.4409 42.9609 26.0658 41.5788 27.4609Z" fill="#E8FF76"/>
<path d="M31.7892 25.3794C31.9623 27.0694 32.7065 28.3777 33.4515 28.3014C34.1965 28.2251 34.6602 26.7932 34.4872 25.1031C34.3141 23.413 33.5699 22.1048 32.8249 22.1811C32.0798 22.2574 31.6162 23.6893 31.7892 25.3794Z" fill="#E8FF76"/>
<rect x="155.34" y="65.6084" width="34.3839" height="20.6303" rx="10.3152" fill="#E8FF76"/>
<path d="M164.858 80.4233C164.58 80.4233 164.365 80.3804 164.213 80.2944C164.061 80.2085 163.94 80.0347 163.85 79.7729L161.172 71.8921C161.168 71.8726 161.162 71.8511 161.155 71.8276C161.151 71.8042 161.149 71.7808 161.149 71.7573C161.149 71.6792 161.17 71.6069 161.213 71.5405C161.26 71.4741 161.328 71.4409 161.418 71.4409H162.42C162.498 71.4409 162.565 71.4683 162.619 71.5229C162.678 71.5737 162.717 71.6343 162.737 71.7046L164.969 79.0405C164.973 79.0483 164.981 79.0562 164.992 79.064C165.008 79.0679 165.024 79.0698 165.039 79.0698C165.082 79.0698 165.11 79.0581 165.121 79.0347C165.41 78.2964 165.692 77.5327 165.965 76.7437C166.239 75.9507 166.489 75.1421 166.715 74.3179C166.942 73.4937 167.127 72.6636 167.272 71.8276C167.299 71.6753 167.36 71.5737 167.453 71.5229C167.551 71.4683 167.637 71.4409 167.711 71.4409H168.362C168.506 71.4409 168.614 71.4761 168.684 71.5464C168.758 71.6128 168.795 71.7007 168.795 71.8101C168.795 71.8257 168.795 71.8433 168.795 71.8628C168.795 71.8823 168.793 71.9019 168.789 71.9214C168.754 72.2612 168.68 72.6577 168.567 73.1108C168.457 73.5601 168.323 74.0386 168.162 74.5464C168.006 75.0542 167.834 75.5679 167.647 76.0874C167.463 76.6069 167.278 77.1069 167.09 77.5874C166.903 78.064 166.725 78.4976 166.557 78.8882C166.389 79.2788 166.244 79.5972 166.123 79.8433C166.069 79.9565 166.01 80.0581 165.948 80.1479C165.885 80.2339 165.795 80.3022 165.678 80.353C165.561 80.3999 165.391 80.4233 165.168 80.4233H164.858ZM172.856 80.5698C172.192 80.5698 171.616 80.4136 171.127 80.1011C170.643 79.7847 170.268 79.3511 170.002 78.8003C169.741 78.2495 169.61 77.6206 169.61 76.9136C169.61 76.1831 169.737 75.5425 169.991 74.9917C170.245 74.4409 170.616 74.0132 171.104 73.7085C171.596 73.3999 172.192 73.2456 172.891 73.2456C173.594 73.2456 174.19 73.3999 174.678 73.7085C175.166 74.0132 175.538 74.4409 175.791 74.9917C176.049 75.5425 176.178 76.1831 176.178 76.9136C176.178 77.6401 176.04 78.2788 175.762 78.8296C175.489 79.3765 175.104 79.8042 174.608 80.1128C174.112 80.4175 173.528 80.5698 172.856 80.5698ZM172.903 79.3745C173.34 79.3745 173.688 79.2593 173.946 79.0288C174.208 78.7944 174.395 78.4917 174.508 78.1206C174.625 77.7456 174.684 77.3472 174.684 76.9253C174.684 76.4956 174.625 76.0913 174.508 75.7124C174.395 75.3296 174.206 75.021 173.94 74.7866C173.674 74.5483 173.319 74.4292 172.874 74.4292C172.436 74.4292 172.088 74.5464 171.831 74.7808C171.573 75.0151 171.389 75.3218 171.28 75.7007C171.17 76.0796 171.114 76.4839 171.11 76.9136C171.11 77.1948 171.139 77.48 171.198 77.769C171.256 78.0581 171.352 78.3237 171.485 78.5659C171.622 78.8081 171.805 79.0034 172.036 79.1519C172.27 79.3003 172.559 79.3745 172.903 79.3745ZM178.083 80.5698C177.805 80.5698 177.567 80.4702 177.368 80.271C177.173 80.0679 177.075 79.8237 177.075 79.5386C177.075 79.2573 177.173 79.0171 177.368 78.8179C177.567 78.6187 177.805 78.519 178.083 78.519C178.356 78.519 178.591 78.6187 178.786 78.8179C178.981 79.0171 179.079 79.2573 179.079 79.5386C179.079 79.8237 178.981 80.0679 178.786 80.271C178.591 80.4702 178.356 80.5698 178.083 80.5698ZM181.054 80.4351C180.968 80.4351 180.892 80.3979 180.825 80.3237C180.763 80.2495 180.731 80.1616 180.731 80.0601V74.9155C180.657 74.9624 180.544 75.0151 180.392 75.0737C180.239 75.1323 180.077 75.1831 179.905 75.2261C179.733 75.269 179.579 75.2905 179.442 75.2905C179.306 75.2905 179.212 75.2534 179.161 75.1792C179.11 75.105 179.073 75.0229 179.05 74.9331C179.03 74.8589 179.015 74.7905 179.003 74.728C178.991 74.6655 178.985 74.6089 178.985 74.5581C178.985 74.4565 179.017 74.3765 179.079 74.3179C179.145 74.2554 179.269 74.2046 179.448 74.1655C179.608 74.1343 179.788 74.0933 179.987 74.0425C180.186 73.9917 180.38 73.9136 180.567 73.8081C180.739 73.7104 180.878 73.6245 180.983 73.5503C181.089 73.4722 181.188 73.4116 181.282 73.3687C181.376 73.3218 181.489 73.2983 181.622 73.2983C181.782 73.2983 181.913 73.3491 182.015 73.4507C182.116 73.5522 182.167 73.6968 182.167 73.8843V80.0601C182.167 80.1616 182.136 80.2495 182.073 80.3237C182.011 80.3979 181.935 80.4351 181.845 80.4351H181.054Z" fill="#414727"/>
</svg>