<svg preserveAspectRatio="none" width="100%" height="100%" overflow="visible" style="display: block;" viewBox="0 0 31.5 42.7187" fill="none" xmlns="http://www.w3.org/2000/svg">
<g id="Group 2147209148">
<path id="Vector 890" d="M20.76 0.501398L11.6967 1.03453L13.9437 41.016L15.9618 42.0859L26.0913 39.9533L23.9588 37.8208V29.2907C26.0913 29.2907 31 24.512 31 14.1291C31 6.10799 24.4919 0.856821 20.76 0.501398Z" fill="var(--fill-0, #1B161A)" stroke="var(--stroke-0, #7D6E64)"/>
<path id="Vector 896" d="M22.3585 15.4309C22.3585 5.62122 15.1997 1.03626 11.1627 1.03626C7.60846 1.03626 0.5 3.59531 0.5 13.8315C0.5 24.0677 5.1205 29.1147 7.43075 30.3587V38.3557L5.83134 40.4882L15.9609 42.0876L14.8946 39.4219V30.3587C17.3826 29.4701 22.3585 25.2406 22.3585 15.4309Z" fill="var(--fill-0, #1B161A)" stroke="var(--stroke-0, #7D6E64)"/>
<path id="Vector 897" d="M8.67498 12.2149C7.91038 12.5972 8.03781 13.3299 8.1971 13.6485L10.1081 16.5158L8.67532 17.8444C8.03816 18.3223 7.33644 19.4366 8.19627 20.1753C9.16523 21.0077 10.1082 19.5093 11.0795 18.4343C11.0795 18.5936 11.5737 19.5064 12.1061 20.1753C13.1883 21.5349 13.9311 21.7724 14.409 21.2946C15.1736 20.53 14.7276 19.3831 14.409 18.9052L12.4975 16.9937L14.409 15.0822C14.7276 14.7636 15.1736 13.9353 14.409 13.1707C13.6444 12.4061 12.8161 12.8522 12.4975 13.1707L11.3575 14.2926L10.1082 12.6928C9.94902 12.3742 9.43957 11.8326 8.67498 12.2149Z" stroke="var(--stroke-0, #7D6E64)" stroke-linejoin="round"/>
<path id="Vector 888" d="M5.29731 15.4187C5.29731 8.59459 9.02925 7.43523 11.1618 7.42169C13.2943 7.4213 18.0925 9.86485 18.0925 15.9516C18.0925 23.6288 13.8275 25.1926 11.6949 25.0149C9.56239 24.6596 5.29731 22.2428 5.29731 15.4187Z" stroke="var(--stroke-0, #7D6E64)"/>
<path id="Vector 889" d="M23.9578 29.2929L14.8945 30.3591" stroke="var(--stroke-0, #7D6E64)"/>
</g>
</svg>
