<svg width="131" height="100" viewBox="0 0 131 100" fill="none" xmlns="http://www.w3.org/2000/svg">
<path opacity="0.1" d="M22.4591 48H14.1057C13.7056 46.7495 13.5555 45.9992 12.5551 37.2456C12.205 33.7442 11.7548 33.244 10.7544 33.244H9.55388V48H1.70069V10.1346H13.1553C19.9581 10.1346 21.7088 13.0358 21.7088 20.3388C21.7088 28.1419 20.6084 28.6922 18.4575 29.9427V30.2428C18.8576 30.5929 19.3078 30.8931 19.658 31.7934C20.2082 32.9939 20.7584 35.2448 21.3086 39.6466C22.0589 45.7991 22.109 46.6495 22.4591 47.7499V48ZM9.55388 26.1912H11.7548C13.2054 26.1912 13.7556 25.1907 13.7556 21.6893C13.7556 18.6881 13.1053 17.9378 11.5547 17.9378H9.55388V26.1912ZM31.9587 48H23.9054V10.1346H31.9587V48ZM46.7346 33.4941H53.9875C54.0876 34.6946 54.1376 35.8451 54.1376 36.8955C54.1376 44.9488 52.8371 48.6503 44.3836 48.6503C39.3816 48.6503 37.0306 47.8499 35.7301 45.549C34.4296 43.3481 33.8794 40.4469 33.8794 28.7422C33.8794 17.0374 34.4296 14.7865 35.7301 12.4856C37.0306 10.2347 39.3816 9.48438 44.1335 9.48438C52.637 9.48438 54.0375 12.5856 54.0375 20.6389C54.0375 21.5893 53.9875 22.7398 53.9375 23.9903H46.5845C46.5845 19.9886 46.4345 18.8882 46.2344 18.1879C46.0843 17.5376 45.4341 17.2375 44.1335 17.2375C42.883 17.2375 42.3828 17.5376 42.1827 18.1879C41.8326 19.1883 41.6825 20.4388 41.6825 28.6421C41.6825 36.9955 41.8326 38.196 42.1827 39.2965C42.3828 39.9467 42.883 40.1968 44.3836 40.1968C45.4341 40.1968 45.9843 39.9467 46.1844 39.3465C46.6846 37.9459 46.7346 36.5954 46.7346 33.4941ZM72.8026 48H56.0958V10.1346H72.8526V18.1379H63.949V24.7906H72.7025V32.4437H63.949V39.5966H72.8026V48Z" fill="#D0ECFB"/>
<path opacity="0.1" d="M14.2534 72.5488H21.5064C21.6064 73.7493 21.6564 74.8998 21.6564 75.9502C21.6564 84.0034 20.3559 87.705 11.9025 87.705C6.90045 87.705 4.5495 86.9046 3.24897 84.6037C1.94844 82.4028 1.39822 79.5016 1.39822 67.7969C1.39822 56.0921 1.94844 53.8412 3.24897 51.5403C4.5495 49.2894 6.90045 48.5391 11.6524 48.5391C20.1558 48.5391 21.5564 51.6403 21.5564 59.6936C21.5564 60.644 21.5064 61.7944 21.4564 63.0449H14.1034C14.1034 59.0433 13.9533 57.9429 13.7532 57.2426C13.6032 56.5923 12.9529 56.2922 11.6524 56.2922C10.4019 56.2922 9.90167 56.5923 9.70159 57.2426C9.35145 58.243 9.20139 59.4935 9.20139 67.6968C9.20139 76.0502 9.35145 77.2507 9.70159 78.3512C9.90167 79.0014 10.4019 79.2515 11.9025 79.2515C12.9529 79.2515 13.5031 79.0014 13.7032 78.4012C14.2034 77.0006 14.2534 75.6501 14.2534 72.5488ZM41.622 84.6037C40.3214 86.9546 38.0705 87.705 33.2686 87.705C28.4166 87.705 26.1657 86.9546 24.8652 84.6037C23.5646 82.3028 23.0144 80.0018 23.0144 68.097C23.0144 56.1922 23.5646 53.9913 24.8652 51.6403C26.1657 49.3394 28.4166 48.5391 33.2686 48.5391C38.0705 48.5391 40.3214 49.3394 41.622 51.6403C42.9225 53.9913 43.4727 56.1922 43.4727 68.097C43.4727 80.0018 42.9225 82.3028 41.622 84.6037ZM35.2194 78.3512C35.5195 77.3508 35.6695 76.0002 35.6695 67.8969C35.6695 59.5435 35.5195 58.193 35.2194 57.2426C34.9693 56.5923 34.5191 56.2922 33.2686 56.2922C32.0181 56.2922 31.5179 56.5923 31.3178 57.2426C30.9676 58.193 30.8176 59.5435 30.8176 67.8969C30.8176 76.0002 30.9676 77.3508 31.3178 78.3512C31.5179 79.0014 32.0181 79.2515 33.2686 79.2515C34.5191 79.2515 34.9693 79.0014 35.2194 78.3512ZM63.287 84.6037C61.9865 86.9546 59.7356 87.705 54.9336 87.705C50.0816 87.705 47.8307 86.9546 46.5302 84.6037C45.2297 82.3028 44.6794 80.0018 44.6794 68.097C44.6794 56.1922 45.2297 53.9913 46.5302 51.6403C47.8307 49.3394 50.0816 48.5391 54.9336 48.5391C59.7356 48.5391 61.9865 49.3394 63.287 51.6403C64.5875 53.9913 65.1377 56.1922 65.1377 68.097C65.1377 80.0018 64.5875 82.3028 63.287 84.6037ZM56.8844 78.3512C57.1845 77.3508 57.3346 76.0002 57.3346 67.8969C57.3346 59.5435 57.1845 58.193 56.8844 57.2426C56.6343 56.5923 56.1841 56.2922 54.9336 56.2922C53.6831 56.2922 53.1829 56.5923 52.9828 57.2426C52.6327 58.193 52.4826 59.5435 52.4826 67.8969C52.4826 76.0002 52.6327 77.3508 52.9828 78.3512C53.1829 79.0014 53.6831 79.2515 54.9336 79.2515C56.1841 79.2515 56.6343 79.0014 56.8844 78.3512ZM89.1537 87.0547H80.1501L75.3982 70.0478H74.8979C74.998 70.8981 74.998 71.8985 74.998 72.8489V87.0547H66.9447V49.1893H74.998V62.9949C74.998 63.7953 74.948 64.3955 74.8979 65.0458H75.3982L80.4502 49.1893H88.7035V49.4394L82.9512 66.3463L89.1537 86.8046V87.0547ZM107.075 87.0547H90.3683V49.1893H107.125V57.1926H98.2215V63.8453H106.975V71.4984H98.2215V78.6513H107.075V87.0547ZM130.056 87.0547H121.703C121.303 85.8042 121.153 85.0539 120.152 76.3003C119.802 72.7989 119.352 72.2987 118.352 72.2987H117.151V87.0547H109.298V49.1893H120.752C127.555 49.1893 129.306 52.0905 129.306 59.3935C129.306 67.1966 128.206 67.7469 126.055 68.9974V69.2975C126.455 69.6476 126.905 69.9477 127.255 70.8481C127.805 72.0486 128.356 74.2995 128.906 78.7013C129.656 84.8538 129.706 85.7041 130.056 86.8046V87.0547ZM117.151 65.2458H119.352C120.803 65.2458 121.353 64.2454 121.353 60.744C121.353 57.7428 120.702 56.9925 119.152 56.9925H117.151V65.2458Z" fill="#D0ECFB"/>
</svg>