<svg preserveAspectRatio="none" width="100%" height="100%" overflow="visible" style="display: block;" viewBox="0 0 42.3062 16.6954" fill="none" xmlns="http://www.w3.org/2000/svg">
<g id="Group 2147209151">
<g id="Vector 882">
<path d="M41.5562 6.95336C41.5562 2.51274 38.4548 1.14196 36.9041 1.01165C36.9041 1.01165 33.8461 0.637023 31.2821 0.784292L28.5021 14.4124C30.3132 14.3082 34.5357 14.1459 36.1618 14.1459C38.1945 14.1459 41.5562 12.5041 41.5562 6.95336Z" fill="var(--fill-0, #1B161A)"/>
<path d="M30.9791 0.804365C31.0792 0.796814 31.1802 0.790142 31.2821 0.784292M31.2821 0.784292C33.8461 0.637023 36.9041 1.01165 36.9041 1.01165C38.4548 1.14196 41.5562 2.51274 41.5562 6.95336C41.5562 12.5041 38.1945 14.1459 36.1618 14.1459C34.5357 14.1459 30.3132 14.3082 28.5021 14.4124L31.2821 0.784292Z" stroke="var(--stroke-0, #7D6E64)" stroke-width="1.5" stroke-linejoin="round"/>
</g>
<path id="Vector 904" d="M4.97737 3.70181C0.32613 4.39941 0.612194 8.04482 0.874726 10.6824C1.24341 14.5277 3.95502 16.0316 5.28432 15.9415C11.67 15.5086 25.1269 14.6066 27.8687 14.4623C31.2961 14.2819 35.5979 12.2291 35.5979 7.28724C35.5979 2.24846 32.4971 0.859529 30.9468 0.794914C24.2283 1.47321 9.6286 3.00421 4.97737 3.70181Z" fill="var(--fill-0, #1B161A)" stroke="var(--stroke-0, #7D6E64)" stroke-width="1.5" stroke-linejoin="round"/>
</g>
</svg>
