<svg width="201" height="137" viewBox="0 0 201 137" fill="none" xmlns="http://www.w3.org/2000/svg">
<path d="M4.22645 100.231C1.53508 100.455 0.750713 101.656 0.75 102.5L35.25 100.5C35.4411 100.54 37.2031 100.287 40.75 100.5C40.75 98.0953 37.8357 98.046 36.6285 98.0944C28.0389 98.8063 7.34627 99.9706 4.22645 100.231Z" stroke="#7D6E64" stroke-width="1.5" stroke-linejoin="round"/>
<path d="M42.4309 88.2034C42.4309 83.7628 39.3295 82.392 37.7787 82.2617C37.7787 82.2617 34.7208 81.887 32.1567 82.0343L29.3767 95.6624C31.1879 95.5582 35.4103 95.3959 37.0365 95.3959C39.0691 95.3959 42.4309 93.7541 42.4309 88.2034Z" fill="#1B161A"/>
<path d="M31.8538 82.0544C31.9538 82.0468 32.0549 82.0401 32.1567 82.0343M32.1567 82.0343C34.7208 81.887 37.7787 82.2617 37.7787 82.2617C39.3295 82.392 42.4309 83.7628 42.4309 88.2034C42.4309 93.7541 39.0691 95.3959 37.0365 95.3959C35.4103 95.3959 31.1879 95.5582 29.3767 95.6624L32.1567 82.0343Z" stroke="#7D6E64" stroke-width="1.5" stroke-linejoin="round"/>
<path d="M5.852 84.9518C1.20076 85.6494 1.48683 89.2948 1.74936 91.9325C2.11804 95.7777 4.82965 97.2816 6.15895 97.1915C12.5446 96.7586 26.0015 95.8566 28.7434 95.7123C32.1707 95.5319 36.4726 93.4791 36.4726 88.5372C36.4726 83.4985 33.3718 82.1095 31.8214 82.0449C25.1029 82.7232 10.5032 84.2542 5.852 84.9518Z" fill="#1B161A" stroke="#7D6E64" stroke-width="1.5" stroke-linejoin="round"/>
<path d="M18.7498 66L18.7498 80" stroke="#7D6E64" stroke-width="2" stroke-linejoin="round" stroke-dasharray="4 4"/>
<path d="M14.7498 77L18.7498 80L22.7498 77" stroke="#7D6E64" stroke-width="2" stroke-linecap="round" stroke-linejoin="round"/>
<path d="M44.9895 16.9995L54.0527 17.5326L51.8057 57.5141L49.7877 58.584L39.6581 56.4515L41.7906 54.3189V45.7888C39.6581 45.7888 34.7494 41.0102 34.7494 30.6272C34.7494 22.6061 41.2575 17.3549 44.9895 16.9995Z" fill="#1B161A" stroke="#7D6E64"/>
<path d="M43.3909 31.9288C43.3909 22.1191 50.5497 17.5342 54.5867 17.5342C58.1409 17.5342 65.2494 20.0932 65.2494 30.3294C65.2494 40.5656 60.6289 45.6126 58.3186 46.8566V54.8536L59.918 56.9861L49.7885 58.5855L50.8548 55.9199V46.8566C48.3668 45.968 43.3909 41.7385 43.3909 31.9288Z" fill="#1B161A" stroke="#7D6E64"/>
<path d="M57.0744 28.7125C57.839 29.0948 57.7116 29.8276 57.5523 30.1462L55.6413 33.0135L57.074 34.3421C57.7112 34.8199 58.4129 35.9342 57.5531 36.6729C56.5841 37.5054 55.6412 36.007 54.6698 34.932C54.6698 35.0913 54.1756 36.0041 53.6433 36.6729C52.5611 38.0326 51.8182 38.2701 51.3403 37.7922C50.5758 37.0276 51.0218 35.8807 51.3403 35.4029L53.2518 33.4914L51.3403 31.5799C51.0218 31.2613 50.5758 30.433 51.3403 29.6684C52.1049 28.9038 52.9333 29.3498 53.2518 29.6684L54.3919 30.7902L55.6412 29.1904C55.8003 28.8718 56.3098 28.3302 57.0744 28.7125Z" stroke="#7D6E64" stroke-linejoin="round"/>
<path d="M60.452 31.9164C60.452 25.0923 56.7201 23.933 54.5875 23.9194C52.455 23.919 47.6568 26.3626 47.6568 32.4494C47.6568 40.1265 51.9219 41.6904 54.0544 41.5126C56.187 41.1573 60.452 38.7406 60.452 31.9164Z" stroke="#7D6E64"/>
<path d="M41.7917 45.7905L50.855 46.8568" stroke="#7D6E64"/>
<path d="M49.7498 0L49.7498 13" stroke="#7D6E64" stroke-width="2" stroke-linejoin="round" stroke-dasharray="4 4"/>
<path d="M45.7498 11L49.7498 14L53.7498 11" stroke="#7D6E64" stroke-width="2" stroke-linecap="round" stroke-linejoin="round"/>
<path d="M148.677 18.3717C143.792 16.5067 139.092 19.3416 138.868 19.5655L175.12 123.88C177.879 124.477 178.924 123.022 179.446 121.978C180.714 122.276 184.854 120.934 185.786 117.689C188.397 117.167 189.814 116.197 190.299 112.356C192.835 112.542 195.259 109.26 194.438 105.382C196.378 104.524 198.429 101.54 196.863 97.8854C200.383 95.3494 199.623 90.7372 198.802 88.7481C199.424 87.4055 200.294 83.7655 198.802 79.9465C200.257 76.478 199.884 72.6739 197.832 69.9514C198.653 64.2825 197.534 62.5296 195.334 59.9562C195.818 56.003 193.991 52.1616 191.716 50.7816C191.716 45.4484 188.732 42.5767 187.241 42.5767C187.166 38.5861 184.481 35.1923 181.982 35.1923C180.378 30.0082 178.215 29.1877 175.903 29.0386C174.374 24.3394 171.427 23.4816 169.115 23.4816C167.586 20.0877 164.379 19.2299 162.327 20.0504C161.097 18.1857 158.411 17.7381 156.211 18.7824C153.749 16.8431 151.549 16.9922 148.677 18.3717Z" fill="#1B161A" stroke="#7D6E64" stroke-width="1.5" stroke-linejoin="round"/>
<path d="M154.277 21.4323L162.315 19.9727" stroke="#7D6E64" stroke-width="1.5" stroke-linejoin="round"/>
<path d="M174.312 37.084L181.863 35.1353" stroke="#7D6E64" stroke-width="1.5" stroke-linejoin="round"/>
<path d="M179.604 44.3254L187.288 42.4985" stroke="#7D6E64" stroke-width="1.5" stroke-linejoin="round"/>
<path d="M184.102 52.8536L191.694 50.7451M187.945 61.8032L195.208 60.1164" stroke="#7D6E64" stroke-width="1.5" stroke-linejoin="round"/>
<path d="M190.148 72.1125L197.785 69.9102" stroke="#7D6E64" stroke-width="1.5" stroke-linejoin="round"/>
<path d="M191.505 82.1855L198.955 79.8428" stroke="#7D6E64" stroke-width="1.5" stroke-linejoin="round"/>
<path d="M191.645 91.3228L198.862 88.8862" stroke="#7D6E64" stroke-width="1.5" stroke-linejoin="round"/>
<path d="M189.913 100.319L197.129 97.6943" stroke="#7D6E64" stroke-width="1.5" stroke-linejoin="round"/>
<path d="M187.383 108.238L194.365 105.473" stroke="#7D6E64" stroke-width="1.5" stroke-linejoin="round"/>
<path d="M122.726 34.3403C119.13 35.6926 119.358 39.3608 119.921 41.0258C117.116 43.0626 117.078 45.5205 117.54 47.8258C115.082 51.8599 116.272 54.8951 117.078 55.8556C115.733 57.7766 114.927 60.9655 117.078 64.5386C116.118 67.7659 115.81 69.9559 118.038 72.9527C117.155 77.5247 117.808 78.7542 119.998 81.5973C119.575 84.5172 119.806 86.784 122.879 90.0113C122.264 92.816 123.302 95.5054 126.568 98.0028C126.183 99.7317 127.451 103.42 130.679 104.88C130.955 108.999 134.38 111.002 136.057 111.488C136.454 113.243 138.086 116.867 141.436 117.328C141.897 118.903 143.78 121.862 147.929 121.401C149.374 124.505 152.732 124.59 154.23 124.244C155.139 125.294 157.719 127.118 160.762 126.011C163.374 127.586 164.565 127.586 167.255 125.665C170.444 126.511 170.828 125.934 173.095 123.744C176.015 124.474 177.475 122.938 178.55 120.402C180.087 119.672 182.315 119.557 183.353 115.407C186.58 113.794 187.349 111.488 187.156 108.146C190.384 105.917 190.73 103.19 189.731 100.346C192.305 97.7338 192.535 94.1607 191.536 91.1255C192.996 88.4745 193.035 85.4777 191.536 82.0967C192.766 76.9868 192.228 75.3732 190.076 71.8385C190.999 66.9975 189.884 63.6934 187.848 61.8876C187.886 57.4309 186.619 54.7799 184.006 52.8588C183.929 48.4405 182.277 45.8279 179.626 44.4448C178.819 39.6422 176.13 37.4523 174.286 36.9144C173.171 32.8029 170.175 30.3061 167.946 30.3061C166.333 26.2718 164.335 25.6572 161.569 25.6572C159.379 21.6231 157.304 21.4694 154.461 21.7769C152.156 19.126 150.311 19.4331 148.39 20.5471C146.585 18.0498 143.741 18.7029 142.128 20.3169C138.785 19.0874 138.017 19.8559 136.288 21.7769C133.829 21.3927 132.753 21.8152 131.101 24.4278C127.835 24.9657 127.067 26.8099 126.606 29C123.071 29.999 122.918 32.3426 122.726 34.3403Z" fill="#1B161A" stroke="#7D6E64" stroke-width="1.5" stroke-linejoin="round"/>
<path d="M150.463 25.8814C126.076 20.2546 118.87 47.5172 119.005 62.6041C117.816 75.2489 132.902 114.857 150.463 119.562C181.921 127.992 187.344 96.5724 187.344 86.2624C187.344 75.9524 182.608 33.2981 150.463 25.8814Z" fill="#1B161A" stroke="#7D6E64" stroke-width="1.5" stroke-linejoin="round"/>
<path d="M167.886 30.3262L176.168 28.9243" stroke="#7D6E64" stroke-width="1.5" stroke-linejoin="round"/>
<path d="M161.615 25.6358C162.176 25.3193 166.863 24.1241 169.136 23.5659" stroke="#7D6E64" stroke-width="1.5" stroke-linejoin="round"/>
<path d="M150.14 132.122C149.702 131.785 149.62 131.157 149.957 130.719C150.294 130.282 150.922 130.2 151.359 130.536L150.75 131.329L150.14 132.122ZM150.75 131.329L151.359 130.536C151.799 130.874 152.282 131.198 152.805 131.506L152.298 132.368L151.79 133.23C151.204 132.884 150.651 132.515 150.14 132.122L150.75 131.329ZM155.679 133.945L156.023 133.006C157.11 133.405 158.271 133.74 159.478 134.002L159.266 134.98L159.054 135.957C157.762 135.676 156.512 135.316 155.334 134.884L155.679 133.945ZM162.957 135.542L163.046 134.546C164.244 134.653 165.453 134.687 166.65 134.64L166.689 135.639L166.728 136.638C165.442 136.689 164.147 136.652 162.868 136.538L162.957 135.542ZM170.399 135.229L170.214 134.247C171.407 134.023 172.555 133.706 173.632 133.291L173.992 134.224L174.351 135.157C173.149 135.62 171.883 135.968 170.583 136.212L170.399 135.229ZM177.294 132.497L176.724 131.675C177.201 131.344 177.651 130.985 178.069 130.597L178.75 131.329L179.43 132.062C178.939 132.519 178.415 132.937 177.863 133.319L177.294 132.497Z" fill="#7D6E64"/>
<path d="M153.385 128.67L149.54 130.068L149.804 134.15" stroke="#7D6E64" stroke-width="2" stroke-linecap="round" stroke-linejoin="round"/>
<path d="M180.025 134.887L179.746 130.806L175.75 129.931" stroke="#7D6E64" stroke-width="2" stroke-linecap="round" stroke-linejoin="round"/>
<path d="M136.64 12.539C136.202 12.8757 136.12 13.5035 136.457 13.9413C136.794 14.379 137.422 14.4609 137.859 14.1242L137.25 13.3316L136.64 12.539ZM137.25 13.3316L137.859 14.1242C138.299 13.7862 138.782 13.4622 139.305 13.1547L138.798 12.2928L138.29 11.431C137.704 11.7762 137.151 12.1459 136.64 12.539L137.25 13.3316ZM142.179 10.7156L142.523 11.6543C143.61 11.2555 144.771 10.9204 145.978 10.6582L145.766 9.68099L145.554 8.70377C144.262 8.98427 143.012 9.34451 141.834 9.77684L142.179 10.7156ZM149.457 9.11861L149.546 10.1146C150.744 10.0075 151.953 9.97401 153.15 10.0206L153.189 9.0214L153.228 8.02216C151.942 7.97206 150.647 8.00819 149.368 8.12259L149.457 9.11861ZM156.899 9.43123L156.714 10.4141C157.907 10.638 159.055 10.9549 160.132 11.3701L160.492 10.4371L160.851 9.50412C159.649 9.0405 158.383 8.69233 157.083 8.4484L156.899 9.43123ZM163.794 12.1637L163.224 12.9857C163.701 13.3161 164.151 13.6753 164.569 14.064L165.25 13.3313L165.93 12.5986C165.439 12.1421 164.915 11.7237 164.363 11.3417L163.794 12.1637Z" fill="#7D6E64"/>
<path d="M135.602 10.3613L136.181 14.4111L140.231 14.9896" stroke="#7D6E64" stroke-width="2" stroke-linecap="round" stroke-linejoin="round"/>
<path d="M162.75 14.998L166.512 13.3911L166.022 9.32956" stroke="#7D6E64" stroke-width="2" stroke-linecap="round" stroke-linejoin="round"/>
</svg>