<svg preserveAspectRatio="none" width="100%" height="100%" overflow="visible" style="display: block;" viewBox="0 0 85.4301 111.322" fill="none" xmlns="http://www.w3.org/2000/svg">
<g id="Group 2147209145">
<path id="Vector 906" d="M33.6776 1.79114C28.7919 -0.0738171 24.0928 2.761 23.8688 2.98495L60.12 107.3C62.8798 107.896 63.9241 106.442 64.4462 105.398C65.7142 105.696 69.854 104.353 70.7864 101.109C73.397 100.586 74.8142 99.6168 75.2991 95.7754C77.8352 95.9619 80.2593 92.6799 79.4388 88.8012C81.3782 87.9434 83.4294 84.9598 81.863 81.3049C85.3837 78.7688 84.6229 74.1566 83.8024 72.1675C84.424 70.8249 85.2942 67.1849 83.8024 63.3659C85.2569 59.8974 84.8839 56.0933 82.8327 53.3708C83.6532 47.7019 82.5343 45.949 80.3339 43.3757C80.8188 39.4224 78.9913 35.581 76.7163 34.2011C76.7163 28.8679 73.7327 25.9961 72.2409 25.9961C72.1663 22.0056 69.481 18.6117 66.9823 18.6117C65.3786 13.4277 63.2155 12.6072 60.9032 12.458C59.3741 7.7588 56.4277 6.90101 54.1154 6.90101C52.5863 3.50715 49.3789 2.64936 47.3277 3.46986C46.097 1.6051 43.4117 1.15756 41.2113 2.20185C38.7498 0.262498 36.5494 0.411678 33.6776 1.79114Z" fill="var(--fill-0, #1B161A)" stroke="var(--stroke-0, #7D6E64)" stroke-width="1.5" stroke-linejoin="round"/>
<path id="Vector 876" d="M39.2776 4.85173L47.3158 3.39207" stroke="var(--stroke-0, #7D6E64)" stroke-width="1.5" stroke-linejoin="round"/>
<path id="Vector 907" d="M59.3123 20.5037L66.8635 18.5549" stroke="var(--stroke-0, #7D6E64)" stroke-width="1.5" stroke-linejoin="round"/>
<path id="Vector 908" d="M64.6043 27.7449L72.2887 25.9181" stroke="var(--stroke-0, #7D6E64)" stroke-width="1.5" stroke-linejoin="round"/>
<path id="Vector 909" d="M69.1027 36.2732L76.694 34.1648M72.9453 45.2229L80.2082 43.5361" stroke="var(--stroke-0, #7D6E64)" stroke-width="1.5" stroke-linejoin="round"/>
<path id="Vector 910" d="M75.1483 55.5321L82.7853 53.3298" stroke="var(--stroke-0, #7D6E64)" stroke-width="1.5" stroke-linejoin="round"/>
<path id="Vector 911" d="M76.5057 65.6049L83.9558 63.2622" stroke="var(--stroke-0, #7D6E64)" stroke-width="1.5" stroke-linejoin="round"/>
<path id="Vector 912" d="M76.6452 74.7425L83.8618 72.3059" stroke="var(--stroke-0, #7D6E64)" stroke-width="1.5" stroke-linejoin="round"/>
<path id="Vector 913" d="M74.9135 83.7383L82.1294 81.1139" stroke="var(--stroke-0, #7D6E64)" stroke-width="1.5" stroke-linejoin="round"/>
<path id="Vector 914" d="M72.3832 91.6576L79.3648 88.8929" stroke="var(--stroke-0, #7D6E64)" stroke-width="1.5" stroke-linejoin="round"/>
<path id="Vector 879" d="M7.72627 17.7599C4.13036 19.1121 4.35809 22.7803 4.92145 24.4454C2.11662 26.4822 2.07831 28.9401 2.53995 31.2453C0.0818887 35.2795 1.27207 38.3147 2.07831 39.2752C0.733332 41.1962 -0.0729716 44.3851 2.07831 47.9582C1.11805 51.1855 0.810435 53.3755 3.03856 56.3722C2.1549 60.9443 2.80804 62.1737 4.998 65.0168C4.57538 67.9368 4.8059 70.2036 7.87953 73.4309C7.26481 76.2356 8.30216 78.925 11.5679 81.4223C11.1837 83.1512 12.4516 86.8396 15.6789 88.2996C15.9555 92.4182 19.38 94.4212 21.0577 94.9079C21.4547 96.6624 23.0863 100.287 26.4366 100.748C26.8976 102.323 28.7802 105.281 32.9296 104.82C34.3742 107.925 37.7322 108.009 39.2305 107.663C40.1398 108.714 42.7191 110.537 45.762 109.431C48.3746 111.006 49.5656 111.006 52.2551 109.085C55.444 109.93 55.8282 109.354 58.0949 107.164C61.0149 107.894 62.4749 106.357 63.5506 103.821C65.0875 103.091 67.3158 102.976 68.3532 98.8268C71.5805 97.2131 72.3489 94.9079 72.1568 91.5653C75.3841 89.3369 75.7299 86.6091 74.731 83.766C77.3051 81.1534 77.5357 77.5803 76.5367 74.5451C77.9967 71.8941 78.0351 68.8973 76.5367 65.5163C77.7662 60.4064 77.2283 58.7927 75.0768 55.2581C75.9989 50.4171 74.8847 47.1129 72.8484 45.3072C72.8868 40.8504 71.6189 38.1994 69.0063 36.2784C68.9295 31.86 67.2774 29.2475 64.6264 27.8643C63.8196 23.0618 61.1302 20.8718 59.286 20.3339C58.1718 16.2225 55.175 13.7256 52.9466 13.7256C51.333 9.69141 49.3351 9.07677 46.5688 9.07677C44.3789 5.04263 42.3042 4.88895 39.4611 5.19645C37.1558 2.54552 35.3117 2.85267 33.3907 3.96668C31.5849 1.46935 28.7418 2.1225 27.1281 3.73641C23.7856 2.50696 23.0172 3.27543 21.2882 5.19645C18.8293 4.81225 17.7536 5.2348 16.1015 7.84738C12.8358 8.38527 12.0674 10.2294 11.6063 12.4196C8.07163 13.4185 7.91809 15.7622 7.72627 17.7599Z" fill="var(--fill-0, #1B161A)" stroke="var(--stroke-0, #7D6E64)" stroke-width="1.5" stroke-linejoin="round"/>
<path id="Vector 915" d="M35.4637 9.30103C11.0762 3.67417 3.86994 30.9367 4.00567 46.0237C2.81592 58.6685 17.9026 98.2766 35.4637 102.982C66.9217 111.411 72.344 79.992 72.344 69.682C72.344 59.372 67.6085 16.7177 35.4637 9.30103Z" fill="var(--fill-0, #1B161A)" stroke="var(--stroke-0, #7D6E64)" stroke-width="1.5" stroke-linejoin="round"/>
<path id="Vector 878" d="M52.8865 13.7458L61.1684 12.3439" stroke="var(--stroke-0, #7D6E64)" stroke-width="1.5" stroke-linejoin="round"/>
<path id="Vector 877" d="M46.6157 9.05521C47.176 8.73869 51.8629 7.5435 54.1364 6.98528" stroke="var(--stroke-0, #7D6E64)" stroke-width="1.5" stroke-linejoin="round"/>
</g>
</svg>
