<svg width="512" height="512" viewBox="0 0 512 512" fill="none" xmlns="http://www.w3.org/2000/svg">
<circle cx="90.002" cy="428.975" r="76.3734" fill="#E8FF76"/>
<circle cx="98.0091" cy="341.457" r="76.3734" fill="#E8FF76"/>
<circle cx="113.355" cy="252.406" r="82.1918" fill="#E8FF76"/>
<circle cx="149.778" cy="175.413" r="87.7607" fill="#E8FF76"/>
<circle cx="214.314" cy="104.795" r="73.8212" fill="#E8FF76"/>
<circle cx="287.987" cy="81.1148" r="74.4629" fill="#E8FF76"/>
<circle cx="350.938" cy="84.9564" r="76.3734" fill="#E8FF76"/>
<circle cx="424.654" cy="137.115" r="73.717" fill="#E8FF76"/>
<path d="M141.737 284.073C127.762 300.022 97.5664 333.778 93.1475 382.067L76.8407 380.575C81.7954 326.43 115.583 289.068 129.415 273.281L141.737 284.073Z" fill="#73A94A"/>
<path d="M240.782 78.7615C289.067 69.4365 334.027 82.2256 355.548 91.725L348.842 106.919C329.336 98.3085 287.897 86.5751 243.931 95.0659C200.647 103.425 153.853 131.553 122.676 204.569C93.5997 285.147 87.2196 394.483 91.8835 502.063L75.2883 502.779C70.5947 394.51 76.8707 282.432 107.143 198.709L107.312 198.281C140.579 120.198 191.854 88.211 240.782 78.7615Z" fill="#73A94A"/>
<path d="M205.023 95.6682L173.944 128.98L161.972 117.803L193.051 84.4975L205.023 95.6682Z" fill="#73A94A"/>
<path d="M101.205 185.27C100.195 201.955 94.2346 215.17 87.8929 214.786C81.5513 214.402 77.2295 200.565 78.24 183.879C79.2505 167.193 85.2106 153.978 91.5523 154.362C97.894 154.746 102.216 168.584 101.205 185.27Z" fill="#73A94A"/>
<path d="M148.689 140.541C143.711 156.498 134.759 167.901 128.694 166.009C122.629 164.117 121.748 149.647 126.726 133.689C131.704 117.731 140.656 106.329 146.721 108.221C152.786 110.113 153.667 124.583 148.689 140.541Z" fill="#73A94A"/>
<path d="M220.131 79.8256C208.696 92.0193 195.67 98.3812 191.035 94.0354C186.401 89.6896 191.914 76.2816 203.348 64.0879C214.782 51.8942 227.809 45.5323 232.443 49.8781C237.077 54.2239 231.565 67.6319 220.131 79.8256Z" fill="#73A94A"/>
<path d="M282.29 69.0338C267.409 70.4316 254.86 66.3948 254.261 60.0173C253.662 53.6399 265.24 47.3368 280.12 45.9391C295.001 44.5413 307.55 48.5781 308.149 54.9556C308.748 61.333 297.17 67.6361 282.29 69.0338Z" fill="#73A94A"/>
<path d="M334.299 47.7899C318.751 48.1752 306.036 43.9862 305.898 38.4335C305.76 32.8807 318.253 28.0669 333.8 27.6816C349.348 27.2963 362.064 31.4853 362.201 37.038C362.339 42.5908 349.846 47.4045 334.299 47.7899Z" fill="#73A94A"/>
<path d="M362.258 114.86C346.825 111.17 335.497 103.227 336.958 97.1184C338.418 91.0093 352.113 89.0476 367.546 92.7367C382.98 96.4259 394.307 104.369 392.847 110.478C391.387 116.587 377.692 118.549 362.258 114.86Z" fill="#73A94A"/>
<path d="M426.893 162.849C414.443 153.01 407.923 140.513 412.33 134.936C416.738 129.36 430.403 132.815 442.853 142.653C455.303 152.492 461.822 164.989 457.415 170.566C453.008 176.143 439.342 172.688 426.893 162.849Z" fill="#73A94A"/>
<path d="M311.202 117.068C297.05 109.89 288.184 98.9324 291.399 92.593C294.614 86.2536 308.693 86.9332 322.845 94.111C336.997 101.289 345.863 112.247 342.648 118.586C339.433 124.925 325.354 124.246 311.202 117.068Z" fill="#73A94A"/>
<path d="M242.643 119.852C223.412 114.8 209.238 105.314 210.985 98.6646C212.732 92.015 229.738 90.7201 248.969 95.7722C268.2 100.824 282.374 110.31 280.627 116.96C278.88 123.61 261.874 124.905 242.643 119.852Z" fill="#73A94A"/>
<path d="M199.263 159.017C183.407 167.489 167.605 168.838 163.967 162.031C160.33 155.224 170.236 142.838 186.091 134.366C201.947 125.894 217.749 124.545 221.387 131.352C225.024 138.159 215.118 150.546 199.263 159.017Z" fill="#73A94A"/>
<path d="M180.612 194.227C166.473 205.329 151.043 209.277 146.149 203.044C141.255 196.811 148.75 182.758 162.889 171.656C177.028 160.553 192.457 156.606 197.352 162.839C202.246 169.071 194.751 183.124 180.612 194.227Z" fill="#73A94A"/>
<path d="M131.806 252.121C121.881 267.11 108.478 275.714 101.871 271.339C95.2635 266.963 97.9533 251.266 107.879 236.277C117.804 221.288 131.207 212.684 137.814 217.059C144.421 221.435 141.731 237.132 131.806 252.121Z" fill="#73A94A"/>
<path d="M160.26 273.139C147.774 288.359 132.213 296.235 125.503 290.731C118.794 285.227 123.477 268.426 135.964 253.206C148.45 237.986 164.011 230.11 170.721 235.614C177.43 241.118 172.747 257.919 160.26 273.139Z" fill="#73A94A"/>
<path d="M60.5973 261.543C63.909 278.249 72.5635 290.609 79.9279 289.149C87.2922 287.689 90.5776 272.963 87.266 256.257C83.9544 239.551 75.2998 227.191 67.9354 228.651C60.5711 230.111 57.2857 244.837 60.5973 261.543Z" fill="#73A94A"/>
</svg>