<svg width="222" height="110" viewBox="0 0 222 110" fill="none" xmlns="http://www.w3.org/2000/svg">
<path d="M213.578 109.536H46.0775C42.2116 109.536 39.0775 106.402 39.0775 102.536V31C39.0775 27.134 35.9435 24 32.0775 24H7.00008C3.13406 24 3.74076e-05 20.8659 8.35518e-05 16.9999L0.00020291 6.99992C0.000249054 3.13396 3.13424 0 7.0002 0H39.0775H50.9845C54.9164 0 58.077 3.23757 57.9825 7.16834L57.75 16.8317C57.6554 20.7624 60.8161 24 64.748 24H214.578C218.444 24 221.578 27.134 221.578 31V101.536C221.578 105.955 217.996 109.536 213.578 109.536Z" fill="#FDB1E5"/>
<path d="M12.7192 18.1709C11.9399 18.1709 11.2609 17.9977 10.6821 17.6514C10.1079 17.305 9.6613 16.8288 9.34229 16.2227C9.02327 15.612 8.86377 14.9147 8.86377 14.1309C8.86377 13.3242 9.03467 12.6201 9.37646 12.0186C9.71826 11.417 10.1808 10.9499 10.7642 10.6172C11.3475 10.2845 11.9992 10.1182 12.7192 10.1182C13.5623 10.1182 14.2687 10.2845 14.8384 10.6172C15.4126 10.9499 15.8455 11.417 16.1372 12.0186C16.4289 12.6201 16.5747 13.3242 16.5747 14.1309C16.5747 14.9375 16.4038 15.6439 16.062 16.25C15.7202 16.8561 15.2576 17.3278 14.6743 17.665C14.0955 18.0023 13.4438 18.1709 12.7192 18.1709ZM12.7466 16.7559C13.257 16.7559 13.6672 16.6396 13.9771 16.4072C14.2869 16.1748 14.5125 15.8626 14.6538 15.4707C14.7951 15.0742 14.8657 14.639 14.8657 14.165C14.8657 13.7594 14.7974 13.3561 14.6606 12.9551C14.5239 12.5495 14.2983 12.2122 13.9839 11.9434C13.674 11.6745 13.2502 11.54 12.7124 11.54C12.1974 11.54 11.7827 11.6699 11.4683 11.9297C11.1538 12.1895 10.9259 12.5244 10.7847 12.9346C10.6434 13.3447 10.5728 13.7754 10.5728 14.2266C10.5728 14.6549 10.6502 15.0628 10.8052 15.4502C10.9647 15.8376 11.2039 16.152 11.5229 16.3936C11.8465 16.6351 12.2544 16.7559 12.7466 16.7559ZM18.5916 18C18.4913 18 18.4025 17.9567 18.325 17.8701C18.2521 17.7835 18.2156 17.681 18.2156 17.5625V6.31738C18.2156 6.19889 18.2521 6.09635 18.325 6.00977C18.4025 5.92318 18.4913 5.87988 18.5916 5.87988H19.5008C19.6056 5.87988 19.6944 5.92318 19.7674 6.00977C19.8403 6.09635 19.8767 6.19889 19.8767 6.31738V12.251L19.6443 11.9844C19.7902 11.5788 19.9998 11.237 20.2732 10.959C20.5512 10.681 20.8679 10.4714 21.2234 10.3301C21.5789 10.1888 21.9526 10.1182 22.3445 10.1182C23.0008 10.1182 23.5112 10.2572 23.8758 10.5352C24.2403 10.8132 24.4933 11.1914 24.6346 11.6699C24.7804 12.1484 24.8533 12.693 24.8533 13.3037V17.5625C24.8533 17.681 24.8168 17.7835 24.7439 17.8701C24.671 17.9567 24.5821 18 24.4773 18H23.5681C23.4679 18 23.379 17.9567 23.3015 17.8701C23.2286 17.7835 23.1922 17.681 23.1922 17.5625V13.2969C23.1922 12.7135 23.0851 12.276 22.8709 11.9844C22.6612 11.6927 22.34 11.5469 21.907 11.5469C21.6108 11.5469 21.3054 11.6449 20.991 11.8408C20.6765 12.0322 20.4122 12.2943 20.198 12.627C19.9838 12.9551 19.8767 13.3288 19.8767 13.748V17.5625C19.8767 17.681 19.8403 17.7835 19.7674 17.8701C19.6944 17.9567 19.6056 18 19.5008 18H18.5916ZM30.8695 18C30.7692 18 30.6803 17.9567 30.6029 17.8701C30.53 17.7835 30.4935 17.681 30.4935 17.5625V13.3516C30.4935 12.7227 30.4753 12.2373 30.4388 11.8955C30.4069 11.5492 30.3773 11.2848 30.3499 11.1025C30.3408 11.0296 30.3317 10.9681 30.3226 10.918C30.318 10.8678 30.3158 10.8223 30.3158 10.7812C30.3158 10.6126 30.3568 10.4896 30.4388 10.4121C30.5254 10.3301 30.6416 10.2891 30.7874 10.2891H31.1634C31.3093 10.2891 31.4232 10.3187 31.5052 10.3779C31.5872 10.4326 31.6533 10.5124 31.7035 10.6172C31.7764 10.7721 31.8379 10.9408 31.888 11.123C31.9382 11.3008 31.9792 11.4785 32.0111 11.6562C32.28 11.1549 32.6491 10.7744 33.1185 10.5146C33.5925 10.2503 34.096 10.1182 34.6292 10.1182C35.2855 10.1182 35.7959 10.2572 36.1605 10.5352C36.5251 10.8132 36.778 11.1914 36.9193 11.6699C37.0651 12.1484 37.138 12.693 37.138 13.3037V17.5625C37.138 17.681 37.1016 17.7835 37.0287 17.8701C36.9557 17.9567 36.8669 18 36.7621 18H35.8529C35.7526 18 35.6637 17.9567 35.5863 17.8701C35.5134 17.7835 35.4769 17.681 35.4769 17.5625V13.2969C35.4769 12.1302 35.0485 11.5469 34.1917 11.5469C33.8773 11.5469 33.5628 11.6449 33.2484 11.8408C32.9339 12.0322 32.6719 12.2943 32.4622 12.627C32.2572 12.9551 32.1546 13.3288 32.1546 13.748V17.5625C32.1546 17.681 32.1182 17.7835 32.0453 17.8701C31.9723 17.9567 31.8835 18 31.7787 18H30.8695ZM42.484 18.1709C41.7047 18.1709 41.0257 17.9977 40.4469 17.6514C39.8727 17.305 39.4261 16.8288 39.107 16.2227C38.788 15.612 38.6285 14.9147 38.6285 14.1309C38.6285 13.3242 38.7994 12.6201 39.1412 12.0186C39.483 11.417 39.9456 10.9499 40.5289 10.6172C41.1123 10.2845 41.764 10.1182 42.484 10.1182C43.3271 10.1182 44.0335 10.2845 44.6031 10.6172C45.1774 10.9499 45.6103 11.417 45.902 12.0186C46.1936 12.6201 46.3395 13.3242 46.3395 14.1309C46.3395 14.9375 46.1686 15.6439 45.8268 16.25C45.485 16.8561 45.0224 17.3278 44.4391 17.665C43.8603 18.0023 43.2086 18.1709 42.484 18.1709ZM42.5113 16.7559C43.0218 16.7559 43.4319 16.6396 43.7418 16.4072C44.0517 16.1748 44.2773 15.8626 44.4186 15.4707C44.5598 15.0742 44.6305 14.639 44.6305 14.165C44.6305 13.7594 44.5621 13.3561 44.4254 12.9551C44.2887 12.5495 44.0631 12.2122 43.7487 11.9434C43.4388 11.6745 43.0149 11.54 42.4772 11.54C41.9622 11.54 41.5475 11.6699 41.233 11.9297C40.9186 12.1895 40.6907 12.5244 40.5494 12.9346C40.4082 13.3447 40.3375 13.7754 40.3375 14.2266C40.3375 14.6549 40.415 15.0628 40.5699 15.4502C40.7294 15.8376 40.9687 16.152 41.2877 16.3936C41.6113 16.6351 42.0192 16.7559 42.5113 16.7559ZM47.5224 20.7754C47.4768 20.7754 47.4335 20.7663 47.3925 20.748C47.3515 20.7298 47.3059 20.7002 47.2558 20.6592L47.0097 20.4473C46.9276 20.3789 46.8866 20.2969 46.8866 20.2012C46.8866 20.1374 46.9026 20.0758 46.9345 20.0166C46.9709 19.9619 47.0051 19.9186 47.037 19.8867C47.3423 19.5495 47.5565 19.21 47.6796 18.8682C47.8026 18.5309 47.8733 18.2529 47.8915 18.0342C47.6636 17.9658 47.4631 17.8359 47.2899 17.6445C47.1168 17.4486 47.0302 17.2048 47.0302 16.9131C47.0302 16.6077 47.135 16.3434 47.3446 16.1201C47.5588 15.8923 47.8254 15.7783 48.1444 15.7783C48.5364 15.7783 48.8349 15.9287 49.0399 16.2295C49.2496 16.5257 49.3544 16.8698 49.3544 17.2617C49.3544 17.8496 49.2359 18.4033 48.9989 18.9229C48.7665 19.4424 48.5022 19.8913 48.206 20.2695C48.1239 20.3698 48.0214 20.4792 47.8983 20.5977C47.7798 20.7161 47.6545 20.7754 47.5224 20.7754Z" fill="#550940"/>
<path d="M57.8589 65.2324C56.6649 65.2324 55.6896 64.8861 54.9331 64.1934C54.1766 63.5007 53.7983 62.4525 53.7983 61.0488V52.6953H52.855C52.4995 52.6953 52.2352 52.6087 52.062 52.4355C51.8888 52.2624 51.8022 52.0436 51.8022 51.7793V51.0137C51.8022 50.7676 51.8706 50.5716 52.0073 50.4258C52.1532 50.2708 52.3993 50.1615 52.7456 50.0977L53.9897 49.7422L54.4819 46.625C54.5366 46.3151 54.6414 46.069 54.7964 45.8867C54.9604 45.6953 55.161 45.5996 55.3979 45.5996H56.5327C56.7879 45.5996 57.0021 45.6953 57.1753 45.8867C57.3576 46.0781 57.4487 46.3333 57.4487 46.6523V49.5781H61.1128C61.4045 49.5781 61.6414 49.6875 61.8237 49.9062C62.0151 50.1159 62.1108 50.3711 62.1108 50.6719V51.6016C62.1108 51.9023 62.0151 52.1621 61.8237 52.3809C61.6414 52.5905 61.4045 52.6953 61.1128 52.6953H57.4487V60.9121C57.4487 61.3678 57.5627 61.6823 57.7905 61.8555C58.0184 62.0286 58.2964 62.1152 58.6245 62.1152C58.8979 62.1152 59.1851 62.0514 59.4858 61.9238C59.7866 61.7962 60.0464 61.6777 60.2651 61.5684C60.493 61.4499 60.6981 61.3405 60.8804 61.2402C61.0627 61.1309 61.245 61.0762 61.4272 61.0762C61.7463 61.0762 61.9878 61.2585 62.1519 61.623L62.4663 62.3066C62.5575 62.5163 62.6121 62.6667 62.6304 62.7578C62.6486 62.8398 62.6577 62.9128 62.6577 62.9766C62.6577 63.3594 62.4071 63.724 61.9058 64.0703C61.4136 64.4076 60.7938 64.6855 60.0464 64.9043C59.3081 65.123 58.5789 65.2324 57.8589 65.2324ZM65.134 65C64.8514 65 64.6144 64.8952 64.423 64.6855C64.2316 64.4668 64.1359 64.207 64.1359 63.9062V41.8398C64.1359 41.5391 64.2316 41.2839 64.423 41.0742C64.6144 40.8646 64.8514 40.7598 65.134 40.7598H66.8019C67.0936 40.7598 67.3306 40.8646 67.5129 41.0742C67.7043 41.2839 67.8 41.5391 67.8 41.8398V53.1055L67.3625 52.4902C67.6815 51.7884 68.1053 51.196 68.634 50.7129C69.1626 50.2207 69.7551 49.8516 70.4113 49.6055C71.0767 49.3594 71.7739 49.2363 72.5031 49.2363C73.8521 49.2363 74.9002 49.5189 75.6476 50.084C76.395 50.6491 76.9146 51.4147 77.2062 52.3809C77.507 53.3379 77.6574 54.4225 77.6574 55.6348V63.9062C77.6574 64.207 77.5617 64.4668 77.3703 64.6855C77.188 64.8952 76.951 65 76.6594 65H74.9914C74.7088 65 74.4719 64.8952 74.2804 64.6855C74.089 64.4668 73.9933 64.207 73.9933 63.9062V55.6211C73.9933 54.5182 73.7974 53.7025 73.4054 53.1738C73.0226 52.6361 72.4302 52.3672 71.6281 52.3672C71.0721 52.3672 70.4979 52.5495 69.9054 52.9141C69.313 53.2786 68.8117 53.7754 68.4015 54.4043C68.0005 55.0241 67.8 55.7259 67.8 56.5098V63.9062C67.8 64.207 67.7043 64.4668 67.5129 64.6855C67.3306 64.8952 67.0936 65 66.8019 65H65.134ZM83.7704 65.2324C82.8498 65.2324 82.0751 64.9362 81.4462 64.3438C80.8264 63.7513 80.5165 62.7441 80.5165 61.3223V50.6719C80.5165 50.3711 80.6122 50.1159 80.8036 49.9062C80.995 49.6875 81.232 49.5781 81.5145 49.5781H83.1551C83.4468 49.5781 83.6838 49.6875 83.8661 49.9062C84.0575 50.1159 84.1532 50.3711 84.1532 50.6719V61.1582C84.1532 61.4499 84.2033 61.6504 84.3036 61.7598C84.4129 61.8691 84.5451 61.9147 84.7001 61.8965C84.9006 61.8874 85.1011 61.8327 85.3016 61.7324C85.5113 61.623 85.689 61.5684 85.8348 61.5684C85.9533 61.5684 86.0627 61.6048 86.1629 61.6777C86.2632 61.7507 86.3544 61.8783 86.4364 62.0605L86.8465 63.0039C86.9286 63.1862 86.9696 63.3594 86.9696 63.5234C86.9696 63.7969 86.8602 64.0202 86.6415 64.1934C86.1584 64.5762 85.648 64.8451 85.1102 65C84.5816 65.1549 84.135 65.2324 83.7704 65.2324ZM82.4032 47.1309C81.7378 47.1309 81.1682 46.9076 80.6942 46.4609C80.2294 46.0052 79.9969 45.4401 79.9969 44.7656C79.9969 44.0911 80.2294 43.5352 80.6942 43.0977C81.1682 42.651 81.7378 42.4277 82.4032 42.4277C83.0685 42.4277 83.6337 42.651 84.0985 43.0977C84.5633 43.5352 84.7958 44.0911 84.7958 44.7656C84.7958 45.4401 84.5633 46.0052 84.0985 46.4609C83.6337 46.9076 83.0685 47.1309 82.4032 47.1309ZM92.9048 65.3418C92.121 65.3418 91.328 65.2461 90.5259 65.0547C89.7238 64.8633 89.0402 64.5625 88.4751 64.1523C88.1744 63.9336 87.9556 63.7285 87.8189 63.5371C87.6913 63.3366 87.6275 63.1406 87.6275 62.9492C87.6275 62.7396 87.6776 62.5254 87.7779 62.3066C87.8781 62.0879 88.0194 61.8053 88.2017 61.459C88.3202 61.2493 88.4478 61.0944 88.5845 60.9941C88.7212 60.8848 88.8807 60.8301 89.063 60.8301C89.1997 60.8301 89.3456 60.8665 89.5005 60.9395C89.6555 61.0033 89.8104 61.0898 89.9654 61.1992C90.3938 61.5182 90.8768 61.7734 91.4146 61.9648C91.9615 62.1562 92.4992 62.252 93.0279 62.252C93.7753 62.252 94.3586 62.138 94.7779 61.9102C95.1971 61.6823 95.4068 61.2767 95.4068 60.6934C95.4068 60.3561 95.2928 60.0736 95.065 59.8457C94.8371 59.6178 94.5363 59.4219 94.1626 59.2578C93.7889 59.0938 93.3697 58.9342 92.9048 58.7793C92.4491 58.6243 91.9888 58.4421 91.524 58.2324C90.8039 57.9134 90.175 57.5488 89.6372 57.1387C89.1086 56.7285 88.6939 56.2409 88.3931 55.6758C88.1014 55.1016 87.9556 54.4225 87.9556 53.6387C87.9556 52.6452 88.229 51.8249 88.7759 51.1777C89.3319 50.5215 90.0383 50.0339 90.8951 49.7148C91.7518 49.3958 92.6451 49.2363 93.5747 49.2363C94.3313 49.2363 95.0559 49.3138 95.7486 49.4688C96.4413 49.6237 97.052 49.8561 97.5806 50.166C98.009 50.4212 98.2232 50.763 98.2232 51.1914C98.2232 51.401 98.1776 51.6198 98.0865 51.8477C98.0044 52.0755 97.9133 52.2943 97.813 52.5039C97.6945 52.7591 97.5578 52.946 97.4029 53.0645C97.257 53.1738 97.093 53.2285 96.9107 53.2285C96.774 53.2285 96.6372 53.2057 96.5005 53.1602C96.3638 53.1146 96.218 53.0508 96.063 52.9688C95.6984 52.7956 95.3293 52.6452 94.9556 52.5176C94.591 52.39 94.1125 52.3262 93.5201 52.3262C93.0643 52.3262 92.6405 52.4264 92.2486 52.627C91.8566 52.8275 91.6607 53.1602 91.6607 53.625C91.6607 54.0078 91.802 54.3223 92.0845 54.5684C92.3762 54.8145 92.7772 55.0469 93.2876 55.2656C93.7981 55.4753 94.3814 55.7122 95.0376 55.9766C95.785 56.2773 96.455 56.6146 97.0474 56.9883C97.6398 57.362 98.1047 57.8223 98.4419 58.3691C98.7883 58.916 98.9615 59.6042 98.9615 60.4336C98.9615 61.2812 98.7427 62.0788 98.3052 62.8262C97.8768 63.5736 97.216 64.1797 96.3228 64.6445C95.4387 65.1094 94.2994 65.3418 92.9048 65.3418ZM107.209 65C106.926 65 106.685 64.8997 106.484 64.6992C106.293 64.4896 106.197 64.2298 106.197 63.9199V54.7188C106.197 54.1263 106.179 53.5384 106.142 52.9551C106.115 52.3626 106.051 51.8066 105.951 51.2871C105.933 51.1504 105.915 51.0365 105.896 50.9453C105.878 50.8451 105.869 50.763 105.869 50.6992C105.869 50.3529 105.965 50.0794 106.156 49.8789C106.348 49.6784 106.607 49.5781 106.935 49.5781H107.674C108.002 49.5781 108.257 49.6465 108.439 49.7832C108.622 49.9108 108.763 50.1068 108.863 50.3711C108.982 50.6445 109.091 50.9954 109.191 51.4238C109.292 51.8522 109.369 52.2624 109.424 52.6543C109.424 52.6725 109.433 52.6816 109.451 52.6816C109.469 52.6816 109.478 52.6725 109.478 52.6543C109.615 51.9069 109.852 51.2826 110.189 50.7812C110.527 50.2708 110.941 49.888 111.433 49.6328C111.935 49.3685 112.486 49.2363 113.088 49.2363C113.37 49.2363 113.717 49.2637 114.127 49.3184C114.546 49.373 114.911 49.4915 115.221 49.6738C115.54 49.847 115.676 50.1204 115.631 50.4941L115.385 52.3398C115.357 52.5859 115.271 52.7728 115.125 52.9004C114.979 53.0189 114.792 53.0781 114.564 53.0781C114.245 53.0781 113.931 53.0234 113.621 52.9141C113.32 52.7956 112.988 52.7363 112.623 52.7363C112.213 52.7363 111.839 52.8639 111.502 53.1191C111.174 53.3652 110.887 53.6934 110.641 54.1035C110.394 54.5046 110.203 54.9466 110.066 55.4297C109.939 55.9036 109.875 56.373 109.875 56.8379V63.9199C109.875 64.2298 109.775 64.4896 109.574 64.6992C109.383 64.8997 109.146 65 108.863 65H107.209ZM119.679 65.2324C118.759 65.2324 117.984 64.9362 117.355 64.3438C116.735 63.7513 116.425 62.7441 116.425 61.3223V50.6719C116.425 50.3711 116.521 50.1159 116.712 49.9062C116.904 49.6875 117.141 49.5781 117.423 49.5781H119.064C119.356 49.5781 119.593 49.6875 119.775 49.9062C119.966 50.1159 120.062 50.3711 120.062 50.6719V61.1582C120.062 61.4499 120.112 61.6504 120.212 61.7598C120.322 61.8691 120.454 61.9147 120.609 61.8965C120.809 61.8874 121.01 61.8327 121.211 61.7324C121.42 61.623 121.598 61.5684 121.744 61.5684C121.862 61.5684 121.972 61.6048 122.072 61.6777C122.172 61.7507 122.263 61.8783 122.345 62.0605L122.755 63.0039C122.837 63.1862 122.878 63.3594 122.878 63.5234C122.878 63.7969 122.769 64.0202 122.55 64.1934C122.067 64.5762 121.557 64.8451 121.019 65C120.49 65.1549 120.044 65.2324 119.679 65.2324ZM118.312 47.1309C117.647 47.1309 117.077 46.9076 116.603 46.4609C116.138 46.0052 115.906 45.4401 115.906 44.7656C115.906 44.0911 116.138 43.5352 116.603 43.0977C117.077 42.651 117.647 42.4277 118.312 42.4277C118.977 42.4277 119.543 42.651 120.007 43.0977C120.472 43.5352 120.705 44.0911 120.705 44.7656C120.705 45.4401 120.472 46.0052 120.007 46.4609C119.543 46.9076 118.977 47.1309 118.312 47.1309ZM130.673 65.3418C129.105 65.3418 127.747 65 126.599 64.3164C125.46 63.6328 124.58 62.6803 123.96 61.459C123.34 60.2376 123.031 58.8203 123.031 57.207C123.031 55.5299 123.359 54.099 124.015 52.9141C124.671 51.7292 125.569 50.8223 126.708 50.1934C127.848 49.5553 129.146 49.2363 130.605 49.2363C132.045 49.2363 133.193 49.4779 134.05 49.9609C134.916 50.444 135.54 51.0547 135.923 51.793C136.315 52.5312 136.511 53.2923 136.511 54.0762C136.511 54.7598 136.324 55.2337 135.95 55.498C135.586 55.7624 135.144 55.8945 134.624 55.8945H134.296C133.831 55.8945 133.494 55.776 133.284 55.5391C133.084 55.3021 132.984 54.9922 132.984 54.6094C132.984 53.7891 132.747 53.2057 132.273 52.8594C131.808 52.5039 131.234 52.3262 130.55 52.3262C129.675 52.3262 128.969 52.5723 128.431 53.0645C127.902 53.5475 127.51 54.1536 127.255 54.8828C127.009 55.612 126.886 56.3503 126.886 57.0977C126.886 58.0273 127.014 58.8704 127.269 59.627C127.533 60.3835 127.962 60.985 128.554 61.4316C129.146 61.8783 129.935 62.1016 130.919 62.1016C131.639 62.1016 132.259 61.9785 132.779 61.7324C133.298 61.4772 133.749 61.2493 134.132 61.0488C134.305 60.9577 134.465 60.8848 134.611 60.8301C134.766 60.7754 134.907 60.748 135.034 60.748C135.217 60.748 135.39 60.7891 135.554 60.8711C135.718 60.9531 135.855 61.0853 135.964 61.2676L136.251 61.7598C136.342 61.9147 136.402 62.0514 136.429 62.1699C136.465 62.2793 136.484 62.375 136.484 62.457C136.484 62.9036 136.283 63.3047 135.882 63.6602C135.481 64.0065 134.971 64.3073 134.351 64.5625C133.74 64.8086 133.102 65 132.437 65.1367C131.781 65.2734 131.193 65.3418 130.673 65.3418ZM145.345 65.3418C143.886 65.3418 142.574 65.0365 141.407 64.4258C140.25 63.8151 139.329 62.931 138.645 61.7734C137.971 60.6068 137.634 59.2077 137.634 57.5762C137.634 55.6165 137.953 54.0215 138.591 52.791C139.238 51.5605 140.14 50.6582 141.298 50.084C142.455 49.5098 143.8 49.2227 145.331 49.2227C146.452 49.2227 147.446 49.4141 148.311 49.7969C149.186 50.1706 149.87 50.7266 150.362 51.4648C150.864 52.194 151.114 53.0918 151.114 54.1582C151.114 55.252 150.818 56.1406 150.226 56.8242C149.633 57.4987 148.858 57.9909 147.901 58.3008C146.944 58.6107 145.914 58.7656 144.811 58.7656C144.228 58.7656 143.658 58.7246 143.102 58.6426C142.556 58.5514 142.059 58.4512 141.612 58.3418C141.166 58.2233 140.81 58.123 140.546 58.041L141.393 56.6602C141.321 57.1159 141.266 57.4668 141.229 57.7129C141.193 57.959 141.175 58.1641 141.175 58.3281C141.175 59.4766 141.558 60.4199 142.323 61.1582C143.098 61.8874 144.183 62.252 145.577 62.252C146.288 62.252 146.89 62.1654 147.382 61.9922C147.883 61.819 148.302 61.6276 148.64 61.418C148.904 61.263 149.127 61.1354 149.31 61.0352C149.492 60.9349 149.665 60.8848 149.829 60.8848C149.993 60.8848 150.139 60.9258 150.267 61.0078C150.394 61.0807 150.508 61.2174 150.608 61.418L151.018 62.2383C151.064 62.3385 151.096 62.4297 151.114 62.5117C151.132 62.5846 151.142 62.6712 151.142 62.7715C151.142 63.127 150.955 63.4596 150.581 63.7695C150.216 64.0794 149.738 64.3529 149.145 64.5898C148.562 64.8268 147.933 65.0091 147.259 65.1367C146.584 65.2734 145.946 65.3418 145.345 65.3418ZM144.169 55.9629C145.19 55.9629 146.01 55.8216 146.63 55.5391C147.25 55.2565 147.56 54.7826 147.56 54.1172C147.56 53.4974 147.35 53.0508 146.931 52.7773C146.511 52.4948 145.91 52.3535 145.126 52.3535C144.515 52.3535 143.941 52.4538 143.403 52.6543C142.865 52.8548 142.414 53.1784 142.05 53.625C141.694 54.0716 141.462 54.6777 141.352 55.4434C141.489 55.498 141.699 55.5664 141.981 55.6484C142.264 55.7305 142.597 55.8034 142.979 55.8672C143.362 55.931 143.759 55.9629 144.169 55.9629ZM161.44 65.2324C160.519 65.2324 159.744 64.9362 159.116 64.3438C158.496 63.7513 158.186 62.7441 158.186 61.3223V50.6719C158.186 50.3711 158.282 50.1159 158.473 49.9062C158.664 49.6875 158.901 49.5781 159.184 49.5781H160.825C161.116 49.5781 161.353 49.6875 161.535 49.9062C161.727 50.1159 161.823 50.3711 161.823 50.6719V61.1582C161.823 61.4499 161.873 61.6504 161.973 61.7598C162.082 61.8691 162.214 61.9147 162.369 61.8965C162.57 61.8874 162.77 61.8327 162.971 61.7324C163.181 61.623 163.358 61.5684 163.504 61.5684C163.623 61.5684 163.732 61.6048 163.832 61.6777C163.933 61.7507 164.024 61.8783 164.106 62.0605L164.516 63.0039C164.598 63.1862 164.639 63.3594 164.639 63.5234C164.639 63.7969 164.53 64.0202 164.311 64.1934C163.828 64.5762 163.317 64.8451 162.78 65C162.251 65.1549 161.804 65.2324 161.44 65.2324ZM160.073 47.1309C159.407 47.1309 158.838 46.9076 158.364 46.4609C157.899 46.0052 157.666 45.4401 157.666 44.7656C157.666 44.0911 157.899 43.5352 158.364 43.0977C158.838 42.651 159.407 42.4277 160.073 42.4277C160.738 42.4277 161.303 42.651 161.768 43.0977C162.233 43.5352 162.465 44.0911 162.465 44.7656C162.465 45.4401 162.233 46.0052 161.768 46.4609C161.303 46.9076 160.738 47.1309 160.073 47.1309ZM170.574 65.3418C169.79 65.3418 168.997 65.2461 168.195 65.0547C167.393 64.8633 166.71 64.5625 166.145 64.1523C165.844 63.9336 165.625 63.7285 165.488 63.5371C165.361 63.3366 165.297 63.1406 165.297 62.9492C165.297 62.7396 165.347 62.5254 165.447 62.3066C165.548 62.0879 165.689 61.8053 165.871 61.459C165.99 61.2493 166.117 61.0944 166.254 60.9941C166.391 60.8848 166.55 60.8301 166.732 60.8301C166.869 60.8301 167.015 60.8665 167.17 60.9395C167.325 61.0033 167.48 61.0898 167.635 61.1992C168.063 61.5182 168.546 61.7734 169.084 61.9648C169.631 62.1562 170.169 62.252 170.697 62.252C171.445 62.252 172.028 62.138 172.447 61.9102C172.867 61.6823 173.076 61.2767 173.076 60.6934C173.076 60.3561 172.962 60.0736 172.734 59.8457C172.506 59.6178 172.206 59.4219 171.832 59.2578C171.458 59.0938 171.039 58.9342 170.574 58.7793C170.118 58.6243 169.658 58.4421 169.193 58.2324C168.473 57.9134 167.844 57.5488 167.307 57.1387C166.778 56.7285 166.363 56.2409 166.062 55.6758C165.771 55.1016 165.625 54.4225 165.625 53.6387C165.625 52.6452 165.898 51.8249 166.445 51.1777C167.001 50.5215 167.708 50.0339 168.564 49.7148C169.421 49.3958 170.314 49.2363 171.244 49.2363C172.001 49.2363 172.725 49.3138 173.418 49.4688C174.111 49.6237 174.721 49.8561 175.25 50.166C175.678 50.4212 175.893 50.763 175.893 51.1914C175.893 51.401 175.847 51.6198 175.756 51.8477C175.674 52.0755 175.583 52.2943 175.482 52.5039C175.364 52.7591 175.227 52.946 175.072 53.0645C174.926 53.1738 174.762 53.2285 174.58 53.2285C174.443 53.2285 174.307 53.2057 174.17 53.1602C174.033 53.1146 173.887 53.0508 173.732 52.9688C173.368 52.7956 172.999 52.6452 172.625 52.5176C172.26 52.39 171.782 52.3262 171.189 52.3262C170.734 52.3262 170.31 52.4264 169.918 52.627C169.526 52.8275 169.33 53.1602 169.33 53.625C169.33 54.0078 169.471 54.3223 169.754 54.5684C170.046 54.8145 170.447 55.0469 170.957 55.2656C171.467 55.4753 172.051 55.7122 172.707 55.9766C173.454 56.2773 174.124 56.6146 174.717 56.9883C175.309 57.362 175.774 57.8223 176.111 58.3691C176.458 58.916 176.631 59.6042 176.631 60.4336C176.631 61.2812 176.412 62.0788 175.975 62.8262C175.546 63.5736 174.885 64.1797 173.992 64.6445C173.108 65.1094 171.969 65.3418 170.574 65.3418ZM179.654 65C179.371 65 179.134 64.8952 178.943 64.6855C178.752 64.4668 178.656 64.207 178.656 63.9062V55.6895C178.656 54.4772 178.619 53.543 178.547 52.8867C178.483 52.2305 178.424 51.7246 178.369 51.3691C178.351 51.2142 178.332 51.0866 178.314 50.9863C178.305 50.8861 178.3 50.7949 178.3 50.7129C178.3 50.321 178.405 50.0339 178.615 49.8516C178.825 49.6693 179.093 49.5781 179.422 49.5781H180.174C180.483 49.5781 180.734 49.6419 180.925 49.7695C181.126 49.888 181.285 50.0703 181.404 50.3164C181.522 50.5534 181.627 50.8223 181.718 51.123C181.81 51.4238 181.892 51.7474 181.965 52.0938C182.539 51.1367 183.277 50.4212 184.179 49.9473C185.082 49.4733 186.062 49.2363 187.119 49.2363C188.45 49.2363 189.489 49.5189 190.236 50.084C190.983 50.64 191.507 51.3965 191.808 52.3535C192.118 53.3105 192.273 54.3906 192.273 55.5938V63.9062C192.273 64.207 192.177 64.4668 191.986 64.6855C191.804 64.8952 191.567 65 191.275 65H189.593C189.311 65 189.074 64.8952 188.882 64.6855C188.691 64.4668 188.595 64.207 188.595 63.9062V55.5801C188.595 53.4382 187.798 52.3672 186.203 52.3672C185.61 52.3672 185.013 52.5495 184.412 52.9141C183.81 53.2695 183.309 53.7572 182.908 54.377C182.516 54.9876 182.32 55.6803 182.32 56.4551V63.9062C182.32 64.207 182.224 64.4668 182.033 64.6855C181.851 64.8952 181.614 65 181.322 65H179.654ZM194.421 40.8145C195.123 40.8145 195.684 41.0651 196.103 41.5664C196.531 42.0586 196.745 42.7057 196.745 43.5078C196.745 44.2643 196.577 45.0618 196.24 45.9004C195.902 46.7389 195.305 47.5957 194.449 48.4707C194.257 48.6803 194.084 48.8444 193.929 48.9629C193.774 49.0723 193.619 49.127 193.464 49.127C193.373 49.127 193.291 49.1087 193.218 49.0723C193.145 49.0358 193.063 48.9674 192.972 48.8672L192.63 48.498C192.466 48.3158 192.384 48.1562 192.384 48.0195C192.384 47.9284 192.402 47.8509 192.439 47.7871C192.484 47.7142 192.566 47.623 192.685 47.5137C193.113 47.1309 193.478 46.7116 193.779 46.2559C194.079 45.8001 194.248 45.2806 194.285 44.6973C193.665 44.6426 193.177 44.4466 192.822 44.1094C192.466 43.7721 192.288 43.3255 192.288 42.7695C192.288 42.2135 192.484 41.7487 192.876 41.375C193.268 41.0013 193.783 40.8145 194.421 40.8145ZM202.448 65.2324C201.254 65.2324 200.279 64.8861 199.522 64.1934C198.766 63.5007 198.388 62.4525 198.388 61.0488V52.6953H197.444C197.089 52.6953 196.825 52.6087 196.651 52.4355C196.478 52.2624 196.392 52.0436 196.392 51.7793V51.0137C196.392 50.7676 196.46 50.5716 196.597 50.4258C196.743 50.2708 196.989 50.1615 197.335 50.0977L198.579 49.7422L199.071 46.625C199.126 46.3151 199.231 46.069 199.386 45.8867C199.55 45.6953 199.75 45.5996 199.987 45.5996H201.122C201.377 45.5996 201.591 45.6953 201.765 45.8867C201.947 46.0781 202.038 46.3333 202.038 46.6523V49.5781H205.702C205.994 49.5781 206.231 49.6875 206.413 49.9062C206.605 50.1159 206.7 50.3711 206.7 50.6719V51.6016C206.7 51.9023 206.605 52.1621 206.413 52.3809C206.231 52.5905 205.994 52.6953 205.702 52.6953H202.038V60.9121C202.038 61.3678 202.152 61.6823 202.38 61.8555C202.608 62.0286 202.886 62.1152 203.214 62.1152C203.487 62.1152 203.774 62.0514 204.075 61.9238C204.376 61.7962 204.636 61.6777 204.855 61.5684C205.082 61.4499 205.287 61.3405 205.47 61.2402C205.652 61.1309 205.834 61.0762 206.017 61.0762C206.336 61.0762 206.577 61.2585 206.741 61.623L207.056 62.3066C207.147 62.5163 207.202 62.6667 207.22 62.7578C207.238 62.8398 207.247 62.9128 207.247 62.9766C207.247 63.3594 206.996 63.724 206.495 64.0703C206.003 64.4076 205.383 64.6855 204.636 64.9043C203.897 65.123 203.168 65.2324 202.448 65.2324ZM60.2378 92.3418C58.6701 92.3418 57.312 92 56.1636 91.3164C55.0243 90.6328 54.1447 89.6803 53.5249 88.459C52.9051 87.2376 52.5952 85.8203 52.5952 84.207C52.5952 82.5299 52.9233 81.099 53.5796 79.9141C54.2358 78.7292 55.1336 77.8223 56.2729 77.1934C57.4123 76.5553 58.7111 76.2363 60.1694 76.2363C61.6095 76.2363 62.758 76.4779 63.6147 76.9609C64.4806 77.444 65.105 78.0547 65.4878 78.793C65.8797 79.5312 66.0757 80.2923 66.0757 81.0762C66.0757 81.7598 65.8888 82.2337 65.5151 82.498C65.1506 82.7624 64.7085 82.8945 64.189 82.8945H63.8608C63.396 82.8945 63.0588 82.776 62.8491 82.5391C62.6486 82.3021 62.5483 81.9922 62.5483 81.6094C62.5483 80.7891 62.3114 80.2057 61.8374 79.8594C61.3726 79.5039 60.7983 79.3262 60.1147 79.3262C59.2397 79.3262 58.5334 79.5723 57.9956 80.0645C57.467 80.5475 57.075 81.1536 56.8198 81.8828C56.5737 82.612 56.4507 83.3503 56.4507 84.0977C56.4507 85.0273 56.5783 85.8704 56.8335 86.627C57.0978 87.3835 57.5262 87.985 58.1187 88.4316C58.7111 88.8783 59.4995 89.1016 60.4839 89.1016C61.2039 89.1016 61.8237 88.9785 62.3433 88.7324C62.8628 88.4772 63.314 88.2493 63.6968 88.0488C63.87 87.9577 64.0295 87.8848 64.1753 87.8301C64.3302 87.7754 64.4715 87.748 64.5991 87.748C64.7814 87.748 64.9546 87.7891 65.1187 87.8711C65.2827 87.9531 65.4194 88.0853 65.5288 88.2676L65.8159 88.7598C65.9071 88.9147 65.9663 89.0514 65.9937 89.1699C66.0301 89.2793 66.0483 89.375 66.0483 89.457C66.0483 89.9036 65.8478 90.3047 65.4468 90.6602C65.0457 91.0065 64.5353 91.3073 63.9155 91.5625C63.3049 91.8086 62.6668 92 62.0015 92.1367C61.3452 92.2734 60.7573 92.3418 60.2378 92.3418ZM74.9094 92.3418C73.3234 92.3418 71.9426 91.9954 70.7668 91.3027C69.591 90.6009 68.675 89.6439 68.0187 88.4316C67.3716 87.2103 67.048 85.8203 67.048 84.2617C67.048 82.6484 67.3944 81.2402 68.0871 80.0371C68.7889 78.834 69.7323 77.8997 70.9172 77.2344C72.1112 76.569 73.4419 76.2363 74.9094 76.2363C76.6229 76.2363 78.063 76.569 79.2297 77.2344C80.3963 77.8997 81.2759 78.834 81.8683 80.0371C82.4699 81.2402 82.7707 82.6484 82.7707 84.2617C82.7707 85.8659 82.4198 87.2741 81.7179 88.4863C81.0252 89.6986 80.0864 90.6465 78.9015 91.3301C77.7166 92.0046 76.3859 92.3418 74.9094 92.3418ZM74.964 89.1973C75.9393 89.1973 76.7186 88.9831 77.3019 88.5547C77.8944 88.1172 78.3228 87.5293 78.5871 86.791C78.8605 86.0436 78.9972 85.2233 78.9972 84.3301C78.9972 83.5553 78.8651 82.7897 78.6008 82.0332C78.3456 81.2676 77.9172 80.6341 77.3156 80.1328C76.7232 79.6315 75.9165 79.3809 74.8957 79.3809C73.9204 79.3809 73.132 79.627 72.5304 80.1191C71.9289 80.6022 71.4914 81.2311 71.2179 82.0059C70.9536 82.7715 70.8215 83.5872 70.8215 84.4531C70.8215 85.2552 70.9673 86.0208 71.259 86.75C71.5597 87.4701 72.0155 88.0579 72.6262 88.5137C73.2459 88.9694 74.0252 89.1973 74.964 89.1973ZM91.7137 92.3418C90.1278 92.3418 88.7469 91.9954 87.5712 91.3027C86.3954 90.6009 85.4794 89.6439 84.8231 88.4316C84.176 87.2103 83.8524 85.8203 83.8524 84.2617C83.8524 82.6484 84.1988 81.2402 84.8915 80.0371C85.5933 78.834 86.5366 77.8997 87.7215 77.2344C88.9156 76.569 90.2463 76.2363 91.7137 76.2363C93.4273 76.2363 94.8674 76.569 96.034 77.2344C97.2007 77.8997 98.0803 78.834 98.6727 80.0371C99.2743 81.2402 99.5751 82.6484 99.5751 84.2617C99.5751 85.8659 99.2241 87.2741 98.5223 88.4863C97.8296 89.6986 96.8908 90.6465 95.7059 91.3301C94.521 92.0046 93.1903 92.3418 91.7137 92.3418ZM91.7684 89.1973C92.7437 89.1973 93.523 88.9831 94.1063 88.5547C94.6988 88.1172 95.1271 87.5293 95.3915 86.791C95.6649 86.0436 95.8016 85.2233 95.8016 84.3301C95.8016 83.5553 95.6695 82.7897 95.4051 82.0332C95.1499 81.2676 94.7215 80.6341 94.12 80.1328C93.5275 79.6315 92.7209 79.3809 91.7001 79.3809C90.7248 79.3809 89.9364 79.627 89.3348 80.1191C88.7333 80.6022 88.2958 81.2311 88.0223 82.0059C87.758 82.7715 87.6258 83.5872 87.6258 84.4531C87.6258 85.2552 87.7717 86.0208 88.0633 86.75C88.3641 87.4701 88.8198 88.0579 89.4305 88.5137C90.0503 88.9694 90.8296 89.1973 91.7684 89.1973ZM112.647 92.2188C111.918 92.2188 111.284 92.0684 110.747 91.7676C110.209 91.4577 109.712 90.9746 109.256 90.3184C109.111 90.1087 108.942 89.8444 108.751 89.5254C108.559 89.2064 108.359 88.8646 108.149 88.5C107.948 88.1354 107.748 87.7754 107.547 87.4199C107.347 87.0645 107.165 86.7454 107.001 86.4629C106.682 86.8822 106.34 87.3561 105.975 87.8848C105.62 88.4134 105.301 88.9466 105.018 89.4844C104.736 90.013 104.535 90.5189 104.417 91.002C104.344 91.2936 104.234 91.5352 104.088 91.7266C103.943 91.9089 103.71 92 103.391 92H102.461C102.179 92 101.942 91.8952 101.751 91.6855C101.559 91.4668 101.463 91.207 101.463 90.9062V68.8398C101.463 68.5391 101.559 68.2839 101.751 68.0742C101.942 67.8646 102.179 67.7598 102.461 67.7598H104.157C104.448 67.7598 104.685 67.8646 104.868 68.0742C105.059 68.2839 105.155 68.5391 105.155 68.8398V79.4492C105.155 80.1328 105.118 80.8346 105.045 81.5547C104.982 82.2656 104.904 82.931 104.813 83.5508C104.722 84.1615 104.64 84.6719 104.567 85.082C104.494 85.4831 104.458 85.7155 104.458 85.7793C104.458 85.8613 104.499 85.9023 104.581 85.9023C104.635 85.9023 104.69 85.8704 104.745 85.8066C104.799 85.7337 104.868 85.6243 104.95 85.4785C105.542 84.4121 106.144 83.4049 106.754 82.457C107.374 81.5 108.053 80.5566 108.792 79.627C109.53 78.6882 110.364 77.7129 111.293 76.7012C111.467 76.5189 111.635 76.3958 111.799 76.332C111.973 76.2591 112.127 76.2227 112.264 76.2227C112.601 76.2227 112.92 76.3822 113.221 76.7012L113.823 77.3711C113.932 77.4896 114.042 77.6354 114.151 77.8086C114.269 77.9818 114.329 78.1686 114.329 78.3691C114.329 78.5241 114.283 78.6745 114.192 78.8203C114.11 78.9661 114.005 79.1029 113.877 79.2305C113.367 79.7135 112.857 80.2012 112.346 80.6934C111.845 81.1855 111.335 81.7051 110.815 82.252C110.305 82.7988 109.78 83.4004 109.243 84.0566C109.607 84.6764 109.963 85.278 110.309 85.8613C110.655 86.4447 110.984 86.9688 111.293 87.4336C111.613 87.8893 111.904 88.2539 112.168 88.5273C112.442 88.8008 112.683 88.9375 112.893 88.9375C113.039 88.9375 113.244 88.9056 113.508 88.8418C113.773 88.7689 113.964 88.7324 114.083 88.7324C114.247 88.7324 114.383 88.778 114.493 88.8691C114.611 88.9603 114.684 89.0788 114.711 89.2246L114.917 90.291C114.944 90.3913 114.958 90.4688 114.958 90.5234C114.967 90.5781 114.971 90.6283 114.971 90.6738C114.971 91.1296 114.748 91.5033 114.301 91.7949C113.855 92.0775 113.303 92.2188 112.647 92.2188ZM119.84 92.2324C118.919 92.2324 118.145 91.9362 117.516 91.3438C116.896 90.7513 116.586 89.7441 116.586 88.3223V77.6719C116.586 77.3711 116.682 77.1159 116.873 76.9062C117.065 76.6875 117.302 76.5781 117.584 76.5781H119.225C119.516 76.5781 119.753 76.6875 119.936 76.9062C120.127 77.1159 120.223 77.3711 120.223 77.6719V88.1582C120.223 88.4499 120.273 88.6504 120.373 88.7598C120.483 88.8691 120.615 88.9147 120.77 88.8965C120.97 88.8874 121.171 88.8327 121.371 88.7324C121.581 88.623 121.759 88.5684 121.905 88.5684C122.023 88.5684 122.132 88.6048 122.233 88.6777C122.333 88.7507 122.424 88.8783 122.506 89.0605L122.916 90.0039C122.998 90.1862 123.039 90.3594 123.039 90.5234C123.039 90.7969 122.93 91.0202 122.711 91.1934C122.228 91.5762 121.718 91.8451 121.18 92C120.651 92.1549 120.205 92.2324 119.84 92.2324ZM118.473 74.1309C117.808 74.1309 117.238 73.9076 116.764 73.4609C116.299 73.0052 116.067 72.4401 116.067 71.7656C116.067 71.0911 116.299 70.5352 116.764 70.0977C117.238 69.651 117.808 69.4277 118.473 69.4277C119.138 69.4277 119.703 69.651 120.168 70.0977C120.633 70.5352 120.865 71.0911 120.865 71.7656C120.865 72.4401 120.633 73.0052 120.168 73.4609C119.703 73.9076 119.138 74.1309 118.473 74.1309ZM125.351 92C125.069 92 124.832 91.8952 124.641 91.6855C124.449 91.4668 124.353 91.207 124.353 90.9062V82.6895C124.353 81.4772 124.317 80.543 124.244 79.8867C124.18 79.2305 124.121 78.7246 124.066 78.3691C124.048 78.2142 124.03 78.0866 124.012 77.9863C124.003 77.8861 123.998 77.7949 123.998 77.7129C123.998 77.321 124.103 77.0339 124.312 76.8516C124.522 76.6693 124.791 76.5781 125.119 76.5781H125.871C126.181 76.5781 126.432 76.6419 126.623 76.7695C126.823 76.888 126.983 77.0703 127.101 77.3164C127.22 77.5534 127.325 77.8223 127.416 78.123C127.507 78.4238 127.589 78.7474 127.662 79.0938C128.236 78.1367 128.975 77.4212 129.877 76.9473C130.779 76.4733 131.759 76.2363 132.816 76.2363C134.147 76.2363 135.186 76.5189 135.933 77.084C136.681 77.64 137.205 78.3965 137.506 79.3535C137.816 80.3105 137.971 81.3906 137.971 82.5938V90.9062C137.971 91.207 137.875 91.4668 137.683 91.6855C137.501 91.8952 137.264 92 136.973 92H135.291C135.008 92 134.771 91.8952 134.58 91.6855C134.389 91.4668 134.293 91.207 134.293 90.9062V82.5801C134.293 80.4382 133.495 79.3672 131.9 79.3672C131.308 79.3672 130.711 79.5495 130.109 79.9141C129.508 80.2695 129.006 80.7572 128.605 81.377C128.213 81.9876 128.017 82.6803 128.017 83.4551V90.9062C128.017 91.207 127.922 91.4668 127.73 91.6855C127.548 91.8952 127.311 92 127.019 92H125.351ZM147.023 99.7656C145.793 99.7656 144.64 99.5742 143.564 99.1914C142.489 98.8177 141.618 98.2572 140.953 97.5098C140.296 96.7624 139.968 95.8327 139.968 94.7207C139.968 94.028 140.1 93.3581 140.365 92.7109C140.629 92.0729 140.985 91.4714 141.431 90.9062C141.878 90.332 142.375 89.8079 142.921 89.334C143.477 88.8509 144.043 88.4225 144.617 88.0488C145.191 87.666 145.738 87.347 146.257 87.0918L146.367 87.4746C145.628 87.4837 144.886 87.3743 144.138 87.1465C143.391 86.9186 142.707 86.5768 142.087 86.1211C141.468 85.6654 140.966 85.0957 140.584 84.4121C140.21 83.7285 140.023 82.9401 140.023 82.0469C140.023 80.7982 140.337 79.7409 140.966 78.875C141.595 78.0091 142.402 77.3529 143.386 76.9062C144.371 76.4596 145.396 76.2363 146.462 76.2363C147.556 76.2363 148.531 76.4414 149.388 76.8516C150.245 77.2526 150.878 77.8314 151.289 78.5879C151.261 78.041 151.202 77.5443 151.111 77.0977C151.029 76.6419 150.947 76.2318 150.865 75.8672C150.801 75.5938 150.746 75.3568 150.701 75.1562C150.664 74.9466 150.646 74.7826 150.646 74.6641C150.646 74.2539 150.774 73.9987 151.029 73.8984C151.293 73.7891 151.485 73.7344 151.603 73.7344H152.765C153.066 73.7344 153.303 73.8574 153.476 74.1035C153.649 74.3405 153.777 74.6413 153.859 75.0059C153.95 75.3613 154.005 75.7214 154.023 76.0859C154.05 76.4505 154.064 76.7604 154.064 77.0156C154.064 77.8268 153.946 78.7246 153.709 79.709C153.472 80.6934 153.08 81.5866 152.533 82.3887L153.052 80.2012C153.016 80.7389 153.011 81.1445 153.039 81.418C153.066 81.6823 153.08 81.9147 153.08 82.1152C153.08 82.8535 152.934 83.5234 152.642 84.125C152.36 84.7174 151.99 85.2552 151.535 85.7383C151.079 86.2122 150.582 86.6361 150.045 87.0098C149.516 87.3835 149.005 87.7161 148.513 88.0078C148.185 88.1992 147.825 88.4225 147.433 88.6777C147.05 88.9238 146.672 89.1836 146.298 89.457C145.925 89.7214 145.597 89.9766 145.314 90.2227C145.041 90.4688 144.863 90.6784 144.781 90.8516L144.439 90.7559C144.694 90.5645 145.013 90.4004 145.396 90.2637C145.779 90.1178 146.184 90.0085 146.613 89.9355C147.05 89.8626 147.461 89.8262 147.843 89.8262C148.609 89.8262 149.375 89.9173 150.14 90.0996C150.906 90.2728 151.603 90.5462 152.232 90.9199C152.87 91.2936 153.376 91.7767 153.75 92.3691C154.132 92.9707 154.324 93.6953 154.324 94.543C154.324 95.418 154.11 96.179 153.681 96.8262C153.262 97.4824 152.697 98.0247 151.986 98.4531C151.275 98.8906 150.487 99.2188 149.621 99.4375C148.764 99.6562 147.898 99.7656 147.023 99.7656ZM147.023 96.7441C147.679 96.7441 148.295 96.6621 148.869 96.498C149.443 96.334 149.908 96.097 150.263 95.7871C150.619 95.4772 150.796 95.1035 150.796 94.666C150.796 94.2012 150.669 93.8229 150.414 93.5312C150.168 93.2487 149.849 93.0299 149.457 92.875C149.065 92.7201 148.645 92.6152 148.199 92.5605C147.752 92.5059 147.328 92.4785 146.927 92.4785C146.727 92.4785 146.412 92.4876 145.984 92.5059C145.565 92.5332 145.141 92.5879 144.712 92.6699C144.284 92.7611 143.938 92.9069 143.673 93.1074C143.491 93.3171 143.368 93.5176 143.304 93.709C143.25 93.9004 143.222 94.0918 143.222 94.2832C143.222 94.8483 143.405 95.3132 143.769 95.6777C144.143 96.0423 144.621 96.3112 145.205 96.4844C145.788 96.6576 146.394 96.7441 147.023 96.7441ZM146.681 84.8906C147.538 84.8906 148.272 84.6309 148.882 84.1113C149.493 83.5918 149.798 82.89 149.798 82.0059C149.798 81.3861 149.639 80.8757 149.32 80.4746C149.001 80.0736 148.591 79.7773 148.089 79.5859C147.597 79.3945 147.087 79.2988 146.558 79.2988C146.002 79.2988 145.483 79.4036 145 79.6133C144.526 79.8138 144.138 80.1146 143.837 80.5156C143.546 80.9167 143.4 81.4134 143.4 82.0059C143.4 82.89 143.71 83.5918 144.33 84.1113C144.959 84.6309 145.742 84.8906 146.681 84.8906ZM166.921 92.3418C166.246 92.3418 165.667 92.1048 165.184 91.6309C164.71 91.1478 164.473 90.569 164.473 89.8945C164.473 89.2292 164.71 88.6595 165.184 88.1855C165.667 87.7116 166.246 87.4746 166.921 87.4746C167.586 87.4746 168.156 87.7116 168.63 88.1855C169.103 88.6595 169.34 89.2292 169.34 89.8945C169.34 90.569 169.099 91.1478 168.616 91.6309C168.142 92.1048 167.577 92.3418 166.921 92.3418ZM166.921 81.6094C166.246 81.6094 165.667 81.3724 165.184 80.8984C164.71 80.4154 164.473 79.8366 164.473 79.1621C164.473 78.4967 164.71 77.9271 165.184 77.4531C165.667 76.9792 166.246 76.7422 166.921 76.7422C167.586 76.7422 168.156 76.9792 168.63 77.4531C169.103 77.9271 169.34 78.4967 169.34 79.1621C169.34 79.8366 169.099 80.4154 168.616 80.8984C168.142 81.3724 167.577 81.6094 166.921 81.6094ZM176.971 96.7441C176.752 96.7441 176.552 96.6849 176.369 96.5664C176.187 96.457 176.037 96.3431 175.918 96.2246C174.797 94.9395 173.863 93.4766 173.116 91.8359C172.368 90.1862 171.803 88.459 171.42 86.6543C171.047 84.8496 170.86 83.0677 170.86 81.3086C170.86 79.6771 171.047 77.9635 171.42 76.168C171.803 74.3633 172.391 72.6087 173.184 70.9043C173.977 69.1908 174.993 67.6732 176.233 66.3516C176.47 66.1237 176.761 66.0098 177.108 66.0098C177.263 66.0098 177.431 66.0462 177.614 66.1191C177.796 66.1829 178.01 66.3379 178.256 66.584C178.639 66.9303 178.83 67.2858 178.83 67.6504C178.83 67.7962 178.794 67.9466 178.721 68.1016C178.657 68.2565 178.548 68.4206 178.393 68.5938C177.39 69.6419 176.593 70.8861 176 72.3262C175.417 73.7572 175.002 75.2611 174.756 76.8379C174.51 78.4147 174.387 79.946 174.387 81.4316C174.387 83.0358 174.533 84.6126 174.825 86.1621C175.125 87.7025 175.554 89.1426 176.11 90.4824C176.675 91.8132 177.349 92.9616 178.133 93.9277C178.224 94.0462 178.343 94.2103 178.489 94.4199C178.644 94.6387 178.721 94.8574 178.721 95.0762C178.721 95.2129 178.68 95.3587 178.598 95.5137C178.525 95.6686 178.343 95.8783 178.051 96.1426C177.787 96.3978 177.568 96.5618 177.395 96.6348C177.222 96.7077 177.08 96.7441 176.971 96.7441Z" fill="#550940"/>
</svg>