<svg preserveAspectRatio="none" width="100%" height="100%" overflow="visible" style="display: block;" viewBox="0 0 39.4979 27.0857" fill="none" xmlns="http://www.w3.org/2000/svg">
<g id="Group 2147208884">
<path id="Union" d="M21.0675 0.771373C23.1331 0.771392 24.7039 2.62638 24.3643 4.66395L22.6505 14.9491C22.3819 16.5608 20.9875 17.7428 19.3536 17.7431H13.8175C13.7701 17.7431 13.7315 17.7817 13.7315 17.829C13.7318 17.8761 13.7703 17.914 13.8175 17.914H31.1729C33.3477 17.914 34.9436 19.9584 34.4161 22.0682L33.5655 25.4706C33.4414 25.9665 32.9957 26.3143 32.4845 26.3143H16.8643C16.1038 26.3143 15.5663 25.5691 15.8067 24.8475L16.6573 22.2968C16.8418 21.7433 16.4301 21.1719 15.8468 21.1718C15.4788 21.1718 15.1516 21.4067 15.0352 21.7557L13.7696 25.5526C13.6179 26.0074 13.1925 26.3143 12.713 26.3143H5.67001C4.96067 26.3143 4.43166 25.6603 4.58017 24.9667L6.62704 15.414C6.95729 13.8728 8.31947 12.7715 9.89559 12.7714H17.2462C17.2933 12.7711 17.3311 12.7326 17.3311 12.6854C17.331 12.6384 17.2932 12.6007 17.2462 12.6005H4.11532C1.99793 12.6002 0.414289 10.6558 0.841884 8.58192L1.8663 3.61512C1.89457 3.47783 1.89501 3.39131 1.92684 3.15126C2.10504 1.80784 3.25366 0.771456 4.64559 0.771373H21.0675Z" stroke-width="1.54286" class="fillPrimary strokeLogo"/>
<path id="Union_2" d="M35.3809 0.771373C37.5818 0.771373 39.1825 2.86151 38.6085 4.98622L38.0899 6.90711C37.696 8.36522 36.3728 9.37782 34.8624 9.37782H29.3292C29.3008 9.37796 29.2765 9.39795 29.2706 9.42567C29.2627 9.4631 29.291 9.49872 29.3292 9.49891H33.3077C35.4777 9.49901 37.0729 11.5345 36.5538 13.6415L36.2081 15.0438C35.8401 16.5373 34.5002 17.5868 32.962 17.5868H26.5304C24.4524 17.5868 22.8783 15.7114 23.2384 13.6649L25.0206 3.53504C25.3018 1.93707 26.6901 0.771592 28.3126 0.771373H35.3809Z" stroke-width="1.54286" class="fillPrimary strokeLogo"/>
</g>
</svg>
